<!--
  Derived from vsc-material-theme-icons
  Licensed under Apache License 2.0
  http://www.apache.org/licenses/LICENSE-2.0

  Modified under GPLv3
-->
<svg viewBox="0 0 16 16" xmlns="http://www.w3.org/2000/svg">
  <path
    d="m 3.1221107,1.4665207 c -0.7767596,0 -1.338655,0.2082858 -1.6846794,0.6240389 C 1.0914068,2.501372 0.91958268,3.2171023 0.91958268,4.2367166 V 5.892546 c 0,0.9453752 -0.26959704,1.4171901 -0.80629406,1.4171901 v 1.3661087 c 0.5366836,0 0.80629406,0.4553694 0.80629406,1.3661082 v 1.781662 c 0,1.014646 0.17354242,1.719986 0.52309782,2.116019 0.3495415,0.395896 0.909665,0.593778 1.6794435,0.593778 v -1.388394 c -0.300125,0 -0.5174055,-0.101218 -0.6515731,-0.304071 C 2.3399141,12.637964 2.2752065,12.294154 2.2752065,11.809115 V 10.28705 c 0,-1.2126629 -0.2717182,-1.9717152 -0.8154229,-2.2785391 V 7.9783587 C 2.0035286,7.6665407 2.2752065,6.9165234 2.2752065,5.7286291 V 4.1475222 c 0,-0.8612014 0.2819882,-1.2926748 0.8469042,-1.2926748 V 1.4664535 Z"
    fill="#82aaff"
  />
  <path
    d="m 12.862444,1.4665475 v 1.3883938 c 0.564915,0 0.84697,0.4314467 0.84697,1.292675 v 1.5221048 c 0,1.2373646 0.269973,2.011305 0.810187,2.3230962 v 0.030152 c -0.540214,0.2969704 -0.810187,1.0365969 -0.810187,2.2195257 v 1.58112 c 0,0.48007 -0.06645,0.819315 -0.200568,1.017332 -0.134247,0.202984 -0.349715,0.304207 -0.646402,0.304207 v 1.388393 c 0.773269,0 1.331741,-0.198017 1.674206,-0.593913 0.345959,-0.396033 0.517795,-1.116275 0.517795,-2.160591 v -1.714859 c 0,-0.9255726 0.271317,-1.3883928 0.81153,-1.3883928 v -1.366109 c -0.540213,0 -0.81153,-0.4673309 -0.81153,-1.4027584 V 4.2065376 c 0,-0.9998126 -0.171836,-1.7051521 -0.517795,-2.1159513 C 14.190559,1.6748334 13.632221,1.4665341 12.862444,1.4665341 Z"
    fill="#82aaff"
  />
  <path
    fill-rule="evenodd"
    d="m 11.147131,4.4595954 c -0.305401,0 -0.594733,0.038919 -0.867968,0.1166749 C 10.005956,4.6509256 9.764417,4.7685136 9.5555,4.9302424 9.349254,5.0919843 9.185713,5.2984177 9.0651852,5.550361 8.9446439,5.79919 8.8842591,6.0987242 8.8842591,6.4470711 c 0,0.4447774 0.1107413,0.8238135 0.3303849,1.1379542 0.222314,0.314154 0.558176,0.5793609 1.008203,0.797098 0.176777,0.083974 0.341581,0.1669108 0.494247,0.2477817 0.152681,0.080871 0.283437,0.164615 0.393253,0.2517151 0.112501,0.087086 0.200566,0.1818391 0.264874,0.2844853 0.06431,0.1026464 0.09706,0.2194015 0.09706,0.3500383 0,0.096429 -0.02013,0.1873969 -0.06027,0.2713827 -0.04028,0.08087 -0.101895,0.1514854 -0.184861,0.2136956 -0.08042,0.05909 -0.182308,0.10607 -0.305548,0.140277 -0.120518,0.03422 -0.262669,0.05113 -0.426062,0.05113 -0.278565,0 -0.554043,-0.05584 -0.827237,-0.167809 C 9.395087,9.9097323 9.1422436,9.7392776 8.9091889,9.5122103 v 1.4919537 c 0.2089169,0.124449 0.4554901,0.218422 0.7394391,0.280579 0.286606,0.06215 0.587227,0.09303 0.903288,0.09303 0.308031,0 0.599914,-0.03383 0.875795,-0.102162 0.278565,-0.06846 0.522627,-0.18016 0.731518,-0.33562 0.20889,-0.158681 0.373746,-0.364283 0.494168,-0.616225 0.123238,-0.255059 0.184857,-0.5693741 0.184857,-0.942624 0,-0.2706041 -0.03516,-0.5070821 -0.104846,-0.7092328 C 12.66373,8.4666191 12.56318,8.2851558 12.431887,8.1265282 12.300592,7.9679008 12.143387,7.8261751 11.958661,7.7017539 11.776486,7.5742316 11.570149,7.4545093 11.339779,7.3425329 11.171028,7.2616618 11.020132,7.1838248 10.886207,7.1091694 10.752281,7.0314129 10.63778,6.9535758 10.544021,6.875806 10.450274,6.794935 10.378602,6.7111911 10.327695,6.6240909 c -0.05089,-0.090201 -0.07734,-0.1921764 -0.07734,-0.3041527 0,-0.1026464 0.02263,-0.1931292 0.06818,-0.2740002 0.04554,-0.083972 0.110996,-0.1559024 0.194027,-0.2149983 0.08303,-0.059096 0.18494,-0.1039348 0.305468,-0.1350403 0.120483,-0.034207 0.253799,-0.052437 0.401202,-0.052437 0.107132,0 0.219093,0.010173 0.336963,0.028851 0.12042,0.018661 0.241244,0.047389 0.361799,0.087839 0.120554,0.037321 0.237484,0.086415 0.349985,0.1455115 0.115184,0.05911 0.220837,0.1267705 0.317361,0.2045269 V 4.7152842 C 12.389732,4.6281972 12.175875,4.5643088 11.94282,4.5238734 11.71245,4.4803234 11.447041,4.4596354 11.147131,4.4596354 Z M 5.25803,4.5710347 3.161746,11.261115 H 4.5671894 L 4.973612,9.7731483 H 7.0227078 L 7.4317484,11.261115 H 8.8463206 L 6.7972247,4.5710347 H 5.2580702 Z m 0.7512256,1.1943517 h -0.031467 l -1.33e-5,-4.03e-5 C 5.9643765,5.9612945 5.9303986,6.1559005 5.8768202,6.348748 L 5.2501631,8.6155271 H 6.7250799 L 6.1062765,6.3671398 C 6.0607397,6.1991822 6.02801,5.9986693 6.0092556,5.7653864 Z"
    fill="#f07178"
  />
</svg>
