<!--
  Derived from vsc-material-theme-icons
  Licensed under Apache License 2.0
  http://www.apache.org/licenses/LICENSE-2.0

  Modified under GPLv3
-->
<svg viewBox="0 0 16 16" xmlns="http://www.w3.org/2000/svg">
  <path
    d="M 0.6795,8 C 0.6795,3.9569943 3.9569943,0.6795 8,0.6795 c 4.043046,0 7.3205,3.2774943 7.3205,7.3205 0,4.043046 -3.277454,7.3205 -7.3205,7.3205 C 3.9569943,15.3205 0.6795,12.043046 0.6795,8 Z"
    fill="#212431"
    stroke="#555b77"
  />
  <path
    d="m 10.109382,5.8508742 c 0.153957,0 0.285061,-0.055596 0.393297,-0.1668142 0.108251,-0.111205 0.162649,-0.2407646 0.163181,-0.388652 0,-0.1573508 -0.05435,-0.2889734 -0.163181,-0.3948678 -0.108812,-0.1058805 -0.239913,-0.159121 -0.393297,-0.15972 -0.1533976,-5.856e-4 -0.2821852,0.052655 -0.3863626,0.15972 -0.1041909,0.1070795 -0.156286,0.2387016 -0.156286,0.3948678 0,0.1561662 0.052095,0.2877888 0.156286,0.3948678 0.1041777,0.1070652 0.232965,0.1603056 0.3863626,0.15972 z"
    fill="#ffcb6b"
  />
  <path
    d="M 9.5806291,6.33625 H 10.639 v 4.076414 H 9.5806291 Z"
    fill="#ffffff"
  />
  <path
    d="M 7.6401109,9.0399502 H 6.2023248 L 6.2014463,9.0408287 5.8081358,10.413542 H 4.8313815 L 6.215342,5.5882147 V 5.0611387 H 7.5315812 L 9.1056883,10.412651 H 8.0204042 Z M 7.4369737,8.1109122 6.9082206,6.0034867 H 6.9073422 L 6.3785891,8.1109122 Z"
    fill="#ffffff"
  />
</svg>
