<!--
  Derived from vsc-material-theme-icons
  Licensed under Apache License 2.0
  http://www.apache.org/licenses/LICENSE-2.0

  Modified under GPLv3
-->
<svg viewBox="0 0 16 16" xmlns="http://www.w3.org/2000/svg">
  <path
    fill-rule="evenodd"
    d="M 10.231 1.8566 L 11.0516 1.036 C 11.1707 0.917 11.1707 0.7165 11.0516 0.5912 C 10.9264 0.4722 10.7259 0.4722 10.6069 0.5912 L 9.6798 1.5183 C 9.1786 1.274 8.6148 1.1299 8.0197 1.1299 C 7.4183 1.1299 6.8545 1.274 6.3534 1.5246 L 5.42 0.5912 C 5.301 0.4722 5.1005 0.4722 4.9815 0.5912 C 4.8562 0.7165 4.8562 0.917 4.9815 1.036 L 5.8021 1.8566 C 4.8688 2.5457 4.2611 3.6357 4.2611 4.8886 H 11.7784 C 11.7784 3.6357 11.1521 2.5395 10.2312 1.8566 H 10.231 Z M 6.1403 3.6357 H 6.7668 V 3.0092 H 6.1403 V 3.6357 Z M 9.2726 3.6357 H 9.899 V 3.0092 H 9.2726 V 3.6357 Z M 12.4049 6.4547 C 12.4049 5.9358 12.8256 5.5151 13.3446 5.5151 C 13.8635 5.5151 14.2842 5.9358 14.2842 6.4547 V 10.8398 C 14.2842 11.3588 13.8635 11.7795 13.3446 11.7795 C 12.8256 11.7795 12.4049 11.3588 12.4049 10.8398 V 6.4547 Z M 2.6948 5.5151 C 2.1759 5.5151 1.7552 5.9358 1.7552 6.4547 V 10.8398 C 1.7552 11.3588 2.1759 11.7795 2.6948 11.7795 C 3.2138 11.7795 3.6345 11.3588 3.6345 10.8398 V 6.4547 C 3.6345 5.9358 3.2138 5.5151 2.6948 5.5151 Z M 4.8874 12.406 C 4.5414 12.406 4.261 12.1255 4.261 11.7795 L 4.2608 5.5151 H 11.7782 V 11.7795 C 11.7782 12.1255 11.4977 12.406 11.1517 12.406 H 10.5253 V 14.5985 C 10.5253 15.1174 10.1046 15.5381 9.5856 15.5381 C 9.0667 15.5381 8.646 15.1174 8.646 14.5985 V 12.406 H 7.3931 V 14.5985 C 7.3931 15.1174 6.9724 15.5381 6.4535 15.5381 C 6.2043 15.5381 5.9653 15.4391 5.789 15.2628 C 5.6128 15.0866 5.5138 14.8477 5.5138 14.5985 V 12.406 H 4.8874 Z"
    fill="#C3E88D"
  />
</svg>
