<!--
  Derived from vsc-material-theme-icons
  Licensed under Apache License 2.0
  http://www.apache.org/licenses/LICENSE-2.0

  Modified under GPLv3
-->
<svg viewBox="0 0 16 16" xmlns="http://www.w3.org/2000/svg">
  <path
    d="M1.01,14.98V1h2.3s0,1.4,0,1.4h-1.15v11.19h1.15v1.4H1.01ZM12.7,2.4v-1.4h2.3v13.98h-2.3v-1.4h1.15V2.4h-1.15Z"
    fill="#f78c6c"
  />
  <path
    d="M9.55,2.46c.23-.1.51-.14.83-.14h0c.34,0,.62.05.85.15.23.1.42.24.56.44.14.19.25.43.31.7.07.28.1.6.1.96s-.03.69-.1.98c-.07.29-.17.52-.31.71-.15.19-.33.33-.56.43-.23.1-.51.14-.85.14s-.61-.05-.84-.15c-.23-.1-.42-.24-.56-.43-.15-.19-.25-.43-.32-.71-.07-.28-.1-.61-.1-.97s.03-.7.1-.98c.07-.28.17-.51.32-.71.15-.19.33-.33.57-.43ZM5.89,2.68c.05-.08.08-.17.09-.29h.98s0,3.59,0,3.59h.91v.76h-2.94v-.76h.93v-2.29h-.93v-.71c.14,0,.28,0,.41-.02.13-.02.24-.05.33-.09.1-.05.18-.11.23-.19ZM10.39,3.12c.24,0,.42.11.52.34.1.22.16.59.16,1.12s-.05.89-.16,1.12c-.11.23-.28.34-.52.34s-.41-.11-.52-.34c-.11-.23-.16-.6-.16-1.11s.05-.9.16-1.12c.1-.22.28-.34.52-.34h0ZM5.46,8.13c.23-.1.51-.14.83-.14s.62.05.85.15c.23.1.41.24.56.44.14.19.25.43.31.7.07.28.1.6.1.96s-.03.69-.1.98c-.07.29-.17.52-.31.71-.15.19-.33.33-.56.43-.23.1-.51.14-.85.14s-.61-.05-.84-.15c-.23-.1-.42-.24-.57-.43-.15-.19-.25-.43-.32-.71-.07-.28-.1-.61-.1-.97s.03-.7.1-.98c.07-.28.17-.51.32-.7.15-.19.33-.33.57-.43ZM10.07,8.06h0s0,0,0,0h0ZM10.07,8.06h.98v3.59h.91v.76h-2.94v-.76h.93v-2.29h-.93v-.71c.14,0,.28,0,.41-.02.13-.02.24-.05.33-.09.1-.05.18-.11.23-.19.05-.08.08-.17.09-.29ZM6.82,9.12c-.1-.22-.28-.34-.52-.34h0c-.24,0-.42.11-.52.34-.1.22-.16.6-.16,1.12s.05.89.16,1.11c.11.23.28.34.52.34s.41-.11.52-.34c.11-.23.16-.6.16-1.12s-.05-.9-.16-1.12Z"
    fill="#ffcb6b"
    fill-rule="evenodd"
  />
</svg>
