<!--
  Derived from vsc-material-theme-icons
  Licensed under Apache License 2.0
  http://www.apache.org/licenses/LICENSE-2.0

  Modified under GPLv3
-->
<svg viewBox="0 0 16 16" xmlns="http://www.w3.org/2000/svg">
  <path
    d="m 2.0646856,10.419157 c 0,0 2.0030744,-1.0250464 4.0117251,-1.0250464 L 7.5908763,4.4701741 C 7.6475605,4.232045 7.8131349,4.0702318 8.0000239,4.0702318 c 0.1869009,0 0.3524519,0.1618132 0.4091597,0.3999423 L 9.923625,9.3941106 c 2.379042,0 4.01169,1.0250464 4.01169,1.0250464 0,0 -3.402346,-9.73719111 -3.409001,-9.75672674 C 10.428677,0.37454874 10.263835,0.18913558 10.04159,0.18913558 H 5.9588218 c -0.2222587,0 -0.380455,0.18541316 -0.4847619,0.47329468 -0.00735,0.0191733 -3.4093743,9.75672674 -3.4093743,9.75672674 z"
    fill="#fff"
  />
  <path
    d="M 5.7488651,13.312367 C 5.0162969,12.616463 4.8024573,11.154254 5.1076607,10.094853 c 0.5292041,0.667841 1.2624499,0.879408 2.0219447,0.998918 1.1725253,0.184228 2.324015,0.1154 3.4131616,-0.441637 0.124712,-0.06376 0.23987,-0.148543 0.375954,-0.234427 0.102216,0.308214 0.128826,0.619212 0.09314,0.935895 -0.08685,0.771143 -0.456032,1.366768 -1.0433848,1.818326 -0.2348389,0.180599 -0.4833467,0.342085 -0.7259032,0.512402 -0.7451485,0.523411 -0.9467587,1.13718 -0.666752,2.029891 0.00665,0.02178 0.012605,0.04354 0.027652,0.09665 -0.3804573,-0.176966 -0.6583713,-0.43462 -0.8701062,-0.773437 -0.2236498,-0.35745 -0.3300616,-0.753 -0.3356623,-1.180969 -0.0028,-0.208302 -0.0028,-0.418415 -0.029745,-0.623689 -0.065792,-0.500548 -0.2918975,-0.724694 -0.7178471,-0.737638 -0.4371507,-0.01319 -0.7829497,0.267694 -0.8746643,0.709936 -0.00699,0.03399 -0.01714,0.06751 -0.027289,0.106931 z"
    fill="#ff5d01"
  />
</svg>
