<!--
  Derived from vsc-material-theme-icons
  Licensed under Apache License 2.0
  http://www.apache.org/licenses/LICENSE-2.0

  Modified under GPLv3
-->
<svg viewBox="0 0 16 16" xmlns="http://www.w3.org/2000/svg">
  <path
    fill-rule="evenodd"
    d="m 15.986,8 c 0,4.410535 -3.575465,7.986 -7.986,7.986 C 3.589452,15.986 0.014,12.410535 0.014,8 0.014,3.589452 3.589452,0.014 8,0.014 c 4.410535,0 7.986,3.575452 7.986,7.986 z M 8.7985335,4.0397426 c 0.9139843,0.1126026 3.1567995,0.630894 3.9717705,3.0334821 0.05391,0.1581228 0.0032,0.3330162 -0.126578,0.4380321 -0.07267,0.059096 -0.161717,0.089443 -0.251559,0.089443 -0.06988,0 -0.140154,-0.018368 -0.203244,-0.055503 C 11.165917,6.9402578 9.5376244,6.8248601 8.7985335,6.8048951 V 10.7951 c 0,1.10087 -0.8956166,1.9965 -1.9964601,1.9965 -1.1008568,0 -1.9964734,-0.89563 -1.9964734,-1.9965 0,-1.1008701 0.8956166,-1.9965 1.9964734,-1.9965 0.4511957,0 0.8632733,0.1561263 1.1978734,0.4096818 V 3.2084 h 0.7985867 z"
    fill="#fc8289"
  />
</svg>
