<!--
  Derived from vsc-material-theme-icons
  Licensed under Apache License 2.0
  http://www.apache.org/licenses/LICENSE-2.0

  Modified under GPLv3
-->
<svg viewBox="0 0 16 16" xmlns="http://www.w3.org/2000/svg">
  <path
    fill="#4caf50"
    d="M 2.5555556,1 C 1.6922223,1 1,1.6922223 1,2.5555556 V 13.444444 A 1.5555556,1.5555556 0 0 0 2.5555556,15 H 13.444444 A 1.5555556,1.5555556 0 0 0 15,13.444444 V 2.5555556 C 15,1.6922223 14.3,1 13.444444,1 Z m 2.8528646,2.6812066 c 0.2019133,0 0.3716091,0.066714 0.5073784,0.1990018 0.1357693,0.132288 0.203559,0.2946415 0.203559,0.4861111 0,0.264576 -0.011013,0.662896 -0.031902,1.1955295 -0.017406,0.5291521 -0.025824,0.9248766 -0.025824,1.1894524 0,0.087034 -0.01209,0.2541338 -0.036458,0.5013028 -0.020888,0.229763 -0.029306,0.4068012 -0.025825,0.5286466 L 8.0045592,7.4045136 C 8.7878438,7.265263 9.4620691,7.185385 10.029515,7.1644966 c 0.01393,-0.2332454 0.03704,-0.8591128 0.06835,-1.8791233 0.0069,-0.2680575 0.08944,-0.5770038 0.246093,-0.9251303 0.19495,-0.4281954 0.415156,-0.6425781 0.662325,-0.6425781 0.184508,0 0.347937,0.061967 0.490669,0.1838108 0.153176,0.132288 0.229385,0.2967936 0.229385,0.4952257 0,0.052219 -0.0057,0.104248 -0.01975,0.156467 -0.06963,0.2541323 -0.104818,0.4758573 -0.104818,0.6638455 0,0.097475 -0.01101,0.2488156 -0.0319,0.45421 -0.01741,0.2019133 -0.02581,0.3521775 -0.02581,0.4496529 0,0.3307198 -0.01685,0.8210096 -0.05165,1.472005 -0.03482,0.650997 -0.05318,1.1412852 -0.05318,1.472006 0,0.2541312 0.01944,0.6345399 0.05773,1.1393222 0.03829,0.504783 0.05773,0.88367 0.05773,1.137804 0,0.191469 -0.06778,0.353824 -0.20356,0.486112 -0.135769,0.132288 -0.303946,0.197482 -0.50586,0.197482 -0.205395,0 -0.38351,-0.0652 -0.533202,-0.197482 -0.149697,-0.128808 -0.22483,-0.28749 -0.22483,-0.475478 0,-0.254132 -0.01209,-0.635615 -0.03645,-1.14388 -0.02089,-0.5082643 -0.0319,-0.889749 -0.0319,-1.1438802 0,-0.1984324 0.0037,-0.3739512 0.01063,-0.5271272 -0.5465639,0.024368 -1.2207909,0.1105146 -2.024963,0.2567266 -0.6684022,0.1218446 -1.3368054,0.245335 -2.0052083,0.3706612 -0.00696,0.2367252 -0.03266,0.631373 -0.074437,1.1848946 -0.034813,0.487377 -0.051649,0.885698 -0.051649,1.19553 0,0.19147 -0.06779,0.353824 -0.2035592,0.486111 -0.1357691,0.132288 -0.3039459,0.197483 -0.5058592,0.197483 -0.2019135,0 -0.3716093,-0.06519 -0.5073785,-0.197483 -0.1357647,-0.132287 -0.2035543,-0.294641 -0.2035543,-0.486111 0,-0.351608 0.028925,-0.877089 0.088107,-1.5768223 0.062662,-0.6997346 0.094184,-1.2252159 0.094184,-1.5768235 0,-0.4456014 0.011013,-1.116599 0.031902,-2.0112844 0.020888,-0.8981666 0.031902,-1.5687215 0.031902,-2.0143233 0,-0.1914696 0.06779,-0.3538231 0.2035589,-0.4861111 0.1357772,-0.1322881 0.303954,-0.1990018 0.5058668,-0.1990018 z"
  />
</svg>
