<!--
  Derived from vsc-material-theme-icons
  Licensed under Apache License 2.0
  http://www.apache.org/licenses/LICENSE-2.0

  Modified under GPLv3
-->
<svg viewBox="0 0 16 16" xmlns="http://www.w3.org/2000/svg">
  <path
    fill-rule="evenodd"
    d="m 12.157971,6.7020738 c -0.01976,-0.1186317 0.447751,0.1115556 -0.232836,-0.6339011 z m 0.820262,0.6640235 C 12.958598,7.2474525 12.605722,6.8136294 11.925135,6.0681727 11.912612,5.9229764 12.154413,5.7122646 12.645121,5.4413475 L 14.03502,4.2319717 C 14.344809,3.8370995 14.529286,3.2031983 14.58845,2.3320076 L 14.570531,2.128385 C 14.516768,1.5139593 14.065459,1.0181653 13.218316,0.63569257 12.716804,0.29925995 11.817611,0.12042307 10.515563,0.09385844 9.4373363,0.18415973 8.0295558,0.56308785 6.297584,1.2253325 5.8211601,1.5670754 5.2784694,1.9052737 4.6695122,2.2417064 l 0.00895,0.106245 c 0.041192,-0.00355 0.094926,-0.024786 0.1629851,-0.06375 0.06985,-0.00531 0.1074712,0.026565 0.114639,0.088536 l 0.1074571,-0.060206 0.053735,-0.00176 0.00179,0.049571 c 0.00358,0.04958 -0.3743486,0.3417513 -1.1373438,0.8747174 l 0.059112,0.093859 -0.053735,0.00352 -0.1164179,-0.040717 c 0.00358,0.031862 -0.051943,0.053116 -0.1629851,0.061971 l 0.00717,0.058426 0.1271621,0.1363434 c -0.042983,0.00354 -0.098511,-0.00884 -0.1719453,-0.03364 -0.2471597,0.021262 -0.4889558,0.1983333 -0.7271677,0.5294425 l 0.06089,0.093859 C 3.2097884,3.9504208 3.3315824,3.856575 3.3656052,3.8530435 l 0.012544,0.154038 c -0.034035,0.00177 -0.089563,0.024799 -0.1612062,0.061984 l 0.1307546,0.194768 c 0.2489514,-0.2655937 0.5265755,-0.4957942 0.82747,-0.6870173 0.1486617,0.037173 0.2274728,0.084992 0.231057,0.1363414 L 4.5208504,3.702529 c 0.8185095,-0.5985 1.628085,-1.0305442 2.4304792,-1.2979167 l 0.00896,0.1062451 C 6.8116281,2.7304244 6.7095335,2.8437457 6.6557981,2.849056 6.6611738,2.925192 6.6862495,2.9907077 6.734609,3.0473684 6.7471404,3.181944 6.3817712,4.0920857 5.6438517,5.7724699 3.9656154,9.6803826 2.5578349,12.571987 1.41155,14.441789 c 0.00358,0.03716 0.025076,0.08671 0.066267,0.15048 0.2829872,-0.06549 0.4603087,-0.134536 0.5355356,-0.200024 l 0.06089,-0.0071 0.00896,0.10621 0.1056657,-0.0088 0.1074712,-0.06022 c 0.00358,0.03189 0.039399,0.04783 0.1110418,0.04072 l 0.010759,0.10621 c 0.00895,0.10449 -0.051943,0.262088 -0.1791135,0.478189 -0.1146259,0.127421 -0.2364201,0.396625 -0.3671612,0.809194 l 0.00358,0.04953 0.1038731,-0.01067 c 0.456727,-0.504507 0.8024099,-0.998641 1.0406218,-1.483815 1.3325536,-0.384238 2.3462921,-0.763074 3.0519809,-1.136771 0.7074678,-0.05837 1.2465874,-0.246144 1.6137486,-0.548818 l -0.00538,-0.05666 -0.2668585,0.07787 -0.060904,0.0071 -0.00538,-0.05666 c 0.5194188,-0.078 0.8794249,-0.191325 1.0782248,-0.348921 1.0119596,-0.77019 1.7767467,-1.317295 2.2943357,-1.639602 1.06219,-0.772034 1.75345,-1.52458 2.068773,-2.2541059 z m -9.3905311,-3.5856585 -0.053735,0.00533 -0.00895,-0.1487409 0.2184994,-0.028331 0.00358,0.076136 c -0.035815,0.00532 -0.089551,0.03364 -0.159401,0.095612 z M 2.5184359,14.293022 c -0.1271702,-0.05496 -0.2417961,-0.07787 -0.3385145,-0.06733 l -0.014337,-0.154038 c -0.00537,-0.06022 0.030451,-0.100939 0.1056787,-0.115034 0.06985,-0.0071 0.1110418,0.04243 0.116418,0.143365 C 2.5721575,13.8769 2.674252,13.763579 2.6921595,13.760021 l 0.1182099,0.04783 c -0.037606,0.313475 -0.1361174,0.472784 -0.2919342,0.48517 z M 13.941859,2.4789827 c -0.05377,0.00708 -0.161153,-0.1593614 -0.317035,-0.488718 l -0.009,-0.097377 c 0.102126,-0.00885 0.205954,0.1540511 0.317035,0.4904706 z M 13.789667,1.3103103 13.746705,1.4130106 12.195521,0.77379922 c 1.033464,0.0336403 1.56726,0.21247751 1.594141,0.53651068 z M 7.2396929,6.9216405 7.0193883,6.9499708 7.010428,6.80123 7.2307326,6.7728996 Z m -0.1791136,-3.3926433 0.055527,-0.00176 0.012544,0.1540511 c -0.050151,0.00176 -0.11821,0.077915 -0.2006052,0.2213325 L 6.919086,3.7963866 C 7.0175962,3.6812827 7.0677475,3.5927471 7.0605793,3.5289972 Z M 6.6790816,4.6020449 6.7274408,4.8074464 6.5949077,4.8092122 6.5483404,4.6055894 Z M 6.3602797,4.9862701 6.4659454,4.9756414 C 6.4552079,5.1456366 6.408639,5.235938 6.3226598,5.2430271 l -0.053735,0.00352 c 0.06628,-0.1133214 0.098511,-0.201857 0.091355,-0.2602833 z m -0.1809056,0.5329924 0.060904,-0.00709 0.00358,0.049584 -0.098511,0.1646717 -0.1056787,0.00885 -0.00179,-0.05135 C 6.1417663,5.6750797 6.188334,5.6219593 6.1793737,5.5192586 Z m -0.1056657,0.4798501 -0.053735,0.2567518 -0.08955,0.00353 -0.035828,-0.2549862 z M 4.2217348,11.001301 c -0.06985,0.350637 -0.1450777,0.531292 -0.2256676,0.534719 l -0.0018,-0.04955 c -0.0197,-0.17354 0.057306,-0.334693 0.2274596,-0.485173 z m -0.2507432,0.697717 0.00716,0.05666 c 0.010759,0.07431 -0.046567,0.118592 -0.1719323,0.122149 l -0.00538,-0.05495 c -0.010759,-0.06549 0.044776,-0.10621 0.1701533,-0.123863 z m -0.1719454,1.459078 0.1665692,-0.02134 0.00538,0.078 c -0.041194,0.0052 -0.094929,0.03361 -0.1611955,0.0867 l -0.1038862,0.01239 c -0.00717,-0.07431 0.026868,-0.129265 0.093134,-0.155751 z m 4.6961812,-1.439577 c -0.9259803,0.453286 -1.472255,0.759517 -1.633448,0.92067 -1.0029993,0.343523 -1.5009149,0.557778 -1.4919677,0.64277 -0.8901523,0.347079 -1.4776312,0.605611 -1.7588262,0.763206 -0.068059,0.007 -0.1629851,-0.01765 -0.2901554,-0.07446 -0.014323,-0.178811 0.068059,-0.322175 0.2417962,-0.439054 0.1558168,-0.01239 0.3044785,0.0088 0.4477642,0.06904 0.1647771,-0.08328 0.4531404,-0.178811 0.8632977,-0.279745 l -0.010738,-0.10449 -0.3295675,0.02661 c 0.041205,-0.05666 0.3582141,-0.203716 0.9546401,-0.442744 l 0.1647771,-0.0141 0.00358,0.04955 c -0.2829847,0.02648 -0.4388015,0.10621 -0.4728375,0.253128 0.00538,0.06733 0.044776,0.09395 0.1146259,0.08854 0.2131364,-0.130979 0.317023,-0.210698 0.3134389,-0.231913 0.4029891,-0.07616 1.5170434,-0.653443 3.3403442,-1.728151 l 0.00896,0.09553 c 0.00358,0.04968 -0.152246,0.180655 -0.4656848,0.405585 z m -2.7976535,0.909997 c 0.2668718,-0.02121 0.4943445,-0.129133 0.6841973,-0.313347 0.077005,-0.0071 0.11821,0.02306 0.1217941,0.08855 -0.1307543,0.01239 -0.3814976,0.118592 -0.7450878,0.32402 l -0.055527,0.0036 z M 10.212863,9.2005326 8.8122505,10.298365 c -1.0406193,0.674606 -1.5976332,1.01457 -1.6818205,1.018127 -1.6549396,0.9013 -2.6865986,1.368817 -3.0860036,1.402418 l -0.059112,0.007 C 4.0354661,12.541812 4.7698016,11.050846 6.1990736,8.2479086 6.8259514,8.1930136 7.8164194,7.9061657 9.1650883,7.3784968 l 0.3295543,-0.02833 c 0.6824054,-0.058439 1.1929184,0.072592 1.5295874,0.3860041 l 0.01793,0.2036359 C 10.7914,8.6569332 10.513775,9.0783568 10.212869,9.200533 Z M 7.4779049,7.7096191 7.7017804,7.6618 7.7053632,7.7892997 7.4796956,7.8388709 Z M 10.639201,7.150062 10.805757,7.134118 c 0.152194,0.072605 0.230992,0.1345757 0.236394,0.1912364 l 0.0036,0.049584 c -0.14512,0.012387 -0.281237,-0.06197 -0.40655,-0.2248764 z M 11.086953,4.6321278 C 10.941875,4.8038886 10.542431,5.0978258 9.8886846,5.5121602 9.6719642,5.5316356 8.86957,5.8379722 7.4796969,6.4417773 7.4116382,6.4081367 7.3382034,6.3975029 7.2576003,6.4028264 l -0.00895,-0.09739 C 7.2325247,6.1088893 7.322088,5.8609922 7.5190958,5.5582003 7.6265667,4.9951249 7.7429845,4.6728576 7.8737258,4.5931768 L 9.0307631,2.018595 C 9.0200107,1.8592204 9.267183,1.7370443 9.7740587,1.6520532 l 0.1647772,-0.015931 0.012531,0.1469619 c 0.4979291,-0.07437 0.8095891,-0.1186316 0.9296301,-0.1292522 0.920539,-0.077915 1.398728,0.1080114 1.436414,0.5489101 l 0.105676,-0.00885 -0.02147,-0.2602965 0.112795,-0.00885 c 0.27039,0.1469752 0.415467,0.3258121 0.435233,0.5347582 0.01252,0.1451963 -0.06628,0.3240331 -0.234681,0.5382895 -0.06983,0.00532 -0.110949,-0.044275 -0.118196,-0.1451962 l -0.112795,0.010629 -0.02688,0.3134125 C 11.991422,3.865424 11.651062,4.2195664 11.443394,4.2390419 11.25167,4.4993383 11.135318,4.6285905 11.086959,4.6321351 Z m 0.711025,1.8025867 c -0.095,-0.063737 -0.171958,-0.092067 -0.229278,-0.088536 l -0.01078,-0.1540379 0.103967,-0.00885 0.230992,0.1345625 c 0.0089,0.072605 -0.02147,0.1097899 -0.09487,0.1168659 z m 0.736062,0.8623227 c 0.103966,0.04073 0.166687,0.084992 0.179205,0.1257208 l -0.05205,0.012386 0.0037,0.00355 c -0.01078,0 -0.02332,0.00176 -0.03228,0.00531 l -0.0788,0.060206 z m 0.07168,0.5382895 -0.01067,-0.1009219 0.166556,-0.076136 0.01252,0.099156 z"
    fill="#ffcb6b"
  />
</svg>
