<!--
  Derived from vsc-material-theme-icons
  Licensed under Apache License 2.0
  http://www.apache.org/licenses/LICENSE-2.0

  Modified under GPLv3
-->
<svg viewBox="0 0 16 16" xmlns="http://www.w3.org/2000/svg">
  <path
    d="M9.72,14.04c-.34,0-.54-.23-.67-.43-.19-.3-1.13-2.14-1.63-3.13-.99.28-2.51.72-2.98.84-.1.03-.2.04-.29.04-.39,0-.7-.22-.86-.62-.03-.06-.32-.76-.72-1.7C1.68,6.92.25,3.55.12,3.22,0,2.91,0,2.67.11,2.48c.07-.11.2-.24.47-.26.18-.02,2.75-.25,3.09-.27h0c.5,0,.63.21.76.41l3.61,6.58,3.99-1.05s-1.23-1.9-1.3-2.02c-.14-.21-.11-.37-.07-.48.07-.17.23-.27.48-.32.21-.04,1.99-.37,2.14-.39.02,0,.18-.02.2-.02.29,0,.48.21.62.38.12.15,1.7,2.3,1.75,2.37.15.19.13.36.11.45-.03.11-.12.25-.37.32l-1.68.49c.68.99,1.58,2.31,1.67,2.45.1.16.13.31.08.45-.07.21-.26.3-.41.37-.19.08-4.66,1.85-5.01,1.96-.19.07-.35.12-.51.12ZM8.67,10.12c.51.97,1.19,2.24,1.29,2.42.05-.05.59-.26,2.31-.89,0,0,1.69-.63,1.82-.68l-1.34-2.02-4.09,1.16ZM1.49,3.25c.51,1.14,2.5,5.63,2.95,6.65.47-.12,1.8-.47,2.38-.62L3.52,3.06c-.21.02-1.87.18-2.03.19ZM13.16,7.62c.33-.09.95-.26,1.3-.35,0,0-.91-1.27-1.06-1.48-.25.05-.88.18-1.29.26l1.05,1.57Z"
    fill="#fc8289"
  />
</svg>
