<!--
  Derived from vsc-material-theme-icons
  Licensed under Apache License 2.0
  http://www.apache.org/licenses/LICENSE-2.0

  Modified under GPLv3
-->
<svg viewBox="0 0 16 16" xmlns="http://www.w3.org/2000/svg">
  <path
    d="M8,15.99c4.41,0,7.99-3.58,7.99-7.99S12.41.01,8,.01.01,3.59.01,8s3.58,7.99,7.99,7.99Z"
    fill="#ffcb6b"
  />
  <path
    d="M11.06,8.43c-.12-.06-.12-.28-.12-.37,0-.27-.02-.66-.1-1.22,0-.06-.02-.12-.02-.18-.02-.08-.04-.22-.07-.4-.12-.74-.19-1.25-.09-1.86.02-.1.05-.26.11-.46.04-.08.08-.17.12-.25,0,.07.01.14.02.21,0,.09.03.23.07.4.04.17.52,1.65,1.93,2.31.5.23,1.07.34,1.08.62,0,.1-.06.2-.09.24-.14.2-.37.25-.57.3-.63.16-.76.31-1.61.54,0,0,0,0-.33.07-.19.04-.29.06-.34.04Z"
    fill="#fff"
  />
  <path
    d="M7.7,2.55c-.16-.39-.28-.82-.34-1.36-.65.46-1.18,1.13-1.58,1.9-.29-.3-.56-.67-.81-1.16-.44.66-.7,1.48-.79,2.34-.37-.18-.75-.43-1.15-.78-.18.78-.12,1.63.1,2.46-.42-.03-.87-.13-1.38-.32.12.79.47,1.57.98,2.26-.4.12-.84.18-1.37.19h0s0,0,0,0h0c.39.7,1.01,1.3,1.73,1.77-.33.26-.73.49-1.24.69h0c.61.51,1.4.85,2.24,1.03-.22.35-.5.7-.89,1.06h0,0c.75.26,1.61.29,2.45.16-.07.41-.22.84-.46,1.33h0c.8-.03,1.61-.31,2.35-.73.08.41.1.87.05,1.41,1.61-.69,2.86-2.49,3.3-4.27.12-.32.18-.79.18-1.43,0-.17,0-.34,0-.5,1.3-.22,2.25-.67,2.79-.99.2-.12.4-.29.47-.43.1-.12.16-.27.16-.44,0-.38-.31-.68-.68-.68-.32,0-.59.22-.66.52-1.06-.55-2.27-1.67-1.97-3.28.22-.31.53-.61.95-.93h0s0,0,0,0h0c-.79-.09-1.64.05-2.44.36-.01-.42.04-.87.17-1.39-.77.2-1.51.63-2.14,1.2ZM11.05,8.39c.15-.03.29-.05.43-.09.88-.2,1.64-.51,2.25-.87.06-.04.12-.08.17-.12.05-.07.04-.12,0-.17-.65-.17-1.46-.61-2.04-1.18-.64-.62-1-1.36-.99-2.18-.32.74-.22,1.51-.07,2.51.13-.02.23-.12.25-.26.01-.14-.08-.26-.21-.3.2-.04.4.05.5.23.1.18.06.4-.08.54-.11.11-.26.15-.41.13.08.52.15,1.09.19,1.75Z"
    fill="#212431"
    fill-rule="evenodd"
  />
</svg>
