<svg viewBox="0 0 16 16" xmlns="http://www.w3.org/2000/svg">
  <defs>
    <mask id="cutout-mask">
      <rect width="100%" height="100%" fill="white" />
      <path
        d="m15.098 10.916h-0.29095v-0.7759c0-1.1638-1.1638-2.3276-2.3276-2.3276-1.1638 0-2.3276 1.1638-2.3276 2.3276v0.7759h-0.29095c-0.48006 0-0.87284 0.39895-0.87284 0.88669v3.3105c0 0.48763 0.39278 0.88669 0.87284 0.88669h5.237c0.48006 0 0.87284-0.39906 0.87284-0.88669 0 0 0.06462-2.7612 0-3.3105-0.057-0.4844-0.39278-0.88669-0.87284-0.88669zm-3.7823-0.7759v0.7759h2.3276v-0.7759s0-1.1638-1.1638-1.1638c-1.1638 0-1.1638 1.1638-1.1638 1.1638z"
        fill="black"
        stroke="#000"
        stroke-width="1.5"
      />
    </mask>
  </defs>
  <g mask="url(#cutout-mask)">
    <path
      d="m15.467 8.5493c0 3.2448-3.3429 5.8752-7.4667 5.8752-4.1237 0-7.4667-2.6304-7.4667-5.8752 0-2.0117 1.28-3.7888 3.2469-4.8427 1.9669-1.0539 3.1915-2.1333 4.2197-2.1333s1.9072 0.88107 4.2197 2.1333c1.9669 1.0539 3.2469 2.8309 3.2469 4.8427z"
      fill="#fbf0df"
      stroke-width=".21333"
    />
    <path
      d="m15.467 8.5493c-0.001046-0.41683-0.058454-0.83162-0.17067-1.2331-0.5824 7.104-9.248 7.4453-12.655 5.3205 1.5315 1.1871 3.4215 1.8176 5.3589 1.7877 4.1173 0 7.4667-2.6347 7.4667-5.8752z"
      fill="#f6dece"
      stroke-width=".21333"
    />
    <path
      d="m5.1264 3.3163c0.9536-0.57173 2.2208-1.6448 3.4667-1.6469-0.19166-0.061952-0.39164-0.094323-0.59307-0.096-0.51627 0-1.0667 0.26667-1.76 0.66773-0.24107 0.1408-0.49067 0.29653-0.7552 0.45867-0.49707 0.3072-1.0667 0.65493-1.7067 1.0027-2.0309 1.0987-3.2448 2.9099-3.2448 4.8469v0.25387c1.2928-4.5675 3.6416-4.9152 4.5931-5.4869z"
      fill="#fffefc"
      stroke-width=".21333"
    />
    <path
      d="m7.3856 2.1131c0.00299 0.50373-0.10278 1.0022-0.31006 1.4613-0.20727 0.45911-0.51121 0.86807-0.89101 1.199-0.059734 0.053334-0.0128 0.15573 0.064 0.12587 0.71893-0.27947 1.6896-1.1157 1.28-2.8032-0.017066-0.096-0.14293-0.0704-0.14293 0.017067zm0.48427 0c0.26103 0.4259 0.42686 0.90322 0.48614 1.3992 0.059286 0.496 0.010624 0.99895-0.14268 1.4744-0.0256 0.074666 0.066134 0.13867 0.11733 0.0768 0.4672-0.59733 0.87467-1.7835-0.3456-3.0635-0.061867-0.055467-0.15787 0.029867-0.1152 0.10453zm0.5888-0.036266c0.40877 0.2894 0.75074 0.66309 1.0028 1.0959 0.2521 0.43279 0.40845 0.9146 0.45852 1.4129-0.00217 0.017962 0.00268 0.036074 0.013502 0.05056 0.010818 0.014486 0.026818 0.024256 0.044656 0.027264 0.017817 0.00302 0.03614-9.386e-4 0.051138-0.01105 0.01498-0.010137 0.0255-0.025622 0.02938-0.043306 0.19627-0.74453 0.08534-2.0139-1.5296-2.6731-0.085334-0.034134-0.1408 0.081066-0.0704 0.13227zm-3.9381 2.2187c0.48623-0.14526 0.93643-0.3913 1.3213-0.72211 0.38483-0.33082 0.69568-0.73896 0.91232-1.1979 0.0384-0.0768 0.16-0.046934 0.1408 0.0384-0.36907 1.7067-1.6043 2.0629-2.3723 2.016-0.081067 0.0021334-0.078933-0.11093-0.0021332-0.1344z"
      clip-rule="evenodd"
      fill="#ccbea7"
      fill-rule="evenodd"
      stroke-width=".21333"
    />
    <path
      d="m8 14.96c-4.4117 0-8-2.8757-8-6.4107 0-2.1333 1.3184-4.1237 3.5264-5.3163 0.64-0.34133 1.1883-0.6848 1.6768-0.9856 0.2688-0.1664 0.52267-0.32213 0.768-0.4672 0.7488-0.44373 1.3888-0.74027 2.0288-0.74027s1.1989 0.256 1.8987 0.66987c0.21333 0.1216 0.42667 0.25387 0.65493 0.39893 0.5312 0.32853 1.1307 0.69973 1.92 1.1243 2.208 1.1925 3.5264 3.1808 3.5264 5.3163 0 3.5349-3.5883 6.4107-8 6.4107zm0-13.387c-0.51627 0-1.0667 0.26667-1.76 0.66773-0.24107 0.1408-0.49067 0.29653-0.7552 0.45867-0.49707 0.3072-1.0667 0.65493-1.7067 1.0027-2.0309 1.0987-3.2448 2.9099-3.2448 4.8469 0 3.2405 3.3493 5.8773 7.4667 5.8773 4.1173 0 7.4667-2.6368 7.4667-5.8773 0-1.9371-1.2139-3.7483-3.2469-4.8427-0.8064-0.42667-1.4357-0.82773-1.9456-1.1435-0.23253-0.14293-0.44587-0.2752-0.64-0.39253-0.6464-0.384-1.1179-0.59733-1.6341-0.59733z"
      stroke-width=".21333"
    />
    <path
      d="m9.504 10.107c-0.095829 0.39251-0.31398 0.74438-0.62293 1.0048-0.23194 0.22483-0.5322 0.36595-0.85333 0.40107-0.33077-0.029546-0.64158-0.17103-0.88107-0.40107-0.30579-0.26163-0.52087-0.61338-0.6144-1.0048-0.0031-0.02325-8.32e-4 -0.04689 0.00662-0.06912 0.00744-0.02223 0.019882-0.042454 0.036352-0.059136s0.036544-0.029354 0.058688-0.037078c0.022122-0.00772 0.045738-0.010281 0.069014-0.00746h2.6325c0.023104-0.00248 0.046464 3.414e-4 0.06833 0.00824 0.021866 0.00788 0.041642 0.020608 0.057878 0.037248 0.016234 0.01664 0.028458 0.036736 0.035798 0.058794 0.00734 0.02204 0.00956 0.04548 0.00652 0.06852z"
      fill="#b71422"
      stroke-width=".21333"
    />
    <path
      d="m7.1467 11.128c0.239 0.23019 0.54867 0.37299 0.87893 0.40533 0.32949-0.0328 0.63834-0.17559 0.8768-0.40533 0.076266-0.0711 0.14754-0.14737 0.21333-0.22827-0.13143-0.1491-0.29195-0.26972-0.47172-0.35448-0.17978-0.084757-0.37498-0.13182-0.57361-0.13832-0.21254 5e-3 -0.42069 0.06163-0.60651 0.16495-0.18579 0.10332-0.34372 0.25024-0.46016 0.42812 0.049066 0.0448 0.091734 0.08746 0.14293 0.128z"
      fill="#ff6164"
      stroke-width=".21333"
    />
    <path
      d="m7.1808 10.96c0.10575-0.13673 0.24113-0.24768 0.39597-0.32452 0.15482-0.07686 0.32506-0.11763 0.4979-0.11921 0.31947 0.0094 0.62387 0.13803 0.85333 0.36053 0.049066-0.05333 0.096-0.1088 0.1408-0.16427-0.2714-0.25848-0.63008-0.40544-1.0048-0.41173-0.20028 0.0017-0.39767 0.04777-0.57803 0.13481-0.18037 0.08706-0.33924 0.21295-0.46517 0.36866 0.050432 0.05481 0.10385 0.10679 0.16 0.15573z"
      stroke-width=".21333"
    />
    <path
      d="m8.0192 11.64c-0.3555-0.031146-0.69005-0.1815-0.94933-0.42667-0.33024-0.2793-0.56267-0.65675-0.66347-1.0773-0.00724-0.03744-0.00602-0.07603 0.00358-0.11294 0.0096-0.036906 0.027328-0.07121 0.051882-0.10039 0.029226-0.035306 0.066154-0.063466 0.10793-0.082326 0.04177-0.018858 0.087318-0.027904 0.13314-0.026474h2.6325c0.045738-9.6e-4 0.091114 0.0083 0.13282 0.027136 0.041728 0.018816 0.078698 0.04672 0.10825 0.081664 0.024298 0.02929 0.041728 0.063658 0.050944 0.10059 0.00924 0.03693 0.010044 0.07546 0.00238 0.11275-0.1008 0.42059-0.33325 0.79804-0.66347 1.0773-0.25875 0.24474-0.59247 0.39505-0.9472 0.42667zm-1.3163-1.5787c-0.034134 0-0.042666 0.01493-0.0448 0.0192 0.090176 0.36474 0.29417 0.69126 0.5824 0.93227 0.21075 0.20764 0.48478 0.33903 0.77867 0.37333 0.2931-0.03392 0.56683-0.16365 0.77867-0.36907 0.28732-0.24141 0.49052-0.56787 0.58027-0.93227-0.00467-0.0068-0.011115-0.01222-0.018645-0.01562s-0.015851-0.0046-0.024021-0.0036z"
      stroke-width=".21333"
    />
    <path
      d="m11.247 10.239c0.68926 0 1.248-0.32855 1.248-0.73387 0-0.40529-0.55874-0.73387-1.248-0.73387-0.68924 0-1.248 0.32858-1.248 0.73387 0 0.40531 0.55876 0.73387 1.248 0.73387z"
      fill="#febbd0"
      stroke-width=".21333"
    />
    <path
      d="m4.7894 10.239c0.68926 0 1.248-0.32855 1.248-0.73387 0-0.40529-0.55874-0.73387-1.248-0.73387-0.68926 0-1.248 0.32858-1.248 0.73387 0 0.40531 0.55874 0.73387 1.248 0.73387z"
      fill="#febbd0"
      stroke-width=".21333"
    />
    <path
      d="m5.376 9.2107c0.23258 4.054e-4 0.46005-0.06816 0.65363-0.19708 0.19358-0.1289 0.34458-0.31234 0.43388-0.52708 0.089301-0.21476 0.11287-0.45116 0.067755-0.67932-0.045099-0.22816-0.15689-0.43782-0.32119-0.60241-0.16431-0.16461-0.37376-0.27678-0.60183-0.3223-0.22807-0.045525-0.46453-0.022379-0.67945 0.066517-0.21491 0.088917-0.39861 0.23957-0.52787 0.43292-0.12926 0.19337-0.19825 0.42071-0.19825 0.65329 0 0.31138 0.12354 0.61005 0.34353 0.83042 0.21999 0.22037 0.51842 0.34447 0.8298 0.34505zm5.2843 0c0.23283 0.00168 0.46093-0.065814 0.65536-0.19394 0.19443-0.12813 0.34641-0.31113 0.43669-0.52576 0.090284-0.21463 0.11477-0.45124 0.0704-0.67983-0.044394-0.22857-0.15567-0.43881-0.31972-0.60405-0.16403-0.16525-0.37346-0.27806-0.60173-0.32412-0.22825-0.046037-0.46502-0.023275-0.6803 0.065451-0.2153 0.088704-0.39938 0.23936-0.52894 0.43285-0.12954 0.19347-0.1987 0.42108-0.1987 0.65393-5.76e-4 0.31044 0.12192 0.60847 0.34065 0.82878 0.21871 0.22033 0.51584 0.34498 0.82628 0.34669z"
      clip-rule="evenodd"
      fill-rule="evenodd"
      stroke-width=".21333"
    />
    <path
      d="m5.0134 8.1099c0.087424 4.268e-4 0.17301-0.025131 0.24591-0.073387 0.072917-0.048277 0.12983-0.11708 0.16358-0.19774 0.033749-0.080661 0.042816-0.16951 0.026005-0.25532-0.016789-0.085803-0.058688-0.16469-0.12036-0.22667-0.061675-0.061973-0.14035-0.10423-0.22607-0.12145-0.085717-0.017216-0.17461-0.0086-0.25542 0.024768-0.080832 0.033365-0.14993 0.089963-0.19855 0.16262-0.048618 0.072662-0.07456 0.15812-0.07456 0.24557 0 0.11674 0.04623 0.22874 0.12858 0.31151 0.082368 0.082752 0.19413 0.12951 0.31089 0.13009zm5.2843 0c0.08742 4.268e-4 0.17301-0.02513 0.24591-0.073386 0.0729-0.048278 0.12983-0.11708 0.16358-0.19774 0.03375-0.080662 0.04282-0.16951 0.026-0.25532-0.0168-0.085802-0.05868-0.16469-0.12036-0.22667-0.06168-0.061974-0.14035-0.10423-0.22607-0.12145-0.08572-0.017216-0.17461-0.0086-0.25542 0.024768-0.08084 0.033366-0.14993 0.089962-0.19855 0.16262-0.048619 0.072662-0.07456 0.15812-0.07456 0.24557-2.17e-5 0.11601 0.045636 0.22737 0.12706 0.31002 0.081445 0.082624 0.19213 0.1299 0.30814 0.13158z"
      clip-rule="evenodd"
      fill="#fff"
      fill-rule="evenodd"
      stroke-width=".21333"
    />
  </g>
  <path
    d="m15.098 10.916h-0.29095v-0.7759c0-1.1638-1.1638-2.3276-2.3276-2.3276-1.1638 0-2.3276 1.1638-2.3276 2.3276v0.7759h-0.29095c-0.48006 0-0.87284 0.39895-0.87284 0.88669v3.3105c0 0.48763 0.39278 0.88669 0.87284 0.88669h5.237c0.48006 0 0.87284-0.39906 0.87284-0.88669 0 0 0.06462-2.7612 0-3.3105-0.057-0.4844-0.39278-0.88669-0.87284-0.88669zm-3.7823-0.7759v0.7759h2.3276v-0.7759s0-1.1638-1.1638-1.1638c-1.1638 0-1.1638 1.1638-1.1638 1.1638z"
    fill="#FFCB6B"
    fill-rule="evenodd"
  />
</svg>
