<!--
  Derived from vsc-material-theme-icons
  Licensed under Apache License 2.0
  http://www.apache.org/licenses/LICENSE-2.0

  Modified under GPLv3
-->
<svg viewBox="0 0 16 16" xmlns="http://www.w3.org/2000/svg">
  <path
    d="M8,14.97c4.36,0,7.9-2.86,7.9-6.38,0-2.18-1.35-4.11-3.43-5.26-.85-.47-1.51-.89-2.07-1.24-1.04-.66-1.69-1.07-2.4-1.07s-1.54.52-2.61,1.2c-.61.39-1.22.76-1.85,1.12C1.46,4.49.1,6.41.1,8.6c0,3.52,3.54,6.38,7.9,6.38ZM7.08,3.21c.22-.5.33-1.04.33-1.59,0-.1.13-.12.15-.02.43,1.83-.59,2.74-1.35,3.04-.08.03-.13-.08-.07-.14.4-.36.72-.8.94-1.3ZM8.43,3.14c-.06-.54-.24-1.05-.51-1.52h0c-.04-.09.06-.18.12-.12,1.29,1.39.86,2.68.37,3.32-.05.07-.15,0-.12-.08.16-.52.21-1.06.15-1.6ZM9.6,2.77c-.26-.47-.63-.87-1.06-1.19h0c-.07-.07-.02-.19.07-.15,1.71.72,1.83,2.09,1.62,2.9,0,.02-.02.04-.03.05-.02.01-.04.02-.05.01-.02,0-.04-.01-.05-.03-.01-.02-.02-.04-.01-.05-.05-.54-.22-1.06-.49-1.53ZM6.25,3.14c-.41.36-.84.5-1.36.66-.08,0-.13-.05-.1-.12,1.15-.6,1.56-1.09,1.97-1.83,0,0,.1-.08.12.06,0,.2-.23.87-.64,1.23ZM9.51,10.53c-.09.4-.31.75-.62,1.02-.23.23-.53.37-.85.41-.33-.03-.64-.18-.87-.41-.3-.27-.52-.63-.61-1.02,0-.02,0-.05,0-.07,0-.02.02-.04.04-.06.02-.02.04-.03.06-.04.02,0,.05-.01.07,0h2.61s.05,0,.07,0c.02,0,.04.02.06.04.02.02.03.04.04.06,0,.02,0,.05,0,.07ZM5.92,9.1c-.24.16-.53.24-.81.21-.29-.03-.55-.16-.75-.37-.2-.21-.33-.49-.36-.78-.03-.29.04-.59.2-.83.14-.21.33-.37.56-.47.23-.1.48-.12.72-.07.24.05.46.17.64.35.17.18.29.41.34.65.05.25.02.5-.07.74-.09.23-.25.43-.46.57ZM11.51,9.1c-.24.16-.53.23-.81.2-.29-.03-.55-.16-.75-.37-.23-.24-.36-.56-.36-.9,0-.25.07-.5.21-.71.14-.21.33-.37.56-.47.23-.1.48-.12.72-.07.24.05.46.17.64.35s.29.41.34.66c.05.25.02.5-.07.74-.09.23-.26.43-.46.57Z"
    fill="#b2ccd6"
  />
</svg>
