<!--
  Derived from vsc-material-theme-icons
  Licensed under Apache License 2.0
  http://www.apache.org/licenses/LICENSE-2.0

  Modified under GPLv3
-->
<svg viewBox="0 0 16 16" xmlns="http://www.w3.org/2000/svg">
  <path
    d="M12.96,12.49l.46,2.76c-.29.16-.76.31-1.38.44-.63.15-1.38.23-2.24.23-2.46-.05-4.31-.79-5.54-2.22-1.25-1.44-1.87-3.26-1.87-5.46.06-2.61.8-4.62,2.23-6.02C6.09.8,7.91.08,10.11.08c.83,0,1.56.08,2.16.21.6.14,1.05.28,1.34.45l-.65,2.82-1.18-.38c-.45-.11-.96-.17-1.55-.17-1.29-.01-2.36.41-3.19,1.24-.85.83-1.28,2.09-1.31,3.78,0,1.54.41,2.74,1.2,3.62.79.87,1.9,1.32,3.33,1.34l1.48-.14c.48-.09.88-.21,1.22-.36Z"
    fill="#3965bd"
  />
</svg>
