<!--
  Derived from vsc-material-theme-icons
  Licensed under Apache License 2.0
  http://www.apache.org/licenses/LICENSE-2.0

  Modified under GPLv3
-->
<svg viewBox="0 0 16 16" xmlns="http://www.w3.org/2000/svg">
  <rect
    x="7.26"
    y=".63"
    width="6.1"
    height="8.54"
    rx="1.13"
    ry="1.13"
    transform="translate(-1.04 6.1) rotate(-31.47)"
    fill="#89ddff"
  />
  <path
    d="M14.65,11.63c.34-.57.16-1.3-.41-1.64l-3.18-1.91c-.57-.34-1.3-.16-1.64.41l-2.22,3.7c-.34.57-.16,1.3.41,1.64l3.18,1.91c.57.34,1.3.16,1.64-.41l2.22-3.7Z"
    fill="#c792ea"
    fill-rule="evenodd"
  />
  <path
    d="M2.85,7.66c-.08.18-1.71,1.1-1.67,1.3.04.21,1.98.93,2.13,1.09.15.16.74,2.17.94,2.23.2.05,1.21-1.53,1.38-1.61.18-.07,2.16.25,2.25.07.08-.18-1.24-1.88-1.28-2.09-.04-.21.6-2.02.45-2.18-.15-.16-1.97.37-2.17.32-.2-.05-1.79-1.5-1.97-1.42-.18.07.02,2.11-.07,2.28Z"
    fill="#3965bd"
    fill-rule="evenodd"
  />
</svg>
