<!--
  Derived from vsc-material-theme-icons
  Licensed under Apache License 2.0
  http://www.apache.org/licenses/LICENSE-2.0

  Modified under GPLv3
-->
<svg viewBox="0 0 16 16" xmlns="http://www.w3.org/2000/svg">
  <defs>
    <mask id="cutout-mask">
      <rect width="100%" height="100%" fill="white" />
      <path
        d="m15.098 10.916h-0.29095v-0.7759c0-1.1638-1.1638-2.3276-2.3276-2.3276-1.1638 0-2.3276 1.1638-2.3276 2.3276v0.7759h-0.29095c-0.48006 0-0.87284 0.39895-0.87284 0.88669v3.3105c0 0.48763 0.39278 0.88669 0.87284 0.88669h5.237c0.48006 0 0.87284-0.39906 0.87284-0.88669 0 0 0.06462-2.7612 0-3.3105-0.057-0.4844-0.39278-0.88669-0.87284-0.88669zm-3.7823-0.7759v0.7759h2.3276v-0.7759s0-1.1638-1.1638-1.1638c-1.1638 0-1.1638 1.1638-1.1638 1.1638z"
        fill="black"
        stroke="#000"
        stroke-width="1.5"
      />
    </mask>
  </defs>
  <g mask="url(#cutout-mask)">
    <rect x="1" y="1" width="14" height="14" fill="#e1b55a" />
    <path
      d="m13.933 7.8581-0.50559-0.30662c0-0.02382-3e-3 -0.048029-0.0093-0.072617-0.0061-0.024589-0.0092-0.048798-0.0092-0.072627l0.43293-0.41381c0.02381-0.02383 0.03881-0.04804 0.045-0.072628 0.0061-0.024589 0.0092-0.054557 0.0092-0.089907-0.0123-0.023819-0.0273-0.04803-0.045-0.072618-0.0177-0.024589-0.0389-0.042649-0.0635-0.054179l-0.55872-0.19827c-0.0123-0.023819-0.0211-0.04803-0.0265-0.072617-0.0054-0.024589-0.0085-0.048798-0.0092-0.072617l0.3428-0.48644c0.0123-0.02383 0.0211-0.050729 0.0265-0.080698 0.0054-0.029968 0.0023-0.05686-0.0092-0.080691-0.01159-0.023819-0.02959-0.04803-0.05429-0.072617-0.0246-0.024589-0.0546-0.036498-0.09-0.035729l-0.57707-0.089918-0.07279-0.14409 0.2528-0.52217c0.0123-0.036119 0.01542-0.069168 0.0093-0.09914-0.0062-0.029969-0.015-0.056869-0.02659-0.080691-0.0115-0.02382-0.03269-0.041879-0.0635-0.054179-0.03078-0.01229-0.0577-0.018438-0.08081-0.018438l-0.59558 0.018438c-0.0123-0.01229-0.0273-0.030349-0.045-0.054179-0.01769-0.023819-0.0327-0.041879-0.045-0.054169l0.12577-0.57636c0.01231-0.036119 0.01231-0.066089 0-0.089908l-0.03581-0.072617c-0.02381-0.02383-0.05081-0.038809-0.08081-0.044958-0.03-0.00617-0.0569-0.00922-0.08081-0.00922l-0.57707 0.14409c-0.0239-0.0123-0.045-0.027281-0.0635-0.044958-0.0185-0.017669-0.0396-0.032658-0.0635-0.044949l0.0358-0.5948c0-0.036119-0.0089-0.066089-0.02658-0.089908-0.0177-0.02383-0.03882-0.041889-0.0635-0.054179-0.02381-0.02383-0.05069-0.03574-0.08081-0.03574-0.03 0-0.0569 0.00615-0.08081 0.01845l-0.54128 0.23399c-0.0239-0.0123-0.045-0.024209-0.06351-0.035728-0.01851-0.01153-0.0396-0.023441-0.06351-0.03574l-0.09001-0.57635c-0.0123-0.023829-0.0273-0.048029-0.045-0.072618-0.01771-0.024599-0.03891-0.042659-0.06351-0.054179-0.03619-0.0123-0.06619-0.01845-0.09009-0.01845-0.02381 0-0.05381 0.01191-0.09 0.035739l-0.46857 0.34235c-0.023843-0.0123-0.048083-0.021139-0.07272-0.02651-0.024618-0.00537-0.048858-0.00846-0.07272-0.00923l-0.19853-0.5579c-0.012312-0.02382-0.030391-0.048029-0.054246-0.072618-0.023848-0.02459-0.053872-0.036499-0.090027-0.035729-0.02386-0.0123-0.050789-0.0123-0.080796 0-0.030018 0.012291-0.056949 0.03035-0.080796 0.05417l-0.39707 0.43227c-0.02386 0-0.0481-0.00307-0.072719-0.00922-0.024629-0.00616-0.048868-0.00923-0.072719-0.00923l-0.30703-0.50488c-0.02386-0.02382-0.048099-0.044959-0.072719-0.063398-0.024629-0.018439-0.054639-0.02728-0.090036-0.02651-0.023849 0-0.048089 0.00883-0.072719 0.02651-0.024618 0.017669-0.048858 0.03881-0.072719 0.063398l-0.30703 0.50488c-0.023848 0-0.048089 0.00307-0.072719 0.00923-0.024618 0.00614-0.048858 0.00922-0.072719 0.00922l-0.41438-0.43227c-0.01231-0.02382-0.033469-0.041879-0.063489-0.05417-0.030009-0.0123-0.056939-0.0123-0.080796 0-0.03616 0-0.066179 0.011909-0.090027 0.035729-0.02386 0.023819-0.041939 0.048029-0.054249 0.072618l-0.19854 0.55791c-0.023861 0-0.0481 0.00307-0.072719 0.00923-0.02463 0.00615-0.048869 0.01498-0.072719 0.02651l-0.4871-0.34235c-0.023861-0.023829-0.050788-0.035739-0.080796-0.035739-0.03001 0-0.056949 0.00616-0.080796 0.01845-0.023861 0.012291-0.045018 0.03035-0.063489 0.054179-0.01847 0.02382-0.033469 0.048029-0.045009 0.072618l-0.090035 0.57635c-0.02386 0.0123-0.045018 0.024209-0.063489 0.03574-0.018461 0.01152-0.039629 0.023429-0.063479 0.035728l-0.54135-0.23399c-0.02386-0.0123-0.050789-0.01845-0.080796-0.01845-0.030018 0-0.056949 0.01191-0.080796 0.03574-0.023861 0.01229-0.045018 0.030349-0.063489 0.054179-0.018469 0.02382-0.027318 0.053789-0.026549 0.089907l0.03578 0.5948c-0.023849 0.012291-0.045008 0.02728-0.063479 0.044948-0.01847 0.01768-0.039629 0.032659-0.063488 0.044959l-0.57713-0.14408c-0.023861 0-0.050789 0.00306-0.080796 0.00922-0.03001 0.00615-0.056949 0.02113-0.080796 0.044958-0.02386 0.02382-0.03886 0.04803-0.045018 0.072617-0.00618 0.024589-0.00306 0.054558 0.00923 0.089908l0.12582 0.57635c-0.01231 0.01229-0.027318 0.030349-0.045018 0.054169-0.0177 0.02383-0.032699 0.041889-0.045009 0.054179l-0.59561-0.01844c-0.02385 0-0.05079 0.00615-0.080796 0.018438-0.03001 0.0123-0.051169 0.030359-0.063479 0.054179-0.023861 0.02382-0.035789 0.050718-0.035789 0.080692 0 0.029969 0.00618 0.063017 0.01847 0.09914l0.25278 0.52217-0.072719 0.14409-0.5956 0.089916c-0.02386 0-0.048099 0.011909-0.072719 0.035729-0.024629 0.02382-0.04271 0.048029-0.054248 0.072617-0.01155 0.024589-0.01462 0.051489-0.00924 0.080691 0.00539 0.029209 0.014239 0.056099 0.026549 0.080698l0.34281 0.48644c0 0.02382-0.00616 0.04803-0.01846 0.072617-0.012319 0.024589-0.018471 0.048798-0.018471 0.072617l-0.55867 0.19827c-0.02385 0.0123-0.045019 0.030349-0.063488 0.054179-0.01846 0.02382-0.03347 0.048029-0.045008 0.072617 0 0.036119 0.00307 0.066089 0.00923 0.089907 0.00617 0.02383 0.02116 0.048029 0.045019 0.072629l0.43285 0.41381c0 0.02383-0.00307 0.04804-0.00924 0.072629-0.00616 0.024589-0.00923 0.048798-0.00923 0.072617l-0.50557 0.30662c-0.02386 0.0123-0.041939 0.033429-0.054248 0.063399-0.012309 0.02998-0.018471 0.05687-0.018471 0.080698 0 0.036109 0.00617 0.066089 0.018471 0.089908 0.012309 0.02382 0.03039 0.041879 0.054248 0.054179l0.50557 0.3239c0 0.02383 0.00307 0.04803 0.00923 0.072629 0.00617 0.024589 0.00924 0.048789 0.00924 0.072617l-0.43285 0.39653c-0.02386 0.02382-0.038859 0.050717-0.045019 0.080691-0.00616 0.029969-0.00923 0.05686-0.00923 0.080691 0.012309 0.036119 0.027319 0.063009 0.045008 0.080692 0.0177 0.017671 0.03887 0.032656 0.063488 0.044959l0.55867 0.21671c0 0.023825 0.00616 0.048028 0.01847 0.072628 0.012309 0.024591 0.01846 0.048803 0.01846 0.072628l-0.34281 0.46801c-0.012309 0.02381-0.02116 0.05071-0.02655 0.0807-0.00538 0.03-0.00232 0.05681 0.00924 0.0807 0.012309 0.03609 0.030389 0.063 0.054248 0.08069 0.023849 0.01759 0.048088 0.02649 0.072719 0.02649l0.5956 0.1083c0.01231 0.0123 0.02424 0.03041 0.035778 0.05419l0.035789 0.0726-0.25278 0.54068c-0.01231 0.02381-0.01847 0.05069-0.01847 0.08069 0 0.0299 0.01193 0.05681 0.035778 0.08059 0.01231 0.0239 0.033479 0.0419 0.063489 0.05418 0.03001 0.0123 0.056939 0.0185 0.080796 0.0185l0.5956-0.0185c0.01231 0.02382 0.027318 0.045 0.045018 0.06341l0.045018 0.045-0.12582 0.57629c-0.01231 0.03619-0.015389 0.06919-0.00923 0.0992 0.00615 0.0299 0.021161 0.0511 0.045009 0.06341 0.02386 0.02382 0.05079 0.0419 0.080796 0.05418 0.03001 0.0123 0.056949 0.0123 0.080796 0l0.57713-0.1441c0.023849 0.02382 0.045018 0.04181 0.063479 0.0541 0.018469 0.0123 0.033479 0.03041 0.045018 0.05418l-0.01847 0.57638c0 0.0361 0.00885 0.0661 0.026549 0.0899 0.0177 0.02382 0.03886 0.048 0.063489 0.0726 0.023849 0.0123 0.050788 0.02119 0.080796 0.0265 0.03001 0.0054 0.056939 0.0023 0.080796-0.0092l0.54135-0.25239c0.02386 0.0123 0.045018 0.02418 0.063489 0.03569 0.018461 0.0115 0.039629 0.0234 0.063479 0.0357l0.090036 0.57638c0.01231 0.0361 0.02731 0.0661 0.045009 0.0899 0.0177 0.02382 0.038869 0.0419 0.063489 0.05418h0.080796s0.026929-0.0119 0.080796-0.0357l0.4871-0.34239c0.02386 0.01231 0.0481 0.0211 0.072719 0.0265 0.02463 0.0054 0.04887 0.01422 0.072719 0.0265l0.19854 0.54076c0.01231 0.0361 0.0304 0.063 0.054249 0.08059 0.023861 0.0177 0.053869 0.02658 0.090035 0.02658 0.023849 0.01219 0.050778 0.01219 0.080796 0 0.03001-0.0123 0.051169-0.02429 0.063479-0.03581l0.41438-0.43229h0.14429l0.30704 0.50489c0.023849 0.0239 0.048089 0.045 0.072719 0.06342 0.024618 0.0185 0.048858 0.0273 0.072719 0.02658 0.036169 0 0.066179-0.0089 0.090028-0.02658 0.023861-0.01758 0.0481-0.03882 0.072729-0.06342l0.30703-0.50487h0.14427l0.39707 0.43229c0.02385 0.0123 0.05079 0.02418 0.080796 0.03581 0.03001 0.0115 0.056939 0.0115 0.080796 0 0.036169 0 0.066179-0.0089 0.090028-0.02658 0.023863-0.01759 0.035791-0.0445 0.035791-0.08059l0.21699-0.5407c0.023852-0.0123 0.048092-0.0211 0.07272-0.0265s0.048868-0.01422 0.07272-0.0265l0.46865 0.34239c0.03619 0.02381 0.06619 0.03569 0.09 0.03569h0.09009c0.02381-0.0123 0.045-0.03041 0.06341-0.05418 0.01851-0.02382 0.03351-0.05382 0.04509-0.0899l0.09-0.57638c0.02381-0.0123 0.045-0.02419 0.06351-0.03569 0.01841-0.0115 0.0396-0.0234 0.06351-0.0357l0.54129 0.25239c0.0239 0.0123 0.05081 0.01541 0.08081 0.0092 0.03-0.0061 0.057-0.015 0.08081-0.0265 0.0239-0.02381 0.045-0.048 0.0635-0.0726s0.02729-0.0546 0.02658-0.0899l-0.03581-0.57638c0.02381-0.02381 0.045-0.0419 0.0635-0.05418 0.01841-0.0123 0.0396-0.0303 0.0635-0.0541l0.57709 0.14409c0.0239 0.0123 0.05081 0.0123 0.08081 0s0.0569-0.03042 0.08081-0.05418c0.0123-0.0123 0.02418-0.0335 0.03582-0.06341 0.0115-0.03 0.0115-0.063 0-0.0992l-0.1258-0.57629 0.045-0.045s0.015-0.0211 0.045-0.06342l0.59558 0.0185c0.0239 0 0.05081-0.0062 0.08081-0.0185s0.05118-0.0303 0.0635-0.05418c0.0123-0.02381 0.02118-0.05069 0.0265-0.08058 0.0054-0.03 0.0024-0.0569-0.0092-0.0807l-0.2528-0.54068 0.03581-0.0726s0.0119-0.018 0.03581-0.05419l0.57709-0.1083c0.03618 0 0.06618-0.0089 0.09009-0.02649 0.02382-0.01769 0.0419-0.04459 0.05418-0.0807 0.0123-0.02391 0.01541-0.0507 0.0093-0.0807-0.0062-0.03-0.0151-0.05691-0.02658-0.0807l-0.34286-0.46807c0-0.023825 3e-3 -0.048028 0.0092-0.072618 0.0062-0.024591 0.015-0.048803 0.02659-0.072628l0.55859-0.21671c0.0239-0.012295 0.0451-0.027287 0.0635-0.044958 0.0185-0.01768 0.0335-0.044567 0.045-0.080692 0-0.02383-3e-3 -0.050717-0.0092-0.080691-0.0061-0.029968-0.02119-0.056869-0.045-0.080691l-0.43292-0.39655v-0.072617s0.0062-0.024209 0.0185-0.072629l0.50559-0.3239c0.02381-0.0123 0.0419-0.03036 0.05418-0.054179 0.012326-0.023822 0.018525-0.053801 0.018525-0.089908 0-0.02383-0.0062-0.050717-0.0185-0.080698-0.01231-0.029969-0.03041-0.0511-0.05419-0.063399zm-3.3728 4.1786c-0.0962-0.0239-0.1712-0.078-0.22509-0.1626-0.05381-0.0845-0.075-0.1744-0.06351-0.26969 0.02391-0.0961 0.07809-0.171 0.1628-0.22479 0.0846-0.05381 0.17469-0.06881 0.27009-0.045 0.0954 0.0239 0.1704 0.075 0.22509 0.15339 0.0546 0.0783 0.0696 0.1713 0.045 0.2789-0.0239 0.0961-0.075 0.1683-0.1535 0.21669-0.0785 0.04842-0.1659 0.0665-0.26199 0.05418zm-0.18009-1.1528c-0.0838-0.02382-0.165-0.0119-0.2435 0.03581-0.07851 0.04759-0.1235 0.1137-0.13509 0.1982l-0.18003 0.84606c-0.27626 0.1199-0.56789 0.2129-0.87493 0.27899-0.30704 0.0661-0.62254 0.0991-0.94648 0.0991-0.32396 0-0.64253-0.033-0.9557-0.0991-0.31319-0.066114-0.60791-0.16521-0.88415-0.2974l-0.18006-0.84606c-0.02386-0.08381-0.071949-0.1499-0.14429-0.1983-0.072339-0.04841-0.15044-0.06029-0.23432-0.0357l-0.73988 0.14409c-0.072338-0.072292-0.13851-0.14449-0.19854-0.21669-0.060019-0.072297-0.12005-0.1503-0.18006-0.23399h3.6256s0.00617-0.012 0.01847-0.03581v-1.261c0-0.023815-0.00618-0.038807-0.01847-0.044958-0.012318-0.00617-0.02424-0.00922-0.035789-0.00922h-1.0642v-0.79303h1.1358c0.060017 0 0.1743 0.026898 0.34281 0.080698 0.16853 0.053789 0.28895 0.22478 0.36129 0.51295 0.023849 0.083758 0.056939 0.23669 0.099268 0.45878 0.042318 0.22208 0.081568 0.38115 0.11772 0.47722 0.02386 0.10833 0.098885 0.23744 0.22508 0.38733 0.1262 0.14979 0.26163 0.22479 0.4063 0.22479h1.8399c-0.06 0.0837-0.12309 0.16479-0.1893 0.2432-0.0661 0.07841-0.13539 0.15939-0.20769 0.2432l-0.75718-0.1625zm-4.9599 1.1343c-0.096185 0.0123-0.18621-0.0058-0.27009-0.05419-0.083878-0.04842-0.13197-0.1206-0.14429-0.21669-0.023849-0.096-0.00885-0.186 0.045018-0.26969 0.053869-0.08381 0.1289-0.138 0.22508-0.1626 0.096185-0.0245 0.18621-0.0096 0.27009 0.045 0.083878 0.0546 0.13197 0.1295 0.14429 0.22479 0.023848 0.096 0.00885 0.186-0.045018 0.26969-0.053869 0.08381-0.1289 0.138-0.22508 0.1626zm-1.3528-5.511c0.03616 0.083758 0.03616 0.17367 0 0.26973-0.036169 0.096058-0.096185 0.16215-0.18006 0.19826-0.096185 0.036119-0.1893 0.036119-0.27933 0-0.090035-0.03611-0.15314-0.096058-0.1893-0.17982-0.048489-0.096058-0.054639-0.18905-0.01847-0.27896 0.036159-0.089907 0.10234-0.15293 0.19853-0.18905 0.083878-0.036119 0.17121-0.039189 0.26202-0.00922 0.0908 0.029968 0.16005 0.09299 0.20777 0.18905zm-0.41438 0.9902 0.75718-0.34235c0.083878-0.036119 0.14082-0.096058 0.17082-0.17982 0.030018-0.083765 0.026939-0.16791-0.00923-0.25244l-0.14429-0.3608h0.61292v2.8103h-1.2627c-0.048479-0.19212-0.087725-0.39038-0.11774-0.5948-0.030009-0.20442-0.045019-0.40844-0.045019-0.61208 0-0.083765 0.00306-0.16484 0.00924-0.24323 0.00615-0.078381 0.015-0.1533 0.026548-0.22478zm3.3543-0.26973v-0.82881h1.4786c0.048479 0 0.15081 0.029969 0.30704 0.089908 0.15621 0.059939 0.23432 0.17406 0.23432 0.34235 0 0.14448-0.069257 0.24668-0.20777 0.30662-0.13851 0.059939-0.28587 0.089908-0.44209 0.089908h-1.3713zm5.3928 0.73774c0 0.059939-3e-3 0.11681-0.0093 0.1706-0.0061 0.053789-0.0092 0.1049-0.0092 0.1533h-0.45129c-0.0239 0-0.0389 0.00617-0.0451 0.018449-0.0061 0.01229-0.0092 0.030349-0.0092 0.054169v0.21672c0 0.24053-0.0569 0.3996-0.17079 0.47722-0.1139 0.077608-0.2313 0.12257-0.3521 0.13487-0.1085 0.01229-0.2166-0.00577-0.32429-0.054179-0.10779-0.048419-0.16779-0.10836-0.18009-0.17982-0.072298-0.38423-0.1655-0.64552-0.2794-0.78381-0.11379-0.13833-0.2612-0.27935-0.44199-0.42304 0.2162-0.13218 0.42049-0.30317 0.61288-0.51296 0.19239-0.20979 0.28859-0.45301 0.28859-0.72967 0-0.30047-0.0812-0.54369-0.2436-0.72965-0.1624-0.18597-0.3097-0.32698-0.44209-0.42304-0.20469-0.13218-0.40014-0.21632-0.58636-0.25244-0.18623-0.036119-0.30935-0.054179-0.36937-0.054179h-4.6528c0.31242-0.36041 0.67909-0.6605 1.1-0.90028 0.42092-0.23976 0.87186-0.40191 1.3528-0.48644l0.55865 0.57635c0.060028 0.059939 0.13506 0.09299 0.22508 0.09914 0.090036 0.00614 0.16506-0.026898 0.22508-0.09914l0.61292-0.57635c0.64946 0.11988 1.2354 0.36886 1.7579 0.74695 0.52249 0.37809 0.9404 0.83728 1.2536 1.3775l-0.41439 0.95443c-0.0485 0.083758-0.0546 0.16791-0.0185 0.25244 0.03618 0.084538 0.0962 0.14448 0.18009 0.17982l0.81148 0.36079c0 0.072239 3e-3 0.14448 0.0092 0.21672 0.0062 0.072228 0.0092 0.14447 0.0092 0.21671zm-4.6529-4.7907c0.072339-0.072228 0.1566-0.10835 0.25278-0.10835 0.096185 0 0.18045 0.036119 0.25278 0.10835 0.060017 0.072239 0.090028 0.15947 0.090028 0.26166 0 0.10221-0.03616 0.18329-0.1085 0.24323-0.072328 0.072239-0.1566 0.10836-0.25278 0.10836-0.096185 0-0.18045-0.036119-0.25278-0.10836-0.072328-0.072239-0.10542-0.15945-0.099268-0.26166 0.0061679-0.10221 0.045399-0.18327 0.11774-0.24323zm4.1657 3.3498c0.03619-0.096058 0.1024-0.16215 0.1986-0.19827 0.0962-0.036119 0.1862-0.029968 0.27009 0.018439 0.0962 0.036119 0.1593 0.099125 0.1893 0.18905 0.03 0.089908 0.0269 0.1829-0.0092 0.27896-0.03618 0.083758-0.0993 0.1437-0.1893 0.17982-0.09009 0.036119-0.1832 0.036119-0.27939 0-0.0839-0.036109-0.1439-0.1022-0.18009-0.19827-0.0361-0.096058-0.0361-0.18597 0-0.26972z"
      fill-opacity="0.5"
    />
  </g>
  <path
    d="m15.098 10.916h-0.29095v-0.7759c0-1.1638-1.1638-2.3276-2.3276-2.3276-1.1638 0-2.3276 1.1638-2.3276 2.3276v0.7759h-0.29095c-0.48006 0-0.87284 0.39895-0.87284 0.88669v3.3105c0 0.48763 0.39278 0.88669 0.87284 0.88669h5.237c0.48006 0 0.87284-0.39906 0.87284-0.88669 0 0 0.06462-2.7612 0-3.3105-0.057-0.4844-0.39278-0.88669-0.87284-0.88669zm-3.7823-0.7759v0.7759h2.3276v-0.7759s0-1.1638-1.1638-1.1638c-1.1638 0-1.1638 1.1638-1.1638 1.1638z"
    fill="#FFCB6B"
    fill-rule="evenodd"
  />
</svg>
