<!--
  Derived from vsc-material-theme-icons
  Licensed under Apache License 2.0
  http://www.apache.org/licenses/LICENSE-2.0

  Modified under GPLv3
-->
<svg viewBox="0 0 16 16" xmlns="http://www.w3.org/2000/svg">
  <defs>
    <mask id="cutout-mask">
      <rect width="100%" height="100%" fill="white" />
      <path
        d="m15.098 10.916h-0.29095v-0.7759c0-1.1638-1.1638-2.3276-2.3276-2.3276-1.1638 0-2.3276 1.1638-2.3276 2.3276v0.7759h-0.29095c-0.48006 0-0.87284 0.39895-0.87284 0.88669v3.3105c0 0.48763 0.39278 0.88669 0.87284 0.88669h5.237c0.48006 0 0.87284-0.39906 0.87284-0.88669 0 0 0.06462-2.7612 0-3.3105-0.057-0.4844-0.39278-0.88669-0.87284-0.88669zm-3.7823-0.7759v0.7759h2.3276v-0.7759s0-1.1638-1.1638-1.1638c-1.1638 0-1.1638 1.1638-1.1638 1.1638z"
        fill="black"
        stroke="#000"
        stroke-width="1.5"
      />
    </mask>
  </defs>
  <path
    d="m15.911 7.8109-0.67413-0.40883c0-0.03176-0.0041-0.06404-0.0124-0.096826-0.0081-0.032786-0.01226-0.065066-0.01226-0.09684l0.5772-0.55176c0.03174-0.031774 0.05174-0.064054 0.06-0.09684 0.0081-0.032786 0.01226-0.072746 0.01226-0.11988-0.0164-0.03176-0.0364-0.06404-0.06-0.096826s-0.05186-0.056866-0.08466-0.07224l-0.74493-0.26436c-0.0164-0.03176-0.02814-0.06404-0.03534-0.096826s-0.01132-0.065066-0.01226-0.096826l0.45707-0.6486c0.0164-0.031774 0.02814-0.06764 0.03534-0.1076s0.0031-0.075814-0.01226-0.10759c-0.01546-0.03176-0.03946-0.06404-0.0724-0.096826-0.0328-0.032786-0.0728-0.048666-0.12-0.04764l-0.76947-0.11989-0.09706-0.19212 0.33707-0.69624c0.0164-0.04816 0.02054-0.092226 0.0124-0.13219-0.0082-0.03996-0.02-0.075826-0.03546-0.10759-0.01534-0.03176-0.0436-0.05584-0.08466-0.07224-0.04106-0.016386-0.07694-0.024586-0.10774-0.024586l-0.79413 0.024586c-0.0164-0.016386-0.0364-0.040466-0.06-0.07224-0.0236-0.03176-0.0436-0.05584-0.06-0.072226l0.1677-0.7685c0.0164-0.04816 0.0164-0.08812 0-0.11988l-0.04774-0.096826c-0.03174-0.031774-0.06774-0.051746-0.10774-0.059946-0.04-0.00821-0.07586-0.012294-0.10774-0.012294l-0.76945 0.19212c-0.03186-0.0164-0.06-0.036374-0.08466-0.059946-0.02466-0.02356-0.0528-0.043546-0.08466-0.059934l0.04772-0.79308c0-0.04816-0.01186-0.08812-0.03546-0.11988-0.0236-0.031774-0.05174-0.055854-0.08466-0.07224-0.03174-0.031774-0.0676-0.047654-0.10774-0.047654-0.04 0-0.07586 0.00819-0.10774 0.0246l-0.72173 0.312c-0.03186-0.0164-0.06-0.03228-0.08467-0.04764-0.02467-0.015374-0.0528-0.031254-0.08467-0.047654l-0.12-0.76848c-0.0164-0.031773-0.0364-0.06404-0.06-0.096827-0.0236-0.0328-0.05187-0.05688-0.08467-0.07224-0.04827-0.0164-0.08827-0.0246-0.12013-0.0246-0.03173 0-0.07173 0.01588-0.12 0.047653l-0.62485 0.45648c-0.0318-0.0164-0.06412-0.028187-0.09696-0.035347-0.03283-0.00717-0.06515-0.01128-0.09696-0.012307l-0.26472-0.74389c-0.016414-0.03176-0.04052-0.06404-0.072334-0.096827-0.0318-0.032787-0.071826-0.048667-0.12004-0.04764-0.031814-0.0164-0.06772-0.0164-0.10773 0-0.040026 0.016387-0.075934 0.040467-0.10773 0.072227l-0.52944 0.57637c-0.031814 0-0.064134-0.004106-0.09696-0.012293-0.03284-0.0082-0.06516-0.012307-0.09696-0.012307l-0.40938-0.67319c-0.031813-0.03176-0.064133-0.059947-0.09696-0.084533-0.03284-0.024587-0.072853-0.036373-0.12005-0.035347-0.0318 0-0.06412 0.011773-0.09696 0.035347-0.032826 0.02356-0.065146 0.051747-0.09696 0.084533l-0.40939 0.67319c-0.0318 0-0.06412 0.004106-0.09696 0.012307-0.032826 0.008186-0.065146 0.012293-0.09696 0.012293l-0.55252-0.57637c-0.016414-0.03176-0.044626-0.05584-0.084654-0.072227-0.040014-0.0164-0.07592-0.0164-0.10773 0-0.048214 0-0.08824 0.01588-0.12004 0.04764-0.031814 0.03176-0.05592 0.06404-0.072334 0.096827l-0.26472 0.74389c-0.031814 0-0.064134 0.00411-0.09696 0.012307-0.03284 0.00819-0.06516 0.019973-0.09696 0.035347l-0.64948-0.45648c-0.031814-0.031773-0.06772-0.047653-0.10773-0.047653-0.040014 0-0.075934 0.0082-0.10773 0.0246-0.031814 0.016387-0.060026 0.040467-0.084654 0.07224-0.024626 0.03176-0.044626 0.06404-0.060014 0.096827l-0.12005 0.76848c-0.031814 0.0164-0.060026 0.03228-0.084654 0.047654-0.024614 0.01536-0.05284 0.03124-0.08464 0.04764l-0.72181-0.312c-0.031814-0.0164-0.06772-0.0246-0.10773-0.0246-0.040026 0-0.075934 0.01588-0.10773 0.047654-0.031814 0.016386-0.060026 0.040466-0.084654 0.07224-0.024626 0.03176-0.036426 0.07172-0.0354 0.11988l0.047708 0.79308c-0.0318 0.016387-0.060013 0.036373-0.08464 0.059933-0.024627 0.023573-0.05284 0.043547-0.084653 0.059947l-0.76952-0.19212c-0.031814 0-0.06772 0.00409-0.10773 0.012294-0.040014 0.00819-0.075934 0.028174-0.10773 0.059946-0.031814 0.03176-0.051814 0.06404-0.060026 0.096826-0.00822 0.032786-0.0041 0.072746 0.012306 0.11988l0.16776 0.76849c-0.016414 0.016386-0.036426 0.040466-0.060026 0.072226-0.0236 0.031774-0.0436 0.055854-0.060014 0.07224l-0.79416-0.024586c-0.0318 0-0.06772 0.00819-0.10773 0.024586-0.040014 0.0164-0.068226 0.04048-0.08464 0.07224-0.031814 0.03176-0.04772 0.067626-0.04772 0.10759 0 0.03996 0.00822 0.084026 0.024626 0.13219l0.33705 0.69624-0.09696 0.19212-0.79415 0.11989c-0.031813 0-0.064133 0.01588-0.09696 0.04764-0.03284 0.03176-0.056947 0.06404-0.072333 0.096826-0.0154 0.032786-0.019493 0.068654-0.01232 0.10759 0.007186 0.038946 0.018987 0.0748 0.0354 0.1076l0.45709 0.6486c0 0.03176-0.0082 0.06404-0.024613 0.096826-0.016427 0.032786-0.024627 0.065066-0.024627 0.096826l-0.74491 0.26436c-0.0318 0.0164-0.060027 0.040466-0.084653 0.07224-0.024613 0.03176-0.044627 0.06404-0.060013 0.096826 0 0.04816 0.004106 0.08812 0.012307 0.11988 0.008214 0.031774 0.028213 0.06404 0.060027 0.09684l0.57715 0.55176c0 0.031774-0.004106 0.064054-0.01232 0.09684-0.0082 0.032786-0.012307 0.065066-0.012307 0.096826l-0.67411 0.40883c-0.031813 0.0164-0.05592 0.044573-0.072333 0.084533-0.016413 0.039973-0.024627 0.075827-0.024627 0.1076 0 0.048146 0.0082133 0.08812 0.024627 0.11988 0.016413 0.03176 0.04052 0.05584 0.072333 0.07224l0.67411 0.43188c0 0.031774 0.004106 0.06404 0.012307 0.09684 0.008214 0.032786 0.01232 0.065054 0.01232 0.096826l-0.57715 0.52872c-0.031813 0.03176-0.051813 0.067626-0.060027 0.10759-0.0082 0.03996-0.012307 0.075814-0.012307 0.10759 0.016413 0.04816 0.036427 0.084014 0.060013 0.10759 0.0236 0.02356 0.051827 0.043546 0.084653 0.059946l0.74491 0.28895c0 0.03176 0.0082 0.06404 0.024627 0.09683 0.016413 0.03279 0.024613 0.06507 0.024613 0.09683l-0.45709 0.62403c-0.016413 0.03173-0.028213 0.0676-0.0354 0.1076-0.007174 0.04-0.00308 0.07573 0.01232 0.1076 0.016413 0.04813 0.04052 0.084 0.072333 0.1076 0.0318 0.02347 0.06412 0.03533 0.09696 0.03533l0.79415 0.1444c0.016414 0.0164 0.03232 0.04053 0.047706 0.07227l0.04772 0.0968-0.33705 0.72093c-0.016414 0.03174-0.024626 0.0676-0.024626 0.1076 0 0.03986 0.015906 0.07574 0.047706 0.10746 0.016414 0.03186 0.04464 0.05586 0.084654 0.07226s0.07592 0.02466 0.10773 0.02466l0.79415-0.02466c0.016414 0.03174 0.036426 0.06 0.060026 0.08454l0.060026 0.06-0.16776 0.7684c-0.016414 0.04826-0.02052 0.09226-0.012306 0.13227 0.00819 0.03986 0.028214 0.06814 0.060014 0.08454 0.031814 0.03174 0.06772 0.05586 0.10773 0.07226 0.040014 0.0164 0.075934 0.0164 0.10773 0l0.76953-0.19213c0.0318 0.03174 0.060026 0.05574 0.08464 0.07214 0.024626 0.0164 0.04464 0.04054 0.060026 0.07226l-0.024626 0.76853c0 0.04814 0.0118 0.08814 0.0354 0.11987 0.0236 0.03174 0.051814 0.064 0.084654 0.0968 0.0318 0.0164 0.06772 0.02826 0.10773 0.03534 0.040014 0.0072 0.07592 0.0031 0.10773-0.01226l0.72181-0.33653c0.031814 0.0164 0.060026 0.03226 0.084654 0.0476 0.024614 0.01534 0.05284 0.0312 0.08464 0.0476l0.12005 0.76853c0.016414 0.04814 0.036414 0.08814 0.060014 0.11987 0.0236 0.03174 0.051826 0.05586 0.084654 0.07226h0.10773s0.035906-0.01586 0.10773-0.0476l0.64948-0.45653c0.031814 0.0164 0.064134 0.02814 0.09696 0.03534 0.03284 0.0072 0.06516 0.01894 0.09696 0.03534l0.26472 0.72093c0.016414 0.04814 0.040534 0.084 0.072334 0.10746 0.031814 0.0236 0.071826 0.03546 0.12005 0.03546 0.0318 0.01626 0.067706 0.01626 0.10773 0 0.040014-0.0164 0.068226-0.0324 0.08464-0.04774l0.55252-0.5764h0.19239l0.40939 0.6732c0.0318 0.03186 0.06412 0.06 0.09696 0.08454 0.032826 0.02466 0.065146 0.0364 0.09696 0.03546 0.048226 0 0.08824-0.01186 0.12004-0.03546 0.031814-0.02346 0.064134-0.05174 0.096974-0.08454l0.40939-0.6732h0.19237l0.52944 0.5764c0.0318 0.0164 0.06772 0.03226 0.10773 0.04774 0.040014 0.01534 0.07592 0.01534 0.10773 0 0.048226 0 0.08824-0.01186 0.12004-0.03546 0.031814-0.02346 0.04772-0.05934 0.04772-0.10746l0.28933-0.72093c0.03181-0.0164 0.06413-0.02814 0.09696-0.03534 0.03284-0.0072 0.06516-0.01894 0.09696-0.03534l0.62488 0.45653c0.04827 0.03174 0.08827 0.0476 0.12 0.0476h0.12013c0.03173-0.0164 0.06-0.04054 0.08453-0.07226 0.02467-0.03174 0.04467-0.07174 0.06013-0.11987l0.12-0.76853c0.03173-0.0164 0.06-0.03226 0.08467-0.0476 0.02453-0.01534 0.0528-0.0312 0.08467-0.0476l0.72173 0.33653c0.03186 0.0164 0.06774 0.02054 0.10774 0.01226 0.04-0.0081 0.076-0.02 0.10774-0.03534 0.03186-0.03174 0.06-0.064 0.08466-0.0968s0.0364-0.0728 0.03546-0.11987l-0.04774-0.76853c0.03174-0.03174 0.06-0.05586 0.08466-0.07226 0.02454-0.0164 0.0528-0.0404 0.08466-0.07214l0.76947 0.19213c0.03186 0.0164 0.06774 0.0164 0.10774 0 0.04-0.0164 0.07586-0.04054 0.10774-0.07226 0.0164-0.0164 0.03226-0.04466 0.04774-0.08454 0.01534-0.04 0.01534-0.084 0-0.13227l-0.16773-0.7684 0.06-0.06s0.02-0.02814 0.06-0.08454l0.79413 0.02466c0.03186 0 0.06774-0.0082 0.10774-0.02466 0.04-0.0164 0.06826-0.0404 0.08466-0.07226 0.0164-0.03174 0.02826-0.0676 0.03534-0.10746 0.0072-0.04 0.0032-0.07586-0.01226-0.1076l-0.33707-0.72093 0.04774-0.0968s0.01586-0.024 0.04774-0.07227l0.76947-0.1444c0.04826 0 0.08826-0.01187 0.12013-0.03533 0.03174-0.0236 0.05586-0.05947 0.07226-0.1076 0.0164-0.03187 0.02054-0.0676 0.0124-0.1076-0.0082-0.04-0.02014-0.07587-0.03546-0.1076l-0.45708-0.62403c0-0.03176 0.0041-0.06404 0.01226-0.09683 0.0082-0.03279 0.02-0.06507 0.03546-0.09683l0.7448-0.28895c0.03186-0.0164 0.06014-0.036386 0.08466-0.059946 0.02466-0.023574 0.04466-0.059426 0.06-0.10759 0-0.031774-4e-3 -0.067626-0.01226-0.10759-0.0081-0.03996-0.02826-0.075826-0.06-0.10759l-0.5772-0.52872v-0.096826s0.0082-0.03228 0.02466-0.09684l0.67413-0.43188c0.03174-0.0164 0.05586-0.04048 0.07226-0.07224 0.016427-0.031763 0.024693-0.071736 0.024693-0.11988 0-0.031774-0.0082-0.067626-0.02466-0.1076-0.0164-0.03996-0.04054-0.068134-0.07226-0.084534zm-4.4972 5.5716c-0.12827-0.03186-0.22827-0.104-0.30013-0.2168-0.07173-0.11266-0.1-0.23253-0.08467-0.3596 0.03187-0.12813 0.10413-0.228 0.21707-0.29973 0.1128-0.07174 0.23293-0.09174 0.36013-0.06 0.1272 0.03186 0.2272 0.1 0.30013 0.20453 0.0728 0.1044 0.0928 0.2284 0.06 0.37187-0.03186 0.12813-0.1 0.2244-0.20467 0.28893-0.10466 0.06454-0.2212 0.08866-0.34933 0.07226zm-0.24013-1.5371c-0.11173-0.03174-0.22-0.01586-0.32467 0.04774-0.10467 0.06346-0.16467 0.1516-0.18013 0.26427l-0.24004 1.1281c-0.36835 0.15987-0.75721 0.28387-1.1666 0.372-0.40939 0.08814-0.83007 0.13213-1.262 0.13213-0.43196 0-0.85673-0.044-1.2743-0.13213-0.4176-0.08814-0.81056-0.22027-1.1789-0.39654l-0.24009-1.1281c-0.031814-0.11174-0.095934-0.19987-0.19239-0.2644-0.096454-0.06454-0.20059-0.0804-0.31243-0.0476l-0.98653 0.19213c-0.096453-0.0964-0.18469-0.19267-0.26472-0.28893-0.080027-0.0964-0.16007-0.2004-0.24009-0.312h4.8342s0.00821-0.016 0.024626-0.04773v-1.6814c0-0.03176-0.00822-0.051746-0.024626-0.059946-0.016426-0.00818-0.03232-0.012294-0.04772-0.012294h-1.419v-1.0574h1.5144c0.080026 0 0.2324 0.035866 0.45709 0.1076 0.22471 0.07172 0.38528 0.29971 0.48173 0.68395 0.0318 0.11168 0.07592 0.31559 0.13236 0.61172 0.056426 0.29612 0.10876 0.50821 0.15697 0.63631 0.031814 0.14445 0.13185 0.31659 0.30012 0.51645 0.16827 0.19973 0.34885 0.29973 0.54175 0.29973h2.4532c-0.08 0.1116-0.16413 0.21973-0.2524 0.32427-0.08814 0.10454-0.18053 0.21253-0.27693 0.32427l-1.0096-0.21667zm-6.6133 1.5124c-0.12825 0.0164-0.24829-0.0078-0.36013-0.07226-0.11184-0.06454-0.17596-0.1608-0.19239-0.28893-0.0318-0.128-0.0118-0.248 0.060026-0.3596 0.071826-0.11174 0.17187-0.184 0.30012-0.2168 0.12825-0.03266 0.24829-0.0128 0.36013 0.06 0.11184 0.0728 0.17597 0.17267 0.19239 0.29973 0.0318 0.128 0.0118 0.248-0.060026 0.3596-0.071826 0.11174-0.17187 0.184-0.30012 0.2168zm-1.8038-7.3482c0.048214 0.11168 0.048214 0.23156 0 0.35965-0.048226 0.12808-0.12825 0.2162-0.24009 0.26435-0.12825 0.04816-0.25241 0.04816-0.37245 0-0.12005-0.048147-0.20419-0.12808-0.2524-0.23976-0.064653-0.12808-0.072853-0.25207-0.024627-0.37195 0.048213-0.11988 0.13645-0.20391 0.26471-0.25207 0.11184-0.04816 0.22829-0.052254 0.34937-0.012294 0.12107 0.03996 0.21341 0.12399 0.27703 0.25207zm-0.55252 1.3203 1.0096-0.45648c0.11184-0.04816 0.18776-0.12808 0.22777-0.23976 0.040026-0.11169 0.03592-0.22389-0.012306-0.3366l-0.19239-0.48108h0.81724v3.7471h-1.6837c-0.06464-0.25617-0.11697-0.52052-0.15699-0.79308-0.040013-0.27256-0.060027-0.5446-0.060027-0.81613 0-0.11169 0.0041-0.21979 0.01232-0.32431 0.00819-0.10451 0.02-0.20441 0.0354-0.29971zm4.4725-0.35965v-1.1051h1.9715c0.06464 0 0.20109 0.03996 0.40939 0.11988 0.20828 0.07992 0.31243 0.23208 0.31243 0.45648 0 0.19264-0.092346 0.32891-0.27703 0.40884-0.18469 0.07992-0.38117 0.11988-0.58947 0.11988h-1.8284zm7.1905 0.98367c0 0.07992-0.0041 0.15575-0.0124 0.22747-0.0081 0.07172-0.01226 0.13987-0.01226 0.20441h-0.60173c-0.03186 0-0.05186 0.00821-0.06014 0.0246-0.0081 0.016386-0.01226 0.040466-0.01226 0.072226v0.28896c0 0.32071-0.07586 0.53281-0.22773 0.63631-0.15187 0.10348-0.3084 0.16343-0.46947 0.17983-0.14467 0.016386-0.2888-0.00769-0.4324-0.07224-0.14373-0.06456-0.22373-0.14448-0.24013-0.23977-0.0964-0.51232-0.22067-0.86071-0.37254-1.0451-0.15173-0.18444-0.34827-0.37247-0.58933-0.56407 0.28827-0.17624 0.56067-0.40423 0.8172-0.68396 0.25653-0.27973 0.3848-0.60403 0.3848-0.97291 0-0.40063-0.10826-0.72493-0.3248-0.97289-0.21654-0.24797-0.41294-0.43599-0.58947-0.56407-0.27293-0.17624-0.53353-0.28844-0.78183-0.3366-0.24831-0.04816-0.41247-0.07224-0.49251-0.07224h-6.2039c0.41657-0.48056 0.90548-0.88068 1.4667-1.2004 0.56124-0.31969 1.1625-0.53589 1.8038-0.6486l0.74489 0.76848c0.08004 0.07992 0.18008 0.12399 0.30012 0.13219 0.12005 0.0081829 0.22008-0.035866 0.30012-0.13219l0.81724-0.76848c0.86597 0.15984 1.6473 0.49183 2.3439 0.99595 0.69667 0.50413 1.2539 1.1164 1.6715 1.8367l-0.55253 1.2726c-0.06466 0.11168-0.0728 0.22388-0.02466 0.33659 0.04826 0.11272 0.12827 0.19264 0.24013 0.23977l1.082 0.48107c0 0.09632 0.0041 0.19264 0.01226 0.28896 0.0082 0.096306 0.01226 0.19263 0.01226 0.28895zm-6.204-6.3877c0.096454-0.096306 0.2088-0.14447 0.33705-0.14447 0.12825 0 0.2406 0.04816 0.33705 0.14447 0.080026 0.09632 0.12004 0.21263 0.12004 0.34889 0 0.13628-0.048214 0.24439-0.14467 0.32431-0.09644 0.09632-0.2088 0.14448-0.33705 0.14448s-0.2406-0.04816-0.33705-0.14448c-0.09644-0.09632-0.14056-0.21261-0.13236-0.34889 0.00822-0.13628 0.060534-0.24437 0.15699-0.32431zm5.5544 4.4665c0.04826-0.12808 0.13653-0.2162 0.2648-0.26436 0.12827-0.04816 0.24827-0.03996 0.36013 0.024586 0.12827 0.04816 0.2124 0.13217 0.2524 0.25207 0.04 0.11988 0.03586 0.24387-0.01226 0.37195-0.04826 0.11168-0.1324 0.19161-0.2524 0.23976-0.12013 0.04816-0.24427 0.04816-0.37253 0-0.11186-0.048146-0.19187-0.13627-0.24013-0.26436-0.04814-0.12808-0.04814-0.24796 0-0.35964z"
    fill="#fb923c"
    mask="url(#cutout-mask)"
  />
  <path
    d="m15.098 10.916h-0.29095v-0.7759c0-1.1638-1.1638-2.3276-2.3276-2.3276-1.1638 0-2.3276 1.1638-2.3276 2.3276v0.7759h-0.29095c-0.48006 0-0.87284 0.39895-0.87284 0.88669v3.3105c0 0.48763 0.39278 0.88669 0.87284 0.88669h5.237c0.48006 0 0.87284-0.39906 0.87284-0.88669 0 0 0.06462-2.7612 0-3.3105-0.057-0.4844-0.39278-0.88669-0.87284-0.88669zm-3.7823-0.7759v0.7759h2.3276v-0.7759s0-1.1638-1.1638-1.1638c-1.1638 0-1.1638 1.1638-1.1638 1.1638z"
    fill="#FFCB6B"
    fill-rule="evenodd"
  />
</svg>
