<!--
  Derived from vsc-material-theme-icons
  Licensed under Apache License 2.0
  http://www.apache.org/licenses/LICENSE-2.0

  Modified under GPLv3
-->
<svg viewBox="0 0 16 16" xmlns="http://www.w3.org/2000/svg">
  <path
    d="m 1.7478498,0.57557156 c -0.86748575,0 -1.56303743,0.69555164 -1.56303743,1.56303744 V 9.9537968 A 1.5630375,1.5630375 0 0 0 1.7478498,11.516834 h 6.25215 v 3.907594 l 2.3445562,-2.344557 2.344557,2.344557 V 11.516834 H 14.25215 A 1.5630375,1.5630375 0 0 0 15.815188,9.9537968 V 4.4831654 2.9201278 2.138609 A 1.5630375,1.5630375 0 0 0 14.25215,0.57557156 h -3.126075 v 0 H 1.7478498 M 7.9999998,2.138609 10.344556,3.7016465 12.689113,2.138609 V 4.8739248 L 15.033668,6.0462029 12.689113,7.218481 V 9.9537968 L 10.344556,8.3907591 7.9999998,9.9537968 V 7.218481 L 5.6554435,6.0462029 7.9999998,4.8739248 V 2.138609 m -6.25215,0 H 5.6554435 V 3.7016465 H 1.7478498 V 2.138609 m 0,3.1260751 H 4.092406 V 6.8277216 H 1.7478498 V 5.2646841 m 0,3.1260749 H 5.6554435 V 9.9537968 H 1.7478498 Z"
    fill="#ff5722"
  />
</svg>
