<!--
  Derived from vsc-material-theme-icons
  Licensed under Apache License 2.0
  http://www.apache.org/licenses/LICENSE-2.0

  Modified under GPLv3
-->
<svg viewBox="0 0 16 16" xmlns="http://www.w3.org/2000/svg">
  <path
    d="M8,9.03H3.89v-1.37h3.42v-3.42h1.37v4.11c0,.38-.31.68-.69.68Z"
    fill="#c3e88d"
  />
  <path
    d="M14.17,8.34c0,3.4-2.77,6.16-6.17,6.16S1.84,11.74,1.84,8.34,4.6,2.18,8,2.18c1.36,0,2.65.45,3.72,1.26l-2.47,2.32,6.28.67L15.23.12l-2.5,2.36c-1.34-1.08-2.99-1.67-4.73-1.67C3.85.81.46,4.19.46,8.34s3.38,7.53,7.53,7.53,7.54-3.38,7.54-7.53h-1.37Z"
    fill="#6b7394"
  />
</svg>
