<svg viewBox="0 0 16 16" xmlns="http://www.w3.org/2000/svg">
  <path
    d="m7.9998 0c-4.4109 0-7.9998 3.5889-7.9998 7.9999 0 4.4114 3.5889 8.0001 7.9998 8.0001 4.411 0 7.9999-3.5887 7.9999-8.0001 0-4.411-3.5889-7.9999-7.9999-7.9999"
    fill="#fff"
  />
  <path
    d="m7.7072 8.1438c-0.071874 0.15575-0.15118 0.33074-0.23331 0.51699-0.29031 0.65774-0.6118 1.4581-0.72924 1.9708-0.042187 0.18262-0.068311 0.40893-0.067811 0.65986 0 0.09925 0.00531 0.20356 0.01375 0.30981 0.41043 0.15081 0.85373 0.23374 1.3167 0.23456 0.42143-8.12e-4 0.8263-0.07044 1.2052-0.19643-0.089061-0.081436-0.17406-0.16825-0.25143-0.26606-0.51374-0.65511-0.80036-1.6152-1.2539-3.2296"
    fill="#91dc47"
  />
  <path
    d="m5.8105 4.889c-0.98117 0.69149-1.6232 1.832-1.6257 3.1244 0.0024375 1.2732 0.62518 2.3989 1.5817 3.0933 0.23462-0.97729 0.82273-1.8722 1.7047-3.6659-0.052374-0.14387-0.11206-0.30137-0.17887-0.4668-0.24431-0.61286-0.59693-1.3246-0.91161-1.6469-0.16043-0.16837-0.35512-0.31387-0.57018-0.43812"
    fill="#91dc47"
  />
  <path
    d="m11.337 12.398c-0.50624-0.06344-0.92404-0.14-1.2895-0.26893-0.61474 0.30524-1.307 0.47768-2.0401 0.47768-2.5365 0-4.5926-2.0558-4.5929-4.593 0-1.3767 0.60649-2.6108 1.566-3.4524-0.25662-0.061999-0.52424-0.098186-0.79761-0.097686-1.3476 0.012687-2.7701 0.75849-3.3624 2.7726-0.055374 0.29318-0.042187 0.51486-0.042187 0.77761 0 3.9927 3.2369 7.2296 7.2293 7.2296 2.4451 0 4.605-1.2149 5.9131-3.073-0.70749 0.17631-1.3878 0.26062-1.9705 0.26243-0.21837 0-0.42337-0.01169-0.61318-0.03487"
    fill="#63b132"
  />
  <path
    d="m9.9784 10.997c0.044624 0.02212 0.14581 0.05825 0.28662 0.09819 0.94729-0.69542 1.5629-1.8156 1.5653-3.0816h-3.75e-4c-0.003562-2.1107-1.7116-3.8184-3.8227-3.8226-0.41962 8.125e-4 -0.82273 0.070061-1.2002 0.19512 0.77617 0.88473 1.1494 2.1491 1.5105 3.5321 1.875e-4 6.25e-4 5e-4 0.00113 6.25e-4 0.00162 6.875e-4 0.00113 0.1155 0.38406 0.31262 0.89211 0.19575 0.50737 0.47462 1.1355 0.77873 1.5932 0.19968 0.30674 0.4193 0.52718 0.56886 0.59186"
    fill="#90b4fe"
  />
  <path
    d="m8.0075 0.7838c-2.4215 0-4.5634 1.192-5.8754 3.0198 0.6828-0.42762 1.38-0.58186 1.9884-0.57636 0.84036 0.00244 1.501 0.26299 1.818 0.44124 0.076561 0.044124 0.14925 0.091623 0.22043 0.14043 0.56561-0.24912 1.1906-0.38843 1.8483-0.38843 2.5368 3.125e-4 4.5932 2.0561 4.5936 4.5929h-3.75e-4c0 1.279-0.52312 2.4354-1.3664 3.2681 0.207 0.02319 0.42774 0.03762 0.65318 0.0365 0.80067 3.75e-4 1.6661-0.17631 2.3149-0.72199 0.42306-0.35637 0.77748-0.87817 0.97404-1.6605 0.03844-0.30218 0.06056-0.60936 0.06056-0.92198 0-3.9925-3.2366-7.2297-7.2293-7.2297"
    fill="#5881d8"
  />
</svg>
