<!--
  Derived from vsc-material-theme-icons
  Licensed under Apache License 2.0
  http://www.apache.org/licenses/LICENSE-2.0

  Modified under GPLv3
-->
<svg viewBox="0 0 16 16" xmlns="http://www.w3.org/2000/svg">
  <path
    d="m 3.3333334,3.3333333 v -1.75 h -1.75 C 1.2651516,1.5833333 1,1.8484849 1,2.1666667 v 1.1666666 z"
    fill="#89ddff"
  />
  <path
    d="M 15,3.3333333 V 2.1666667 C 15,1.8484849 14.734848,1.5833333 14.416666,1.5833333 H 4.5 v 1.75 z"
    fill="#89ddff"
  />
  <path
    d="m 1,4.5 v 9.333333 c 0,0.318182 0.2651516,0.583334 0.5833334,0.583334 H 14.416666 C 14.734848,14.416667 15,14.151515 15,13.833333 V 4.5 Z m 5.0820708,5.0820707 -2.1654042,2.1654043 -0.8219696,-0.82197 1.75,-1.7499999 -1.75,-1.75 0.8219696,-0.8219698 2.1654042,2.1654041 c 0.2297978,0.229798 0.2297978,0.6010101 0,0.8219695 z M 7.4166666,11.5 H 10.916666 V 10.333333 H 7.4166666 Z"
    fill="#3965bd"
    fill-rule="evenodd"
  />
</svg>
