<!--
  Derived from vsc-material-theme-icons
  Licensed under Apache License 2.0
  http://www.apache.org/licenses/LICENSE-2.0

  Modified under GPLv3
-->
<svg viewBox="0 0 16 16" xmlns="http://www.w3.org/2000/svg">
  <path
    d="M8.42,5.54c-4.93.02-9.8-1.38-6.24-2.73-1.48,1.23,2.36,2.05,6.22,2.07,3.85.02,7.7-.76,6.55-1.94,2.95,1.3-1.85,2.59-6.53,2.61Z"
    fill="#f78c6c"
  />
  <path
    d="M1.65,7.42c-.26-.74-.46-1.52-.58-2.32,1.37,2.01,13.45,2.06,14.8,0-.27,1.56-.76,3.02-1.46,4.29-.53.8-1.06,1.5-1.59,2.26-.21.44-.38.89-.47,1.33-1.09,1.68-6.48,1.92-7.75,0-.1-.44-.26-.89-.49-1.33-.9-1.17-1.82-2.52-2.25-3.65-.57.55-.69,1.21-.59,1.95.09.66.44,1.2.97,1.59.49.39.97.57,1.55.57-.27.09-.57.23-.84.27-.7.13-1.32,0-1.89-.44-.54-.44-.89-1.02-.93-1.72-.04-.7.17-1.42.66-2.03.26-.33.54-.58.85-.77Z"
    fill="#f78c6c"
  />
  <path
    d="M5.29,1.97c1.09-.09,1.29.36.92.52-1.74-.58-2.17.73-.52.59,1.5-.13,1.49-1.15,3.69-1.35,1.72-.16,2.68.37,2.81,1.02.1.5-.32.96-1.56,1.09-1.62.16-2.47-.75-1.22-.94.06.24.36.5,1.07.43.52-.04.94-.23.89-.52-.06-.3-.6-.47-1.46-.4-1.75.16-2.18,1.12-3.66,1.25-1.94.22-2.99-1.47-.96-1.67Z"
    fill="#ffcb6b"
  />
</svg>
