<!--
  Derived from vsc-material-theme-icons
  Licensed under Apache License 2.0
  http://www.apache.org/licenses/LICENSE-2.0

  Modified under GPLv3
-->
<svg viewBox="0 0 16 16" xmlns="http://www.w3.org/2000/svg">
  <path
    d="m7.1594 10.691 0.30897 1.8591c-0.19593 0.10667-0.51245 0.2056-0.93449 0.29707-0.42956 0.099066-0.93449 0.1524-1.5148 0.1524-1.6655-0.030534-2.9165-0.53333-3.753-1.4933-0.84407-0.9676-1.2661-2.1943-1.2661-3.68 0.03768-1.76 0.54261-3.1086 1.5072-4.0533 0.99479-0.95239 2.2307-1.44 3.7229-1.44 0.56521 0 1.0551 0.053333 1.462 0.14476 0.40696 0.091426 0.70841 0.19048 0.90435 0.30476l-0.43709 1.8971-0.79885-0.25905c-0.30144-0.076187-0.64811-0.11428-1.0475-0.11428-0.8742-0.00761-1.5977 0.27428-2.1629 0.83809-0.57276 0.55619-0.86667 1.4095-0.88928 2.5448 0 1.0362 0.27884 1.8438 0.81392 2.4381 0.53507 0.58665 1.2887 0.89145 2.2533 0.89905l1.0023-0.09146c0.32405-0.06094 0.59536-0.14467 0.82899-0.24374zm-0.95652-3.7867h1.5072v-1.5238h1.5073v1.5238h1.5073v1.5238h-1.5073v1.5238h-1.5073v-1.5238h-1.5072zm6.7826 0h-1.5072v1.5238h1.5072v1.5238h1.5073v-1.5238h1.5072v-1.5238h-1.5072v-1.5238h-1.5073z"
    fill="#3965bd"
  />
</svg>
