<svg viewBox="0 0 16 16" xmlns="http://www.w3.org/2000/svg">
  <defs>
    <linearGradient
      id="gradient"
      x1="46.773"
      x2="69.907"
      y1="86.462"
      y2="126.73"
      gradientTransform="matrix(.59281 0 0 .59281 -31.154 -52.148)"
      gradientUnits="userSpaceOnUse"
    >
      <stop stop-color="#a993ff" offset="0" />
      <stop stop-color="#6F58FF" offset="1" />
    </linearGradient>
  </defs>
  <path
    d="m1.7778 6.2215v3.5559a0.88799 0.88799 0 0 0 1.5178 0.62878 0.887 0.887 0 0 0 0.2604-0.62878 0.88917 0.88917 0 0 1 1.7776 0 2.6667 2.6667 0 1 1-5.3335 0v-3.5553a2.6667 2.6667 0 0 1 5.3335 0 0.88878 0.88878 0 1 1-1.7776 0 0.88878 0.88878 0 1 0-1.7776 0zm14.222 3.5559a0.88917 0.88917 0 0 1-0.88917 0.88917h-0.88918v0.88858c0 0.23611-0.09338 0.46216-0.2604 0.62878a0.887 0.887 0 0 1-1.2568 0 0.89214 0.89214 0 0 1-0.2604-0.62878v-0.88858h-1.7776v0.88858a0.887 0.887 0 0 1-0.88917 0.88917 0.88799 0.88799 0 0 1-0.88858-0.88917v-0.88858h-0.88957a0.88917 0.88917 0 0 1 0-1.7776h0.88917v-1.7776h-0.88917a0.88878 0.88878 0 1 1 0-1.7776h0.88917v-0.88917a0.88878 0.88878 0 1 1 1.7776 0v0.88858h1.7776v-0.88858a0.88878 0.88878 0 1 1 1.7776 0v0.88858h0.88918c0.23552 0 0.46156 0.093379 0.62818 0.2604a0.887 0.887 0 0 1 0 1.2568c-0.16603 0.16702-0.39266 0.26099-0.62818 0.26099h-0.88918v1.7776h0.88918a0.89115 0.89115 0 0 1 0.88917 0.88858zm-3.5559-2.6661h-1.7776v1.7776h1.7776z"
    fill="url(#gradient)"
  />
</svg>
