<svg viewBox="0 0 16 16" xmlns="http://www.w3.org/2000/svg">
  <path
    id="bg"
    d="m0 0h13.44a2.56 2.56 0 0 1 2.56 2.56v10.88a2.56 2.56 0 0 1-2.56 2.56h-10.88a2.56 2.56 0 0 1-2.56-2.56z"
    fill="#639"
    stroke-width=".016"
  />
  <path
    id="fg"
    d="m5.7296 14.72c-1.0277-9.24e-4 -1.6618-0.57968-1.6496-1.6446v-2.6942c0-0.53984 0.15808-0.9504 0.47424-1.2314 0.56784-0.54704 1.8853-0.58032 2.4414 0.00832 0.34272 0.30224 0.472 0.91968 0.44128 1.4958h-1.1795c0.00896-0.2264-0.00304-0.56928-0.13616-0.6984-0.17296-0.23408-0.62976-0.20656-0.75056 0.03712-0.07424 0.13216-0.11136 0.32784-0.11136 0.58672v2.3389c0 0.4904 0.1704 0.7384 0.51136 0.74384 0.15936 0 0.28048-0.05792 0.36288-0.1736 0.11504-0.13728 0.13296-0.44128 0.12368-0.66112h1.1795c0.08064 1.1211-0.58112 1.9066-1.7074 1.8926zm3.7446 0c-1.1387 0.01568-1.6482-0.79456-1.6166-1.8926h1.1134c-0.030878 0.47872 0.1336 0.91472 0.52784 0.88432 0.17584 0 0.29968-0.05504 0.3712-0.16528 0.136-0.20144 0.16144-0.7832-0.032962-1.0083-0.13584-0.2168-0.62448-0.40816-0.88256-0.53712-0.36848-0.17632-0.63376-0.3856-0.796-0.62816-0.36592-0.53824-0.332-1.7197 0.18144-2.1984 0.49888-0.59072 1.8018-0.61792 2.3011-0.012323 0.308 0.31216 0.44256 0.9264 0.41648 1.4917h-1.0723c0.0091224-0.23232-0.012802-0.6072-0.10304-0.74384-0.063202-0.11568-0.18288-0.1736-0.35872-0.1736-0.31344 0-0.47008 0.18736-0.47008 0.56192 0.00336 0.39776 0.1584 0.56096 0.51968 0.7272 0.46784 0.18176 1.0627 0.49216 1.2784 0.86784 0.6432 1.1446 0.20192 2.8931-1.3774 2.8264zm3.5962 0c-1.1387 0.01568-1.6482-0.79456-1.6166-1.8926h1.1134c-0.03088 0.47872 0.1336 0.91472 0.52784 0.88432 0.17584 0 0.29968-0.05504 0.3712-0.16528 0.136-0.20144 0.16144-0.7832-0.03296-1.0083-0.13584-0.2168-0.62448-0.40816-0.88256-0.53712-0.36848-0.17632-0.63376-0.3856-0.796-0.62816-0.36592-0.53824-0.332-1.7197 0.18144-2.1984 0.49888-0.59072 1.8018-0.61792 2.3011-0.012323 0.308 0.31216 0.44256 0.9264 0.41648 1.4917h-1.0723c0.0091-0.23232-0.0128-0.6072-0.10304-0.74384-0.0632-0.11568-0.18288-0.1736-0.35872-0.1736-0.31344 0-0.47008 0.18736-0.47008 0.56192 0.0034 0.39776 0.1584 0.56096 0.51968 0.7272 0.46784 0.18176 1.0627 0.49216 1.2784 0.86784 0.6432 1.1446 0.20192 2.8931-1.3774 2.8264z"
    fill="#fff"
    stroke-width=".016"
  />
</svg>
