<!--
  Derived from vsc-material-theme-icons
  Licensed under Apache License 2.0
  http://www.apache.org/licenses/LICENSE-2.0

  Modified under GPLv3
-->
<svg viewBox="0 0 16 16" xmlns="http://www.w3.org/2000/svg">
  <path
    d="M2.66,1.01c-.54,0-1.02.46-1.02.99l1.13,9.96c.05.4.25.62.59.82l4.28,2.13c.27.11.55.14.86,0l4.27-2.13c.35-.18.56-.55.54-.94l1.06-9.88c0-.5-.44-.96-.98-.96H2.66ZM5.53,8.59c0,.9-.01,1.16.19,1.36.2.15.56.18,1.14.17v.87h-.97c-.88-.02-1.88-.14-1.88-1.43,0-.78.05-1.26-.24-1.55-.23-.22-.73-.25-1.15-.23v-.86c.58.02.97-.05,1.15-.22.58-.54-.2-1.99.69-2.67.47-.38,1.3-.35,2.4-.34v.87c-.58-.01-1.01.03-1.14.17-.41.41.05,1.57-.39,2.24-.13.18-.37.31-.7.37.71.14.91.56.9,1.25ZM11.38,7.34c-.33-.06-.56-.19-.7-.37-.44-.67.03-1.82-.39-2.24-.13-.14-.56-.19-1.14-.17v-.87c1.1,0,1.93-.04,2.4.34.89.68.11,2.13.69,2.67.18.17.58.24,1.15.22v.86c-.42-.02-.92.01-1.15.23-.29.28-.24.77-.24,1.55,0,1.28-1,1.41-1.88,1.43h-.97v-.87c.58,0,.94-.02,1.14-.17.2-.2.19-.46.19-1.36,0-.7.19-1.12.9-1.25Z"
    fill="#89ddff"
  />
</svg>
