<!--
  Derived from vsc-material-theme-icons
  Licensed under Apache License 2.0
  http://www.apache.org/licenses/LICENSE-2.0

  Modified under GPLv3
-->
<svg viewBox="0 0 16 16" xmlns="http://www.w3.org/2000/svg">
  <path
    d="M5.99,5.87v-.95c.09,0,.18-.01.28-.01,2.59-.08,4.29,2.24,4.29,2.24,0,0-1.84,2.57-3.8,2.57-.26,0-.52-.04-.77-.12v-2.89c1.01.12,1.21.57,1.82,1.59l1.35-1.15c-.32-.39-.73-.71-1.18-.94-.46-.22-.95-.35-1.46-.36-.17,0-.35.01-.52.03ZM5.99,2.72v1.42c.09,0,.19-.01.28-.02,3.6-.12,5.95,2.98,5.95,2.98,0,0-2.7,3.3-5.5,3.3-.24,0-.49-.02-.72-.06v.88c.2.03.4.04.6.04,2.61,0,4.5-1.34,6.33-2.94.3.25,1.55.84,1.8,1.1-1.74,1.47-5.79,2.65-8.09,2.65-.22,0-.44-.01-.64-.03v1.24h9.93V2.72H5.99ZM5.99,9.59v.75c-2.42-.43-3.09-2.96-3.09-2.96.83-.84,1.92-1.37,3.09-1.5v.82h0c-.34,0-.68.07-.99.21-.31.14-.59.35-.81.62,0,0,.44,1.6,1.8,2.06M1.7,7.27c.51-.67,1.16-1.23,1.9-1.64.74-.4,1.56-.65,2.39-.71v-.77C2.82,4.4.08,7.1.08,7.1c0,0,1.55,4.52,5.91,4.94v-.82c-3.19-.41-4.29-3.95-4.29-3.95Z"
    fill="#aee33e"
  />
</svg>
