<!--
  Derived from vsc-material-theme-icons
  Licensed under Apache License 2.0
  http://www.apache.org/licenses/LICENSE-2.0

  Modified under GPLv3
-->
<svg viewBox="0 0 16 16" xmlns="http://www.w3.org/2000/svg">
  <path
    d="M9.01,7.94c0-2.05-1.5-2.59-4.73-2.59h-.66c0,1.75.01,3.5.02,5.25h.69c1.7,0,4.68.1,4.68-2.66ZM14.43,2.19H1.57C.74,2.19.06,2.92.06,3.84v8.33c0,.91.68,1.65,1.52,1.65h12.85c.84,0,1.52-.74,1.52-1.65V3.84c0-.91-.68-1.65-1.52-1.65ZM9.6,5.02c1.54-1.19,3.11-.4,3.68.69.57,1.09-.11,2.92-2.24,2.87-.28,1.52-1.79,3.8-6.09,3.62H1.9c-.21-.02-.35-.11-.34-.36v-7.73c0-.15.12-.28.28-.3h3.3c2.09,0,3.32.31,4.46,1.2ZM13.43,4.82c-.49-.25-.49-.89,0-1.15.49-.25,1.11.07,1.11.57s-.62.83-1.11.57Z"
    fill="#fc8289"
  />
</svg>
