<!--
  Derived from vsc-material-theme-icons
  Licensed under Apache License 2.0
  http://www.apache.org/licenses/LICENSE-2.0

  Modified under GPLv3
-->
<svg viewBox="0 0 16 16" xmlns="http://www.w3.org/2000/svg">
  <path
    d="M8.47.05c-.19,0-.38.07-.52.21,0,0,0,0,0,0L3.07,3.08l4.86,4.86h0s5.84,5.84,5.84,5.84l1.11-2L10.87,2.14l-1.87-1.87c-.15-.15-.34-.22-.53-.22h0Z"
    fill="#42a5f5"
  />
  <path
    d="M3.09,3.07L.27,7.93s0,0,0,0c-.14.14-.21.33-.21.52,0,.19.07.38.22.52l2.33,2.33,9.12,3.59,2.06-1.15-.06-.06h-.01s-5.72-5.72-5.72-5.72h0S3.09,3.07,3.09,3.07h0Z"
    fill="#1565c0"
  />
  <path
    d="M3.07,3.07l4.97,4.97h0s5.72,5.72,5.72,5.72l2.18-.42v-6.44s-2.3-2.25-2.3-2.25c-.5-.49-1.28-.81-2.05-.92v-.03s-8.52-.65-8.52-.65h0Z"
    fill="#1565c0"
  />
  <path
    d="M3.08,3.08l4.97,4.97h0s5.72,5.73,5.72,5.73l-.42,2.18h-6.44l-2.25-2.3c-.49-.5-.81-1.28-.91-2.05h-.03s-.65-8.52-.65-8.52h0Z"
    fill="#42a5f5"
  />
</svg>
