<!--
  Derived from vsc-material-theme-icons
  Licensed under Apache License 2.0
  http://www.apache.org/licenses/LICENSE-2.0

  Modified under GPLv3
-->
<svg viewBox="0 0 16 16" xmlns="http://www.w3.org/2000/svg">
  <path
    d="m 7.9999998,0.10231041 c -3.8786429,0 -7.02016805,1.57076279 -7.02016805,3.51008419 0,1.9393213 3.14152515,3.5100842 7.02016805,3.5100842 3.8786452,0 7.0201682,-1.5707629 7.0201682,-3.5100842 0,-1.9393214 -3.141523,-3.51008419 -7.0201682,-3.51008419 M 0.97983175,5.3674366 v 2.6325631 c 0,1.9393206 3.14152515,3.5100843 7.02016805,3.5100843 3.8786452,0 7.0201682,-1.5707637 7.0201682,-3.5100843 V 5.3674366 c 0,1.9393215 -3.141523,3.5100841 -7.0201682,3.5100841 -3.8786429,0 -7.02016805,-1.5707626 -7.02016805,-3.5100841 m 0,4.3876053 v 2.6325641 c 0,1.939321 3.14152515,3.510084 7.02016805,3.510084 3.8786452,0 7.0201682,-1.570763 7.0201682,-3.510084 V 9.7550419 c 0,1.9393221 -3.141523,3.5100851 -7.0201682,3.5100851 -3.8786429,0 -7.02016805,-1.570763 -7.02016805,-3.5100851 z"
    fill="#f4bf75"
  />
</svg>
