<svg viewBox="0 0 16 16" xmlns="http://www.w3.org/2000/svg">
  <path
    d="m1.3977 11.051c-0.43007-0.92809-0.6701-1.9619-0.6701-3.0513 0-0.28195 0.016047-0.56016 0.047358-0.83378 0.031759-0.27646 0.078818-0.54781 0.14025-0.81315 0.3452-1.4887 1.1481-2.8027 2.2521-3.7857 0.92734-0.82453 2.0634-1.4128 3.3087-1.6794 0.49146-0.10498 1.0012-0.16021 1.5238-0.16021 0.18316 1.866e-4 0.36767 0.00724 0.55329 0.021384 0.88013 0.067212 1.7118 0.28878 2.4706 0.63614 0.61207 0.28057 1.1786 0.64357 1.6853 1.0748 1.2728 1.0843 2.1605 2.5947 2.4557 4.2896 0.07053 0.40626 0.10729 0.82404 0.10729 1.2503-1.49e-4 0.18346-0.0072 0.36823-0.02142 0.55411-0.05363 0.7025-0.20559 1.3741-0.44141 2.0025-0.32912 0.87517-0.82222 1.6703-1.4418 2.3479-0.80583 0.82281-1.8299 1.1889-2.6851 1.1737-0.62192-0.011084-1.2305-0.25855-1.651-0.62062-0.60069-0.51728-0.84334-1.1086-0.92648-1.7684-0.020675-0.16402-0.0085461-0.61095 0.076803-0.9204 0.063629-0.23067 0.225-0.67615 0.46097-0.87099-0.27605-0.1189-0.63133-0.37778-0.74332-0.50205-0.027504-0.030564-0.023959-0.07837 6.717e-4 -0.11129 0.024668-0.032915 0.067921-0.045903 0.10662-0.031982 0.23731 0.081468 0.52635 0.16182 0.8311 0.21279 0.40081 0.066988 0.89928 0.1514 1.4042 0.17622 1.2312 0.060457 2.5172-0.4922 2.9164-1.5917 0.39913-1.0995 0.24429-2.1871-1.1876-2.8395s-2.0934-1.428-3.2503-1.8958c-0.75568-0.30561-1.5968-0.1242-2.4603 0.35304-2.326 1.2854-4.4098 5.3466-3.4492 9.1093 0.013733 0.05146-0.00944 0.10569-0.056165 0.13133-0.043738 0.02403-0.097589 0.01717-0.13386-0.01605-0.27956-0.30717-0.53318-0.63834-0.75743-0.99004-0.1735-0.27221-0.32923-0.55639-0.46574-0.8508z"
  />
  <path
    d="m8.3716 0.0091081c4.4104 0.20516 7.8245 3.9524 7.6194 8.3628-0.20516 4.4104-3.9524 7.8245-8.3628 7.6193-4.4104-0.20516-7.8245-3.9524-7.6194-8.3628 0.20516-4.4104 3.9524-7.8245 8.3628-7.6194zm1.8704 9.6326c-0.50494-0.02483-1.0034-0.10922-1.4042-0.17623-0.30476-0.050966-0.59379-0.13132-0.8311-0.21278-0.038725-0.013908-0.081954-9.281e-4 -0.10662 0.031964-0.024638 0.032927-0.028204 0.080752-6.839e-4 0.11131 0.112 0.12426 0.46728 0.38316 0.74332 0.50204-0.23597 0.19484-0.39735 0.64034-0.46096 0.871-0.085359 0.30946-0.097496 0.75638-0.076821 0.92039 0.083164 0.65981 0.32579 1.2511 0.92652 1.7684 0.42051 0.36207 1.029 0.60954 1.6509 0.62063 0.85826 0.01528 1.8864-0.35342 2.6935-1.1823 1.0552-1.1569 1.7465-2.6611 1.8748-4.3419 0.30559-4.0021-2.6955-7.4994-6.6976-7.805-4.0021-0.30559-7.4994 2.6955-7.805 6.6976-0.15826 2.0726 0.57033 4.0099 1.8657 5.4384 0.036072 0.03921 0.09425 0.04875 0.14095 0.02312 0.046701-0.02563 0.069882-0.07985 0.056146-0.13133-0.96061-3.7627 1.1233-7.824 3.4492-9.1094 0.86353-0.47723 1.7046-0.65864 2.4603-0.35305 1.157 0.46783 1.8184 1.2435 3.2504 1.8959 1.4319 0.65236 1.5868 1.7399 1.1876 2.8395-0.39916 1.0995-1.6852 1.6522-2.9164 1.5917zm-2.5056-5.8201c-0.46927 0.036725-0.7774 0.61756-0.81775 0.99123-0.04052 0.37362 0.14492 0.9903 0.75638 0.97827 0.71609-0.01411 0.93365-0.62706 0.8551-1.2202-0.058963-0.44542-0.4014-0.78008-0.79373-0.74934z"
    fill="#fff"
  />
  <path
    d="m7.7397 3.8193c0.39234-0.030741 0.73462 0.30411 0.79362 0.7494 0.078708 0.59321-0.13898 1.206-0.85491 1.2201-0.61158 0.012177-0.79687-0.60454-0.75635-0.97816 0.040254-0.37363 0.34825-0.95451 0.81765-0.99135z"
  />
</svg>
