<!--
  Derived from vsc-material-theme-icons
  Licensed under Apache License 2.0
  http://www.apache.org/licenses/LICENSE-2.0

  Modified under GPLv3
-->
<svg viewBox="0 0 16 16" xmlns="http://www.w3.org/2000/svg">
  <path
    d="M6.73,3.2h1.19v1.19h-1.19v-1.19ZM12.42,7.19c-.49-.47-.63-1.88,0-2.5l.19-.21.19.18c.6.46.95.99,1.03,1.57.84-.25,1.46-.09,2.09.3-.41.83-1.05,1.35-2.47,1.3-1.29,3.09-4.05,4.95-8.15,4.98-2.17,0-3.72-.75-4.65-2.32C.13,9.55.02,8.91.12,7.64h9.52c.17,0,1.45.06,2.09-.15.27-.09.5-.19.69-.3ZM3.05,6.37h-1.19v1.19h1.19v-1.19ZM3.5,6.37h1.19v1.19h-1.19v-1.19ZM6.32,6.37h-1.19v1.19h1.19v-1.19ZM6.73,6.37h1.19v1.19h-1.19v-1.19ZM4.68,4.78h-1.19v1.19h1.19v-1.19ZM5.13,4.78h1.19v1.19h-1.19v-1.19ZM7.92,4.78h-1.19v1.19h1.19v-1.19ZM9.53,6.37h-1.19v1.19h1.19v-1.19Z"
    fill="#4ade80"
  />
</svg>
