<!--
  Derived from vsc-material-theme-icons
  Licensed under Apache License 2.0
  http://www.apache.org/licenses/LICENSE-2.0

  Modified under GPLv3
-->
<svg viewBox="0 0 16 16" xmlns="http://www.w3.org/2000/svg">
  <defs>
    <mask id="cutout-mask">
      <rect width="100%" height="100%" fill="white" />
      <path
        d="m15.098 10.916h-0.29095v-0.7759c0-1.1638-1.1638-2.3276-2.3276-2.3276-1.1638 0-2.3276 1.1638-2.3276 2.3276v0.7759h-0.29095c-0.48006 0-0.87284 0.39895-0.87284 0.88669v3.3105c0 0.48763 0.39278 0.88669 0.87284 0.88669h5.237c0.48006 0 0.87284-0.39906 0.87284-0.88669 0 0 0.06462-2.7612 0-3.3105-0.057-0.4844-0.39278-0.88669-0.87284-0.88669zm-3.7823-0.7759v0.7759h2.3276v-0.7759s0-1.1638-1.1638-1.1638c-1.1638 0-1.1638 1.1638-1.1638 1.1638z"
        fill="black"
        stroke="#000"
        stroke-width="1.5"
      />
    </mask>
  </defs>
  <path
    d="M9.04,3.77c1.19,2.62,4.37,3.71,4.08,7.13-.33,4.01-3.17,5.02-4.75,5.09-2.64.2-4.98-1.66-5.37-4.28C2.08,7.45,6.1.93,8.42,0c-.08,1.29.14,2.57.62,3.77Z"
    fill="#7c648f"
    mask="url(#cutout-mask)"
  />
  <path
    d="m15.098 10.916h-0.29095v-0.7759c0-1.1638-1.1638-2.3276-2.3276-2.3276-1.1638 0-2.3276 1.1638-2.3276 2.3276v0.7759h-0.29095c-0.48006 0-0.87284 0.39895-0.87284 0.88669v3.3105c0 0.48763 0.39278 0.88669 0.87284 0.88669h5.237c0.48006 0 0.87284-0.39906 0.87284-0.88669 0 0 0.06462-2.7612 0-3.3105-0.057-0.4844-0.39278-0.88669-0.87284-0.88669zm-3.7823-0.7759v0.7759h2.3276v-0.7759s0-1.1638-1.1638-1.1638c-1.1638 0-1.1638 1.1638-1.1638 1.1638z"
    fill="#FFCB6B"
    fill-rule="evenodd"
  />
</svg>
