<!--
  Derived from vsc-material-theme-icons
  Licensed under Apache License 2.0
  http://www.apache.org/licenses/LICENSE-2.0

  Modified under GPLv3
-->
<svg viewBox="0 0 16 16" xmlns="http://www.w3.org/2000/svg">
  <path
    d="M2.24,2.99h-1.17c-.55,0-.99.44-.99.99v8.04c0,.55.44.99.99.99h1.49c-1.23-1.3-1.95-3.1-1.95-5.25,0-1.9.59-3.53,1.62-4.77ZM13.92,13.01c.53-.57,1-1.24,1.43-2l-2.39-1.19c-.84,1.36-2.06,2.62-3.76,2.63-2.47,0-3.44-2.12-3.43-4.83h9.22c.01-.31,0-.6,0-.6.06-1.62-.37-2.97-1.15-4.03h1.08c.55,0,.99.44.99.99v8.05c0,.55-.44.99-.99.99h-1.01ZM5.93,5.29c.1-1.23,1.07-2.06,2.21-2.06,1.14,0,1.97.83,2,2.06h-4.21Z"
    fill="#fc8289"
  />
</svg>
