<!--
  Derived from vsc-material-theme-icons
  Licensed under Apache License 2.0
  http://www.apache.org/licenses/LICENSE-2.0

  Modified under GPLv3
-->
<svg viewBox="0 0 16 16" xmlns="http://www.w3.org/2000/svg">
  <path
    d="M4.85,6.1l3.03-1.75c.08-.04.17-.04.24,0l3.03,1.75c.08.04.12.12.12.21v3.49c0,.09-.05.17-.12.21l-3.03,1.75c-.08.04-.17.04-.24,0l-3.03-1.75c-.08-.04-.12-.12-.12-.21v-3.49c0-.09.05-.17.12-.21Z"
    fill="#9883ec"
  />
  <path
    d="M12.26,1.4l3.62,6.29h0c.13.23.13.49,0,.72l-3.62,6.25c-.13.23-.37.34-.64.34h-7.24c-.26,0-.51-.12-.64-.34L.13,8.42c-.13-.23-.13-.51,0-.74L3.74,1.4c.13-.23.37-.4.64-.4h7.24c.26,0,.51.17.64.4ZM12.74,10.94c.08-.05.14-.13.14-.22v-5.31c0-.09-.06-.18-.14-.22l-4.61-2.66c-.08-.05-.18-.05-.26,0l-4.61,2.66c-.08.05-.14.13-.14.22v5.31c0,.09.06.18.14.22l4.61,2.66c.08.05.18.05.26,0l4.61-2.66Z"
    fill="#3965bd"
  />
</svg>
