<!--
  Derived from vsc-material-theme-icons
  Licensed under Apache License 2.0
  http://www.apache.org/licenses/LICENSE-2.0

  Modified under GPLv3
-->
<svg viewBox="0 0 16 16" xmlns="http://www.w3.org/2000/svg">
  <path
    d="M2.61,10.44L4.18.33c.02-.15.14-.28.3-.3.15-.03.31.05.38.19l1.69,3.17-3.94,7.06Z"
    fill="#ac4142"
  />
  <path
    d="M13.78,12.9l-1.5-9.31c-.02-.13-.12-.24-.25-.28-.13-.04-.27,0-.36.09L2.22,12.9l5.22,2.94c.33.18.73.18,1.06,0l5.27-2.94Z"
    fill="#ffcb6b"
  />
  <path
    d="M9.53,4.77l-1.21-2.32c-.06-.12-.19-.19-.32-.19s-.26.07-.32.19L2.37,11.98l7.16-7.21Z"
    fill="#f78c6c"
  />
</svg>
