<!--
  Derived from vsc-material-theme-icons
  Licensed under Apache License 2.0
  http://www.apache.org/licenses/LICENSE-2.0

  Modified under GPLv3
-->
<svg viewBox="0 0 16 16" xmlns="http://www.w3.org/2000/svg">
  <path
    d="m2.4 2h4.2l1.4 1.375h5.6c0.77 0 1.4 0.61875 1.4 1.375v0.8343c-0.1133-0.02233-0.2304-0.03404-0.3502-0.03404h-6.2996c-0.99406 0-1.7999 0.80585-1.7999 1.7999v5.6498h-4.1502c-0.77 0-1.4-0.6187-1.4-1.375l7e-3 -8.25c0-0.75625 0.623-1.375 1.393-1.375z"
    fill="#90A4AE"
  />
  <path
    d="m8.071 12.959c0.034974 0.05996 0.089935 0.11492 0.14989 0.14989l3.0778 1.7787c0.12491 0.07495 0.2848 0.07495 0.40971 0l3.0778-1.7787c0.12491-0.06995 0.20485-0.20985 0.20485-0.35474v-3.5574c0-0.1449-0.07994-0.28479-0.20485-0.35474l-3.0728-1.7787c-0.12491-0.074946-0.2848-0.074946-0.4097 0l-3.0778 1.7787c-0.12491 0.069949-0.20485 0.20985-0.20485 0.35474v3.5574c0 0.06995 0.019986 0.1449 0.05496 0.20485"
    fill="#009639"
  />
  <path
    d="m10.524 12.33c0 0.21484-0.17987 0.39472-0.39472 0.39472s-0.39472-0.17987-0.39472-0.39472v-2.718c0-0.20985 0.18487-0.38472 0.44968-0.38472 0.20485 0 0.40471 0.084937 0.53961 0.23983l0.11992 0.1449 1.6538 1.9786v-1.9686c0-0.21484 0.17987-0.39472 0.39472-0.39472 0.21484 0 0.39472 0.17987 0.39472 0.39472v2.718c0 0.20985-0.18487 0.38472-0.44968 0.38472-0.20485 0-0.40471-0.08494-0.53961-0.23983l-1.7737-2.1235z"
    fill="#fff"
  />
</svg>
