<!--
  Derived from vsc-material-theme-icons
  Licensed under Apache License 2.0
  http://www.apache.org/licenses/LICENSE-2.0

  Modified under GPLv3
-->
<svg viewBox="0 0 16 16" xmlns="http://www.w3.org/2000/svg">
  <path
    d="M8 3.375H13.6C14.37 3.375 15 3.99375 15 4.75V5.5843C14.8867 5.56197 14.7696 5.55026 14.6498 5.55026H13.6V4.75H2.4V11.625H6.55025V13H2.4C1.63 13 1 12.3813 1 11.625L1.007 3.375C1.007 2.61875 1.63 2 2.4 2H6.6L8 3.375Z"
    fill="#80CBC4"
  />
  <path
    d="m8.071 12.959c0.034974 0.05996 0.089935 0.11492 0.14989 0.14989l3.0778 1.7787c0.12491 0.07495 0.2848 0.07495 0.40971 0l3.0778-1.7787c0.12491-0.06995 0.20485-0.20985 0.20485-0.35474v-3.5574c0-0.1449-0.07994-0.28479-0.20485-0.35474l-3.0728-1.7787c-0.12491-0.074946-0.2848-0.074946-0.4097 0l-3.0778 1.7787c-0.12491 0.069949-0.20485 0.20985-0.20485 0.35474v3.5574c0 0.06995 0.019986 0.1449 0.05496 0.20485"
    fill="#009639"
  />
  <path
    d="m10.524 12.33c0 0.21484-0.17987 0.39472-0.39472 0.39472s-0.39472-0.17987-0.39472-0.39472v-2.718c0-0.20985 0.18487-0.38472 0.44968-0.38472 0.20485 0 0.40471 0.084937 0.53961 0.23983l0.11992 0.1449 1.6538 1.9786v-1.9686c0-0.21484 0.17987-0.39472 0.39472-0.39472 0.21484 0 0.39472 0.17987 0.39472 0.39472v2.718c0 0.20985-0.18487 0.38472-0.44968 0.38472-0.20485 0-0.40471-0.08494-0.53961-0.23983l-1.7737-2.1235z"
    fill="#fff"
  />
</svg>
