<!--
  Derived from vsc-material-theme-icons
  Licensed under Apache License 2.0
  http://www.apache.org/licenses/LICENSE-2.0

  Modified under GPLv3
-->
<svg viewBox="0 0 16 16" xmlns="http://www.w3.org/2000/svg">
  <path
    d="M8,.02C3.56.02.02,3.56.02,8s3.54,7.98,7.98,7.98,7.98-3.54,7.98-7.98S12.44.02,8,.02ZM1.75,8.07l6.18,6.18c-3.4,0-6.18-2.78-6.18-6.18ZM1.89,6.61l7.49,7.49c2.78-.62,4.86-3.12,4.86-6.11h-4.09v1.18h2.71c-.35,1.67-1.6,3.05-3.19,3.61L3.14,6.26c.7-2.04,2.63-3.41,4.79-3.4,1.69,0,3.28.82,4.23,2.22l.9-.76c-1.19-1.61-3.07-2.56-5.07-2.57C5.02,1.75,2.52,3.84,1.89,6.61Z"
    fill="#895fb5"
    fill-rule="evenodd"
  />
</svg>
