<!--
  Derived from vsc-material-theme-icons
  Licensed under Apache License 2.0
  http://www.apache.org/licenses/LICENSE-2.0

  Modified under GPLv3
-->
<svg viewBox="0 0 16 16" xmlns="http://www.w3.org/2000/svg">
  <path
    d="M 15.5752 7.3203 L 8.7188 0.4641 C 8.3242 0.0693 7.6839 0.0693 7.2888 0.4641 L 5.865 1.888 L 7.671 3.6941 C 8.0908 3.5523 8.5721 3.6474 8.9066 3.982 C 9.2429 4.3186 9.3372 4.804 9.192 5.2253 L 10.9325 6.9658 C 11.3537 6.8206 11.8394 6.9145 12.1758 7.2514 C 12.6459 7.7213 12.6459 8.4829 12.1758 8.953 C 11.7056 9.4233 10.944 9.4233 10.4736 8.953 C 10.1201 8.5993 10.0327 8.0798 10.2118 7.6443 L 8.5884 6.021 L 8.5883 10.2928 C 8.703 10.3494 8.811 10.4252 8.9066 10.5203 C 9.3766 10.9903 9.3766 11.7517 8.9066 12.2224 C 8.4364 12.6924 7.6745 12.6924 7.2049 12.2224 C 6.7348 11.7517 6.7348 10.9903 7.2049 10.5203 C 7.3212 10.4043 7.4554 10.3166 7.5989 10.2578 V 5.9463 C 7.4554 5.8876 7.3213 5.8004 7.2049 5.6836 C 6.849 5.3279 6.7632 4.8053 6.9457 4.3681 L 5.1654 2.5876 L 0.4643 7.2886 C 0.0692 7.6838 0.0692 8.3242 0.4643 8.719 L 7.3206 15.5752 C 7.7153 15.97 8.3557 15.97 8.7508 15.5752 L 15.5752 8.7509 C 15.97 8.3559 15.97 7.7151 15.5752 7.3203 Z"
    fill="#FC8289"
  />
</svg>
