<svg viewBox="0 0 16 16" xmlns="http://www.w3.org/2000/svg">
  <path
    fill="#e24329"
    d="m 14.765654,6.5971012 -0.01797,-0.05391 -1.904806,-4.9686674 C 12.806938,1.47569 12.735059,1.3948256 12.64521,1.340916 12.55536,1.287006 12.456526,1.260052 12.348707,1.260052 c -0.107819,0 -0.206654,0.044925 -0.287518,0.1078192 -0.08086,0.062895 -0.143759,0.1527438 -0.170714,0.260563 L 10.60563,5.563834 H 5.4033545 L 4.1185092,1.6284338 C 4.0915544,1.5295996 4.0286599,1.4397502 3.9477955,1.3678708 3.8669311,1.3049763 3.7680968,1.2600516 3.6602776,1.2600516 c -0.1078191,0 -0.2066534,0.01797 -0.2965027,0.080864 -0.089849,0.05391 -0.1617288,0.134774 -0.1976685,0.2336082 l -1.9048056,4.9686674 -0.01797,0.05391 C 0.67728022,8.0706301 1.1624665,9.7328425 2.420357,10.685245 h 0.01797 c 0,0.009 2.902133,2.183339 2.902133,2.183339 l 1.4375891,1.087177 0.8715385,0.6559 c 0.2066534,0.161728 0.5031561,0.161728 0.7098096,0 l 0.8715384,-0.6559 1.4375894,-1.087177 2.920103,-2.183339 v 0 c 1.25789,-0.9524025 1.734091,-2.6146149 1.168041,-4.0881438 z"
  />
  <path
    fill="#fc6d26"
    d="m 14.765654,6.5971012 -0.01797,-0.05391 c -0.943418,0.1976685 -1.814957,0.5930055 -2.560706,1.1500713 -0.009,0 -2.2642028,1.716122 -4.1869782,3.1626965 1.4196193,1.078192 2.6595402,2.012625 2.6595402,2.012625 l 2.920103,-2.183339 v 0 c 1.25789,-0.9524029 1.734091,-2.6146153 1.168041,-4.0881442 z"
  />
  <path
    fill="#fca326"
    d="m 5.331475,12.868584 1.4375891,1.087177 0.8715384,0.6559 c 0.2066535,0.161728 0.5031562,0.161728 0.7098096,0 l 0.8715385,-0.6559 1.4375894,-1.087177 c 0,0 -1.2399209,-0.934433 -2.6595402,-2.012625 -1.4286042,1.078192 -2.6685248,2.012625 -2.6685248,2.012625 z"
  />
  <path
    fill="#fc6d26"
    d="M 3.8130215,7.6932629 C 3.0672721,7.1361971 2.1957337,6.7318752 1.2523159,6.5431916 l -0.01797,0.05391 C 0.66829529,8.0706301 1.1534816,9.7328425 2.4113721,10.685245 h 0.01797 c 0,0.009 2.902133,2.183339 2.902133,2.183339 0,0 1.2399206,-0.934433 2.6685248,-2.012625 C 6.0862093,9.4093849 3.8309914,7.7022478 3.8130215,7.6932629 Z"
  />
</svg>
