<svg viewBox="0 0 16 16" xmlns="http://www.w3.org/2000/svg">
  <path
    d="m6.3021 0.89883c0.22708-0.64349 1.0713-0.79234 1.5047-0.26533l2.272 2.7622c0.2811 0.34179 0.69714 0.54432 1.1397 0.55509l3.5786 0.087072c0.68324 0.016614 1.0845 0.77206 0.71687 1.3464l-1.9288 3.0129c-0.11796 0.18417-0.19484 0.39162-0.22532 0.60821-0.03056 0.21651-0.01399 0.43714 0.04851 0.64669l1.0214 3.4265c0.19468 0.65284-0.39987 1.2694-1.0616 1.0974l-3.4641-0.90006c-0.21174-0.05506-0.43285-0.06387-0.64831-0.02587-0.21538 0.03792-0.42016 0.12184-0.60029 0.24602l-2.9473 2.0306c-0.56305 0.38782-1.3326 0.01189-1.373-0.6682l-0.21201-3.5692c-0.026235-0.44175-0.24358-0.85002-0.59532-1.1187l-2.8431-2.1715c-0.54188-0.41389-0.42319-1.261 0.21314-1.5103l3.333-1.3058c0.41216-0.16147 0.73381-0.49408 0.88107-0.9114z"
    fill="#ffaff3"
  />
  <path
    d="m6.9237 0.019302c-0.40376 0.071204-0.77281 0.33927-0.92561 0.77222l-1.1903 3.3726c-0.11606 0.32881-0.36919 0.59061-0.69414 0.71793l-3.3332 1.3059c-0.85531 0.33509-1.0207 1.5115-0.29156 2.0684l2.8431 2.1713c0.13689 0.10445 0.24964 0.2372 0.33053 0.38928 0.080895 0.15199 0.12804 0.31967 0.13822 0.49155l0.2119 3.5691c0.054361 0.91567 1.1224 1.4366 1.8793 0.91526l1.61e-5 -8.1e-5 2.9475-2.0306v-8e-5c0.14189-0.09782 0.30326-0.16396 0.47295-0.19387 0.16978-0.02991 0.344-0.02296 0.51079 0.02046l3.4642 0.8999c0.88947 0.23114 1.715-0.62373 1.4529-1.5029v8.1e-5l-1.0213-3.4264c-0.04923-0.16501-0.06225-0.33867-0.03824-0.50925 0.02401-0.17051 0.08456-0.33382 0.17754-0.47877v-8.08e-5l1.929-3.013-8.1e-5 -1.62e-5c0.49478-0.77272-0.0629-1.8216-0.98124-1.8439l-3.5788-0.086934c-0.34885-0.0084727-0.67628-0.16789-0.89772-0.43716l-2.272-2.7621c-0.29161-0.35454-0.73012-0.4802-1.1339-0.40899m0.10869 0.61643c0.18348-0.032357 0.38385 0.031026 0.5257 0.20346l2.2719 2.7621c0.34069 0.41427 0.84541 0.65987 1.3815 0.67291l3.5788 0.086934c0.44813 0.010882 0.69294 0.47286 0.45226 0.84868l-1.9289 3.013c-0.28935 0.45169-0.36761 1.0076-0.21449 1.5215l1.0214 3.4264c0.12717 0.42671-0.23648 0.80483-0.67046 0.69213l-3.4642-0.89998c-0.51912-0.13493-1.0718-0.037432-1.5134 0.26696l-2.9475 2.0306c-0.3693 0.25442-0.84031 0.023446-0.86674-0.42097l-0.21187-3.5691c-0.031789-0.53545-0.29553-1.0309-0.72182-1.3565l-2.8431-2.1713c-0.35461-0.27083-0.28251-0.78866 0.13484-0.95224l3.3332-1.3059c0.4994-0.19566 0.88964-0.59908 1.0682-1.1049v-1.62e-5l1.1903-3.3726c0.074314-0.21053 0.24091-0.33863 0.42439-0.37099"
    fill="#151515"
  />
  <path
    d="m5.8866 9.104c0.34551-0.060958 0.57622-0.39041 0.51531-0.73587-0.06091-0.34554-0.39037-0.57617-0.73587-0.51524-0.34551 0.060934-0.57622 0.39042-0.51531 0.73587 0.06091 0.34546 0.39038 0.57619 0.73587 0.51524z"
    fill="#151515"
  />
  <path
    d="m11.005 8.2015c0.34546-0.060877 0.57619-0.39038 0.51524-0.73585-0.06088-0.34548-0.39033-0.57616-0.73586-0.51523-0.34546 0.060926-0.57619 0.39039-0.51532 0.73587 0.06096 0.34551 0.39041 0.57616 0.73595 0.5152z"
    fill="#151515"
  />
  <path
    d="m7.9195 8.9624c-0.039615 0.01528-0.075834 0.038241-0.10664 0.067507-0.030722 0.029266-0.055461 0.064354-0.0726 0.10316-0.01722 0.038887-0.026598 0.080685-0.027649 0.12313-0.00105 0.042445 0.00631 0.084727 0.021586 0.12434 0.039938 0.10324 0.099765 0.19767 0.17616 0.27787 0.0764 0.0802 0.16784 0.14447 0.26914 0.18926l8.09e-5 8.09e-5c0.10114 0.044789 0.21012 0.069205 0.3208 0.071873h2.425e-4c0.1106 0.00259 0.22063-0.016574 0.32387-0.056431h8.08e-5c0.10324-0.039857 0.19767-0.099684 0.27779-0.17608h8.09e-5v-8.09e-5c0.080118-0.07632 0.14439-0.16776 0.18918-0.2689 0.044951-0.1013 0.069366-0.21052 0.071954-0.32128 0.0020212-0.085697-0.030075-0.16873-0.089255-0.23082-0.059261-0.062009-0.14067-0.097986-0.22645-0.10001-0.042444-0.00105-0.084646 0.00639-0.12426 0.021667-0.039615 0.015361-0.075834 0.038321-0.10656 0.067669-0.030722 0.029267-0.05538 0.064354-0.072519 0.10324-0.01714 0.038806-0.026518 0.080685-0.027488 0.12313-6.467e-4 0.025628-0.00631 0.050933-0.016735 0.074379v8.08e-5l-8.08e-5 1.617e-4c-0.010429 0.023526-0.025386 0.044789-0.043981 0.062575-0.018676 0.017786-0.040585 0.031692-0.064596 0.040908l-1.617e-4 8.08e-5c-0.024092 0.0093-0.049721 0.013744-0.075511 0.013178-0.025709-6.467e-4 -0.051095-0.00639-0.074622-0.016816h-1.614e-4l-8.08e-5 -8.08e-5c-0.023526-0.010429-0.044708-0.025305-0.062494-0.0439v-8.09e-5c-0.017786-0.018676-0.031692-0.040585-0.040989-0.064677-0.01528-0.039615-0.038241-0.075834-0.067507-0.10656-0.029347-0.030722-0.064354-0.055461-0.10324-0.0726-0.038806-0.01722-0.080685-0.026599-0.12313-0.02765-0.042445-0.00105-0.084646 0.00631-0.12426 0.021667z"
    fill="#151515"
  />
</svg>
