<!--
  Derived from vsc-material-theme-icons
  Licensed under Apache License 2.0
  http://www.apache.org/licenses/LICENSE-2.0

  Modified under GPLv3
-->
<svg viewBox="0 0 16 16" xmlns="http://www.w3.org/2000/svg">
  <path
    d="M13.19,1.6c.71.01,1.72.32,2.28,1.35h0c1.08,1.88.13,4.02-.88,5.77-.25.43-.53.81-.81,1.19-.85,1.15-1.66,2.24-1.26,4.49h-1.9s-3.26-4.38-4.55,0h-1.46c-.3-2.16-2.04-2.24-2.52,0H.18s-1.04-6.09,2.8-7.47c0,0,.35.83.8,1.54.5.8,1.8,1.35,3.31-.93,0,0-2.04,2.25-2.97.71-.28-.46-.38-.62-.47-.79-.1-.19-.2-.38-.52-1-.44-.86.07-1.24,1.2-1.61,1.12-.37,3.61-.98,6.16.86,2.55,1.84,4.59-.82,3.93-2.11-.28-.55-.7-.75-1.01-.78-.33-.04-.62,0-.89.16,0,0-.01,0-.02.01-.11.06-.34.19-.48-.01-.1-.15-.26-.51-.29-.58-.14-.32.58-.81,1.45-.8ZM9.93,7.37s-.36,1.02.64,1.35h0c.76.25,1.35-.35,1.42-.67-1.18-.39-2.06-.68-2.06-.68Z"
    fill="#3965bd"
  />
</svg>
