<!--
  Derived from vsc-material-theme-icons
  Licensed under Apache License 2.0
  http://www.apache.org/licenses/LICENSE-2.0

  Modified under GPLv3
-->
<svg viewBox="0 0 16 16" xmlns="http://www.w3.org/2000/svg">
  <path
    d="M11.57,7.93l-1.62-5.75c-.17-.6-.79-.96-1.39-.8L.95,3.32c-.62.16-.99.8-.83,1.42l2.47,9.07c.17.61.79.97,1.4.81l7.68-1.98c.62-.16,1-.8.82-1.43l-.6-2.11-1.47-.62c-.35.34-.87.57-1.41.57-1.06,0-1.92-.81-1.92-1.81s.86-1.81,1.92-1.81,1.92.81,1.92,1.81c0,.15-.02.29-.05.42l.69.27ZM7.46,4.58s-.24.11-.29.2c0,0,0,0,0,0,0,0,.01.01.02.02.16.14.4.34.68.62-.13.08-.26.16-.37.26-.25-.25-.47-.43-.61-.55,0,0,0,0-.01,0-.06.1-.11.3-.11.3,0,0-.23-.78-.33-.98.14.05.81.16,1.02.13ZM5.12,13.84c-.9.22-1.75-.06-1.9-.64-.14-.54.37-1.14,1.16-1.4-.51-1.55-.89-3.8-.12-6.25-.01,0-.02,0-.03-.01-.08-.05-.35-.02-.35-.02.19-.08.7-.51.79-.63.02.22.26,1,.26,1,0,0-.14-.13-.24-.19-.73,2.35-.36,4.52.14,6,.8-.11,1.54.16,1.64.69.12.65-.44,1.23-1.34,1.45ZM10.59,12.4c-.9.22-1.75-.06-1.9-.64-.12-.43.19-.91.73-1.21-.2-.05-.85-.21-1.04-.22l.33-.12-1.55-1.41c-.14.06-.29.11-.45.15-.11.03-.23.05-.34.06l-.62,1.93h.33c-.25.01-.77.74-.77.74,0,0-.18-.85-.27-1.06l.26.23.59-1.83c-.55-.05-.98-.31-1.09-.71-.16-.58.44-1.23,1.34-1.45,0,0,.01,0,.02,0-.16-.16-.59-.59-.74-.7l.34.06-.4-1.38c-.81.13-1.54-.15-1.69-.69-.16-.58.44-1.23,1.34-1.45.9-.22,1.75.06,1.9.64.14.53-.35,1.12-1.12,1.39l.39,1.34.28-.17c-.17.12-.23.72-.25.94.15-.03.29-.05.43-.05-.02.13-.04.27-.04.4,0,1.11.82,2.05,1.92,2.28l.44.4.14-.29c-.08.2.24.81.33.96.17-.09.36-.17.57-.22,0,0,0,0,.01,0-.09-.38-.19-.73-.31-1.06.15-.05.28-.11.42-.18.13.36.25.75.34,1.17.72-.05,1.35.23,1.44.71.12.65-.44,1.23-1.34,1.45ZM12.44,8.4l-.07.14-1.32-.6-.24.48,1.33.61-.06.15,3.48,1.5.36-.77-3.48-1.5Z"
    fill="#ffcb6b"
  />
</svg>
