<!--
  Derived from vsc-material-theme-icons
  Licensed under Apache License 2.0
  http://www.apache.org/licenses/LICENSE-2.0

  Modified under GPLv3
-->
<svg viewBox="0 0 16 16" xmlns="http://www.w3.org/2000/svg">
  <path
    d="M8,0C3.59,0,0,3.58,0,8c0,0,0,0,0,0,0,4.41,3.58,7.99,7.99,7.99h0c4.41,0,7.99-3.58,7.99-7.99h0C15.99,3.59,12.42,0,8,0c0,0,0,0,0,0ZM8.99,1.92c.72,0,1.3.21,1.75.62.45.41.68.94.68,1.59,0,.7-.25,1.32-.76,1.86-.51.53-1.09.8-1.74.8-.38,0-.7-.09-.96-.28-.25-.19-.38-.42-.38-.7,0-.17.05-.31.14-.44.1-.13.22-.19.35-.19s.19.07.19.22c0,.13.05.23.14.3.1.07.21.11.33.11.33,0,.65-.23.96-.68.31-.46.46-.95.46-1.47,0-.37-.12-.67-.36-.9-.24-.23-.55-.35-.92-.35-.56,0-1.11.25-1.64.75-.53.5-.96,1.16-1.29,1.98-.33.81-.5,1.59-.5,2.33,0,.68.15,1.22.44,1.62.29.4.68.6,1.17.6.82,0,1.6-.58,2.35-1.74l1.18-.17c.15-.02.22.01.22.11,0,.04-.06.22-.17.54-.11.32-.27.85-.46,1.59.65-.38,1.15-.79,1.5-1.25v.72c-.28.33-.83.7-1.63,1.12-.17,1.11-.54,1.97-1.11,2.58-.57.61-1.22.92-1.93.92-.34,0-.61-.08-.81-.24-.19-.16-.29-.38-.29-.66,0-.78.75-1.53,2.26-2.26.16-.56.31-1.07.46-1.52-.26.38-.64.72-1.15,1.01s-.97.44-1.4.44c-.7,0-1.29-.3-1.75-.91-.46-.61-.7-1.38-.7-2.31,0-.98.26-1.91.79-2.79.53-.88,1.22-1.59,2.07-2.11.86-.53,1.69-.8,2.49-.8ZM8.02,11.55c-1.09.54-1.63,1.08-1.63,1.6,0,.28.13.42.4.42.53,0,.94-.68,1.23-2.03Z"
    fill="#80cbc4"
  />
</svg>
