<!--
  Derived from vsc-material-theme-icons
  Licensed under Apache License 2.0
  http://www.apache.org/licenses/LICENSE-2.0

  Modified under GPLv3
-->
<svg viewBox="0 0 16 16" xmlns="http://www.w3.org/2000/svg">
  <path
    d="M1.45.55s.97-.43,1.76-.41h0c.11,0,.22.02.32.04l2.82,5.58L11.23,1.4s1.64.6,1.79,1.17l-1.9,1.75c0,.11-.02.2-.04.3-.03.1-.06.19-.09.28h0c-.03.09-.06.18-.07.27-.07.36-.06.7.09.93.07.12.17.21.31.3.03.01.06.03.09.04.04.02.09.05.14.06l.13.04.16.04c.4.13.8.33,1.15.57.37.22.71.51,1,.85.14.18.27.37.37.58.1.21.19.45.2.69.01.25-.06.51-.17.72-.11.21-.27.37-.44.52-.14.12-.28.21-.43.3h0v.02l-.04.4h0s-.01.03-.01.03c-.11.31-.3.61-.56.84-.26.22-.58.36-.91.4-.31.04-.64.01-.94-.04-.31-.07-.6-.19-.87-.34h-.01s-.04-.04-.04-.07c-.01-.31.06-.6.17-.87-.26-.03-.5-.07-.75-.13-.38-.09-.77-.21-1.14-.36-.37-.15-.74-.34-1.08-.6-.11-.08-.21-.17-.31-.27l-.79,5.9s-1.71.66-3.26-.72l1.7-7.62L1.45.55ZM10.18,5.63c0-.17.01-.34.04-.5l-2.95,2.71-.16,1.17c.14.19.33.36.53.53.28.22.61.42.95.58.33.18.68.33,1.04.48h0c.13.05.25.1.38.15.12.05.25.1.38.15.06-.12.11-.22.19-.34.02-.03.04-.05.05-.08.08-.12.15-.23.25-.35.03-.03.09-.04.13-.03h.03s0,.02,0,.02c.21.07.42.15.63.21.21.06.43.1.63.09.2-.01.4-.07.56-.21.16-.13.3-.33.38-.55,0-.01.01-.01.03-.01h0c.06.04.09.1.12.16,0,0,0,.01,0,.02.03.07.04.13.06.21.03.13.04.27.04.4.06-.04.13-.1.19-.16.13-.13.24-.28.31-.45.07-.15.1-.33.09-.57-.03-.34-.23-.69-.48-.96-.26-.27-.57-.51-.9-.7-.33-.19-.68-.34-1.05-.45l-.14-.03-.17-.04c-.1-.03-.21-.07-.33-.13-.21-.1-.43-.28-.58-.52-.16-.24-.23-.52-.24-.78Z"
    fill="#f78c6c"
  />
</svg>
