<!--
  Derived from vsc-material-theme-icons
  Licensed under Apache License 2.0
  http://www.apache.org/licenses/LICENSE-2.0

  Modified under GPLv3
-->
<svg viewBox="0 0 16 16" xmlns="http://www.w3.org/2000/svg">
  <rect
    x="2.753304"
    y="2.753304"
    width="10.502203"
    height="10.502203"
    fill="#ffcb6b"
  />
  <path
    d="M 1,1 1.4405287,4.506608 2.753304,8.0132159 8.0044054,2.7621146 4.4977974,1.4493393 Z"
    fill="#f78c6c"
  />
  <path
    d="M 1,15.008811 4.506608,14.568283 8.0132159,13.255507 2.7621146,8.0044054 1.4493393,11.511013 Z"
    fill="#f78c6c"
  />
  <path
    d="M 15.008811,15.008811 14.568283,11.502202 13.255507,7.9955949 8.0044054,13.246696 11.511013,14.559472 15.017621,15 Z"
    fill="#f78c6c"
  />
  <path
    d="M 15.008811,1 11.502202,1.4405287 7.9955949,2.753304 13.246696,8.0044054 14.559472,4.4977974 Z"
    fill="#f78c6c"
  />
  <path d="M 1,1 8.0044054,2.753304 4.4977974,1 Z" fill="#ffcb08" />
  <path d="M 1,1 V 4.506608 L 2.753304,8.0132159 Z" fill="#fff200" />
  <path
    d="M 1,15.008811 2.753304,8.0044054 1,11.511013 v 3.506608 z"
    fill="#fff200"
  />
  <path d="M 1,15.008811 H 4.506608 L 8.0132159,13.255507 Z" fill="#f78c6c" />
  <path
    d="m 15.008811,15.008811 -7.0044056,-1.753304 3.5066076,1.753304 h 3.506608 z"
    fill="#f7941e"
  />
  <path
    d="M 15.008811,15.008811 V 11.502202 L 13.255507,7.9955949 15.008811,15 Z"
    fill="#f15922"
  />
  <path
    d="m 15.008811,1 -1.753304,7.0044054 1.753304,-3.506608 z"
    fill="#f15922"
  />
  <path d="M 15.008811,1 H 11.502202 L 7.9955949,2.753304 Z" fill="#ffcb08" />
</svg>
