<!--
  Derived from vsc-material-theme-icons
  Licensed under Apache License 2.0
  http://www.apache.org/licenses/LICENSE-2.0

  Modified under GPLv3
-->
<svg viewBox="0 0 16 16" xmlns="http://www.w3.org/2000/svg">
  <path
    d="m 3.3262039,12.768068 4.2897937,2.131574 c 0.2486837,0.115461 0.5240121,0.150987 0.8615113,0 l 4.2720301,-2.131574 c 0.346381,-0.177632 0.559539,-0.550657 0.541775,-0.932564 L 14.34822,2.0835503 C 14.454799,1.5328935 13.939669,1.0266446 13.371249,0.9999999 H 2.6245606 C 2.0827855,1.0444077 1.5587734,1.4440779 1.647589,2.1101949 l 1.0835504,9.8318871 c 0.071053,0.408553 0.1953943,0.595065 0.586183,0.825986 z M 5.8574486,10.529915 3.4771905,8.1318929 c -0.4796043,-0.364144 -0.3108547,-0.9325638 0,-1.2256553 L 5.8663302,4.4904532 C 6.7100785,3.744402 7.749221,4.8545971 7.0298147,5.6717006 L 5.2090947,7.54571 7.0120515,9.3664298 C 7.7581026,10.290112 6.5679735,11.249321 5.8485671,10.538796 Z M 12.767302,8.1141298 10.378163,10.529915 C 9.5610598,11.258203 8.4686274,10.183533 9.2146784,9.3575483 L 11.017635,7.5368283 9.1969154,5.6983453 C 8.4952721,4.978939 9.4633622,3.7621652 10.360399,4.5170979 l 2.380259,2.3980212 c 0.346381,0.364144 0.328617,0.8970377 0.03553,1.1901291 z"
    fill="#f78c6c"
  />
</svg>
