<svg viewBox="0 0 16 16" xmlns="http://www.w3.org/2000/svg">
  <path
    d="m0.63552 3.8131h11.518c2.98e-4 -1.3463-2.99e-4 -2.4585-0.0035-2.4673l3.8504 3.5888-3.8505 3.5888s0.0012-1.0344 0.0022-2.3178h-11.516zm11.514-2.4673c1.7e-5 -1.57e-5 3.2e-5 0 5.1e-5 4.64e-5z"
    fill="#ff83c4"
  />
  <path
    d="m15.365 9.9439h-11.518c-3.583e-4 -1.3463 3.134e-4 -2.4585 0.0034327-2.4673l-3.8504 3.5888 3.8505 3.5888s-0.00115-1.0344-0.00215-2.3178h11.516zm-11.514-2.4673c-1.65e-5 -1.57e-5 -3.29e-5 0-5.01e-5 4.62e-5z"
    fill="#ff83c4"
  />
</svg>
