<!--
  Derived from vsc-material-theme-icons
  Licensed under Apache License 2.0
  http://www.apache.org/licenses/LICENSE-2.0

  Modified under GPLv3
-->
<svg viewBox="0 0 16 16" xmlns="http://www.w3.org/2000/svg">
  <path
    d="M14.28,2.88c0,.24-.07.46-.2.65.92,1.25,1.47,2.8,1.47,4.47,0,4.17-3.38,7.55-7.55,7.55S.45,12.17.45,8,3.83.45,8,.45c1.67,0,3.22.55,4.47,1.47.18-.12.41-.2.65-.2.64,0,1.16.52,1.16,1.16ZM10.71,14.43c.83-.35,1.58-.85,2.22-1.49.64-.64,1.14-1.39,1.49-2.22.36-.86.55-1.77.55-2.71s-.18-1.85-.55-2.71c-.21-.49-.47-.95-.77-1.37-.16.08-.34.13-.53.13-.64,0-1.16-.52-1.16-1.16,0-.19.05-.37.13-.53-.43-.31-.88-.57-1.37-.77-.86-.36-1.77-.55-2.71-.55s-1.85.18-2.71.55c-.83.35-1.58.85-2.22,1.49s-1.14,1.39-1.49,2.22c-.36.86-.55,1.77-.55,2.71s.18,1.85.55,2.71c.35.83.85,1.58,1.49,2.22s1.39,1.14,2.22,1.49c.86.36,1.77.55,2.71.55s1.85-.18,2.71-.55Z"
    fill="#89ddff"
  />
  <path
    d="M14.08,3.53l-.31-.21-.15.22.16.21.3-.22ZM12.47,1.92l-.22.3.21.16.22-.15-.21-.31ZM12.93,12.93l-.27-.27h0l.27.27ZM10.71,14.43l.15.35h0l-.15-.35ZM14.42,10.71l-.35-.15h0l.35.15ZM14.42,5.29l-.35.15h0s.35-.15.35-.15ZM13.65,3.91l.31-.22-.19-.26-.29.15.17.34ZM12.09,2.35l.34.17.15-.29-.26-.19-.22.31ZM10.71,1.58l.15-.35h0l-.15.35ZM5.29,1.58l.15.35h0l-.15-.35ZM3.07,3.07l-.27-.27h0l.27.27ZM1.58,5.29l.35.15h0l-.35-.15ZM1.58,10.71l.35-.15h0s-.35.15-.35.15ZM3.07,12.93l-.27.27h0l.27-.27ZM5.29,14.43l-.15.35h0l.15-.35ZM14.4,3.74c.16-.24.26-.54.26-.86h-.75c0,.16-.05.31-.13.44l.63.42ZM15.93,8c0-1.76-.57-3.38-1.54-4.7l-.61.45c.88,1.19,1.39,2.66,1.39,4.25h.75ZM8,15.93c4.38,0,7.93-3.55,7.93-7.93h-.75c0,3.96-3.21,7.17-7.17,7.17v.75ZM.07,8c0,4.38,3.55,7.93,7.93,7.93v-.75c-3.96,0-7.17-3.21-7.17-7.17H.07ZM8,.07C3.62.07.07,3.62.07,8h.75C.83,4.04,4.04.83,8,.83V.07ZM12.7,1.61C11.38.64,9.76.07,8,.07v.75c1.59,0,3.06.52,4.25,1.39l.45-.61ZM13.12,1.34c-.32,0-.61.1-.86.26l.42.63c.12-.08.27-.13.44-.13v-.76ZM14.66,2.88c0-.85-.69-1.54-1.54-1.54v.76c.43,0,.78.35.78.78h.75ZM12.66,12.66c-.61.61-1.31,1.08-2.1,1.41l.29.7c.88-.37,1.66-.9,2.34-1.58l-.53-.53ZM14.08,10.57c-.33.79-.81,1.49-1.41,2.1l.53.53c.67-.67,1.21-1.46,1.58-2.34l-.7-.29ZM14.6,8c0,.89-.17,1.75-.52,2.57l.7.29c.38-.91.58-1.87.58-2.86h-.76ZM14.08,5.43c.34.81.52,1.68.52,2.57h.76c0-.99-.19-1.95-.58-2.86l-.7.29ZM13.35,4.14c.29.4.54.84.73,1.3l.7-.29c-.22-.51-.49-1-.82-1.45l-.61.44ZM13.12,4.42c.25,0,.49-.06.71-.17l-.35-.67c-.11.06-.23.09-.36.09v.76ZM11.58,2.88c0,.85.69,1.54,1.54,1.54v-.76c-.43,0-.78-.35-.78-.78h-.75ZM11.75,2.18c-.11.21-.17.45-.17.71h.75c0-.13.03-.25.09-.36l-.67-.35ZM10.57,1.92c.46.2.9.44,1.3.73l.44-.61c-.45-.33-.93-.6-1.45-.82l-.29.7ZM8,1.4c.89,0,1.75.17,2.57.52l.29-.7c-.91-.38-1.87-.58-2.86-.58v.75ZM5.43,1.92c.81-.34,1.68-.52,2.57-.52v-.75c-.99,0-1.95.19-2.86.58l.29.7ZM3.34,3.34c.61-.61,1.31-1.08,2.1-1.41l-.29-.7c-.88.37-1.66.9-2.34,1.58l.53.53ZM1.92,5.43c.33-.79.81-1.49,1.41-2.1l-.53-.53c-.67.67-1.21,1.46-1.58,2.34l.7.29ZM1.4,8c0-.89.17-1.75.52-2.57l-.7-.29c-.38.91-.58,1.87-.58,2.86h.75ZM1.92,10.57c-.34-.81-.52-1.68-.52-2.57h-.75c0,.99.19,1.95.58,2.86l.7-.29ZM3.34,12.66c-.61-.61-1.08-1.31-1.41-2.1l-.7.29c.37.88.9,1.66,1.58,2.34l.53-.53ZM5.43,14.08c-.79-.33-1.49-.81-2.1-1.41l-.53.53c.67.67,1.46,1.2,2.34,1.58l.29-.7ZM8,14.6c-.89,0-1.75-.17-2.57-.52l-.29.7c.91.38,1.87.58,2.86.58v-.76ZM10.57,14.08c-.81.34-1.68.52-2.57.52v.76c.99,0,1.95-.19,2.86-.58l-.29-.7Z"
    fill="#89ddff"
  />
  <path
    d="M8,11.48c1.92,0,3.48-1.56,3.48-3.48s-1.56-3.48-3.48-3.48-3.48,1.56-3.48,3.48,1.56,3.48,3.48,3.48Z"
    fill="#3965bd"
  />
</svg>
