<!--
  Derived from vsc-material-theme-icons
  Licensed under Apache License 2.0
  http://www.apache.org/licenses/LICENSE-2.0

  Modified under GPLv3
-->
<svg viewBox="0 0 16 16" xmlns="http://www.w3.org/2000/svg">
  <path
    d="M11.11,3.55c-1.2.36-2.5.86-3.21,1.95-.51.79-.14,1.81.46,2.44.41.41.25,1.07-.17,1.4-.44.39.07.32.33.13.63-.39,1.33-1.1,1.06-1.9-.21-.61-1-1.12-.72-1.83.54-.98,1.68-1.41,2.53-2.08.33-.22-.13-.08-.26-.11ZM9.01.09c.04.17.08.35.11.52.66,2.61-2.62,3.2-3.4,5.05-.32.94.42,1.81,1.02,2.45.41.42.83.84,1.31,1.18-.22-1.11-1.45-1.82-1.34-3.01.22-1.14,1.42-1.65,2.11-2.47,1.14-1.27,1.4-2.6.19-3.73Z"
    fill="#fc8289"
  />
  <path
    d="M5.74,12.2c-.34.09-.95.32-.79.78.32.5,1,.57,1.53.68,1.36.19,2.77-.01,4.01-.6-.43-.13-.82-.39-1.22-.54-1.14.23-2.37.33-3.51.03.06-.14.58-.45.14-.35-.06,0-.12,0-.18.01ZM5.37,10.54c-.34.14-.95.3-.89.78.21.48.85.52,1.29.62,1.69.25,3.43.03,5.06-.48-.36-.13-.74-.26-1.01-.55-1.44.29-2.96.43-4.41.12-.2-.11.21-.31.23-.41.41-.35-.14-.05-.28-.08ZM3.32,14.04c.52-.35,1.17-.44,1.79-.35-.29-.21-.56-.45-.94-.4-.72.07-1.49.26-2.01.79-.26.31.11.66.42.69,2.66.5,5.43.57,8.11.11.7-.18,1.53-.26,2.04-.82.24-.4-.32-.69-.64-.72-.13.03.24.27.23.45-.33.36-.91.35-1.36.46-3.39.44-6.74.26-7.62-.21ZM10.58,9.85c.26-.14.53-.25.75-.46-.84-.05-1.66.23-2.49.26-1.36.08-2.74.24-4.09-.02-.21-.05.17-.16.22-.2.48-.21,1.02-.26,1.48-.52-.19-.04-.38-.13-.58-.1-.87.05-1.77.26-2.49.75-.26.24.06.56.33.59,1.85.51,6.04.25,6.88-.29ZM11.97,8.66c-.44,0-.86.21-1.04.63-.21.28.35-.13.53-.12.59-.24,1.3.4,1.02,1-.29.73-1.07,1.09-1.66,1.51-.49.4-.33.42.19.23.95-.28,2.08-.72,2.39-1.75.22-.85-.6-1.57-1.43-1.49ZM3.74,15.14c.68.66,1.7.62,2.58.72,2.01.09,4.07.1,6-.5.55-.18,1.25-.61,1.1-1.3.05-.41-.16.13-.25.2-1.19,1.18-6.51,1.34-9.44.88Z"
    fill="#80cbc4"
  />
</svg>
