<!--
  Derived from vsc-material-theme-icons
  Licensed under Apache License 2.0
  http://www.apache.org/licenses/LICENSE-2.0

  Modified under GPLv3
-->
<svg viewBox="0 0 16 16" xmlns="http://www.w3.org/2000/svg">
  <defs>
    <mask
      id="mask"
      x=".19"
      y="-.72"
      width="16.12"
      height="23.6"
      maskUnits="userSpaceOnUse"
    >
      <g id="mask0">
        <rect
          id="Rectangle-path"
          x=".19"
          y="-.72"
          width="16.12"
          height="16.2"
          fill="#fff"
        />
      </g>
    </mask>
  </defs>
  <g id="jenkins">
    <g id="jenkins_2">
      <g id="Group">
        <g id="Clipped">
          <g mask="url(#mask)">
            <g id="Group_2">
              <g id="Group_3">
                <path
                  id="Shape"
                  d="M11.24,11.29l-1.19.18-1.61.18-1.04.03-1.01-.03-.78-.24-.69-.75-.54-1.53-.12-.33-.72-.24-.42-.69-.3-.99.33-.87.78-.27.63.3.3.66.36-.06.12-.15-.12-.69-.03-.87.18-1.2v-.69s.54-.87.54-.87l.96-.69,1.67-.72,1.85.27,1.61,1.17.75,1.2.48.87.12,2.16-.36,1.86-.66,1.65-.63.87"
                  fill="#f0d6b7"
                />
                <path
                  id="Shape_2"
                  d="M10.23,16.48l-4.27.18v.72l.36,2.52-.18.21-2.99-1.02-.21-.36-.3-3.39-.69-2.04-.15-.48,2.39-1.65.75-.3.66.81.57.51.66.21.3.09.36,1.56.27.33.69-.24-.48.93,2.6,1.23-.33.18"
                  fill="#335061"
                />
                <path
                  id="Shape_3"
                  d="M3.15,6.01l.78-.27.63.3.3.66.36-.06.09-.36-.18-.69.18-1.65-.15-.9.54-.63,1.16-.93-.33-.45-1.64.81-.69.54-.39.84-.6.81-.18.96.12,1.02"
                  fill="#6d6b6d"
                />
                <path
                  id="Shape_4"
                  d="M4.37,3.19s.45-1.11,2.24-1.65c1.79-.54.09-.39.09-.39l-1.94.75-.75.75-.33.6.69-.06"
                  fill="#dcd9d8"
                />
                <path
                  id="Shape_5"
                  d="M3.48,5.8s-.63-2.1,1.76-2.4l-.09-.36-1.64.39-.48,1.56.12,1.02.33-.21"
                  fill="#dcd9d8"
                />
              </g>
              <g id="Group_4">
                <path
                  id="Shape_6"
                  d="M4.43,8.59l.39-.38s.18.02.21.23c.03.21.12,2.1,1.4,3.12.12.09-.96-.15-.96-.15l-.96-1.5"
                  fill="#f7e4cd"
                />
                <path
                  id="Shape_7"
                  d="M9.93,8.02s.07-.91.31-.84c.24.07.24.31.24.31,0,0-.59.38-.56.52"
                  fill="#f7e4cd"
                />
                <path
                  id="Shape_8"
                  d="M12.4,4.69s-.49.1-.54.54c-.05.44.54.09.63.06"
                  fill="#f7e4cd"
                />
                <path
                  id="Shape_9"
                  d="M8.79,4.72s-.66.09-.66.51.75.39.96.21"
                  fill="#f7e4cd"
                />
                <g id="Group_5">
                  <path
                    id="Shape_10"
                    d="M4.73,6.67s-1.13-.69-1.25-.03c-.12.66-.39,1.14.18,1.83l-.39-.12-.36-.93-.12-.9.69-.72.78.06.45.36.03.45"
                    fill="#f7e4cd"
                  />
                  <path
                    id="Shape_11"
                    d="M5.27,4.78s.51-2.64,3.07-3.15c2.11-.42,3.22.09,3.64.57,0,0-1.88-2.25-3.67-1.56-1.79.69-3.1,1.95-3.07,2.76.05,1.38.03,1.38.03,1.38"
                    fill="#f7e4cd"
                  />
                  <path
                    id="Shape_12"
                    d="M12.2,2.5s-.87-.03-.9.75c0,0,0,.12.06.24,0,0,.69-.78,1.1-.36"
                    fill="#f7e4cd"
                  />
                  <path
                    id="Shape_13"
                    d="M8.41,3.58s-.15-1.2-1.16-.5c-.66.45-.6,1.08-.48,1.2.12.12.09.36.18.2.09-.17.06-.71.39-.86.33-.15.87-.32,1.08-.04"
                    fill="#f7e4cd"
                  />
                </g>
              </g>
              <g id="Group_6">
                <path
                  id="Shape_14"
                  d="M5.6,11.68l-2.81,1.26s1.16,4.65.57,6.09l-.42-.15-.03-1.77-.78-3.36-.33-.93,2.93-1.98.87.84"
                  fill="#49728b"
                  fill-rule="evenodd"
                />
                <path
                  id="Shape_15"
                  d="M5.89,14.25l.4.49v1.8h-.48s-.06-1.26-.06-1.41.06-.69.06-.69"
                  fill="#49728b"
                  fill-rule="evenodd"
                />
              </g>
              <g id="Group_7">
                <path
                  id="Shape_16"
                  d="M10.79,16.51l1.67-.09s.69-1.74.69-1.83.6-2.52.6-2.52l-1.34-1.41-.27-.24-.72.72v2.79l-.63,2.58"
                  fill="#335061"
                />
                <path
                  id="Shape_17"
                  d="M11.57,11.05l2.09,1.56.06-.72-1.58-1.47-.57.63"
                  fill="#49728b"
                />
              </g>
              <path
                id="Shape_18"
                d="M10.72,16.27l-.66-1.68-.69-.99s.15-.42.36-.42h.69l.66.24-.06,1.11-.3,1.74"
                fill="#fff"
              />
              <path
                id="Shape_19"
                d="M7.2,11.74l-.83-.09-.78-.24v.27l.38.42,1.19.54"
                fill="#fff"
              />
              <path
                id="Shape_20"
                d="M5.87,11.83s.93.39,1.22.3l.03.36-.84-.18-.51-.36.09-.12"
                fill="#dcd9d8"
                fill-rule="evenodd"
              />
              <path
                id="Shape_21"
                d="M11.92,13.28c-.51-.01-.96-.08-1.36-.19.03-.17-.02-.33.02-.45.11-.08.3-.08.47-.1-.15-.07-.35-.1-.52-.06,0-.11-.06-.19-.09-.28.28-.1.96-.77,1.34-.55.18.11.26.71.27,1,.01.24-.02.49-.12.62"
                fill="#d33833"
                fill-rule="evenodd"
              />
              <path
                id="Shape_22"
                d="M11.92,13.28c-.51-.01-.96-.08-1.36-.19.03-.17-.02-.33.02-.45.11-.08.3-.08.47-.1-.15-.07-.35-.1-.52-.06,0-.11-.06-.19-.09-.28.28-.1.96-.77,1.34-.55.18.11.26.71.27,1,.01.24-.02.49-.12.62h0Z"
                fill="none"
                stroke="#d33833"
                stroke-width=".52"
              />
              <path
                id="Shape_23"
                d="M9.49,12.45s0,.08,0,.12c-.16.1-.41.1-.59.19.26.01.46.07.63.16,0,.1,0,.19-.01.29-.29.2-.55.5-.9.68-.16.09-.73.32-.9.28-.1-.02-.11-.14-.14-.26-.08-.24-.27-.63-.29-1-.02-.46-.07-1.24.43-1.15.4.08.87.26,1.18.43.19.1.3.23.59.26"
                fill="#d33833"
                fill-rule="evenodd"
              />
              <path
                id="Shape_24"
                d="M9.49,12.45s0,.08,0,.12c-.16.1-.41.1-.59.19.26.01.46.07.63.16,0,.1,0,.19-.01.29-.29.2-.55.5-.9.68-.16.09-.73.32-.9.28-.1-.02-.11-.14-.14-.26-.08-.24-.27-.63-.29-1-.02-.46-.07-1.24.43-1.15.4.08.87.26,1.18.43.19.1.3.23.59.26h0Z"
                fill="none"
                stroke="#d33833"
                stroke-width=".52"
              />
              <path
                id="Shape_25"
                d="M9.78,13.01c-.04-.25-.1-.33-.08-.55.67-.45.8.77.08.55Z"
                fill="#d33833"
                fill-rule="evenodd"
              />
              <path
                id="Shape_26"
                d="M9.78,13.01c-.04-.25-.1-.33-.08-.55.67-.45.8.77.08.55Z"
                fill="none"
                stroke="#d33833"
                stroke-width=".52"
              />
              <g id="Group_8">
                <path
                  id="Shape_27"
                  d="M10.75,13.21s-.21-.3-.06-.39c.15-.09.3,0,.39-.15.09-.15,0-.24.03-.42.03-.18.18-.21.33-.24.15-.03.57-.09.63.06l-.18-.54-.36-.12-1.13.66-.06.33v.66"
                  fill="#ef3d3a"
                />
                <path
                  id="Shape_28"
                  d="M7.62,14.2c-.04-.47-.07-.94-.12-1.4-.06-.7.17-.58.77-.58.09,0,.57.11.6.18.16.33-.27.26.19.51.39.21,1.07-.13.92-.6-.09-.11-.46-.03-.59-.1-.23-.12-.47-.24-.7-.36-.3-.15-.98-.38-1.3-.16-.8.55.05,1.92.34,2.49"
                  fill="#ef3d3a"
                />
                <g id="Group_9">
                  <path
                    id="Shape_29"
                    d="M8.41,3.57c-.81-.19-1.22.34-1.46.89-.22-.05-.13-.35-.08-.51.15-.4.73-.94,1.21-.87.21.03.49.22.33.48"
                    fill="#231f20"
                  />
                  <path
                    id="Shape_30"
                    d="M12.37,4.51s.03,0,.04,0c.18.38.34.79.57,1.13-.16.36-1.18.69-1.16.03.22-.1.6-.02.8-.14-.11-.31-.28-.58-.25-1.02"
                    fill="#231f20"
                  />
                  <path
                    id="Shape_31"
                    d="M8.82,4.52c.17.32.23.66.48.9.11.11.33.24.22.55-.03.07-.21.23-.32.26-.39.11-1.29.02-.99-.46.32.02.75.21.99-.02-.18-.3-.51-.88-.39-1.22"
                    fill="#231f20"
                  />
                  <path
                    id="Shape_32"
                    d="M12.22,7.78c-.58.38-1.23.79-2.19.69-.2-.18-.28-.58-.08-.84.1.18.04.51.33.56.54.09,1.17-.33,1.56-.48.24-.41-.02-.56-.24-.82-.45-.54-1.05-1.21-1.02-2.02.18-.13.2.2.22.26.23.55.82,1.25,1.25,1.72.11.12.28.23.3.3.06.22-.14.49-.12.64"
                    fill="#231f20"
                  />
                  <path
                    id="Shape_33"
                    d="M4.53,7.38c-.18-.1-.23-.57-.44-.58-.31-.02-.25.6-.25.96-.21-.19-.25-.79-.09-1.09-.18-.09-.26.1-.35.16.13-.92,1.34-.43,1.14.55"
                    fill="#231f20"
                  />
                  <path
                    id="Shape_34"
                    d="M12.59,8.16c-.27.52-.66,1.09-1.45,1.11-.02-.17-.03-.42,0-.52.61-.06.99-.37,1.45-.58"
                    fill="#231f20"
                  />
                  <path
                    id="Shape_35"
                    d="M8.78,8.5c.51.27,1.44.3,2.13.28.04.15.04.34.04.53-.89.04-1.94-.18-2.17-.8"
                    fill="#231f20"
                  />
                  <path
                    id="Shape_36"
                    d="M8.68,9c.35.89,1.56.78,2.58.76-.04.12-.14.25-.26.3-.33.13-1.23.23-1.68,0-.29-.15-.47-.5-.63-.7-.08-.1-.45-.35,0-.35"
                    fill="#231f20"
                  />
                </g>
                <path
                  id="Shape_37"
                  d="M12.18,13.9c-.41.71-.81,1.44-1.3,2.07.21-.61.29-1.62.32-2.39.43-.2.8.05.97.33"
                  fill="#82aaff"
                />
                <path
                  id="Shape_38"
                  d="M10.7,11.64c-.21.14-.39.31-.6.46-.45.02-.7-.03-1.03-.29,0-.02.04-.01.04-.04.48.22,1.1-.09,1.59-.13"
                  fill="#f0d6b7"
                />
                <path
                  id="Shape_39"
                  d="M8.16,14.96c.13-.58.65-.88,1.13-1.2.49.62.79,1.42,1.11,2.2-.77-.23-1.56-.61-2.24-1"
                  fill="#82aaff"
                />
                <path
                  id="Shape_40"
                  d="M12.8,15.94c.72-.36,2.08-.97,2.53,0,.17.36.36.97.45,1.34.12.52-.13,1.62-.67,1.8-.47.16-1.02.15-1.59.03-.07-.06-.14-.15-.19-.26-.41-.02-.79.02-1.11.19.03.29-.15.35-.33.4,0,0-.02,0-.03,0-.07.3,0,.64.09.97.07.3.14.59.09.84-.07.33-.45.41-.76.47-.03,0-.06.01-.09.02,0,.19.01.35.03.51,0,.01,0,.02,0,.04-.08.28-.41.44-.73.48-1.05.13-2.65.18-3.66-.18-.22-.55-.41-1.19-.59-1.83-.05-.17-.1-.34-.15-.51-.81.09-1.49-.26-2.13-.58-.14-.07-.28-.14-.41-.2-.07-.03-.15-.06-.23-.09-.21-.08-.42-.15-.49-.3-.06-.14-.07-.36-.07-.61,0-.11,0-.23,0-.35,0-.03,0-.06,0-.09-.06-.9-.11-1.77-.35-2.7-.06-.25-.16-.49-.25-.72-.07-.17-.13-.33-.19-.5-.04-.12-.09-.25-.14-.39-.11-.29-.22-.59-.26-.85-.06-.41.21-.54.49-.68.1-.05.21-.1.3-.17.37-.27.69-.46,1.05-.66.14-.08.29-.17.46-.27.04-.02.1-.05.16-.09.22-.12.53-.29.57-.39.08-.17-.06-.39-.18-.57-.04-.07-.08-.13-.1-.17-.13-.29-.2-.54-.22-.82-.48-.08-.84-.36-1.06-.68-.36-.53-.61-1.52-.3-2.26,0-.02.03-.05.06-.09.04-.06.09-.12.1-.18.02-.11,0-.23-.03-.36-.02-.09-.04-.17-.04-.25-.03-.97.16-1.81.82-2.1.22-.89.93-1.28,1.68-1.7.14-.08.28-.16.43-.24.3-.18.62-.29.96-.42.04-.02.08-.03.12-.05,1.36-.5,3.45-.41,4.58.45.48.36,1.25,1.13,1.52,1.69.72,1.47.67,3.93.17,5.71v.02c-.07.24-.17.58-.3.86-.03.06-.07.13-.12.22-.12.2-.26.44-.24.57.03.14.39.45.64.65.08.07.15.13.18.16.06.06.13.12.21.19.24.21.52.45.55.68.03.26-.08.59-.17.87-.02.07-.05.14-.07.21-.31,1.04-.61,2-.96,2.93ZM5.49,11.91s-.12-.13-.23-.25c-.19-.22-.43-.51-.48-.49-.99.39-1.92,1.07-2.75,1.72.79,1.71,1.11,3.8,1.17,5.81.22.1.43.22.64.33.67.36,1.36.73,2.29.78l-.02-.15h0c-.13-.95-.26-1.81-.33-2.72-.19-.08-.42-.06-.64-.04-.15.01-.29.02-.4,0,0-.19.13-.22.26-.24.1-.02.2-.04.22-.14.01-.08-.03-.12-.08-.17-.06-.07-.13-.14-.08-.3.11.04.19.1.27.16.09.07.19.14.32.17.15-.32.1-.8.06-1.21-.02-.21-.04-.4-.03-.54,0-.08.04-.42.21-.36.1.03.07.4.04.76-.02.2-.03.4-.03.54,0,.09,0,.19,0,.28,0,.25,0,.47.1.64,1.19-.16,2.4-.27,3.68-.3-.07-.03-.15-.06-.23-.1h0s0,0,0,0h0c-.23-.09-.48-.2-.76-.35-.05-.03-.13-.07-.23-.11h0c-.26-.12-.62-.29-.66-.43-.06-.18.04-.31.14-.45.07-.09.13-.18.15-.28-.54.3-.69-.2-.82-.64-.01-.05-.03-.09-.04-.13-.13-.41-.2-.72-.23-.96l-.16-.08c-.47-.22-.95-.45-1.35-.74h0ZM8.9,12.2c-.31-.17-.78-.36-1.18-.43-.49-.09-.45.65-.43,1.12v.03c.01.28.13.57.22.81h0c.03.07.05.14.07.2,0,.02.02.05.02.07h0c.02.09.05.17.12.18.17.04.74-.19.9-.28.2-.11.38-.26.55-.41h0c.12-.1.23-.2.35-.28v-.29c-.16-.09-.36-.15-.62-.16.08-.04.18-.06.27-.08h0c.11-.03.23-.05.31-.11v-.12c-.21-.02-.33-.09-.45-.17-.04-.03-.09-.06-.13-.08h0ZM9.74,12.81c-.03-.12-.05-.2-.03-.35.67-.45.8.77.08.55-.01-.08-.03-.14-.04-.2ZM5.93,11.65h0,0,0ZM6.65,11.81c-.27-.02-.55-.04-.72-.16-.26.26.72.62,1.04.64,0-.08.02-.16.04-.23.02-.08.04-.15.03-.21-.12-.02-.26-.03-.4-.04ZM9.11,11.78s-.01.02-.02.02c0,0-.02,0-.02.02.33.26.58.32,1.03.29.09-.06.17-.13.25-.2h0c.11-.09.22-.18.35-.26-.16.01-.33.05-.5.1-.37.09-.76.18-1.09.04h0ZM11.76,11.67c.18.11.26.71.27,1h0c.01.24-.02.49-.12.62-.51-.01-.96-.08-1.36-.19.01-.08,0-.15,0-.23h0c0-.08,0-.16.01-.22.09-.06.23-.08.37-.09.03,0,.07,0,.1,0-.15-.07-.35-.1-.52-.06,0-.08-.03-.14-.05-.2-.01-.03-.02-.05-.03-.08.09-.03.21-.12.35-.21.32-.22.72-.49.99-.34ZM12.16,13.37c.32-.62.18-2.53-.65-2.12h0c.05-.08.15-.16.25-.23.11-.09.23-.18.31-.29.2.16.36.32.52.49.12.12.23.24.38.37.04.04.1.08.16.13h0c.18.14.39.3.42.5.02.12-.04.38-.08.56h0s-.02.08-.02.11c-.15.73-.48,1.69-.79,2.45-.02.05-.04.1-.06.15-.09.24-.19.49-.32.54-.19.08-.4.08-.61.08-.24,0-.47,0-.66.12.21-.37.43-.73.65-1.09h0c.27-.44.54-.88.79-1.34-.03-.08-.09-.13-.14-.19h0c-.06-.07-.13-.13-.15-.23ZM3.6,3.87c-.38.42-.32,1.2-.27,1.78v.06c.72-.45,1.66.04,1.66.8.27,0,.19-.28.11-.52-.02-.06-.04-.12-.05-.17-.09-.41-.03-.84.04-1.26.08-.48.15-.95-.02-1.38-.61.05-1.11.3-1.48.7h0ZM4.02,3.05c.37-.81,1.51-1.46,2.4-1.71h0s.09.02.13.06c0,.11-.08.13-.16.16-.03,0-.05.02-.08.03-.07.09-.17.16-.26.23-.09.07-.19.14-.28.23-.07.07-.13.19-.21.31-.13.22-.27.46-.43.5-.07.02-.15,0-.23,0-.05,0-.1-.01-.14-.01-.15,0-.28.06-.41.1h0c-.11.04-.22.08-.35.1ZM11.07,1.58c-.93-.53-2.5-.92-3.48-.43-.8.4-1.87,1.06-2.24,1.89.22.52.11,1.02,0,1.52-.06.27-.12.55-.13.84,0,.23.05.44.11.66.05.2.11.4.11.63-.12.19-.48.22-.72.2-.08-.42-.23-.89-.66-.94-.61-.07-1.05.44-1.08.97-.03.62.48,1.65,1.2,1.58.13-.01.22-.08.3-.15.09-.08.19-.15.35-.15.1.2-.02.32-.13.43-.07.07-.15.14-.16.23-.01.06.03.3.06.41.13.54.42,1.25.71,1.66.36.52,1.08.6,1.85.65.14-.3.64-.27.97-.2-.4-.16-.76-.54-1.07-.88-.35-.39-.7-.8-.72-1.31l.06.09c.63.88,1.18,1.65,2.35,2.04.91.31,1.97-.14,2.67-.63.23-.16.39-.4.54-.64h0c.04-.06.08-.13.13-.19.77-1.12,1.13-2.71,1.05-4.25,0-.08,0-.17-.01-.25-.02-.55-.05-1.08-.23-1.45-.22-.45-.97-.85-1.41-.44-.08-.44.37-.7.89-.55-.05-.07-.1-.13-.15-.2h0c-.33-.44-.69-.91-1.15-1.17h0Z"
                  fill="#231f20"
                  fill-rule="evenodd"
                />
                <path
                  id="Shape_41"
                  d="M7.97,8.73c.04-.05.26-.13.56.01,0,0-.36.06-.33.66l-.15-.03s-.15-.54-.08-.64"
                  fill="#f7e4cd"
                />
                <path
                  id="Shape_42"
                  d="M10.58,13.88c0,.09-.07.17-.16.17s-.16-.07-.16-.17.07-.17.16-.17.16.07.16.17Z"
                  fill="#1d1919"
                />
                <path
                  id="Shape_43"
                  d="M10.75,14.65c0,.09-.07.17-.16.17s-.16-.07-.16-.17.07-.17.16-.17.16.07.16.17Z"
                  fill="#1d1919"
                />
              </g>
            </g>
          </g>
        </g>
      </g>
    </g>
  </g>
</svg>
