<!--
  Derived from vsc-material-theme-icons
  Licensed under Apache License 2.0
  http://www.apache.org/licenses/LICENSE-2.0

  Modified under GPLv3
-->
<svg viewBox="0 0 16 16" xmlns="http://www.w3.org/2000/svg">
  <path
    d="M10.83,3.98l-1.07,2.17c.35.33.6.76.7,1.25h.81c.09-.46.32-.88.65-1.2l-1.08-2.22Z"
    fill="#fc8289"
  />
  <path
    d="M8.85,5.63l1.98-4.01,1.97,4.03c.08-.03.16-.05.23-.07L14.9.05H6.74l1.87,5.53c.08.02.16.04.24.06Z"
    fill="#fc8289"
  />
  <path
    d="M8.17,9.18c.72,0,1.31-.59,1.31-1.31,0-.27-.08-.51-.21-.72-.04-.07-.09-.13-.15-.19h0c-.05-.06-.11-.11-.18-.16h0s-.04-.03-.06-.04c0,0,0,0-.01,0-.02-.01-.04-.03-.06-.04h0s-.05-.03-.07-.04h0s-.04-.02-.06-.03c0,0-.01,0-.02,0-.02,0-.04-.02-.05-.02,0,0-.01,0-.02,0-.02,0-.04-.02-.06-.02h0s-.05-.01-.07-.02c0,0-.01,0-.02,0-.02,0-.04,0-.06-.01-.01,0-.02,0-.03,0-.02,0-.04,0-.05,0h-.2s-.04,0-.06,0h-.02s-.04,0-.06.01h-.02s-.05.01-.07.02c-.57.14-1,.66-1,1.27.01.71.6,1.31,1.32,1.31Z"
    fill="#fc8289"
  />
  <path
    d="M13.67,6.55h-.01s-.04,0-.06,0h-.07s-.05,0-.08,0h-.03s-.04,0-.06,0c0,0-.02,0-.02,0l-.08.02h0s-.05.01-.07.02c0,0-.02,0-.02,0-.02,0-.04.01-.06.02,0,0-.01,0-.02,0-.03.01-.05.02-.07.03-.03.01-.05.02-.07.03,0,0-.01,0-.02,0-.02.01-.04.02-.06.04,0,0,0,0,0,0-.05.03-.09.06-.13.09h0c-.07.06-.12.11-.18.18-.06.06-.1.14-.15.21-.11.19-.17.42-.17.65,0,.72.59,1.31,1.31,1.31s1.31-.59,1.31-1.31c0-.63-.46-1.17-1.05-1.29-.03-.01-.07-.02-.11-.02Z"
    fill="#fc8289"
  />
  <path
    d="M2.75,9.18c.72,0,1.31-.59,1.31-1.31s-.59-1.31-1.31-1.31-1.31.59-1.31,1.31.59,1.31,1.31,1.31Z"
    fill="#fc8289"
  />
  <path
    d="M13.54,10.19c-1.08,0-1.99-.74-2.25-1.74h-.87c-.26,1-1.17,1.74-2.25,1.74-.12,0-.24-.01-.36-.03-.3.46-.66.89-1.08,1.29-.74.7-1.58,1.22-2.49,1.55l-.21.08-.2-.1c-1.09-.56-1.65-1.7-1.45-2.8-.12-.02-.24-.05-.36-.09-.02.04-.04.08-.06.12-.33.69-.68,1.39-.8,2.15-.13.81-.19,2.29.95,3.09.5.34,1.02.52,1.61.52,1.13,0,2.34-.6,3.63-1.24,1.01-.5,2.04-1.02,3.12-1.29.41-.1.82-.16,1.22-.22.73-.1,1.43-.21,1.99-.54.6-.35,1.01-.93,1.13-1.6.07-.41.03-.82-.1-1.2-.34.2-.74.32-1.17.32Z"
    fill="#fc8289"
  />
</svg>
