<!--
  Derived from vsc-material-theme-icons
  Licensed under Apache License 2.0
  http://www.apache.org/licenses/LICENSE-2.0

  Modified under GPLv3
-->
<svg viewBox="0 0 16 16" xmlns="http://www.w3.org/2000/svg">
  <rect fill="#000000" id="rect93" width="10" height="7" x="4" y="7" />
  <path
    d="M12.28,11.55c.77,1.02-1.29,1.77-2.11.29l-1.12.65.07.11c.42.71,1.08,1.13,1.97,1.25,1.96.24,3.23-1.01,2.54-2.78-.49-1.01-1.78-1.21-2.54-1.7-.44-.26-.35-.8,0-1.02.27-.17.91-.19,1.24.48l1.07-.7c-.85-1.52-2.85-1.22-3.45-.53-.82.96-.58,2.03.13,2.72.56.54,1.44.71,2.19,1.22ZM7.2,13.71c.62-.25.99-.77,1.07-1.54,0-.08.02-5.05.02-5.05h-1.37v4.92c-.04.32-.23.55-.51.59-.48.08-.79-.06-1.12-.68l-1.11.67c.48,1.12,1.91,1.52,3.01,1.08h0ZM2.22,1h11.55c.68,0,1.22.55,1.22,1.22v11.55c0,.68-.55,1.22-1.22,1.22H2.22c-.68,0-1.22-.55-1.22-1.22V2.22c0-.68.55-1.22,1.22-1.22Z"
    fill="#ffcb6b"
  />
</svg>
