<!--
  Derived from vsc-material-theme-icons
  Licensed under Apache License 2.0
  http://www.apache.org/licenses/LICENSE-2.0

  Modified under GPLv3
-->
<svg viewBox="0 0 16 16" xmlns="http://www.w3.org/2000/svg">
  <path
    d="M4.67,2.01h-1.33c-.73,0-1.33.6-1.33,1.33v2.66c0,.73-.6,1.33-1.33,1.33H.02v1.33h.66c.73,0,1.33.6,1.33,1.33v2.66c0,.73.62,1.15,1.33,1.33h1.33v-1.33h-1.33v-3.33c0-.73-.6-1.33-1.33-1.33.73,0,1.33-.6,1.33-1.33v-3.33h1.33v-1.33ZM13.99,3.34c0-.73-.6-1.33-1.33-1.33h-1.33v1.33h1.33v3.33c0,.73.6,1.33,1.33,1.33-.73,0-1.33.6-1.33,1.33v3.33h-1.33v1.33h1.33c.73,0,1.33-.6,1.33-1.33v-2.66c0-.73.6-1.33,1.33-1.33h.66v-1.33h-.66c-.73,0-1.33-.6-1.33-1.33v-2.66Z"
    fill="#89ddff"
  />
  <path
    d="M5.34,7.33c.37,0,.66.3.66.67s-.3.66-.66.66-.67-.3-.67-.66.3-.67.67-.67ZM8,7.33c.37,0,.66.3.66.67s-.3.66-.66.66-.67-.3-.67-.66.3-.67.67-.67ZM11.33,8c0-.37-.3-.67-.67-.67s-.66.3-.66.67.3.66.66.66.67-.3.67-.66Z"
    fill="#ffcb6b"
  />
</svg>
