<!--
  Derived from vsc-material-theme-icons
  Licensed under Apache License 2.0
  http://www.apache.org/licenses/LICENSE-2.0

  Modified under GPLv3
-->
<svg viewBox="0 0 16 16" xmlns="http://www.w3.org/2000/svg">
  <path
    d="M12.53,14.8c1.88,0,3.4-1.52,3.4-3.4s-1.52-3.4-3.4-3.4-3.4,1.52-3.4,3.4,1.52,3.4,3.4,3.4Z"
    fill="#9883ec"
  />
  <path
    d="M3.47,14.8c1.88,0,3.4-1.52,3.4-3.4s-1.52-3.4-3.4-3.4S.07,9.52.07,11.4s1.52,3.4,3.4,3.4Z"
    fill="#fc8289"
  />
  <path
    d="M8,8c1.88,0,3.4-1.52,3.4-3.4s-1.52-3.4-3.4-3.4-3.4,1.52-3.4,3.4,1.52,3.4,3.4,3.4Z"
    fill="#c3e88d"
  />
</svg>
