<!--
  Derived from vsc-material-theme-icons
  Licensed under Apache License 2.0
  http://www.apache.org/licenses/LICENSE-2.0

  Modified under GPLv3
-->
<svg viewBox="0 0 16 16" xmlns="http://www.w3.org/2000/svg">
  <path
    d="M8.21,14.22c-1.39,0-2.73-.47-3.82-1.33-1.09-.86-1.86-2.06-2.18-3.41.5.66,1.34,1.23,2.4,1.62,1.07.4,2.32.61,3.6.61,1.28,0,2.53-.21,3.6-.61,1.07-.4,1.9-.97,2.4-1.63-.32,1.35-1.09,2.55-2.18,3.42-1.09.86-2.44,1.33-3.83,1.33h0ZM2.21,6.62c.32-1.35,1.09-2.55,2.18-3.42s2.44-1.33,3.83-1.33c1.39,0,2.73.47,3.82,1.33,1.09.86,1.86,2.06,2.18,3.41-.5-.66-1.34-1.23-2.4-1.62-1.07-.4-2.32-.61-3.6-.61-1.28,0-2.53.21-3.6.61-1.07.4-1.9.97-2.4,1.63h0Z"
    fill="#f78c6c"
  />
  <path
    d="M3.15.07c.71,0,1.29.58,1.29,1.29s-.58,1.29-1.29,1.29-1.29-.58-1.29-1.29S2.43.07,3.15.07Z"
    fill="#8e95b4"
  />
  <path
    d="M2.28,12.9c.52,0,.95.43.95.95s-.43.95-.95.95-.95-.43-.95-.95.43-.95.95-.95Z"
    fill="#6b7394"
  />
  <path
    d="M13.46,13.5c.67,0,1.21.54,1.21,1.21s-.54,1.21-1.21,1.21-1.21-.54-1.21-1.21.54-1.21,1.21-1.21Z"
    fill="#6b7394"
  />
</svg>
