<!--
  Derived from vsc-material-theme-icons
  Licensed under Apache License 2.0
  http://www.apache.org/licenses/LICENSE-2.0

  Modified under GPLv3
-->
<svg viewBox="0 0 16 16" xmlns="http://www.w3.org/2000/svg">
  <path
    d="M11.96.08h3.3c.36,0,.66.3.66.66v2.64c0,.17-.07.34-.19.47l-1.32,1.32c-.12.12-.29.19-.47.19h-1.98v1.98c0,.17-.07.34-.19.47l-1.34,1.34c.14.49.22.98.22,1.49,0,2.91-2.37,5.28-5.28,5.28S.08,13.55.08,10.64C.08,7.41,3.01,4.83,6.32,5.45L11.49.27c.12-.12.29-.19.47-.19ZM3.38,11.3c0,.73.59,1.32,1.32,1.32s1.32-.59,1.32-1.32-.59-1.32-1.32-1.32-1.32.59-1.32,1.32Z"
    fill="#9883ec"
  />
</svg>
