<!--
  Derived from vsc-material-theme-icons
  Licensed under Apache License 2.0
  http://www.apache.org/licenses/LICENSE-2.0

  Modified under GPLv3
-->
<svg viewBox="0 0 16 16" xmlns="http://www.w3.org/2000/svg">
  <path
    d="M2.92,5.96c0-.21-.03-.3-.14-.46-.08-.1-.71-.78-1.42-1.49L.08,2.72v6.46l1.23-1.24c1.55-1.57,1.61-1.64,1.61-1.98ZM10.93,9.72c-.02-.07-1.54-1.66-3.41-3.56-1.85-1.88-3.37-3.41-3.39-3.41-.02,0-.04,1.39-.04,3.09,0,3.44,0,3.48.32,4.16.17.36.27.48,1.53,1.76.74.76,1.41,1.42,1.48,1.46.17.09.55.09.74,0,.21-.1,2.7-2.64,2.76-2.82.07-.18.07-.49,0-.67ZM13.89,7.47c1.13-1.15,2.03-2.1,2.03-2.15,0-.06-.04-.09-.13-.08-.19,0-7.19.83-7.25.85-.02,0,.71.79,1.64,1.73l1.69,1.71,2.03-2.06ZM3.37,13.23s.04-1.43.04-3.18-.01-3.18-.04-3.18c-.05,0-2.66,2.68-2.77,2.83-.09.14-.1.5-.02.66.06.12,2.74,2.87,2.79,2.87Z"
    fill="#c792ea"
  />
</svg>
