<!--
  Derived from vsc-material-theme-icons
  Licensed under Apache License 2.0
  http://www.apache.org/licenses/LICENSE-2.0

  Modified under GPLv3
-->
<svg viewBox="0 0 16 16" xmlns="http://www.w3.org/2000/svg">
  <path
    d="M5.62,6.18c-.96,0-1.88.79-1.85,2.04,0,1.29.85,2.04,1.98,2.04.47,0,1-.17,1.4-.44l-.39-.69c-.29.17-.56.25-.85.25-.53,0-.93-.25-1.04-.84h2.38c.01-.09.04-.27.04-.48.01-1.05-.56-1.87-1.67-1.87ZM9.33,7.81c.06.02.11.04.17.06.51.17,1.08.47,1.08,1.18s-.56,1.26-1.61,1.26c-.5,0-1.1-.22-1.5-.55l.51-.75c.35.27.68.4,1.01.4.35,0,.51-.13.51-.32,0-.24-.34-.37-.72-.51l-.09-.03c-.47-.18-1.04-.51-1.04-1.14,0-.71.6-1.22,1.5-1.22.6,0,1.05.26,1.38.51l-.53.69c-.29-.21-.55-.32-.84-.32s-.45.12-.45.31c0,.22.27.32.6.44ZM12.5,7.81h0c.06.02.12.04.18.07.51.17,1.08.47,1.08,1.18s-.56,1.26-1.61,1.26c-.5,0-1.1-.22-1.5-.55l.53-.75c.35.27.68.4,1.01.4.35,0,.51-.13.51-.32,0-.24-.34-.37-.72-.51l-.08-.03c-.47-.18-1.04-.51-1.04-1.14,0-.71.6-1.22,1.5-1.22.6,0,1.05.26,1.38.51l-.53.69c-.29-.21-.55-.32-.84-.32s-.45.12-.45.31c0,.22.26.32.58.44ZM5.64,7.05c-.37,0-.68.25-.76.77h1.42c0-.44-.18-.77-.66-.77Z"
    fill="#69a7d3"
    fill-rule="evenodd"
  />
  <path
    d="M2.33,4.62h-.7c-.71,0-1.02.27-1.02,1.12,0,.56.08.87.08,1.35,0,.27-.17.56-.68.58v.68c.51.01.68.3.68.57,0,.48-.08.77-.08,1.32,0,.84.32,1.12,1.01,1.12h.51v-.6h-.16c-.33,0-.43-.13-.43-.56s.04-.79.04-1.27c0-.6-.2-.83-.59-.92v-.04c.39-.09.59-.32.59-.92,0-.47-.04-.84-.04-1.27s.09-.55.43-.55h.36v-.61Z"
    fill="#89ddff"
  />
  <path
    d="M15.31,7.08c0-.51.08-.81.08-1.35,0-.84-.32-1.12-1.01-1.12h-.51v.6h.16c.35,0,.43.12.43.55,0,.4-.04.81-.04,1.27,0,.6.2.83.59.92v.04c-.39.09-.59.32-.59.92,0,.47.04.84.04,1.27s-.09.56-.43.56h0s-.16.01-.16.01v.62h.51c.7,0,1.01-.27,1.01-1.12,0-.56-.08-.84-.08-1.35,0-.27.17-.56.68-.58v-.68c-.51-.01-.68-.3-.68-.57Z"
    fill="#89ddff"
  />
  <path
    d="M3.5,9.02v-4.4h-1.17v4.34c0,.79.28,1.31,1.08,1.31.25,0,.45-.04.59-.09l-.13-.84c-.08.01-.37-.06-.37-.31Z"
    fill="#69a7d3"
  />
</svg>
