<!--
  Derived from vsc-material-theme-icons
  Licensed under Apache License 2.0
  http://www.apache.org/licenses/LICENSE-2.0

  Modified under GPLv3
-->
<svg viewBox="0 0 16 16" xmlns="http://www.w3.org/2000/svg">
  <path
    d="M7.99,15.98C3.55,15.98.02,12.45.02,8.01S3.54.02,7.99.02s7.99,3.53,7.99,7.99-3.53,7.97-7.99,7.97ZM7.99,14.3c3.54,0,6.33-2.78,6.33-6.3S11.54,1.7,7.99,1.7,1.68,4.48,1.68,8.01s2.78,6.3,6.32,6.3Z"
    fill="#89ddff"
  />
  <path
    d="M11.99,6.93h-2.05c-.16-.78-.85-1.27-1.76-1.27-1.23,0-1.98.88-1.98,2.32s.75,2.35,1.98,2.35c.96,0,1.6-.44,1.76-1.21h2.05c-.21,1.77-1.67,2.86-3.82,2.86-2.57,0-4.16-1.54-4.16-4.01s1.6-3.97,4.15-3.97c2.11,0,3.63,1.15,3.83,2.92Z"
    fill="#ffcb6b"
  />
</svg>
