<!--
  Derived from vsc-material-theme-icons
  Licensed under Apache License 2.0
  http://www.apache.org/licenses/LICENSE-2.0

  Modified under GPLv3
-->
<svg viewBox="0 0 16 16" xmlns="http://www.w3.org/2000/svg">
  <path
    d="M7.51.26C7.77,0,8.23,0,8.49.26c.23.24,5.72,5.81,5.72,9.46,0,3.89-3.16,6.21-6.21,6.21S1.79,13.61,1.79,9.72C1.79,6.07,7.28.5,7.51.26ZM8,12.48c.38,0,.69-.31.69-.69s-.31-.69-.69-.69c-.01,0-1.38-.04-1.38-1.38,0-.38-.31-.69-.69-.69s-.69.31-.69.69c0,2.01,1.69,2.76,2.76,2.76Z"
    fill="#89ddff"
  />
</svg>
