<!--
  Derived from vsc-material-theme-icons
  Licensed under Apache License 2.0
  http://www.apache.org/licenses/LICENSE-2.0

  Modified under GPLv3
-->
<svg viewBox="0 0 16 16" xmlns="http://www.w3.org/2000/svg">
  <path
    d="M8,15.45c4.12,0,7.45-3.34,7.45-7.45S12.12.55,8,.55.55,3.88.55,8s3.34,7.45,7.45,7.45Z"
    fill="none"
    stroke="#42a5f5"
  />
  <path
    d="M8.09,3.41c-2.58,0-4.68,2.06-4.68,4.61,0,2.54,2.1,4.61,4.68,4.61,1.24,0,2.43-.48,3.31-1.35.88-.86,1.37-2.04,1.37-3.26,0-1.22-.49-2.39-1.37-3.26-.88-.86-2.07-1.35-3.31-1.35ZM9.43,4.79c.45,0,.87.17,1.19.48.32.31.49.73.49,1.17,0,.91-.75,1.65-1.68,1.65-.93,0-1.68-.74-1.68-1.65,0-.91.75-1.66,1.68-1.66Z"
    fill="#3965bd"
  />
  <path
    d="M13.36,4.25c.93,0,1.68-.74,1.68-1.66s-.75-1.66-1.68-1.66-1.68.74-1.68,1.66.75,1.66,1.68,1.66Z"
    fill="#3965bd"
  />
</svg>
