<!--
  Derived from vsc-material-theme-icons
  Licensed under Apache License 2.0
  http://www.apache.org/licenses/LICENSE-2.0

  Modified under GPLv3
-->
<svg viewBox="0 0 16 16" xmlns="http://www.w3.org/2000/svg">
  <path
    d="M8.01,3.69h2.23c-.82,1.35-1.73,2.83-2.64,4.31h-2.24c.91-1.48,1.82-2.97,2.64-4.31Z"
    fill="#888"
  />
  <path
    d="M2.72,3.69h2.24c-.44.72-.88,1.44-1.32,2.16s-.88,1.44-1.32,2.15c.44.72.88,1.44,1.32,2.16.44.72.88,1.44,1.32,2.16h-2.23c-.44-.72-.88-1.44-1.32-2.16-.44-.72-.88-1.44-1.32-2.16.44-.72.88-1.44,1.32-2.16s.88-1.44,1.32-2.16Z"
    fill="#7accee"
  />
  <path
    d="M4.03,5.21H1.79c-.29.47-.57.93-.86,1.4-.29.47-.57.93-.85,1.39h2.23c.28-.46.57-.93.86-1.4.29-.47.57-.93.86-1.4Z"
    fill="#7accee"
  />
  <path
    d="M1.01,6.48h2.23c.29-.47.57-.93.86-1.4.29-.47.57-.93.85-1.4h-2.23c-.28.46-.57.93-.86,1.4s-.57.93-.86,1.4Z"
    fill="#7accee"
  />
  <path
    d="M2.72,3.68h0c.91,1.49,1.82,2.97,2.64,4.32h2.24l-2.64-4.31h-2.24Z"
    fill="#80cbc4"
  />
  <path
    d="M10.24,3.69h-2.23c.44.72.88,1.44,1.32,2.16.44.72.88,1.44,1.32,2.15-.44.72-.88,1.44-1.32,2.16l-1.32,2.16h2.24c.44-.72.88-1.44,1.32-2.16s.88-1.44,1.32-2.16c-.44-.72-.88-1.44-1.32-2.16-.44-.72-.88-1.44-1.32-2.16Z"
    fill="#f4bf75"
  />
  <path
    d="M6.67,6.48h-2.23c-.29-.47-.57-.93-.86-1.4-.29-.47-.57-.93-.86-1.4h2.23c.28.46.57.93.86,1.4s.57.93.86,1.4Z"
    fill="#80cbc4"
  />
  <path
    d="M9.32,5.2h-2.24l-.86,1.4c-.29.47-.57.93-.86,1.4h2.24c.29-.47.57-.93.86-1.4s.57-.93.86-1.4Z"
    fill="#9dbd58"
  />
  <path
    d="M6.3,6.48h2.24l.86-1.4.86-1.4h-2.23c-.29.47-.57.93-.86,1.4l-.86,1.4Z"
    fill="#9dbd58"
  />
  <path
    d="M11.96,6.48h-2.23c-.29-.47-.57-.93-.86-1.4l-.86-1.4h2.23c.29.47.57.93.86,1.4.29.47.57.93.86,1.4Z"
    fill="#f4bf75"
  />
  <path
    d="M13.27,3.69h-2.24c.44.72.88,1.44,1.32,2.16.44.72.88,1.44,1.32,2.15-.44.72-.88,1.44-1.32,2.16-.44.72-.88,1.44-1.32,2.16h2.24c.44-.72.88-1.44,1.32-2.16s.88-1.44,1.32-2.16l-1.32-2.16c-.44-.72-.88-1.44-1.32-2.16Z"
    fill="#d14748"
  />
  <path
    d="M14.99,6.48h-2.24c-.29-.47-.57-.93-.86-1.4-.28-.47-.57-.93-.86-1.4h2.24c.29.47.57.93.86,1.4.29.47.57.93.86,1.4Z"
    fill="#d14748"
  />
  <path
    d="M11.97,10.8h2.24c.29-.47.57-.93.86-1.4.29-.47.57-.93.86-1.4h-2.24c-.29.47-.57.93-.86,1.4l-.86,1.4Z"
    fill="#d14748"
  />
  <path
    d="M8.94,10.8h2.24l.86-1.4c.29-.47.57-.93.86-1.4h-2.24c-.29.47-.57.93-.86,1.4l-.86,1.4Z"
    fill="#f4bf75"
  />
  <path
    d="M1.01,9.52h2.24c.28.47.57.93.86,1.4.29.47.57.93.86,1.4h-2.24c-.29-.46-.57-.93-.86-1.4-.29-.47-.57-.93-.85-1.4Z"
    fill="#7accee"
  />
</svg>
