<!--
  Derived from vsc-material-theme-icons
  Licensed under Apache License 2.0
  http://www.apache.org/licenses/LICENSE-2.0

  Modified under GPLv3
-->
<svg viewBox="0 0 16 16" xmlns="http://www.w3.org/2000/svg">
  <path d="M3.88,7.34L.08,8.67l2.94,1.97,2.34-2.2-1.48-1.1h0Z" fill="#89ddff" />
  <path
    d="M10.89,1.14c-.34.04.1-.38-.39,0-.47.36-1.82,2.5-2.54,3.23-.64.64-.9.3-1.56.84-.67.54-1.7,1.61-1.7,1.61l1.66,1.18,2.64-3.48c.62-.82.62-.93.96-1.79.17-.42.46-.75.72-1.14.32-.5.43-.47.21-.44Z"
    fill="#69a7d3"
  />
  <path
    d="M10.88.74c-.77,0-1.53,3.38-2.85,5.98-1.34,2.65-3.99,4.36-3.99,4.36.45.2.85.12,1.34.58.33.4,1.28,2.37,1.85,3.6,0,0,.47-.25,1.06-.68.59-.43,1.31-1.03,1.81-1.73.66-.93,1.18-1.5,1.62-1.86.44-.35.8-.48,1.14-.51,1.24-.11,3.07,2.11,3.07,2.11,0,0-3.83-11.85-5.04-11.86h0Z"
    fill="#fc8289"
  />
</svg>
