<!--
  Derived from vsc-material-theme-icons
  Licensed under Apache License 2.0
  http://www.apache.org/licenses/LICENSE-2.0

  Modified under GPLv3
-->
<svg viewBox="0 0 16 16" xmlns="http://www.w3.org/2000/svg">
  <path
    d="M1.46,5.31h13.2c.36,0,.66.3.66.66v9.24c0,.36-.3.66-.66.66H1.46c-.36,0-.66-.3-.66-.66V5.97c0-.36.3-.66.66-.66ZM10.7,10.59l-4.62-2.64v5.28l4.62-2.64Z"
    fill="#fc8289"
  />
  <path
    d="M.29,3.52c-.07-.36.16-.71.51-.78L13.54.14c.36-.07.71.16.78.51.07.36-.16.71-.51.78L1.07,4.03c-.36.07-.71-.16-.78-.51Z"
    fill="#ffcb6b"
  />
</svg>
