<!--
  Derived from vsc-material-theme-icons
  Licensed under Apache License 2.0
  http://www.apache.org/licenses/LICENSE-2.0

  Modified under GPLv3
-->
<svg viewBox="0 0 16 16" xmlns="http://www.w3.org/2000/svg">
  <path
    fill="#F4BF75"
    d="M1.74,7.76c.04-.11.02-.23-.05-.32-.07-.09-.18-.14-.29-.14-.35.03-.6.79.15,1.04.62.21,1.07-.27,1.78-1.01,1.59-1.65,3.51-1.81,4.68-.14.48-.91,2.39-2.43,5.29.72,1.07,1.16,2.02.07,1.5-.53-.11-.11-.29-.11-.4-.01-.12.1-.15.27-.06.4h-.04c-1.09-1,1.19-1.92,1.64-.24.47,2.53-2.13,2.94-4.21,2.02-4.02-2.07-4.07-1.51-7.96.19-1.07.46-2.31.32-3.25-.37-.7-.69-.66-2.33.25-2.66.93-.38,1.72.44.98,1.06Z"
  />
</svg>
