<!--
  Derived from vsc-material-theme-icons
  Licensed under Apache License 2.0
  http://www.apache.org/licenses/LICENSE-2.0

  Modified under GPLv3
-->
<svg viewBox="0 0 16 16" xmlns="http://www.w3.org/2000/svg">
  <path
    d="M7.48.02s-.14.01-.24.02C4.97.25,2.85,1.47,1.5,3.35.76,4.38.27,5.58.09,6.84c-.06.44-.07.57-.07,1.16s0,.72.07,1.16c.43,3,2.57,5.51,5.46,6.45.52.17,1.06.28,1.68.35.24.03,1.29.03,1.53,0,1.07-.12,1.98-.38,2.88-.84.14-.07.16-.09.15-.1-.01,0-.6-.79-1.3-1.74l-1.28-1.72-1.6-2.37c-.88-1.3-1.6-2.36-1.61-2.36,0,0-.01,1.05-.02,2.33,0,2.25,0,2.34-.03,2.39-.04.08-.07.11-.14.14-.05.02-.09.03-.33.03h-.27l-.07-.05s-.08-.07-.1-.11l-.03-.07v-3.13s0-3.13,0-3.13l.05-.06s.08-.08.12-.1c.06-.03.09-.03.36-.03.32,0,.37.01.45.1.02.03.89,1.33,1.93,2.9,1.04,1.57,2.45,3.72,3.15,4.77l1.26,1.91.06-.04c.57-.37,1.17-.89,1.64-1.44,1-1.15,1.66-2.57,1.88-4.08.06-.44.07-.57.07-1.16s0-.72-.07-1.16c-.43-3-2.57-5.51-5.46-6.45-.51-.17-1.05-.28-1.66-.35-.15-.02-1.18-.03-1.31-.02ZM10.74,4.85s.07.04.1.08c.03.03.05.07.06.11.01.04.02.91.01,2.86v2.8s-.5-.76-.5-.76l-.5-.76v-2.04c0-1.32,0-2.06.02-2.09.01-.04.03-.08.06-.11.03-.03.06-.06.1-.08.06-.03.09-.04.33-.04.23,0,.27,0,.32.03Z"
    fill="#82aaff"
  />
</svg>
