<!--
  Derived from vsc-material-theme-icons
  Licensed under Apache License 2.0
  http://www.apache.org/licenses/LICENSE-2.0

  Modified under GPLv3
-->
<svg viewBox="0 0 16 16" xmlns="http://www.w3.org/2000/svg">
  <path
    d="M1.12,11.97c.07.12.18.23.3.3l6.16,3.56h0c.25.15.57.15.82,0l6.16-3.56c.25-.14.41-.42.41-.71v-7.12h0c0-.29-.16-.57-.41-.71L8.41.17h0c-.25-.15-.57-.15-.82,0h0S1.43,3.73,1.43,3.73c-.25.14-.41.42-.41.71h0v7.12c0,.14.04.29.11.41"
    fill="#009639"
  />
  <path
    d="M6.03,10.71c0,.43-.36.79-.79.79s-.79-.36-.79-.79h0s0-5.44,0-5.44c0-.42.37-.77.9-.77.41,0,.81.17,1.08.48l.24.29,3.31,3.96v-3.94h0c0-.43.36-.79.79-.79s.79.36.79.79h0v5.44c0,.42-.37.77-.9.77-.41,0-.81-.17-1.08-.48l-3.55-4.25v3.94h0Z"
    fill="#fff"
  />
</svg>
