<!--
  Derived from vsc-material-theme-icons
  Licensed under Apache License 2.0
  http://www.apache.org/licenses/LICENSE-2.0

  Modified under GPLv3
-->
<svg viewBox="0 0 16 16" xmlns="http://www.w3.org/2000/svg">
  <path
    d="M9.69,5.27l3.86,7.06.9-1.61-1.04-1.89h2.06s.44-.81.44-.81l-.45-.82h-2.94s-1.06-1.91-1.06-1.91h-1.78Z"
    fill="#89ddff"
  />
  <path
    d="M9.4,10.91H1.68s.87,1.63.87,1.63h2.07s-1.03,1.89-1.03,1.89l.44.81h.9s1.46-2.69,1.46-2.69h2.1s.89-1.63.89-1.63Z"
    fill="#89ddff"
  />
  <path
    d="M4.91,7.82L8.76.76l-1.77-.02-1.03,1.9-1.04-1.89h-.88s-.45.82-.45.82l1.48,2.68-1.05,1.93.89,1.63Z"
    fill="#89ddff"
  />
  <path
    d="M11.08,8.18l-3.86,7.06,1.77.02,1.03-1.9,1.04,1.89h.88s.45-.82.45-.82l-1.48-2.68,1.05-1.93-.89-1.63Z"
    fill="#82aaff"
  />
  <path
    d="M6.61,5.07h7.71s-.87-1.63-.87-1.63h-2.07s1.03-1.89,1.03-1.89l-.44-.81h-.9s-1.46,2.69-1.46,2.69h-2.1s-.89,1.63-.89,1.63Z"
    fill="#82aaff"
  />
  <path
    d="M6.31,10.73L2.45,3.67l-.9,1.61,1.04,1.89H.52s-.44.81-.44.81l.45.82h2.94s1.06,1.91,1.06,1.91h1.78Z"
    fill="#82aaff"
  />
</svg>
