<!--
  Derived from vsc-material-theme-icons
  Licensed under Apache License 2.0
  http://www.apache.org/licenses/LICENSE-2.0

  Modified under GPLv3
-->
<svg viewBox="0 0 16 16" xmlns="http://www.w3.org/2000/svg">
  <defs>
    <clipPath id="clippath">
      <path
        d="M8,1c-.12,0-.23.03-.34.09l-5.54,3.16c-.2.12-.34.35-.34.59v6.33c0,.24.12.45.34.57l5.55,3.17c.2.12.46.12.67,0l5.55-3.17c.2-.12.34-.34.34-.57v-6.33c0-.24-.12-.46-.34-.59l-5.55-3.16c-.11-.06-.22-.09-.34-.09Z"
        fill="none"
      />
    </clipPath>
  </defs>
  <g clip-path="url(#clippath)">
    <g>
      <path
        d="M8,1c-.12,0-.23.03-.34.09l-5.54,3.16c-.2.12-.34.35-.34.59v6.33c0,.24.12.45.34.57l5.55,3.17c.2.12.46.12.67,0l5.55-3.17c.2-.12.34-.34.34-.57v-6.33c0-.24-.12-.46-.34-.59l-5.55-3.16c-.11-.06-.22-.09-.34-.09Z"
        fill="#a9efa3"
      />
      <path
        d="M7.43-.18l7.26,12.57-6.24,3.6L1.2,3.42,7.43-.18Z"
        fill="#2ecc71"
      />
    </g>
  </g>
</svg>
