<svg viewBox="0 0 16 16" xmlns="http://www.w3.org/2000/svg">
  <path
    d="M 8.9599995,13.33334 H 14.88 c 0.188907,0 0.369735,-0.06637 0.53332,-0.159999 0.163625,-0.09362 0.332264,-0.211171 0.42668,-0.373359 0.09441,-0.162151 0.160075,-0.346152 0.16,-0.533359 -7.5e-5,-0.187244 -0.06543,-0.37117 -0.16,-0.533245 L 11.839999,4.8533398 C 11.745581,4.6911886 11.630227,4.5736042 11.46668,4.4799814 11.303095,4.3863963 11.068867,4.3199805 10.88,4.3199805 c -0.188869,0 -0.369774,0.066416 -0.533322,0.1600009 -0.163585,0.093623 -0.278942,0.2112072 -0.3733565,0.3733584 l -1.013322,1.76 L 6.9333209,3.1998675 C 6.8388292,3.0377552 6.7236231,2.8669243 6.5600001,2.7733392 6.3963771,2.6797163 6.2155859,2.6666603 6.0266786,2.6666603 c -0.1889049,0 -0.3697362,0.013057 -0.5333575,0.1066789 -0.1635855,0.093585 -0.3321508,0.264416 -0.4266424,0.4265283 L 0.10666818,11.733378 C 0.01210556,11.895453 8.2791396e-5,12.079379 3.485247e-7,12.266623 -7.5769604e-5,12.45383 0.01224549,12.637793 0.10666818,12.799982 c 0.094419,0.16215 0.26306432,0.279736 0.4266634,0.373359 0.16360419,0.09362 0.34441595,0.159999 0.53333662,0.159999 h 3.7333321 c 1.4792828,0 2.5560001,-0.663585 3.3066788,-1.92 L 9.9200003,8.2666597 10.88,6.6133398 13.813321,11.62666 H 9.9200003 Z m -4.21332,-1.70668 H 2.1333207 L 6.0266786,4.9066599 7.9999999,8.2666597 6.692868,10.545302 C 6.1943772,11.36051 5.6260002,11.62666 4.7466795,11.62666 Z"
    fill="#00dc82"
  />
</svg>
