<!--
  Derived from vsc-material-theme-icons
  Licensed under Apache License 2.0
  http://www.apache.org/licenses/LICENSE-2.0

  Modified under GPLv3
-->
<svg viewBox="0 0 16 16" xmlns="http://www.w3.org/2000/svg">
  <rect fill="#ffffff" width="15" height="11" x="0" y="3.9549999" />
  <path
    d="M 0,6.985 V 3.055 C 0,1.945 0.90225564,1.045 2.0150376,1.045 H 13.984962 C 15.097744,1.045 16,1.945 16,3.055 v 11.9 H 9.3634085 c 0,0 -0.4411027,-1.15 -0.5213032,-1.72 -0.02005,-0.15 0.02005,-0.29 -0.02005,-0.43 -0.0401,-0.12 -0.1203009,-0.13 -0.1804513,-0.23 -0.1503759,-0.26 -0.3107769,-0.59 -0.320802,-0.9 -0.010025,-0.28 -0.1203007,-0.54 -0.1303258,-0.81 0,-0.13 0,-0.27 0,-0.41 0,-0.07 0,-0.22 -0.0401,-0.31 l 0.030075,-0.09 c 0,0 0.3007519,-0.02 0.3909775,-0.02 0.160401,0 0.3107769,0 0.4711779,0.02 0.320802,0.02 0.6215539,0.01 0.9323308,-0.04 0.7017546,-0.11 1.0325816,-0.4 1.1929826,-0.51 0.651629,-0.46 0.942356,-1.23 0.942356,-1.23 0.110275,-0.24 0.110275,-0.66 0.330827,-0.85 0.270676,-0.22 0.721804,-0.21 1.032581,-0.35 0.180451,-0.08 0.310777,-0.12 0.501253,-0.08 0.140351,0.03 0.380953,0.19 0.441103,-0.03 -0.05013,-0.03 -0.06015,-0.08 -0.09023,-0.11 0.260651,-0.02 0,-0.61 -0.100251,-0.73 -0.160401,-0.18 -0.411028,-0.26 -0.691729,-0.34 -0.330827,-0.09 -0.621554,-0.19 -0.932331,-0.13 -0.541354,0.11 -0.501253,-0.2 -0.822055,-0.2 -0.380953,0 -1.062657,0.02 -1.182958,0.39 -0.05012,0.17 -0.110275,0.18 -0.210526,0.31 -0.0802,0.11 0.02005,0.22 -0.03008,0.34 -0.0401,0.13 -0.100251,0.6 -0.170426,0.77 -0.110271,0.28 -0.2405968,0.62 -0.4811983,0.62 C 9.3734336,7.925 9.1027569,7.935 8.8320802,7.835 8.6716792,7.775 8.3909774,7.685 8.2606516,7.625 7.6290727,7.365 7.5288221,7.075 7.5288221,7.075 7.4586466,6.965 6.7969925,5.585 6.6967419,5.345 6.5764411,5.035 6.39599,4.805 6.2756892,4.695 6.085213,4.525 5.9047619,4.255 5.5037594,4.335 c -0.070175,0.01 -0.3308271,0.02 -0.5213033,0.19 -0.1303258,0.11 -0.170426,0.34 -0.3007518,0.54 -0.070175,0.11 -0.2005013,0.44 -0.310777,0.7 -0.080201,0.19 -0.1203007,0.33 -0.2005012,0.4 -0.070176,0.05 -0.2305765,0.19 -0.4511279,-0.03 -0.0802,-0.08 -0.2807017,-0.43 -0.4310776,-0.69 -0.4310777,-0.74 -0.6015038,-1.08 -1.0827068,-1.08 -0.6215539,0 -0.6716792,0.35 -0.9423559,0.86 0,0 -0.2706767,1.03 -1.2631579,1.76 z m 0,4.56 v 3.41 h 3.0977444 c 0,0 0.2506265,-0.96 0.3107769,-1.16 0.050125,-0.15 0.1102757,-0.27 0.1303258,-0.42 0.02005,-0.15 0,-0.29 -0.02005,-0.42 -0.030075,-0.33 0.2406015,-0.45 0.3709273,-0.74 0.1203008,-0.26 0.1904762,-0.55 0.2807018,-0.82 0.090225,-0.25 0.2406015,-0.61 0.491228,-0.74 -0.030075,-0.03 -0.5213033,-0.05 -0.6516291,-0.07 -0.4110276,-0.04 -0.9824562,-0.17 -1.2431078,-0.23 -0.160401,-0.04 -0.6917293,-0.23 -0.802005,-0.28 -0.2706767,-0.12 -0.4511278,-0.46 -0.6616542,-0.43 -0.1303258,0.02 -0.2606516,0.07 -0.35087715,0.2 -0.0701754,0.11 -0.0902256,0.3 -0.14035087,0.43 -0.0601504,0.15 -0.15037594,0.29 -0.23057645,0.43 C 0.43107769,10.965 0.10025063,11.245 0,11.535 Z m 8.6215539,2.88 c -0.06015,-0.12 -0.1303258,-0.37 -0.1804511,-0.48 -0.050125,-0.1 -0.1904762,-0.36 -0.2606517,-0.45 -0.160401,-0.18 -0.1904762,-0.2 -0.2406015,-0.43 -0.0802,-0.4 -0.2907268,-1.13 -0.5413534,-1.63 -0.1303258,-0.26 -0.3408521,-0.48 -0.5413533,-0.66 -0.1704261,-0.17 -0.5513785,-0.44 -0.6215539,-0.43 -0.631579,0.12 -0.8220552,0.74 -1.122807,1.23 -0.1704261,0.27 -0.3408522,0.5 -0.471178,0.79 -0.1203007,0.26 -0.1102757,0.56 -0.3107769,0.79 -0.2105263,0.23 -0.3508772,0.48 -0.4511279,0.78 -0.02005,0.06 -0.2005012,1.01 -0.2005012,1.01 h 5.1428571 v -0.02 c -0.080201,-0.2 -0.170426,-0.42 -0.2005012,-0.5 z"
    fill="#f18904"
  />
</svg>
