<!--
  Derived from vsc-material-theme-icons
  Licensed under Apache License 2.0
  http://www.apache.org/licenses/LICENSE-2.0

  Modified under GPLv3
-->
<svg viewBox="0 0 16 16" xmlns="http://www.w3.org/2000/svg">
  <path
    d="M3.48,14.54c-.3-.21-.55-.41-.55-.41L10.77.55s.32.12.59.25c.34.16.61.32.61.32,3.8,2.19,5.1,7.06,2.91,10.86-2.19,3.8-7.06,5.1-10.86,2.91,0,0-.27-.15-.55-.35ZM11.31,2.26l-6.62,11.47c3.17,1.83,7.22.74,9.05-2.42,1.83-3.17.74-7.22-2.42-9.05ZM1.48,12.55c-.27-.39-.36-.57-.36-.57-1.37-2.38-1.47-5.4,0-7.95C2.59,1.48,5.26.05,8,.05c0,0,.37,0,.68.03.46.04.77.1.77.1L1.96,13.17s-.18-.18-.48-.62ZM7.21,1.42c-2,.24-3.86,1.39-4.94,3.26-1.08,1.88-1.14,4.06-.35,5.91L7.21,1.42Z"
    fill="#b2ccd6"
  />
</svg>
