<svg viewBox="0 0 16 16" xmlns="http://www.w3.org/2000/svg">
  <defs>
    <clipPath id="clipPath7">
      <rect x="0.52296" y="1.0459" width="14.954" height="14.954" rx="7.477" />
    </clipPath>
    <clipPath id="clipPath8">
      <rect x="0.52296" y="1.0459" width="14.954" height="14.954" rx="7.477" />
    </clipPath>
    <clipPath id="clipPath9">
      <rect x="0.52296" y="1.0459" width="14.954" height="14.954" rx="7.477" />
    </clipPath>
  </defs>
  <path
    d="m0.52296 1.0459h14.954v14.954h-14.954z"
    clip-path="url(#clipPath9)"
    fill="#91ede9"
  />
  <path
    d="m16.15 16.224h-16.15v-3.2525s1.4341-1.1814 2.131-1.2337c0.88528-0.06654 1.1051 0.26917 1.9814 0.41124 0.92192 0.14954 1.5141-0.815 2.43-0.63555 0.93463 0.18244 2.1437 0.88678 2.916 0.85986 1.633-0.05683 1.5365-0.36413 2.8787-0.07477 0.5705 0.12337 1.1791-1.0782 2.131-0.89724 0.48227 0.09122 1.6823 0.18693 1.6823 0.18693z"
    clip-path="url(#clipPath8)"
    fill="#48acba"
  />
  <path
    d="m15.627 16.224h-15.851v-2.9908s1.4715-0.80752 2.1683-0.85986c0.88528-0.06655 1.0677 0.59293 1.944 0.73574 0.92192 0.14954 1.2524-0.76565 2.1683-0.5862 0.93463 0.18244 1.695 1.0737 2.4674 1.0468 1.633-0.05682 1.7235-0.85014 3.0656-0.56078 0.5705 0.12337 0.71032 0.41124 2.0562 0.10019 1.3459-0.31104 1.9814 0.12412 1.9814 0.12412z"
    clip-path="url(#clipPath7)"
    fill="#2b3c5a"
  />
  <path
    d="m8.5249 2.7275a1.2711 1.2711 0 1 0-1.0498 0l-0.032151 0.93538h-0.00374l-1.7743 0.13384a0.22431 0.22431 0 0 0-0.20711 0.22431v0.48077a0.22431 0.22431 0 0 0 0.20711 0.22431l1.7369 0.13309-0.082248 3.1232c-0.025422 0.94285-0.17945 2.0988-1.0999 2.3007-0.10244 0.02243-0.20711 0.03439-0.31329 0.03439-0.55255 0-1.1896-0.68041-1.5978-1.3773a4.6881 4.6881 0 0 1 0.49648-0.18243c0.097202-0.029908 0.11589-0.16599 0.031404-0.22207-0.61162-0.40376-1.0969-0.94734-1.3945-1.5747-0.041124-0.086734-0.16449-0.092715-0.20562-0.0067293a4.8653 4.8653 0 0 0-0.26319 0.67293 4.6657 4.6657 0 0 0-0.15552 2.0667l0.00748 0.044862c0.014954 0.089725 0.12561 0.12188 0.19141 0.058321a4.1445 4.1445 0 0 1 0.39105-0.33422c0.75144 2.365 3.263 3.5464 4.5924 3.5464 1.3302 0 3.8425-1.1829 4.5924-3.5479a4.1408 4.1408 0 0 1 0.3918 0.33497c0.06505 0.063555 0.17721 0.031404 0.19141-0.058321l0.0037-0.023926 3e-3 -0.020188a4.6784 4.6784 0 0 0-0.15475-2.0659 4.8758 4.8758 0 0 0-0.2617-0.67293c-0.04038-0.085986-0.1645-0.079257-0.20487 0.00748-0.29684 0.62658-0.77986 1.1694-1.3885 1.5732-0.08449 0.056078-0.06505 0.19216 0.03215 0.22207a4.6343 4.6343 0 0 1 0.48825 0.18019c-0.40825 0.69836-1.0468 1.3795-1.5993 1.3795a1.4505 1.4505 0 0 1-0.31254-0.034395c-0.92192-0.20188-1.0752-1.3578-1.1006-2.3007l-0.082247-3.1232 1.7369-0.13384a0.22431 0.22431 0 0 0 0.20711-0.22356v-0.48152a0.22431 0.22431 0 0 0-0.20711-0.22356l-1.7743-0.13384h-0.00374zm0.22282-1.1582a0.7477 0.7477 0 1 1-1.4954 0 0.7477 0.7477 0 0 1 1.4954 0z"
    fill="#ff915c"
    stroke="#2b3c5a"
    stroke-width="0.59816"
    paint-order="stroke"
  />
  <path
    d="m5.4578 4.5713a0.14954 0.14954 0 0 0 0.13833 0.14954l1.8057 0.13833 0.49573-0.49573a0.059816 0.059816 0 0 0-0.041871-0.10244h-2.3979zm7.1869 2.3672a0.067293 0.067293 0 0 1 0.11739 0.00748 4.8795 4.8795 0 0 1 0.26544 0.68191 4.6784 4.6784 0 0 1 0.14805 2.11c-0.01495 0.089725-0.12636 0.12188-0.19216 0.058321a4.2387 4.2387 0 0 0-0.8292-0.62508 0.11589 0.11589 0 0 1-0.047853-0.14805c0.25198-0.56676 0.43741-1.2464 0.52713-2.0539a0.070284 0.070284 0 0 1 0.01122-0.029908z"
    fill="#8a380f"
  />
  <path
    d="m8.5234 2.6909 0.037385 0.97202-0.43516 0.406a0.07477 0.07477 0 0 1-0.12561-0.054582v-1.3234zm4.2619 5.8321c-0.29908 2.9908-3.2899 4.4862-4.7853 4.4862v-8.636a0.11216 0.11216 0 0 1 0.11216-0.11216h2.43v0.24599a0.22431 0.22431 0 0 1-0.20188 0.22282l-1.7422 0.12935 0.082247 3.1232c0.025422 0.94285 0.17721 2.101 1.0991 2.3014a1.4206 1.4206 0 0 0 0.3088 0.03365 0.37385 0.37385 0 0 0-0.27291 0.12113c-0.36413 0.43367-0.77761 0.87033-1.3885 1.0677 1.6076 0.07477 3.8208-1.0191 4.2088-4.5535z"
    fill="#8a380f"
  />
  <path
    d="m8.1495 2.5339c-0.082247 0.00822-0.14954 0.07477-0.14954 0.15702 0 0.082247 0.067293 0.15029 0.14954 0.14057a1.2711 1.2711 0 0 0 0.7492-0.36338 1.2711 1.2711 0 0 0 0.37236-0.89276 0.0059816 0.0059816 0 0 0-0.00598-0.00598 0.0059816 0.0059816 0 0 0-0.00598 0.00523c-0.078512 0.50321-0.53611 0.89949-1.1096 0.95931z"
    fill="#8a380f"
  />
</svg>
