<svg viewBox="0 0 16 16" xmlns="http://www.w3.org/2000/svg">
  <g clip-path="url(#clip0_8_46)">
    <path
      d="M10.3089 2.30862C10.3089 2.73347 10.6532 3.07775 11.078 3.07775H13.9963C14.3391 3.07775 14.5105 3.49236 14.2681 3.73409L10.5337 7.46841C10.3894 7.61272 10.3081 7.80828 10.3081 8.01268V9.28943C10.3081 9.82048 10.8348 10.1889 11.3007 9.93548C11.7754 9.67766 12.217 9.3656 12.6163 9.00815C12.7745 8.86676 13.0177 8.8653 13.1678 9.01621L15.8876 11.736C16.0378 11.8862 16.0385 12.1301 15.8832 12.2751C13.8205 14.2053 11.048 15.3876 8.00001 15.3876C4.95204 15.3876 2.17949 14.2053 0.116747 12.2751C-0.0385441 12.1301 -0.0378116 11.8862 0.112353 11.736L2.83215 9.01621C2.98232 8.86605 3.22552 8.86676 3.38373 9.00815C3.78294 9.3656 4.22465 9.67766 4.69932 9.93548C5.16592 10.1889 5.69187 9.82048 5.69187 9.28943V8.01268C5.69187 7.80828 5.61056 7.61272 5.46625 7.46841L1.73193 3.73409C1.48947 3.49161 1.66088 3.07775 2.00369 3.07775H4.92201C5.34686 3.07775 5.69115 2.73347 5.69115 2.30862V0.385054C5.69115 0.172628 5.86328 0.000488281 6.07571 0.000488281H9.9221C10.1345 0.000488281 10.3067 0.172628 10.3067 0.385054V2.30862H10.3089Z"
      fill="#00F7F1"
    />
    <mask
      id="mask0_8_46"
      style="mask-type:alpha"
      maskUnits="userSpaceOnUse"
      x="0"
      y="0"
      width="16"
      height="16"
    >
      <path
        d="M10.3089 2.30813C10.3089 2.73299 10.6532 3.07727 11.078 3.07727H13.9963C14.3391 3.07727 14.5105 3.49186 14.2681 3.7336L10.5337 7.46791C10.3894 7.61222 10.3081 7.80782 10.3081 8.01218V9.28894C10.3081 9.82002 10.8348 10.1885 11.3007 9.93502C11.7754 9.67716 12.217 9.36511 12.6163 9.00765C12.7745 8.86626 13.0177 8.8648 13.1678 9.01571L15.8876 11.7355C16.0378 11.8857 16.0385 12.1296 15.8832 12.2746C13.8205 14.2048 11.048 15.3871 8.00001 15.3871C4.95204 15.3871 2.17949 14.2048 0.116747 12.2746C-0.0385441 12.1296 -0.0378116 11.8857 0.112353 11.7355L2.83215 9.01571C2.98232 8.86555 3.22552 8.86626 3.38373 9.00765C3.78294 9.36511 4.22465 9.67716 4.69932 9.93502C5.16592 10.1885 5.69187 9.82002 5.69187 9.28894V8.01218C5.69187 7.80782 5.61056 7.61222 5.46625 7.46791L1.73193 3.7336C1.48947 3.49115 1.66088 3.07727 2.00369 3.07727H4.92201C5.34686 3.07727 5.69115 2.73299 5.69115 2.30813V0.384568C5.69115 0.172139 5.86328 0 6.07571 0H9.9221C10.1345 0 10.3067 0.172139 10.3067 0.384568V2.30813H10.3089Z"
        fill="#D9D9D9"
      />
    </mask>
    <g mask="url(#mask0_8_46)">
      <g filter="url(#filter0_f_8_46)">
        <path
          d="M0.644984 15.6338C0.644984 14.7666 3.91831 14.0635 7.95617 14.0635C11.994 14.0635 15.2673 14.7666 15.2673 15.6338C15.2673 16.501 11.994 17.204 7.95617 17.204C3.91831 17.204 0.644984 16.501 0.644984 15.6338Z"
          fill="#93FFFC"
        />
      </g>
      <g filter="url(#filter1_f_8_46)">
        <path
          d="M7.34501 17.6643C7.02492 16.8583 9.80764 14.9968 13.5604 13.5064C17.3131 12.016 20.6148 11.4613 20.9349 12.2673C21.255 13.0732 18.4723 14.9348 14.7195 16.4252C10.9668 17.9155 7.6651 18.4703 7.34501 17.6643Z"
          fill="#00FF79"
        />
      </g>
      <g filter="url(#filter2_f_8_46)">
        <path
          d="M8.56359 17.6643C8.88368 16.8583 6.10096 14.9968 2.34822 13.5064C-1.40453 12.0161 -4.70622 11.4613 -5.02631 12.2673C-5.3464 13.0733 -2.56368 14.9348 1.18907 16.4252C4.94181 17.9155 8.2435 18.4703 8.56359 17.6643Z"
          fill="#0060FF"
        />
      </g>
      <g filter="url(#filter3_f_8_46)">
        <path
          d="M12.3587 8.31216C11.8636 7.82051 10.7899 8.09904 9.96033 8.93428C9.13082 9.76953 8.85967 10.8452 9.35472 11.3368C9.84977 11.8285 10.9235 11.55 11.7531 10.7147C12.5826 9.87948 12.8537 8.80382 12.3587 8.31216Z"
          fill="#93FFFC"
        />
      </g>
      <g filter="url(#filter4_f_8_46)">
        <path
          d="M13.0099 7.14021C12.5148 6.64855 11.441 6.92708 10.6115 7.76233C9.782 8.59757 9.51086 9.67323 10.0059 10.1649C10.501 10.6565 11.5747 10.378 12.4042 9.54277C13.2338 8.70752 13.5049 7.63186 13.0099 7.14021Z"
          fill="#0060FF"
        />
      </g>
      <g filter="url(#filter5_f_8_46)">
        <path
          d="M12.8795 0.628929C12.3845 0.137274 11.3107 0.415808 10.4812 1.25105C9.65168 2.08629 9.38053 3.16196 9.87558 3.65361C10.3706 4.14527 11.4444 3.86673 12.2739 3.03149C13.1034 2.19625 13.3746 1.12058 12.8795 0.628929Z"
          fill="#93FFFC"
        />
      </g>
      <g filter="url(#filter6_f_8_46)">
        <path
          d="M13.2702 0.108155C12.7752 -0.3835 11.7014 -0.104967 10.8719 0.730276C10.0424 1.56552 9.77123 2.64118 10.2663 3.13284C10.7613 3.62449 11.8351 3.34596 12.6646 2.51072C13.4941 1.67547 13.7653 0.59981 13.2702 0.108155Z"
          fill="#0060FF"
        />
      </g>
      <g filter="url(#filter7_f_8_46)">
        <path
          d="M3.75515 8.57262C4.25019 8.08096 5.32397 8.35949 6.15349 9.19473C6.98301 10.03 7.25415 11.1056 6.75911 11.5973C6.26406 12.0889 5.19029 11.8104 4.36077 10.9752C3.53125 10.1399 3.2601 9.06427 3.75515 8.57262Z"
          fill="#93FFFC"
        />
      </g>
      <g filter="url(#filter8_f_8_46)">
        <path
          d="M2.84345 7.40066C3.3385 6.909 4.41227 7.18754 5.24179 8.02278C6.07131 8.85802 6.34246 9.93368 5.84741 10.4253C5.35236 10.917 4.27859 10.6385 3.44907 9.80322C2.61955 8.96798 2.3484 7.89232 2.84345 7.40066Z"
          fill="#0060FF"
        />
      </g>
      <g filter="url(#filter9_f_8_46)">
        <path
          d="M2.84345 0.628921C3.3385 0.137265 4.41227 0.415795 5.24179 1.25104C6.07131 2.08628 6.34246 3.16194 5.84741 3.65359C5.35236 4.14525 4.27859 3.86672 3.44907 3.03148C2.61955 2.19624 2.3484 1.12058 2.84345 0.628921Z"
          fill="#93FFFC"
        />
      </g>
      <g filter="url(#filter10_f_8_46)">
        <path
          d="M2.71343 -0.15236C3.20848 -0.644016 4.28225 -0.365485 5.11177 0.469755C5.94129 1.305 6.21244 2.38066 5.71739 2.87231C5.22234 3.36397 4.14857 3.08544 3.31905 2.2502C2.48953 1.41496 2.21838 0.339296 2.71343 -0.15236Z"
          fill="#0060FF"
        />
      </g>
      <g filter="url(#filter11_f_8_46)">
        <path
          d="M0.251344 3.09671C0.74639 2.60505 2.4296 3.49723 4.01091 5.08943C5.59221 6.68164 6.4728 8.37095 5.97775 8.8626C5.4827 9.35426 3.79949 8.46208 2.21819 6.86988C0.636883 5.27767 -0.243702 3.58836 0.251344 3.09671Z"
          fill="#0060FF"
        />
      </g>
      <g filter="url(#filter12_f_8_46)">
        <path
          d="M16.123 2.05487C15.628 1.56322 13.9448 2.45539 12.3635 4.04761C10.7822 5.63982 9.90159 7.32913 10.3966 7.82078C10.8917 8.31243 12.5749 7.42026 14.1562 5.82804C15.7375 4.23583 16.6181 2.54653 16.123 2.05487Z"
          fill="#00FF79"
        />
      </g>
      <g filter="url(#filter13_f_8_46)">
        <path
          d="M0.644984 16.2849C0.644984 15.4176 3.91831 14.7146 7.95617 14.7146C11.994 14.7146 15.2673 15.4176 15.2673 16.2849C15.2673 17.1521 11.994 17.8551 7.95617 17.8551C3.91831 17.8551 0.644984 17.1521 0.644984 16.2849Z"
          fill="#0060FF"
        />
      </g>
    </g>
  </g>
  <defs>
    <filter
      id="filter0_f_8_46"
      x="-8.54613"
      y="4.87241"
      width="33.0046"
      height="21.5227"
      filterUnits="userSpaceOnUse"
      color-interpolation-filters="sRGB"
    >
      <feFlood flood-opacity="0" result="BackgroundImageFix" />
      <feBlend
        mode="normal"
        in="SourceGraphic"
        in2="BackgroundImageFix"
        result="shape"
      />
      <feGaussianBlur
        stdDeviation="4.59556"
        result="effect1_foregroundBlur_8_46"
      />
    </filter>
    <filter
      id="filter1_f_8_46"
      x="-1.87117"
      y="2.7062"
      width="32.0223"
      height="24.5192"
      filterUnits="userSpaceOnUse"
      color-interpolation-filters="sRGB"
    >
      <feFlood flood-opacity="0" result="BackgroundImageFix" />
      <feBlend
        mode="normal"
        in="SourceGraphic"
        in2="BackgroundImageFix"
        result="shape"
      />
      <feGaussianBlur
        stdDeviation="4.59556"
        result="effect1_foregroundBlur_8_46"
      />
    </filter>
    <filter
      id="filter2_f_8_46"
      x="-14.2425"
      y="2.70622"
      width="32.0223"
      height="24.5192"
      filterUnits="userSpaceOnUse"
      color-interpolation-filters="sRGB"
    >
      <feFlood flood-opacity="0" result="BackgroundImageFix" />
      <feBlend
        mode="normal"
        in="SourceGraphic"
        in2="BackgroundImageFix"
        result="shape"
      />
      <feGaussianBlur
        stdDeviation="4.59556"
        result="effect1_foregroundBlur_8_46"
      />
    </filter>
    <filter
      id="filter3_f_8_46"
      x="-0.0838051"
      y="-1.12179"
      width="21.881"
      height="21.8926"
      filterUnits="userSpaceOnUse"
      color-interpolation-filters="sRGB"
    >
      <feFlood flood-opacity="0" result="BackgroundImageFix" />
      <feBlend
        mode="normal"
        in="SourceGraphic"
        in2="BackgroundImageFix"
        result="shape"
      />
      <feGaussianBlur
        stdDeviation="4.59556"
        result="effect1_foregroundBlur_8_46"
      />
    </filter>
    <filter
      id="filter4_f_8_46"
      x="0.567379"
      y="-2.29375"
      width="21.881"
      height="21.8926"
      filterUnits="userSpaceOnUse"
      color-interpolation-filters="sRGB"
    >
      <feFlood flood-opacity="0" result="BackgroundImageFix" />
      <feBlend
        mode="normal"
        in="SourceGraphic"
        in2="BackgroundImageFix"
        result="shape"
      />
      <feGaussianBlur
        stdDeviation="4.59556"
        result="effect1_foregroundBlur_8_46"
      />
    </filter>
    <filter
      id="filter5_f_8_46"
      x="0.437054"
      y="-8.80503"
      width="21.881"
      height="21.8926"
      filterUnits="userSpaceOnUse"
      color-interpolation-filters="sRGB"
    >
      <feFlood flood-opacity="0" result="BackgroundImageFix" />
      <feBlend
        mode="normal"
        in="SourceGraphic"
        in2="BackgroundImageFix"
        result="shape"
      />
      <feGaussianBlur
        stdDeviation="4.59556"
        result="effect1_foregroundBlur_8_46"
      />
    </filter>
    <filter
      id="filter6_f_8_46"
      x="0.827755"
      y="-9.3258"
      width="21.881"
      height="21.8926"
      filterUnits="userSpaceOnUse"
      color-interpolation-filters="sRGB"
    >
      <feFlood flood-opacity="0" result="BackgroundImageFix" />
      <feBlend
        mode="normal"
        in="SourceGraphic"
        in2="BackgroundImageFix"
        result="shape"
      />
      <feGaussianBlur
        stdDeviation="4.59556"
        result="effect1_foregroundBlur_8_46"
      />
    </filter>
    <filter
      id="filter7_f_8_46"
      x="-5.68338"
      y="-0.86134"
      width="21.881"
      height="21.8926"
      filterUnits="userSpaceOnUse"
      color-interpolation-filters="sRGB"
    >
      <feFlood flood-opacity="0" result="BackgroundImageFix" />
      <feBlend
        mode="normal"
        in="SourceGraphic"
        in2="BackgroundImageFix"
        result="shape"
      />
      <feGaussianBlur
        stdDeviation="4.59556"
        result="effect1_foregroundBlur_8_46"
      />
    </filter>
    <filter
      id="filter8_f_8_46"
      x="-6.59508"
      y="-2.0333"
      width="21.881"
      height="21.8926"
      filterUnits="userSpaceOnUse"
      color-interpolation-filters="sRGB"
    >
      <feFlood flood-opacity="0" result="BackgroundImageFix" />
      <feBlend
        mode="normal"
        in="SourceGraphic"
        in2="BackgroundImageFix"
        result="shape"
      />
      <feGaussianBlur
        stdDeviation="4.59556"
        result="effect1_foregroundBlur_8_46"
      />
    </filter>
    <filter
      id="filter9_f_8_46"
      x="-6.59508"
      y="-8.80503"
      width="21.881"
      height="21.8926"
      filterUnits="userSpaceOnUse"
      color-interpolation-filters="sRGB"
    >
      <feFlood flood-opacity="0" result="BackgroundImageFix" />
      <feBlend
        mode="normal"
        in="SourceGraphic"
        in2="BackgroundImageFix"
        result="shape"
      />
      <feGaussianBlur
        stdDeviation="4.59556"
        result="effect1_foregroundBlur_8_46"
      />
    </filter>
    <filter
      id="filter10_f_8_46"
      x="-6.7251"
      y="-9.58632"
      width="21.881"
      height="21.8926"
      filterUnits="userSpaceOnUse"
      color-interpolation-filters="sRGB"
    >
      <feFlood flood-opacity="0" result="BackgroundImageFix" />
      <feBlend
        mode="normal"
        in="SourceGraphic"
        in2="BackgroundImageFix"
        result="shape"
      />
      <feGaussianBlur
        stdDeviation="4.59556"
        result="effect1_foregroundBlur_8_46"
      />
    </filter>
    <filter
      id="filter11_f_8_46"
      x="-9.07761"
      y="-6.22953"
      width="24.3843"
      height="24.4184"
      filterUnits="userSpaceOnUse"
      color-interpolation-filters="sRGB"
    >
      <feFlood flood-opacity="0" result="BackgroundImageFix" />
      <feBlend
        mode="normal"
        in="SourceGraphic"
        in2="BackgroundImageFix"
        result="shape"
      />
      <feGaussianBlur
        stdDeviation="4.59556"
        result="effect1_foregroundBlur_8_46"
      />
    </filter>
    <filter
      id="filter12_f_8_46"
      x="1.06768"
      y="-7.27137"
      width="24.3843"
      height="24.4184"
      filterUnits="userSpaceOnUse"
      color-interpolation-filters="sRGB"
    >
      <feFlood flood-opacity="0" result="BackgroundImageFix" />
      <feBlend
        mode="normal"
        in="SourceGraphic"
        in2="BackgroundImageFix"
        result="shape"
      />
      <feGaussianBlur
        stdDeviation="4.59556"
        result="effect1_foregroundBlur_8_46"
      />
    </filter>
    <filter
      id="filter13_f_8_46"
      x="-8.54613"
      y="5.52349"
      width="33.0046"
      height="21.5227"
      filterUnits="userSpaceOnUse"
      color-interpolation-filters="sRGB"
    >
      <feFlood flood-opacity="0" result="BackgroundImageFix" />
      <feBlend
        mode="normal"
        in="SourceGraphic"
        in2="BackgroundImageFix"
        result="shape"
      />
      <feGaussianBlur
        stdDeviation="4.59556"
        result="effect1_foregroundBlur_8_46"
      />
    </filter>
    <clipPath id="clip0_8_46">
      <rect width="16" height="16" fill="white" />
    </clipPath>
  </defs>
</svg>
