<!--
  Derived from vsc-material-theme-icons
  Licensed under Apache License 2.0
  http://www.apache.org/licenses/LICENSE-2.0

  Modified under GPLv3
-->
<svg viewBox="0 0 16 16" xmlns="http://www.w3.org/2000/svg">
  <defs>
    <mask id="cutout-mask">
      <rect width="100%" height="100%" fill="white" />
      <path
        d="m15.098 10.916h-0.29095v-0.7759c0-1.1638-1.1638-2.3276-2.3276-2.3276-1.1638 0-2.3276 1.1638-2.3276 2.3276v0.7759h-0.29095c-0.48006 0-0.87284 0.39895-0.87284 0.88669v3.3105c0 0.48763 0.39278 0.88669 0.87284 0.88669h5.237c0.48006 0 0.87284-0.39906 0.87284-0.88669 0 0 0.06462-2.7612 0-3.3105-0.057-0.4844-0.39278-0.88669-0.87284-0.88669zm-3.7823-0.7759v0.7759h2.3276v-0.7759s0-1.1638-1.1638-1.1638c-1.1638 0-1.1638 1.1638-1.1638 1.1638z"
        fill="black"
        stroke="#000"
        stroke-width="1.5"
      />
    </mask>
  </defs>
  <path
    d="M3.34,3.34v9.32h4.66v-6.99h2.33v6.99h2.33V3.34H3.34ZM13.66,1c.73,0,1.34.59,1.34,1.34v11.31c0,.73-.59,1.34-1.34,1.34H2.34c-.73,0-1.34-.59-1.34-1.33V2.34c0-.73.6-1.34,1.34-1.34h11.32Z"
    fill="#fc8289"
    mask="url(#cutout-mask)"
  />
  <path
    d="m15.098 10.916h-0.29095v-0.7759c0-1.1638-1.1638-2.3276-2.3276-2.3276-1.1638 0-2.3276 1.1638-2.3276 2.3276v0.7759h-0.29095c-0.48006 0-0.87284 0.39895-0.87284 0.88669v3.3105c0 0.48763 0.39278 0.88669 0.87284 0.88669h5.237c0.48006 0 0.87284-0.39906 0.87284-0.88669 0 0 0.06462-2.7612 0-3.3105-0.057-0.4844-0.39278-0.88669-0.87284-0.88669zm-3.7823-0.7759v0.7759h2.3276v-0.7759s0-1.1638-1.1638-1.1638c-1.1638 0-1.1638 1.1638-1.1638 1.1638z"
    fill="#FFCB6B"
    fill-rule="evenodd"
  />
</svg>
