<!--
  Derived from vsc-material-theme-icons
  Licensed under Apache License 2.0
  http://www.apache.org/licenses/LICENSE-2.0

  Modified under GPLv3
-->
<svg viewBox="0 0 16 16" xmlns="http://www.w3.org/2000/svg">
  <path
    d="M8.79,5.63h4.35L8.79,1.28v4.35M3.26.1h6.32l4.74,4.74v9.48c0,.87-.71,1.58-1.58,1.58H3.26c-.88,0-1.58-.71-1.58-1.58V1.68C1.68.81,2.39.1,3.26.1M7.15,8.35c.32.71.73,1.3,1.21,1.7l.32.25c-.69.13-1.64.35-2.64.73h0l-.09.03.39-.82c.36-.69.62-1.31.8-1.9M12.27,11.36c.14-.14.21-.32.22-.52.02-.16-.02-.31-.09-.43-.23-.37-.82-.55-1.8-.55l-1.02.06-.69-.46c-.5-.41-.95-1.13-1.26-2.02l.03-.11c.26-1.05.51-2.32-.02-2.84-.13-.13-.3-.19-.48-.19h-.19c-.29,0-.55.31-.62.61-.29,1.05-.12,1.63.17,2.58h0c-.2.7-.45,1.51-.85,2.32l-.76,1.42-.7.39c-.95.59-1.4,1.26-1.49,1.67-.03.15-.02.28.04.43l.02.04.38.24.35.09c.64,0,1.37-.75,2.35-2.43l.14-.06c.81-.26,1.82-.44,3.18-.59.81.4,1.77.58,2.37.58.35,0,.58-.09.72-.24M11.95,10.8l.07.09c0,.08-.03.09-.07.1h-.03l-.15.02c-.36,0-.92-.15-1.5-.4.07-.08.1-.08.18-.08,1.11,0,1.42.2,1.5.28M4.71,11.95c-.51.94-.98,1.46-1.34,1.58.04-.3.4-.82.96-1.34l.38-.24M7.09,6.49c-.18-.71-.19-1.29-.06-1.62l.06-.09.12.04c.13.19.15.44.07.87l-.02.13-.13.65-.04.03Z"
    fill="#d14748"
  />
</svg>
