<!--
  Derived from vsc-material-theme-icons
  Licensed under Apache License 2.0
  http://www.apache.org/licenses/LICENSE-2.0

  Modified under GPLv3
-->
<svg viewBox="0 0 16 16" xmlns="http://www.w3.org/2000/svg">
  <path
    d="M6.65,13.79c-.08.17-.43.05-.81-.08-.38-.13-1.67-.66-2.41-1.5-.74-.84-1.12-1.96-1.09-3.04.03-1.07.33-1.52.83-2.21.5-.69,1.87-1.72,2.29-1.98.43-.26,1.01-.71,1.29-1.07.28-.36.43-.66.41-1.16-.02-.5.03-.94.02-1.11-.02-.17-.02-.5.13-.43.15.07.17.25.17.43s-.05.92-.1,1.65c-.05.73-.63,1.34-1.06,1.77-.43.43-1.67,1.77-2.13,2.43-.46.66-.69,1.53-.64,2.26.05.74.23,1.47.92,2.25.69.78,1.17,1.14,1.53,1.32.36.18.73.31.64.48ZM7.26,14.58c-.12.14-.32.23-.35.17-.02-.06.15-.09.27-.23.12-.13.09-.37.17-.37.07,0,.02.29-.09.43ZM7.56,13.37c-.23.3-1.17-.73-1.67-1.32-.5-.59-.99-1.8-1.01-2.74-.02-.94.51-1.82.89-2.34.38-.53,1.12-1.44,1.32-1.85s.41-.86.48-1.44c.07-.58,0-2.64,0-2.64,0,0-.02-.91.13-.81.15.1.18.68.18,1.21s.05,2.81-.12,3.42c-.17.61-.54,1.29-.96,1.88-.41.59-.89,1.85-.87,2.62.02.78.46,2.05.81,2.58.35.53.94,1.27.81,1.44ZM8.05,14.92c-.07,0-.04-.21-.04-.46s-.02-.46.04-.46c.06,0,.04.21.04.46s.01.46-.04.46ZM9.13,14.75c-.02.06-.23-.03-.35-.17-.12-.14-.16-.43-.09-.43.08,0,.05.24.17.37.13.14.3.17.27.23ZM10.18,13.78c-.3.12-.49.25-.74.01-.41-.38-.79-.42-1.3-.55-.14-.04-.24-.35-.29-.46-.17-.37-.3-.76-.4-1.16-.48-1.91-.1-3.82.39-5.69.21-.8.34-1.59.35-2.42,0-.43-.06-.86-.11-1.29-.02-.18-.11-.63.11-.29.09.14.25-.06.27.1.01.12.03,1.02.08,1.33.12.76,1.06,1.23,1.64,1.6,1.33.83,3.12,1.93,3.37,3.62.33,2.22-.81,4.14-3.37,5.19ZM15.98,8C15.98,1.88,9.31-1.97,4,1.09c-5.31,3.06-5.31,10.75,0,13.81,5.31,3.06,11.98-.79,11.98-6.91Z"
    fill="#9883ec"
  />
</svg>
