<svg viewBox="0 0 16 16" xmlns="http://www.w3.org/2000/svg">
  <ellipse cx="8" cy="8" rx="8" ry="4.1644" fill="#8993be" />
  <path
    d="m2.2192 10.795 0.87675-4.4384h2.0273c0.87669 0.05482 1.3151 0.49312 1.3151 1.2603 0 1.3151-1.0411 2.0822-1.9726 2.0274h-0.98619l-0.21919 1.1507zm1.4794-1.9726 0.274-1.6439h0.71231c0.38356 0 0.6575 0.16438 0.6575 0.49313-0.05475 0.93156-0.49313 1.0959-0.98625 1.1507h-0.6575zm2.536 0.82188 0.87669-4.4383h1.0411l-0.21919 1.1506h0.98625c0.87675 0.05482 1.2055 0.49312 1.0959 1.0411l-0.38356 2.2466h-1.0959l0.38356-2.0274c0.05475-0.274 0.05475-0.43838-0.32875-0.43838h-0.82194l-0.49312 2.4658zm3.3271 1.1507 0.87669-4.4384h2.0274c0.87675 0.05482 1.3151 0.49312 1.3151 1.2603 0 1.3151-1.0411 2.0822-1.9726 2.0274h-0.98631l-0.21919 1.1507zm1.4794-1.9726 0.274-1.6439h0.71238c0.38356 0 0.6575 0.16438 0.6575 0.49313-0.05476 0.93156-0.49312 1.0959-0.98625 1.1507h-0.65756z"
    fill="#232531"
    fill-rule="evenodd"
  />
</svg>
