<!--
  Derived from vsc-material-theme-icons
  Licensed under Apache License 2.0
  http://www.apache.org/licenses/LICENSE-2.0

  Modified under GPLv3
-->
<svg viewBox="0 0 16 16" xmlns="http://www.w3.org/2000/svg">
  <path
    d="M5.29,8.77c-.59.17-.98.46-1.24.76.25-.21.57-.41,1.02-.54.45-.13.84-.13,1.16-.07v-.25c-.27-.02-.59,0-.94.1ZM4.03,6.67l-2.2.58s.04.06.11.13l1.87-.49s-.03.34-.26.65c.43-.33.48-.87.48-.87ZM5.87,11.84c-3.1.83-4.74-2.76-5.23-4.62-.23-.86-.33-1.51-.36-1.93,0-.04,0-.08,0-.11-.16,0-.24.09-.22.33.03.42.13,1.07.36,1.93.5,1.86,2.14,5.45,5.23,4.62.67-.18,1.18-.51,1.56-.93-.35.32-.79.57-1.34.71ZM6.45,4.47v.22h1.22c-.02-.08-.05-.15-.07-.22h-1.14Z"
    fill="#343944"
  />
  <path
    d="M7.94,6.29c.55.16.84.54.99.88l.61.17s-.08-1.19-1.16-1.49c-1-.29-1.62.56-1.7.67.29-.21.72-.38,1.26-.23ZM12.79,7.17c-1.01-.29-1.62.56-1.7.67.29-.21.72-.38,1.26-.23.55.16.83.54.99.88l.61.17s-.08-1.19-1.16-1.49ZM12.19,10.3l-5.07-1.42s.05.28.27.64l4.27,1.19c.35-.2.54-.41.54-.41ZM8.67,13.35c-4.01-1.08-3.53-6.19-2.88-8.61.27-1,.54-1.74.77-2.24-.14-.03-.25.04-.36.27-.24.49-.55,1.29-.85,2.41-.65,2.42-1.13,7.54,2.88,8.61,1.89.51,3.37-.26,4.46-1.47-1.04.94-2.37,1.47-4.02,1.03Z"
    fill="#343944"
  />
  <path
    d="M6.45,10.65v-1.03l-2.87.81s.21-1.23,1.71-1.66c.45-.13.84-.13,1.16-.07v-4.23h1.44c-.16-.48-.31-.85-.43-1.11-.21-.43-.43-.14-.91.26-.34.29-1.21.9-2.52,1.25-1.31.35-2.37.26-2.81.18-.63-.11-.95-.25-.92.23.03.42.13,1.07.36,1.93.5,1.86,2.14,5.45,5.23,4.62.81-.22,1.38-.65,1.78-1.2h-1.19ZM1.83,7.25l2.2-.58s-.06.85-.89,1.06c-.83.22-1.31-.48-1.31-.48Z"
    fill="#fc8289"
  />
  <path
    d="M14.74,4.52c-.57.1-1.95.23-3.64-.23-1.7-.45-2.82-1.25-3.27-1.62-.63-.53-.91-.9-1.18-.34-.24.49-.55,1.29-.85,2.41-.65,2.42-1.13,7.54,2.88,8.61,4.01,1.08,6.15-3.6,6.8-6.02.3-1.12.43-1.97.47-2.51.04-.62-.38-.44-1.2-.3ZM6.68,6.53s.63-.98,1.71-.68c1.07.3,1.16,1.49,1.16,1.49l-2.86-.81ZM9.3,10.94c-1.89-.55-2.18-2.06-2.18-2.06l5.07,1.42s-1.02,1.19-2.89.64ZM11.09,7.85s.63-.98,1.7-.68c1.07.31,1.16,1.49,1.16,1.49l-2.86-.81Z"
    fill="#aee33e"
  />
  <path
    d="M5.45,9.9l-1.87.53s.2-1.15,1.58-1.61l-1.06-3.96-.09.03c-1.31.35-2.37.26-2.81.18-.63-.11-.95-.25-.92.23.03.42.13,1.07.36,1.93.5,1.86,2.14,5.45,5.23,4.62l.09-.03-.51-1.92ZM1.83,7.25l2.2-.58s-.06.85-.89,1.06c-.83.22-1.31-.48-1.31-.48Z"
    fill="#f07178"
  />
  <path
    d="M9.38,10.96l-.09-.02c-1.89-.55-2.18-2.06-2.18-2.06l2.61.73,1.38-5.32h-.02c-1.7-.46-2.82-1.25-3.27-1.63-.63-.53-.91-.9-1.18-.34-.24.49-.55,1.29-.85,2.41-.65,2.42-1.13,7.54,2.88,8.61l.08.02.63-2.41ZM6.68,6.53s.63-.98,1.71-.68c1.07.3,1.16,1.49,1.16,1.49l-2.86-.81Z"
    fill="#2ecc71"
  />
  <path
    d="M5.55,9.87l-.5.14c.12.67.33,1.31.65,1.87.06-.01.11-.02.17-.04.15-.04.29-.09.43-.15-.37-.54-.61-1.17-.75-1.83ZM5.35,5.18c-.26.96-.49,2.34-.42,3.73.11-.05.23-.09.37-.13l.09-.02c-.11-1.48.13-2.99.41-4.01.07-.26.14-.5.21-.73-.11.07-.23.14-.37.22-.09.29-.19.6-.28.95Z"
    fill="#c04b41"
  />
</svg>
