<svg viewBox="0 0 16 16" xmlns="http://www.w3.org/2000/svg">
  <defs>
    <mask id="cutout-mask">
      <rect width="100%" height="100%" fill="white" />
      <path
        d="m15.098 10.916h-0.29095v-0.7759c0-1.1638-1.1638-2.3276-2.3276-2.3276-1.1638 0-2.3276 1.1638-2.3276 2.3276v0.7759h-0.29095c-0.48006 0-0.87284 0.39895-0.87284 0.88669v3.3105c0 0.48763 0.39278 0.88669 0.87284 0.88669h5.237c0.48006 0 0.87284-0.39906 0.87284-0.88669 0 0 0.06462-2.7612 0-3.3105-0.057-0.4844-0.39278-0.88669-0.87284-0.88669zm-3.7823-0.7759v0.7759h2.3276v-0.7759s0-1.1638-1.1638-1.1638c-1.1638 0-1.1638 1.1638-1.1638 1.1638z"
        fill="black"
        stroke="#000"
        stroke-width="1.5"
      />
    </mask>
  </defs>
  <g mask="url(#cutout-mask)">
    <path d="m1 1h14v14h-14z" fill="#fff" />
    <path d="m14.223 5.6667h-3.8889v-3.8889h3.8889z" fill="#f9ad00" />
    <path d="m9.9444 5.6667h-3.8889v-3.8889h3.8889z" fill="#f9ad00" />
    <path d="m5.6667 5.6667h-3.8889v-3.8889h3.8889z" fill="#f9ad00" />
    <path d="m14.223 9.9444h-3.8889v-3.8889h3.8889z" fill="#f9ad00" />
    <path d="m9.9444 9.9444h-3.8889v-3.8889h3.8889z" fill="#4e4e4e" />
    <path d="m9.9444 14.222h-3.8889v-3.8889h3.8889z" fill="#4e4e4e" />
    <path d="m14.223 14.222h-3.8889v-3.8889h3.8889z" fill="#4e4e4e" />
    <path d="m5.6667 14.222h-3.8889v-3.8889h3.8889z" fill="#4e4e4e" />
  </g>
  <path
    d="m15.098 10.916h-0.29095v-0.7759c0-1.1638-1.1638-2.3276-2.3276-2.3276-1.1638 0-2.3276 1.1638-2.3276 2.3276v0.7759h-0.29095c-0.48006 0-0.87284 0.39895-0.87284 0.88669v3.3105c0 0.48763 0.39278 0.88669 0.87284 0.88669h5.237c0.48006 0 0.87284-0.39906 0.87284-0.88669 0 0 0.06462-2.7612 0-3.3105-0.057-0.4844-0.39278-0.88669-0.87284-0.88669zm-3.7823-0.7759v0.7759h2.3276v-0.7759s0-1.1638-1.1638-1.1638c-1.1638 0-1.1638 1.1638-1.1638 1.1638z"
    fill="#FFCB6B"
    fill-rule="evenodd"
  />
</svg>
