<!--
  Derived from vsc-material-theme-icons
  Licensed under Apache License 2.0
  http://www.apache.org/licenses/LICENSE-2.0

  Modified under GPLv3
-->
<svg viewBox="0 0 16 16" xmlns="http://www.w3.org/2000/svg">
  <path
    d="M14.36,3c-.13-.16-.26-.31-.39-.48-.13-.17-.26-.33-.42-.47-.32-.27-.68-.51-1.03-.73-.72-.44-1.57-.75-2.39-.92-.44-.09-.88-.13-1.33-.15-.45-.03-.91-.05-1.36,0-.86.08-1.76.16-2.58.46-.77.28-1.5.74-2.13,1.27-.32.28-.58.62-.85.94-.28.34-.53.69-.75,1.07-.47.82-.86,1.74-.92,2.69-.01.24,0,.47.02.71.03.24.05.5.13.72.01.03.03.06.03.1,0,.03-.03.05-.03.09,0,.04.04.04.05.07.01.04,0,.09,0,.13,0,.1.04.2.06.3.03.11.01.18-.02.29.04-.03.09-.06.13-.08.03.14.08.27.11.41.04.15.06.22.17.33,0-.18-.05-.32-.07-.49.02,0,.04.01.07.02-.06.06.06.23.09.29.04-.04.08-.07.14-.06-.02-.05-.03-.11-.06-.17-.02-.04-.06-.09-.06-.12,0-.03,0-.05,0-.08-.01-.03-.04-.04-.06-.07-.04-.07.02-.14,0-.22-.02-.18-.08-.35-.11-.52-.02-.16.02-.35-.1-.47-.08.06-.06.21-.17.17-.09-.03-.06-.16.02-.14,0-.08-.03-.11,0-.18.04-.06.09-.11.12-.18.06-.15.08-.33.09-.49.03-.37.1-.7.22-1.06.23-.67.57-1.31.94-1.91.69-1.13,1.72-2.11,2.94-2.65.38-.17.77-.29,1.17-.39.39-.1.8-.09,1.2-.13-.34.47-.66.96-1.01,1.42-.34.44-.68.88-1.02,1.32-.35.46-.66.95-.98,1.43-.16.23-.32.47-.48.7-.08.11-.16.21-.25.32-.04.05-.04.09-.06.15-.02.06-.06.12-.09.17-.01-.02-.03-.05-.04-.07-.08.12-.15.25-.22.38-.04.07-.19.2-.06.25-.03.02-.05.04-.08.07.04.04.09.06.13.11.01-.01.02-.03.03-.04.01.1.05,0,.07-.04.03-.04.06-.08.09-.11.07-.07.15-.12.21-.19.14-.14.26-.29.39-.44.28-.34.52-.7.8-1.03-.03.34-.04.68-.07,1.02-.01.16,0,.32-.01.48-.02.17-.03.33-.03.5,0,.34.02.67,0,1.01,0,.14.02.27.02.4,0,.09-.02.2.09.2,0,.22-.08.42-.06.64,0,.1-.01.2-.01.3,0,.12.09.2.09.31-.07,0-.11-.02-.14.04-.03.05,0,.16,0,.22,0,.11,0,.21,0,.32,0,.06.02.24-.03.29-.05.06-.14.04-.21.04-.13,0-.26,0-.39,0-.25,0-.5,0-.75.01-.5,0-1.01,0-1.51.02-.21,0-.45.02-.65.1-.09.04-.09.07-.13.15,0,.02-.05.02-.05.04,0,.04.04.09.05.13.02-.01.05-.02.07-.04-.02.03-.03.06-.05.08.06-.02.11-.04.17-.06,0,.04.2,0,.25,0,.08,0,.16.03.24.05.22.04.45.05.67.06.42.02.84.02,1.26.02.44,0,.88.02,1.32,0,.42,0,.84-.03,1.26-.04.86-.03,1.73-.02,2.59-.08.87-.05,1.73-.11,2.6-.13.48-.01.96-.03,1.44-.06.47-.03.97-.08,1.44-.04-.03.02-.05.04-.08.07.14,0-.08.2-.09.23-.03.04-.03.09-.05.13-.03.04-.05.04-.09.07,0,0-.02.04-.03.05-.02.04-.02.09-.05.13-.06.09-.08.11-.2.15.03,0,.05.02.08.03-.03.02,0,.05-.02.1-.02.07-.07.13-.12.18-.1.13-.22.25-.34.36-.2.18-.37.37-.59.54-.21.16-.44.32-.66.46-.22.14-.45.25-.67.39-.23.15-.48.23-.73.33-.25.1-.48.22-.75.26-.28.04-.57.07-.85.11-.29.04-.57.08-.86.08-.12,0-.23.01-.35-.01-.14-.03-.27-.05-.42-.06-.26-.02-.53-.05-.78-.14-.1-.03-.16-.03-.26-.04-.12,0-.23-.07-.35-.09-.1-.01-.11-.05-.19-.09-.11-.05-.22-.09-.33-.15-.1-.06-.2-.13-.31-.18-.11-.05-.24-.06-.35-.11-.1-.04-.19-.11-.28-.17-.1-.07-.19-.09-.3-.13-.23-.09-.44-.27-.62-.43-.16-.15-.43-.19-.51-.4-.03-.08-.08-.09-.15-.15-.09-.09-.2-.17-.3-.24-.2-.14-.33-.33-.47-.53-.05-.07-.12-.2-.2-.25-.08-.05-.11.06-.2.06.12.19.24.38.36.57-.04-.03-.09-.02-.12-.06-.02-.02-.01-.07-.03-.09-.05-.05-.16-.03-.22-.04.08.13.17.29.23.41.07.13.22.22.3.34-.12.03.04.2.07.24.04.05.09.08.13.13.06.06.05.1.05.18.07-.07.08-.03.14.01.01,0,.06.04.07.05.02.01.04.02.06.03.02,0,.04,0,.07-.01,0,0,.09.05.1.06,0,0,0,.04.03.05.05.03.09.02.13.06.17.16.33.34.53.48.44.32.95.6,1.44.82.25.11.5.19.76.25.28.07.56.16.85.22.22.04.45.1.68.11.14,0,.27,0,.41,0,.04,0,.31,0,.17.06.31.06.62.04.94.03.14,0,.29-.09.43-.08.02,0,.04.03.07.02.03,0,.04-.03.06-.04.06-.03.11-.02.17-.02.26-.02.5-.11.78-.16.04,0,.11,0,.15-.03.04-.03.02-.06.05-.1.05-.07.21-.19.3-.18-.02.02-.03.03-.05.05.06,0,.15,0,.2-.02.05-.03.04-.08.09-.11.04-.03.11-.02.15-.03.09-.02.18-.06.26-.1.07-.04.13-.05.2-.08.05-.02.09-.05.14-.06.03-.01.06-.02.09-.03,0,0,.02-.02.03-.03.02,0,.04.01.06,0,.09-.02.16-.08.23-.14h-.13s.08-.07.12-.07c.03,0,.05.04.08.04.07.02.29-.08.23-.17.05-.03.07.02.11,0,.02,0,.06-.04.08-.06.05-.06,0-.1.05-.16.05-.07.14-.1.21-.15.04-.03.07-.08.12-.09.02,0,.09-.05.1-.08.02-.03.05-.06.08-.08.09-.08.19-.16.29-.25.19-.18.37-.38.53-.59.31-.38.57-.81.79-1.25.06-.12.1-.32.25-.36.08-.02.16,0,.24-.01.1,0,.19-.03.29-.08-.11-.17-.39-.45-.32-.66.1-.28.22-.56.29-.86.15-.68.23-1.39.21-2.09-.02-.86-.04-1.73-.32-2.55-.26-.77-.65-1.49-1.15-2.13h0ZM5.66,4.02s-.02.03,0,0c.03-.04.06-.06.09-.1.04-.07.07-.12.13-.17.05-.04.06-.06.1-.11.03-.04.06-.08.09-.11.02-.03.06-.12.07-.05.06-.09.16-.2.18-.3-.01,0-.02-.02-.03-.03,0-.02.02-.04.03-.05.02-.03.05-.08.08-.1.03-.02.05,0,.08-.03.04-.03.06-.09.09-.12.03-.03.08-.07.1-.11,0-.03-.01-.08,0-.1.02.04.04.07.05.11.02-.06.06-.11.08-.17.02-.07,0-.06,0-.11.01-.06.09-.13.13-.18.05-.08.11-.16.16-.23.2-.29.37-.59.62-.84.88,1.11,1.67,2.28,2.45,3.45-.43,0-.86-.02-1.29,0-.43.03-.86.08-1.29.09-.85.03-1.7.1-2.55.09.2-.27.39-.56.59-.82ZM10.9,6.17l.02.9c-.09-.24-.23-.45-.37-.66-.15-.23-.33-.44-.54-.61-.21-.16-.46-.27-.71-.37,0,0,1.15-.03,1.3-.03.11,0,.15.04.21.12.13.19.09.42.1.65h0ZM5.39,5.6c.42-.02.84-.03,1.26-.06-.26.16-.48.37-.69.6-.21.23-.43.45-.6.71.02-.42.04-.83.03-1.25h0ZM5.79,11.1c-.07,0-.31.05-.36-.01-.05-.06,0-.25,0-.35-.03-.43-.08-.85-.08-1.28.1.23.2.43.34.63.07.09.13.2.21.29.05.06.21.1.22.18,0,.06-.07.07-.02.13.03.05.13.07.18.1.08.04.16.11.24.16.12.07.25.09.37.15-.36,0-.73,0-1.09.03h0ZM6.8,10.48s.04.02.02.01c0,0,0,0,0,0-.2-.09-.4-.18-.56-.34-.08-.08-.17-.15-.24-.24-.07-.08-.11-.18-.16-.27-.1-.18-.27-.34-.34-.53-.02-.05-.07-.16-.13-.07-.04.06.02.16.04.22-.03,0-.06.01-.08.04,0-.32-.01-.64,0-.95.11.08.18-.09.2-.17.02-.06.02-.12.04-.17.01-.03.07-.1.06-.13-.02-.07-.09-.03-.05-.12.02-.06.08-.1.11-.17.02-.06.05-.24.1-.27,0,.01,0,.03,0,.04.11-.06.17-.11.2-.24.02-.11.11-.18.17-.27.07-.1.13-.18.24-.24.1-.06.17-.18.27-.22.06-.02.1-.02.16-.07.04-.02.09-.05.11-.09.01-.03,0-.05.02-.08.05-.07.24-.11.31-.14.11-.05.23-.13.36-.12-.08.15.19.06.26.08,0-.14.03-.17.18-.17.16,0,.33,0,.48.02.31.05.58.25.83.43.26.18.52.35.7.63.08.12.14.25.18.38.05.17.11.37.09.54-.01.15-.05.3-.06.46-.01.19-.06.36-.15.53-.02.04-.07.1-.06.14.01.04.05.03.05.07,0,.04-.05.13-.07.17-.03.07-.05.13-.08.2-.25.53-.63.98-1.2,1.16-.6.19-1.43.26-2.01-.04h0ZM9.46,10.97c.08-.05.16-.1.23-.16.05-.04.11-.12.17-.15,0,0,0,0,0,0-.02.01-.04.03-.05.05,0,0,0,0,.01-.01,0,0,.02-.02.04-.04.1-.1.22-.16.32-.25.09-.09.17-.18.25-.29.16-.22.28-.47.4-.72,0,.51.06,1.01.13,1.51l-1.51.05h0ZM14.19,10.85c-.27-.01-.54,0-.81,0-.32,0-.63,0-.95.03-.14,0-.28.01-.42.02-.06,0-.13.02-.18,0-.06,0-.08-.04-.13-.08,0,.01-.01.02-.02.03-.04-.04-.04-.12-.04-.18,0-.02.02-.05.02-.08.04,0,.09-.14.09-.16,0-.04-.02-.07-.04-.1-.02-.03-.03,0-.04-.04-.01-.03,0-.1,0-.13.04.03.04-.04.07-.07.03-.02.07-.02.11-.02-.03-.06-.03-.12-.05-.19-.02-.11-.03-.1.08-.14-.06-.03-.09-.03-.11-.09-.02-.05,0-.12,0-.18,0-.06,0-.12-.03-.18-.03-.06-.09-.06-.09-.12.04.01.08.03.11.05-.02-.08-.07-.16-.09-.24-.02-.08,0-.17,0-.25.02,0,.04,0,.06.01,0-.06,0-.09-.01-.14,0-.03-.03-.05-.04-.07-.03-.08,0-.17,0-.25.02,0,.03.01.05.02-.01-.06.05-.09.08-.13-.06,0-.06,0-.08-.04-.01-.03,0-.08,0-.11,0-.09-.04-.14-.04-.22,0-.31.02-.63.02-.94.64.84,1.14,1.78,1.78,2.63.17.23.83,1.1.87,1.15.02.03.11.11.11.15,0,.11-.2.06-.27.05h0ZM14.99,7.18s-.04-.04-.07-.07c-.01.04-.01.14-.08.12,0,.11.03.22.01.33.02-.01.04-.03.06-.04-.02.08.07.16.06.24-.01.09-.07.03-.1.06-.03.04-.02.25,0,.29.02.04.05.05.07.09.02.06,0,.13-.01.18-.05.25-.03.49-.05.74-.01.15-.04.06-.13.06-.11,0-.04.15-.02.22-.08,0-.06.1-.07.15,0,.1-.05.17-.06.26-.3-.44-.56-.9-.87-1.33-.32-.45-.62-.9-.94-1.35-.31-.44-.59-.91-.9-1.36-.06-.09-.15-.17-.19-.27-.03-.1-.02-.24-.03-.35,0-.11,0-.22,0-.33,0-.12.02-.15.1-.23-.2,0-.4,0-.6,0-.13,0-.22-.14-.29-.24-.1-.14-.2-.29-.29-.44-.24-.36-.5-.7-.76-1.05-.49-.65-.94-1.33-1.47-1.94.34.04.67.04,1.01.09.33.05.66.11.98.21.61.17,1.19.43,1.75.72.12.06.25.12.37.2.14.08.24.19.35.31.23.24.44.49.65.74.36.43.76.84.98,1.37.13.32.23.68.3,1.02.04.18.04.36.07.53.01.07.03.14.04.21,0,.02.03.07.03.07.02.04.02.1.07.06.05.24.05.49.04.73h0ZM2.31,7.66s.03-.02.04-.03c-.09.03-.09-.05-.06-.11.03-.08.12-.13.16-.2.02.02.05.05.08.06.06-.07.12-.14.18-.21.06.08.15.05.08.16-.04.07-.1.13-.16.19.02.03.05.05.04.1,0,.09-.16.24-.22.31-.05.06-.1.03-.14.1-.02.04,0,.07-.04.11-.02.02-.06.04-.08.06-.05.05-.06.12-.12.16-.07.04-.14.03-.13-.05-.05,0-.09.02-.13.03.05-.08.09-.17.15-.24.04-.05.1-.09.14-.14.05-.05.07-.12.11-.17.04-.05.07-.08.1-.14h0Z"
    fill="#fc8289"
    stroke="#fc8289"
    stroke-linejoin="round"
    stroke-width="0.2"
  />
</svg>
