<!--
  Derived from vsc-material-theme-icons
  Licensed under Apache License 2.0
  http://www.apache.org/licenses/LICENSE-2.0

  Modified under GPLv3
-->
<svg viewBox="0 0 16 16" xmlns="http://www.w3.org/2000/svg">
  <rect
    x="12.43"
    y="3.09"
    width="1.48"
    height="0.76"
    rx="0.28"
    ry="0.28"
    fill="#89ddff"
  />
  <path
    d="M1.73,15.18h3.68c.21,0,.38.17.38.38h0c0,.21-.17.38-.38.38H1.73c-.21,0-.38-.17-.38-.38h0c0-.21.17-.38.38-.38Z"
    fill="#fc8289"
  />
  <rect
    x="10.22"
    y="9.13"
    width="2.96"
    height=".76"
    rx="0.28"
    ry="0.28"
    fill="#9883ec"
  />
  <rect
    x="5.78"
    y="9.13"
    width="3.69"
    height="0.76"
    rx="0.28"
    ry="0.28"
    fill="#fc8289"
  />
  <rect
    x="1.35"
    y="9.13"
    width="3.69"
    height="0.76"
    rx="0.28"
    ry="0.28"
    fill="#89ddff"
  />
  <path
    d="M1.73,12.16h3.68c.21,0,.38.17.38.38h0c0,.21-.17.38-.38.38H1.73c-.21,0-.38-.17-.38-.38h0c0-.21.17-.38.38-.38Z"
    fill="#9883ec"
  />
  <rect
    x="1.35"
    y="6.11"
    width="4.43"
    height="0.76"
    rx="0.28"
    ry="0.28"
    fill="#9883ec"
  />
  <rect
    x="5.04"
    y="1.57"
    width="8.13"
    height="0.76"
    rx="0.28"
    ry="0.28"
    fill="#ffcb6b"
  />
  <rect
    x="1.35"
    y="1.57"
    width="2.96"
    height="0.76"
    rx="0.28"
    ry="0.28"
    fill="#fc8289"
  />
  <path
    d="M4.68,13.67h.72c.21,0,.38.17.38.38h0c0,.21-.17.38-.38.38h-.72c-.21,0-.38-.17-.38-.38h0c0-.21.17-.38.38-.38Z"
    fill="#ffcb6b"
  />
  <rect
    x="4.31"
    y="4.6"
    width="1.48"
    height="0.76"
    rx="0.28"
    ry="0.28"
    fill="#89ddff"
  />
  <path
    d="M1.73,13.67h1.46c.21,0,.38.17.38.38h0c0,.21-.17.38-.38.38h-1.46c-.21,0-.38-.17-.38-.38h0c0-.21.17-.38.38-.38Z"
    fill="#89ddff"
  />
  <rect
    x="1.35"
    y="4.6"
    width="2.22"
    height="0.76"
    rx="0.28"
    ry="0.28"
    fill="#ffcb6b"
  />
  <rect
    x="7.26"
    y="7.62"
    width="6.65"
    height="0.76"
    rx="0.28"
    ry="0.28"
    fill="#89ddff"
  />
  <rect
    x="3.57"
    y="7.62"
    width="2.96"
    height="0.76"
    rx="0.28"
    ry="0.28"
    fill="#ffcb6b"
  />
  <rect
    x="1.35"
    y="7.62"
    width="1.48"
    height="0.76"
    rx="0.28"
    ry="0.28"
    fill="#fc8289"
  />
  <rect
    x="8"
    y="3.09"
    width="3.69"
    height="0.76"
    rx="0.28"
    ry="0.28"
    fill="#9883ec"
  />
  <rect
    x="1.35"
    y="3.09"
    width="5.91"
    height="0.76"
    rx="0.28"
    ry="0.28"
    fill="#89ddff"
  />
  <rect
    x="3.57"
    y="10.65"
    width="7.39"
    height="0.76"
    rx="0.28"
    ry="0.28"
    fill="#ffcb6b"
  />
  <rect
    x="1.35"
    y="10.65"
    width="1.48"
    height="0.76"
    rx="0.28"
    ry="0.28"
    fill="#9883ec"
  />
  <rect
    x="10.22"
    y="4.6"
    width="4.43"
    height="0.76"
    rx="0.28"
    ry="0.28"
    fill="#fc8289"
  />
  <rect
    x="10.22"
    y="6.11"
    width="4.43"
    height="0.76"
    rx="0.28"
    ry="0.28"
    fill="#ffcb6b"
  />
  <path
    d="M1.73.06h8.85c.21,0,.38.17.38.38h0c0,.21-.17.38-.38.38H1.73c-.21,0-.38-.17-.38-.38h0c0-.21.17-.38.38-.38Z"
    fill="#89ddff"
  />
</svg>
