<!--
  Derived from vsc-material-theme-icons
  Licensed under Apache License 2.0
  http://www.apache.org/licenses/LICENSE-2.0

  Modified under GPLv3
-->
<svg viewBox="0 0 16 16" xmlns="http://www.w3.org/2000/svg">
  <path
    d="M8,.09L1.21,4.06v7.91l6.79,3.94,6.78-4.01v-7.8S8,.09,8,.09ZM14.19,11.56l-6.19,3.66-6.19-3.6v-7.22L8,.78l6.2,3.66v7.12Z"
    fill="#6b7394"
  />
  <path
    d="M13.41,6.67l-3.18,1.87v4.48s3.19-1.88,3.19-1.88v-4.47Z"
    fill="#89ddff"
  />
  <path
    d="M12.11,5.91l1.29.76-3.18,1.87v4.48s-1.48-.86-1.48-.86v-4.23s3.36-2.02,3.36-2.02Z"
    fill="#3965bd"
  />
  <path
    d="M11.68,4.81v.83s-3.45,2.08-3.45,2.08v4.58s-.8.47-.8.47v-5.41s4.25-2.55,4.25-2.55Z"
    fill="#c3e88d"
  />
  <path
    d="M10.26,3.97l1.41.84-4.25,2.55v5.41s-1.58-.92-1.58-.92v-5.3s4.41-2.57,4.41-2.57Z"
    fill="#c3e88d"
  />
  <path
    d="M9.82,2.69v1l-4.53,2.66v5.71l-.79.46.02-6.62,5.31-3.2Z"
    fill="#bb80b3"
  />
  <path
    d="M8.09,1.66l-5.44,3.17v6.6s1.86,1.08,1.86,1.08v-6.62s5.32-3.2,5.32-3.2l-1.74-1.03Z"
    fill="#ff9cac"
  />
</svg>
