<!--
  Derived from vsc-material-theme-icons
  Licensed under Apache License 2.0
  http://www.apache.org/licenses/LICENSE-2.0

  Modified under GPLv3
-->
<svg viewBox="0 0 16 16" xmlns="http://www.w3.org/2000/svg">
  <path
    d="M.52,8C.52,3.87,3.87.52,8,.52s7.48,3.35,7.48,7.48-3.35,7.48-7.48,7.48S.52,12.13.52,8Z"
    fill="#343944"
    stroke="#89ddff"
  />
  <path
    d="M6.9,4.98c.28.09.51.21.7.37h0c.18.16.32.36.42.61.1.25.16.52.16.81s-.04.57-.13.81c-.09.24-.21.44-.36.61-.22.22-.47.4-.74.52-.27.12-.62.2-1.04.22h-.31s-.14.02-.14.02v1.92h-1.23v-5.98l.55-.02c.37-.01.74-.02,1.12-.02s.72.04.99.13ZM5.64,7.87h.23c.33-.01.59-.11.79-.3.19-.18.29-.43.29-.75,0-.28-.08-.52-.25-.72-.17-.2-.41-.3-.73-.31h-.35s-.17,0-.17,0v2.05l.18.02Z"
    fill="#fff"
  />
  <path
    d="M10.59,8.06c-.28-.1-.46-.19-.56-.25-.1-.07-.15-.16-.15-.27,0-.11.04-.2.13-.26.09-.06.22-.09.38-.09.19,0,.4.04.64.13.24.09.41.16.51.22v-1.01c-.13-.07-.3-.14-.5-.2-.2-.07-.42-.1-.68-.1-.54,0-.97.14-1.29.41-.32.28-.48.63-.48,1.05,0,.26.09.48.28.67s.5.37.94.52c.25.09.42.19.51.3.09.11.13.22.13.34,0,.12-.04.22-.13.29-.09.07-.24.1-.45.1-.2,0-.42-.04-.67-.13s-.43-.17-.55-.25v.99c.17.09.36.17.58.24.22.07.44.12.65.13.63.01,1.1-.13,1.42-.41.31-.29.47-.64.47-1.05-.01-.33-.11-.6-.29-.82-.18-.22-.48-.4-.89-.55Z"
    fill="#fff"
  />
</svg>
