<!--
  Derived from vsc-material-theme-icons
  Licensed under Apache License 2.0
  http://www.apache.org/licenses/LICENSE-2.0

  Modified under GPLv3
-->
<svg viewBox="0 0 16 16" xmlns="http://www.w3.org/2000/svg">
  <path
    d="m6.3003 7.7478h3.3651c0.46811 0 0.86555-0.16781 1.1923-0.50343s0.4946-0.73307 0.4946-1.1923v-3.1707c0-0.45927-0.16781-0.84789-0.50343-1.1658-0.33562-0.30913-0.73307-0.50343-1.1835-0.56526-0.28263-0.052993-0.57409-0.088322-0.87438-0.11482-0.30029-0.026496-0.59176-0.035329-0.87438-0.035329-0.30029 0.00883-0.58292 0.026496-0.85672 0.044161-0.2738 0.017664-0.52993 0.052993-0.75957 0.10599-0.71541 0.11482-1.1747 0.30913-1.3778 0.58292-0.20314 0.2738-0.30913 0.65358-0.30913 1.1482v1.2718h3.3827v0.42394h-4.6457c-0.4946 0-0.93621 0.14131-1.3248 0.43278-0.38862 0.29146-0.65358 0.70657-0.7949 1.2542-0.14131 0.62708-0.2208 1.1835-0.2208 1.6604 0 0.47694 0.070657 1.051 0.2208 1.7223 0.13248 0.50343 0.34445 0.90971 0.63592 1.2188 0.29146 0.31796 0.68008 0.4681 1.1747 0.4681h1.1482v-1.5191c0-0.54759 0.21197-1.0334 0.63592-1.4485 0.42394-0.41511 0.91855-0.62708 1.4838-0.62708zm-0.21197-4.4426c-0.18548 0-0.33562-0.061825-0.45927-0.19431-0.12365-0.12365-0.18548-0.2738-0.18548-0.44161 0-0.17664 0.061825-0.32679 0.18548-0.45044 0.12365-0.12365 0.2738-0.18548 0.45927-0.18548 0.16781 0 0.31796 0.061825 0.44161 0.18548 0.12365 0.12365 0.18548 0.2738 0.18548 0.45044 0 0.16781-0.061825 0.31796-0.18548 0.44161-0.12365 0.12365-0.26496 0.19431-0.44161 0.19431z"
    fill="#6a9fb5"
  />
  <path
    d="m13.057 4.5632c0.4946 0 0.86555 0.17278 1.1217 0.49074 0.25613 0.31796 0.43278 0.72424 0.55642 1.21l0.06182 0.2473c0.13248 0.56526 0.19431 1.0864 0.20314 1.5545 0 0.52993-0.07949 1.0599-0.26496 1.5898-0.16781 0.51227-0.37095 0.91855-0.59176 1.2277-0.22964 0.30913-0.58292 0.45927-1.0775 0.45927h-5.0608v0.42394h3.3651v1.2718c0 0.48577-0.17664 0.85672-0.5211 1.1217s-0.7419 0.45927-1.1658 0.58292c-0.63592 0.17664-1.2188 0.26496-1.7576 0.2473-0.53876-0.008832-1.0687-0.097154-1.6075-0.2473-0.45044-0.13248-0.84789-0.32679-1.1835-0.60942-0.33562-0.2738-0.50343-0.64475-0.50343-1.104v-3.1707c0-0.45044 0.16781-0.83906 0.4946-1.1835 0.32679-0.33562 0.73307-0.51227 1.1923-0.51227h3.3651c0.55643 0 1.051-0.21197 1.475-0.62708 0.42394-0.41511 0.64475-0.90971 0.64475-1.4926v-1.4838zm-3.1707 8.0422c-0.16781 0-0.31796 0.06182-0.45044 0.19431-0.13248 0.12365-0.19431 0.2738-0.19431 0.44161 0 0.17664 0.061825 0.33562 0.19431 0.45927 0.13248 0.12365 0.28263 0.19431 0.45044 0.19431 0.18548 0 0.33562-0.06182 0.45927-0.19431 0.12365-0.12365 0.18548-0.28263 0.18548-0.45927 0-0.16781-0.06183-0.31796-0.18548-0.44161-0.12365-0.12365-0.2738-0.19431-0.45927-0.19431z"
    fill="#f4bf75"
  />
</svg>
