<!--
  Derived from vsc-material-theme-icons
  Licensed under Apache License 2.0
  http://www.apache.org/licenses/LICENSE-2.0

  Modified under GPLv3
-->
<svg viewBox="0 0 16 16" xmlns="http://www.w3.org/2000/svg">
  <path
    d="M7.87,2.64c-3.54,0-6.6,1.59-7.5,3.9,0,.01-.02.03-.02.04-.03.05-.04.11-.05.17-.13.4-.2.82-.19,1.23.05,2.18,2.06,4.14,5.06,4.95V4.7h3.21c.44,0,.82.03,1.13.09.32.06.61.19.89.39.28.2.5.46.66.77.17.31.25.71.25,1.18,0,.65-.13,1.19-.39,1.6-.25.41-.62.75-1.09,1.03l1.99,3.04c.89-.33,1.67-.81,2.29-1.38,1.18-.96,1.81-2.18,1.78-3.44-.04-1.68-1.25-3.26-3.26-4.26-.94-.51-2.02-.84-3.16-.97-.06,0-.12-.01-.17-.02-.07,0-.14-.01-.21-.02-.41-.05-.82-.07-1.23-.07ZM7.07,6.33v2.38h.59c.31,0,.56-.02.77-.05.21-.04.38-.12.52-.24.13-.12.23-.26.29-.4.06-.15.09-.35.09-.6,0-.22-.04-.41-.11-.57-.08-.16-.21-.28-.4-.38-.13-.06-.28-.1-.45-.11-.17-.02-.37-.02-.6-.02,0,0-.69,0-.69,0ZM7.07,10.31v2.96c.2.02.39.03.59.04.34.04.67.06,1.01.06.38,0,.77-.03,1.15-.07l-1.87-2.98s-.88,0-.88,0Z"
    fill="#6a9fb5"
  />
</svg>
