<!--
  Derived from vsc-material-theme-icons
  Licensed under Apache License 2.0
  http://www.apache.org/licenses/LICENSE-2.0

  Modified under GPLv3
-->
<svg viewBox="0 0 16 16" xmlns="http://www.w3.org/2000/svg">
  <path
    d="M8,.08C3.63.08.08,3.63.08,8s3.55,7.92,7.92,7.92,7.92-3.55,7.92-7.92S12.37.08,8,.08ZM9.63,12.2h0c-.55.23-1.89.78-2.7.08-.26-.23-.39-.52-.39-.87,0-.53.14-1,.39-1.87h0c.06-.22.14-.47.22-.75.07-.26.15-.6.15-.87,0-.46-.18-.59-.65-.59-.23,0-.49.08-.72.17l.13-.53c.52-.21,1.17-.47,1.73-.47.84,0,1.45.42,1.45,1.21,0,.23-.04.63-.12.91l-.48,1.7c-.1.34-.28,1.1,0,1.33.27.22.92.1,1.25-.05l-.13.53s-.08.03-.12.05ZM7.97,4.37c0,.55.44.99.99.99s.99-.44.99-.99-.44-.99-.99-.99-.99.44-.99.99Z"
    fill="#89ddff"
    fill-rule="evenodd"
  />
</svg>
