<!--
  Derived from vsc-material-theme-icons
  Licensed under Apache License 2.0
  http://www.apache.org/licenses/LICENSE-2.0

  Modified under GPLv3
-->
<svg viewBox="0 0 16 16" xmlns="http://www.w3.org/2000/svg">
  <rect fill="#ffffff" width="10" height="7" x="4.5" y="7" />
  <path
    d="m 7.7974843,9.5584903 c 0,-0.2817607 -0.08805,-0.4930815 -0.272956,-0.6251569 C 7.3396226,8.8012579 7.0578616,8.7308176 6.6616353,8.7308176 H 5.9308176 v 1.6993704 h 0.7660378 c 0.7308176,0 1.1006289,-0.290566 1.1006289,-0.8716977 z M 1,2.4 C 1,1.6251572 1.6251572,1 2.4,1 H 13.6 C 14.374842,1 15,1.6251572 15,2.4 V 13.6 C 15,14.374842 14.374842,15 13.6,15 H 2.4 C 1.6251572,15 1,14.374842 1,13.6 Z M 7.9471699,13.784906 6.6880503,11.460378 H 5.9308176 v 2.324528 H 4.6452831 V 7.700629 h 2.1484275 c 0.7660378,0 1.3383649,0.1584905 1.7169813,0.4666666 0.3786163,0.3081761 0.5723269,0.7572327 0.5723269,1.3383646 0,0.4138363 -0.1056603,0.7660378 -0.3257861,1.0477988 -0.2113207,0.290567 -0.5106919,0.493081 -0.8893082,0.607547 l 1.5144655,2.6239 H 7.9383648 Z M 9.9987421,7.6918239 V 13.7761 h 4.3937099 v -1.030188 h -3.108176 v -1.540881 h 2.65912 v -1.030189 h -2.65912 V 8.7132076 h 2.932076 V 7.6830188 h -4.208804 z"
    fill="#dd4b39"
    fill-rule="evenodd"
  />
</svg>
