<!--
  Derived from vsc-material-theme-icons
  Licensed under Apache License 2.0
  http://www.apache.org/licenses/LICENSE-2.0

  Modified under GPLv3
-->
<svg viewBox="0 0 16 16" xmlns="http://www.w3.org/2000/svg">
  <defs>
    <linearGradient
      id="gradient"
      x1="5.33"
      y1="10.26"
      x2="14.21"
      y2="6.28"
      gradientTransform="matrix(0.88719873,0,0,-0.88719873,0.94601709,16.925217)"
      gradientUnits="userSpaceOnUse"
    >
      <stop offset="0" stop-color="#ac4142" id="stop1" />
      <stop offset="1" stop-color="#d14748" id="stop2" />
    </linearGradient>
    <linearGradient
      id="gradient_2"
      x1="6.41"
      y1="9.65"
      x2="8.19"
      y2="8.88"
      gradientTransform="matrix(0.88719873,0,0,-0.88719873,0.94601709,16.925217)"
      gradientUnits="userSpaceOnUse"
    >
      <stop offset="0" stop-color="#f4bf75" id="stop3" />
      <stop offset="1" stop-color="#fb8840" id="stop4" />
    </linearGradient>
    <linearGradient
      id="gradient_3"
      x1="8.48"
      y1="15.85"
      x2="5.92"
      y2="-1.8"
      gradientTransform="matrix(0.88719873,0,0,-0.88719873,0.94601709,16.925217)"
      gradientUnits="userSpaceOnUse"
    >
      <stop offset="0" stop-color="#fff" id="stop5" />
      <stop offset="1" stop-color="#fff" stop-opacity="0" id="stop6" />
    </linearGradient>
  </defs>
  <path
    d="m 13.650703,5.6489216 c 0,-0.8339669 -0.221799,-1.6058299 -0.621039,-2.280101 -1.055766,-1.0468945 -3.3536117,-1.2864382 -3.9214183,0 C 8.5226944,4.6818749 10.093036,6.1457527 10.776179,6.030417 11.645634,5.8795931 10.625355,3.9543719 10.625355,3.9543719 11.965026,6.3764244 11.654506,5.6311774 9.2413255,7.8580464 6.8281447,10.084915 4.3617323,14.778197 4.0068528,14.973381 3.9891082,14.982251 3.9802373,14.991121 3.9624927,15 h 9.4664113 c 0.168567,0 0.27503,-0.168568 0.204056,-0.310521 L 11.157675,9.9695809 c -0.05323,-0.097592 -0.01774,-0.2306723 0.08872,-0.2839043 1.446135,-0.7984825 2.422054,-2.3067203 2.422054,-4.027886 z"
    fill="url(#gradient)"
  />
  <path
    d="M 3.9979808,14.964508 C 4.3617323,14.769325 6.8192728,10.067171 9.2324534,7.8491742 11.645634,5.6223056 11.956154,6.3675524 10.616484,3.9454999 c 0,0 -5.1102653,6.8935341 -6.9556388,10.3092491"
    fill="#f07178"
  />
  <path
    d="M 4.7166117,8.7807331 C 8.1678149,2.6768056 8.6202864,2.0646386 10.412428,2.0646386 c 0.949303,0 1.898605,0.4081114 2.510772,1.1356142 C 12.089233,1.8960707 10.59874,1.026616 8.9041898,1 H 3.0398063 C 2.9155983,1 2.8180065,1.0975919 2.8180065,1.2129277 V 12.586815 C 3.164014,11.717361 3.7584372,10.475282 4.7166117,8.7807331 Z"
    fill="#fc8289"
  />
  <path
    d="M 9.2324534,7.8403023 C 6.8192728,10.067171 4.3528602,14.760453 3.9979808,14.955637 3.6342294,15.15082 3.0309342,15.177436 2.7115426,14.831429 2.3744071,14.458805 1.8420878,13.864382 4.7166117,8.771861 8.1678149,2.6768056 8.6202864,2.0557666 10.412428,2.0557666 c 0.949303,0 1.898605,0.4081113 2.510772,1.1356143 0.03549,0.053232 0.07098,0.106464 0.0976,0.1596958 -1.055766,-1.0468946 -3.3536117,-1.2864381 -3.9214192,0 C 8.5138225,4.6641308 10.084164,6.1280088 10.767307,6.0126729 11.636761,5.861849 10.616484,3.9366278 10.616484,3.9366278 11.947281,6.3586804 11.636761,5.6134335 9.2235814,7.8403023 v 0 z"
    fill="url(#gradient_2)"
  />
  <path
    d="M 5.0005154,9.0557647 C 8.4517185,2.9518374 8.8953179,2.3307982 10.696332,2.3307982 c 0.780735,0 1.561469,0.2750315 2.155893,0.7807348 -0.612168,-0.674271 -1.525982,-1.0557664 -2.439797,-1.0557664 -1.8010138,0 -2.253485,0.612167 -5.7046882,6.7249665 C 1.8332159,13.873254 2.3655351,14.467677 2.7026707,14.8403 c 0.04436,0.05324 0.1064639,0.0976 0.1685676,0.133081 C 2.5695908,14.556398 2.4365111,13.580478 4.9916434,9.0557647 v 0 z"
    fill="url(#gradient_3)"
    opacity="0.3"
  />
</svg>
