<svg viewBox="0 0 16 16" xmlns="http://www.w3.org/2000/svg">
  <circle cx="8" cy="8" r="8" fill="url(#paint0_linear_8_11)" />
  <path
    d="m13.6 7.3023h-1.9978l0.30795-0.41728-2.2074-0.0050667-1.0783 1.4955h2.0955l-0.92555 1.3981h-1.5811l1.92 1.6397 3.84-1.6397h-1.9003z"
    fill="#fff"
  />
  <path d="m13.173 5.1733h-2.24l-0.30763 0.42667h2.2327z" fill="#fff" />
  <path d="m12.563 6h-2.226l-0.33728 0.46779h2.218z" fill="#fff" />
  <path
    d="m8.0326 7.0707c0 0.37765-0.1024 0.71936-0.30715 1.0251-0.2048 0.30571-0.50293 0.53051-0.8944 0.6744l1.3822 2.5898h-2.2405l-1.1022-2.2571h-0.7408v2.2571h-1.9966v-6.1867h3.8034c0.44565 0 0.82512 0.086923 1.1383 0.2608 0.3192 0.16784 0.55712 0.39861 0.71371 0.69237 0.16261 0.28773 0.24389 0.60251 0.24389 0.94421zm-2.0327 0.080907c0-0.16187-0.054187-0.29675-0.16261-0.40464-0.10837-0.10789-0.24091-0.16187-0.39749-0.16187h-1.31v1.142h1.31c0.15659 0 0.28912-0.053973 0.39749-0.16187 0.10843-0.11392 0.16261-0.25179 0.16261-0.41365z"
    fill="#fff"
  />
  <defs>
    <linearGradient
      id="paint0_linear_8_11"
      x1="150"
      x2="150"
      y2="300"
      gradientTransform="scale(.053333)"
      gradientUnits="userSpaceOnUse"
    >
      <stop stop-color="#F0DB4F" offset="0" />
      <stop stop-color="#FF5D13" offset=".92" />
    </linearGradient>
  </defs>
</svg>
