<svg viewBox="0 0 16 16" xmlns="http://www.w3.org/2000/svg">
  <path
    d="m1.8876 12.066a28.08 28.08 0 0 0-1.1537 0.5384l-0.23074 0.26279c-0.089734 0.23715-0.070505 0.61532-0.10896 0.86529l0.10896 0.23074 0.1346-0.05128s0.057686-0.21152 0.41021-0.57045l0.32689-0.27561s1.1601-0.69223 1.3268-0.76915z"
    fill="#ff5a5a"
  />
  <path
    d="m2.6952 12.272c-0.49354 0.41021-1.1473 0.62814-1.6024 1.0768l-0.11537 0.16665c0.79479-0.48713 1.6088 0.30766 2.3331 0.51918 0.17306 0.05128 0.012819-0.04487 0-0.16024-0.012819-0.05128 0.019229-0.1346 0.096144-0.24997v-0.17947l-0.49995-0.12819 0.089734-0.44867 0.24997-0.18588c0.051277-0.08332 0.29484-0.21152 0.35253-0.29484l-0.53199-0.12178z"
    fill="#9d3737"
  />
  <path
    d="m12.726 12.207v-0.58327l-0.02564-0.45508-0.10896-0.43585-0.10255-0.28843-0.16024-0.26279-0.12819-0.23074-0.11537 0.28843-0.21792 0.35894-0.16665 0.20511-0.21152 0.17947-0.4038 0.21793h-0.37816l-0.36535-0.17306-0.32689-0.17947-0.23074-0.30125-0.070505-0.22434-0.12819-0.76274-0.057686 0.15383-0.1987 0.37176-0.23074 0.3333-0.32048 0.28843-0.26279 0.14101-0.34612 0.096144-0.26279-0.012819-0.71146-0.32048-0.35253-0.42944-0.11537-0.23074-0.28843 0.57686-0.32689 0.41662-0.51277 0.5384-0.50636 0.32048-0.44226 0.3333c0.019229 0.19229 0.083324 0.32689 0.17947 0.41021 0.26279 0.20511 0.42303 0.55763 0.6666 0.73069 0.30125 0.22434 0.58327 0.3333 0.85888 0.50636 0.26279 0.16024 0.32048 0.46149 0.55122 0.58968 0.84606 0.47431 1.6344 0.53199 1.8395 0.49995 0.24356 0.04487 0.57045-0.0064 0.81402-0.0064 0.16665-0.03846 0.57045-0.07692 0.78197-0.16665 0.32689-0.1346 0.85888-0.32689 1.1794-0.53199 0.37816-0.24356 0.62173-0.61532 0.71146-0.72428 0.09614-0.10896 0.18588-0.32048 0.25638-0.43585 0.07051-0.15383 0.10896-0.30125 0.16665-0.46149z"
    fill="url(#b)"
  />
  <path
    d="m5.759 11.554c0.44867 0.673 2.1152 0.27561 2.1152-0.56404 0 0-0.47431-0.10255-0.67941-0.30125l-0.45508-0.55122c-0.24997 0.49354-0.98066 1.0512-1.0512 1.2947zm5.3264-0.30125c-0.03205 0.67942 1.0448 0.99989 1.5639 0.67942 0.02564-0.63455-0.05128-1.314-0.44867-1.8267-0.12178 0.14101-0.1346 0.44867-0.46149 0.74351a2.2433 2.2433 0 0 1-0.65378 0.4038z"
    fill="#f28773"
  />
  <path
    d="m8.9318 10.945c0.10255 0.35253 0.64096 0.44226 1.0255 0.50636-0.32689 0.10896-0.69223 0.05769-0.99348-0.10255-0.16665-0.0705-0.30766-0.34612-0.032048-0.4038z"
    fill="#564341"
  />
  <path
    d="m4.6245 12.329c-0.076915-0.12178-1.1473 0.08332-1.6344 0.673-0.23715 0.24997 0.096144 0.37816 0.3333 0.34612 0.71787-0.18588 0.61532-0.60891 1.6665-0.49354 0.012819 0-0.18588-0.22434-0.36535-0.52558z"
    fill="url(#c)"
  />
  <path
    d="m5.1052 12.97c-0.49354-0.18588-1.2563 0.012819-1.6408 0.52558-0.1346 0.17947-0.34612 0.71146-0.10896 0.66019 0.59609-0.1346 1.0255-0.12819 1.1024-0.1987 0.27561-0.26279 0.47431-0.44226 1.1922-0.4679-0.089734-0.11537-0.36535-0.44867-0.54481-0.51918z"
    fill="url(#d)"
  />
  <path
    d="m6.041 13.605a1.4165 1.4165 0 0 0-1.4742 0.28843c-0.89734 0.81402-0.77556 1.314-0.77556 1.314l0.089734 0.16024c0.24997 0.09614 1.314-0.20511 1.6088-0.28843 0.55763-0.16024 1.1601-0.21793 1.7178-0.39739 0 0-0.98707-0.95503-1.1665-1.0768z"
    fill="url(#e)"
  />
  <path
    d="m10.534 14.739c0.71787 0.05769 1.4101 0.28843 2.0767 0.5384l0.16665 0.05128 0.1346-0.02564c0.18588-0.29484-0.10896-0.6025-0.29484-0.82042-0.17947-0.17947-0.47431-0.26279-0.71146-0.30766-0.51276-0.05128-0.9358 0.35253-1.3716 0.56404z"
    fill="url(#f)"
  />
  <path
    d="m11.566 14.22c0.42944-0.12819 0.90375 0.01923 1.2178 0.37176 0 0 0.24356 0.14742 0.31407 0.10255 0.0641-0.03846-0.01282-0.33971-0.05128-0.4038-0.21793-0.42303-0.39098-0.67941-0.82684-0.8012-0.21152 0.24356-0.41662 0.50636-0.66018 0.73069z"
    fill="url(#g)"
  />
  <path
    d="m12.316 13.464c0.59609 0.19229 0.43585 0.4038 0.98066 0.53199 0.03205 0.0064 0.03846-0.14742 0.03846-0.17947 0-0.17306-0.46149-0.56404-0.71146-0.72428-0.10255-0.07051-0.35894 0.35894-0.30766 0.37176z"
    fill="url(#h)"
  />
  <path
    d="m10.009 6.567c0.03205 0.1987-0.032048 0.77556-0.032048 0.77556 1.6921-0.44226 3.9996-2.9548 0.58327-2.4677 0.35894-0.52558 1.096-0.80761 1.3716-1.4101l-0.01282-0.070505a5.5443 5.5443 0 0 0-4.0124 2.0767l-0.076915 0.22433 0.10255 0.25638c0.69864 0.21152 1.455 0.15383 2.1793 0.21152 0 0-0.12178 0.33971-0.10255 0.4038z"
    fill="url(#i)"
  />
  <path
    d="m9.6624 9.3039c-0.30125 0.99989 0.80761 1.2178 1.5639 0.85247 1.6921-1.346 1.237-4.4803-1.2947-2.6151-0.14101 0.23074-0.10255 0.84606-0.10896 0.8717z"
    fill="url(#j)"
  />
  <path
    d="m6.823 9.509c0.064096 0.4679 0.96144 0.56404 1.4293 0.35253 1.1024-0.36535 1.4293-2.5061 0.99348-3.1407-0.038457-0.057686-0.58968-0.1346-0.80761-0.16024-0.62173-0.057686-1.3652 0.51918-1.6793 1.3396-0.089734 0.21793 0.032048 0.49354 0.051277 0.71787 0.032048 0.30766-0.019229 0.66019 0.012819 0.88452z"
    fill="url(#k)"
  />
  <path
    d="m6.7974 9.7077s1.6665 1.1537 2.4933-1.0384c0.20511-0.56404 0.11537-1.3973 0.12178-1.7755 0.72428 0.35253 0.17947 2.3587 0.12819 2.5959-0.18588 0.84606-1.0127 1.5127-1.7114 1.3268-1.0448-0.27561-1.0319-1.1089-1.0319-1.1089zm2.8651 0.39098 0.14742 0.05769c0.45508 0.33971 1.1024 0.21792 1.5447-0.07691 0.64737-0.52558 0.70505-1.2306 0.95503-1.9485l0.04487 0.044867c0.09614 0.74992-0.08332 1.5127-0.34612 2.2113-0.58968 1.173-2.1408 1.0768-2.3459-0.28843z"
    fill="#fff"
  />
  <path
    d="m9.9957 8.4258c-0.10896 0.26279-0.14742 0.58968-0.070505 0.8717 0.18588 0.42944 0.69864 0.46149 0.99348 0.12178 0.85247-0.91016-0.16665-2.4549-0.92298-0.99989zm-1.4742-0.012819c0.16024-1.8716-1.7947-0.85247-1.3011 0.49995 0.42303 0.67941 1.1537 0.064096 1.3011-0.49995z"
    fill="#fff"
  />
  <path
    d="m12.579 13.336c0.01923 0.12178 0.10255 0.23715 0.10255 0.23715l-0.17947-0.12819-0.12178-0.05769 0.15383-0.26279 0.0641 0.03205s-0.03205 0.07691-0.01923 0.17947z"
    fill="url(#l)"
  />
  <path
    d="m12.201 13.97c0.05128 0.12178 0.21792 0.26279 0.21792 0.26279l-0.41662-0.12819-0.20511-0.01923 0.35894-0.4038s-0.0064 0.16665 0.04487 0.28843z"
    fill="url(#m)"
  />
  <path
    d="m4.4066 15.258s1.1601-0.34612 1.628-0.81402c0.31407-0.32048 0.057686-0.71787 0.10255-0.69864 0.32048 0.14101 0.41662 0.35253 0.6025 0.58327 0.083325 0.10255 0.46149 0.34612 0.46149 0.34612s-0.62173 0.08973-0.87811 0.16665c-0.46149 0.14101-1.9165 0.41662-1.9165 0.41662z"
    fill="url(#n)"
  />
  <path
    d="m11.579 14.425c0.04487 0.26279 0.10896 0.3333 0.6025 0.58327 0.01923 0.0064-0.28843-0.09614-0.76274-0.21792-0.16024-0.03846-0.64096-0.11537-0.64096-0.11537s0.34612-0.1346 0.43585-0.19229c0.10896-0.07691 0.39739-0.1987 0.39739-0.1987s-0.03846 0.11537-0.03205 0.14101z"
    fill="url(#o)"
  />
  <path
    d="m4.4002 13.893c-0.057686 0.01282-0.26279 0.03846-0.4679 0.09614l-0.3333 0.09614c-0.044867 0.01282-0.17306 0.02564-0.21793-0.0064-0.012819-0.01282-0.038457-0.05769-0.019229-0.0641 0.55763-0.12178 0.89734-0.2692 1.1409-0.42303 0.42944-0.25638 0.50636-0.45508 0.5384-0.60891 0.019229-0.0641 0.17306 0.08333 0.22433 0.14101l0.28202 0.28843s-0.4038 0.07691-0.52558 0.11537c-0.27561 0.07691-0.54481 0.33971-0.62173 0.35894z"
    fill="url(#p)"
  />
  <path
    d="m2.9452 13.271c0.51277-0.20511 1.0255-0.37816 1.5768-0.92939 0.038457-0.03846 0.14742 0.05128 0.16024 0.08332 0.076915 0.17947 0.21152 0.37176 0.12178 0.36534-0.54481-0.0641-0.87811 0.16665-1.1217 0.35253-0.17306 0.1346-0.78838 0.14742-0.7371 0.12819z"
    fill="url(#q)"
  />
  <path
    d="m12.656 10.919c0.02564 0.16024 0.02564 0.60891 0.08973 0.64096 1.0319 0.58968 2.551 0.5384 2.833-0.77556l0.15383-0.02564 0.14101-0.15383a7.5889 7.5889 0 0 0 0.10256-0.75633l-0.083324-0.36535-0.16024-0.3333-0.41662-0.4679-0.45508-0.26279-0.48713-0.14742-0.58968-0.057686-0.44867 0.038457-0.52558 0.12819c-0.08333 0.044867-0.32048 0.18588-0.38457 0.24997-0.03205 0.15383-0.08973 0.45508-0.12819 0.6025-0.01923 0.10255-0.01923 0.32048-0.0641 0.42944l-0.01282 0.22434 0.0641 0.26279c0.14101 0.27561 0.30125 0.45508 0.37176 0.76915z"
    fill="url(#r)"
  />
  <path
    d="m13.111 11.759c-0.71146-1.6152 0.10896-3.2176 1.9549-3.192-0.42944-0.28202-0.78197-0.32048-1.2819-0.34612l-0.24997 0.038457-0.17947-0.019229c-0.30766 0.089734-0.70505 0.17306-0.9358 0.41021-0.0064 0.14101-0.08973 0.46149-0.12178 0.6025-0.03846 0.10255-0.16024 0.41021-0.15383 0.51918l0.17947 0.42944c0.12819 0.24997 0.1987 0.34612 0.25638 0.62814l0.11537 0.42944 0.05769 0.30125z"
    fill="url(#s)"
  />
  <path
    d="m13.707 9.6564c0.03205-0.064096 0.0064-0.20511-0.09614-0.27561-0.12178-0.070505-0.29484-0.064096-0.37176 0.089734-0.05128 0.12178 0.02564 0.24356 0.14742 0.30125 0.11537 0.064096 0.25638 0 0.32048-0.11537z"
    fill="url(#t)"
  />
  <path
    d="m15.207 9.5987c-0.09614 0.16665-0.38457 0.28843-0.7371 0.17947-0.41021-0.12819-0.84606-0.53199-0.51276-0.98066 0.14742-0.1987 0.55763-0.19229 0.84606-0.051277 0.21152 0.10255 0.63455 0.4679 0.4038 0.85247z"
    fill="url(#u)"
  />
  <path
    d="m12.733 9.9897c0.18588 0.3333 0.29484 0.5384 0.8717 0.5384 0.19229 0 0.23074 0.29484 0.60891 0.6025 0.18588 0.15383 0.55122 0.14742 0.76274 0.01923 0.12819-0.07051 0.17306-0.04487 0.21152-0.01923 0.08973 0.05128 0.10896 0.03205 0.22434 0.02564 0 0 0.14101-0.1987 0.08973-0.3333-0.17306-0.10896-0.31407-0.1987-0.52558-0.19229l-0.12178 0.11537-0.09614 0.14101-0.10896 0.07051-0.16665-0.01282a2.2498 2.2498 0 0 1-0.41662-0.47431c-0.24997-0.25638-0.50636-0.1987-0.82683-0.16024-0.15383-0.089734-0.34612-0.23716-0.50636-0.32048z"
    fill="#ed8870"
  />
  <path
    d="m4.163 12.195a4.179 4.179 0 0 0 2.8843-3.3073l0.0064096-0.30766 0.057686-0.23715c-0.032048-0.21793-0.019229-0.55122-0.032048-0.76915l0.17947-0.076915 0.15383-0.032048 0.12178-0.083324c0.076915-0.19229 0.064096-0.17947 0.051277-0.38457-1.237-2.4805-5.2366-3.0253-6.8006-0.59609-1.628 2.2946-0.17947 6.2814 2.942 5.9096z"
    fill="url(#v)"
  />
  <path
    d="m2.9004 10.823c0.096144-0.50636 2.7241-0.82683 2.9869-1.6793 0.11537-0.86529 0.42944-0.96144 1.1794-1.0384v-0.43585l-0.11537-0.10255a6.1275 6.1275 0 0 1-0.8717 0.18588c-0.17947 0.00641-0.44867 0.00641-0.61532 0.051277l-0.064096 0.24997c0.083324 0.17306 0.17306 0.80761 0.17306 0.80761a3.083 3.083 0 0 1-0.057686 0.35253c-0.8012 0.61532-1.9036 0.66019-2.7818 1.1409l-0.051277 0.14742z"
    fill="#f28773"
  />
  <path
    d="m4.8104 11.957c-3.1535 0.27561-4.6341-3.8137-3.2945-6.3583 0 0-0.47431 0.36535-0.52558 0.44867-0.62814 0.96784-0.96785 1.6857-0.86529 2.9933l0.17306 0.91016 0.30125 0.60891a2.9035 2.9035 0 0 0 3.365 1.6793l0.32689-0.0641z"
    fill="url(#w)"
  />
  <path
    d="m4.304 7.9835c0.20511 0.24997 0.096144 0.56404-0.14742 0.85888-0.27561 0.33971-0.75633 0.37176-1.0063 0.1346-0.1987-0.18588-0.24997-0.57686 0.18588-0.94862 0.37176-0.31407 0.78838-0.25638 0.96784-0.044867z"
    fill="url(#x)"
  />
  <path
    d="m3.5541 6.1953c0.2692 0.2692 0.35894 0.91657-0.30766 1.5832-0.48072 0.48072-1.4165 1.0448-2.0575 0.33971-0.4679-0.51277 0.019229-1.314 0.48072-1.7178 0.35253-0.31407 1.3524-0.75633 1.8844-0.20511z"
    fill="url(#y)"
  />
  <path
    d="m3.2785 10.528 0.57045 0.43585 0.76915-0.18588 0.10896-1.0063-1.3652 0.39098z"
    fill="#564341"
  />
  <path
    d="m3.8554 10.9-0.14742 0.75633 0.8012-0.30766 0.11537-0.64737z"
    fill="#7d7c7d"
  />
  <path
    d="m3.8554 10.9-0.57686-0.37176-0.10896 0.58968 0.5384 0.5384z"
    fill="#989697"
  />
  <path
    d="m4.2207 4.3301-0.10896 0.51918 1.1024 0.23074 0.12819-0.673z"
    fill="#564341"
  />
  <path
    d="m2.9068 4.2147 3.5124 0.19229 0.78197-0.30125 0.33971-2.3715-0.79479-0.6666-0.73069-0.083324-0.19229 0.16665-0.28202 0.076915-0.28843-0.0064095h-0.25638l-0.23074-0.032048-0.19229-0.044867-0.15383-0.044867-0.12819-0.083324-0.1346-0.083324-0.070505-0.1346-1.1089-0.083324 0.23074 0.71787z"
    fill="#b6b6b6"
  />
  <path
    d="m5.1373 2.2213-0.59609 0.50636 0.55763 0.43585-0.36535 0.58968 1.0768-0.27561-0.42944-0.60891-0.076915-0.14742 0.36535-0.52558-0.19229-0.051277z"
    fill="#ffed7e"
  />
  <path
    d="m2.9388 0.7343-0.673 0.4038-0.12178 0.76274 1.0191-0.49995z"
    fill="#b6b6b6"
  />
  <path
    d="m3.2208 1.4586-0.34612 2.7497-0.64096-0.42303-0.25638-0.49995 0.15383-1.3332zm0.85888-0.67941 0.21152 0.23074 0.59609 0.18588 0.57045 0.012819c0.18588-0.057686 0.35253-0.064096 0.48072-0.21152l0.025638-0.10896c-0.28202-0.26279-0.73069-0.2692-1.0896-0.28843l-0.57686 0.038457z"
    fill="#979797"
  />
  <path
    d="m5.0924 0.49714c0.46149 0.038457 0.85888 0.19229 0.9358 0.38457l0.71146 0.089734 0.025638 0.00641c0.076915 0.032047 0.25638 0.16024 0.48072 0.3333a5.884 5.884 0 0 1 0.26279 0.21793l0.083324 0.076915a0.12819 0.12819 0 0 1 0.032048 0.064096c0.019229 0.012819 0.025638 0.038458 0.025638 0.070505v0.00641l-0.00641 0.019229-0.00641 0.083324a81.171 81.171 0 0 1-0.18588 1.5511l-0.10896 0.71787c-0.019229 0.076915-0.14742 0.14101-0.43585 0.24997l-0.019229 0.00641-0.012819 0.00641c-0.20511 0.070504-0.38457 0.12819-0.44867 0.12819l-1.0127-0.057686-0.076915 0.54481a4.2047 4.2047 0 0 1 1.8011 1.205l-0.00641-0.00641 0.012819 0.012819a2.4549 2.4549 0 0 1 0.37817 0.48713c0.17306-0.12178 0.34612-0.1987 0.52558-0.23074 0.81402-0.14742 1.4998 0.1346 1.7819 0.70505l0.057686-0.45508v-0.032048l0.00641-0.019229v-0.038457c0.012819-0.10896 0.012819-0.20511 0-0.31407l-0.032048-0.044867h-0.064096l-0.00641-0.00641-0.10896-0.00641h-0.012819c-0.58327-0.025637-0.88452-0.038456-1.1473-0.076914h-0.025638l-0.019229-0.00641-0.044867-0.00641c-0.39098-0.057685-0.61532-0.15383-0.68582-0.3333-0.064096-0.15383-0.0064095-0.3333 0.1346-0.53199 0.089734-0.12819 0.1987-0.24997 0.33971-0.39098 0.22434-0.22434 0.64096-0.54481 1.0704-0.82042 0.55122-0.35253 1.0896-0.6025 1.5575-0.71146 0.60891-0.1346 1.1024-0.16024 1.1986 0.032048 0.05769 0.10896-0.0064 0.22434-0.16024 0.39098-0.10255 0.11537-0.24997 0.25638-0.43585 0.41662a13.274 13.274 0 0 1-0.4038 0.33971l-0.09614 0.076915h-0.0064l-0.0064 0.00641v0.00641l-0.01923 0.012819-0.07691 0.057686v0.00641l0.01923-0.00641a4.0316 4.0316 0 0 1 0.55122-0.032048l0.02564 0.00641c0.25638 0.00641 0.4679 0.044867 0.63455 0.1346a0.66019 0.66019 0 0 1 0.37176 0.51918c0.0641 0.44226-0.4679 1.0576-1.1986 1.5127 0.25638 0.00641 0.51276 0.070505 0.68582 0.21152a1.4742 1.4742 0 0 1 0.48713 0.673 1.9485 1.9485 0 0 1 0.10896 0.65378c0.7371-0.39098 1.7242-0.37816 2.4805 0.019229 0.85888 0.45508 1.2178 1.2883 0.84606 2.269a0.2692 0.2692 0 0 1-0.23074 0.18588l0.0064 0.02564a0.51277 0.51277 0 0 1-0.07051 0.26279 1.987 1.987 0 0 1-0.32048 0.41662c-0.48713 0.51276-1.3845 0.62814-2.0639 0.28843l-0.0641-0.03205h-0.01282l-0.0064-0.0064h-0.0064v-0.0064l-0.07051-0.03205-0.16024-0.08332a3.0702 3.0702 0 0 1-0.21154 1.1537l-0.0064 0.02564-0.0064 0.01923-0.01923 0.03846a2.442 2.442 0 0 1 0.32048 0.17306 1.5062 1.5062 0 0 1 0.35253 0.3333 1.3524 1.3524 0 0 1 0.15383 0.24997c0.05769 0.14101 0.0705 0.26279-0.0064 0.35253-0.0641 0.07691-0.17306 0.09614-0.30125 0.0705a1.8075 1.8075 0 0 1 0.1346 0.31407c0.05128 0.16024 0.03846 0.28843-0.07051 0.37176-0.03846 0.02564-0.09614 0.03205-0.16665 0.02564 0.11537 0.24356 0.10896 0.48713-0.07691 0.57686-0.09614 0.05128-0.21792 0.03846-0.4038-0.03205l-0.22434-0.08332h-0.01282l-0.01923-0.01282-0.03846-0.01282-0.01282-0.0064-0.23074-0.08973a4.4739 4.4739 0 0 0-0.60252-0.17308l-0.11537-0.02564-0.1346-0.02564a4.147 4.147 0 0 0-0.91657-0.07691 0.10896 0.10896 0 0 1-0.04487 0 5.2687 5.2687 0 0 1-1.3588 0.12178c-0.47431-0.012821-0.73069-0.032049-0.99989-0.083326a2.9548 2.9548 0 0 1-0.21793-0.051276c-0.24356-0.05128-0.87811 0.03205-1.2755 0.16024a4.3393 4.3393 0 0 1-0.32689 0.08332l-0.46149 0.10255-0.025638 0.0064h-0.00641l-0.038457 0.01282h-0.012819l-0.019229 0.0064-0.39739 0.08973a8.3645 8.3645 0 0 0-0.20511 0.05128l-0.083324 0.02564-0.096144 0.02564a4.1854 4.1854 0 0 1-0.23715 0.05128c-0.29484 0.0577-0.49995 0.0577-0.63455-0.03844-0.10255-0.083325-0.14101-0.21152-0.12819-0.37176a1.6152 1.6152 0 0 1 0.46149-0.92298v-0.0064h-0.00641a6.5634 6.5634 0 0 0-0.21152 0.05769l-0.019229 0.0064-0.00641 0.0064-0.15383 0.03846-0.00641 0.0064h-0.012819l-0.012819 0.0064-0.019229 0.0064h-0.012819l-0.019229 0.0064c-0.12178 0.02564-0.21152 0.03205-0.28843 0.01282a0.2692 0.2692 0 0 1-0.18588-0.19225l-0.089734-0.02564c-0.24997-0.089732-0.47431-0.21151-0.83965-0.44226-0.10255-0.057687-0.41021-0.15383-0.53199-0.16665-0.23715-0.025638-0.65378 0.083324-0.83324 0.20511a1.4422 1.4422 0 0 0-0.1346 0.21152v0.0064l-0.019229 0.03846-0.00641 0.01282-0.00641 0.0064-0.044867 0.09614c-0.032048 0.05128-0.070505 0.07692-0.12178 0.08333-0.057686 0-0.096144-0.03205-0.12178-0.08333-0.019229-0.03205-0.038457-0.07691-0.051277-0.12819a1.9101 1.9101 0 0 1-0.044867-0.37816c-0.012818-0.32687 0.032049-0.62171 0.14101-0.76272 0.15383-0.1987 0.39098-0.33971 0.76274-0.49354l0.42944-0.16665 0.15383-0.07051a3.365 3.365 0 0 1-1.2242-1.2114 4.1983 4.1983 0 0 1 0.19229-4.5957 3.7304 3.7304 0 0 1 3.1407-1.4742l0.1346 0.00641 0.076915-0.37816-0.74351-0.044867h-0.025638a27.946 27.946 0 0 0-0.50636-0.038458c-0.27561-0.1346-0.58327-0.33971-0.673-0.42944-0.12819-0.12819-0.28843-0.56404-0.28843-0.71787 0-0.23715 0.057686-0.69223 0.15383-1.2563l0.012819-0.070505 0.00641-0.025638v-0.00641l0.00641-0.019229 0.00641-0.044867v-0.019228l0.00641-0.019229v-0.025638l0.083324-0.44867 0.00641-0.00641 0.012819-0.070505v-0.00641c0.019227-0.057686 0.10896-0.11537 0.35252-0.25638a11.736 11.736 0 0 1 0.35894-0.20511l0.025638-0.012819 0.00641-0.00641c0.012819-0.00641 0.032048-0.012819 0.044867-0.00641h0.012819a33.003 33.003 0 0 1 0.47431 0.025638 73.922 73.922 0 0 1 0.5384 0.038457h0.00641a0.26279 0.26279 0 0 1 0.10896-0.089734c0.064096-0.032048 0.14742-0.057686 0.24997-0.076915 0.20511-0.044867 0.4679-0.057686 0.71787-0.038457zm0.4038 13.133h-0.032048l-0.012819 0.0064h-0.032048l-0.019229 0.0064a2.16 2.16 0 0 0-0.24997 0.03846c-0.14101 0.03205-0.39098 0.16665-0.55763 0.30125-0.21152 0.16665-0.49995 0.51277-0.58968 0.71146-0.12819 0.31407-0.14742 0.50636-0.070505 0.56404 0.064096 0.04487 0.22433 0.04487 0.45508 0a3.9291 3.9291 0 0 0 0.32048-0.07691l0.083324-0.02564a9.4541 9.4541 0 0 1 0.6025-0.14101l0.051276-0.0128 0.012819-0.0064h0.025638l0.057686-0.01282 0.012819-0.0064 0.41021-0.08973c0.12819-0.02564 0.22433-0.05769 0.30766-0.08332a4.4547 4.4547 0 0 1 0.81402-0.16027 1.9485 1.9485 0 0 1-0.26279-0.17947 1.5191 1.5191 0 0 1-0.23074-0.24997 2.2433 2.2433 0 0 0-0.19229-0.22434l-0.01282-0.0128a1.1217 1.1217 0 0 0-0.070505-0.05769 2.301 2.301 0 0 0-0.48072-0.30125c-0.025638-0.0064-0.17947-0.0064-0.33971 0.01282zm6.3134 0.64737a0.91016 0.91016 0 0 0-0.39739 0.10896 0.10896 0.10896 0 0 1-0.03205 0.01282 3.5637 3.5637 0 0 1-0.24997 0.1346l-0.02564 0.01282-0.2692 0.12178a5.4225 5.4225 0 0 1 0.49995 0.08973l0.05128 0.0064 0.01282 0.0064 0.05128 0.0064c0.21152 0.05128 0.41021 0.10896 0.62814 0.18588a17.646 17.646 0 0 1 0.24997 0.09614l0.03205 0.01282 0.01923 0.0064 0.0064 0.0064 0.23074 0.08333c0.1346 0.04487 0.21152 0.05769 0.23715 0.04487 0.03205-0.01923 0.04487-0.10255 0-0.23716a0.94221 0.94221 0 0 0-0.23715-0.35894l-0.0064-0.0064-0.10896-0.08973c-0.24998-0.17944-0.48072-0.24994-0.69224-0.24353zm-2.2818-4.288c-0.1346 0.26279-0.30766 0.48713-0.52558 0.673l-0.00641 0.0064-0.012819 0.01282c-0.4038 0.35894-0.94221 0.43586-1.4422 0.24357l-0.012819-0.0064c-0.36535-0.14102-0.65378-0.41663-0.79479-0.74993a4.1342 4.1342 0 0 1-1.8972 1.878l0.00641 0.11537c0 0.08973 0.00641 0.16665 0.032048 0.24997a0.52558 0.52558 0 0 0 0.20511 0.30125 1.6921 1.6921 0 0 1 0.19229 0.15383 0.10896 0.10896 0 0 1 0.051277 0.05128 3.615 3.615 0 0 1 0.12819 0.12819l0.01923 0.0192 0.064096 0.0641 0.00641 0.01282 0.11537 0.11537c0.064096 0.05128 0.11537 0.08973 0.16665 0.11537 0.28202 0.12178 0.48072 0.24997 0.63455 0.37816 0.11537 0.09614 0.16665 0.15383 0.30125 0.32689a1.3268 1.3268 0 0 0 0.20511 0.21792l0.089734 0.07051c0.24356 0.16024 0.50636 0.26279 0.82683 0.32048 0.25638 0.05128 0.49995 0.0705 0.96144 0.08332 0.77556 0.02564 1.5447-0.11537 2.1664-0.42303a2.6536 2.6536 0 0 0 1.4229-1.5447 2.9356 2.9356 0 0 0-0.21792-2.6023 2.4805 2.4805 0 0 1-0.35253 0.58968c-0.2692 0.32691-0.6025 0.5256-0.99349 0.54483-0.35253 0.012819-0.84606-0.23715-1.0704-0.57686-0.14101-0.21152-0.20511-0.4038-0.2692-0.76915zm2.7561 3.583-0.0064 0.0064a2.7818 2.7818 0 0 1-0.42944 0.48072 1.3588 1.3588 0 0 1 0.91016 0.39098 0.92298 0.92298 0 0 0 0.23074 0.14101l0.08332 0.01923c0.0064-0.01282 0.0064-0.05128-0.01282-0.10896v-0.0064a1.8524 1.8524 0 0 0-0.14102-0.32048 1.2435 1.2435 0 0 0-0.16665-0.24997 1.4486 1.4486 0 0 0-0.10896-0.10896 1.3076 1.3076 0 0 0-0.35894-0.24356zm-8.1594-0.49995a1.2755 1.2755 0 0 0-0.35253 0.22434 0.10896 0.10896 0 0 1-0.019229 0.02564 1.4037 1.4037 0 0 0-0.26279 0.34612l-0.00641 0.01923-0.00641 0.0064v0.0064l-0.00641 0.0064c-0.057686 0.10896-0.10255 0.22434-0.096144 0.26279 0.00641 0.0641 0.019229 0.08973 0.044867 0.09614 0.038457 0.01282 0.089734 0.0064 0.17947-0.01282l0.051277-0.01282 0.025638-0.0064 0.12819-0.03846 0.00641-0.0064h0.012819l0.012819-0.0064h0.012819l0.019229-0.0064a12.338 12.338 0 0 1 0.21793-0.0641c0.1346-0.03205 0.24356-0.05769 0.32689-0.0641l0.044867-0.03846c0.18588-0.14742 0.4679-0.29484 0.63455-0.33971 0.11537-0.02564 0.2692-0.05128 0.41021-0.05769l-0.12819-0.12819-0.057686-0.0641h-0.00641l-0.00641-0.0064-0.00641-0.01282-0.057686-0.0641-0.089734-0.08333c-0.26279-0.10254-0.78196-0.096128-1.0255 0.019244zm-1.3781-0.71146a9.1336 9.1336 0 0 1-0.18588 0.12178l-0.00641 0.0064a27.818 27.818 0 0 1-0.23074 0.14742l-0.012819 0.0064-0.00641 0.0064h-0.00641v0.0064c-0.42944 0.21152-0.85247 0.4679-1.1281 0.69864 0.19229-0.05769 0.41021-0.08332 0.56404-0.0641 0.14101 0.01282 0.47431 0.11537 0.59609 0.19229 0.35894 0.21792 0.57686 0.33971 0.81402 0.41662l0.019229 0.01282c0.025638-0.1346 0.11537-0.32689 0.20511-0.4679l-0.064096 0.01282c-0.23074 0.04487-0.4038 0.02564-0.49354-0.10896-0.10255-0.16024-0.019229-0.35253 0.17306-0.56404 0.1346-0.14742 0.32048-0.29484 0.43585-0.35253l0.057686-0.03205c-0.24997 0.01923-0.49354 0.0064-0.73069-0.03846zm9.781 0.78197v0.0064a2.692 2.692 0 0 1-0.12178 0.23715 1.5639 1.5639 0 0 1 0.52558 0.41021l0.0064 0.0064a0.75633 0.75633 0 0 0 0.17306 0.08333 0.44867 0.44867 0 0 0 0.12819 0.01923h0.02564v-0.01923c0-0.03205-0.01282-0.0641-0.03205-0.10255-0.03205-0.07051-0.07691-0.14742-0.12178-0.21152a1.2947 1.2947 0 0 0-0.30125-0.28202zm-10.537-1.0255v0.0064l-0.019229 0.01282a2.1728 2.1728 0 0 1-0.24356 0.11537l-0.1987 0.07692h-0.012819l-0.012819 0.0064-0.20511 0.08332c-0.35253 0.14101-0.57045 0.2692-0.69864 0.44226-0.076915 0.09614-0.11537 0.36535-0.10896 0.65378a1.7434 1.7434 0 0 0 0.057686 0.38457v0.0064-0.0064l0.032048-0.0641 0.00641-0.0064 0.032048-0.07051a1.7562 1.7562 0 0 1 0.26279-0.35251c0.26279-0.28843 0.78197-0.62173 1.3268-0.89093l0.012819-0.0064 0.019229-0.01282a14.87 14.87 0 0 0 0.22434-0.14101l0.00641-0.0064 0.051277-0.03205a2.9356 2.9356 0 0 1-0.532-0.19871zm2.0575 0.30766c-0.19229 0.05128-0.39739 0.12819-0.52558 0.1987-0.24356 0.12819-0.58968 0.50636-0.53199 0.6025 0.025638 0.03846 0.12178 0.04487 0.27561 0.01923a1.9677 1.9677 0 0 0 0.31407-0.08973l0.044867-0.01923a1.487 1.487 0 0 1 0.41021-0.26279c0.19229-0.08973 0.49995-0.12178 0.78197-0.10255a0.78197 0.78197 0 0 1-0.16665-0.34612c-0.12819-0.07691-0.33971-0.07051-0.6025 0zm-3.1151-6.1019a4.0252 4.0252 0 0 0-0.18588 4.4034 3.0766 3.0766 0 0 0 1.596 1.346 2.7433 2.7433 0 0 0 0.39739 0.10896l0.038457 0.0064c0.58968 0.10255 1.2306 0.01923 1.8972-0.26279l0.025638-0.01282 0.044867-0.01923a4.1085 4.1085 0 0 0 2.2498-4.2047l-0.11537 0.025638c-0.29484 0.070505-0.58968 0.10255-1.0768 0.12178h-0.032048l-0.019229 0.00641h-0.019229c-0.14101 0-0.1987 0.012819-0.23715 0.032048-0.032048 0.012819-0.038457 0.038457-0.00641 0.11537 0.025638 0.076915 0.083324 0.3333 0.1346 0.58968l0.00641 0.032048v0.00641l0.00641 0.032048 0.00641 0.012819 0.00641 0.032048 0.038458 0.22433c0.044867 0.25638-0.12178 0.4679-0.46149 0.64096a3.1856 3.1856 0 0 1-0.41662 0.17947v0.032048a25.978 25.978 0 0 1-0.025638 0.23074 31.445 31.445 0 0 1-0.057686 0.55763l-0.057686 0.41662c-0.032048 0.23715-0.064096 0.36534-0.096144 0.41662-0.032048 0.05769-0.19229 0.14101-0.39739 0.21792-0.22434 0.089732-0.39098 0.14101-0.48072 0.10896-0.076915-0.025638-0.21152-0.12819-0.34612-0.26279-0.14742-0.14101-0.23715-0.26279-0.24356-0.3333-0.00641-0.05769 0.019229-0.23074 0.070505-0.50636a17.799 17.799 0 0 1 0.070505-0.36535l0.012819-0.05769c-0.23074 0.07691-0.37816 0.14742-0.46149 0.21793-0.038457 0.03205-0.044867 0.05769-0.025638 0.09614 0.025638 0.05128 0.083324 0.12178 0.1987 0.22434a0.090761 0.090761 0 0 1-0.12178 0.13461c-0.12819-0.12178-0.1987-0.20511-0.23715-0.28843-0.051277-0.10896-0.025638-0.21792 0.070505-0.30125 0.16024-0.14101 0.44226-0.24356 0.99989-0.39739l0.42303-0.11537c0.49995-0.1346 0.80761-0.23715 1.0384-0.35894 0.27561-0.14742 0.39739-0.29484 0.37176-0.45508l-0.064096-0.32689-0.0064096-0.025638v-0.025638c-0.051277-0.23074-0.096144-0.45508-0.12178-0.51918-0.064096-0.16024-0.032048-0.27561 0.089734-0.33971 0.070505-0.038458 0.14101-0.044867 0.31407-0.051277h0.038457l0.032048-0.00641c0.47431-0.019228 0.76274-0.051276 1.0448-0.11537l0.1346-0.032048 0.10255-0.025638h0.025638l0.012819-0.00641 0.10896-0.025638h0.00641c0.064096-0.00641 0.089734-0.012819 0.10896-0.025638h0.00641c0.16665-0.10896 0.19229-0.27561 0.089734-0.50636v-0.012819c-0.089734-0.19229-0.25638-0.41021-0.43585-0.58968h-0.00641a4.1854 4.1854 0 0 0-3.0766-1.3909c-1.2114-0.019229-2.3139 0.47431-2.9869 1.3973zm3.6919 5.8135-0.012819 0.0064-0.057686 0.01923a0.57045 0.57045 0 0 1 0.070505 0.01923 1.9741 1.9741 0 0 1 0-0.04487zm7.9158-3.5637-0.01282 0.012819a6.0378 6.0378 0 0 1-0.22434 1.3524l0.0064 0.012819a3.1535 3.1535 0 0 1 0.5384 1.5575l0.23715 0.12819 0.07691 0.03846 0.01282 0.0064 0.07051 0.03205c0.62173 0.30766 1.4422 0.20511 1.878-0.25638a1.8524 1.8524 0 0 0 0.28843-0.37816c0.07691-0.14101 0.0705-0.22434-0.01282-0.26279l-0.09615-0.05769-0.0064-0.0064-0.03205-0.01282c-0.07691-0.05128-0.1346-0.07692-0.18588-0.07692-0.03205 0-0.07051 0.01282-0.10255 0.04487a0.63455 0.63455 0 0 0-0.07691 0.08973v0.0064l-0.01923 0.02564-0.0064 0.01282-0.02564 0.03846a0.2692 0.2692 0 0 1-0.17306 0.12178c-0.12178 0.03205-0.23715 0-0.33971-0.08332-0.0705-0.05769-0.12819-0.12819-0.21792-0.25638a18.665 18.665 0 0 0-0.0641-0.08333c-0.07692-0.11537-0.1346-0.17306-0.18588-0.19229-0.19229-0.08973-0.27561-0.09614-0.41021-0.0641h-0.0064l-0.01282 0.0064-0.01923 0.0064c-0.18588 0.03846-0.34612-0.03205-0.69864-0.3333a0.084122 0.084122 0 0 1 0.10896-0.12819c0.17306 0.15383 0.30125 0.23715 0.39098 0.28202a0.23715 0.23715 0 0 0 0.16024 0.01282 1.0576 1.0576 0 0 0 0.03205 0l0.01282-0.0064c0.16024-0.03846 0.28202-0.02564 0.50636 0.07051 0.08973 0.03846 0.16024 0.10896 0.25638 0.24997l0.03205 0.03846 0.02564 0.03846v0.0064h0.0064c0.16024 0.23715 0.25638 0.30766 0.38457 0.27561 0.03846-0.0064 0.05128-0.01923 0.07691-0.05769l0.05769-0.08333 0.08973-0.10896a0.29484 0.29484 0 0 1 0.22434-0.09614c0.08973 0.0064 0.16665 0.03846 0.2692 0.10255l0.0641 0.04487a0.51277 0.51277 0 0 0 0.07691 0.03846c0.10255 0.03846 0.17306 0.02564 0.20511-0.0641 0.17947-0.46149 0.17947-0.88452 0.01923-1.2499-0.14101-0.33327-0.42303-0.61529-0.78837-0.80758a2.5574 2.5574 0 0 0-2.3908 0.012819zm-7.8966 1.2242h-0.00641l-0.48072 0.14101-0.083324 0.019229v0.038457l-0.23074 1.5575 0.032048-0.0064a2.7818 2.7818 0 0 0 0.4679-0.19229 0.92939 0.92939 0 0 0 0.096144-0.05128l0.025638-0.09614v-0.0064a4.429 4.429 0 0 0 0.096144-0.66019 34.368 34.368 0 0 0 0.083324-0.74992zm-0.7371 0.21152-0.17947 0.044867a10.48 10.48 0 0 0-0.28843 0.08332v0.01923l-0.00641 0.01282a28.696 28.696 0 0 0-0.089734 0.48072 4.7367 4.7367 0 0 0-0.076915 0.45508v0.0064l0.01282 0.0128 0.038457 0.05769a1.9934 1.9934 0 0 0 0.35894 0.34612zm8.4029-1.6729v0.00641c-0.03205 0.28202-0.10255 0.58327-0.21792 0.89734-0.14101 0.39098-0.48713 0.85247-0.91016 1.064a1.8716 1.8716 0 0 1-0.673 0.16024c-0.27561 0.01282-0.51918-0.05128-0.69864-0.1987a1.2435 1.2435 0 0 0 0.16665 0.37816c0.18588 0.27561 0.6025 0.48072 0.87811 0.47431 0.32048-0.01282 0.6025-0.17947 0.83324-0.4679a2.2369 2.2369 0 0 0 0.37176-0.67942c0.16024-0.47431 0.26279-1.1665 0.24997-1.6088zm-2.8138-1.2691 0.00641 0.012819c0.089734 0.53199 0.051276 1.1345-0.19229 1.8139-0.14101 0.39098-0.48713 0.85247-0.91016 1.064-0.16024 0.076915-0.49354 0.16024-0.77556 0.16024-0.31407 0-0.57045-0.07691-0.74992-0.26279l-0.00641 0.019229c0.070506 0.37176 0.35253 0.69223 0.7371 0.84606 0.42944 0.16665 0.90375 0.10255 1.2435-0.21152 0.33971-0.29484 0.56404-0.68582 0.69864-1.1922 0.10255-0.39739 0.15383-0.79479 0.19229-1.4678 0.019229-0.31407-0.070505-0.58327-0.24356-0.78197zm1.2178 0.096144a4.4354 4.4354 0 0 0-0.05769 0.025638l-0.02564 0.012819c-0.32688 0.14101-0.61531 0.32048-0.66659 0.43585v0.00641l-0.00641 0.012819v0.20511l-0.025638 0.34612c0.21152-0.39739 0.55763-0.59609 0.90375-0.50636 0.43585 0.10896 0.62814 0.62173 0.49354 1.1858l-0.0064 0.019229c-0.14102 0.57686-0.57687 0.9358-0.98067 0.85888-0.26279-0.051277-0.4679-0.24997-0.55122-0.51918a4.3521 4.3521 0 0 1-0.089734 0.30766c-0.00641 0.064096 0.012819 0.14742 0.044867 0.23715a1.0704 1.0704 0 0 0 0.076915 0.16024c0.1346 0.21793 0.37175 0.30766 0.67941 0.29484 0.21792-0.01282 0.46149-0.07691 0.58327-0.14101 0.36535-0.17947 0.67942-0.59609 0.8012-0.9358 0.21792-0.6025 0.26279-1.1409 0.19229-1.628a1.2755 1.2755 0 0 0-0.28202-0.30766c-0.25638-0.19229-0.74351-0.21152-1.0832-0.070505zm-2.6343-0.48072a1.1217 1.1217 0 0 0-0.45508 0.21152c0.057686 0.15383 0.070505 0.29484 0.032048 0.41662 0.14742-0.070505 0.30766-0.096144 0.4679-0.051277 0.43585 0.10896 0.62814 0.62814 0.49354 1.1922l-0.00641 0.012819c-0.14101 0.57686-0.57686 0.94221-0.98066 0.85888-0.21152-0.038457-0.38457-0.17306-0.48713-0.37176a4.3521 4.3521 0 0 1-0.17947 0.673c0.1346 0.19229 0.35894 0.27561 0.66019 0.27561 0.24997 0 0.54481-0.076915 0.67941-0.14101 0.36535-0.17947 0.67941-0.6025 0.8012-0.94221a3.3073 3.3073 0 0 0 0.14742-1.878v-0.00641l-0.019229-0.070505v-0.025638c-0.29484-0.17306-0.69864-0.23715-1.1473-0.15383zm1.9165 1.9677c-0.12178 0.47431 0.076913 0.83965 0.38457 0.89734 0.28202 0.057686 0.62173-0.22434 0.7371-0.71146 0.10896-0.45508-0.038457-0.84606-0.3333-0.92298-0.32048-0.083324-0.64737 0.19229-0.78838 0.7371zm-2.7112-0.44226c-0.12178 0.48072 0.076915 0.83965 0.38457 0.90375 0.28202 0.051277 0.62173-0.23074 0.7371-0.71146 0.10896-0.46149-0.038458-0.85247-0.3333-0.92939-0.32048-0.083324-0.64737 0.1987-0.78838 0.7371zm0.025638-0.58968-0.044867 0.012819h-0.012819l-0.083324 0.019229 0.00641 0.051276 0.012819 0.12819a1.4037 1.4037 0 0 1 0.12178-0.21152zm4.2495-4.1278a4.2624 4.2624 0 0 0-0.6666 0.10255c-0.43585 0.096144-0.95503 0.33971-1.487 0.67941-0.41662 0.26279-0.82042 0.57686-1.0319 0.79479-0.30125 0.29484-0.48072 0.55122-0.42303 0.68582 0.032048 0.076915 0.1987 0.14742 0.51277 0.1987 0.2692 0.038457 0.56404 0.057686 1.2114 0.083324l0.70505 0.032048h0.05769l0.01282 0.00641h0.03846l0.09614 0.00641 0.04487 0.00641 0.03205 0.012819c0.02564 0.019229 0.05128 0.051277 0.05128 0.096144 0 0.038457-0.01923 0.064096-0.04487 0.083324l-0.02564 0.019229a0.32689 0.32689 0 0 1-0.08332 0.012819l-0.09614 0.012819h-0.0064l-0.0064 0.00641h-0.02564l-0.09614 0.012819a1.9165 1.9165 0 0 0-0.1987 0.038457c-0.01282 0.27561-0.05128 0.58968-0.08973 0.82042v0.00641l0.21152-0.089734 0.01282-0.00641a14.364 14.364 0 0 0 0.23716-0.10896l0.02564-0.012819 0.35894-0.18588c0.78833-0.41021 1.3908-1.0576 1.346-1.4357-0.044867-0.30766-0.32048-0.44867-0.8012-0.46149-0.17306-0.00641-0.35894 0.00641-0.57045 0.032048l-0.10896 0.012819h-0.01923a3.474 3.474 0 0 1-0.18588 0.019229 0.16665 0.16665 0 0 1-0.04487-0.00641 0.11537 0.11537 0 0 1-0.08973-0.10255c0-0.032048 0.01282-0.051277 0.02564-0.076915l0.01923-0.025638 0.05769-0.051277 0.14101-0.12178 0.01923-0.012819 0.10896-0.089734 0.01282-0.012819h0.0064l0.0064-0.00641 0.09614-0.076915a22.619 22.619 0 0 0 0.39741-0.3333 4.7495 4.7495 0 0 0 0.42303-0.4038 0.83324 0.83324 0 0 0 0.10896-0.14101v-0.00641l-0.02564-0.00641h-0.0064a1.1794 1.1794 0 0 0-0.23716-0.0064087zm-7.2556 0.89734-0.076915 0.37176a4.5316 4.5316 0 0 1 0.94862 0.18588l0.070505-0.49995-0.6666-0.038458zm-0.99348-2.8587a89.881 89.881 0 0 0-0.064096 0.43585l-0.1346 0.94221a32.221 32.221 0 0 0-0.10896 0.91016 5.2238 5.2238 0 0 0-0.025638 0.32048v0.00641h0.00641l1.5768 0.096143h0.032047l1.8331 0.10255c0.012819 0.00641 0.070505-0.012819 0.14742-0.032048a4.961 4.961 0 0 0 0.53199-0.20511l0.076915-0.038457v-0.00641a6.1083 6.1083 0 0 0 0.025638-0.12819v-0.012819l0.076915-0.52558v-0.019229a75.723 75.723 0 0 0 0.19229-1.6088l-1.096-0.070505-0.064096-0.0064095a160.58 160.58 0 0 0-1.2114-0.070505l-0.74351-0.038457h-0.096144l-0.032048-0.00641h-0.070505l-0.083324-0.00641h-0.051277l-0.019229-0.00641zm-0.16665-0.019229-0.9358 0.4679c-0.089734 0.52558-0.14101 0.94862-0.14101 1.1665 0 0.11537 0.14101 0.50636 0.23715 0.6025 0.064096 0.064096 0.28843 0.21152 0.51277 0.3333a5.9096 5.9096 0 0 1 0.019229-0.27561 33.823 33.823 0 0 1 0.11537-0.91657 95.695 95.695 0 0 1 0.19229-1.3781zm2.5446 0.53199 0.044867 0.012819a0.089734 0.089734 0 0 1 0.051276 0.070505c0.00641 0.083324-0.038457 0.16024-0.18588 0.36535l-0.00641 0.012819-0.10896 0.16024-0.00641 0.00641-0.012819 0.019229a0.41021 0.41021 0 0 0-0.032048 0.064096l0.00641 0.00641v0.00641c0.025638 0.051277 0.076915 0.11537 0.1987 0.2692l0.019229 0.025638c0.17306 0.21152 0.23715 0.32048 0.23715 0.42303-0.00641 0.038457-0.019229 0.057686-0.057686 0.076915a0.37176 0.37176 0 0 1-0.044867 0.025638l-0.12819 0.044866a8.3004 8.3004 0 0 1-0.75633 0.20511 1.6344 1.6344 0 0 1-0.19229 0.025638c-0.038457-0.00641-0.064096-0.012819-0.083324-0.051277-0.019229-0.038457-0.012819-0.070505 0.012819-0.11537l0.044867-0.070505 0.070505-0.089734 0.00641-0.00641 0.025638-0.032048 0.00641-0.00641 0.038458-0.044867 0.019229-0.032048a1.9101 1.9101 0 0 0 0.12178-0.16024l0.025638-0.038457v-0.00641a0.57686 0.57686 0 0 0-0.038457-0.025638l-0.00641-0.00641-0.012819-0.00641h-0.00641l-0.070505-0.044867-0.00641-0.00641h-0.00641l-0.012819-0.00641-0.076915-0.051277a1.5896 1.5896 0 0 1-0.19229-0.1346 0.35253 0.35253 0 0 1-0.12178-0.15383c-0.012819-0.044867 0-0.070505 0.032048-0.10896l0.057686-0.070505a3.192 3.192 0 0 1 0.24997-0.21152l0.019229-0.012819 0.025639-0.025639 0.019229-0.00641v-0.00641l0.012819-0.00641a6.2621 6.2621 0 0 1 0.21792-0.16665c0.044867-0.025638 0.17947-0.064096 0.3333-0.089734a1.8524 1.8524 0 0 1 0.19229-0.025638zm-0.096144 0.16665h-0.00641a2.0767 2.0767 0 0 0-0.19229 0.032048h-0.012819a1.4037 1.4037 0 0 0-0.1987 0.051277l-0.23715 0.17947-0.01282 0.01282-0.012819 0.00641v0.00641l-0.012819 0.00641-0.070505 0.057686a3.051 3.051 0 0 0-0.21152 0.18587v0.00641a0.37816 0.37816 0 0 0 0.044867 0.044867l0.00641 0.00641a1.4486 1.4486 0 0 0 0.17306 0.12178l0.089734 0.051276 0.012819 0.00641 0.076915 0.044867 0.00641 0.00641h0.00641c0.089734 0.057686 0.12178 0.083324 0.1346 0.12819 0.012819 0.083324-0.038457 0.17306-0.18588 0.35253l-0.025638 0.032048-0.038457 0.044867-0.00641 0.00641a25.19 25.19 0 0 0-0.057686 0.076915h-0.00641 0.019229a7.935 7.935 0 0 0 0.7371-0.1987l0.10255-0.038457h0.00641v-0.00641c-0.025639-0.051277-0.083325-0.1346-0.18588-0.26279l-0.00641-0.00641-0.019229-0.025638c-0.16024-0.1987-0.1987-0.25638-0.23074-0.3333-0.025638-0.057686-0.0064096-0.11537 0.044867-0.1987l0.012819-0.025638h0.00641v-0.00641l0.00641-0.00641 0.10896-0.16024 0.00641-0.012819a2.4741 2.4741 0 0 0 0.12178-0.18588zm-2.6792-1.3588h-0.00641a16.402 16.402 0 0 0-0.27561 0.16024l-0.21152 0.12819a1.0255 1.0255 0 0 0-0.064096 0.051277h-0.00641l-0.00641 0.038457v0.00641l-0.032047 0.16024-0.070505 0.37816 0.85247-0.42303a4.1085 4.1085 0 0 1-0.17947-0.49995zm0.16024-0.044867a3.8778 3.8778 0 0 0 0.20511 0.55122v0.00641l0.82683 0.038457 0.019229 0.00641h0.044867l0.076915 0.00641a865.14 865.14 0 0 1 1.3716 0.070505l0.73069 0.044867 0.083324 0.00641 0.89734 0.057686a7.4351 7.4351 0 0 0-0.47431-0.36535 2.1793 2.1793 0 0 0-0.14101-0.089734l-0.69223-0.089734c-0.10255 0.1987-0.54481 0.28202-1.0127 0.23715a2.4292 2.4292 0 0 1-0.65378-0.16024c-0.17306-0.070505-0.29484-0.15383-0.33971-0.25638a22.824 22.824 0 0 0-0.14742-0.012819 73.845 73.845 0 0 0-0.79479-0.051277zm1.3332-0.10896c-0.089734 0.012819-0.16024 0.038457-0.20511 0.064096a0.16665 0.16665 0 0 0-0.038457 0.025638c0.025638 0.12819 0.41662 0.28843 0.84606 0.3333h0.012819a1.9421 1.9421 0 0 0 0.62814-0.032048c0.12819-0.032048 0.20511-0.070505 0.22434-0.10896a0.083324 0.083324 0 0 1 0-0.044867c-0.025638-0.038457-0.096144-0.089734-0.20511-0.14101a1.9485 1.9485 0 0 0-0.58968-0.12819 2.6536 2.6536 0 0 0-0.673 0.032048z"
    fill="#564341"
  />
  <defs>
    <linearGradient
      id="b"
      x1="887.4"
      x2="1426.2"
      y1="1515.4"
      y2="2354.9"
      gradientTransform="matrix(.0064096 0 0 .0064096 -.02241 .48432)"
      gradientUnits="userSpaceOnUse"
    >
      <stop stop-color="#FFBC9C" offset="0" />
      <stop stop-color="#FFBC9C" offset=".7" />
      <stop stop-color="#FFA67A" offset="1" />
    </linearGradient>
    <linearGradient
      id="c"
      x1="619.7"
      x2="570.9"
      y1="1842.9"
      y2="2039.3"
      gradientTransform="matrix(.0064096 0 0 .0064096 -.02241 .48432)"
      gradientUnits="userSpaceOnUse"
    >
      <stop stop-color="#F28773" offset="0" />
      <stop stop-color="#F28773" offset=".3" />
      <stop stop-color="#F6A66A" offset="1" />
    </linearGradient>
    <linearGradient
      id="d"
      x1="697.5"
      x2="637.8"
      y1="1937.2"
      y2="2170.3"
      gradientTransform="matrix(.0064096 0 0 .0064096 -.02241 .48432)"
      gradientUnits="userSpaceOnUse"
    >
      <stop stop-color="#F28773" offset="0" />
      <stop stop-color="#F28773" offset=".3" />
      <stop stop-color="#F6A66A" offset="1" />
    </linearGradient>
    <linearGradient
      id="e"
      x1="860.8"
      x2="767.6"
      y1="2032"
      y2="2378.4"
      gradientTransform="matrix(.0064096 0 0 .0064096 -.02241 .48432)"
      gradientUnits="userSpaceOnUse"
    >
      <stop stop-color="#F28773" offset="0" />
      <stop stop-color="#F28773" offset=".3" />
      <stop stop-color="#F6A66A" offset="1" />
    </linearGradient>
    <linearGradient
      id="f"
      x1="1837"
      x2="1891.9"
      y1="2168.8"
      y2="2355.9"
      gradientTransform="matrix(.0064096 0 0 .0064096 -.02241 .48432)"
      gradientUnits="userSpaceOnUse"
    >
      <stop stop-color="#F57A55" offset="0" />
      <stop stop-color="#F28773" offset=".4" />
      <stop stop-color="#FA9F6E" offset="1" />
    </linearGradient>
    <linearGradient
      id="g"
      x1="1929.1"
      x2="2011.7"
      y1="2064.7"
      y2="2237.2"
      gradientTransform="matrix(.0064096 0 0 .0064096 -.02241 .48432)"
      gradientUnits="userSpaceOnUse"
    >
      <stop stop-color="#F57A55" offset="0" />
      <stop stop-color="#F28773" offset=".4" />
      <stop stop-color="#FA9F6E" offset="1" />
    </linearGradient>
    <linearGradient
      id="h"
      x1="2003.9"
      x2="2071.1"
      y1="1992.4"
      y2="2115.3"
      gradientTransform="matrix(.0064096 0 0 .0064096 -.02241 .48432)"
      gradientUnits="userSpaceOnUse"
    >
      <stop stop-color="#F57A55" offset="0" />
      <stop stop-color="#F28773" offset=".4" />
      <stop stop-color="#FA9F6E" offset="1" />
    </linearGradient>
    <linearGradient
      id="i"
      x1="1575.7"
      x2="1575.7"
      y1="453.7"
      y2="1070"
      gradientTransform="matrix(.0064096 0 0 .0064096 -.02241 .48432)"
      gradientUnits="userSpaceOnUse"
    >
      <stop stop-color="#FFE768" offset="0" />
      <stop stop-color="#FFE768" offset=".4" />
      <stop stop-color="#FFBD4A" offset=".7" />
      <stop stop-color="#FFBD4A" offset="1" />
    </linearGradient>
    <linearGradient
      id="j"
      x1="1707.5"
      x2="1992.3"
      y1="1011.2"
      y2="1479.7"
      gradientTransform="matrix(.0064096 0 0 .0064096 -.02241 .48432)"
      gradientUnits="userSpaceOnUse"
    >
      <stop stop-color="#564341" offset="0" />
      <stop stop-color="#564341" offset=".5" />
      <stop stop-color="#845750" offset="1" />
    </linearGradient>
    <linearGradient
      id="k"
      x1="1264"
      x2="1550.6"
      y1="947.5"
      y2="1427.7"
      gradientTransform="matrix(.0064096 0 0 .0064096 -.02241 .48432)"
      gradientUnits="userSpaceOnUse"
    >
      <stop stop-color="#564341" offset="0" />
      <stop stop-color="#564341" offset=".5" />
      <stop stop-color="#845750" offset="1" />
    </linearGradient>
    <linearGradient
      id="l"
      x1="1945.7"
      x2="1977.7"
      y1="1986.8"
      y2="2011.6"
      gradientTransform="matrix(.0064096 0 0 .0064096 -.02241 .48432)"
      gradientUnits="userSpaceOnUse"
    >
      <stop stop-color="#C35C45" offset="0" />
      <stop stop-color="#B76455" offset="1" />
    </linearGradient>
    <linearGradient
      id="m"
      x1="1867.1"
      x2="1906.2"
      y1="2077.2"
      y2="2128.2"
      gradientTransform="matrix(.0064096 0 0 .0064096 -.02241 .48432)"
      gradientUnits="userSpaceOnUse"
    >
      <stop stop-color="#C35C45" offset="0" />
      <stop stop-color="#B76455" offset="1" />
    </linearGradient>
    <linearGradient
      id="n"
      x1="1126.5"
      x2="970.9"
      y1="2143.3"
      y2="2406.2"
      gradientTransform="matrix(.0064096 0 0 .0064096 -.02241 .48432)"
      gradientUnits="userSpaceOnUse"
    >
      <stop stop-color="#AA6160" offset="0" />
      <stop stop-color="#B36F5F" offset="1" />
    </linearGradient>
    <linearGradient
      id="o"
      x1="1737.3"
      x2="1777.2"
      y1="2177"
      y2="2265.9"
      gradientTransform="matrix(.0064096 0 0 .0064096 -.02241 .48432)"
      gradientUnits="userSpaceOnUse"
    >
      <stop stop-color="#C35C45" offset="0" />
      <stop stop-color="#B76455" offset="1" />
    </linearGradient>
    <linearGradient
      id="p"
      x1="868.7"
      x2="755.2"
      y1="2003.4"
      y2="2204.6"
      gradientTransform="matrix(.0064096 0 0 .0064096 -.02241 .48432)"
      gradientUnits="userSpaceOnUse"
    >
      <stop stop-color="#AA6160" offset="0" />
      <stop stop-color="#B36F5F" offset="1" />
    </linearGradient>
    <linearGradient
      id="q"
      x1="757.6"
      x2="663.9"
      y1="1894.8"
      y2="2066"
      gradientTransform="matrix(.0064096 0 0 .0064096 -.02241 .48432)"
      gradientUnits="userSpaceOnUse"
    >
      <stop stop-color="#AA6160" offset="0" />
      <stop stop-color="#B36F5F" offset="1" />
    </linearGradient>
    <linearGradient
      id="r"
      x1="2394.3"
      x2="2004.9"
      y1="1310.1"
      y2="1704.8"
      gradientTransform="matrix(.0064096 0 0 .0064096 -.02241 .48432)"
      gradientUnits="userSpaceOnUse"
    >
      <stop stop-color="#FFCB87" offset="0" />
      <stop stop-color="#FFCB87" offset=".1" />
      <stop stop-color="#FFBC9C" offset=".4" />
      <stop stop-color="#FFBC9C" offset="1" />
    </linearGradient>
    <linearGradient
      id="s"
      x1="2354"
      x2="1867.7"
      y1="1206.8"
      y2="1730.7"
      gradientTransform="matrix(.0064096 0 0 .0064096 -.02241 .48432)"
      gradientUnits="userSpaceOnUse"
    >
      <stop stop-color="#FBC38C" offset="0" />
      <stop stop-color="#F19675" offset=".3" />
      <stop stop-color="#F0876A" offset=".7" />
      <stop stop-color="#ED8870" offset="1" />
    </linearGradient>
    <linearGradient
      id="t"
      x1="2105.3"
      x2="2105.3"
      y1="1381.3"
      y2="1453.1"
      gradientTransform="matrix(.0064096 0 0 .0064096 -.02241 .48432)"
      gradientUnits="userSpaceOnUse"
    >
      <stop stop-color="#FFFFFE" offset="0" />
      <stop stop-color="#fff" offset="1" />
    </linearGradient>
    <linearGradient
      id="u"
      x1="2274.5"
      x2="2274.5"
      y1="1272.6"
      y2="1456.3"
      gradientTransform="matrix(.0064096 0 0 .0064096 -.02241 .48432)"
      gradientUnits="userSpaceOnUse"
    >
      <stop stop-color="#FFFFFE" offset="0" />
      <stop stop-color="#fff" offset="1" />
    </linearGradient>
    <linearGradient
      id="v"
      x1="288.4"
      x2="624.3"
      y1="689.3"
      y2="1846.7"
      gradientTransform="matrix(.0064096 0 0 .0064096 -.02241 .48432)"
      gradientUnits="userSpaceOnUse"
    >
      <stop stop-color="#FFCB87" offset="0" />
      <stop stop-color="#FFCB87" offset=".2" />
      <stop stop-color="#FFBC9C" offset=".7" />
      <stop stop-color="#FFBC9C" offset="1" />
    </linearGradient>
    <linearGradient
      id="w"
      x1="11.7"
      x2="616.7"
      y1="1035.8"
      y2="1632"
      gradientTransform="matrix(.0064096 0 0 .0064096 -.02241 .48432)"
      gradientUnits="userSpaceOnUse"
    >
      <stop stop-color="#FFCB87" offset="0" />
      <stop stop-color="#F79E75" offset=".3" />
      <stop stop-color="#EF876D" offset=".5" />
      <stop stop-color="#ED8870" offset="1" />
    </linearGradient>
    <linearGradient
      id="x"
      x1="578.3"
      x2="585.4"
      y1="1143.8"
      y2="1348.2"
      gradientTransform="matrix(.0064096 0 0 .0064096 -.02241 .48432)"
      gradientUnits="userSpaceOnUse"
    >
      <stop stop-color="#FFFFFE" offset="0" />
      <stop stop-color="#fff" offset="1" />
    </linearGradient>
    <linearGradient
      id="y"
      x1="367.8"
      x2="381.3"
      y1="852.8"
      y2="1240.2"
      gradientTransform="matrix(.0064096 0 0 .0064096 -.02241 .48432)"
      gradientUnits="userSpaceOnUse"
    >
      <stop stop-color="#FFF9CE" offset="0" />
      <stop stop-color="#fff" offset="1" />
    </linearGradient>
  </defs>
</svg>
