<svg viewBox="0 0 16 16" xmlns="http://www.w3.org/2000/svg">
  <path
    d="m2.0924 11.772c-0.3996 0.1628-0.76961 0.3404-1.1544 0.5328l-0.222 0.2516c-0.088801 0.2368-0.074001 0.6068-0.1036 0.85841l0.1036 0.2368 0.148-0.0592s0.0444-0.1924 0.37-0.5624l0.3256-0.2664 1.3172-0.76961-0.81401-0.222z"
    fill="#8bd7fd"
    stroke-width=".148"
  />
  <path
    d="m2.8768 11.98c-0.4884 0.3848-1.1248 0.6068-1.5836 1.0508l-0.088801 0.1628c0.78441-0.4736 1.5836 0.296 2.294 0.518 0.1628 0.0592 0.014801-0.0444 0-0.148 0-0.0592 0.0296-0.148 0.088801-0.2516v-0.1776l-0.4884-0.1332 0.088801-0.444 0.2516-0.1776c0.0444-0.0888 0.296-0.2072 0.3404-0.296l-0.518-0.1184h-0.37z"
    fill="#1371f1"
    stroke-width=".148"
  />
  <path
    d="m12.778 11.136c0.2664 0.4144 0.6956 0.99161 1.8648 1.48l0.1036 0.1776c-0.78441-0.4884-1.8944 0.5772-2.6048 0.78441-0.1776 0.0592-0.0296-0.0444 0-0.148 0-0.0592-0.0296-0.148-0.1036-0.2664v-0.1628l0.4884-0.1332-0.0888-0.444-0.2368-0.1776c-0.0592-0.0888-0.296-0.2072-0.3552-0.296l0.5328-0.1184z"
    fill="#1371f1"
    stroke="#564341"
    stroke-linejoin="round"
    stroke-width=".1776"
  />
  <path
    d="m12.763 11.92v-0.592l-0.0148-0.444-0.1184-0.4292-0.0888-0.296-0.148-0.2516-0.148-0.222-0.1036 0.296-0.2072 0.3404-0.1776 0.2072-0.2072 0.1776-0.3996 0.2072h-0.37l-0.3552-0.1628-0.3256-0.1776-0.222-0.296-0.074001-0.222-0.1332-0.75481-0.0444 0.148-0.2072 0.37-0.222 0.3256-0.3256 0.296-0.2516 0.1332-0.3404 0.0888h-0.2664l-0.71041-0.3256-0.3404-0.4292-0.1184-0.222-0.296 0.5772-0.3108 0.3996-0.5032 0.5328-0.5032 0.3256-0.444 0.3256c0.029599 0.1776 0.088801 0.3108 0.1924 0.3996 0.2516 0.1924 0.4144 0.5476 0.65121 0.72521 0.296 0.222 0.5772 0.3256 0.84361 0.4884 0.2516 0.1628 0.3256 0.4588 0.5476 0.592a3.552 3.552 0 0 0 1.8056 0.4884c0.2368 0.0444 0.5624 0 0.81401 0 0.148-0.0444 0.5624-0.074 0.76961-0.1628 0.3256-0.148 0.84361-0.3256 1.1544-0.5328 0.3848-0.2368 0.6216-0.592 0.7104-0.71041 0.0888-0.1036 0.1776-0.3108 0.2516-0.444 0.074-0.148 0.1036-0.296 0.148-0.444l0.074-0.3404z"
    fill="url(#a)"
    stroke-width=".148"
  />
  <path
    d="m5.896 11.269c0.444 0.6512 2.0868 0.2664 2.0868-0.5624 0 0-0.4588-0.1036-0.66601-0.296l-0.444-0.5476c-0.2516 0.4884-0.97681 1.036-1.036 1.2876zm5.254-0.296c-0.0296 0.666 1.036 0.97681 1.5392 0.666 0.0296-0.6364-0.0444-1.3024-0.444-1.8056-0.1184 0.148-0.1184 0.444-0.444 0.74001a2.22 2.22 0 0 1-0.6512 0.3996z"
    fill="#f28773"
    stroke-width=".148"
  />
  <path
    d="m9.0336 10.662c0.088801 0.3552 0.63641 0.444 1.0064 0.5032-0.3256 0.1036-0.68081 0.0592-0.97681-0.1036-0.1628-0.074-0.296-0.3404-0.029599-0.3996z"
    fill="#564341"
    stroke-width=".148"
  />
  <path
    d="m4.786 12.039c-0.074001-0.1332-1.1396 0.074-1.628 0.6512-0.222 0.2516 0.1036 0.3848 0.3404 0.3404 0.71041-0.1776 0.6068-0.592 1.6428-0.4884 0 0-0.1776-0.2072-0.3552-0.5032z"
    fill="url(#b)"
    stroke-width=".148"
  />
  <path
    d="m5.2596 12.66c-0.4884-0.1776-1.2432 0-1.628 0.518-0.1332 0.1776-0.3404 0.7104-0.1036 0.6512 0.592-0.1332 1.0064-0.1332 1.0952-0.1924 0.2664-0.2516 0.4588-0.444 1.1692-0.4588-0.088801-0.1184-0.3552-0.444-0.5328-0.518z"
    fill="url(#c)"
    stroke-width=".148"
  />
  <path
    d="m6.1772 13.282a1.3912 1.3912 0 0 0-1.4504 0.296c-0.88801 0.79921-0.76961 1.2876-0.76961 1.2876l0.088801 0.1628a5.18 5.18 0 0 0 1.5984-0.296c0.5624-0.148 1.1544-0.2072 1.702-0.3848 0 0-0.97681-0.93241-1.1544-1.0656z"
    fill="url(#d)"
    stroke-width=".148"
  />
  <path
    d="m10.617 14.407a7.5481 7.5481 0 0 1 2.0424 0.5328l0.1628 0.0444 0.1332-0.0148c0.1776-0.296-0.1036-0.592-0.296-0.81401-0.1628-0.1776-0.4588-0.2664-0.69561-0.296-0.5032-0.0592-0.91761 0.3404-1.3468 0.5476z"
    fill="url(#e)"
    stroke-width=".148"
  />
  <path
    d="m11.624 13.889a1.184 1.184 0 0 1 1.1988 0.37s0.2516 0.148 0.3108 0.1036c0.074-0.0444 0-0.3256-0.0444-0.3996-0.222-0.4144-0.3848-0.66601-0.81401-0.78441-0.2072 0.2368-0.4144 0.5032-0.6512 0.7104z"
    fill="url(#f)"
    stroke-width=".148"
  />
  <path
    d="m12.364 13.149c0.592 0.1924 0.444 0.3996 0.97681 0.5328 0.0296 0 0.0296-0.148 0.0296-0.1924 0-0.148-0.444-0.5476-0.69561-0.71041-0.1036-0.0592-0.3552 0.3552-0.296 0.37z"
    fill="url(#g)"
    stroke-width=".148"
  />
  <path
    d="m10.084 6.3408c0.0296 0.2072-0.0296 0.76961-0.0296 0.76961 1.6724-0.444 3.9516-2.9156 0.592-2.442 0.3404-0.5032 1.0656-0.78441 1.332-1.3764v-0.074a5.476 5.476 0 0 0-3.9664 2.0424l-0.074001 0.222 0.1036 0.2516c0.69561 0.222 1.4356 0.148 2.146 0.2072 0 0-0.1184 0.3404-0.1036 0.3996z"
    fill="url(#h)"
    stroke-width=".148"
  />
  <path
    d="m9.7441 9.0492c-0.296 0.97681 0.79921 1.1988 1.554 0.84361 1.6576-1.332 1.2136-4.4252-1.2728-2.5752-0.148 0.222-0.1184 0.82881-0.1184 0.85841l-0.148 0.87321z"
    fill="url(#i)"
    stroke-width=".148"
  />
  <path
    d="m6.9468 9.2564c0.0592 0.444 0.94721 0.5476 1.4208 0.3404 1.0804-0.3552 1.406-2.4716 0.97681-3.108-0.0444-0.0444-0.592-0.1184-0.79921-0.148-0.6216-0.059201-1.332 0.518-1.6576 1.332-0.088801 0.2072 0.029599 0.4736 0.0444 0.6956 0.029599 0.296-0.014801 0.65121 0.0148 0.88801z"
    fill="url(#j)"
    stroke-width=".148"
  />
  <path
    d="m6.932 9.4488s1.628 1.1396 2.4568-1.036c0.1924-0.5476 0.1036-1.3764 0.1184-1.7464 0.71041 0.3552 0.1776 2.3236 0.1184 2.5604-0.1776 0.84361-0.99161 1.48-1.6872 1.3172-1.036-0.2812-1.0064-1.0952-1.0064-1.0952zm2.812 0.3848 0.148 0.0592c0.444 0.3256 1.0952 0.2072 1.5244-0.0888 0.6364-0.518 0.6956-1.1988 0.94721-1.924l0.0444 0.0592c0.0888 0.74001-0.0888 1.48-0.3404 2.1756-0.592 1.1544-2.1164 1.0656-2.3088-0.296z"
    fill="#fff"
    stroke-width=".148"
  />
  <path
    d="m10.084 8.176a1.332 1.332 0 0 0-0.074 0.85841c0.1776 0.4292 0.6956 0.4588 0.97681 0.1332 0.84361-0.90281-0.1628-2.4272-0.90281-0.99161zm-1.4504 0c0.148-1.85-1.776-0.84361-1.2876 0.4884 0.4144 0.666 1.1396 0.0592 1.2876-0.4884z"
    fill="#fff"
    stroke-width=".148"
  />
  <path
    d="m12.63 13.016c0.0148 0.1184 0.0888 0.2368 0.0888 0.2368l-0.1628-0.1184-0.1332-0.0592 0.148-0.2516 0.074 0.0296s-0.0296 0.074-0.0148 0.1628z"
    fill="url(#k)"
    stroke-width=".148"
  />
  <path
    d="m12.26 13.652c0.0444 0.1184 0.2072 0.2516 0.2072 0.2516l-0.4144-0.1184-0.1924-0.0296 0.3552-0.3848s0 0.148 0.0444 0.2812z"
    fill="url(#l)"
    stroke-width=".148"
  />
  <path
    d="m4.564 14.925s1.1396-0.3404 1.6132-0.81401c0.296-0.296 0.0444-0.71041 0.1036-0.6808 0.296 0.148 0.3996 0.3404 0.592 0.5772 0.074 0.1036 0.444 0.3404 0.444 0.3404s-0.60681 0.0888-0.85841 0.148c-0.444 0.148-1.8944 0.4292-1.8944 0.4292z"
    fill="url(#m)"
    stroke-width=".148"
  />
  <path
    d="m11.638 14.096c0.0444 0.2516 0.1184 0.3256 0.592 0.5772l-0.74001-0.2072-0.6364-0.1184 0.4144-0.2072c0.1036-0.074 0.3848-0.1924 0.3848-0.1924l-0.0296 0.1332z"
    fill="url(#n)"
    stroke-width=".148"
  />
  <path
    d="m4.564 13.563c-0.0592 0.0296-0.2664 0.0444-0.4588 0.1036l-0.3256 0.0888c-0.0592 0.0148-0.1776 0.0296-0.222 0l-0.0296-0.0592c0.5624-0.1184 0.88801-0.2664 1.1396-0.4144 0.4144-0.2516 0.4884-0.444 0.5328-0.592 0-0.074 0.148 0.074 0.2072 0.1184l0.296 0.296-0.5328 0.1036c-0.2664 0.074-0.5328 0.3404-0.6068 0.3552z"
    fill="url(#o)"
    stroke-width=".148"
  />
  <path
    d="m3.1284 12.956c0.5032-0.1924 1.0064-0.37 1.554-0.91761 0.0444-0.0296 0.148 0.0592 0.148 0.0888 0.0888 0.1776 0.222 0.37 0.1332 0.3552a1.4356 1.4356 0 0 0-1.11 0.3552c-0.1776 0.1332-0.76961 0.148-0.74001 0.1184z"
    fill="url(#p)"
    stroke-width=".148"
  />
  <path
    d="m12.704 10.633c0.0296 0.1628 0.0296 0.6068 0.0888 0.6364 1.0212 0.592 2.516 0.5328 2.7972-0.7696l0.148-0.0148 0.148-0.148 0.0888-0.75481-0.074-0.3552-0.1628-0.3256-0.4144-0.4736-0.444-0.2516-0.4884-0.148-0.5772-0.059201-0.444 0.044401-0.518 0.1184-0.3848 0.2516-0.1184 0.592c-0.0148 0.1036-0.0148 0.3256-0.0592 0.4292l-0.0148 0.222 0.0592 0.2516c0.148 0.2812 0.296 0.444 0.37 0.7548z"
    fill="url(#q)"
    stroke-width=".148"
  />
  <path
    d="m13.148 11.476c-0.69561-1.5984 0.1036-3.182 1.924-3.1524a2.2644 2.2644 0 0 0-1.258-0.3552l-0.2368 0.0444h-0.1924c-0.296 0.074001-0.68081 0.148-0.91761 0.3848 0 0.148-0.0888 0.444-0.1184 0.592-0.0444 0.1036-0.148 0.4144-0.148 0.518l0.1776 0.4292c0.1184 0.2368 0.1924 0.3404 0.2516 0.60681l0.1184 0.4292 0.0444 0.296 0.3552 0.1924z"
    fill="url(#r)"
    stroke-width=".148"
  />
  <path
    d="m13.74 9.4044c0.0296-0.074 0-0.2072-0.1036-0.2812-0.1184-0.074-0.296-0.0592-0.3552 0.0888-0.0592 0.1184 0.0296 0.2368 0.148 0.296 0.1036 0.0592 0.2516 0 0.296-0.1184z"
    fill="url(#s)"
    stroke-width=".148"
  />
  <path
    d="m15.22 9.3452c-0.0888 0.148-0.3848 0.2812-0.74001 0.1628-0.3848-0.1184-0.82881-0.518-0.4884-0.96201 0.148-0.1924 0.5476-0.1924 0.82881-0.0444 0.2072 0.1036 0.6216 0.444 0.3996 0.84361z"
    fill="url(#t)"
    stroke-width=".148"
  />
  <path
    d="m12.778 9.73c0.1776 0.3256 0.296 0.518 0.85841 0.518 0.1924 0 0.2368 0.296 0.592 0.592 0.1924 0.148 0.5476 0.148 0.76961 0.0296 0.1184-0.074 0.1628-0.0444 0.2072-0.0296 0.0888 0.0592 0.1036 0.0444 0.222 0.0296 0 0 0.1332-0.1924 0.074-0.3256-0.148-0.1036-0.296-0.1924-0.5032-0.1924l-0.1332 0.1184-0.0888 0.148-0.1036 0.0592h-0.1628c-0.1628-0.148-0.296-0.296-0.4144-0.4884-0.2516-0.2368-0.5032-0.1924-0.81401-0.148-0.148-0.088801-0.3404-0.2368-0.5032-0.3108z"
    fill="#ed8870"
    stroke-width=".148"
  />
  <path
    d="m4.1348 12.66a4.0404 4.0404 0 0 0 2.812-3.1968v-0.296l0.0444-0.222c-0.029599-0.222 0-0.5328-0.029599-0.74001l0.1776-0.088801 0.148-0.029599 0.1184-0.088801c0.074-0.1776 0.074-0.1628 0.0592-0.37-1.2284-2.3976-5.0912-2.9304-6.6009-0.57721-1.5836 2.22-0.1776 6.0976 2.8564 5.7276l0.4144-0.1036z"
    fill="url(#u)"
    stroke-width=".148"
  />
  <path
    d="m2.9212 11.476c0.088801-0.4736 2.6344-0.78441 2.886-1.628 0.1184-0.82881 0.4144-0.91761 1.1396-0.99161v-0.4292l-0.1036-0.0888-0.84361 0.1776c-0.1776 0-0.444 0-0.592 0.0444l-0.074001 0.2516c0.088801 0.1628 0.1776 0.76961 0.1776 0.76961l-0.0592 0.3404c-0.76961 0.6068-1.85 0.666-2.6936 1.11l-0.0444 0.148z"
    fill="#f28773"
    stroke-width=".148"
  />
  <path
    d="m4.7564 12.586c-3.0488 0.2664-4.4844-3.7-3.182-6.1568 0 0-0.444 0.3552-0.518 0.444-0.592 0.91761-0.93241 1.628-0.82881 2.886l0.1776 0.88801 0.296 0.592a2.812 2.812 0 0 0 3.256 1.628l0.296-0.0592 0.518-0.222z"
    fill="url(#v)"
    stroke-width=".148"
  />
  <path
    d="m4.268 8.7384c0.2072 0.2368 0.1036 0.5476-0.148 0.82881-0.2516 0.3256-0.72521 0.37-0.96201 0.1332-0.1924-0.1776-0.2368-0.5624 0.1776-0.91761 0.37-0.296 0.76961-0.2516 0.93241-0.0444z"
    fill="url(#w)"
    stroke-width=".148"
  />
  <path
    d="m3.5576 7.0068c0.2516 0.2664 0.3404 0.88801-0.296 1.5244-0.4736 0.4736-1.3764 1.0212-1.998 0.3404-0.444-0.5032 0-1.2728 0.444-1.6724 0.3552-0.296 1.332-0.74001 1.85-0.1924z"
    fill="url(#x)"
    stroke-width=".148"
  />
  <path
    d="m2.6548 5.6304c2.072-0.6216 3.7592 0.4588 4.7952 1.5984l-0.074001 0.059201 0.088801-0.0444a0.65121 0.65121 0 0 1 0.0444 0.074001l0.074001 0.2072 0.0592 0.2516a0.444 0.444 0 0 1-0.0592 0.2664c-0.074001 0.1184-0.1776 0.1776-0.296 0.2072l-0.148 0.0444h-0.1036c0.0444 0.444 0.088801 1.0508-0.148 1.8352-0.074001 0.296-0.296 0.74001-0.6068 1.1692a5.032 5.032 0 0 1-1.2876 1.1988 3.2264 3.2264 0 0 1-1.776 0.5624c-0.65121 0-1.332-0.2516-2.0276-0.82881a3.2856 3.2856 0 0 1-0.71041-1.0656 5.0616 5.0616 0 0 1-0.444-1.8056 3.404 3.404 0 0 1 0.4736-2.0276c0.3996-0.66601 1.0804-1.258 2.1312-1.702zm4.662 1.702c-1.0212-1.0952-2.6344-2.1164-4.6028-1.5392a4.144 4.144 0 0 0-2.0424 1.628 3.3152 3.3152 0 0 0-0.4736 1.924 4.884 4.884 0 0 0 0.444 1.7464 3.404 3.404 0 0 0 0.66601 1.0064 3.108 3.108 0 0 0 1.924 0.78441c0.592 0 1.1692-0.2072 1.6576-0.5328a4.4844 4.4844 0 0 0 1.8204-2.2644c0.2516-0.79921 0.1924-1.406 0.148-1.8352v-0.088801h0.0592l0.148-0.044401a9.7385 9.7385 0 0 0 0.1776-0.0444 0.296 0.296 0 0 0 0.1924-0.1332l0.029599-0.148c0-0.074001-0.029599-0.148-0.0444-0.2072a1.5392 1.5392 0 0 0-0.1036-0.2516z"
    clip-rule="evenodd"
    fill="#564341"
    fill-rule="evenodd"
    stroke-width=".148"
  />
  <path
    d="m5.378 8.6348 0.0592 0.074zm0.074001 1.2136-0.074001-0.0296zm-2.7528 1.2136-0.0592-0.0592zm0.148 0.5032a0.090329 0.090329 0 0 0 0.148-0.1036l-0.074001 0.0592zm4.07-3.33-0.014801-0.074001-0.93241 0.2072a8.0365 8.0365 0 0 0-0.63641 0.1924l0.0444 0.074 0.0592 0.074 0.059201-0.0296 0.1332-0.0444 0.3848-0.0888 0.93241-0.222zm-1.5392 0.3996-0.0444-0.074c-0.1036 0.074-0.1184 0.1924-0.1184 0.296 0 0.1036 0.0444 0.2368 0.074001 0.3552l0.088801 0.3404v0.2664l0.074001 0.0296 0.088801 0.0296a0.592 0.592 0 0 0 0-0.3552c0-0.1184-0.0444-0.2516-0.088801-0.37l-0.0592-0.296c0-0.0888 0.014801-0.1332 0.0444-0.148zm0.074001 1.2136-0.074001-0.0296c-0.014801 0.0444-0.0592 0.0888-0.1332 0.148-0.074 0.0592-0.1776 0.1184-0.296 0.1628-0.2368 0.1184-0.5476 0.222-0.85841 0.3256l-0.88801 0.2812-0.3404 0.1332c-0.088801 0.0296-0.1776 0.0888-0.222 0.148l0.0592 0.0444 0.074001 0.0592 0.148-0.0888 0.3256-0.1332 0.88801-0.2812a7.6073 7.6073 0 0 0 1.2136-0.5032c0.088801-0.074 0.1628-0.148 0.1924-0.2368zm-2.7528 1.2136-0.0592-0.0592c-0.059201 0.074-0.074001 0.148-0.059201 0.222 0 0.0592 0.0444 0.1184 0.074001 0.1628l0.1184 0.1184 0.0592 0.0444 0.014801 0.0148 0.074-0.0444 0.074001-0.0592-0.044401-0.0444-0.0592-0.0444a0.88801 0.88801 0 0 1-0.088801-0.1036l-0.059201-0.074c0-0.0148 0-0.0444 0.0296-0.074z"
    fill="#564341"
    stroke-width=".148"
  />
  <path
    d="m7.672 6.4444-0.088801 0.296c0.074001 0.2072 0.0444 0.3552-0.1184 0.444l-0.0444 0.029599 0.029599 0.296 0.029599 0.2368c0.1628-0.3848 0.444-0.5772 0.7104-0.5032 0.296 0.074001 0.444 0.444 0.3256 0.90281-0.1184 0.4884-0.444 0.76961-0.74001 0.71041-0.296-0.059201-0.4736-0.3996-0.3848-0.85841l-0.1184 0.074c-0.1184 0.66601-0.222 1.184-0.3996 1.8352 0.148 0.3256 0.4144 0.592 0.76961 0.74001h0.014801c0.4884 0.1924 1.036 0.1036 1.4208-0.2368l0.014801-0.0148c0.222-0.1924 0.3848-0.4144 0.518-0.68081 0.074001 0.37 0.148 0.5624 0.2812 0.76961a1.3764 1.3764 0 0 0 1.036 0.5624 1.332 1.332 0 0 0 0.99161-0.5328c0.148-0.1776 0.2516-0.37 0.3404-0.592a2.9008 2.9008 0 0 1 0.222 2.59c-0.2368 0.68081-0.7104 1.184-1.406 1.5244a4.588 4.588 0 0 1-2.1312 0.3996c-0.444 0-0.69561-0.0296-0.94721-0.074a2.0868 2.0868 0 0 1-0.90281-0.3848l-0.2072-0.222c-0.1332-0.1628-0.1776-0.222-0.296-0.3256a2.664 2.664 0 0 0-0.6216-0.37l-0.1628-0.1184-0.1184-0.1184-0.074001-0.0592v-0.0148h-0.014801l-0.1184-0.148-0.0592-0.0444-0.1924-0.148-0.059201-0.0592a3.848 3.848 0 0 1-0.222 0.1184c-0.3404 0.148-0.72521 0.2664-1.1544 0.3552l-0.044401 0.0148a3.3596 3.3596 0 0 1-0.296 0.0888c-0.148 0.0296-0.2516 0.0296-0.2812 0v-0.0296l-0.222-0.0148c0 0.0592 0 0.1036 0.044401 0.148 0.088801 0.148 0.2516 0.148 0.4884 0.1184l0.0592-0.0148c-0.0888 0.148-0.1776 0.3256-0.2072 0.444h-0.014799a3.848 3.848 0 0 1-0.79921-0.4144c-0.1184-0.074-0.444-0.1776-0.592-0.1924-0.148 0-0.3552 0.0148-0.5476 0.074a4.588 4.588 0 0 1 0.5772-0.3996l-0.1776-0.0888c-0.296 0.1776-0.5328 0.37-0.69561 0.5328-0.088801 0.1036-0.1776 0.222-0.2516 0.3552l-0.0296 0.0592-0.0444 0.074v-0.0296l-0.0592-0.3256c0-0.296 0.0296-0.5624 0.1184-0.6512 0.088801-0.1332 0.2368-0.2368 0.4588-0.3404l-0.1184-0.1184a1.332 1.332 0 0 0-0.4736 0.3552c-0.1036 0.148-0.148 0.4292-0.148 0.74001 0 0.148 0.0296 0.2664 0.0592 0.3848 0 0.0592 0.0296 0.0888 0.0444 0.1332 0.0296 0.0444 0.074001 0.074 0.1184 0.074 0.0592 0 0.088801-0.0296 0.1184-0.074l0.0444-0.1036 0.0148-0.0148 0.0148-0.0296v-0.0296l0.148-0.2072c0.1628-0.1184 0.592-0.2368 0.81401-0.2072 0.1184 0.0148 0.4292 0.1036 0.518 0.1628a3.9516 3.9516 0 0 0 0.91761 0.4588 0.2664 0.2664 0 0 0 0.1776 0.1924c0.088801 0.0296 0.1776 0.0148 0.296 0l0.014801-0.0148h0.0444l0.014801-0.0148 0.148-0.0444h0.029599l0.222-0.074a1.5836 1.5836 0 0 0-0.444 0.91761c-0.029599 0.1628 0 0.296 0.1184 0.37 0.1332 0.1036 0.3404 0.1036 0.6216 0.0444l0.2368-0.0592 0.0888-0.0296 0.088801-0.0148a8.3029 8.3029 0 0 1 0.592-0.148h0.0592l0.0444-0.0148 0.444-0.1036a4.292 4.292 0 0 0 0.3256-0.0888 3.404 3.404 0 0 1 1.258-0.148l0.222 0.0444a6.29 6.29 0 0 0 2.368-0.0296h0.3256c0.1776 0 0.37 0.0296 0.592 0.074l0.1184 0.0148 0.1184 0.0296c0.1924 0.0444 0.3996 0.1036 0.592 0.1776l0.222 0.0888h0.0148l0.0444 0.0148h0.0148l0.2368 0.1036c0.1776 0.0592 0.296 0.074 0.3996 0.0296 0.1776-0.0888 0.1776-0.3404 0.074-0.592 0.0592 0.0296 0.1184 0.0148 0.148 0 0.1184-0.0888 0.1332-0.222 0.0888-0.37a1.776 1.776 0 0 0-0.148-0.32561c0.148 0.0296 0.2368 0.0148 0.296-0.0592 0.0888-0.0888 0.074-0.2072 0-0.3552a1.332 1.332 0 0 0-0.4884-0.5624c-0.0888-0.074-0.1924-0.1332-0.296-0.1776v-0.0444l0.0148-0.0444c0.148-0.3552 0.222-0.74001 0.2072-1.1248l0.1628 0.074 0.074 0.0296 0.0148 0.0148 0.0592 0.0296c0.68081 0.3404 1.5688 0.222 2.0424-0.2812 0.1184-0.1184 0.2368-0.2664 0.3108-0.4144 0.0444-0.074 0.074-0.148 0.074-0.2516v-0.0296a0.2664 0.2664 0 0 0 0.222-0.1924c0.37-0.96201 0-1.776-0.82881-2.22-0.74001-0.3996-1.7168-0.4144-2.4568-0.029599 0-0.222-0.0296-0.444-0.1036-0.6512a1.4504 1.4504 0 0 0-0.4736-0.65121 1.1544 1.1544 0 0 0-0.6808-0.222c0.7252-0.444 1.2432-1.036 1.184-1.48a0.65121 0.65121 0 0 0-0.37-0.518 1.48 1.48 0 0 0-0.6216-0.1332h-0.0296c-0.1776 0-0.3552 0-0.5476 0.029599l0.05919-0.059199h0.0296v-0.014801l0.1036-0.088801a13.098 13.098 0 0 0 0.82881-0.74001c0.148-0.1628 0.2072-0.2812 0.148-0.3848-0.0888-0.1924-0.5772-0.1628-1.184-0.0296a7.0153 7.0153 0 0 0-2.59 1.5096c-0.1332 0.148-0.2368 0.2516-0.3256 0.3848-0.148 0.1924-0.1924 0.37-0.148 0.518 0.088801 0.1776 0.296 0.2812 0.69561 0.3404h0.088801c0.2516 0.0444 0.5476 0.059201 1.1248 0.088801h0.1776l0.029599 0.0444v0.3996a7.2521 7.2521 0 0 1-0.073998 0.444c-0.2664-0.5476-0.94721-0.82881-1.7464-0.68081a1.332 1.332 0 0 0-0.4884 0.1924zm-2.0276 6.8673h0.3404a2.2644 2.2644 0 0 1 0.5328 0.3404l0.014801 0.0148 0.1924 0.222a1.4948 1.4948 0 0 0 0.4884 0.4144c-0.2664 0.0296-0.5476 0.0888-0.79921 0.1628l-0.3108 0.0888-0.074001 0.0148-0.3256 0.074h-0.074l-0.029602 0.0148h-0.029599l-0.029599 0.0148a9.3241 9.3241 0 0 0-0.592 0.148l-0.088801 0.0148-0.3108 0.0888c-0.222 0.0444-0.3848 0.0444-0.444 0-0.088801-0.0592-0.0592-0.2516 0.074001-0.5624a2.368 2.368 0 0 1 0.5772-0.6956 1.332 1.332 0 0 1 0.5476-0.296c0.074001-0.0296 0.148-0.0444 0.2368-0.0444h0.088801zm5.8312 0.74001a0.88801 0.88801 0 0 1 0.3996-0.1036c0.2072 0 0.444 0.074 0.68081 0.2516l0.1036 0.074v0.0148l0.0444 0.0444c0.0888 0.0888 0.148 0.1924 0.1924 0.3108 0.0444 0.1332 0.0296 0.2072 0 0.2368-0.0296 0-0.1036 0-0.222-0.0444l-0.1924-0.074-0.0444-0.0148h-0.0296l-0.0296-0.0296a17.361 17.361 0 0 0-0.85841-0.2664l-0.0592-0.0148h-0.0592l-0.4884-0.1036 0.2664-0.1184h0.0148a3.5224 3.5224 0 0 0 0.2812-0.148zm0.4292-0.3108c0.148-0.148 0.296-0.296 0.4292-0.4736a1.2876 1.2876 0 0 1 0.6216 0.592l0.148 0.296v0.0148c0.0148 0.0592 0.0148 0.0888 0 0.1184l-0.074-0.0296c-0.074-0.0296-0.148-0.074-0.222-0.148l-0.1332-0.0888a1.332 1.332 0 0 0-0.76961-0.296zm-7.6221-0.97681c0.2516-0.1184 0.76961-0.1184 1.0212-0.0148l0.088801 0.074s0 0.0296 0.029599 0.0444l0.029599 0.0296h0.014801l0.0592 0.074 0.1184 0.1184-0.3996 0.0592c-0.1628 0.0444-0.444 0.1924-0.6216 0.3404l-0.044401 0.0444a2.3384 2.3384 0 0 0-0.5476 0.1184h-0.029599l-0.014801 0.0148-0.148 0.0444h-0.014801l-0.059201 0.0148c-0.074 0.0296-0.1332 0.0296-0.1628 0.0148-0.0296 0-0.0444-0.0296-0.0444-0.0888 0-0.0444 0.0296-0.148 0.088801-0.2664v-0.0148l0.0148-0.0148a1.3912 1.3912 0 0 1 0.296-0.37c0.088801-0.0888 0.2072-0.1628 0.3256-0.222zm8.1697 0.296 0.1184-0.222 0.296 0.148c0.1036 0.074 0.2072 0.1628 0.296 0.2664l0.1184 0.2072 0.0296 0.1036v0.0148h-0.0296a0.444 0.444 0 0 1-0.1332 0 0.74001 0.74001 0 0 1-0.1628-0.0888 1.628 1.628 0 0 0-0.5328-0.4144zm0.148-4.736a2.516 2.516 0 0 1 2.3532 0c0.3552 0.1776 0.6364 0.444 0.76961 0.78441 0.148 0.3552 0.148 0.78441 0 1.2432-0.0444 0.074-0.1184 0.0888-0.222 0.0592l-0.074-0.0444-0.0592-0.0444c-0.1036-0.0592-0.1776-0.0888-0.2664-0.1036a0.296 0.296 0 0 0-0.222 0.0888l-0.0888 0.1184-0.0444 0.0592v0.0296l-0.0888 0.0592c-0.1332 0.0296-0.222-0.0444-0.3848-0.296l-0.0296-0.0296-0.0296-0.0444c-0.0888-0.1332-0.148-0.2072-0.2516-0.2368a0.71041 0.71041 0 0 0-0.5032-0.074h-0.0444c-0.0444 0.0296-0.1036 0.0148-0.148 0a1.332 1.332 0 0 1-0.3848-0.296 0.094767 0.094767 0 0 0-0.1184 0.148c0.3552 0.296 0.5032 0.3552 0.69561 0.3108h0.0296c0.1184-0.0296 0.2072-0.0296 0.3996 0.0592a18.012 18.012 0 0 1 0.4588 0.5328c0.1036 0.074 0.2072 0.1036 0.3404 0.074a0.2664 0.2664 0 0 0 0.1628-0.1184l0.0296-0.0444 0.0148-0.0296 0.0888-0.1036c0.0296-0.0296 0.0592-0.0444 0.1036-0.0444 0.0444 0 0.1036 0.0296 0.1776 0.074l0.0296 0.0296 0.0296 0.0148 0.074 0.0444c0.074 0.0296 0.0888 0.1184 0 0.2516-0.074 0.148-0.1628 0.2664-0.2812 0.37-0.4292 0.4588-1.2284 0.5624-1.85 0.2516l-0.0592-0.0296h-0.0148l-0.074-0.0444a2.22 2.22 0 0 1-0.2368-0.1184 3.108 3.108 0 0 0-0.5328-1.5392v-0.0148c0.1184-0.444 0.1924-0.88801 0.2072-1.332h0.0296zm-0.444 0.666c0.1036-0.3108 0.1776-0.6068 0.2072-0.88801v0.014801c0 0.444-0.0888 1.1248-0.2368 1.5836-0.0888 0.2516-0.222 0.4736-0.37 0.6808-0.2368 0.2812-0.5032 0.444-0.82881 0.444a1.1692 1.1692 0 0 1-0.85841-0.4588c-0.088801-0.1184-0.148-0.2368-0.1776-0.37 0.1776 0.148 0.4292 0.2072 0.69561 0.1924 0.2368 0 0.444-0.0592 0.66601-0.148 0.4144-0.222 0.7548-0.666 0.88801-1.0508zm-2.7528-0.3552c0.2368-0.666 0.2812-1.258 0.1924-1.776v-0.014801a1.0804 1.0804 0 0 1 0.2368 0.76961c-0.0444 0.66601-0.088801 1.0508-0.1924 1.4356a2.368 2.368 0 0 1-0.69561 1.184 1.1544 1.1544 0 0 1-1.2136 0.2072 1.1544 1.1544 0 0 1-0.74001-0.82881v-0.0148c0.1924 0.1776 0.444 0.2516 0.74001 0.2516 0.296 0 0.62161-0.0888 0.76961-0.148 0.4292-0.222 0.76961-0.68081 0.90281-1.0656zm1.3764-1.702c0.3404-0.148 0.82881-0.1184 1.0804 0.074001 0.1036 0.088801 0.2072 0.1924 0.2812 0.296 0.0592 0.4884 0.0148 1.0212-0.1924 1.6132-0.1184 0.3256-0.444 0.74001-0.79921 0.91761-0.1184 0.0592-0.3552 0.1332-0.5624 0.148-0.296 0-0.5476-0.0888-0.68081-0.296l-0.074001-0.148-0.0444-0.2368 0.088801-0.3108c0.088801 0.2664 0.296 0.4588 0.5476 0.518 0.3996 0.074 0.82881-0.296 0.96201-0.85841 0.148-0.5624-0.0444-1.0804-0.4736-1.184-0.3552-0.088801-0.6808 0.1036-0.88801 0.5032a13.202 13.202 0 0 0 0.0148-0.5476v-0.014801c0.0592-0.1184 0.3404-0.296 0.666-0.444h0.0296l0.0592-0.029599zm-2.59-0.4736c0.444-0.074001 0.84361-0.014801 1.1396 0.148v0.029599l0.014801 0.074001 0.029599 0.1332a3.256 3.256 0 0 1-0.1776 1.7168 1.776 1.776 0 0 1-0.78441 0.93241c-0.1332 0.0592-0.4292 0.148-0.66601 0.148-0.296 0-0.518-0.0888-0.65121-0.2812 0.074001-0.2072 0.1332-0.444 0.1628-0.666a0.69561 0.69561 0 0 0 0.4884 0.37c0.3996 0.074 0.82881-0.2812 0.97681-0.84361v-0.014801c0.1332-0.5624-0.0592-1.0656-0.4884-1.184-0.148-0.029599-0.3108 0-0.4588 0.0592 0.029599-0.1184 0.029599-0.2664-0.029599-0.4144 0.1332-0.1036 0.296-0.1776 0.444-0.2072zm1.8944 1.9388c0.148-0.5328 0.4588-0.79921 0.76961-0.72521 0.296 0.074 0.444 0.4588 0.3256 0.91761-0.1036 0.4736-0.444 0.74001-0.72521 0.69561-0.296-0.0592-0.4884-0.4144-0.37-0.88801zm1.5392-5.0912h0.2368l0.0296 0.014801-0.1036 0.148a22.407 22.407 0 0 1-0.81401 0.72521l-0.0888 0.074001-0.0296 0.029599-0.1036 0.074-0.0148 0.014801-0.148 0.1332-0.0444 0.044401-0.0296 0.029599-0.0148 0.074001a0.1036 0.1036 0 0 0 0.0888 0.1036h0.0444l0.1776-0.014801h0.0148l0.1036-0.014801c0.222-0.029599 0.3996-0.0444 0.5624-0.029599 0.4736 0 0.74001 0.148 0.79921 0.444 0.0444 0.3848-0.5476 1.0212-1.332 1.4208l-0.3552 0.1924h-0.0148l-0.2368 0.1184h-0.0148l-0.2072 0.088801 0.0888-0.81401 0.1924-0.044401h0.1184l0.1036-0.029599h0.0888l0.0148-0.029599c0.0296-0.014801 0.0444-0.0444 0.0444-0.088801 0-0.0444-0.0148-0.074-0.0444-0.088801h-0.0296l-0.0444-0.014801h-0.2072l-0.69561-0.0444c-0.6364-0.0296-0.9176-0.044401-1.184-0.088802-0.3108-0.0444-0.4884-0.1184-0.518-0.1924-0.0444-0.1332 0.1332-0.3848 0.4292-0.68081a6.8821 6.8821 0 0 1 2.4864-1.4504c0.2072-0.0444 0.444-0.088801 0.6512-0.1036z"
    clip-rule="evenodd"
    fill="#564341"
    fill-rule="evenodd"
    stroke-width=".148"
  />
  <path
    d="m1.6188 6.1928a0.074001 0.074001 0 0 0 0.1184 0.029599c0.5328-0.3256 0.82881-0.4736 1.48-0.592a0.074001 0.074001 0 0 0 0.0444-0.1036l-0.4736-1.3024a0.88801 0.88801 0 0 0-1.6576 0.592z"
    fill="#8bd7fd"
    stroke="#564341"
    stroke-linejoin="round"
    stroke-width=".148"
  />
  <path
    d="m1.8704 5.4824-0.37 0.1332 0.1924 0.5476 0.3552-0.1924zm0.3404-0.1776 0.1332-0.0444 0.1628 0.4736-0.1184 0.059201z"
    fill="#1371f1"
    stroke-width=".148"
  />
  <path
    d="m3.3504 10.825 0.63641 1.776 1.6576-0.6068-0.65121-1.776z"
    fill="#8bd7fd"
    stroke="#564341"
    stroke-linejoin="round"
    stroke-width=".148"
  />
  <path
    d="m3.8092 10.736-0.37 0.1332 0.592 1.628 0.37-0.148-0.592-1.628zm0.3404-0.1184 0.1184-0.0444 0.592 1.5984-0.1332 0.0592-0.592-1.6132z"
    fill="#1371f1"
    stroke-width=".148"
  />
  <path
    d="m2.8176 11.106 0.1628-0.074 0.592 1.6428-0.1628 0.0592z"
    fill="#f60"
    stroke-width=".148"
  />
  <path
    d="m2.9804 11.032-0.1628 0.074 0.592 1.628 0.1628-0.0592-0.592-1.628zm0.74001 1.5984c0.0296 0.074-0.0148 0.148-0.088801 0.1776l-0.1776 0.0592c-0.074 0.0296-0.148 0-0.1776-0.074l-0.592-1.6428a0.148 0.148 0 0 1 0.074-0.1924l0.1776-0.0592c0.074001-0.0296 0.148 0 0.1776 0.0888l0.592 1.628z"
    fill="#564341"
    stroke-width=".148"
  />
  <path
    d="m1.6484 3.662a0.88801 0.88801 0 0 0 0.592 1.6576l6.8525-2.5012c0.029599 0 0.0592-0.0592 0.0444-0.088801l-0.5624-1.5244a0.074001 0.074001 0 0 0-0.088801-0.0444z"
    fill="#8bd7fd"
    stroke="#564341"
    stroke-linejoin="round"
    stroke-width=".148"
  />
  <path
    d="m8.5156 1.2199-6.3345 2.3236 0.148 0.4144 6.3493-2.3236-0.148-0.4144zm0.2664 0.68081 0.0444 0.1184-6.5565 2.4272-0.0444-0.148 6.5565-2.3828z"
    fill="#1371f1"
    stroke-width=".148"
  />
  <circle
    transform="matrix(-.13908 .050619 -.050619 -.13908 5.1563 7.4924)"
    cx="13.2"
    cy="26.6"
    r="3.7"
    fill="#564341"
    filter="url(#y)"
  />
  <circle
    transform="rotate(139)"
    cx="1.4467"
    cy="-4.6731"
    r=".3256"
    fill="#ffed7e"
    stroke-width=".148"
  />
  <path
    d="m2.4624 2.7295 1.0508-0.3996 0.074 0.1776-1.0656 0.3848z"
    fill="#f60"
    stroke-width=".148"
  />
  <path
    d="m3.5132 2.3299-1.0508 0.4144 0.059201 0.148 1.0656-0.37-0.074-0.1776zm0.1924 0.1184c0.0296 0.074 0 0.148-0.074 0.1924l-1.0656 0.3848c-0.074001 0.0148-0.148-0.0148-0.1776-0.088801l-0.0592-0.1628a0.148 0.148 0 0 1 0.0888-0.1776l1.0508-0.3848c0.074001-0.0296 0.148 0 0.1776 0.074001l0.074 0.1628z"
    fill="#564341"
    stroke-width=".148"
  />
  <path
    d="m1.5004 3.2771 0.592-0.2072-0.074-0.1776-0.63641 0.222a1.406 1.406 0 0 0-0.84361 1.8204l0.592 1.6428 0.1628-0.148-0.5476-1.5096a1.258 1.258 0 0 1 0.74001-1.628z"
    fill="#f60"
    stroke-width=".148"
  />
  <path
    d="m1.9888 2.7443a0.148 0.148 0 0 1 0.1628 0.1036l0.0592 0.1628c0.0296 0.074001 0 0.148-0.074 0.1776l-0.592 0.222c-0.592 0.222-0.88801 0.87321-0.66601 1.4504l0.5624 1.5836c0.0296 0.074 0 0.148-0.088801 0.1776l-0.1924 0.059201-0.1332 0.0592-0.0444-0.1332-0.592-1.5984c-0.296-0.81401 0.1184-1.7168 0.94721-2.0128l0.63641-0.222h0.0148zm-0.6068 0.37a1.406 1.406 0 0 0-0.84361 1.8204l0.592 1.6428 0.1628-0.148-0.5476-1.5096a1.258 1.258 0 0 1 0.68081-1.628h0.0592l0.59201-0.222-0.0592-0.1776z"
    fill="#564341"
    stroke-width=".148"
  />
  <path
    d="m3.9424 2.1819 1.0656-0.3848 0.0592 0.1628-1.0656 0.3848-0.059201-0.148z"
    fill="#f60"
    stroke-width=".148"
  />
  <path
    d="m5.008 1.7971-1.0656 0.3848 0.059201 0.1628 1.0656-0.3848-0.0592-0.148zm0.1924 0.1184c0.014801 0.074001-0.014801 0.148-0.088801 0.1776l-1.0656 0.3848c-0.074 0.0296-0.148 0-0.1776-0.074l-0.0592-0.1628a0.148 0.148 0 0 1 0.0888-0.1924l1.0508-0.3848c0.074001-0.0296 0.148 0.0148 0.1776 0.088801z"
    fill="#564341"
    stroke-width=".148"
  />
  <path
    d="m5.4224 1.6491 1.0508-0.3996 0.0592 0.1776-1.036 0.3848-0.0592-0.1628z"
    fill="#f60"
    stroke-width=".148"
  />
  <path
    d="m6.4732 1.2643-1.0508 0.3848 0.0592 0.148 1.0508-0.3552zm0.1924 0.1036c0.029599 0.074001 0 0.148-0.074001 0.1924l-1.0656 0.3848c-0.074001 0.0148-0.148-0.0148-0.1776-0.088801l-0.0592-0.1628a0.148 0.148 0 0 1 0.088801-0.1776l1.0508-0.3996c0.074-0.0296 0.148 0 0.1776 0.074001l0.0592 0.1628z"
    fill="#564341"
    stroke-width=".148"
  />
  <path
    d="m6.9172 1.0867 1.0508-0.3848 0.0592 0.1628-1.0508 0.3996-0.0592-0.148z"
    fill="#f60"
    stroke-width=".148"
  />
  <path
    d="m7.968 0.70193-1.0508 0.3848 0.0592 0.1776 1.036-0.3996-0.059201-0.148zm0.1924 0.1184c0.029599 0.074001 0 0.148-0.074001 0.1776l-1.0656 0.3848c-0.074001 0.0296-0.148 0-0.1776-0.074001l-0.0592-0.1628a0.148 0.148 0 0 1 0.0888-0.1924l1.0508-0.3848c0.074001-0.0296 0.148 0.0148 0.1776 0.088801zm-0.3996 5.7424c-0.1036 0.0592-0.1924 0.148-0.2664 0.2368l-0.222 0.2516-0.1332-0.074 0.222-0.2812c0.088801-0.088801 0.1924-0.1924 0.296-0.2516l0.088801 0.1184z"
    fill="#564341"
    stroke-width=".148"
  />
  <defs>
    <linearGradient
      id="a"
      x1="39.1"
      x2="62.1"
      y1="63.5"
      y2="99.4"
      gradientTransform="matrix(.148 0 0 .148 .020377 .52433)"
      gradientUnits="userSpaceOnUse"
    >
      <stop stop-color="#FFBC9C" offset="0" />
      <stop stop-color="#FFBC9C" offset=".7" />
      <stop stop-color="#FFA67A" offset="1" />
    </linearGradient>
    <linearGradient
      id="b"
      x1="27.7"
      x2="25.6"
      y1="77.5"
      y2="85.9"
      gradientTransform="matrix(.148 0 0 .148 .020377 .52433)"
      gradientUnits="userSpaceOnUse"
    >
      <stop stop-color="#F28773" offset="0" />
      <stop stop-color="#F28773" offset=".3" />
      <stop stop-color="#F6A66A" offset="1" />
    </linearGradient>
    <linearGradient
      id="c"
      x1="31"
      x2="28.4"
      y1="81.6"
      y2="91.5"
      gradientTransform="matrix(.148 0 0 .148 .020377 .52433)"
      gradientUnits="userSpaceOnUse"
    >
      <stop stop-color="#F28773" offset="0" />
      <stop stop-color="#F28773" offset=".3" />
      <stop stop-color="#F6A66A" offset="1" />
    </linearGradient>
    <linearGradient
      id="d"
      x1="38"
      x2="34"
      y1="85.6"
      y2="100.4"
      gradientTransform="matrix(.148 0 0 .148 .020377 .52433)"
      gradientUnits="userSpaceOnUse"
    >
      <stop stop-color="#F28773" offset="0" />
      <stop stop-color="#F28773" offset=".3" />
      <stop stop-color="#F6A66A" offset="1" />
    </linearGradient>
    <linearGradient
      id="e"
      x1="79.7"
      x2="82"
      y1="91.4"
      y2="99.4"
      gradientTransform="matrix(.148 0 0 .148 .020377 .52433)"
      gradientUnits="userSpaceOnUse"
    >
      <stop stop-color="#F57A55" offset="0" />
      <stop stop-color="#F28773" offset=".4" />
      <stop stop-color="#FA9F6E" offset="1" />
    </linearGradient>
    <linearGradient
      id="f"
      x1="83.6"
      x2="87.1"
      y1="87"
      y2="94.4"
      gradientTransform="matrix(.148 0 0 .148 .020377 .52433)"
      gradientUnits="userSpaceOnUse"
    >
      <stop stop-color="#F57A55" offset="0" />
      <stop stop-color="#F28773" offset=".4" />
      <stop stop-color="#FA9F6E" offset="1" />
    </linearGradient>
    <linearGradient
      id="g"
      x1="86.8"
      x2="89.7"
      y1="83.9"
      y2="89.2"
      gradientTransform="matrix(.148 0 0 .148 .020377 .52433)"
      gradientUnits="userSpaceOnUse"
    >
      <stop stop-color="#F57A55" offset="0" />
      <stop stop-color="#F28773" offset=".4" />
      <stop stop-color="#FA9F6E" offset="1" />
    </linearGradient>
    <linearGradient
      id="h"
      x1="68.5"
      x2="68.5"
      y1="18.2"
      y2="44.5"
      gradientTransform="matrix(.148 0 0 .148 .020377 .52433)"
      gradientUnits="userSpaceOnUse"
    >
      <stop stop-color="#FFE768" offset="0" />
      <stop stop-color="#FFE768" offset=".4" />
      <stop stop-color="#FFBD4A" offset=".7" />
      <stop stop-color="#FFBD4A" offset="1" />
    </linearGradient>
    <linearGradient
      id="i"
      x1="74.1"
      x2="86.3"
      y1="42"
      y2="62"
      gradientTransform="matrix(.148 0 0 .148 .020377 .52433)"
      gradientUnits="userSpaceOnUse"
    >
      <stop stop-color="#564341" offset="0" />
      <stop stop-color="#564341" offset=".5" />
      <stop stop-color="#845750" offset="1" />
    </linearGradient>
    <linearGradient
      id="j"
      x1="55.2"
      x2="67.4"
      y1="39.3"
      y2="59.8"
      gradientTransform="matrix(.148 0 0 .148 .020377 .52433)"
      gradientUnits="userSpaceOnUse"
    >
      <stop stop-color="#564341" offset="0" />
      <stop stop-color="#564341" offset=".5" />
      <stop stop-color="#845750" offset="1" />
    </linearGradient>
    <linearGradient
      id="k"
      x1="84.3"
      x2="85.7"
      y1="83.7"
      y2="84.7"
      gradientTransform="matrix(.148 0 0 .148 .020377 .52433)"
      gradientUnits="userSpaceOnUse"
    >
      <stop stop-color="#C35C45" offset="0" />
      <stop stop-color="#B76455" offset="1" />
    </linearGradient>
    <linearGradient
      id="l"
      x1="81"
      x2="82.6"
      y1="87.5"
      y2="89.7"
      gradientTransform="matrix(.148 0 0 .148 .020377 .52433)"
      gradientUnits="userSpaceOnUse"
    >
      <stop stop-color="#C35C45" offset="0" />
      <stop stop-color="#B76455" offset="1" />
    </linearGradient>
    <linearGradient
      id="m"
      x1="49.3"
      x2="42.7"
      y1="90.4"
      y2="101.6"
      gradientTransform="matrix(.148 0 0 .148 .020377 .52433)"
      gradientUnits="userSpaceOnUse"
    >
      <stop stop-color="#AA6160" offset="0" />
      <stop stop-color="#B36F5F" offset="1" />
    </linearGradient>
    <linearGradient
      id="n"
      x1="75.4"
      x2="77.1"
      y1="91.8"
      y2="95.6"
      gradientTransform="matrix(.148 0 0 .148 .020377 .52433)"
      gradientUnits="userSpaceOnUse"
    >
      <stop stop-color="#C35C45" offset="0" />
      <stop stop-color="#B76455" offset="1" />
    </linearGradient>
    <linearGradient
      id="o"
      x1="38.3"
      x2="33.5"
      y1="84.4"
      y2="93"
      gradientTransform="matrix(.148 0 0 .148 .020377 .52433)"
      gradientUnits="userSpaceOnUse"
    >
      <stop stop-color="#AA6160" offset="0" />
      <stop stop-color="#B36F5F" offset="1" />
    </linearGradient>
    <linearGradient
      id="p"
      x1="33.6"
      x2="29.6"
      y1="79.7"
      y2="87.1"
      gradientTransform="matrix(.148 0 0 .148 .020377 .52433)"
      gradientUnits="userSpaceOnUse"
    >
      <stop stop-color="#AA6160" offset="0" />
      <stop stop-color="#B36F5F" offset="1" />
    </linearGradient>
    <linearGradient
      id="q"
      x1="103.5"
      x2="86.8"
      y1="54.8"
      y2="71.6"
      gradientTransform="matrix(.148 0 0 .148 .020377 .52433)"
      gradientUnits="userSpaceOnUse"
    >
      <stop stop-color="#FFCB87" offset="0" />
      <stop stop-color="#FFCB87" offset=".1" />
      <stop stop-color="#FFBC9C" offset=".4" />
      <stop stop-color="#FFBC9C" offset="1" />
    </linearGradient>
    <linearGradient
      id="r"
      x1="101.8"
      x2="81"
      y1="50.4"
      y2="72.7"
      gradientTransform="matrix(.148 0 0 .148 .020377 .52433)"
      gradientUnits="userSpaceOnUse"
    >
      <stop stop-color="#FBC38C" offset="0" />
      <stop stop-color="#F19675" offset=".3" />
      <stop stop-color="#F0876A" offset=".7" />
      <stop stop-color="#ED8870" offset="1" />
    </linearGradient>
    <linearGradient
      id="s"
      x1="91.1"
      x2="91.1"
      y1="57.8"
      y2="60.9"
      gradientTransform="matrix(.148 0 0 .148 .020377 .52433)"
      gradientUnits="userSpaceOnUse"
    >
      <stop stop-color="#FFFFFE" offset="0" />
      <stop stop-color="#fff" offset="1" />
    </linearGradient>
    <linearGradient
      id="t"
      x1="98.4"
      x2="98.4"
      y1="53.2"
      y2="61"
      gradientTransform="matrix(.148 0 0 .148 .020377 .52433)"
      gradientUnits="userSpaceOnUse"
    >
      <stop stop-color="#FFFFFE" offset="0" />
      <stop stop-color="#fff" offset="1" />
    </linearGradient>
    <linearGradient
      id="u"
      x1="12.5"
      x2="26.6"
      y1="34.3"
      y2="82.9"
      gradientTransform="matrix(.148 0 0 .148 .020377 .52433)"
      gradientUnits="userSpaceOnUse"
    >
      <stop stop-color="#FFCB87" offset="0" />
      <stop stop-color="#FFCB87" offset=".2" />
      <stop stop-color="#FFBC9C" offset=".7" />
      <stop stop-color="#FFBC9C" offset="1" />
    </linearGradient>
    <linearGradient
      id="v"
      x1=".9"
      x2="26.3"
      y1="49.9"
      y2="74.9"
      gradientTransform="matrix(.148 0 0 .148 .020377 .52433)"
      gradientUnits="userSpaceOnUse"
    >
      <stop stop-color="#FFCB87" offset="0" />
      <stop stop-color="#F79E75" offset=".3" />
      <stop stop-color="#EF876D" offset=".5" />
      <stop stop-color="#ED8870" offset="1" />
    </linearGradient>
    <linearGradient
      id="w"
      x1="24.7"
      x2="25"
      y1="54.4"
      y2="63"
      gradientTransform="matrix(.148 0 0 .148 .020377 .52433)"
      gradientUnits="userSpaceOnUse"
    >
      <stop stop-color="#FFFFFE" offset="0" />
      <stop stop-color="#fff" offset="1" />
    </linearGradient>
    <linearGradient
      id="x"
      x1="15.9"
      x2="16.4"
      y1="42.2"
      y2="58.4"
      gradientTransform="matrix(.148 0 0 .148 .020377 .52433)"
      gradientUnits="userSpaceOnUse"
    >
      <stop stop-color="#FFF9CE" offset="0" />
      <stop stop-color="#fff" offset="1" />
    </linearGradient>
    <filter
      id="y"
      x="9.2"
      y="22.9"
      width="7.7"
      height="7.7"
      color-interpolation-filters="sRGB"
      filterUnits="userSpaceOnUse"
    >
      <feFlood flood-opacity="0" result="BackgroundImageFix" />
      <feColorMatrix
        in="SourceAlpha"
        result="hardAlpha"
        values="0 0 0 0 0 0 0 0 0 0 0 0 0 0 0 0 0 0 127 0"
      />
      <feOffset dx="-.3" dy=".3" />
      <feComposite in2="hardAlpha" operator="out" />
      <feColorMatrix
        values="0 0 0 0 0.968627 0 0 0 0 0.411765 0 0 0 0 0 0 0 0 0.5 0"
      />
      <feBlend in2="BackgroundImageFix" result="effect1_dropShadow_2670_681" />
      <feBlend
        in="SourceGraphic"
        in2="effect1_dropShadow_2670_681"
        result="shape"
      />
      <feColorMatrix
        in="SourceAlpha"
        result="hardAlpha"
        values="0 0 0 0 0 0 0 0 0 0 0 0 0 0 0 0 0 0 127 0"
      />
      <feOffset dy=".5" />
      <feComposite in2="hardAlpha" k2="-1" k3="1" operator="arithmetic" />
      <feColorMatrix
        values="0 0 0 0 0.433988 0 0 0 0 0.364864 0 0 0 0 0.326461 0 0 0 1 0"
      />
      <feBlend in2="shape" result="effect2_innerShadow_2670_681" />
      <feColorMatrix
        in="SourceAlpha"
        result="hardAlpha"
        values="0 0 0 0 0 0 0 0 0 0 0 0 0 0 0 0 0 0 127 0"
      />
      <feOffset dx="-.5" />
      <feComposite in2="hardAlpha" k2="-1" k3="1" operator="arithmetic" />
      <feColorMatrix
        values="0 0 0 0 0.129376 0 0 0 0 0.129376 0 0 0 0 0.129376 0 0 0 1 0"
      />
      <feBlend
        in2="effect2_innerShadow_2670_681"
        result="effect3_innerShadow_2670_681"
      />
    </filter>
  </defs>
</svg>
