<svg viewBox="0 0 16 16" xmlns="http://www.w3.org/2000/svg">
  <g stroke-width=".02771">
    <path
      d="m9.5669 3.6978c-0.13855 0.13855-0.24939 0.2771-0.30481 0.44335-0.02771 0.083129-0.055419 0.13855-0.02771 0.16626 0.02771 0.13855 0.41564 0.19397 0.55419 0.19397l1.1915 0.055419 0.91442 0.11084 0.05542 0.055419c0 0.083129-0.08313 0.11084-0.13855 0.11084h-0.24939c-0.05542 0-0.13855 0.055419-0.13855 0.13855l-0.08313 0.859h0.05542l0.33251-0.19397 0.3048-0.16626c0.36022-0.16626 0.69274-0.44335 0.99754-0.72045 0.22168-0.19397 0.41564-0.38793 0.49877-0.66503 0.083128-0.2771-0.11084-0.49877-0.38793-0.55419"
      stroke="#ab7f45"
    />
    <path
      d="m13.141 3.5316-0.38793-0.055419-0.94212 0.027709c-0.08313 0-0.11084-0.027709-0.08313-0.11084l0.08313-0.13855 0.49877-0.41564 0.49877-0.44335 0.3048-0.33251v-0.02771a3.3251 3.3251 0 0 0-1.4963 0.30481c-0.63732 0.2771-1.2469 0.63732-1.7734 1.1084l-0.2771 0.24939"
      stroke="#ab9655"
    />
    <path
      d="m13.169 3.5316-0.02771 0.027709v0.02771l-0.13855 0.33251-0.16626 0.13855-0.36022 0.16626-0.69274 0.13855h-0.47106l-0.41564-0.055419-0.69274-0.16626-0.19397-0.083129-0.16626-0.083129-0.22168-0.22168-0.02771-0.055419"
      stroke="#ffd259"
    />
    <path d="m0.86606 7.8265 0.38793-0.11084" stroke="#ab836a" />
    <path
      d="m1.2263 7.7157 1.0807-0.47106 0.16626-0.02771c0.24939-0.02771 0.24939 0.33251 0.2771 0.49877 0 0.24939 0.055419 0.49877 0.16626 0.69274 0.11084 0.19397 0.33251 0.24939 0.55419 0.24939 0.30481-0.02771 0.60961-0.055419 0.91442-0.13855l0.99754-0.19397 0.33251-0.083129 0.16626-0.02771c0.16626 0.02771 0.22168 0.19397 0.24939 0.33251l0.02771 0.36022c0 0.083129-0.02771 0.11084-0.11084 0.13855-0.055419 0-0.13855-0.055419-0.13855-0.11084v-0.13855"
      stroke="#ab806f"
    />
    <path d="m5.9369 8.7964-0.02771-0.13855" stroke="#a4655a" />
    <path
      d="m5.9092 8.6578-0.027709-0.16626-0.02771-0.02771-0.083129 0.02771"
      stroke="#825451"
    />
    <path
      d="m5.7429 8.4916-1.4409 0.30481-0.69274 0.083129c-0.36022 0.02771-0.69274 0-0.88671-0.33251-0.083129-0.13855-0.16626-0.2771-0.19397-0.44335l-0.055419-0.24939"
      stroke="#a4655a"
    />
    <path
      d="m2.5009 7.8542v-0.38793h-0.02771l-0.74816 0.30481"
      stroke="#825451"
    />
    <path d="m1.7251 7.7711-0.49877 0.22168v0.19397" stroke="#a4655a" />
    <path
      d="m1.1986 8.1868 0.16626 0.55419c0.30481 0.63732 0.77587 1.1361 1.3855 1.4686l0.13855 0.08313"
      stroke="#ab806f"
    />
    <path
      d="m2.8889 10.293a5.2648 5.2648 0 0 0 2.1891 0.49877c0.36022-0.02771 0.69274-0.11084 1.0253-0.24939"
      stroke="#a65e4b"
    />
    <path
      d="m6.1032 10.542c0.30481-0.13855 0.60961-0.3048 0.859-0.52648l0.11084-0.083129c0.19397-0.19397 0.38793-0.44335 0.52648-0.72045l0.11084-0.2771c0.13855-0.41564 0.24939-0.83129 0.2771-1.2746l-0.02771-0.63732"
      stroke="#825451"
    />
    <path
      d="m7.9597 7.023c-0.02771-0.36022-0.083129-0.69274-0.22168-0.99754l-0.41564-0.69274"
      stroke="#a4655a"
    />
    <path
      d="m7.3224 5.3327c-0.24939-0.36022-0.52648-0.66503-0.88671-0.94213"
      stroke="#ab806f"
    />
    <path d="m6.4634 4.3905-0.16626-0.13855" stroke="#ab836a" />
    <path
      d="m6.2694 4.252c-0.49877-0.33251-1.053-0.49877-1.6349-0.55419l-0.55419-0.02771c-1.1915 0-2.2168 0.69274-2.9649 1.6072-0.36022 0.47106-0.60961 1.053-0.80358 1.6349-0.083129 0.2771-0.11084 0.55419 0.02771 0.80358 0.055419 0.083129 0.13855 0.13855 0.22168 0.13855l0.2771-0.02771"
      stroke="#ab8666"
    />
    <path
      d="m6.2694 4.252-0.22168 0.055419h-0.02771l-0.055419 0.02771-0.027709 0.02771h-0.055419l-0.02771 0.02771-0.055419 0.02771h-0.02771l-0.02771 0.02771h-0.02771l-0.02771 0.02771h-0.027709l-0.083129 0.055419h-0.083129a0.02771 0.02771 0 0 1-0.02771 0.02771l-0.055419 0.02771h-0.22167l-0.02771 0.02771h-0.47106l-0.02771 0.02771h-0.22168l-0.02771 0.02771h-0.13855l-0.02771 0.02771"
      stroke="#ffc68f"
    />
    <path
      d="m4.2466 4.6954c-0.24939-0.36022-0.66503-0.44335-1.0807-0.38793-0.47106 0.083129-0.99754 0.30481-1.3023 0.66503-0.30481 0.36022-0.36022 0.80358-0.11084 1.1915"
      stroke="#ffe2b1"
    />
    <path
      d="m1.7528 6.164c-0.055419 0-0.083129 0.02771-0.083129 0.055419l-0.027709 0.02771-0.083129 0.083129v0.055419l-0.11084 0.083129v0.055419l-0.055419 0.02771v0.055419l-0.055419 0.02771v0.055419l-0.083129 0.083129v0.055419l-0.027709 0.027708v0.02771l-0.083129 0.083129v0.055419l-0.02771 0.02771v0.02771l-0.027709 0.02771v0.02771c-0.02771 0.02771-0.055419 0.02771-0.02771 0.055419l-0.02771 0.02771v0.055419c-0.02771 0.02771-0.055419 0.02771-0.02771 0.055419l-0.02771 0.02771v0.055419l-0.02771 0.055419v0.02771c-0.02771 0.02771-0.055419 0.02771-0.02771 0.055419v0.02771l-0.02771 0.055419-0.02771 0.02771v0.02771l-0.02771 0.02771v0.11084"
      stroke="#ffc68f"
    />
    <path
      d="m6.4357 4.3905v0.02771h0.027709v0.02771h-0.055419l-0.055419 0.02771h-0.02771l-0.083129 0.02771h-0.083129l-0.02771 0.02771-0.11084 0.02771-0.02771 0.02771h-0.055419l-0.02771 0.02771h-0.027709l-0.055419 0.083129h-0.055419l-0.083129 0.083129-0.055419 0.02771v0.02771l-0.19396 0.083124h-0.055419l-0.055419 0.02771h-0.16626l-0.055419 0.02771h-0.47106v0.02771h-0.13855l-0.083129 0.02771"
      stroke="#ffbf98"
    />
    <path d="m4.4406 5.0279-0.055419-0.13855" stroke="#ffe0bf" />
    <path d="m4.3852 4.8893-0.11084-0.19397" stroke="#ffdfb6" />
    <path
      d="m4.3575 4.8893-0.11084-0.02771-0.11084-0.055419h-0.22168l-0.24939 0.055419-0.02771 0.02771h-0.02771l-0.055419 0.02771-0.16626 0.055419c-0.38793 0.13855-0.74816 0.36022-1.0807 0.63732l-0.33251 0.33251-0.055419 0.083129h0.027709v0.16626l0.22168 0.19397 0.055419 0.055419c0.02771 0.02771 0.055419 0.055419 0.02771 0.083129"
      stroke="#fffce2"
    />
    <path d="m2.2515 6.5242-0.24939-0.11084" stroke="#ffdcba" />
    <path d="m2.0021 6.4133-0.24939-0.24939" stroke="#ffdfb6" />
    <path
      d="m7.3224 5.3327c0.083129 0.33251 0.13855 0.60961 0.13855 0.83129v0.60961c0 0.33251-0.055419 0.63732-0.22168 0.94212l-0.41564 0.63732c-0.49877 0.60961-1.1084 1.1084-1.8288 1.4963-0.30481 0.16626-0.60961 0.2771-0.91442 0.33251l-0.96983 0.08313"
      stroke="#f9a288"
    />
    <path d="m3.1382 10.265-0.22168 0.02771" stroke="#fb9b78" />
    <path
      d="m1.1986 8.1868c0.24939-0.055419 0.52648-0.083129 0.77587-0.055419 0.13855 0 0.30481 0 0.41564 0.11084 0.11084 0.11084 0.22168 0.2771 0.30481 0.47106 0.083129 0.13855 0.19397 0.22168 0.38793 0.24939h0.69274l1.8843-0.33251c0.083129-0.02771 0.11084 0 0.13855 0.055419l0.11084 0.11084"
      stroke="#f9a288"
    />
    <path
      d="m1.2263 7.7157v-0.02771h0.027709l0.02771-0.02771-0.02771-0.02771 0.02771-0.02771v-0.055417l0.02771-0.02771v-0.02771l0.02771-0.02771v-0.02771l0.02771-0.02771v-0.02771l0.027709-0.02771v-0.02771l0.02771-0.02771v-0.02771c0.02771-0.02771 0.055419-0.02771 0.02771-0.055419v-0.02771l0.05542-0.05542v-0.055419l0.027709-0.02771v-0.02771l0.083129-0.083129v-0.055419l0.02771-0.02771v-0.02771l0.055419-0.02771v-0.055419l0.055419-0.02771v-0.055419l0.083129-0.055419v-0.055419l0.083129-0.055419v-0.02771l0.055419-0.055419h0.02771"
      stroke="#ffbf98"
    />
    <path d="m2.2792 6.5242 0.24939 0.055419" stroke="#ffddc4" />
    <path
      d="m2.5009 6.5796c0.66503 0.13855 1.3301-0.22168 1.6903-0.74816"
      stroke="#ffdece"
    />
    <path
      d="m4.1912 5.8314c0.19397-0.24939 0.24939-0.49877 0.22168-0.80358"
      stroke="#ffddc4"
    />
    <path
      d="m4.1912 5.8314 0.083129-0.22168v-0.055419l0.055419-0.13855c0.02771-0.02771 0-0.083129-0.02771-0.11084h-0.22168l-0.055419 0.02771h-0.02771l-0.055419 0.02771h-0.02771l-0.055419 0.02771h-0.02771v0.02771h-0.02771l-0.055419 0.02771h-0.02771l-0.055419 0.02771h-0.02771l-0.055419 0.02771h-0.02771l-0.02771 0.02771h-0.055419l-0.02771 0.02771-0.16626 0.055419-0.19397 0.11084-0.16626 0.16626h-0.055416l-0.055419 0.083129h-0.055419l-0.13855 0.16625h-0.055419l-0.22168 0.22168v0.11084l0.02771 0.02771 0.13855 0.083129"
      stroke="#fffef5"
    />
    <path
      d="m7.9597 7.023v0.30481l-0.02771 0.2771c-0.055419 0.41564-0.16626 0.83129-0.3048 1.2192l-0.11084 0.24939"
      stroke="#d0766a"
    />
    <path
      d="m7.5164 9.0735h-0.083129l-0.083129 0.083129h-0.055418l-0.2771 0.16626-0.16626 0.11084-0.13855 0.083129-0.22168 0.13855-0.96983 0.38793-0.94213 0.19397-0.19397 0.02771h-0.055419l-0.055419 0.02771h-0.24939l-0.24939 0.02771h-0.47106c-0.055419 0.02771-0.11084 0-0.19397-0.05542"
      stroke="#f48064"
    />
    <path
      d="m5.7429 8.4916c0.083129 0 0.11084 0.11084 0.13855 0.16626"
      stroke="#d0766a"
    />
    <path
      d="m6.1032 10.542 0.33251-0.24939 0.11084-0.11084c0.36022-0.2771 0.72045-0.66503 0.96983-1.1084"
      stroke="#d26f5a"
    />
    <path
      d="m2.4732 7.8542-0.02771-0.11084c-0.02771-0.055419-0.055419-0.11084-0.13855-0.11084l-0.24939 0.055419-0.36022 0.083129"
      stroke="#d0766a"
    />
    <path
      d="m8.791 8.7132c-0.22168-0.02771-0.47106-0.11084-0.60961-0.30481 0 0.36022 0.2771 0.72045 0.5819 0.859l0.47106 0.13855c0.24939 0.055419 0.44335 0 0.66503-0.13855 0.24939-0.16626 0.49877-0.36022 0.63732-0.60961a7.4816 7.4816 0 0 0 0.44335-1.3578c0.05542-0.36022 0.11084-0.69274 0.05542-1.053-0.05542-0.19397-0.11084-0.38793-0.22168-0.55419-0.02771-0.02771-0.02771 0-0.02771 0.02771 0.11084 0.77587-0.05542 1.5517-0.44335 2.2168l-0.24939 0.3048a1.718 1.718 0 0 1-1.3023 0.47106"
      stroke="#aba1a0"
    />
    <path
      d="m8.8464 7.7988-0.11084 0.22168v0.19397l0.055419 0.16626 0.055419 0.083129 0.083129 0.083129c0.2771 0 0.52648-0.083129 0.74816-0.22168 0.22168-0.13855 0.41564-0.30481 0.55419-0.55419a0.02771 0.02771 0 0 0-0.02771-0.02771l-0.05542-0.083129-0.08313-0.02771-0.05542-0.055419h-0.05542v-0.02771l-0.24939-0.02771-0.055419 0.02771h-0.055419l-0.083129 0.02771h-0.055419"
      stroke="#6c4d48"
    />
    <path
      d="m9.456 7.5771c0.24939-0.2771 0.33251-0.60961 0.30481-0.99754-0.055419-0.49877-0.55419-0.88671-1.0253-0.52648-0.24939 0.16626-0.36022 0.44335-0.41564 0.72045-0.083129 0.41564 0.083129 0.94212 0.52648 1.0253"
      stroke="#aba1a0"
    />
    <path
      d="m9.456 7.5771c-0.16626 0.19397-0.36022 0.24939-0.60961 0.22168"
      stroke="#c0aba7"
    />
    <path
      d="m11.479 8.0759c-0.08313 0.11084-0.16626 0.22168-0.19397 0.36022l-0.05542 0.22168v0.02771c0.19397 0.19397 0.41564 0.24939 0.69274 0.22168 0.33252-0.02771 0.60961-0.13855 0.80358-0.36022l0.05542-0.083129 0.02771-0.13855 0.02771-0.11084v-0.16626l-0.055419-0.13855-0.13855-0.11084-0.16626-0.083129"
      stroke="#6c4d48"
    />
    <path
      d="m12.476 7.7157c0.08313-0.19397 0.13855-0.38793 0.11084-0.60961-0.02771-0.38793-0.30481-0.74816-0.72045-0.63732-0.2771 0.055419-0.47106 0.30481-0.55419 0.55419-0.08313 0.19397-0.11084 0.36022-0.08313 0.55419 0.02771 0.19397 0.11084 0.36022 0.24939 0.49877"
      stroke="#aba1a0"
    />
    <path
      d="m12.476 7.7157c-0.08313 0.19397-0.22168 0.33251-0.36022 0.41564-0.22168 0.13855-0.44335 0.11084-0.63732-0.055419"
      stroke="#c0aba7"
    />
    <path
      d="m13.308 8.7687a4.6275 4.6275 0 0 0 0.3048-1.9951l-0.05542-0.30481h-0.02771v0.72045c-0.08313 0.44335-0.19397 0.83129-0.44335 1.2192a1.4963 1.4963 0 0 1-1.3024 0.69274c-0.24939 0-0.47106-0.11084-0.66503-0.30481v0.027709l0.11084 0.33251c0.11084 0.24939 0.44335 0.44335 0.72045 0.52648 0.13855 0.055419 0.2771 0.055419 0.41564 0 0.47106-0.13855 0.72045-0.49877 0.94212-0.91442"
      stroke="#aba1a0"
    />
    <path
      d="m14.222 10.154v0.5819c0.11084-0.02771 0.22168-0.05542 0.36022-0.13855 0.19397-0.08313 0.38793-0.19397 0.49877-0.36022 0.11084-0.11084 0.16626-0.3048 0.24939-0.44335v-0.02771h-0.02771"
      stroke="#825451"
    />
    <path
      d="m15.303 9.7662-0.24939-0.13855h-0.05542l-0.05542 0.11084c-0.05542 0.11084-0.22168 0.083129-0.22168-0.055419 0-0.24939 0.22168-0.38793 0.47106-0.2771 0.13855 0.083129 0.3048 0.22168 0.44335 0.055419 0.05542-0.055419 0.08313-0.16626 0.08313-0.24939v-0.69274l-0.05542-0.16626"
      stroke="#a4655a"
    />
    <path
      d="m15.663 8.353c-0.083129-0.36022-0.24939-0.63732-0.47106-0.88671-0.13855-0.19397-0.33251-0.30481-0.5819-0.38793"
      stroke="#a56e58"
    />
    <path
      d="m14.61 7.0784c-0.11084-0.083129-0.22168-0.11084-0.3048-0.11084-0.19397-0.02771-0.3048 0.11084-0.38793 0.24939l-0.02771 0.13855-0.05542 0.30481c-0.02771 0.30481-0.11084 0.60961-0.19397 0.859l0.02771 0.02771 0.08313 0.11084c0.24939 0.36022 0.38793 0.74816 0.44335 1.1915l0.02771 0.30481"
      stroke="#a4655a"
    />
    <path
      d="m14.61 7.0784 0.11084 0.13855v0.055419l0.08313 0.055419v0.055419l0.11084 0.083129v0.055419l0.08313 0.055419v0.055419l0.08313 0.055419v0.055419l0.05542 0.02771v0.055419l0.05542 0.02771v0.055419l0.11084 0.083129v0.055419l0.05542 0.055419h0.05542v0.055419h0.02771l0.22168 0.19397"
      stroke="#f39071"
    />
    <path
      d="m15.303 9.7662c-0.19397 0.30481-0.44335 0.49877-0.74816 0.60961h-0.11084c-0.13855-0.02771-0.16626-0.08313-0.22168-0.22168"
      stroke="#d0766a"
    />
    <path
      d="m9.1235 9.6277c-0.47106-0.083129-0.83129-0.2771-1.0253-0.69274h-0.02771l-0.2771 0.52648c-0.19397 0.33251-0.44335 0.5819-0.74816 0.83129"
      stroke="#a4655a"
    />
    <path
      d="m7.0453 10.293c-0.2771 0.19397-0.5819 0.38793-0.91442 0.52648h-0.02771c-0.02771 0.13855 0 0.2771 0.055419 0.36022 0.11084 0.13855 0.24939 0.2771 0.38793 0.36022l0.13855 0.13855c0.19397 0.19397 0.47106 0.41564 0.72045 0.49877 0.13855 0.05542 0.24939 0.13855 0.36022 0.24939l0.30481 0.33251 0.2771 0.33252 0.13855 0.05542 1.1638 0.2771c0.41564 0.08313 0.859 0.08313 1.3023 0.05542l0.66503-0.13855a3.7408 3.7408 0 0 0 1.2192-0.66503l0.52648-0.55419a3.0758 3.0758 0 0 0 0.5819-1.524"
      stroke="#ab806f"
    />
    <path
      d="m13.945 10.597v-0.13855c-0.02771-0.5819-0.13855-1.1084-0.38793-1.6349h-0.02771c-0.22168 0.52648-0.55419 0.94213-1.1361 1.1084"
      stroke="#a4655a"
    />
    <path
      d="m12.393 9.9325c-0.36022 0.11084-0.72045-0.02771-1.0253-0.24939-0.38793-0.24939-0.47106-0.60961-0.52648-1.053v0c-0.19397 0.38793-0.52648 0.69274-0.88671 0.88671-0.24939 0.13855-0.52648 0.19397-0.83129 0.11084"
      stroke="#ab806f"
    />
    <path
      d="m12.393 9.9325c0.02771 0.3048 0.24939 0.49877 0.49877 0.60961 0.19397 0.08313 0.38793 0.11084 0.5819 0.13855 0.16626 0.02771 0.33251 0 0.47106-0.08313m-6.8997-0.30481 0.083129 0.02771c0.11084 0.13855 0.30481 0.19397 0.49877 0.19397 0.24939 0 0.52648-0.02771 0.77587-0.11084 0.33251-0.08313 0.55419-0.2771 0.69274-0.5819v-0.11084l0.02771-0.083129"
      stroke="#f9a288"
    />
    <path
      d="m4.2466 11.9h0.19397l0.33251-0.11084 0.11084-0.05542c0.30481-0.24939 0.63732-0.36022 1.053-0.33252l0.027709-0.02771c0-0.11084-0.22168-0.19397-0.30481-0.22168"
      stroke="#825451"
    />
    <path
      d="m5.6598 11.152c-0.47106-0.11084-1.0253 0.11084-1.3301 0.47106-0.083129 0.083129-0.11084 0.16626-0.13855 0.24939v0.02771h0.055419"
      stroke="#a4655a"
    />
    <path
      d="m5.6875 11.152-0.16626 0.16626-0.52648 0.2771-0.72045 0.3048"
      stroke="#d0766a"
    />
    <path
      d="m4.8839 12.094-0.19397 0.24939c-0.055419 0.08313-0.083129 0.22168-0.11084 0.36022"
      stroke="#a56e58"
    />
    <path
      d="m4.5791 12.703c0.083129 0.02771 0.19397 0 0.33251-0.02771 0.22168-0.08313 0.44335-0.16626 0.69274-0.19397h0.027709c0.2771-0.24939 0.60961-0.38793 0.99754-0.41564v-0.02771c-0.055419-0.19396-0.19397-0.3048-0.41564-0.36022"
      stroke="#825451"
    />
    <path
      d="m6.214 11.678a1.4686 1.4686 0 0 0-1.1361 0.19397l-0.083129 0.08313-0.11084 0.13855"
      stroke="#a4655a"
    />
    <path
      d="m6.214 11.678c-0.02771 0.16626-0.11084 0.30481-0.24939 0.38793l-0.38793 0.2771-0.16626 0.08313"
      stroke="#d0766a"
    />
    <path
      d="m5.4104 12.426v-0.08313l-0.027709-0.02771h-0.02771l-0.027709-0.02771h-0.02771l-0.02771-0.02771h-0.02771l-0.02771-0.02771h-0.02771c-0.02771-0.02771-0.02771-0.05542-0.055419-0.02771l-0.027709-0.02771h-0.02771l-0.027709-0.02771h-0.083129l-0.055419-0.02771h-0.02771v-0.02771"
      stroke="#f39071"
    />
    <path d="m4.6068 12.703 0.5819-0.16626 0.24939-0.11084" stroke="#d17f67" />
    <path
      d="m13.945 11.872-0.11084 0.19397h0.02771l0.11084 0.08313"
      stroke="#825451"
    />
    <path
      d="m13.945 12.149 0.22168 0.19397 0.13855 0.11084 0.2771 0.11084v-0.02771c0-0.08313-0.05542-0.13855-0.11084-0.22168-0.13855-0.19397-0.3048-0.36022-0.55419-0.44335v0c-0.02771 0-0.02771 0 0 0"
      stroke="#a65e4b"
    />
    <path d="m13.973 12.149-0.02771-0.2771" stroke="#d26f5a" />
    <path
      d="m13.529 12.565-0.16626 0.11084v0.02771l0.2771 0.11084"
      stroke="#825451"
    />
    <path d="m13.64 12.814 0.05542 0.02771" stroke="#a65e4b" />
    <path
      d="m13.668 12.842c0.11084 0.02771 0.19397 0.08313 0.2771 0.16626l0.16626 0.08313 0.24939 0.19397h0.02771l-0.02771-0.16626c-0.08313-0.19397-0.16626-0.38793-0.3048-0.55419"
      stroke="#a56e58"
    />
    <path
      d="m14.056 12.565c-0.08313-0.11084-0.19397-0.19397-0.33251-0.24939h-0.02771l-0.19397 0.24939"
      stroke="#a65e4b"
    />
    <path
      d="m14.084 12.565-0.05542 0.05542v0.02771h-0.02771l-0.11084 0.08313h-0.02771l-0.05542 0.05542-0.11084 0.05542"
      stroke="#f58961"
    />
    <path d="m13.64 12.814-0.11084-0.24939" stroke="#d26f5a" />
    <path
      d="m5.8538 12.62c-0.30481 0.22168-0.49877 0.47106-0.63732 0.77587-0.083129 0.16626-0.11084 0.33252-0.083129 0.52648l0.055419 0.02771h0.13855l0.55419-0.11084"
      stroke="#a56e58"
    />
    <path
      d="m5.8815 13.84 0.55419-0.13855 0.49877-0.08313 0.47106-0.13855c0.13855-0.02771 0.24939-0.11084 0.30481-0.22168 0.083129-0.13855 0.083129-0.2771 0-0.41564-0.083129-0.13855-0.16626-0.24938-0.30481-0.33251"
      stroke="#825451"
    />
    <path
      d="m7.4055 12.509-0.22168-0.13855-0.55419-0.055419c-0.2771 0.02771-0.52648 0.11084-0.77587 0.3048"
      stroke="#a4655a"
    />
    <path
      d="m7.4055 12.509 0.055419 0.16626v0.11084c-0.055419 0.16626-0.16626 0.3048-0.30481 0.41564l-0.38793 0.2771"
      stroke="#d0766a"
    />
    <path
      d="m6.7682 13.479-0.5819-0.63732h-0.055419l-0.11084-0.13855h-0.055419l-0.11084-0.08313"
      stroke="#f39071"
    />
    <path
      d="m5.8815 13.84c0.30481-0.083129 0.5819-0.22168 0.88671-0.36022"
      stroke="#d17f67"
    />
    <path
      d="m12.892 13.091-0.2771 0.22168a0.055419 0.055419 0 0 0 0 0.08313l0.11084 0.05542 0.60961 0.16626"
      stroke="#825451"
    />
    <path
      d="m13.335 13.618 0.77587 0.24939h0.08313l0.02771-0.08313c-0.02771-0.36022-0.22168-0.5819-0.52648-0.69274-0.08313-0.02771-0.13855-0.05542-0.16626-0.02771"
      stroke="#a56e58"
    />
    <path
      d="m13.529 13.064c-0.19397-0.02771-0.47106-0.05542-0.63732 0.02771"
      stroke="#a65e4b"
    />
    <path d="m13.557 13.064-0.41564 0.41564" stroke="#f58961" />
    <path d="m13.141 13.479-0.19397-0.22168-0.02771-0.16626" stroke="#d26f5a" />
    <path d="m13.363 13.618-0.22168-0.13855" stroke="#d17f67" />
    <path
      d="m4.1081 6.7459c0.02771 0.13855 0.13855 0.22168 0.2771 0.24939 0.30481 0.083129 0.60961-0.02771 0.859-0.22168 0.24939-0.19397 0.44335-0.55419 0.19397-0.859l-0.22168-0.11084c-0.33251-0.11084-0.69274 0.11084-0.91442 0.36022l-0.13855 0.19397c-0.083129 0.11084-0.11084 0.2771-0.055419 0.38793"
      stroke="#ffdece"
    />
    <path
      d="m10.675 9.9602c-0.19397-0.083129-0.41564-0.16626-0.47106-0.36022l-0.02771-0.02771-0.08313 0.055419c-0.11084 0.13855 0.02771 0.2771 0.13855 0.33251 0.3048 0.16626 0.63732 0.22168 0.96984 0.13855v-0.02771l-0.52648-0.11084"
      stroke="#ab806f"
    />
    <path
      d="m8.0428 6.1085c0.13855-0.24939 0.30481-0.49877 0.49877-0.69274 0.44335-0.44335 1.1638-0.49877 1.7734-0.36022 0.19397 0.055419 0.36022 0.13855 0.49877 0.2771l0.11084 0.083129 0.16626 0.13855h0.02771l0.02771-0.16626 0.02771-0.33251c0-0.083129-0.02771-0.11084-0.08313-0.13855l-0.49877-0.11084-0.77587-0.055419c-0.30481-0.02771-0.88671-0.083129-0.83129-0.52648 0.02771-0.36022 0.36022-0.69274 0.63732-0.91442a6.678 6.678 0 0 1 2.771-1.4686l0.77587-0.055419c0.24939 0.02771 0.2771 0.24939 0.16626 0.41564-0.08313 0.11084-0.16626 0.22168-0.3048 0.30481l-0.74816 0.66503v0.02771c0.30481-0.02771 0.5819 0 0.83129 0.055419 0.36022 0.083129 0.66503 0.2771 0.66503 0.66503 0.02771 0.2771-0.16626 0.60961-0.36022 0.83129-0.22168 0.22168-0.49877 0.44335-0.77587 0.63732v0.02771c0.24939 0 0.44335 0.055419 0.60961 0.22168 0.33252 0.24939 0.52648 0.60961 0.60961 1.0253h0.02771l0.63732 0.083129c0.19397 0.083129 0.47106 0.19397 0.63732 0.33251a2.3553 2.3553 0 0 1 0.77587 2.3276c-0.02771 0.13855-0.11084 0.24939-0.24939 0.33251l-0.02771 0.02771c-0.08313 0.13855-0.13855 0.30481-0.24939 0.44335l-0.11084 0.19397c-0.22168 0.24939-0.60961 0.47106-0.91442 0.55419l-0.08313 0.05542-0.11084 0.13855-0.13855 0.41564 0.11084 0.13855c0.24939 0.11084 0.44335 0.3048 0.5819 0.5819 0.05542 0.11084 0.11084 0.22168 0.08313 0.33251-0.02771 0.13855-0.13855 0.19397-0.2771 0.19397l-0.02771 0.02771c0.08313 0.19397 0.16626 0.47106 0.02771 0.63732-0.02771 0.02771-0.08313 0.05542-0.13855 0.02771l-0.02771 0.02771v0.11084c0.02771 0.11084 0.08313 0.3048-0.02771 0.41564-0.11084 0.11084-0.24939 0.08313-0.38793 0.02771l-0.83129-0.2771c-0.19397-0.08313-0.44335-0.13855-0.80358-0.19397l-0.55419-0.02771-0.63732 0.02771-0.44335 0.02771h-1.1361l-0.52648-0.05542c-0.24939-0.02771-0.52648-0.02771-0.77587 0.02771l-0.5819 0.08313-0.24939 0.05542-0.36022 0.08313-0.77587 0.16626-0.94213 0.19397c-0.5819 0.11084-0.52648-0.44336-0.41564-0.77587l0.33251-0.5819v-0.02771c-0.19397 0.08313-0.36022 0.13855-0.55419 0.16626-0.22168 0.02771-0.41564-0.08313-0.38793-0.36022 0.02771-0.16626 0.083129-0.33251 0.19397-0.47106l-0.027709-0.02771c-0.16626 0.05542-0.47106 0.05542-0.52648-0.13855-0.055419-0.16626 0.02771-0.36022 0.13855-0.49877 0.13855-0.19397 0.33251-0.33252 0.5819-0.44335v-0.02771c-0.60961-0.02771-1.1638-0.19397-1.7457-0.41564-0.60961-0.24939-1.1084-0.66503-1.4963-1.2192l-0.33251-0.47106a4.766 4.766 0 0 1-0.38793-0.77587l-0.02771-0.02771c-0.22168 0.02771-0.41564-0.027709-0.55419-0.22168-0.11084-0.16626-0.16626-0.36022-0.13855-0.60961 0-0.30481 0.11084-0.5819 0.22168-0.859 0.22168-0.63732 0.60961-1.3023 1.1361-1.7734l0.41564-0.36022c0.55419-0.44335 1.3023-0.80358 2.0228-0.83129 0.36022-0.02771 0.69274 0 1.0253 0.02771 0.69274 0.083129 1.3023 0.36022 1.8288 0.77587 0.33251 0.2771 0.63732 0.60961 0.91442 1.0253 0.19397 0.24939 0.36022 0.52648 0.47106 0.83129v-4e-7zm1.524-2.4107c-0.13855 0.13855-0.24939 0.2771-0.30481 0.44335-0.02771 0.083129-0.055419 0.13855-0.02771 0.16626 0.02771 0.13855 0.41564 0.19397 0.55419 0.19397l1.1915 0.055419 0.91442 0.11084 0.05542 0.055419c0 0.083129-0.08313 0.11084-0.13855 0.11084h-0.24939c-0.05542 0-0.13855 0.055419-0.13855 0.13855l-0.08313 0.859h0.05542l0.33251-0.19397 0.3048-0.16626c0.36022-0.16626 0.69274-0.44335 0.99754-0.72045 0.22168-0.19397 0.41564-0.38793 0.49877-0.66503 0.083128-0.2771-0.11084-0.49877-0.38793-0.55419l-0.38793-0.055419-0.94212 0.027709c-0.08313 0-0.11084-0.027709-0.08313-0.11084l0.08313-0.13855 0.49877-0.41564 0.49877-0.44335 0.3048-0.33251v-0.02771a3.3251 3.3251 0 0 0-1.4963 0.30481c-0.63732 0.2771-1.2469 0.63732-1.7734 1.1084zm-8.7285 4.1287 0.38793-0.11084 1.0807-0.47106 0.16626-0.02771c0.24939-0.02771 0.24939 0.33251 0.2771 0.49877 0 0.24939 0.055419 0.49877 0.16626 0.69274 0.11084 0.19397 0.33251 0.24939 0.55419 0.24939 0.30481-0.02771 0.60961-0.055419 0.91442-0.13855l0.99754-0.19397 0.33251-0.083129 0.16626-0.02771c0.16626 0.02771 0.22168 0.19397 0.24939 0.33251l0.02771 0.36022c0 0.083129-0.02771 0.11084-0.11084 0.13855-0.055419 0-0.13855-0.055419-0.13855-0.11084v-0.13855l-0.027709-0.13855-0.02771-0.16626-0.02771-0.02771-0.083129 0.02771-1.4409 0.30481-0.69274 0.083129c-0.36022 0.02771-0.69274 0-0.88671-0.33251-0.083128-0.13855-0.16626-0.2771-0.19397-0.44335l-0.055419-0.24939v-0.38793h-0.02771l-0.74816 0.30481-0.49877 0.22168v0.19397l0.16626 0.55419c0.30481 0.63732 0.77587 1.1361 1.3855 1.4686l0.13855 0.08313a5.2648 5.2648 0 0 0 2.1891 0.49877 3.2697 3.2697 0 0 0 1.8843-0.77587l0.11084-0.083129c0.19397-0.19397 0.38793-0.44335 0.52648-0.72045l0.11084-0.2771c0.13855-0.41564 0.24939-0.83129 0.2771-1.2746l-0.02771-0.63732c-0.02771-0.36022-0.083129-0.69274-0.22168-0.99754l-0.41564-0.69274c-0.24939-0.36022-0.52648-0.66503-0.88671-0.94213l-0.16626-0.13855c-0.49877-0.33251-1.053-0.49877-1.6349-0.55419l-0.55419-0.02771c-1.1915 0-2.2168 0.69274-2.9649 1.6072-0.36022 0.47106-0.60961 1.053-0.80358 1.6349-0.083129 0.2771-0.11084 0.55419 0.02771 0.80358 0.055419 0.083129 0.13855 0.13855 0.22168 0.13855zm7.9526 0.88671c-0.22168-0.02771-0.47106-0.11084-0.60961-0.30481 0 0.36022 0.2771 0.72045 0.5819 0.859l0.47106 0.13855c0.24939 0.055419 0.44335 0 0.66503-0.13855 0.24939-0.16626 0.49877-0.36022 0.63732-0.60961a7.4816 7.4816 0 0 0 0.44335-1.3578c0.05542-0.36022 0.11084-0.69274 0.05542-1.053-0.05542-0.19397-0.11084-0.38793-0.22168-0.55419-0.02771-0.02771-0.02771 0-0.02771 0.02771 0.11084 0.77587-0.05542 1.5517-0.44335 2.2168l-0.24939 0.3048a1.718 1.718 0 0 1-1.3023 0.47106zm0.055419-0.91442-0.11084 0.22168v0.19397l0.055419 0.16626 0.055419 0.083129 0.083129 0.083129c0.2771 0 0.52648-0.083129 0.74816-0.22168 0.22168-0.13855 0.41564-0.30481 0.55419-0.55419a0.02771 0.02771 0 0 0-0.02771-0.02771l-0.05542-0.083129-0.08313-0.02771-0.05542-0.055419h-0.05542v-0.02771l-0.24939-0.02771-0.055419 0.02771h-0.055419l-0.083129 0.02771h-0.055415c0.24939-0.27709 0.33251-0.60961 0.30481-0.99754-0.055419-0.49877-0.55419-0.88671-1.0253-0.52648-0.24939 0.16626-0.36022 0.44335-0.41564 0.72045-0.083129 0.41564 0.083129 0.94212 0.52648 1.0253zm2.6324 0.2771c-0.08313 0.11084-0.16626 0.22168-0.19397 0.36022l-0.05542 0.22168v0.02771c0.19397 0.19397 0.41564 0.24939 0.69274 0.22168 0.33252-0.02771 0.60961-0.13855 0.80358-0.36022l0.05542-0.083129 0.02771-0.13855 0.02771-0.11084v-0.16626l-0.055419-0.13855-0.13855-0.11084-0.16626-0.083129c0.08313-0.19397 0.13855-0.38793 0.11084-0.60961-0.02771-0.38793-0.30481-0.74816-0.72045-0.63732-0.2771 0.055419-0.47106 0.30481-0.55419 0.55419-0.08313 0.19397-0.11084 0.36022-0.08313 0.55419 0.02771 0.19397 0.11084 0.36022 0.24939 0.49877zm1.8288 0.69274a4.6275 4.6275 0 0 0 0.3048-1.9951l-0.05542-0.30481h-0.02771v0.72045c-0.08313 0.44335-0.19397 0.83129-0.44335 1.2192a1.4963 1.4963 0 0 1-1.3024 0.69274c-0.24939 0-0.47106-0.11084-0.66503-0.30481v0.027709l0.11084 0.33251c0.11084 0.24939 0.44335 0.44335 0.72045 0.52648 0.13855 0.055419 0.2771 0.055419 0.41564 0 0.47106-0.13855 0.72045-0.49877 0.94212-0.91442zm0.91442 1.3855v0.5819c0.11084-0.02771 0.22168-0.05542 0.36022-0.13855 0.19397-0.08313 0.38793-0.19397 0.49877-0.36022 0.11084-0.11084 0.16626-0.3048 0.24939-0.44335v-0.02771h-0.02771l-0.24939-0.13855h-0.05542l-0.05542 0.11084c-0.05542 0.11084-0.22168 0.083129-0.22168-0.055419 0-0.24939 0.22168-0.38793 0.47106-0.2771 0.13855 0.083129 0.3048 0.22168 0.44335 0.055419 0.05542-0.055419 0.08313-0.16626 0.08313-0.24939v-0.69274l-0.055418-0.16626c-0.083129-0.36022-0.24939-0.63732-0.47106-0.88671-0.13855-0.19397-0.33251-0.30481-0.5819-0.38793-0.11084-0.083129-0.22168-0.11084-0.3048-0.11084-0.19397-0.02771-0.3048 0.11084-0.38793 0.24939l-0.02771 0.13855-0.05542 0.30481c-0.02771 0.30481-0.11084 0.60961-0.19397 0.859l0.02771 0.02771 0.08313 0.11084c0.24939 0.36022 0.38793 0.74816 0.44335 1.1915zm-5.0986-0.52648c-0.47106-0.083129-0.83129-0.2771-1.0253-0.69274h-0.02771l-0.2771 0.52648c-0.19397 0.33251-0.44335 0.5819-0.74816 0.83129-0.2771 0.19397-0.5819 0.38793-0.91442 0.52648h-0.02771c-0.02771 0.13855 0 0.2771 0.055419 0.36022 0.11084 0.13855 0.24939 0.2771 0.38793 0.36022l0.13855 0.13855c0.19397 0.19397 0.47106 0.41564 0.72045 0.49877 0.13855 0.05542 0.24939 0.13855 0.36022 0.24939l0.30481 0.33251 0.2771 0.33252 0.13855 0.05542 1.1638 0.2771c0.41564 0.08313 0.859 0.08313 1.3023 0.05542l0.66503-0.13855a3.7408 3.7408 0 0 0 1.2192-0.66503l0.52648-0.55419a3.0758 3.0758 0 0 0 0.5819-1.524v-0.13855c-0.02771-0.5819-0.13855-1.1084-0.38793-1.6349h-0.02771c-0.22168 0.52648-0.55419 0.94213-1.1361 1.1084-0.36022 0.11084-0.72045-0.02771-1.0253-0.24939-0.38793-0.24939-0.47106-0.60961-0.52648-1.053v0c-0.19397 0.38793-0.52648 0.69274-0.88671 0.88671-0.24939 0.13855-0.52648 0.19397-0.83129 0.11084zm-4.8769 2.2722h0.19397l0.33251-0.11084 0.11084-0.05542c0.30481-0.24939 0.63732-0.36022 1.053-0.33252l0.027709-0.02771c0-0.11084-0.22168-0.19397-0.30481-0.22168-0.47106-0.11084-1.0253 0.11084-1.3301 0.47106-0.083129 0.08313-0.11084 0.16626-0.13855 0.24939v0.02771zm0.63732 0.19397-0.19397 0.24939c-0.055419 0.08313-0.083129 0.22168-0.11084 0.36022 0.083129 0.02771 0.19397 0 0.33251-0.02771 0.22168-0.08313 0.44335-0.16626 0.69274-0.19397h0.027709c0.2771-0.24939 0.60961-0.38793 0.99754-0.41564v-0.02771c-0.055419-0.19396-0.19397-0.3048-0.41564-0.36022a1.4686 1.4686 0 0 0-1.1361 0.19397l-0.083129 0.08313zm9.0333-0.22168-0.11084 0.19397h0.02771l0.11084 0.08313 0.22168 0.19397 0.13855 0.11084 0.2771 0.11084v-0.02771c0-0.08313-0.05542-0.13855-0.11084-0.22168-0.13855-0.19397-0.3048-0.36022-0.55419-0.44335v0c-0.02771 0-0.02771 0 0 0zm-0.41564 0.69274-0.16626 0.11084v0.02771l0.2771 0.11084 0.05542 0.02771c0.11084 0.02771 0.19397 0.08313 0.2771 0.16626l0.16626 0.08313 0.24939 0.19397h0.02771l-0.02771-0.16626c-0.08313-0.19397-0.16626-0.38793-0.3048-0.55419-0.08313-0.11084-0.19397-0.19397-0.33251-0.24939h-0.02771zm-7.6478 0.05542c-0.30481 0.22168-0.49877 0.47106-0.63732 0.77587-0.083129 0.16626-0.11084 0.33252-0.083129 0.52648l0.055419 0.02771h0.13855l0.55419-0.11084 0.55419-0.13855 0.49877-0.08313 0.47106-0.13855c0.13855-0.02771 0.24939-0.11084 0.30481-0.22168 0.083129-0.13855 0.083129-0.2771 0-0.41564-0.083128-0.13855-0.16626-0.24939-0.3048-0.33252l-0.22168-0.13855-0.55419-0.055419c-0.2771 0.02771-0.52648 0.11084-0.77587 0.30481zm7.0382 0.47106-0.2771 0.22168a0.055419 0.055419 0 0 0 0 0.08313l0.11084 0.05542 0.60961 0.16626 0.77587 0.24939h0.08313l0.02771-0.08313c-0.02771-0.36022-0.22168-0.5819-0.52648-0.69274-0.08313-0.02771-0.13855-0.05542-0.16626-0.02771-0.19397-0.02771-0.47106-0.05542-0.63732 0.02771z"
      fill="#564341"
    />
    <path
      d="m13.141 3.5316-0.02771 0.027709v0.02771l-0.13855 0.33251-0.16626 0.13855-0.36022 0.16626-0.69274 0.13855h-0.47106l-0.41564-0.055419-0.69274-0.16626-0.19397-0.083129-0.16626-0.083129-0.16626-0.16626-0.027709-0.02771-0.02771-0.027709-0.02771-0.055419 0.2771-0.24939a6.8166 6.8166 0 0 1 2.2168-1.2746c0.33252-0.11084 0.69274-0.13855 1.053-0.13855v0.02771l-0.3048 0.33251-0.49877 0.44335-0.49877 0.41564-0.08313 0.13855c-0.02771 0.083129 0 0.11084 0.08313 0.11084l0.94212-0.027709z"
      fill="#ffe868"
    />
    <path
      d="m13.141 3.5316c0.2771 0.055419 0.47106 0.2771 0.38793 0.55419-0.08313 0.2771-0.2771 0.47106-0.49877 0.66503-0.30481 0.2771-0.63732 0.55419-0.99754 0.72045l-0.3048 0.16626-0.33251 0.19397h-0.05542l0.083129-0.859c0-0.083129 0.08313-0.13855 0.13855-0.13855h0.24939c0.05542 0 0.13855-0.02771 0.13855-0.11084l-0.055419-0.055419-0.91442-0.11084-1.1915-0.055419c-0.13855 0-0.52648-0.055419-0.55419-0.19397-0.02771-0.02771 0-0.083129 0.02771-0.16626 0.055419-0.16626 0.16626-0.30481 0.30481-0.44335l0.02771 0.055419 0.02771 0.027709 0.027709 0.02771 0.02771 0.027709 0.13855 0.13855 0.16626 0.083129 0.19397 0.083129 0.69274 0.16626 0.41564 0.055419h0.47106l0.69274-0.13855 0.36022-0.16626 0.16626-0.13855 0.13855-0.33251v-0.02771z"
      fill="#ffbb49"
    />
    <path
      d="m6.2694 4.252-0.22168 0.055419h-0.02771l-0.055419 0.02771-0.027709 0.02771h-0.055419l-0.02771 0.02771-0.055419 0.02771h-0.02771l-0.02771 0.02771h-0.02771l-0.02771 0.02771h-0.027709l-0.083129 0.055419h-0.083129a0.02771 0.02771 0 0 1-0.02771 0.02771l-0.055419 0.02771h-0.22167l-0.02771 0.02771h-0.47106l-0.02771 0.02771h-0.22168l-0.02771 0.02771h-0.13855l-0.02771 0.02771c-0.24939-0.36023-0.66503-0.44336-1.0807-0.38794-0.47106 0.083129-0.99754 0.30481-1.3023 0.66503-0.30481 0.36022-0.36022 0.80358-0.11084 1.1915-0.055419 0-0.083129 0.02771-0.083129 0.055419l-0.027709 0.02771-0.083129 0.083129v0.055419l-0.11084 0.083129v0.055419l-0.055419 0.02771v0.055419l-0.055419 0.02771v0.055419l-0.083129 0.083129v0.055419l-0.027709 0.027708v0.02771l-0.083129 0.083129v0.055419l-0.02771 0.02771v0.02771l-0.027709 0.02771v0.02771c-0.02771 0.02771-0.055419 0.02771-0.02771 0.055419l-0.02771 0.02771v0.055419c-0.02771 0.02771-0.055419 0.02771-0.02771 0.055419l-0.02771 0.02771v0.055419l-0.02771 0.055419v0.02771c-0.02771 0.02771-0.055419 0.02771-0.02771 0.055419v0.02771l-0.02771 0.055419-0.02771 0.02771v0.02771l-0.02771 0.02771v0.11084l-0.2771 0.02771c-0.083129 0-0.16626-0.055419-0.22168-0.13855-0.13855-0.24939-0.11084-0.52649-0.027708-0.80358 0.19397-0.5819 0.44335-1.1638 0.80358-1.6349 0.74816-0.91442 1.7734-1.6072 2.9649-1.6072l0.55419 0.027709c0.5819 0.055419 1.1361 0.22168 1.6349 0.55419z"
      fill="#ffc98a"
    />
    <path
      d="m6.2694 4.252 0.16626 0.13855v0.02771h0.027709v0.02771h-0.055419l-0.055419 0.02771h-0.02771l-0.083129 0.02771h-0.083129l-0.02771 0.02771-0.11084 0.02771-0.02771 0.02771h-0.055419l-0.02771 0.02771h-0.027709l-0.055419 0.083129h-0.055419l-0.083129 0.083129-0.055419 0.02771v0.02771l-0.19396 0.083124h-0.055419l-0.055419 0.02771h-0.16626l-0.055419 0.02771h-0.47106v0.02771h-0.13855l-0.083129 0.027708-0.055419-0.13855-0.11084-0.19397 0.02771-0.02771h0.13855l0.02771-0.02771h0.22168l0.02771-0.02771h0.47106l0.02771-0.02771h0.22168l0.055419-0.02771a0.02771 0.02771 0 0 0 0.02771-0.02771h0.083129l0.083129-0.055419h0.027709l0.02771-0.02771h0.02771l0.02771-0.02771h0.02771l0.055419-0.02771 0.02771-0.02771h0.055419l0.027709-0.02771 0.055419-0.02771h0.02771z"
      fill="#ffc293"
    />
    <path
      d="m4.2466 4.6954 0.11084 0.19397-0.11084-0.02771-0.11084-0.055419h-0.22168l-0.24939 0.055419-0.02771 0.02771h-0.02771l-0.055419 0.02771-0.16626 0.055419c-0.38793 0.13855-0.74816 0.36022-1.0807 0.63732l-0.33251 0.33251-0.055419 0.083129h0.027709v0.16626l0.22168 0.19397 0.055419 0.055419c0.02771 0.02771 0.055419 0.055419 0.02771 0.083129l-0.24939-0.11084-0.24939-0.24939c-0.24939-0.38793-0.19397-0.83129 0.11084-1.1915 0.30481-0.36022 0.83129-0.5819 1.3023-0.66503 0.41564-0.055419 0.83129 0.02771 1.0807 0.38793z"
      fill="#fffbd8"
    />
    <path
      d="m6.4357 4.3905c0.36022 0.2771 0.63732 0.5819 0.88671 0.94213 0.083129 0.33251 0.13855 0.60961 0.13855 0.83129v0.60961c0 0.33251-0.055419 0.63732-0.22168 0.94212l-0.41564 0.63732c-0.49877 0.60961-1.1084 1.1084-1.8288 1.4963-0.30481 0.16626-0.60961 0.2771-0.91442 0.33251l-0.96983 0.08313-0.22168 0.02771-0.13855-0.08313c-0.60961-0.33252-1.0807-0.83129-1.3855-1.4686l-0.16626-0.55419c0.24939-0.055419 0.52648-0.083129 0.77587-0.055419 0.13855 0 0.30481 0 0.41564 0.11084 0.11084 0.11084 0.22168 0.2771 0.30481 0.47106 0.083129 0.13855 0.19397 0.22168 0.38793 0.24939h0.69274l1.8843-0.33251c0.083129-0.02771 0.11084 0 0.13855 0.055419l0.11084 0.11084v0.13855c0 0.055419 0.083129 0.11084 0.13855 0.11084 0.083129-0.02771 0.11084-0.055419 0.11084-0.13855l-0.02771-0.36022c-0.02771-0.13855-0.083129-0.30481-0.24939-0.33251l-0.16626 0.02771-0.33251 0.083129-0.99754 0.19397c-0.30481 0.083129-0.60961 0.11084-0.91442 0.13855-0.22168 0-0.44335-0.055419-0.55419-0.24939-0.11084-0.19397-0.16626-0.44335-0.16626-0.69274-0.02771-0.16626-0.02771-0.52648-0.2771-0.49877l-0.16626 0.02771-1.0807 0.47106v-0.02771h0.027709l0.02771-0.02771-0.02771-0.02771 0.02771-0.02771v-0.055417l0.02771-0.02771v-0.02771l0.02771-0.02771v-0.02771l0.02771-0.02771v-0.02771l0.027709-0.02771v-0.02771l0.02771-0.02771v-0.02771c0.02771-0.02771 0.055419-0.02771 0.02771-0.055419v-0.02771l0.05542-0.05542v-0.055419l0.027709-0.02771v-0.02771l0.083129-0.083129v-0.055419l0.02771-0.02771v-0.02771l0.055419-0.02771v-0.055419l0.055419-0.02771v-0.055419l0.083129-0.055419v-0.055419l0.083129-0.055419v-0.02771l0.055419-0.055419h0.02771l0.24939 0.11084 0.24939 0.055419c0.66503 0.13856 1.3301-0.22167 1.6903-0.74815 0.19397-0.24939 0.24939-0.49877 0.22168-0.80358l0.083129-0.02771h0.13855v-0.02771h0.47106l0.055419-0.02771h0.16626l0.055419-0.02771h0.055419l0.19397-0.083127v-0.02771l0.055419-0.02771 0.083129-0.083129h0.055419l0.055419-0.083129h0.027709l0.02771-0.02771h0.055419l0.02771-0.02771 0.11084-0.02771 0.02771-0.02771h0.083129l0.083129-0.02771h0.02771l0.055419-0.02771h0.055419v-0.02771h-0.027711zm-2.3276 2.3553c0.02771 0.13855 0.13855 0.22168 0.2771 0.24939 0.30481 0.083129 0.60961-0.02771 0.859-0.22168 0.24939-0.19397 0.44335-0.55419 0.19397-0.859l-0.22168-0.11084c-0.33251-0.11084-0.69274 0.11084-0.91442 0.36022l-0.13855 0.19397c-0.083129 0.11084-0.11084 0.2771-0.055419 0.38793z"
      fill="#ffbc9c"
    />
    <path
      d="m4.3575 4.8893 0.055419 0.13855c0.02771 0.30481-0.02771 0.55419-0.22168 0.80358l0.083129-0.22168v-0.055419l0.055419-0.13855c0.02771-0.02771 0-0.083129-0.02771-0.11084h-0.22168l-0.055419 0.02771h-0.02771l-0.055419 0.02771h-0.02771l-0.055419 0.02771h-0.02771v0.02771h-0.02771l-0.055419 0.02771h-0.02771l-0.055419 0.02771h-0.02771l-0.055419 0.02771h-0.02771l-0.02771 0.02771h-0.055419l-0.02771 0.02771-0.16626 0.055419-0.19397 0.11084-0.16626 0.16626h-0.055416l-0.055419 0.083129h-0.055419l-0.13855 0.16625h-0.055419l-0.22168 0.22168v0.11084l0.02771 0.02771 0.13855 0.083129-0.24939-0.055419c0.02771-0.02771 0-0.055419-0.02771-0.083129l-0.055419-0.05542-0.22168-0.19397v-0.16626h-0.02771l0.055419-0.083129 0.33251-0.33251c0.33251-0.2771 0.69274-0.49877 1.0807-0.63732l0.16626-0.055419 0.055419-0.02771h0.02771l0.02771-0.02771 0.24939-0.055419h0.22168l0.11084 0.055419z"
      fill="#fffdeb"
    />
    <path
      d="m4.1912 5.8314c-0.36022 0.52648-1.0253 0.88671-1.6903 0.74816l-0.13855-0.083129-0.02771-0.02771v-0.11084l0.22168-0.22168h0.055419l0.13855-0.16626h0.055419l0.055419-0.083129h0.055419l0.16626-0.16626 0.19397-0.11084 0.16626-0.055419 0.02771-0.02771h0.055419l0.02771-0.02771h0.02771l0.055419-0.02771h0.02771l0.055419-0.02771h0.02771l0.055419-0.02771h0.02771v-0.02771h0.02771l0.055419-0.02771h0.02771l0.055419-0.02771h0.027709l0.055419-0.02771h0.22168c0.02771 0.02771 0.055419 0.083129 0.02771 0.11084l-0.055419 0.13855v0.055419z"
      fill="#fff"
    />
    <path
      d="m7.3224 5.3327 0.41564 0.69274c0.13855 0.30481 0.19397 0.63732 0.22168 0.99754v0.30481l-0.02771 0.2771c-0.055419 0.41564-0.16626 0.83129-0.3048 1.2192l-0.11084 0.24939h-0.083129l-0.083129 0.083129h-0.055418l-0.2771 0.16626-0.16626 0.11084-0.13855 0.083129-0.22168 0.13855-0.96983 0.38793-0.94213 0.19397-0.19397 0.02771h-0.055419l-0.055419 0.02771h-0.24939l-0.24939 0.02771h-0.47106c-0.055419 0.02771-0.11084 0-0.19397-0.05542l0.96983-0.08313c0.30481-0.055418 0.60961-0.16626 0.91442-0.33251 0.72045-0.38793 1.3301-0.88671 1.8288-1.4963l0.41564-0.63732c0.16626-0.30481 0.22168-0.60961 0.22168-0.94212v-0.60961c0-0.22168-0.055419-0.49877-0.13855-0.83129z"
      fill="#f28773"
    />
    <path
      d="m8.1814 8.4084c0.13855 0.19397 0.38793 0.2771 0.60961 0.30481 0.49877 0.02771 0.91442-0.13855 1.3023-0.47106l0.24939-0.30481c0.38793-0.66503 0.55419-1.4409 0.44335-2.2168 0-0.02771 0-0.055419 0.02771-0.02771 0.11084 0.16626 0.16626 0.36022 0.22168 0.55419 0.05542 0.36022 0 0.69274-0.05542 1.053a7.4816 7.4816 0 0 1-0.44335 1.3578c-0.13855 0.24939-0.38793 0.44335-0.63732 0.60961-0.22168 0.13855-0.41564 0.19397-0.66503 0.13855l-0.47106-0.13855c-0.30481-0.13855-0.5819-0.49877-0.5819-0.859zm-4.0733-1.6626c-0.055419-0.11084-0.02771-0.2771 0.055419-0.38793l0.13855-0.19397c0.22168-0.24939 0.5819-0.47106 0.91442-0.36022l0.22168 0.11084c0.24939 0.30481 0.055419 0.66503-0.19397 0.859-0.24939 0.19397-0.55419 0.30481-0.859 0.22168-0.13855-0.02771-0.24939-0.11084-0.2771-0.24939z"
      fill="#fff"
    />
    <path
      d="m9.456 7.5771c-0.16626 0.19397-0.36022 0.24939-0.60961 0.22168-0.44335-0.083129-0.60961-0.60961-0.52648-1.0253 0.055419-0.2771 0.16626-0.55419 0.41564-0.72045 0.47106-0.36022 0.96983 0.02771 1.0253 0.52648 0.02771 0.38793-0.055419 0.72045-0.30481 0.99754z"
      fill="#fff"
    />
    <path
      d="m1.7528 6.164 0.24939 0.24939h-0.02771l-0.055419 0.055419v0.02771l-0.083129 0.055419v0.055419l-0.083129 0.055419v0.055419l-0.055419 0.02771v0.055419l-0.055419 0.02771v0.027709l-0.02771 0.02771v0.055419l-0.083129 0.083129v0.02771l-0.027709 0.02771v0.055419l-0.05542 0.05542v0.02771c0.02771 0.02771 0 0.02771-0.02771 0.055419v0.02771l-0.02771 0.02771v0.02771l-0.027709 0.02771v0.02771l-0.02771 0.02771v0.02771l-0.02771 0.02771v0.02771l-0.02771 0.02771v0.055419l-0.02771 0.02771 0.02771 0.02771-0.02771 0.02771h-0.027706v0.02771l-0.38793 0.11083v-0.11084l0.02771-0.02771v-0.02771l0.02771-0.02771 0.02771-0.055419v-0.02771c-0.02771-0.02771 0-0.02771 0.02771-0.055419v-0.02771l0.02771-0.055419v-0.055419l0.02771-0.02771c-0.02771-0.02771 0-0.02771 0.02771-0.055419v-0.055419l0.02771-0.02771c-0.02771-0.02771 0-0.02771 0.02771-0.055419v-0.02771l0.027709-0.02771v-0.02771l0.02771-0.02771v-0.055419l0.083129-0.083129v-0.027705l0.027709-0.02771v-0.055419l0.083129-0.083129v-0.055419l0.055419-0.02771v-0.055419l0.055419-0.02771v-0.055419l0.11084-0.083129v-0.055419l0.11084-0.11084c0-0.02771 0.02771-0.055419 0.083129-0.055419z"
      fill="#ffc293"
    />
    <path
      d="m12.476 7.7157c-0.08313 0.19397-0.22168 0.33251-0.36022 0.41564-0.22168 0.13855-0.44335 0.11084-0.63732-0.055419-0.13855-0.13855-0.22168-0.30481-0.24939-0.49877-0.02771-0.19397 0-0.36022 0.08313-0.55419 0.08313-0.24939 0.2771-0.49877 0.55419-0.55419 0.41564-0.11084 0.69274 0.24939 0.72045 0.63732 0.02771 0.22168-0.02771 0.41564-0.11084 0.60961z"
      fill="#fff"
    />
    <path
      d="m13.308 8.7687c-0.22168 0.41564-0.47106 0.77587-0.94212 0.91442-0.13855 0.055419-0.2771 0.055419-0.41564 0-0.2771-0.083129-0.60961-0.2771-0.72045-0.52648l-0.11084-0.33251v-0.027709c0.19397 0.19397 0.41564 0.30481 0.66503 0.30481 0.55419 0 0.99754-0.24939 1.3024-0.69274 0.24939-0.38793 0.36022-0.77587 0.44335-1.2192v-0.72045h0.02771l0.05542 0.30481v0.77587c-0.05542 0.38793-0.13855 0.859-0.3048 1.2192z"
      fill="#fff"
    />
    <path
      d="m14.61 7.0784 0.11084 0.13855v0.055419l0.08313 0.055419v0.055419l0.11084 0.083129v0.055419l0.08313 0.055419v0.055419l0.08313 0.055419v0.055419l0.05542 0.02771v0.055419l0.05542 0.02771v0.055419l0.11084 0.083129v0.055419l0.05542 0.055419h0.05542v0.055419h0.02771l0.22168 0.19397 0.05542 0.16626v0.69274c0 0.083129-0.02771 0.19397-0.08313 0.24939-0.13855 0.16626-0.3048 0.02771-0.44335-0.055419-0.24939-0.11084-0.47106 0.02771-0.47106 0.2771 0 0.13855 0.16626 0.16626 0.22168 0.055419l0.05542-0.11084h0.05542l0.24939 0.13855c-0.19398 0.30481-0.44336 0.49877-0.74817 0.60961h-0.11084c-0.13855-0.02771-0.16626-0.08313-0.22168-0.22168l-0.02771-0.30481c-0.055419-0.44335-0.19397-0.83129-0.44335-1.1915l-0.08313-0.11084-0.02771-0.02771c0.08313-0.24939 0.16626-0.55419 0.19397-0.859l0.05542-0.30481 0.02771-0.13855c0.08313-0.13855 0.19397-0.2771 0.38793-0.24939 0.08313 0 0.19397 0.02771 0.3048 0.11084z"
      fill="#f28773"
    />
    <path
      d="m7.9597 7.023 0.02771 0.63732c-0.02771 0.44335-0.13855 0.859-0.2771 1.2746l-0.11084 0.2771c-0.13855 0.2771-0.33251 0.52648-0.52648 0.72045l-0.11084 0.083129c-0.24939 0.22168-0.55419 0.38793-0.859 0.52648l0.33251-0.24939 0.11084-0.11084c0.36022-0.2771 0.72045-0.66503 0.96983-1.1084l0.11084-0.24939c0.13855-0.38793 0.24939-0.80358 0.30481-1.2192l0.02771-0.2771z"
      fill="#ad6560"
    />
    <path
      d="m14.61 7.0784c0.24939 0.083129 0.44335 0.19397 0.5819 0.38793 0.22168 0.24939 0.38793 0.52648 0.47106 0.88671l-0.22168-0.19397h-0.02771v-0.055419h-0.05542l-0.05542-0.055419v-0.055419l-0.11084-0.083129v-0.055419l-0.05542-0.02771v-0.055419l-0.05542-0.02771v-0.055419l-0.08313-0.055419v-0.055419l-0.08313-0.055419v-0.055419l-0.11084-0.083129v-0.055419l-0.08313-0.055419v-0.055419z"
      fill="#f4986e"
    />
    <path
      d="m2.4732 7.8542-0.02771-0.11084c-0.02771-0.055419-0.055419-0.11084-0.13855-0.11084l-0.24939 0.055419-0.36022 0.083129 0.74816-0.30481h0.02771z"
      fill="#ad6560"
    />
    <path
      d="m8.8464 7.7988c0.24939 0.02771 0.44335-0.02771 0.60961-0.22168h0.055419l0.083129-0.02771h0.055419l0.055419-0.02771 0.24939 0.02771v0.02771h0.05542l0.05542 0.055419 0.08313 0.02771 0.05542 0.083129a0.02771 0.02771 0 0 1 0.02771 0.02771c-0.13855 0.24938-0.33252 0.41564-0.5542 0.55419s-0.47106 0.22168-0.74816 0.22168l-0.083129-0.083129-0.055419-0.083129-0.055419-0.16626v-0.19397z"
      fill="#81564f"
    />
    <path
      d="m2.4732 7.8542 0.055419 0.24939c0.02771 0.16626 0.11084 0.30481 0.19397 0.44335 0.19397 0.33251 0.52648 0.36022 0.88671 0.33251l0.69274-0.083129 1.4409-0.30481c0.083129 0 0.11084 0.11084 0.13855 0.16626l0.02771 0.13855-0.11084-0.11084c-0.02771-0.055419-0.055419-0.083129-0.13855-0.055419l-1.8843 0.33251h-0.69274c-0.19397-0.02771-0.30481-0.11084-0.38793-0.24939-0.083129-0.19397-0.19397-0.36022-0.30481-0.47106-0.11084-0.11084-0.2771-0.11084-0.41564-0.11084-0.24939-0.02771-0.52648 0-0.77587 0.055419v-0.19397l0.49877-0.22168 0.36022-0.083129 0.24939-0.055419c0.083129 0 0.11084 0.055419 0.13855 0.11084z"
      fill="#f28773"
    />
    <path
      d="m12.476 7.7157 0.16626 0.083129 0.13855 0.11084 0.05542 0.13855v0.16626l-0.02771 0.11084-0.02771 0.13855-0.05542 0.083129c-0.19397 0.22168-0.47106 0.33251-0.80358 0.36022-0.2771 0.02771-0.49877-0.02771-0.69274-0.22168v-0.02771l0.05542-0.22168c0.02771-0.13855 0.11084-0.24939 0.19397-0.36022 0.19397 0.16626 0.41564 0.19397 0.63732 0.055419 0.13855-0.083129 0.2771-0.22168 0.36022-0.41564z"
      fill="#81564f"
    />
    <path
      d="m5.8815 8.6578c-0.02771-0.055419-0.055419-0.16626-0.13855-0.16626l0.083129-0.02771 0.02771 0.02771z"
      fill="#ad6560"
    />
    <path
      d="m12.393 9.9325c0.02771 0.3048 0.24939 0.49877 0.49877 0.60961 0.19397 0.08313 0.38793 0.11084 0.5819 0.13855 0.16626 0.02771 0.33251 0 0.47106-0.08313a3.0758 3.0758 0 0 1-0.5819 1.524l-0.52648 0.55419a3.7408 3.7408 0 0 1-1.2192 0.66503l-0.66503 0.13855c-0.44335 0.02771-0.88671 0.02771-1.3023-0.05542a8.9779 8.9779 0 0 1-1.3023-0.33251l-0.2771-0.33252-0.30481-0.33251c-0.11084-0.11084-0.22168-0.19397-0.36022-0.24939-0.24939-0.083129-0.52648-0.30481-0.72045-0.49877l-0.13855-0.13855c-0.13855-0.083129-0.2771-0.22168-0.38793-0.36022-0.055419-0.083128-0.083129-0.22168-0.055419-0.36022h0.02771c0.33251-0.13855 0.63732-0.33252 0.91442-0.52648l0.083129 0.02771c0.11084 0.13855 0.30481 0.19397 0.49877 0.19397 0.24939 0 0.52648-0.02771 0.77587-0.11084 0.33251-0.08313 0.55419-0.2771 0.69274-0.5819v-0.11084l0.02771-0.083129c0.30481 0.083129 0.5819 0.02771 0.83129-0.11084 0.36022-0.19397 0.69274-0.49877 0.88671-0.88671v0c0.05542 0.44335 0.13855 0.80358 0.52648 1.053 0.3048 0.22168 0.66503 0.36022 1.0253 0.24939zm-1.718 0.02771c-0.19397-0.083129-0.41564-0.16626-0.47106-0.36022l-0.02771-0.02771-0.08313 0.055419c-0.11084 0.13855 0.02771 0.2771 0.13855 0.33251 0.3048 0.16626 0.63732 0.22168 0.96984 0.13855v-0.02771z"
      fill="#ffbc9c"
    />
    <path
      d="m13.945 10.597c-0.13855 0.08313-0.3048 0.11084-0.47106 0.08313-0.19397-0.02771-0.38793-0.05542-0.5819-0.13855-0.24939-0.11084-0.47106-0.3048-0.49877-0.60961 0.5819-0.16626 0.91442-0.5819 1.1361-1.1084h0.02771c0.24938 0.52648 0.36022 1.053 0.38793 1.6349zm-4.8215-0.96984-0.02771 0.083129v0.11084c-0.13855 0.30481-0.36022 0.49877-0.69274 0.5819-0.24939 0.08313-0.52648 0.11084-0.77587 0.11084-0.19397 0-0.38793-0.05542-0.49877-0.19397l-0.083129-0.02771c0.30481-0.24939 0.55419-0.49877 0.74816-0.83129l0.2771-0.52648h0.02771c0.19397 0.41564 0.55419 0.60961 1.0253 0.69274z"
      fill="#f28773"
    />
    <path
      d="m7.5164 9.0735c-0.24939 0.44335-0.60961 0.83129-0.96983 1.1084l-0.11084 0.11084-0.33251 0.24939a2.8818 2.8818 0 0 1-2.0228 0.13855c-0.38793-0.083128-0.77587-0.19397-1.1915-0.38793l0.22168-0.02771c0.083129 0.05542 0.13855 0.08313 0.19397 0.05542h0.47106l0.24939-0.02771h0.24939l0.055419-0.02771h0.055419l0.19397-0.027709 0.94213-0.19397 0.96983-0.38793 0.22168-0.13855 0.13855-0.083129 0.16626-0.11084 0.2771-0.16626h0.055419l0.083129-0.083129z"
      fill="#f67954"
    />
    <path
      d="m10.675 9.9602 0.52648 0.11084v0.02771c-0.33252 0.08313-0.66503 0.02771-0.96984-0.13855-0.11084-0.055419-0.24939-0.19397-0.13855-0.33251l0.08313-0.055419 0.02771 0.02771c0.05542 0.19397 0.2771 0.2771 0.47106 0.36022z"
      fill="#564341"
    />
    <path
      d="m15.303 9.7662h0.02771v0.02771c-0.08313 0.13855-0.13855 0.33252-0.24939 0.44335-0.11084 0.16626-0.3048 0.2771-0.49877 0.36022-0.13855 0.08313-0.24939 0.11084-0.36022 0.13855v-0.5819c0.05542 0.13855 0.08313 0.19397 0.22168 0.22168h0.11084c0.30481-0.11084 0.55419-0.3048 0.74816-0.60961z"
      fill="#ad6560"
    />
    <path
      d="m5.6598 11.152-0.16626 0.16626-0.52648 0.2771-0.72045 0.3048h-0.055419v-0.02771c0.02771-0.08313 0.055419-0.16626 0.13855-0.24939 0.30481-0.36022 0.859-0.5819 1.3301-0.47106z"
      fill="#f28773"
    />
    <path
      d="m5.6598 11.152c0.083129 0.02771 0.30481 0.11084 0.30481 0.22168l-0.027709 0.02771c-0.41564-0.02771-0.74816 0.08313-1.053 0.33252l-0.11084 0.055419-0.33251 0.11084h-0.19397l0.72045-0.3048 0.52648-0.2771z"
      fill="#ad6560"
    />
    <path
      d="m6.214 11.678c-0.02771 0.16626-0.11084 0.30481-0.24939 0.38793l-0.38793 0.2771-0.16626 0.08313v-0.08313l-0.027709-0.02771h-0.02771l-0.027709-0.02771h-0.02771l-0.02771-0.02771h-0.02771l-0.02771-0.02771h-0.02771c-0.02771-0.02771-0.02771-0.05542-0.055419-0.02771l-0.027709-0.02771h-0.02771l-0.027709-0.02771h-0.083129l-0.055419-0.02771h-0.02771v-0.02771l0.11084-0.13855 0.083129-0.08313c0.13855-0.08313 0.2771-0.16626 0.44335-0.19397 0.24939-0.05542 0.47106-0.05542 0.69274 0z"
      fill="#f28773"
    />
    <path
      d="m6.214 11.678c0.22168 0.05542 0.36022 0.16626 0.41564 0.36022v0.02771c-0.38793 0.02771-0.72045 0.16626-0.99754 0.41564h-0.027709c-0.24939 0.02771-0.47106 0.11084-0.69274 0.19397-0.13855 0.02771-0.24939 0.05542-0.33251 0.02771l0.5819-0.16626 0.24939-0.11084 0.16626-0.08313 0.38793-0.2771c0.13855-0.08313 0.22168-0.22168 0.24939-0.38793z"
      fill="#ad6560"
    />
    <path
      d="m13.945 12.149-0.02771-0.2771c-0.02771 0-0.02771 0 0 0v0c0.24939 0.08313 0.41564 0.24939 0.55419 0.44335 0.05542 0.08313 0.11084 0.13855 0.11084 0.22168v0.02771l-0.2771-0.11084-0.13855-0.11084z"
      fill="#f67954"
    />
    <path
      d="m13.917 11.872 0.02771 0.2771-0.11084-0.08313h-0.02771z"
      fill="#ad6560"
    />
    <path
      d="m4.8839 12.094v0.02771h0.02771l0.055419 0.02771h0.083129l0.027709 0.02771h0.02771l0.027709 0.02771c0.02771-0.02771 0.02771 0 0.055419 0.02771h0.02771l0.02771 0.02771h0.02771l0.02771 0.02771h0.02771l0.027709 0.02771h0.02771l0.027709 0.02771v0.08313l-0.24939 0.11084-0.5819 0.16626c0.02771-0.13855 0.055419-0.2771 0.11084-0.36022z"
      fill="#f4986e"
    />
    <path
      d="m14.056 12.565-0.05542 0.05542v0.02771h-0.02771l-0.11084 0.08313h-0.02771l-0.05542 0.05542-0.11084 0.05542-0.05542-0.02771-0.11084-0.24939 0.19397-0.24939h0.02771c0.13855 0.05542 0.24939 0.13855 0.33251 0.24939z"
      fill="#f67954"
    />
    <path
      d="m7.4055 12.509 0.055419 0.16626v0.11084c-0.055419 0.16626-0.16626 0.3048-0.30481 0.41564l-0.38793 0.2771-0.5819-0.63732h-0.055419l-0.11084-0.13855h-0.055419l-0.11084-0.08313c0.24939-0.19397 0.49877-0.2771 0.77587-0.3048l0.55419 0.05542z"
      fill="#f28773"
    />
    <path
      d="m7.4055 12.509c0.13855 0.08313 0.22168 0.19397 0.30481 0.33252 0.083129 0.13855 0.083129 0.2771 0 0.41564-0.055419 0.11084-0.16626 0.19397-0.30481 0.22168l-0.47106 0.13855-0.49877 0.08313-0.55419 0.13855c0.30481-0.083131 0.5819-0.22168 0.88671-0.36023l0.38793-0.2771c0.13855-0.11084 0.24939-0.24939 0.30481-0.41564v-0.11084zm6.0961 0.05542 0.11084 0.24939-0.2771-0.11084v-0.02771z"
      fill="#ad6560"
    />
    <path
      d="m14.056 12.565c0.13855 0.16626 0.22168 0.36022 0.3048 0.55419l0.02771 0.16626h-0.02771l-0.24939-0.19397-0.16626-0.08313c-0.08313-0.08313-0.16626-0.13855-0.2771-0.16626l0.11084-0.05542 0.05542-0.05542h0.02771l0.11084-0.08313h0.02771v-0.02771zm-8.202 0.05542 0.11084 0.08313h0.055419l0.11084 0.13855h0.055419l0.5819 0.63732c-0.3048 0.13855-0.5819 0.27709-0.88671 0.36022l-0.55419 0.11084h-0.13855l-0.055419-0.02771c-0.027709-0.19397 0-0.36022 0.083129-0.52648 0.13855-0.3048 0.33251-0.55419 0.63732-0.77587z"
      fill="#f4986e"
    />
    <path
      d="m13.529 13.064-0.41564 0.41564-0.19397-0.22168-0.02771-0.16626c0.16626-0.08313 0.44335-0.05542 0.63732-0.02771z"
      fill="#f67954"
    />
    <path
      d="m13.529 13.064c0.02771-0.02771 0.08313 0 0.16626 0.02771 0.3048 0.11084 0.49877 0.33252 0.52648 0.69274l-0.02771 0.08313h-0.08313l-0.77587-0.24939-0.22168-0.13855z"
      fill="#f4986e"
    />
    <path
      d="m12.892 13.091 0.02771 0.16626 0.19397 0.22168 0.22168 0.13855-0.60961-0.16626-0.11084-0.05542a0.055419 0.055419 0 0 1 0-0.08313z"
      fill="#ad6560"
    />
  </g>
</svg>
