<svg viewBox="0 0 16 16" xmlns="http://www.w3.org/2000/svg">
  <path
    d="m7.4549 15.53q-0.06701-0.01675-0.13402 0.0335"
    fill="none"
    stroke="#845f50"
    stroke-width=".033505"
  />
  <path
    d="m11.224 6.6678q-0.05025 0.6701-0.01675 1.3402l0.10052 0.82087h0.01675q0.15077-0.6366 0.36856-1.357l0.23454-0.75386"
    fill="none"
    stroke="#6c6ea2"
    stroke-width=".033505"
  />
  <path
    d="m11.928 6.718 0.30154-0.90464q0.33505-0.93814 0.6701-1.7758l0.30155-0.58634 0.38531-0.65335a0.016753 0.016753 0 0 1 0.0335 0l-0.016749 0.016752-0.18428 0.55283-0.13402 0.48582-0.3183 1.0052-0.16752 0.50258-0.30155 0.95489"
    fill="none"
    stroke="#6a84a2"
    stroke-width=".033505"
  />
  <path
    d="m12.497 6.316-0.10052 0.33505-0.36856 1.2564-0.20103 0.75386q-0.05025 0.11727-0.06701 0.25129v0.016751q0.18427-0.11727 0.30154-0.26804 0.28479-0.33505 0.53608-0.77062l0.82087-1.4072 0.08377-0.18428-0.01675-0.016752q-0.10052 0.050257-0.20103 0.050257c-0.11727 0.016752-0.15077-0.11727-0.08377-0.20103l0.15077-0.16753"
    fill="none"
    stroke="#6c6ea2"
    stroke-width=".033505"
  />
  <path
    d="m13.352 5.9642 0.30155-0.30155a0.6701 0.6701 0 0 0 0.18428-0.33505l0.25129-0.95489v-0.016752l-0.3183 0.13402-0.01675 0.016752q-0.06702 0-0.10052-0.050257c-0.05025-0.067011 0.0335-0.18428 0.08377-0.23454l0.4188-0.56959 0.3183-0.40206q0.08377-0.11727 0.08377-0.28479l0.06702-0.61984 0.0335-1.1559-0.08377-0.97165a0.01873 0.01873 0 0 0-0.0335-0.016752l-0.20104 0.18428-0.48582 0.53608q-0.28479 0.3183-0.51933 0.65335c-0.21778 0.28479-0.46907 0.68685-0.6701 1.0052a11.325 11.325 0 0 0-0.85438 1.6585q-0.23454 0.55283-0.36856 1.0219-0.16752 0.6701-0.21778 1.4072"
    fill="none"
    stroke="#6a84a2"
    stroke-width=".033505"
  />
  <path
    d="m13.352 5.9642q-0.43556 0.15077-0.85438 0.3518m-0.56959 0.40206-0.70361-0.050257"
    fill="none"
    stroke="#7eafff"
    stroke-width=".033505"
  />
  <path
    d="m5.7964 3.6691-0.033505 0.10052"
    fill="none"
    stroke="#a88958"
    stroke-width=".033505"
  />
  <path
    d="m5.7629 3.7696q-0.050257 0.20103-0.050257 0.3518 0.016752 0.18428 0.20103 0.21778a0.87113 0.87113 0 0 0 0.46907-0.016752l0.41881-0.10052 0.33505-0.083762q0.26804-0.06701 0.60309-0.083762 0.06701-0.016752 0.13402 0.033505l-0.016753 0.016752-0.38531 0.13402-0.28479 0.06701v0.016753l0.083762 0.083762q0.45232 0.50258 0.60309 1.1727l0.13402-0.36855q0.15077-0.3518 0.3518-0.61984l0.3518-0.43557q0.16752-0.20103 0.38531-0.40206l0.33505-0.30155q0.10052-0.10052 0.10052-0.20103 0.016751-0.21778-0.18428-0.30155-0.16752-0.06701-0.33505-0.083762"
    fill="none"
    stroke="#a77e59"
    stroke-width=".033505"
  />
  <path
    d="m9.0129 2.8649h-0.23453"
    fill="none"
    stroke="#a88958"
    stroke-width=".033505"
  />
  <path
    d="m8.7783 2.8649-0.43557 0.016753q-0.20103 0.033505-0.38531 0.13402l-0.21778 0.10052-0.016753-0.016752a0.80412 0.80412 0 0 1 0.13402-0.30155l0.93814-1.5077q0.10052-0.15077 0.15077-0.30155l-0.016751-0.016753q-0.050252-0.016752-0.10052 0.016753l-0.75386 0.30155a5.0928 5.0928 0 0 0-1.3402 0.95489q-0.38531 0.36856-0.65335 0.80412-0.18428 0.30155-0.28479 0.61984"
    fill="none"
    stroke="#aa9657"
    stroke-width=".033505"
  />
  <path
    d="m8.7783 2.8649a3.518 3.518 0 0 1-0.90464 0.65335q-0.36856 0.16753-0.75386 0.25129-0.33505 0.06701-0.68685 0l-0.6366-0.10052"
    fill="none"
    stroke="#fbdc6b"
    stroke-width=".033505"
  />
  <path
    d="m9.0129 2.8649-0.56959 0.45232q-0.55283 0.45232-1.2564 0.58634-0.36856 0.06701-0.73711 0l-0.68685-0.13402"
    fill="none"
    stroke="#f8c46d"
    stroke-width=".033505"
  />
  <path
    d="m12.966 4.3559-0.05025 0.083762-0.0335 0.11727-0.58634 1.5915-0.40206 1.2062q-0.16752 0.51933-0.3518 1.2564l-0.06702 0.30155-0.13402 0.6366 0.13402-0.16752v-0.016751l0.06702-0.28479 0.10052-0.40206 0.25129-0.90464 0.3518-1.1894 0.18428-0.58634 0.25129-0.82087 0.23454-0.70361 0.05025-0.11727"
    fill="none"
    stroke="#a89a9b"
    stroke-width=".033505"
  />
  <path
    d="m10.068 7.0866v0.016752-0.016752"
    fill="none"
    stroke="#644948"
    stroke-width=".033505"
  />
  <path
    d="m10.068 7.0866 0.01675-0.48582-0.01675-0.50258q0-0.15077-0.067-0.36856-0.067019-0.21778-0.20103-0.41881l-0.033502-0.050257a1.0554 1.0554 0 0 0-0.36857-0.25129q-0.26804-0.11727-0.55283-0.050257l-0.20103 0.06701a0.6701 0.6701 0 0 0-0.30155 0.21778l-0.11727 0.16753-0.016752 0.033505q-0.083762 0.21778-0.10051 0.46907l-0.050259 0.58634q0.15077-0.43557 0.53608-0.6366c0.50258-0.23454 0.9884 0.11727 1.2229 0.53608q0.18428 0.3183 0.25129 0.68685m-2.2951-0.50258-0.016752-0.40206-0.033505-0.13402-0.050258-0.3518q-0.083763-0.20103-0.18428-0.33505l-0.23454-0.21778q-0.21778-0.11727-0.45232-0.083763a0.95489 0.95489 0 0 0-0.46907 0.16753l-0.20103 0.20103a1.3737 1.3737 0 0 0-0.28479 0.56959q-0.15077 0.58634-0.15077 1.1894v0.20103l0.016752-0.016752q0.033506-0.56959 0.3518-1.0219c0.30155-0.41881 0.83763-0.65335 1.2899-0.30155q0.23454 0.16753 0.3518 0.43557l0.050257 0.10051h0.016752"
    fill="none"
    stroke="#a59a99"
    stroke-width=".033505"
  />
  <path
    d="m1.7088 7.1871q-0.10052 0.3518-0.050257 0.70361l0.016753 0.11727q0.016752 0.16753 0.15077 0.30155h0.016752q0.23453-0.21778 0.51933-0.30155"
    fill="none"
    stroke="#a78768"
    stroke-width=".033505"
  />
  <path
    d="m2.3621 8.0247 0.30155-0.083762c0.21778-0.033505 0.50258-0.016752 0.6701 0.11727l0.15077 0.15077"
    fill="none"
    stroke="#a6816f"
    stroke-width=".033505"
  />
  <path
    d="m3.4845 8.209 0.20103 0.25129c0.06701 0.10052 0.23454 0.016752 0.3183-0.016752l0.23454-0.10052q0.16753-0.13402 0.30155-0.28479h0.016752q-0.15077 0.3518-0.48582 0.55283l-0.20103 0.083762q-0.15077 0.033502-0.25129-0.050252h-0.016752l-0.20103 0.45232"
    fill="none"
    stroke="#a4655c"
    stroke-width=".033505"
  />
  <path
    d="m3.4008 9.0969-0.050257 0.083766a0.016753 0.016753 0 0 0 0 0.033501q0.25129 0.16753 0.51933 0.18428h0.11727l0.30155-0.033502q0.10052 0.016751 0.18428-0.050252 0.10052-0.067015 0.18428-0.18428l0.033505-0.11727"
    fill="none"
    stroke="#865450"
    stroke-width=".033505"
  />
  <path
    d="m4.6907 9.0131 0.25129-0.53608"
    fill="none"
    stroke="#a4655c"
    stroke-width=".033505"
  />
  <path
    d="m4.942 8.477 0.21778-0.28479 0.28479-0.33505q0.033505-0.033505 0.033505-0.083762l0.016752-0.36856c-0.033505-0.3183-0.033505-0.48582-0.10052-0.72036"
    fill="none"
    stroke="#865450"
    stroke-width=".033505"
  />
  <path
    d="m5.3943 6.6845q-0.033505-0.26804-0.13402-0.46907-0.083763-0.15077-0.25129-0.3183"
    fill="none"
    stroke="#a4655c"
    stroke-width=".033505"
  />
  <path
    d="m5.009 5.8971a1.3234 1.3234 0 0 0-0.95489-0.40206q-0.28479-0.016752-0.50258 0.033505-0.40206 0.083762-0.80412 0.25129-0.23454 0.11727-0.40206 0.26804a1.9098 1.9098 0 0 0-0.48582 0.61984q-0.10052 0.25129-0.16753 0.51933"
    fill="none"
    stroke="#a6816f"
    stroke-width=".033505"
  />
  <path
    d="m5.009 5.8971-0.033505 0.10052q-0.016752 0.26804-0.10051 0.51933-0.15077 0.51933-0.46907 1.0052l-0.11727 0.15077q-0.23454 0.21778-0.50258 0.38531l-0.30155 0.15077"
    fill="none"
    stroke="#f2a387"
    stroke-width=".033505"
  />
  <path
    d="m2.3621 8.0247q-0.25129-0.23454-0.45232-0.51933l-0.21778-0.3183"
    fill="none"
    stroke="#f6c493"
    stroke-width=".033505"
  />
  <path
    d="m5.3943 6.6845-0.016753 0.30155-0.050258 0.30155q-0.13402 0.55283-0.33505 1.0889l-0.050257 0.10051m-0.25129 0.53608-0.16753 0.18428q-0.06701 0.083766-0.16753 0.11727l-0.30155 0.050252-0.20103 0.016751q-0.083762 0-0.18428-0.050252-0.16753-0.10052-0.28479-0.23454"
    fill="none"
    stroke="#d37668"
    stroke-width=".033505"
  />
  <path
    d="m9.1469 8.6781 0.016751 0.033501h0.016751c0.30154-0.083766 0.53608-0.3518 0.65335-0.6366l0.050252-0.20103v-0.016749a1.2564 1.2564 0 0 0-0.43556-0.43557l-0.15077-0.06701"
    fill="none"
    stroke="#644948"
    stroke-width=".033505"
  />
  <path
    d="m9.3144 7.3546q-0.13402-0.26804-0.43557-0.3183c-0.33505 0-0.50258 0.36856-0.53608 0.6366-0.050257 0.33505 0.050257 0.77062 0.3518 0.97165q0.21778 0.15077 0.45232 0.033501"
    fill="none"
    stroke="#a89a9b"
    stroke-width=".033505"
  />
  <path
    d="m9.3144 7.3546a1.3402 1.3402 0 0 1 0 1.1224q-0.050252 0.13402-0.16752 0.18428"
    fill="none"
    stroke="#b4a09e"
    stroke-width=".033505"
  />
  <path
    d="m6.4832 7.3211q-0.30155 0.050258-0.58634 0.13402v0.016752a1.6753 1.6753 0 0 0 0.13402 0.78737 0.60309 0.60309 0 0 0 0.21778 0.25129q0.15077 0.10052 0.30155 0.083763"
    fill="none"
    stroke="#644948"
    stroke-width=".033505"
  />
  <path
    d="m6.5502 8.5943q0.16753 0.15077 0.36856 0.10051 0.23454-0.067009 0.36856-0.28479 0.18428-0.3518 0.11727-0.75386-0.06701-0.3518-0.3518-0.53608-0.23454-0.10052-0.45232 0.050258l-0.11727 0.15077"
    fill="none"
    stroke="#a89a9b"
    stroke-width=".033505"
  />
  <path
    d="m6.5502 8.5943c-0.30155-0.33505-0.30155-0.90464-0.06701-1.2732"
    fill="none"
    stroke="#b4a09e"
    stroke-width=".033505"
  />
  <path
    d="m9.8505 8.7451-0.067015 0.23454q-0.083766 0.3518-0.067015 0.73711l0.050252 0.38531a2.1443 2.1443 0 0 0 0.43556 0.9549"
    fill="none"
    stroke="#a4655c"
    stroke-width=".033505"
  />
  <path
    d="m10.202 11.057 0.18428 0.21778"
    fill="none"
    stroke="#865450"
    stroke-width=".033505"
  />
  <path
    d="m10.387 11.275h0.01675-0.01675"
    fill="none"
    stroke="#644948"
    stroke-width=".033505"
  />
  <path
    d="m10.387 11.275q-0.11727-0.3183-0.15077-0.68685"
    fill="none"
    stroke="#865450"
    stroke-width=".033505"
  />
  <path
    d="m10.236 10.588 0.0335-0.3518 0.06702-0.26804q0.11727-0.33505 0.46907-0.33505h0.33505v-0.016751l0.0335-0.15077q0.0335-0.18428 0.01675-0.28479l-0.13402-0.9884-0.01675-0.11727"
    fill="none"
    stroke="#a4655c"
    stroke-width=".033505"
  />
  <path
    d="m11.04 8.075v-0.11727l-0.01675-0.68685h-0.01675l-0.05025 0.033505q-0.2848 0.16753-0.48584 0.36856-0.21778 0.23454-0.36856 0.48582-0.16753 0.26804-0.25129 0.58634"
    fill="none"
    stroke="#865450"
    stroke-width=".033505"
  />
  <path
    d="m11.04 8.075-0.10051-0.38531v-0.016752q-0.48582 0.28479-0.82087 0.70361l-0.26804 0.36856m0.38531 1.8428q-0.05025 0.23454-0.0335 0.46907"
    fill="none"
    stroke="#d37668"
    stroke-width=".033505"
  />
  <path
    d="m12.648 8.142-0.3183 0.48582 0.23454-0.11727v0.016752q-0.15077 0.20103-0.36856 0.3518"
    fill="none"
    stroke="#a4655c"
    stroke-width=".033505"
  />
  <path
    d="m12.196 8.8791-0.11727 0.083766q-0.16753 0.083766-0.3183 0.20103v0.016751l0.15077 0.45232 0.01675 0.083766-0.05025 0.067015"
    fill="none"
    stroke="#a57466"
    stroke-width=".033505"
  />
  <path
    d="m11.878 9.7837h-0.36856l-0.6366 0.033501q-0.20103-0.016751-0.33505 0.13402a1.4072 1.4072 0 0 0-0.11727 0.6701q0.0335 0.65335 0.50258 1.1057"
    fill="none"
    stroke="#a6816f"
    stroke-width=".033505"
  />
  <path
    d="m10.923 11.727q0.25129 0.21778 0.50258 0.3183 0.16752 0.067 0.40206 0.10052 0.21778 0.0335 0.41881 0.01675 0.38531-0.05025 0.77062-0.20103c0.40206-0.18428 0.82087-0.36856 1.0387-0.72036q0.15077-0.23454 0.21778-0.51933"
    fill="none"
    stroke="#a78768"
    stroke-width=".033505"
  />
  <path
    d="m14.273 10.722 0.06701-0.30154"
    fill="none"
    stroke="#a6816f"
    stroke-width=".033505"
  />
  <path
    d="m14.34 10.42 0.06701-0.50258q0.0335-0.15077 0.0335-0.33505"
    fill="none"
    stroke="#a57466"
    stroke-width=".033505"
  />
  <path
    d="m14.441 9.5827q0-0.25129-0.08377-0.53608l-0.16752-0.50258q-0.10051-0.28479-0.30154-0.6366l-0.11727-0.15077-0.25129-0.25129q-0.13402-0.11727-0.28479-0.16753"
    fill="none"
    stroke="#a4655c"
    stroke-width=".033505"
  />
  <path
    d="m13.234 7.3379-0.10052-0.016752h-0.01675l-0.46907 0.82087"
    fill="none"
    stroke="#865450"
    stroke-width=".033505"
  />
  <path
    d="m13.234 7.3379-0.050253 0.10052-0.23454 0.36856q-0.11727 0.18428-0.30155 0.33505"
    fill="none"
    stroke="#d37668"
    stroke-width=".033505"
  />
  <path
    d="m14.441 9.5827-0.16753-0.15077-0.33505-0.33505a1.1224 1.1224 0 0 0-1.0387-0.3183l-0.7036 0.10052"
    fill="none"
    stroke="#f1967e"
    stroke-width=".033505"
  />
  <path
    d="m14.34 10.42c-0.15077 0-0.3183 0-0.43556-0.13402l-0.20103-0.23454q-0.23454-0.21778-0.55283-0.33505c-0.30154-0.10052-0.53608-0.033501-0.88788 0.033502l-0.38531 0.033501"
    fill="none"
    stroke="#f3b291"
    stroke-width=".033505"
  />
  <path
    d="m14.273 10.722q-0.28479 0.01675-0.50258 0.18428l-0.33505 0.26804"
    fill="none"
    stroke="#f6c493"
    stroke-width=".033505"
  />
  <path
    d="m13.436 11.174c0.01675-0.26804-0.3183-0.3518-0.53608-0.30155-0.21778 0.06702-0.43557 0.23454-0.51933 0.45232q-0.05025 0.15077 0.01675 0.28479"
    fill="none"
    stroke="#f3d8c4"
    stroke-width=".033505"
  />
  <path
    d="m12.397 11.627-0.38531-0.15077-0.36856-0.18428c-0.41881-0.20103-0.56959 0.11727-0.72036 0.43556"
    fill="none"
    stroke="#f6c493"
    stroke-width=".033505"
  />
  <path
    d="m12.397 11.627q0.16752 0.21778 0.46907 0.13402a0.82087 0.82087 0 0 0 0.3518-0.21778q0.16752-0.13402 0.21778-0.36856"
    fill="none"
    stroke="#f5debd"
    stroke-width=".033505"
  />
  <path
    d="m6.433 8.7953-0.3183-0.16752-0.21778-0.20103-0.20103-0.36856h-0.016752q-0.20103 0.083762-0.38531 0.23454l-0.13402 0.16753q-0.18428 0.30155-0.30155 0.56959l-0.10052 0.3518"
    fill="none"
    stroke="#a4655c"
    stroke-width=".033505"
  />
  <path
    d="m4.7577 9.3817-0.033505 0.21778"
    fill="none"
    stroke="#a6816f"
    stroke-width=".033505"
  />
  <path
    d="m4.7242 9.5994q-0.050257 0.45232 0.050257 0.85438l0.15077 0.38531 0.06701 0.11727 0.16753 0.40206q0.11727 0.20103 0.28479 0.38531l0.050257 0.05025a2.6301 2.6301 0 0 0 0.85438 0.45232"
    fill="none"
    stroke="#a57466"
    stroke-width=".033505"
  />
  <path
    d="m6.3492 12.246a4.3389 4.3389 0 0 0 1.692 0.16752q0.60309-0.05025 1.1224-0.25129l0.38531-0.16753 0.16752-0.10052q0.23454-0.13402 0.41881-0.33505l0.11727-0.15077v-0.01675a2.7474 2.7474 0 0 1-0.40206-0.55283q-0.23454-0.38531-0.28479-0.90464-0.033502-0.41881 0-0.75386"
    fill="none"
    stroke="#a6816f"
    stroke-width=".033505"
  />
  <path
    d="m9.5657 9.1806q0.050252-0.3183 0.15077-0.60309-0.16752 0.20103-0.41881 0.30155"
    fill="none"
    stroke="#a4655c"
    stroke-width=".033505"
  />
  <path
    d="m9.2977 8.8791q-0.28479 0.067015-0.55283-0.033502l-0.13402-0.050252-0.016752 0.016751q-0.016752 0.16753-0.13402 0.30155a0.6366 0.6366 0 0 1-0.55283 0.26803q-0.3518-0.033505-0.56959-0.33505l-0.033505-0.016751h-0.10052l-0.033505-0.067015c0.016752-0.067015 0.11727-0.083766 0.16753-0.083766l0.11727-0.016751 0.51933-0.13402 0.3518-0.11727 0.016752-0.016752q-0.083761-0.083757-0.13402-0.18427-0.11727-0.21778-0.16753-0.38531l-0.11727-0.56959v-0.016753l-0.016753-0.016752-0.033505 0.06701q-0.033505 0.3183-0.15077 0.6366c-0.13402 0.3518-0.40206 0.65335-0.80412 0.68685l-0.25129 0.016751-0.23454-0.033502"
    fill="none"
    stroke="#a6816f"
    stroke-width=".033505"
  />
  <path
    d="m9.2977 8.8791q0.10052 0.18428 0.26804 0.30155"
    fill="none"
    stroke="#f2a387"
    stroke-width=".033505"
  />
  <path
    d="m6.3492 12.246-0.40206-0.41881q-0.25129-0.3183-0.46907-0.73711-0.25129-0.45232-0.45232-0.93814-0.10052-0.28479-0.30155-0.55283"
    fill="none"
    stroke="#f3b291"
    stroke-width=".033505"
  />
  <path
    d="m4.7577 9.3817q0.28479 0.18428 0.61984 0.20103 0.40206 0 0.72036-0.23454 0.28479-0.21778 0.33505-0.55283"
    fill="none"
    stroke="#f2a387"
    stroke-width=".033505"
  />
  <path
    d="m2.2281 8.2592-0.10052 0.06701-0.10052 0.083762-0.11727 0.11727-0.3183 0.40206"
    fill="none"
    stroke="#9c826e"
    stroke-width=".033505"
  />
  <path
    d="m1.5915 8.9293-0.050257 0.067015q-0.45232 0.63659-0.85438 1.3234h0.016752q0.16753-0.11727 0.38531-0.11727 0.48582-0.0335 0.83763 0.3183 0.23454 0.20103 0.25129 0.50258v0.11727h0.016752l0.033505-0.06701v-0.01675l0.16753-0.30154"
    fill="none"
    stroke="#937560"
    stroke-width=".033505"
  />
  <path
    d="m2.3956 10.755q0.3518-0.61984 0.6366-1.2564"
    fill="none"
    stroke="#9c826e"
    stroke-width=".033505"
  />
  <path
    d="m3.0322 9.4989 0.18428-0.40206 0.16753-0.36856q0.083763-0.13402 0.083763-0.26804l-0.016752-0.016752q-0.15077-0.23454-0.40206-0.3183-0.21778-0.050257-0.41881 0l-0.40206 0.13402"
    fill="none"
    stroke="#a38e7a"
    stroke-width=".033505"
  />
  <path
    d="m3.0322 9.4989q-0.20103-0.20103-0.33505-0.43557-0.25129-0.38531-0.46907-0.80412"
    fill="none"
    stroke="#e8cda4"
    stroke-width=".033505"
  />
  <path
    d="m2.3956 10.755-0.083763-0.16752v-0.01675l-0.10051-0.15078-0.3183-0.43557q-0.26804-0.3518-0.30155-0.78737v-0.26804"
    fill="none"
    stroke="#d8b489"
    stroke-width=".033505"
  />
  <path
    d="m8.4265 8.7283-0.50258 0.16753-0.41881 0.10052q0.15077 0.21778 0.40206 0.23454 0.21778 0 0.36856-0.13402 0.16753-0.13402 0.16753-0.3518l-0.016752-0.016751"
    fill="none"
    stroke="#a89a9b"
    stroke-width=".033505"
  />
  <path
    d="m2.9987 9.968q-0.36856 0.73711-0.78737 1.4575l-0.3183 0.50258a0.50258 0.50258 0 0 1-0.33505 0.18428"
    fill="none"
    stroke="#9c826e"
    stroke-width=".033505"
  />
  <path
    d="m1.558 12.112h-0.13402q-0.16753-0.05026-0.3183-0.18428"
    fill="none"
    stroke="#937560"
    stroke-width=".033505"
  />
  <path
    d="m1.1057 11.928q-0.15077-0.11727-0.28479-0.26804v-0.01675q-0.033505-0.06701 0.016752-0.11727l0.083762-0.05025q0.45232-0.11727 0.68685-0.50258 0.050257-0.08377 0.083762-0.23454v-0.16753l-0.016752-0.0335q-0.25129-0.16753-0.55283-0.16753-0.18428 0.01675-0.3518 0.11727l-0.083762 0.06701"
    fill="none"
    stroke="#8e6c56"
    stroke-width=".033505"
  />
  <path
    d="m0.68685 10.554q-0.13402 0.13402-0.25129 0.3183-0.13402 0.26804-0.20103 0.48582l-0.033505 0.21778q-0.033505 0.11727-0.033505 0.25129l0.016752 0.45232q0.016752 0.21778 0.11727 0.48582 0.11727 0.33505 0.3183 0.65335"
    fill="none"
    stroke="#845f50"
    stroke-width=".033505"
  />
  <path
    d="m0.61984 13.419 0.06701 0.15077 0.28479 0.45232q0.06701 0.11727 0.13402 0.16752 0.10052 0.08377 0.26804 0.08377"
    fill="none"
    stroke="#8e6c56"
    stroke-width=".033505"
  />
  <path
    d="m1.3737 14.273 0.083762 0.01675q0.11727 0.01675 0.13402 0.11727l0.050257 0.18428q0.067011 0.13402 0.18428 0.21778 0.20103 0.16752 0.43557 0.26804l0.25129 0.10052 0.53608 0.16753 0.43557 0.11727q0.21778 0.0335 0.41881-0.05025"
    fill="none"
    stroke="#937560"
    stroke-width=".033505"
  />
  <path
    d="m3.9033 15.413c0.083762-0.05025 0.18428-0.11727 0.28479-0.0335l0.20103 0.16752a1.2397 1.2397 0 0 0 0.43557 0.16752l0.21778 0.05025c0.25129 0.05026 0.41881 0.08377 0.6366 0.05026l0.55283-0.13402 0.23454-0.05025q0.3518-0.05025 0.60309-0.15077l0.28479-0.13402a0.58634 0.58634 0 0 1 0.38531 0.10052q0.13402 0.10052 0.30155 0.16753l0.033505 0.01675h0.23454l0.21778-0.05025q0.77062-0.23454 1.7925-0.50258l0.45232-0.18428 0.13402-0.05025"
    fill="none"
    stroke="#9c826e"
    stroke-width=".033505"
  />
  <path
    d="m10.906 14.843 0.41881-0.05025"
    fill="none"
    stroke="#a38e7a"
    stroke-width=".033505"
  />
  <path
    d="m11.325 14.793 0.83763-0.06702q0.10052-0.01675 0.18428-0.08377l0.15077-0.16752c0.13402-0.11727 0.25129 0.08377 0.36856 0.11727q0.33505 0.067 0.72036 0.067l0.0335-0.01675 0.10052-0.0335 0.28479-0.05025v-0.01675l0.01675-0.18428q0.01675-0.06702 0.08377-0.10052 0.06701-0.0335 0.13402 0.01675"
    fill="none"
    stroke="#9c826e"
    stroke-width=".033505"
  />
  <path
    d="m14.24 14.273 0.20103 0.16753 0.23454 0.11727"
    fill="none"
    stroke="#937560"
    stroke-width=".033505"
  />
  <path
    d="m14.675 14.558q0.13402 0.06701 0.21778 0.06701l0.26804 0.01675 0.08377-0.01675m0.01675-0.01675q0.10052-0.08377 0.13402-0.21778 0.10052-0.13402 0.25129-0.18428 0.0335-0.01675 0.01675-0.05026l-0.05025-0.13402q-0.10052-0.21778-0.23454-0.38531l-0.36856-0.46907"
    fill="none"
    stroke="#845f50"
    stroke-width=".033505"
  />
  <path
    d="m15.01 13.168-0.33505-0.43556-0.58634-0.72036-0.0335-0.05025-0.15077-0.26804h-0.01675l-0.06702 0.05025"
    fill="none"
    stroke="#937560"
    stroke-width=".033505"
  />
  <path
    d="m13.838 11.744-0.10052 0.06702"
    fill="none"
    stroke="#9c826e"
    stroke-width=".033505"
  />
  <path
    d="m13.737 11.811-0.43557 0.23454-0.30155 0.11727q-0.3518 0.15077-0.72036 0.18428l-0.01675 0.01675c0.05025 0.15077 0.06702 0.3183-0.08377 0.41881q-0.21778 0.08377-0.40206-0.05025l-0.3518-0.21778-0.30155-0.13402"
    fill="none"
    stroke="#a38e7a"
    stroke-width=".033505"
  />
  <path
    d="m11.124 12.38-0.36856-0.15077h-0.01675l-0.01675 0.05025"
    fill="none"
    stroke="#8e6c56"
    stroke-width=".033505"
  />
  <path
    d="m10.722 12.28-0.18428 0.43557-0.067 0.16752q-0.05025 0.11727-0.15077 0.06701h-0.01675l-0.01675-0.08377"
    fill="none"
    stroke="#a38e7a"
    stroke-width=".033505"
  />
  <path
    d="m10.286 12.866 0.08377-0.58634"
    fill="none"
    stroke="#9c826e"
    stroke-width=".033505"
  />
  <path
    d="m10.37 12.28 0.01675-0.15077v-0.01675l-0.20103-0.0335q-0.26804 0.01675-0.51933 0.08377l-0.067015 0.01675"
    fill="none"
    stroke="#937560"
    stroke-width=".033505"
  />
  <path
    d="m9.5992 12.179-0.050252 0.01675c-0.72036 0.3518-1.558 0.46907-2.3621 0.40206a3.7693 3.7693 0 0 1-1.3234-0.3518l-0.15077-0.05025-0.06701-0.01675-0.20103-0.06702q-0.10052-0.05025-0.3183-0.08377l-0.18428-0.01675-0.56959 0.05025q-0.13402 0.01675-0.28479 0.08377"
    fill="none"
    stroke="#9c826e"
    stroke-width=".033505"
  />
  <path
    d="m4.0876 12.146q-0.3183 0.08376-0.58634 0.20103l-0.3183 0.13402q-0.11727 0.05025-0.23454 0.01675c-0.18428-0.050256-0.20103-0.25129-0.13402-0.40206q0.06701-0.16752 0.16753-0.3183"
    fill="none"
    stroke="#a38e7a"
    stroke-width=".033505"
  />
  <path
    d="m2.9819 11.777 0.21778-0.30155c-0.20103 0.050257-0.33505-0.13402-0.30155-0.3183l0.06701-0.15077a2.2448 2.2448 0 0 1 0.41881-0.53608q-0.083763 0-0.13402-0.08377c-0.083762-0.10052 0.016752-0.25129 0.06701-0.3518"
    fill="none"
    stroke="#9c826e"
    stroke-width=".033505"
  />
  <path
    d="m3.317 10.035q0.16753-0.28479 0.43557-0.45232v-0.016751q-0.26804-0.050265-0.46907-0.20103h-0.016752l-0.26804 0.60309"
    fill="none"
    stroke="#8e6c56"
    stroke-width=".033505"
  />
  <path
    d="m3.317 10.035-0.3183-0.067011"
    fill="none"
    stroke="#d2ab80"
    stroke-width=".033505"
  />
  <path
    d="m2.9819 11.777q-0.45232-0.01675-0.82087 0.28479c-0.28479 0.23454-0.3518 0.58634-0.3518 0.93814 0.033505 0.65335 0.3183 1.3402 0.92139 1.6417q0.38531 0.18428 0.80412 0.26804 0.80412 0.21778 1.5747 0.3518 0.51933 0.08377 1.0219-0.01675l0.55283-0.08377a1.5412 1.5412 0 0 1 0.56959 0l0.41881 0.13402a1.4575 1.4575 0 0 0 0.65335 0.05025l0.50258-0.06701q0.33505-0.016751 0.60309-0.15077l0.38531-0.16752q0.3518-0.15077 0.72036-0.13402l0.13402 0.01675h0.23454"
    fill="none"
    stroke="#e8cda4"
    stroke-width=".033505"
  />
  <path
    d="m3.9033 15.413-0.95489-0.30154q-0.53608-0.16752-0.90464-0.56959a2.6972 2.6972 0 0 1-0.60309-1.2397q-0.10052-0.41881 0.016752-0.85438l0.10052-0.33505"
    fill="none"
    stroke="#d8b489"
    stroke-width=".033505"
  />
  <path
    d="m4.0876 12.146q0.3518 0.08377 0.68685 0.20103l0.68685 0.28479q0.51933 0.21778 1.0387 0.30154a4.6907 4.6907 0 0 0 1.4072-0.0335l0.56959-0.08377q0.46907-0.08377 0.97165-0.0335l0.83763 0.08377"
    fill="none"
    stroke="#e8cda4"
    stroke-width=".033505"
  />
  <path
    d="m10.722 12.28 0.05025 0.05025 0.26804 0.05025h0.08377"
    fill="none"
    stroke="#dab78c"
    stroke-width=".033505"
  />
  <path
    d="m13.737 11.811 0.36856 1.4072q0.06701 0.20103 0.06701 0.40206c0 0.48582-0.55283 0.58634-0.92139 0.60309l-0.53608 0.01675a1.9098 1.9098 0 0 0-1.1727 0.36856l-0.23454 0.18428"
    fill="none"
    stroke="#e8cda4"
    stroke-width=".033505"
  />
  <path
    d="m1.1057 11.928q-0.083762 0.067-0.13402 0.15077c-0.25129 0.30154-0.21778 0.6701-0.10052 1.0219q0.20103 0.60309 0.50258 1.1727"
    fill="none"
    stroke="#ca9d72"
    stroke-width=".033505"
  />
  <path
    d="m0.61984 13.419-0.15077-0.68685q-0.050257-0.30154-0.050257-0.50258l0.016752-0.51933 0.050257-0.55283 0.10052-0.33505c0.033505-0.06701 0.16753-0.18428 0.10052-0.26804"
    fill="none"
    stroke="#bb8762"
    stroke-width=".033505"
  />
  <path
    d="m9.5992 12.179h0.050265q0.033501 0.21778 0.23454 0.16752l0.48582-0.067"
    fill="none"
    stroke="#d8b489"
    stroke-width=".033505"
  />
  <path
    d="m15.01 13.168q0 0.08377 0.0335 0.13402l0.11727 0.16752 0.01675 0.0335 0.05026 0.21778 0.067 0.36856 0.01675 0.10052-0.01675 0.01675-0.61984 0.3518"
    fill="none"
    stroke="#c0906c"
    stroke-width=".033505"
  />
  <path
    d="m14.24 14.273 0.15077-0.18428c0.20103-0.26804 0.10052-0.6366 0.01675-0.93814q-0.20103-0.55283-0.45232-1.1057l-0.05025-0.10052-0.06702-0.20103"
    fill="none"
    stroke="#d8b489"
    stroke-width=".033505"
  />
  <path
    d="m11.609 9.5994h0.067l-0.033499-0.083766h-0.01675l-0.01675 0.083766"
    fill="none"
    stroke="#a4655c"
    stroke-width=".033505"
  />
  <path
    d="m3.9871 10.052q0.23454-0.083767 0.45232-0.05025l0.10052 0.01675h0.016752q-0.016752-0.23454 0.016752-0.45232l-0.016752-0.016751h-0.067011"
    fill="none"
    stroke="#865450"
    stroke-width=".033505"
  />
  <path
    d="m4.4897 9.5492-0.26804 0.016751q-0.20103 0.050252-0.38531 0.16752-0.30155 0.20103-0.43557 0.53608v0.01675h0.050257q0.083762-0.0335 0.16753-0.01675l0.016752-0.01675 0.16753-0.11727 0.18428-0.08377"
    fill="none"
    stroke="#a4655c"
    stroke-width=".033505"
  />
  <path
    d="m4.4897 9.5492-0.083762 0.15077-0.41881 0.3518"
    fill="none"
    stroke="#d37668"
    stroke-width=".033505"
  />
  <path
    d="m4.1881 10.739 0.13402-0.0335 0.13402-0.01675 0.16753 0.0335v-0.01675l-0.067011-0.43557-0.016752-0.05025-0.06701-0.0335"
    fill="none"
    stroke="#865450"
    stroke-width=".033505"
  />
  <path
    d="m4.4897 10.186q-0.3518-0.083762-0.65335 0.15077-0.25129 0.16752-0.50258 0.45232c-0.050257 0.05025-0.43557 0.50258-0.18428 0.50258l0.18428-0.06702 0.16753-0.06701 0.050257-0.01675a2.2448 2.2448 0 0 1 0.53608-0.36856l0.10052-0.0335"
    fill="none"
    stroke="#a4655c"
    stroke-width=".033505"
  />
  <path
    d="m4.4897 10.186-0.050257 0.13402-0.11727 0.23454-0.13402 0.18428"
    fill="none"
    stroke="#d37668"
    stroke-width=".033505"
  />
  <path
    d="m1.8595 10.705q0 0.21778-0.11727 0.40206-0.21778 0.33505-0.58634 0.48582l-0.10052 0.0335v0.01675q0.10052 0.11727 0.23454 0.20103 0.13402 0.08377 0.21778 0.10052 0.25129-0.01675 0.36856-0.28479v-0.01675l0.033505-0.06702v-0.0335a0.80412 0.80412 0 0 0 0.033505-0.72036l-0.06701-0.11727h-0.016752"
    fill="none"
    stroke="#845f50"
    stroke-width=".033505"
  />
  <path
    d="m3.9033 11.09q-0.25129 0.16753-0.48582 0.41881-0.26804 0.28479-0.40206 0.56959-0.06701 0.08377-0.06701 0.20103c0.016752 0.08377 0.11727 0.067 0.16753 0.0335 0.10052-0.0335 0.3518-0.16753 0.53608-0.21778l0.20103-0.06702 0.11727-0.0335"
    fill="none"
    stroke="#a6755a"
    stroke-width=".033505"
  />
  <path
    d="m3.9703 11.995 0.067011-0.0335"
    fill="none"
    stroke="#a4655c"
    stroke-width=".033505"
  />
  <path
    d="m4.0374 11.962 0.33505-0.08377 0.51933-0.05025 0.13402-0.01675 0.050257-0.05026-0.016752-0.13402-0.10051-0.30155-0.083762-0.20103q-0.016754-0.08376-0.083764-0.15077l-0.11727-0.067-0.11727-0.0335"
    fill="none"
    stroke="#865450"
    stroke-width=".033505"
  />
  <path
    d="m4.5567 10.873q-0.23454-0.01675-0.46907 0.10052l-0.20103 0.11727"
    fill="none"
    stroke="#a4655c"
    stroke-width=".033505"
  />
  <path
    d="m4.5567 10.873q-0.016752 0.25129-0.083763 0.41881-0.083762 0.30154-0.33505 0.53608l-0.10052 0.13402"
    fill="none"
    stroke="#d37668"
    stroke-width=".033505"
  />
  <path
    d="m3.9703 11.995-0.10052-0.3183a1.8093 1.8093 0 0 1 0.033505-0.58634"
    fill="none"
    stroke="#f29772"
    stroke-width=".033505"
  />
  <path
    d="m10.37 11.543-0.05025 0.16752 0.0335 0.08377 0.06701 0.08377a0.016753 0.016753 0 0 0 0.0335 0l0.0335-0.21778v-0.0335l-0.10052-0.08377h-0.01675"
    fill="none"
    stroke="#865450"
    stroke-width=".033505"
  />
  <path
    d="m10.537 12.313 0.20103-0.50258a0.016753 0.016753 0 0 0 0-0.0335l-0.08377-0.0335-0.01675 0.01675-0.11727 0.55284h0.01675"
    fill="none"
    stroke="#a59a99"
    stroke-width=".033505"
  />
  <path
    d="m10.889 11.928h-0.01675l-0.05025 0.11727 0.01675 0.01675 0.45232 0.18428 0.16752 0.08377 0.3183 0.18428 0.15077 0.08377q0.08377 0.05025 0.15077 0.01675l0.0335-0.0335q0.01675-0.10052-0.0335-0.20103l-0.01675-0.01675a1.8763 1.8763 0 0 1-0.90464-0.23454l-0.26804-0.20103"
    fill="none"
    stroke="#a6755a"
    stroke-width=".033505"
  />
  <path
    d="m2.8312 6.2489q-0.11727 0.21778 0.083762 0.3518 0.11727 0.050257 0.21778-0.033505l0.13402-0.26804q0-0.13402-0.10052-0.20103-0.23454-0.067011-0.33505 0.15077"
    fill="none"
    stroke="#f6d8c6"
    stroke-width=".033505"
  />
  <path
    d="m2.1443 7.1033q0.13402 0.033505 0.25129-0.06701 0.16753-0.16753 0.23454-0.38531c0.033505-0.13402 0-0.30155-0.15077-0.33505q-0.11727-0.016752-0.20103 0.050257-0.06701 0.050257-0.11727 0.050257l-0.016752 0.016752q-0.083763 0.050257-0.067011 0.13402l-0.016752 0.050257q-0.083762 0.15077-0.083762 0.28479 0.016752 0.16753 0.16753 0.20103"
    fill="none"
    stroke="#f3d8c4"
    stroke-width=".033505"
  />
  <path
    d="m13.452 10.119a0.25129 0.33505 55 0 0-0.41881-0.01675 0.25129 0.33505 55 0 0-0.11727 0.40206 0.25129 0.33505 55 0 0 0.40206 0.01675 0.25129 0.33505 55 0 0 0.11727-0.40206"
    fill="none"
    stroke="#f6d8c6"
    stroke-width=".033505"
  />
  <path
    d="m7.4549 15.53q-0.06701-0.01675-0.13402 0.0335-0.18428 0.10052-0.36856 0.15077l-0.26804 0.067017-0.73711 0.15077-0.33505 0.067015h-0.33505a3.451 3.451 0 0 1-0.82087-0.20104l-0.3183-0.21778-0.050257-0.05025h-0.016752l-0.10052 0.05025q-0.26804 0.11727-0.56959 0.05025-0.36856-0.08377-0.78737-0.21778l-0.41881-0.16752q-0.25129-0.11727-0.50258-0.3183a0.56959 0.56959 0 0 1-0.20103-0.28479l-0.050257-0.16752-0.033505-0.016751-0.16753-0.033501c-0.25129-0.033512-0.36856-0.21779-0.48582-0.41882l-0.33505-0.56959-0.10052-0.18428-0.083763-0.20103a2.4459 2.4459 0 0 1-0.21778-0.88788l-0.016752-0.45232q0.016752-0.23454 0.11727-0.53608 0.13402-0.43557 0.40206-0.87113l0.30155-0.51933 0.30155-0.46907c0.25129-0.36856 0.40206-0.60309 0.61984-0.85438-0.21778-0.16753-0.25129-0.41881-0.28479-0.6701q-0.050258-0.3518 0.033505-0.68685c0.20103-0.75386 0.77062-1.357 1.4575-1.6753 0.6366-0.28479 1.4407-0.33505 2.0103 0.13402q0.083762 0.06701 0.11727 0.13402l0.016752 0.033505a1.6417 1.6417 0 0 1 0.40206 0.60309l0.050257 0.15077a0.016753 0.016753 0 0 0 0.033505 0l0.067011-0.28479 0.083763-0.40206q0.20103-0.50258 0.61984-0.80412l0.050257-0.033505 0.36856-0.10052 0.26804 0.016752q0.21778 0.033506 0.38531 0.16753l0.15077 0.11727q-0.13402-0.26804-0.30155-0.50258c-0.10052-0.11727-0.20103-0.25129-0.3518-0.26804h-0.033505l-0.3183 0.083763-0.33505 0.06701q-0.15077 0.033505-0.3518-0.016753-0.40206-0.11727-0.3183-0.55283l0.06701-0.33505q0.10052-0.33505 0.28479-0.61984a4.3222 4.3222 0 0 1 0.60309-0.80412q0.65335-0.6701 1.491-1.0889 0.45232-0.23454 0.92139-0.3518h0.033502c0.28479 0.10052 0.050252 0.46907-0.033502 0.61984l-0.73711 1.1894v0.016752c0.15077-0.016752 0.26804 0 0.53608 0.033505l0.26804 0.033504 0.3183 0.083762q0.15077 0.050257 0.25129 0.13402c0.18428 0.18428 0.18428 0.50258 0 0.68685l-0.28479 0.25129q-0.11727 0.083762-0.28479 0.26804l-0.41881 0.50258-0.25129 0.3518-0.016752 0.033505 0.016752 0.016752 0.28479-0.16753q0.26804-0.10052 0.51933-0.083762 0.20103 0.016752 0.38531 0.083762 0.33505 0.15077 0.50258 0.48582c0.08377 0.16753 0.13402 0.26804 0.18428 0.45232q0.05025 0.21778 0.05025 0.43557 0.0335 0.60309-0.0335 1.1894v0.016752q0.10052 0.033505 0.16752 0.10052a0.016753 0.016753 0 0 0 0.0335 0q0.16753-0.16752 0.36856-0.30154c0.05025-0.033505 0.15077-0.11727 0.21778-0.11727l0.01675-0.016752q0.0335-0.61984 0.11727-1.2062 0.16752-0.82087 0.46907-1.6082l0.40206-0.88788q0.28479-0.55283 0.58634-1.0052l0.48583-0.75386q0.26804-0.38531 0.56959-0.72036l0.58634-0.65335 0.21778-0.18428q0.06701-0.050258 0.11727-0.050258 0.15077 0 0.16752 0.16753l0.05026 0.61984q0.0335 0.26804 0.0335 0.61984 0 0.58634-0.0335 0.92139-0.01675 0.3518-0.08377 0.72036 0 0.11727-0.05025 0.21778l-0.05025 0.083763-0.28479 0.36856-0.38531 0.50258 0.01675 0.016752 0.18428-0.10052q0.16752-0.033505 0.15077 0.13402l-0.01675 0.10052-0.30154 1.1057q-0.06702 0.18428-0.18428 0.30155l-0.30155 0.3183h0.0335q0.13402-0.050257 0.16753 0.083762 0 0.16753-0.08377 0.3183l-0.3518 0.60309v0.016752l0.16753 0.06701q0.48582 0.25129 0.77062 0.73711c0.38531 0.65335 0.51933 1.4742 0.41881 2.2448q-0.06701 0.55283-0.30155 1.0219-0.10052 0.21778-0.26804 0.36856v0.0335l0.06701 0.08377 0.3183 0.41881 0.51933 0.6701q0.40206 0.46907 0.68685 0.88788l0.3183 0.41881c0.15077 0.20103-0.06702 0.21778-0.16752 0.30155q-0.16752 0.11727-0.26804 0.25129l-0.18428 0.18428q-0.067 0.05025-0.15077 0.01675h-0.55283c-0.11727 0-0.18428-0.11727-0.26804-0.20103l-0.0335-0.0335-0.11727-0.06702h-0.01675q0.0335 0.08377-0.01675 0.18428-0.10052 0.10052-0.21778 0.11727-0.53608 0.0335-1.0722-0.05025l-0.10052-0.0335-0.16752-0.10052h-0.0335l-0.08377 0.10052a0.38531 0.38531 0 0 1-0.26804 0.15077l-1.0387 0.08377q-0.28479 0.01675-0.53608 0.15077l-0.28479 0.11727-0.38531 0.10052-1.4407 0.40206-0.3183 0.06702h-0.15078l-0.06701-0.016763-0.21778-0.10052-0.20103-0.11727zm3.7693-8.8621q-0.05025 0.6701-0.01675 1.3402l0.10052 0.82087h0.01675q0.15077-0.6366 0.36856-1.357l0.23454-0.75386 0.30154-0.90464q0.33505-0.93814 0.6701-1.7758l0.30155-0.58634 0.38531-0.65335a0.016753 0.016753 0 0 1 0.0335 0l-0.016749 0.016752-0.18428 0.55283-0.13402 0.48582-0.3183 1.0052-0.16752 0.50258-0.30155 0.95489-0.10052 0.33505-0.36856 1.2564-0.20103 0.75386q-0.05025 0.11727-0.06701 0.25129v0.016751q0.18427-0.11727 0.30154-0.26804 0.28479-0.33505 0.53608-0.77062l0.82087-1.4072 0.08377-0.18428-0.01675-0.016752q-0.10052 0.050257-0.20103 0.050257c-0.11727 0.016752-0.15078-0.11727-0.08377-0.20103l0.15078-0.16752 0.30155-0.30155a0.6701 0.6701 0 0 0 0.18428-0.33505l0.25129-0.95489v-0.016752l-0.3183 0.13402-0.01675 0.016752q-0.06702 0-0.10052-0.050257c-0.05025-0.067011 0.0335-0.18428 0.08377-0.23454l0.4188-0.56959 0.3183-0.40206q0.08377-0.11727 0.08377-0.30155l0.06702-0.60309 0.0335-1.1559-0.08377-0.97165a0.01873 0.01873 0 0 0-0.0335-0.016752l-0.20104 0.18428-0.48582 0.53608q-0.28479 0.3183-0.51933 0.65335c-0.21778 0.28479-0.46907 0.68685-0.6701 1.0052a11.325 11.325 0 0 0-0.85438 1.6585q-0.23454 0.55283-0.36856 1.0219-0.16752 0.6701-0.21778 1.4072m-5.4278-2.9987-0.033505 0.10052q-0.050257 0.20103-0.050257 0.3518 0.016752 0.18428 0.20103 0.21778a0.87113 0.87113 0 0 0 0.46907-0.016752l0.41881-0.10052 0.33505-0.083762q0.26804-0.06701 0.60309-0.083762 0.06701-0.016752 0.13402 0.033505l-0.016753 0.016752-0.38531 0.13402-0.28479 0.06701v0.016753l0.083762 0.083762q0.45232 0.50258 0.60309 1.1727l0.13402-0.36855q0.15077-0.3518 0.3518-0.61984l0.3518-0.43557q0.16752-0.20103 0.38531-0.40206l0.33505-0.30155q0.10052-0.10052 0.10052-0.20103 0.016751-0.21778-0.18428-0.30155-0.16752-0.06701-0.33505-0.083762l-0.23454-0.016753-0.43557 0.033505q-0.20103 0.033505-0.38531 0.13402l-0.21778 0.10052-0.016753-0.016752a0.80412 0.80412 0 0 1 0.13402-0.30155l0.93814-1.5245q0.10052-0.13402 0.15077-0.28479a0.01873 0.01873 0 0 0-0.016751-0.033505l-0.10052 0.016752-0.75386 0.3183a5.0928 5.0928 0 0 0-1.3402 0.95489q-0.38531 0.36856-0.65335 0.80412-0.18428 0.30155-0.28479 0.61984m7.1701 0.68685-0.05025 0.083762-0.0335 0.11727-0.58634 1.5915-0.40206 1.2062q-0.16752 0.51933-0.3518 1.2564l-0.06702 0.30155-0.13402 0.6366 0.13402-0.16752v-0.016751l0.06702-0.28479 0.10052-0.40206 0.25129-0.90464 0.3518-1.1894 0.18428-0.58634 0.25129-0.82087 0.23454-0.70361zm-2.8982 2.7307 0.01675-0.48582-0.01675-0.50258q0-0.15077-0.067-0.36856-0.067019-0.21778-0.20103-0.41881l-0.033502-0.050257a1.0554 1.0554 0 0 0-0.36857-0.25129q-0.26804-0.11727-0.55283-0.050257l-0.20103 0.06701a0.6701 0.6701 0 0 0-0.30155 0.21778l-0.11727 0.16753-0.016752 0.033505q-0.083762 0.21778-0.10051 0.46907l-0.050259 0.58634q0.15077-0.43557 0.53608-0.6366c0.50258-0.23454 0.9884 0.11727 1.2229 0.53608q0.18428 0.3183 0.25129 0.68685m-2.2951-0.50258-0.016752-0.40206-0.033505-0.13402-0.050258-0.3518q-0.083763-0.20103-0.18428-0.33505l-0.23454-0.21778q-0.21778-0.11727-0.45232-0.083763a0.95489 0.95489 0 0 0-0.46907 0.16753l-0.20103 0.20103a1.3737 1.3737 0 0 0-0.28479 0.56959q-0.15077 0.58634-0.15077 1.1894v0.20103l0.016752-0.016752q0.033506-0.55283 0.3518-1.0219c0.30155-0.41881 0.83763-0.65335 1.2899-0.30155q0.23454 0.16753 0.3518 0.43557zm-6.0644 0.60309q-0.10052 0.3518-0.050257 0.70361l0.016753 0.11727q0.016752 0.18428 0.15077 0.30155h0.016752q0.23454-0.18428 0.51933-0.28479l0.30155-0.083762c0.21778-0.033505 0.50258-0.016752 0.6701 0.11727l0.15077 0.15077 0.20103 0.25129c0.06701 0.10052 0.23454 0.016752 0.3183-0.016752l0.23454-0.10052q0.16753-0.13402 0.30155-0.28479h0.016752q-0.15077 0.3518-0.48582 0.55283l-0.20103 0.083762q-0.15077 0.033502-0.25129-0.050252h-0.016752l-0.20103 0.45232-0.050257 0.083766a0.016753 0.016753 0 0 0 0 0.033502q0.25129 0.16752 0.51933 0.20103h0.11727l0.30155-0.033502 0.18428-0.050252q0.10052-0.083766 0.18428-0.20103l0.033504-0.11728 0.25129-0.53608 0.21778-0.28479 0.28479-0.33505q0.033505-0.033505 0.033505-0.083762l0.016752-0.3518c-0.033505-0.3183-0.033505-0.50258-0.10052-0.73711q-0.033505-0.26804-0.13402-0.45232-0.083763-0.16753-0.25129-0.33505a1.3234 1.3234 0 0 0-0.95489-0.40206q-0.28479-0.016752-0.50258 0.033505-0.40206 0.083762-0.80412 0.26804-0.23454 0.10052-0.40206 0.26804a1.9098 1.9098 0 0 0-0.48582 0.60309q-0.10052 0.25129-0.15077 0.53608m7.4381 1.4742 0.016751 0.033501h0.016751c0.30154-0.083766 0.53608-0.3518 0.65335-0.6366l0.050252-0.20103v-0.016749a1.2564 1.2564 0 0 0-0.43556-0.43557l-0.15077-0.06701q-0.11727-0.26804-0.41881-0.3183c-0.33505 0-0.50258 0.36856-0.53608 0.6366-0.050257 0.33505 0.050257 0.78737 0.3518 0.97165q0.21778 0.15077 0.45232 0.033502m-2.6637-1.357q-0.30155 0.050258-0.58634 0.13402v0.016752a1.6753 1.6753 0 0 0 0.13402 0.78737 0.60309 0.60309 0 0 0 0.21778 0.25129q0.15077 0.10052 0.30155 0.083762 0.16753 0.15077 0.36856 0.10051 0.23454-0.067003 0.36856-0.28479 0.18428-0.33505 0.11727-0.75386c-0.050258-0.21778-0.16753-0.43556-0.3518-0.51933q-0.23454-0.11727-0.45232 0.033505zm3.3673 1.424-0.067015 0.25129q-0.083766 0.3518-0.067015 0.72036l0.050252 0.38531a2.1443 2.1443 0 0 0 0.43556 0.97165l0.18428 0.20103q-0.11727-0.3183-0.15077-0.68685l0.0335-0.3518 0.06702-0.26804q0.10052-0.33505 0.46907-0.3183l0.33505-0.016751v-0.016751l0.0335-0.15077q0.0335-0.18428 0.01675-0.26804l-0.13402-1.0052-0.016751-0.11727v-0.11727l-0.01675-0.68685h-0.01675l-0.05025 0.033505q-0.28479 0.16752-0.48582 0.36855-0.21778 0.23454-0.36856 0.48582-0.16753 0.26804-0.25129 0.58634m2.7977-0.60309-0.3183 0.48582 0.23454-0.11727v0.016752q-0.15077 0.20103-0.36856 0.3518l-0.11727 0.067015q-0.16753 0.083766-0.3183 0.21778v0.016751l0.15077 0.45232 0.01675 0.067015-0.05025 0.067015-0.18428 0.016751h-0.18428l-0.6366 0.033501c-0.11727 0-0.26804 0-0.33505 0.13402a1.4072 1.4072 0 0 0-0.11727 0.6701q0.0335 0.65335 0.50258 1.1057 0.23454 0.21778 0.50258 0.3183 0.16752 0.067 0.40206 0.10052 0.21778 0.0335 0.41881 0.01675 0.36856-0.05025 0.77062-0.20103c0.40206-0.18428 0.82087-0.36856 1.0387-0.72036q0.13402-0.23454 0.21778-0.51933l0.06701-0.30155 0.06701-0.50257q0.0335-0.15077 0.0335-0.33505 0-0.25129-0.08377-0.53608l-0.16751-0.50258q-0.10051-0.28479-0.30154-0.6366l-0.11727-0.15077-0.25129-0.25129q-0.13402-0.11727-0.28479-0.16753l-0.10052-0.016752h-0.01675zm-6.2152 0.65335-0.3183-0.16752-0.21778-0.20103q-0.13402-0.18428-0.20103-0.36856h-0.016752q-0.20103 0.083762-0.38531 0.23454l-0.13402 0.16753q-0.18428 0.30155-0.30155 0.56959l-0.10052 0.3518-0.033505 0.21778q-0.050257 0.45232 0.050257 0.85438l0.15077 0.38531 0.050257 0.11727 0.18428 0.40206q0.11727 0.20103 0.28479 0.38531l0.050257 0.05025a2.6301 2.6301 0 0 0 0.85438 0.45232 4.3389 4.3389 0 0 0 1.692 0.16752q0.60309-0.05025 1.1224-0.25129l0.38531-0.16753 0.15077-0.10052q0.25129-0.15077 0.43557-0.3518l0.11727-0.13402v-0.01675a2.7474 2.7474 0 0 1-0.40206-0.55283q-0.23454-0.38531-0.28479-0.90464-0.033501-0.43557 0-0.77062 0.050252-0.30154 0.15077-0.58634-0.16752 0.20103-0.41881 0.30155-0.28479 0.067015-0.55283-0.033502l-0.13402-0.050252h-0.016752q-0.016752 0.18428-0.13402 0.3183a0.6366 0.6366 0 0 1-0.55283 0.25128q-0.3518-0.016752-0.56959-0.3183l-0.033505-0.016751h-0.10052l-0.033505-0.067015c0.016752-0.067015 0.11727-0.083766 0.16753-0.083766l0.11727-0.016751 0.51933-0.13402 0.3518-0.11727 0.016752-0.016752q-0.083761-0.083757-0.13402-0.18427-0.11727-0.21778-0.16753-0.38531l-0.11727-0.56959v-0.016753l-0.016753-0.016752-0.033505 0.06701q-0.033505 0.3183-0.15077 0.6366c-0.13402 0.3518-0.40206 0.65335-0.80412 0.68685l-0.25129 0.016751zm-4.2049-0.53608-0.10052 0.06701q-0.050257 0.016752-0.10052 0.083762l-0.11727 0.11727-0.3183 0.40206-0.050257 0.067015q-0.45232 0.6366-0.85438 1.3234 0.16753-0.11727 0.40206-0.11727 0.48582-0.0335 0.83763 0.3183 0.21778 0.20103 0.25129 0.50258v0.11727h0.016752l0.033505-0.06701v-0.01675l0.16753-0.30155q0.3518-0.61984 0.6366-1.2564l0.18428-0.40206 0.16753-0.36856q0.083763-0.13402 0.083763-0.26804l-0.016752-0.016752q-0.15077-0.23454-0.40206-0.3183-0.21778-0.050257-0.41881 0zm6.1984 0.46907-0.50258 0.16753-0.41881 0.10052q0.15077 0.21778 0.40206 0.23454 0.21778 0 0.36856-0.13402 0.16753-0.13402 0.16753-0.3518zm-5.4278 1.2397q-0.36856 0.73711-0.78737 1.4575-0.13402 0.28479-0.3183 0.50258a0.50258 0.50258 0 0 1-0.33505 0.18428h-0.13402q-0.16753-0.05026-0.3183-0.18428l-0.28479-0.26804v-0.01675q-0.033505-0.06701 0.016752-0.13402l0.083762-0.0335q0.45232-0.11727 0.68685-0.50258 0.050257-0.08377 0.083762-0.23454v-0.16753l-0.016752-0.0335q-0.25129-0.16753-0.55283-0.16753-0.18428 0.016751-0.3518 0.11727l-0.083762 0.06701q-0.13402 0.13402-0.25129 0.31829-0.13402 0.26804-0.20103 0.48582l-0.050257 0.21778-0.033505 0.25129 0.033505 0.45232q0.016752 0.21778 0.11727 0.48582 0.11727 0.33505 0.3183 0.65335l0.06701 0.13402 0.28479 0.46907q0.06701 0.11727 0.13402 0.15077 0.11727 0.08377 0.26804 0.10052l0.083763 0.01675q0.11727 0.01675 0.13402 0.11727l0.050257 0.18428q0.06701 0.11727 0.18428 0.21778 0.20103 0.16752 0.43557 0.26804l0.25129 0.10052 0.53608 0.16753 0.43557 0.11727q0.21778 0.0335 0.41881-0.05025c0.083762-0.05025 0.18428-0.11727 0.28479-0.0335l0.20103 0.16752a1.2397 1.2397 0 0 0 0.43557 0.16752l0.21778 0.05025c0.25129 0.05026 0.41881 0.08377 0.6366 0.05026l0.55283-0.13402 0.23454-0.050252q0.3518-0.050252 0.60309-0.15077l0.28479-0.13402a0.58634 0.58634 0 0 1 0.38531 0.10052q0.13402 0.10052 0.30155 0.16753l0.033505 0.01675h0.23454l0.21778-0.05025q0.77062-0.23454 1.7925-0.50258l0.45232-0.18428 0.13402-0.05025 0.41881-0.05025 0.83763-0.08377q0.10052 0 0.18428-0.06701l0.15077-0.16752c0.13402-0.11727 0.25129 0.08377 0.36856 0.11727q0.33505 0.067 0.72036 0.067l0.0335-0.01675 0.10052-0.0335 0.26804-0.05025 0.01675 0.01675v-0.01675h-0.01675l0.01675-0.01675 0.01675-0.18428q0.01675-0.08377 0.06702-0.10052 0.05025-0.01675 0.13402 0.01675l0.20103 0.16753h0.01675l0.23454 0.11727q0.13402 0.06701 0.21778 0.06701l0.26804 0.01675 0.08377-0.0335q0.01675 0.0335 0.01675 0 0.10052-0.10052 0.13402-0.21778 0.10052-0.13402 0.25129-0.18428 0.0335-0.01675 0.01675-0.05026l-0.05025-0.13402q-0.10052-0.21779-0.23454-0.38532l-0.36856-0.48582-0.33505-0.43557-0.58634-0.70361-0.0335-0.05025-0.15077-0.26804h-0.01675l-0.06702 0.05025-0.08377 0.06701q-0.21778 0.13402-0.45232 0.23454l-0.28479 0.11727q-0.36856 0.15077-0.72036 0.18428l-0.01675 0.01675c0.05025 0.15077 0.06702 0.3183-0.08377 0.41881q-0.21778 0.08377-0.40206-0.05025l-0.3518-0.21778-0.30155-0.13402-0.36856-0.15077h-0.01675l-0.01675 0.05025-0.18428 0.43557-0.067 0.16752q-0.05025 0.10052-0.15077 0.06701l-0.01675-0.01675-0.01675-0.08377 0.08377-0.56958 0.01675-0.16753q-0.10052-0.05025-0.20103-0.0335-0.26804 0.01675-0.51933 0.08377l-0.067015 0.01675-0.050252 0.01675c-0.72036 0.3518-1.558 0.46907-2.3621 0.40206a3.7693 3.7693 0 0 1-1.3235-0.35184l-0.15077-0.05026-0.06701-0.01675-0.20103-0.08376-0.3183-0.08376h-0.18429l-0.56959 0.05025q-0.13402 0.01675-0.28479 0.08377-0.3183 0.06702-0.58634 0.20103l-0.3183 0.13402q-0.11727 0.05025-0.23454 0.01675c-0.18428-0.050257-0.20103-0.25129-0.13402-0.40206l0.16753-0.33505 0.21778-0.28479v-0.01675c-0.20103 0.067007-0.33505-0.11727-0.30155-0.30155l0.06701-0.16752a2.2448 2.2448 0 0 1 0.41881-0.51933q-0.083763 0-0.13402-0.08377c-0.06701-0.11727 0.016752-0.26804 0.06701-0.36856q0.16752-0.26803 0.43557-0.43556v-0.016751q-0.26804-0.067015-0.46907-0.20103h-0.016752zm8.6108-0.36856h0.05025l-0.0335-0.083766h-0.01675zm-7.6224 0.45232q0.23454-0.083767 0.45232-0.067016l0.10052 0.033502h0.016752q-0.016752-0.23454 0.016752-0.46907h-0.016752l-0.06701-0.016751-0.26804 0.033502q-0.20103 0.050252-0.38531 0.16752-0.30155 0.20103-0.43557 0.53608v0.01675h0.050257q0.083763-0.0335 0.16753-0.01675l0.016752-0.01675 0.16753-0.11727zm0.20103 0.68685 0.13402-0.0335 0.13402-0.01675 0.16753 0.0335-0.067011-0.45232-0.016752-0.05025-0.050257-0.0335q-0.3518-0.067019-0.65335 0.15076-0.25129 0.16752-0.50258 0.45232c-0.050257 0.05025-0.43557 0.50258-0.18428 0.50258l0.18428-0.06702 0.16753-0.06701 0.050257-0.01675a2.2448 2.2448 0 0 1 0.53608-0.36856zm-2.3286-0.0335q0 0.21778-0.11727 0.40206-0.21778 0.33505-0.58634 0.48582l-0.10052 0.0335v0.01675q0.10052 0.11727 0.23454 0.20103 0.13402 0.08377 0.21778 0.10052 0.25129-0.01675 0.36856-0.28479h0.016752l0.016752-0.08377v-0.0335a0.80412 0.80412 0 0 0 0.033505-0.72036zm2.0438 0.38531q-0.25129 0.16752-0.48582 0.41881-0.26804 0.28479-0.40206 0.56959-0.06701 0.08377-0.06701 0.20103c0.016752 0.08377 0.11727 0.067 0.16753 0.0335l0.53608-0.21778 0.20103-0.06702 0.11727-0.0335 0.06701-0.0335 0.33505-0.08377 0.51933-0.05025 0.13402-0.01675 0.050257-0.05026-0.016752-0.13402-0.10051-0.30155-0.083762-0.20103q-0.016754-0.08376-0.083764-0.15077l-0.11727-0.067-0.11727-0.0335q-0.23454-0.01675-0.46907 0.10052zm6.4665 0.45232-0.05025 0.16752 0.0335 0.08377 0.06701 0.08377a0.016753 0.016753 0 0 0 0.0335 0l0.0335-0.21778v-0.0335l-0.10052-0.08377zm0.16752 0.77062 0.20103-0.50258a0.016753 0.016753 0 0 0 0-0.0335l-0.08377-0.0335-0.01675 0.01675zm0.3518-0.38531-0.05025 0.11727 0.01675 0.01675 0.45232 0.18428 0.16752 0.08377 0.3183 0.18428 0.15077 0.08377q0.08377 0.05025 0.15077 0.01675l0.0335-0.0335q0.01675-0.11727-0.0335-0.20103l-0.01675-0.01675a1.8763 1.8763 0 0 1-0.90464-0.23454z"
    fill="#574344"
    stroke-width=".016752"
  />
  <path
    d="m13.352 5.9642q-0.43556 0.15077-0.85438 0.3518l0.30154-0.95489 0.16752-0.51933 0.3183-0.9884 0.13402-0.48582 0.18428-0.55283v-0.016752h-0.01675l-0.38531 0.65335-0.30155 0.58634q-0.33505 0.83763-0.6701 1.7758l-0.30154 0.90464-0.70361-0.050257q0.05025-0.73711 0.21778-1.4072 0.13402-0.46907 0.3518-1.0219a11.325 11.325 0 0 1 0.87113-1.6585c0.20103-0.33505 0.45232-0.72036 0.6701-1.0219l0.51933-0.65335 0.48582-0.51933 0.20103-0.18428a0.01873 0.01873 0 0 1 0.0335 0.016752l0.08377 0.97165-0.0335 1.1559-0.06701 0.61984q0 0.16753-0.08377 0.28479l-0.31829 0.40206-0.41881 0.56959c-0.05025 0.050257-0.13402 0.16753-0.08377 0.23454q0.0335 0.050257 0.10052 0.050257h0.01675l0.3183-0.13402-0.26804 0.97165q-0.0335 0.18428-0.16752 0.3183z"
    fill="#7cc4ff"
    stroke-width=".016752"
  />
  <path
    d="m8.7783 2.8649a3.518 3.518 0 0 1-0.90464 0.65335q-0.36856 0.16753-0.75386 0.25129-0.33505 0.06701-0.68685 0l-0.6366-0.10052q0.10052-0.3183 0.28479-0.61984 0.26804-0.43557 0.65335-0.80412a5.0928 5.0928 0 0 1 1.3402-0.95489l0.75386-0.30155q0.050252-0.033505 0.10052-0.016753v0.016753q-0.033506 0.15077-0.13402 0.30155l-0.93814 1.5077q-0.10052 0.15077-0.13402 0.30155l0.016752 0.016752 0.21778-0.10052q0.18428-0.10051 0.38531-0.13402z"
    fill="#fce969"
    stroke-width=".016752"
  />
  <path
    d="m9.0129 2.8649-0.56959 0.45232q-0.55283 0.45232-1.2564 0.58634-0.36856 0.06701-0.73711 0l-0.68685-0.13402 0.033505-0.10052 0.6366 0.10052q0.3518 0.06701 0.68685-0.016752 0.38531-0.06701 0.75386-0.23454a3.518 3.518 0 0 0 0.90464-0.6701z"
    fill="#f9cf6c"
    stroke-width=".016752"
  />
  <path
    d="m5.7629 3.7696 0.68685 0.13402q0.36856 0.06701 0.73711 0 0.70361-0.13402 1.2564-0.58634l0.56959-0.45232q0.16753 0.016753 0.33505 0.083762 0.20103 0.083763 0.18428 0.30155 0 0.11727-0.10052 0.20103l-0.3518 0.30155-0.38531 0.40206-0.33505 0.43557q-0.20103 0.26804-0.3518 0.6366l-0.13402 0.3518q-0.15077-0.6701-0.60309-1.1727l-0.083762-0.083762v-0.016753l0.28479-0.06701 0.38531-0.13402 0.016752-0.016752q-0.06701-0.050258-0.15077-0.033505-0.3183 0.016753-0.58634 0.083763l-0.33505 0.083763-0.41881 0.10052a0.87113 0.87113 0 0 1-0.46907 0.016752q-0.18428-0.033505-0.20103-0.21778 0-0.15077 0.050257-0.3518"
    fill="#f6b96e"
    stroke-width=".016752"
  />
  <path
    d="m12.966 4.3559-0.050252 0.11727-0.23454 0.70361-0.25129 0.82087-0.18428 0.58634-0.3518 1.1894-0.25129 0.90464-0.10052 0.40206-0.067016 0.28479v0.016751l-0.13402 0.16752 0.13402-0.6366 0.06702-0.30155q0.18428-0.73711 0.3518-1.2564l0.40206-1.1894 0.58634-1.6082 0.0335-0.11727z"
    fill="#f8f1f1"
    stroke-width=".016752"
  />
  <path
    d="m10.068 7.0866q-0.06701-0.36856-0.25129-0.68685c-0.23454-0.41881-0.72036-0.77062-1.2229-0.53608q-0.38531 0.20103-0.53608 0.6366l0.050257-0.58634q0.016752-0.25129 0.10051-0.46907l0.016752-0.033505 0.11727-0.16753a0.6701 0.6701 0 0 1 0.30155-0.21778l0.20103-0.067011q0.28479-0.06701 0.55283 0.033505a1.0554 1.0554 0 0 1 0.36856 0.26804l0.033501 0.050257q0.13402 0.20103 0.20103 0.41881 0.067 0.21778 0.067 0.36856l0.01675 0.50258zm-2.3118-0.50258-0.050258-0.10052q-0.11727-0.26804-0.3518-0.43557c-0.45232-0.3518-0.9884-0.11727-1.2899 0.30155a2.0103 2.0103 0 0 0-0.3518 1.0219h-0.016753v-0.18428q0.016753-0.60309 0.15077-1.1894a1.3737 1.3737 0 0 1 0.28479-0.56959l0.20103-0.20103c0.11727-0.083762 0.3183-0.16753 0.46907-0.16753q0.23454-0.033505 0.45232 0.083762l0.23454 0.21778q0.10051 0.13402 0.18428 0.33505l0.050257 0.3518 0.033505 0.13402z"
    fill="#f2f1ee"
    stroke-width=".016752"
  />
  <path
    d="m5.009 5.8971-0.033505 0.10052q-0.016752 0.26804-0.10051 0.51933-0.15077 0.51933-0.46907 1.0052l-0.11727 0.15077q-0.23454 0.21778-0.50258 0.38531l-0.30155 0.15077-0.15077-0.15077c-0.18428-0.13402-0.45232-0.15077-0.6701-0.11727l-0.30155 0.06701q-0.25129-0.21778-0.45232-0.50258l-0.21778-0.3183q0.06701-0.26804 0.16753-0.51933a1.9098 1.9098 0 0 1 0.48582-0.61984q0.16753-0.15077 0.40206-0.26804 0.40206-0.16753 0.80412-0.25129 0.21778-0.050258 0.50258-0.033505 0.56959 0 0.95489 0.40206m-2.1778 0.3518q-0.11727 0.21778 0.083762 0.3518 0.11727 0.050257 0.21778-0.033505l0.13402-0.26804q0-0.13402-0.10052-0.20103-0.23453-0.083763-0.33505 0.15077m-0.68685 0.85438q0.13402 0.033505 0.25129-0.083763 0.16753-0.15077 0.23454-0.36856c0.033505-0.13402 0-0.30155-0.15077-0.33505q-0.11727-0.016752-0.20103 0.050257l-0.11727 0.050257-0.016752 0.016752q-0.083763 0.050257-0.067011 0.13402l-0.016752 0.033505q-0.083762 0.15077-0.083762 0.30155 0.016752 0.16753 0.16753 0.20103"
    fill="#f4be9a"
    stroke-width=".016752"
  />
  <path
    d="m5.009 5.8971q0.16753 0.16753 0.25129 0.3183 0.10052 0.20103 0.13402 0.46907l-0.016753 0.30155-0.050258 0.30155q-0.13402 0.55283-0.33505 1.0889l-0.050257 0.10051q-0.15077 0.25129-0.25129 0.53608l-0.16753 0.18428q-0.06701 0.083766-0.16753 0.11727l-0.30155 0.050252-0.20103 0.016751q-0.083762 0-0.18428-0.067015-0.16753-0.083766-0.28479-0.21778l0.21778-0.45232h0.016752q0.10052 0.067015 0.25129 0.033502l0.20103-0.066994q0.33505-0.20103 0.48582-0.55283h-0.016752l-0.30155 0.28479-0.23454 0.10052c-0.083762 0.033505-0.25129 0.11727-0.3183 0.016752l-0.20103-0.25129 0.30155-0.15077q0.26804-0.16753 0.50258-0.38531l0.11727-0.15077q0.3183-0.48582 0.46907-1.0052 0.083763-0.25129 0.10052-0.51933z"
    fill="#f08774"
    stroke-width=".016752"
  />
  <path
    d="m13.352 5.9642-0.15077 0.16753c-0.06702 0.083762-0.0335 0.21778 0.08377 0.20103q0.10052 0 0.20103-0.050257l0.01675 0.016752-0.08377 0.18428-0.82087 1.4072a6.0309 6.0309 0 0 1-0.51933 0.77062q-0.13402 0.16752-0.3183 0.26804v-0.016751l0.067015-0.25129 0.20103-0.75386 0.36856-1.2564 0.10052-0.33505q0.41881-0.20103 0.85437-0.3518"
    fill="#8099ff"
    stroke-width=".016752"
  />
  <path
    d="m3.1997 6.4332-0.06701 0.13402q-0.11727 0.083762-0.21778 0.033505-0.20103-0.13402-0.083762-0.3518c0.11727-0.21778 0.18428-0.21778 0.33505-0.15077q0.10052 0.067011 0.10052 0.20103z"
    fill="#f8f1f1"
    stroke-width=".016752"
  />
  <path
    d="m2.3956 7.0363q-0.11727 0.10052-0.25129 0.06701-0.15077-0.033505-0.16753-0.20103 0-0.13402 0.083762-0.30155v-0.033505q0-0.083763 0.083762-0.13402l0.016752-0.016752q0.050257 0 0.10052-0.050257 0.10052-0.083762 0.21778-0.050257c0.15077 0.033503 0.18428 0.20103 0.15077 0.33505q-0.06701 0.21778-0.25129 0.38531"
    fill="#f2f1ee"
    stroke-width=".016752"
  />
  <path
    d="m11.928 6.718-0.23454 0.75386q-0.21778 0.72036-0.36856 1.357h-0.01675l-0.10052-0.82087q-0.0335-0.6701 0.01675-1.3402z"
    fill="#8099ff"
    stroke-width=".016752"
  />
  <path
    d="m4.942 8.477 0.050257-0.10051q0.20103-0.53608 0.33505-1.0889l0.050257-0.30155 0.016753-0.30155c0.06701 0.23454 0.06701 0.40206 0.10052 0.72036l-0.016752 0.36856-0.033505 0.083762-0.28479 0.33505z"
    fill="#b5655b"
    stroke-width=".016752"
  />
  <path
    d="m9.3144 7.3546a1.3402 1.3402 0 0 1 0 1.1224q-0.050252 0.13402-0.16752 0.18428-0.23454 0.13402-0.45232-0.016751c-0.30154-0.20103-0.40206-0.6366-0.3518-0.97165 0.033505-0.26804 0.20103-0.6366 0.53608-0.6366q0.30155 0.050257 0.43557 0.3183m-2.7642 1.2397c-0.30155-0.33505-0.30155-0.90464-0.06701-1.2732l0.11727-0.15077q0.21778-0.15077 0.45232-0.050258 0.26804 0.18428 0.3518 0.53608 0.06701 0.40206-0.11727 0.75386a0.56959 0.56959 0 0 1-0.36856 0.28479q-0.20103 0.050252-0.36856-0.10051"
    fill="#f8f1f1"
    stroke-width=".016752"
  />
  <path
    d="m2.3621 8.0247q-0.28479 0.10052-0.51933 0.28479h-0.016752q-0.13402-0.11727-0.15077-0.30155l-0.016753-0.11727q-0.050257-0.3518 0.033506-0.70361l0.21778 0.3183q0.20103 0.28479 0.45232 0.50258"
    fill="#f7ca8c"
    stroke-width=".016752"
  />
  <path
    d="m11.04 8.075-0.10051-0.38531v-0.016752q-0.48582 0.28479-0.82087 0.70361l-0.26804 0.36856q0.083766-0.3183 0.25129-0.58634 0.15077-0.25129 0.38531-0.48582 0.18428-0.20103 0.46907-0.36856l0.05025-0.033505h0.01675l0.01675 0.68685z"
    fill="#b5655b"
    stroke-width=".016752"
  />
  <path
    d="m6.4832 7.3211c-0.23454 0.36856-0.23454 0.93814 0.06701 1.2732q-0.15077 0.016753-0.30155-0.083763-0.15077-0.083762-0.21778-0.25129a1.6753 1.6753 0 0 1-0.13402-0.78737v-0.016753q0.28479-0.083763 0.58634-0.13402"
    fill="#704e4b"
    stroke-width=".016752"
  />
  <path
    d="m13.234 7.3379-0.050253 0.10052-0.23454 0.36856q-0.11727 0.18428-0.30155 0.33505l0.46907-0.82087h0.01675z"
    fill="#b5655b"
    stroke-width=".016752"
  />
  <path
    d="m9.1469 8.6781q0.11727-0.06701 0.16752-0.20103c0.16752-0.3518 0.16752-0.78737 0-1.1224l0.13402 0.06701a1.2564 1.2564 0 0 1 0.43557 0.43557v0.016752l-0.050252 0.20103c-0.11727 0.28479-0.3518 0.55283-0.65335 0.6366l-0.016751-0.016751z"
    fill="#704e4b"
    stroke-width=".016752"
  />
  <path
    d="m14.441 9.5827-0.16753-0.15077-0.33505-0.33505a1.1224 1.1224 0 0 0-1.0387-0.3183l-0.7036 0.10052q0.21778-0.15077 0.36856-0.3518v-0.016752l-0.23454 0.11727 0.3183-0.48582q0.18428-0.15077 0.30155-0.33505 0.11727-0.18428 0.23454-0.36856l0.05025-0.10052q0.15077 0.050257 0.28479 0.16753l0.25129 0.25129 0.11727 0.15077q0.20103 0.3518 0.30154 0.6366l0.16753 0.50258q0.08377 0.28479 0.08377 0.53608"
    fill="#f08774"
    stroke-width=".016752"
  />
  <path
    d="m9.2977 8.8791q0.10052 0.18428 0.26804 0.30155-0.033502 0.33505 0 0.75386 0.050252 0.51933 0.28479 0.90464 0.16752 0.30155 0.40206 0.55283v0.01675q-0.06702 0.05026-0.11727 0.15077-0.18428 0.20103-0.43557 0.33505l-0.15077 0.10052-0.38531 0.16753q-0.51933 0.20103-1.1224 0.25129a4.3389 4.3389 0 0 1-1.692-0.16752l-0.40206-0.41881q-0.25129-0.3183-0.46907-0.73711-0.25129-0.45232-0.45232-0.93814-0.10052-0.28479-0.30155-0.55283l0.033505-0.21778q0.28479 0.18428 0.60309 0.20103 0.41881 0 0.73711-0.23454 0.28479-0.21778 0.33505-0.55283l0.23454 0.033501 0.25129-0.016751c0.40206-0.033501 0.6701-0.33505 0.80412-0.68685q0.11727-0.3183 0.15077-0.6366l0.033505-0.06701 0.016752 0.016752v0.016752l0.11727 0.56959q0.050257 0.16753 0.16753 0.38531 0.050257 0.10052 0.13402 0.18428l-0.016752 0.016752-0.3518 0.11727-0.51933 0.13402-0.11727 0.016751c-0.050257 0-0.15077 0.016751-0.16753 0.083766l0.033505 0.067015h0.10052l0.033505 0.016751q0.21778 0.30155 0.56959 0.3183 0.3518 0.016751 0.55283-0.25129 0.11727-0.13402 0.11727-0.3183a0.016753 0.016753 0 0 1 0.033505 0l0.13402 0.050252q0.26804 0.10052 0.55283 0.033501"
    fill="#f4be9a"
    stroke-width=".016752"
  />
  <path
    d="m11.04 8.075 0.01675 0.11727 0.13402 1.0052q0.01675 0.083766-0.01675 0.26804l-0.0335 0.15077v0.016751l-0.33505 0.016751q-0.3518-0.016751-0.46907 0.3183l-0.06702 0.26804-0.0335 0.3518q-0.05025 0.23454-0.0335 0.46907a2.1443 2.1443 0 0 1-0.43557-0.95489l-0.050252-0.38531q-0.016751-0.36856 0.067015-0.73711l0.067016-0.23454 0.13402-0.18428 0.13402-0.18428q0.33505-0.41881 0.82087-0.70361l0.01675 0.016752q0.01675 0.20103 0.08377 0.38531m-4.607 0.72036q-0.050257 0.33505-0.33505 0.55283-0.3183 0.25129-0.73711 0.23454-0.33505-0.016751-0.60309-0.20103l0.10052-0.3518q0.11727-0.26804 0.30155-0.56959l0.13402-0.16753a1.3737 1.3737 0 0 1 0.38531-0.23454h0.016752q0.067011 0.20103 0.20103 0.36856l0.21778 0.20103z"
    fill="#f08774"
    stroke-width=".016752"
  />
  <path
    d="m3.0322 9.4989q-0.20103-0.20103-0.33505-0.43557-0.25129-0.38531-0.46907-0.80412l0.40206-0.13402q0.20103-0.050257 0.41881 0 0.25129 0.083762 0.40206 0.3183l0.016752 0.016752q0 0.13402-0.083763 0.26804l-0.16752 0.36856z"
    fill="#efd9b0"
    stroke-width=".016752"
  />
  <path
    d="m2.2281 8.2592q0.21778 0.41881 0.46907 0.80412 0.13402 0.23454 0.33505 0.43557-0.28479 0.6366-0.6366 1.2564l-0.083763-0.16752v-0.01675l-0.10051-0.15078-0.3183-0.43557q-0.26804-0.3518-0.30155-0.78737v-0.26804l0.3183-0.40206 0.11727-0.11727q0.050257-0.06701 0.10052-0.083762z"
    fill="#e0c197"
    stroke-width=".016752"
  />
  <path
    d="m9.5657 9.1806q-0.16753-0.11727-0.26804-0.30155 0.25129-0.10052 0.41881-0.30155-0.10052 0.28479-0.15077 0.60309"
    fill="#f08774"
    stroke-width=".016752"
  />
  <path
    d="m14.441 9.5827q0 0.18428-0.0335 0.33505l-0.06701 0.50258c-0.15077 0-0.3183 0-0.43557-0.13402l-0.20103-0.23454q-0.23454-0.21778-0.55284-0.33505c-0.30155-0.10052-0.53608-0.033501-0.88788 0.033502l-0.38531 0.033501 0.05025-0.067015-0.01675-0.083766-0.15077-0.45232v-0.016751l0.3183-0.21778 0.11727-0.067015 0.7036-0.10052q0.58634-0.10052 1.0387 0.3183l0.33505 0.33505z"
    fill="#f2a588"
    stroke-width=".016752"
  />
  <path
    d="m8.4265 8.7283 0.016752 0.016751q0 0.21778-0.16753 0.3518-0.15077 0.13402-0.36856 0.13402-0.25129-0.016751-0.40206-0.23454l0.41881-0.10052z"
    fill="#f8f1f1"
    stroke-width=".016752"
  />
  <path
    d="m1.5915 8.9293 0.016752 0.26804q0.016752 0.43557 0.28479 0.78737l0.3183 0.43557 0.10052 0.15077v0.01675l0.083763 0.16752-0.16753 0.30155v0.01675l-0.033506 0.067016h-0.016752v-0.11727q-0.016752-0.30155-0.25129-0.50258-0.3518-0.3518-0.83763-0.3183-0.23454 0-0.38531 0.11727h-0.016752q0.40206-0.68685 0.85438-1.3235z"
    fill="#cfa67b"
    stroke-width=".016752"
  />
  <path
    d="m4.6907 9.0131-0.033505 0.11727q-0.083762 0.11727-0.18428 0.20103l-0.18428 0.050252-0.30155 0.016751h-0.11727a1.0889 1.0889 0 0 1-0.51933-0.18428 0.016753 0.016753 0 0 1 0-0.033502l0.050257-0.083766q0.10052 0.13402 0.28479 0.23454l0.16753 0.050252 0.20103-0.016751 0.30155-0.050252q0.10052-0.033502 0.16753-0.11727z"
    fill="#b5655b"
    stroke-width=".016752"
  />
  <path
    d="m3.317 10.035-0.3183-0.067016 0.26804-0.60309h0.016752a1.3737 1.3737 0 0 0 0.46907 0.20103v0.016751q-0.26804 0.16753-0.43557 0.45232"
    fill="#c49468"
    stroke-width=".016752"
  />
  <path
    d="m11.609 9.5994 0.01675-0.083766h0.016751l0.0335 0.083766zm-7.1198-0.050252-0.083762 0.15077-0.41881 0.3518-0.18428 0.08377-0.16753 0.11727-0.016752 0.01675q-0.083762-0.01675-0.16753 0.01675h-0.050257v-0.01675q0.13402-0.33505 0.41881-0.53608 0.20103-0.11727 0.38531-0.16752z"
    fill="#f08774"
    stroke-width=".016752"
  />
  <path
    d="m3.9871 10.052 0.41881-0.3518 0.083762-0.15077h0.06701l0.016752 0.016751q-0.033505 0.23454-0.016752 0.45232h-0.016753l-0.10052-0.033503q-0.21778-0.016751-0.45232 0.067016"
    fill="#b5655b"
    stroke-width=".016752"
  />
  <path
    d="m14.34 10.42-0.06701 0.30154q-0.28479 0.01675-0.50258 0.18428l-0.33505 0.26804c0.01675-0.26804-0.3183-0.3518-0.53608-0.30155-0.21778 0.06702-0.43557 0.23454-0.51933 0.45232q-0.05025 0.15077 0.01675 0.30155l-0.38531-0.15077-0.36856-0.18428c-0.41881-0.20103-0.56958 0.11727-0.72036 0.43556a1.6082 1.6082 0 0 1-0.50258-1.1057c0-0.20103 0.01675-0.48582 0.11727-0.6701q0.13402-0.15077 0.33505-0.13402 0.33505 0 0.6366-0.033501h0.36856l0.38531-0.033502c0.33505-0.067003 0.58634-0.13402 0.88788-0.033501q0.3183 0.11727 0.55283 0.33505l0.20103 0.23454c0.11727 0.13402 0.28479 0.13402 0.43557 0.13402m-0.90464-0.30154a0.25129 0.33505 55 0 0-0.40206-0.01675 0.25129 0.33505 55 0 0-0.11727 0.40206 0.25129 0.33505 55 0 0 0.40206 0.01675 0.25129 0.33505 55 0 0 0.11727-0.40206"
    fill="#f4be9a"
    stroke-width=".016752"
  />
  <path
    d="m6.3492 12.246a2.6301 2.6301 0 0 1-0.85438-0.45232l-0.050258-0.050258q-0.16753-0.18428-0.28479-0.38531l-0.16753-0.40206-0.06701-0.11727-0.15077-0.38531q-0.10052-0.40206-0.050257-0.85438 0.20103 0.26804 0.30155 0.55283 0.20103 0.48582 0.45232 0.93814 0.21778 0.41881 0.46907 0.73711z"
    fill="#f2a588"
    stroke-width=".016752"
  />
  <path
    d="m3.317 10.035c-0.050257 0.10052-0.13402 0.25129-0.06701 0.3518q0.050257 0.08377 0.13402 0.08377a2.2448 2.2448 0 0 0-0.41881 0.53608l-0.06701 0.15077c-0.033505 0.18428 0.10052 0.36856 0.30155 0.3183l-0.21778 0.30154q-0.46907-0.01675-0.82087 0.28479c-0.28479 0.23454-0.3518 0.58634-0.3518 0.93814 0.033505 0.65335 0.3183 1.3402 0.92139 1.6417q0.38531 0.18428 0.80412 0.26804 0.80412 0.21778 1.5747 0.3518 0.51933 0.08377 1.0219-0.01675l0.55283-0.08377a1.5412 1.5412 0 0 1 0.56959 0l0.41881 0.13402a1.4575 1.4575 0 0 0 0.65335 0.05025l0.50258-0.06701q0.33505-0.016751 0.60309-0.15077l0.38531-0.16752q0.3518-0.15077 0.72036-0.13402l0.13402 0.01675h0.23454l-0.13402 0.05025-0.45232 0.18428q-1.0219 0.26804-1.7925 0.50258l-0.21778 0.05025h-0.23454l-0.033505-0.01673q-0.16753-0.067007-0.30155-0.16752-0.16753-0.11727-0.36856-0.10051-0.16753 0.050257-0.30155 0.13402a2.4626 2.4626 0 0 1-0.60309 0.15077l-0.23454 0.05025-0.55283 0.13402c-0.21778 0.0335-0.38531 0-0.6366-0.05026l-0.21778-0.050249a1.2397 1.2397 0 0 1-0.43557-0.16752l-0.20103-0.16752c-0.10052-0.08377-0.20103-0.01675-0.28479 0.0335l-0.95489-0.30154q-0.53608-0.16752-0.90464-0.56959a2.6972 2.6972 0 0 1-0.60309-1.2397q-0.10052-0.41881 0.016752-0.85438l0.10052-0.33505q0.20103-0.016752 0.33505-0.18428 0.18428-0.21778 0.3183-0.50258 0.41881-0.72036 0.78737-1.4575z"
    fill="#e0c197"
    stroke-width=".016752"
  />
  <ellipse
    transform="rotate(-35)"
    cx="4.8242"
    cy="15.917"
    rx=".32835"
    ry=".25464"
    fill="#f8f1f1"
    stroke-width=".016752"
  />
  <path
    d="m4.4897 10.186-0.050257 0.13402-0.11727 0.23454-0.13402 0.18428-0.10052 0.0335a2.2448 2.2448 0 0 0-0.53608 0.36856l-0.050257 0.01675-0.16753 0.06701-0.18428 0.06702c-0.25129 0 0.13402-0.45232 0.18428-0.50258q0.25129-0.2848 0.50258-0.45232 0.30155-0.21778 0.6366-0.15077"
    fill="#f08774"
    stroke-width=".016752"
  />
  <path
    d="m4.1881 10.739 0.13402-0.18428 0.11727-0.23454 0.033505-0.13402 0.06701 0.0335 0.016752 0.05025 0.067011 0.43557v0.01675l-0.16753-0.0335-0.13402 0.01675z"
    fill="#b5655b"
    stroke-width=".016752"
  />
  <path
    d="m1.1057 11.928q-0.083762 0.067-0.13402 0.15077c-0.25129 0.30154-0.21778 0.6701-0.10052 1.0219q0.20103 0.60309 0.50258 1.1727-0.16753-0.016751-0.26804-0.10052-0.06701-0.0335-0.13402-0.15077l-0.28479-0.46907-0.06701-0.13402-0.15077-0.68685q-0.050257-0.30154-0.050257-0.50258l0.016752-0.51933 0.050257-0.55283 0.10052-0.33505c0.033505-0.06701 0.16753-0.18428 0.10052-0.26804l0.083762-0.06702q0.16753-0.10052 0.3518-0.11727 0.30155 0 0.56959 0.16752v0.20103q-0.033505 0.15077-0.083763 0.23454-0.23454 0.38531-0.68685 0.50258-0.083762 0.01675-0.083762 0.05025-0.050257 0.05025-0.016752 0.11727v0.01675q0.13402 0.15077 0.28479 0.26804"
    fill="#c49468"
    stroke-width=".016752"
  />
  <path
    d="m0.68685 10.554c0.06701 0.08377-0.06701 0.20103-0.10052 0.26804l-0.10052 0.33505-0.050257 0.55283-0.016752 0.51933 0.050257 0.50258 0.15077 0.68685q-0.20103-0.3183-0.3183-0.65335-0.10052-0.25129-0.11727-0.48582l-0.033505-0.43556 0.033505-0.26804 0.050257-0.21778q0.06701-0.21778 0.20103-0.48582 0.11727-0.18428 0.25129-0.3183"
    fill="#b17a5c"
    stroke-width=".016752"
  />
  <path
    d="m10.236 10.588q0.0335 0.36856 0.15077 0.68685l-0.18428-0.21778q-0.01675-0.25129 0.0335-0.46907"
    fill="#b5655b"
    stroke-width=".016752"
  />
  <path
    d="m14.273 10.722q-0.067 0.28479-0.21778 0.51933c-0.21778 0.3518-0.6366 0.53608-1.0387 0.72036a2.6134 2.6134 0 0 1-0.77062 0.20103q-0.20103 0.01675-0.41881-0.01675-0.23454-0.0335-0.40206-0.10052-0.25129-0.10052-0.50258-0.3183c0.15077-0.3183 0.30154-0.6366 0.72036-0.43556l0.36856 0.18428 0.38531 0.13402q0.16752 0.21778 0.46907 0.15077a0.82087 0.82087 0 0 0 0.3518-0.21778q0.16752-0.13402 0.21778-0.36856l0.33505-0.26804q0.21778-0.16753 0.50258-0.18428"
    fill="#f7ca8c"
    stroke-width=".016752"
  />
  <path
    d="m1.8595 10.705 0.06701 0.11727c0.11727 0.20103 0.10052 0.53608-0.033505 0.72036v0.0335l-0.033505 0.06701v0.01675q-0.11727 0.26804-0.36856 0.26804-0.083762 0-0.21778-0.08377-0.13402-0.08377-0.23454-0.20103v-0.016739l0.10052-0.0335q0.36856-0.16752 0.58634-0.48582 0.11727-0.18428 0.11727-0.40206"
    fill="#b17a5c"
    stroke-width=".016752"
  />
  <path
    d="m13.436 11.174q-0.05025 0.23453-0.21778 0.36856a0.82087 0.82087 0 0 1-0.3518 0.21778q-0.30155 0.08377-0.46907-0.15077-0.06701-0.13402-0.01675-0.28479a0.77062 0.77062 0 0 1 0.51933-0.45232c0.21778-0.05025 0.55284 0.0335 0.53608 0.30155"
    fill="#f2f1ee"
    stroke-width=".016752"
  />
  <path
    d="m4.5567 10.873q-0.016752 0.25129-0.083763 0.41881-0.083762 0.30154-0.33505 0.53608l-0.10052 0.13402-0.06701 0.0335-0.10052-0.3183a1.8093 1.8093 0 0 1 0.016752-0.58634l0.20103-0.11727q0.21778-0.11727 0.46907-0.10052"
    fill="#f08774"
    stroke-width=".016752"
  />
  <path
    d="m4.0374 11.962 0.10052-0.13402q0.25129-0.23454 0.33505-0.53608 0.067011-0.16753 0.083762-0.41881l0.11727 0.0335 0.10052 0.067q0.083762 0.06701 0.10052 0.15077l0.083762 0.21778 0.050257 0.13402 0.050257 0.15077 0.016752 0.13402-0.050257 0.05026-0.13402 0.01675-0.51933 0.05025z"
    fill="#b5655b"
    stroke-width=".016752"
  />
  <path
    d="m3.9033 11.09a1.8093 1.8093 0 0 0-0.016752 0.58634q0.016752 0.15077 0.083762 0.3183l-0.11727 0.0335-0.20103 0.06702c-0.18428 0.05025-0.43557 0.18428-0.53608 0.21778-0.050257 0.0335-0.15077 0.05025-0.16753-0.0335q0.016752-0.11727 0.06701-0.20103 0.13402-0.28479 0.40206-0.56959 0.23454-0.25129 0.48582-0.41881"
    fill="#f4a670"
    stroke-width=".016752"
  />
  <path
    d="m10.37 11.543 0.01675-0.01675 0.10052 0.10052v0.0335l-0.0335 0.21778a0.016753 0.016753 0 0 1-0.0335 0l-0.06701-0.08377-0.0335-0.08377z"
    fill="#b5655b"
    stroke-width=".016752"
  />
  <path
    d="m2.9819 11.777q-0.10051 0.15077-0.16753 0.3183c-0.06701 0.15077-0.050257 0.3518 0.13402 0.40206q0.11727 0.0335 0.23454-0.01675l0.30155-0.13402 0.60309-0.20103q0.3518 0.08377 0.68685 0.20103l0.68685 0.28479q0.51933 0.21778 1.0387 0.30154a4.6907 4.6907 0 0 0 1.4072-0.0335l0.56959-0.08377q0.46907-0.08377 0.97165-0.0335l0.83763 0.08377 0.01675 0.08377h0.01675q0.10052 0.05025 0.15077-0.05025l0.067-0.18428 0.18428-0.43556 0.05025 0.05025 0.26804 0.05025h0.08377l0.30154 0.13402 0.3518 0.21778q0.16752 0.13402 0.40206 0.05025c0.15077-0.10052 0.13402-0.26804 0.08377-0.41881l0.01675-0.01675q0.3518-0.0335 0.72036-0.18428l0.28479-0.11727q0.23454-0.10052 0.45232-0.23454l0.36856 1.4072q0.06702 0.20103 0.06702 0.40206c0 0.48582-0.55283 0.58634-0.92139 0.60309l-0.53608 0.01675a1.9098 1.9098 0 0 0-1.1727 0.36856l-0.23454 0.18428-0.40206 0.05025h-0.23454l-0.13402-0.01675q-0.36856-0.01675-0.72036 0.13402l-0.36856 0.16752a1.8763 1.8763 0 0 1-0.61984 0.15077l-0.50258 0.06702a1.4575 1.4575 0 0 1-0.65335-0.050266l-0.41881-0.13402a1.5412 1.5412 0 0 0-0.58634-0.016752l-0.53608 0.10052q-0.50258 0.10051-1.0219 0.016751-0.77062-0.13402-1.5747-0.3518-0.43557-0.083763-0.80412-0.26804c-0.60309-0.30155-0.88788-0.9884-0.92139-1.6417 0-0.3518 0.06701-0.70361 0.3518-0.93814a1.2062 1.2062 0 0 1 0.82087-0.28479"
    fill="#efd9b0"
    stroke-width=".016752"
  />
  <path
    d="m15.01 13.168q0 0.08377 0.0335 0.13402l0.11727 0.16752 0.01675 0.0335 0.05026 0.21778 0.067 0.36856 0.01675 0.10052-0.01675 0.01675-0.61984 0.3518-0.23454-0.11727h-0.01675l-0.20103-0.16753q0.10052-0.08377 0.16752-0.18428c0.18428-0.26804 0.10052-0.6366 0.01675-0.92139q-0.20103-0.56958-0.45231-1.1224l-0.067-0.10052-0.05025-0.20103 0.06702-0.05025 0.15077 0.26804 0.0335 0.05025 0.58634 0.72036z"
    fill="#cfa67b"
    stroke-width=".016752"
  />
  <path
    d="m10.521 12.313 0.11727-0.55284 0.01675-0.01675 0.08377 0.0335a0.016753 0.016753 0 0 1 0 0.0335z"
    fill="#f2f1ee"
    stroke-width=".016752"
  />
  <path
    d="m13.838 11.744 0.06702 0.20103 0.05025 0.10052q0.25129 0.55283 0.45232 1.1224c0.08377 0.28479 0.18428 0.65335-0.01675 0.93814l-0.15077 0.16752q-0.08377-0.0335-0.15077 0-0.06702 0.0335-0.06702 0.08377l-0.01675 0.18428-0.01675 0.01675-0.26804 0.05025-0.10052 0.0335-0.0335 0.01675q-0.38531 0-0.72036-0.067c-0.11727-0.0335-0.23454-0.23454-0.36856-0.11727l-0.15077 0.16752q-0.08377 0.06702-0.18428 0.08377l-0.83763 0.06701 0.23454-0.18428a1.893 1.893 0 0 1 1.1559-0.36856l0.53608-0.01675c0.36856-0.01675 0.92139-0.11727 0.92139-0.60309q0-0.20103-0.06702-0.40206l-0.36856-1.4072z"
    fill="#e0c197"
    stroke-width=".016752"
  />
  <path
    d="m1.1057 11.928q0.15077 0.13402 0.3183 0.18428h0.13402l-0.10052 0.33505q-0.11727 0.43557-0.016752 0.85438a2.6804 2.6804 0 0 0 0.60309 1.2397q0.36856 0.41881 0.90464 0.56959l0.95489 0.30154q-0.21778 0.08377-0.41881 0.05025l-0.43557-0.11726-0.53608-0.16753-0.25129-0.10052q-0.23454-0.10052-0.43557-0.26804-0.11727-0.083766-0.18428-0.21778l-0.050257-0.18428q-0.016752-0.10052-0.13402-0.11727l-0.083763-0.01675a8.259 8.259 0 0 1-0.50258-1.1727c-0.11727-0.3518-0.15077-0.72036 0.10052-1.0219q0.050257-0.08377 0.13402-0.15077"
    fill="#cfa67b"
    stroke-width=".016752"
  />
  <path
    d="m10.889 11.928 0.26804 0.20103a1.8763 1.8763 0 0 0 0.90464 0.23454l0.01675 0.01675q0.05025 0.10052 0.0335 0.20103l-0.0335 0.0335q-0.08377 0.0335-0.16753-0.01675l-0.13402-0.08377-0.3183-0.18428-0.16752-0.08377-0.45232-0.18428-0.01675-0.01675z"
    fill="#f4a670"
    stroke-width=".016752"
  />
  <path
    d="m9.5992 12.179h0.050265q0.033501 0.21778 0.23454 0.16752l0.48582-0.067-0.08377 0.58634-0.83762-0.08377q-0.50258-0.05025-0.97165 0.0335l-0.56959 0.08377a4.6907 4.6907 0 0 1-1.4072 0.0335q-0.51933-0.083762-1.0387-0.30154l-0.68685-0.28479q-0.33505-0.11727-0.68685-0.20103 0.15077-0.067 0.28479-0.08377l0.56959-0.05025 0.18428 0.01675q0.21778 0.0335 0.3183 0.08377l0.20103 0.06701 0.06701 0.01675 0.15077 0.05025q0.61984 0.30155 1.3234 0.3518c0.80412 0.06701 1.6417-0.05025 2.3621-0.40206z"
    fill="#e0c197"
    stroke-width=".016752"
  />
  <path
    d="m10.37 12.28-0.48582 0.067q-0.20103 0.050268-0.23454-0.16752h-0.033501l0.050252-0.01675q0.25129-0.06701 0.51933-0.08377l0.20103 0.0335z"
    fill="#cfa67b"
    stroke-width=".016752"
  />
  <path
    d="m11.124 12.38h-0.08377l-0.26804-0.05025-0.05025-0.05025 0.01675-0.05025h0.01675z"
    fill="#c49468"
    stroke-width=".016752"
  />
  <path
    d="m15.262 14.608-0.08377 0.01675-0.26804-0.01675q-0.08377 0-0.21778-0.06702l0.61984-0.3518 0.01675-0.01675-0.01675-0.10052-0.06701-0.36856-0.05025-0.21778-0.01675-0.0335-0.11727-0.16752q-0.0335-0.05025-0.0335-0.13402l0.36856 0.46907q0.13402 0.16752 0.25129 0.38531l0.0335 0.13402q0.01675 0.0335-0.01675 0.05025-0.15077 0.05025-0.25129 0.18428-0.0335 0.11727-0.13402 0.21778m-7.8067 0.92139-0.13402 0.0335q0.06701-0.05025 0.13402-0.0335"
    fill="#b17a5c"
    stroke-width=".016752"
  />
</svg>
