<svg viewBox="0 0 16 16" xmlns="http://www.w3.org/2000/svg">
  <path
    d="m5.4122 6.009a2.4524 2.4524 0 1 0-2.1912-0.39509l0.61533-0.81027a1.436 1.436 0 1 1 1.2827 0.23214z"
    fill="#83ead0"
  />
  <path
    d="m5.4144 6.0083a2.4524 2.4524 0 1 0-2.1979-0.39807l0.25967-0.33929a2.0253 2.0253 0 1 1 1.8147 0.32887l0.12351 0.40923z"
    fill="#008564"
  />
  <path
    d="m5.3259 0.62361a3.1302 3.1302 0 0 0-3.0141 1.0372l0.32887 0.27976a2.6972 2.6972 0 0 1 2.5982-0.89286zm1.4442 0.72321a3.1295 3.1295 0 0 1 0.80134 1.1101l-0.39732 0.17113a2.6972 2.6972 0 0 0-1.7247-1.529l0.12128-0.41518a3.1302 3.1302 0 0 1 1.1994 0.6622zm0.89509 1.3564-0.41071 0.13616a2.6964 2.6964 0 0 1 0.013393 1.6577l0.41295 0.12946a3.1295 3.1295 0 0 0-0.014881-1.9234zm-0.84598 3.2842a3.1198 3.1198 0 0 0 0.7753-1.1198l-0.40104-0.16295c-0.14881 0.36682-0.37723 0.69643-0.66741 0.96503zm-5.2515-2.4368a3.1302 3.1302 0 0 1 0.63914-1.7604l0.34375 0.26265a2.6972 2.6972 0 0 0-0.1369 3.0759l-0.36607 0.23065a3.1302 3.1302 0 0 1-0.47991-1.8088z"
    fill="#ffd95f"
  />
  <path
    d="m3.7976 5.6206a0.46429 0.46429 0 0 1 0.53943-0.4494l0.15848 0.026042a0.46429 0.46429 0 0 1 0.3683 0.59598l-0.26414 0.85268-0.50818 0.5253-0.3125-0.65997 0.018601-0.88988z"
    fill="#83ead0"
  />
  <path
    d="m4.0342 5.727a0.29241 0.29241 0 1 1 0.57068 0.094494l-0.17708 0.55506-0.26563 0.30729-0.13914-0.37351z"
    fill="#008564"
  />
  <path
    d="m4.3043 5.9019c0.087054 0.014881 0.16964-0.046131 0.18452-0.13393 0.014881-0.089286-0.044643-0.17262-0.13244-0.18676a0.16146 0.16146 0 0 0-0.18452 0.13393c-0.014881 0.089286 0.044643 0.17262 0.13244 0.18676z"
    fill="url(#b)"
  />
  <path
    d="m5.619 3.695c0 0.48363-0.39881 0.87649-0.89137 0.87649a0.88467 0.88467 0 0 1-0.89211-0.87649c0-0.48438 0.39955-0.87798 0.89211-0.87798s0.89211 0.3936 0.89211 0.87798z"
    fill="url(#c)"
  />
  <path
    d="m5.4985 5.8439a2.3222 2.3222 0 1 0-2.2999-0.41518l0.45833-0.60417a1.5655 1.5655 0 1 1 1.622 0.29315zm0.037202 0.12426a2.4524 2.4524 0 1 0-2.3147-0.35491l0.61533-0.80952a1.436 1.436 0 1 1 1.2827 0.23214l0.29315 0.97321c0.041667-0.012649 0.083333-0.026042 0.12351-0.040923z"
    clip-rule="evenodd"
    fill="#564341"
    fill-rule="evenodd"
  />
  <path
    d="m5.5 5.8424a2.3222 2.3222 0 1 0-2.3013-0.41369l0.10119-0.13393a2.1555 2.1555 0 1 1 2.1518 0.38765l0.048363 0.16071zm0.037202 0.125a2.4524 2.4524 0 1 0-2.3214-0.35714c0.00893 0.00298 0.00967 0.00744 0.00521 0.00298l0.25893-0.34003a2.0253 2.0253 0 1 1 1.8095 0.32738l0.12351 0.40848c0.041667-0.012649 0.084077-0.026786 0.12426-0.041667z"
    clip-rule="evenodd"
    fill="#564341"
    fill-rule="evenodd"
  />
  <path
    d="m7.6652 2.7047v-0.00149l-0.41071 0.13616a2.6972 2.6972 0 0 1 0.013393 1.6577l0.41295 0.12946c0.012649-0.040923 0.025298-0.082589 0.036458-0.125l7.44e-4 -0.00372a3.1302 3.1302 0 0 0-0.013393-1.6667l-0.00149-0.00372c-0.011159-0.040923-0.023808-0.081846-0.0372-0.12277zm-0.055059 0.29539a2.997 2.997 0 0 1-0.02009 1.4583l-0.15625-0.049851a2.8311 2.8311 0 0 0-0.012649-1.4829l0.15625-0.052083c0.011905 0.042411 0.022321 0.084077 0.032739 0.12649zm-0.015626 1.8676a3.1027 3.1027 0 0 1-0.7753 1.1198l-0.29315-0.31771a2.6972 2.6972 0 0 0 0.66741-0.96503zm-0.17262 0.070685-0.15997-0.065476a2.8274 2.8274 0 0 1-0.55432 0.80208l0.11682 0.12649a2.9993 2.9993 0 0 0 0.59747-0.8631zm-0.02381-2.5484a3 3 0 0 0-1.7403-1.5417l-0.047619 0.16592a2.8274 2.8274 0 0 1 1.6295 1.4435zm0.11979-0.051339c0.018601 0.039435 0.037202 0.078869 0.053572 0.11905l-0.39732 0.16964a2.6972 2.6972 0 0 0-1.7247-1.5275l0.12128-0.41518a3.1339 3.1339 0 0 1 1.9472 1.654zm-2.3467-1.6109a3 3 0 0 0-2.6741 0.91964l0.1317 0.11161a2.8274 2.8274 0 0 1 2.5067-0.86161l0.03497-0.1689zm0.026786-0.12723a3.1302 3.1302 0 0 0-2.8869 1.0595l0.32961 0.28051a2.6972 2.6972 0 0 1 2.5975-0.89286l0.087798-0.42411a3.1324 3.1324 0 0 0-0.12798-0.023065zm-2.9643 1.3743a3 3 0 0 0-0.14286 3.2046l0.14583-0.092262a2.8274 2.8274 0 0 1 0.13393-3.0082zm-0.10417-0.079613a3.1295 3.1295 0 0 0-0.081845 3.465l0.36607-0.23065v-7.441e-4a2.6972 2.6972 0 0 1 0.1369-3.0759l-0.34375-0.26265c-0.026786 0.03497-0.052083 0.06994-0.077381 0.10491zm2.5685 4.808-0.63839 0.66071-0.39286-0.82961 0.018601-0.91592a0.57589 0.57589 0 0 1 0.66964-0.55729l0.15848 0.026042a0.57589 0.57589 0 0 1 0.45685 0.73958zm-0.9189-0.19271 0.017857-0.88988a0.46429 0.46429 0 0 1 0.53943-0.4494l0.15848 0.026042a0.46429 0.46429 0 0 1 0.3683 0.59598l-0.26339 0.85268-0.50744 0.5253-0.3125-0.65997z"
    clip-rule="evenodd"
    fill="#564341"
    fill-rule="evenodd"
  />
  <path
    d="m4.5282 6.4354-0.40476 0.46875-0.2128-0.57217 0.011161-0.6064a0.40476 0.40476 0 1 1 0.79092 0.13095zm-0.50595-0.12202 0.011161-0.58557a0.29315 0.29315 0 1 1 0.57292 0.095238l-0.17783 0.55655-0.26637 0.30878zm0.70536-1.8527a0.77381 0.77381 0 0 0 0.78051-0.76637 0.77381 0.77381 0 0 0-0.78125-0.76488 0.77307 0.77307 0 0 0-0.77976 0.76563c0 0.42113 0.34747 0.76563 0.78051 0.76563zm0 0.11161c0.49256 0 0.89137-0.39286 0.89137-0.87798 0-0.48363-0.39881-0.87649-0.89137-0.87649a0.88467 0.88467 0 0 0-0.89211 0.87723 0.88542 0.88542 0 0 0 0.89211 0.87649z"
    clip-rule="evenodd"
    fill="#564341"
    fill-rule="evenodd"
  />
  <path
    d="m4.7217 3.2122c0.056548 0.058036 0.076637 0.19568-0.065476 0.33854-0.10342 0.10417-0.30357 0.22321-0.44048 0.072917-0.099702-0.11012 0.0037203-0.28051 0.10193-0.36756 0.075893-0.066964 0.29018-0.1622 0.40402-0.044643z"
    fill="url(#d)"
  />
  <path
    d="m4.9985 3.5157c0.028274 0.028274 0.037946 0.096726-0.031994 0.16741-0.051339 0.051339-0.1503 0.11086-0.21875 0.035714-0.049107-0.054315 0.00223-0.13839 0.050595-0.18155 0.037202-0.033482 0.1436-0.080357 0.20089-0.022322z"
    fill="url(#e)"
  />
  <path
    d="m5.0855 4.3721c-0.77381 0.056548-1.1176-0.80357-0.78943-1.3222 0 0-0.11533 0.074405-0.12872 0.092262-0.15476 0.19643-0.23884 0.36161-0.21354 0.62723a0.76637 0.76637 0 0 0 0.16741 0.40179c0.20089 0.24107 0.48884 0.33929 0.8125 0.26042 0.049851-0.013393 0.15179-0.059524 0.15179-0.059524z"
    fill="url(#f)"
    fill-opacity=".3"
  />
  <path
    d="m2.0625 12.041a27.815 27.815 0 0 0-1.1376 0.53125l-0.22768 0.25818c-0.085566 0.23661-0.070684 0.6064-0.10714 0.8564l0.10565 0.22768 0.13542-0.0506s0.05506-0.21056 0.40625-0.56324l0.31994-0.27455s1.1481-0.68155 1.3103-0.75893c-0.23065-0.06399-0.57515-0.15923-0.80506-0.22619z"
    fill="#83ead0"
  />
  <path
    d="m2.8593 12.241c-0.48289 0.40699-1.128 0.62054-1.5818 1.0655l-0.11161 0.16369c0.78423-0.48512 1.5878 0.29985 2.3006 0.51339 0.17113 0.05134 0.016369-0.0439 0-0.16071-0.00744-0.04836 0.024554-0.13021 0.094494-0.24777l0.00298-0.17783-0.49033-0.12649 0.085565-0.44345 0.24851-0.17857c0.049107-0.08408 0.29018-0.21131 0.34747-0.29167l-0.52604-0.12426-0.36979 0.0074zm9.9085-0.84077c0.27009 0.4256 0.6942 0.9933 1.8646 1.4955l0.11161 0.16369c-0.78497-0.48512-1.9033 0.57664-2.6161 0.79018-0.17113 0.0506-0.01637-0.04464 0-0.16146 0.0074-0.04762-0.02455-0.13021-0.09449-0.24777l-3e-3 -0.17708 0.49033-0.12649-0.08557-0.4442-0.24851-0.17857c-0.04911-0.08408-0.29018-0.21056-0.34747-0.29092l0.52604-0.125z"
    fill="#008564"
  />
  <path
    d="m12.763 12.179v-0.57812l-0.0253-0.4494-0.10714-0.42634-0.10194-0.28795-0.15551-0.25967-0.12426-0.22842-0.11682 0.28646-0.21205 0.35193-0.16369 0.20833-0.21354 0.17113-0.39658 0.21726h-0.37649l-0.36012-0.17113-0.3192-0.17783-0.22842-0.29316-0.06994-0.22321-0.12798-0.7567-0.054316 0.15625-0.19643 0.36756-0.23065 0.32887-0.31696 0.28274-0.25595 0.13839-0.34524 0.09375-0.25521-0.010416-0.70387-0.31473-0.34747-0.42708-0.11533-0.22842-0.28348 0.57292-0.32515 0.40774-0.50595 0.53423-0.49851 0.31845-0.43378 0.32589c0.019345 0.18973 0.078125 0.3244 0.17708 0.40402 0.25446 0.20089 0.41815 0.5506 0.65402 0.7247 0.3006 0.22247 0.57961 0.32887 0.85119 0.49851 0.25595 0.16146 0.31622 0.45833 0.54018 0.58259 0.84003 0.46652 1.6183 0.52455 1.8185 0.4933 0.2381 0.04687 0.56324-0.0089 0.80283-6e-3 0.16667-0.03795 0.56324-0.07441 0.77009-0.1622 0.32738-0.13839 0.85268-0.32366 1.1682-0.52827 0.37202-0.2433 0.6131-0.60566 0.70461-0.7128 0.09077-0.10789 0.18006-0.31696 0.24628-0.43527 0.07589-0.14806 0.11384-0.29762 0.16592-0.45536l0.06845-0.33333z"
    fill="url(#g)"
  />
  <path
    d="m12.762 11.588 0.01042-0.0186c0.2567 0.38095 0.65774 0.84673 1.5365 1.276-0.31027-6e-3 -0.63616 0.11756-0.93899 0.26786a10.598 10.598 0 0 0-0.52307 0.28497l-0.16295 0.09226a4.0387 4.0387 0 0 1-0.47321 0.23661l0.0052-0.02604c0.0074-0.04687-6e-3 -0.09673-0.02381-0.14211a0.68452 0.68452 0 0 0-0.01116-0.02827 3.869 3.869 0 0 1-0.15625 0.18824l-0.02232 0.0372-0.0037 0.0045-0.01637 0.02604c-0.0045 0.0074-0.01637 0.02604-0.02009 0.04836a0.096726 0.096726 0 0 0 0.05952 0.11012c0.02976 0.01116 0.05952 0.0067 0.07143 0.0045 0.01711-3e-3 0.0372-0.0074 0.06027-0.01488 0.18899-0.05655 0.4003-0.16741 0.61756-0.28944l0.16741-0.09524c0.16667-0.09524 0.3378-0.19271 0.51042-0.27827 0.46726-0.2314 0.90104-0.35194 1.2485-0.1369a0.089286 0.089286 0 0 0 0.11979-0.12574l-0.11161-0.16369a0.089286 0.089286 0 0 0-0.03869-0.03051c-1.1503-0.49405-1.5618-1.0491-1.8237-1.4621a0.089286 0.089286 0 0 0-0.09673-0.03869zm-0.38988 1.6786 0.17113-0.04464c0.04464-0.01116 0.07292-0.0558 0.06473-0.10194l-0.04464-0.22768a1.1161 1.1161 0 0 1-0.03497 0.0744c-0.02009 0.03571-0.04167 0.07961-0.06548 0.12649-0.02827 0.05655-0.05952 0.11756-0.09077 0.17336zm-0.24033 0.61533v-7.44e-4z"
    clip-rule="evenodd"
    fill="#564341"
    fill-rule="evenodd"
  />
  <path
    d="m5.0342 12.458c0.081845 0.32887 1.2262 1.372 3.151 1.535-1.4479-0.18155-2.8192-2.128-2.8192-2.128s-0.070685 0.04464-0.3311 0.18973v0.40327z"
    fill-opacity=".31"
  />
  <path
    d="m8.2552 12.642a0.15253 0.15253 0 0 1 0.11458-0.15253l0.90997-0.23066c0.035714-0.0089 0.072173-0.0045 0.10491 0.01116l0.76414 0.37649c0.05952 0.02902 0.09301 0.09301 0.08333 0.15848l-0.16369 1.1109c-0.0067 0.04464-0.03274 0.08482-0.072173 0.10863l-0.75 0.45164c-0.054316 0.03274-0.12426 0.02827-0.17411-0.0119l-0.72768-0.59078a0.15179 0.15179 0 0 1-0.055804-0.11384z"
    fill="#017356"
  />
  <path
    d="m5.0394 12.69a5.974 5.974 0 0 0 1.1458 0.84524c0.65699 0.37128 1.4747 0.54316 2.8854 0.64955 1.6949-0.02679 2.936-0.4003 2.936-0.4003 0.43304-0.58036 0.60268-0.90551 0.7381-1.657 0 0-1.317 0.61012-3.404 0.44792-1.372-0.054315-2.6801-0.40476-3.4033-0.63318a3.7046 3.7046 0 0 1-0.89807 0.74777z"
    clip-rule="evenodd"
    fill="#05b78b"
    fill-rule="evenodd"
  />
  <path
    d="m5.1205 12.531c0.081845 0.32738 1.2225 1.3683 3.1414 1.5305-1.4435-0.1808-2.811-2.1205-2.811-2.1205s-0.070685 0.0439-0.33036 0.18824z"
    fill-opacity=".31"
  />
  <path
    d="m8.186 12.578a0.16369 0.16369 0 0 1 0.12277-0.16369l0.97619-0.24702a0.16369 0.16369 0 0 1 0.11235 0.01191l0.81994 0.40402a0.16369 0.16369 0 0 1 0.08929 0.17039l-0.17485 1.192a0.16369 0.16369 0 0 1-0.07738 0.11607l-0.80506 0.48438c-0.05878 0.03571-0.13393 0.02976-0.1875-0.01265l-0.78051-0.63393c-0.037202-0.02976-0.05878-0.0744-0.059524-0.12202l-0.036458-1.1994z"
    fill="#017356"
  />
  <path
    d="m9.1361 13.94c-0.28795-0.4375-0.45387-0.48363-0.55952-0.5067 0.26414-0.20685 0.4189-0.17039 0.55952 0.16667l0.064732-0.12649c0.15774-0.29762 0.29911-0.46429 0.625-0.64509-0.064732 0.19048-0.054316 0.36458 0.061756 0.48884-0.19792 0.07441-0.43155 0.18601-0.75149 0.62277z"
    fill="url(#h)"
  />
  <path
    d="m5.8884 11.534c0.44345 0.6622 2.0885 0.27158 2.0885-0.55729 0 0-0.46801-0.10268-0.66964-0.29911l-0.45238-0.54167c-0.24926 0.48363-0.96726 1.0365-1.0409 1.276 0 0 0.047619 0.07589 0.074405 0.12277zm5.2574-0.29911c-0.02976 0.67113 1.0327 0.98438 1.5424 0.67188 0.02976-0.63021-0.0506-1.2999-0.43824-1.8065-0.125 0.13988-0.13765 0.4442-0.46131 0.73438a2.2098 2.2098 0 0 1-0.64211 0.4003z"
    fill="#f28773"
  />
  <path
    d="m9.0178 10.929c0.10119 0.3497 0.63467 0.43899 1.0126 0.50223-0.31994 0.1064-0.68304 0.055059-0.97693-0.10119-0.16443-0.070684-0.30878-0.34301-0.035714-0.40179z"
    fill="#564341"
  />
  <path
    d="m4.7649 12.301c-0.074405-0.12202-1.128 0.07813-1.6101 0.66071-0.23438 0.24702 0.092262 0.37649 0.33036 0.34226 0.70387-0.17857 0.60714-0.60268 1.6421-0.48735 0.012649 0.0022-0.18155-0.21875-0.36235-0.51562z"
    fill="url(#i)"
  />
  <path
    d="m5.2396 12.932c-0.48586-0.18452-1.2359 0.011161-1.6176 0.51562-0.13467 0.17857-0.34301 0.70536-0.10938 0.65327 0.5878-0.13021 1.0126-0.12798 1.0878-0.19792 0.2753-0.25298 0.46949-0.43601 1.1778-0.46131-0.084821-0.11458-0.35714-0.44196-0.53795-0.51042z"
    fill="url(#j)"
  />
  <path
    d="m6.1681 13.556a1.3981 1.3981 0 0 0-1.4568 0.28423c-0.89063 0.80655-0.76935 1.3021-0.76935 1.3021l0.09375 0.15848c0.2433 0.09524 1.2939-0.20536 1.5848-0.28869 0.55283-0.15848 1.1458-0.21577 1.6949-0.39062 0 0-0.97619-0.94271-1.1473-1.0655z"
    fill="url(#k)"
  />
  <path
    d="m10.602 14.68c0.70536 0.05506 1.3914 0.27902 2.0499 0.52679l0.16369 0.05506 0.13318-0.02455c0.18304-0.2939-0.10789-0.59673-0.29316-0.81101-0.17336-0.1808-0.46205-0.2619-0.70238-0.30878-0.50298-0.04613-0.92262 0.35193-1.3512 0.5625z"
    fill="url(#l)"
  />
  <path
    d="m11.617 14.163c0.42411-0.12649 0.89286 0.0186 1.2031 0.36682 0 0 0.24182 0.14881 0.31101 0.10491 0.06548-0.04167-0.0119-0.33408-0.04836-0.40179-0.21577-0.41295-0.38839-0.66667-0.81473-0.7872-0.21131 0.23586-0.41518 0.5-0.65104 0.71726z"
    fill="url(#m)"
  />
  <path
    d="m12.358 13.418c0.59375 0.18824 0.4308 0.4003 0.97247 0.52678 0.03348 0.0074 0.0372-0.14583 0.0372-0.18006 0-0.16592-0.45759-0.55283-0.70684-0.71429-0.10045-0.06548-0.34896 0.35268-0.30283 0.36756z"
    fill="url(#n)"
  />
  <path
    d="m10.081 6.608c0.02976 0.19792-0.03125 0.76711-0.03125 0.76711 1.6704-0.43899 3.9509-2.9159 0.57738-2.439 0.35565-0.51637 1.0818-0.79539 1.3542-1.3884l-0.01488-0.072173c-1.5104 0.072173-3.0253 0.85342-3.9598 2.0528l-0.074405 0.21949 0.10119 0.25298c0.6875 0.21131 1.436 0.1503 2.151 0.20759 0 0-0.12277 0.34077-0.10342 0.39955z"
    fill="url(#o)"
  />
  <path
    d="m9.741 9.3096c-0.29539 0.98958 0.79911 1.2068 1.5432 0.84524 1.6704-1.3281 1.2232-4.4241-1.276-2.5811-0.14137 0.22693-0.10491 0.8311-0.11161 0.86086-0.040179 0.21801-0.14137 0.82738-0.15476 0.87426h-7.441e-4z"
    fill="url(#p)"
  />
  <path
    d="m6.9352 9.5105c0.063244 0.46354 0.95238 0.55804 1.4152 0.35342 1.0841-0.3631 1.41-2.474 0.97768-3.1027-0.03869-0.057292-0.57887-0.13542-0.79836-0.15625-0.61384-0.059524-1.3423 0.51339-1.6577 1.3237-0.083333 0.21354 0.03125 0.48586 0.053572 0.7061 0.029762 0.30655-0.020833 0.65327 0.00967 0.87649z"
    fill="url(#q)"
  />
  <path
    d="m6.9122 9.707s1.6481 1.1443 2.4591-1.0238c0.20685-0.55357 0.11384-1.3802 0.12054-1.7493 0.71801 0.34747 0.17708 2.3259 0.12649 2.5632-0.18006 0.83557-1 1.4888-1.686 1.3073-1.032-0.27232-1.0201-1.0975-1.0201-1.0975zm2.8304 0.39211 0.14286 0.05283c0.44792 0.33557 1.0915 0.21726 1.529-0.07738 0.63616-0.51637 0.6942-1.2106 0.9375-1.9241l0.04464 0.048363c0.09821 0.73735-0.07961 1.4933-0.34152 2.1815-0.57887 1.1607-2.1109 1.0618-2.3125-0.28125z"
    fill="#fff"
  />
  <path
    d="m10.073 8.4413c-0.10938 0.26042-0.14881 0.5878-0.071429 0.86086 0.18304 0.42411 0.68973 0.46131 0.98214 0.12649 0.84226-0.90179-0.16816-2.4241-0.91072-0.9881zm-1.4568-0.0074405c0.15848-1.8497-1.7753-0.84301-1.2865 0.49107 0.41964 0.67188 1.1384 0.065476 1.2865-0.49107z"
    fill="#fff"
  />
  <path
    d="m12.62 13.29a0.6317 0.6317 0 0 0 0.09896 0.23438l-0.17708-0.12277-0.12128-0.05878 0.15625-0.25818 0.06399 0.03199s-0.03571 0.07664-0.02083 0.17336z"
    fill="url(#r)"
  />
  <path
    d="m12.249 13.918c0.04985 0.1183 0.2128 0.2567 0.2128 0.2567l-0.40997-0.12351-0.20387-0.01934 0.35491-0.39583s-6e-3 0.15997 0.04613 0.28274z"
    fill="url(#s)"
  />
  <path
    d="m4.5491 15.191s1.1458-0.34226 1.6071-0.80208c0.31473-0.31548 0.056548-0.71205 0.1064-0.69048 0.31176 0.13988 0.40699 0.34747 0.59226 0.57292 0.084822 0.10342 0.45238 0.34524 0.45238 0.34524s-0.6131 0.08482-0.86533 0.16369c-0.45164 0.13839-1.8921 0.41072-1.8921 0.41072z"
    fill="url(#t)"
  />
  <path
    d="m11.632 14.365c0.04911 0.25967 0.11161 0.33036 0.59673 0.57589 0.01637 0.0089-0.28572-0.09301-0.75446-0.21057-0.15848-0.03869-0.63095-0.11607-0.63095-0.11607s0.34226-0.13542 0.42932-0.19271a3.6265 3.6265 0 0 1 0.38988-0.19048s-0.03497 0.10863-0.02976 0.13318z"
    fill="url(#u)"
  />
  <path
    d="m4.5424 13.839c-0.057292 0.01711-0.26042 0.03795-0.45759 0.09896-0.089286 0.02753-0.22842 0.06696-0.32887 0.09375-0.046131 0.01339-0.17411 0.02753-0.21577-6e-3 -0.012649-0.01042-0.037202-0.05952-0.022322-0.06324 0.5506-0.11756 0.88616-0.26786 1.131-0.41592 0.42039-0.25298 0.49554-0.45238 0.53051-0.60045 0.014881-0.06324 0.16741 0.08036 0.22024 0.13542l0.27679 0.28795s-0.39807 0.07589-0.52009 0.11086c-0.27158 0.07813-0.53571 0.33482-0.61384 0.35863z"
    fill="url(#v)"
  />
  <path
    d="m3.1071 13.231c0.51042-0.20238 1.0171-0.37723 1.561-0.92113 0.036458-0.03646 0.14137 0.0506 0.15699 0.08631 0.072917 0.17336 0.20685 0.36458 0.11905 0.35566-0.53795-0.05878-0.86905 0.16592-1.1086 0.3497-0.17188 0.1317-0.77604 0.14732-0.72842 0.12872z"
    fill="url(#w)"
  />
  <path
    d="m12.695 10.907c0.02827 0.15774 0.02827 0.60119 0.08705 0.63467 1.0216 0.58036 2.5208 0.52902 2.7991-0.76935l0.15178-0.02232 0.1369-0.15402a7.4316 7.4316 0 0 0 0.10268-0.74777l-0.081846-0.36235-0.15848-0.32366-0.40774-0.46429-0.45312-0.2619-0.48066-0.14286-0.57738-0.054316-0.4494 0.035714-0.51562 0.12649c-0.08185 0.046875-0.31622 0.18006-0.38244 0.24851-0.02679 0.14881-0.08854 0.4494-0.12426 0.59524-0.01563 0.10119-0.01563 0.31399-0.06473 0.42262l-0.01191 0.21875 0.0625 0.25967c0.13914 0.27381 0.3006 0.45015 0.36682 0.76116z"
    fill="url(#x)"
  />
  <path
    d="m13.147 11.735c-0.70685-1.5967 0.10417-3.1786 1.9286-3.1533-0.42262-0.27455-0.77307-0.31399-1.2634-0.34226l-0.24851 0.03869-0.17857-0.014881c-0.30208 0.084077-0.69494 0.17113-0.92262 0.40104-0.01042 0.14063-0.08705 0.4561-0.12426 0.59524-0.0372 0.10268-0.15476 0.40699-0.15179 0.51563l0.1808 0.42113c0.12872 0.24628 0.1942 0.34449 0.25521 0.61979l0.11384 0.42411 0.05655 0.3006 0.35417 0.19494z"
    fill="url(#y)"
  />
  <path
    d="m13.732 9.6623c0.03571-0.063244 0.0097-0.20685-0.09524-0.27232-0.12054-0.074405-0.29018-0.063244-0.36161 0.089286-0.0558 0.11756 0.02455 0.23586 0.13988 0.29762 0.11607 0.059524 0.25298-0.00223 0.31696-0.11458z"
    fill="url(#z)"
  />
  <path
    d="m15.216 9.6043c-0.09673 0.16071-0.38095 0.28274-0.72917 0.17411-0.40327-0.12723-0.83631-0.52381-0.50595-0.96949 0.14435-0.19643 0.54911-0.19048 0.83482-0.048363 0.20833 0.10342 0.62798 0.46354 0.4003 0.84375z"
    fill="url(#A)"
  />
  <path
    d="m12.769 9.9897c0.18229 0.32887 0.29167 0.52827 0.86235 0.52827 0.19048 0 0.23066 0.29316 0.60417 0.5997 0.18229 0.15104 0.54092 0.14658 0.75149 0.01935 0.12649-0.07441 0.17188-0.04464 0.21057-0.02307 0.08854 0.05059 0.10491 0.03199 0.22098 0.02381 0 0 0.13765-0.19196 0.08408-0.32589-0.16741-0.10863-0.31027-0.19643-0.51711-0.19122l-0.12128 0.11384-0.09152 0.14286-0.11086 0.06994-0.16369-0.01488a2.2173 2.2173 0 0 1-0.4122-0.47024c-0.24702-0.25-0.5-0.1942-0.81399-0.15402-0.1503-0.09375-0.34375-0.2381-0.50223-0.31845z"
    fill="#ed8870"
  />
  <path
    d="m4.122 12.941c1.5007-0.42634 2.5037-1.7039 2.8028-3.2091l0.0029762-0.29911 0.056548-0.22768c-0.032738-0.2128-0.014881-0.53348-0.031994-0.74702l0.17411-0.072917 0.14881-0.03125 0.12277-0.084821c0.071429-0.18676 0.061756-0.17411 0.047619-0.37054-1.2024-2.4048-5.0826-2.9323-6.6012-0.57961-1.5789 2.2262-0.17411 6.0967 2.8579 5.7351z"
    fill="url(#B)"
  />
  <path
    d="m2.8995 11.756c0.093006-0.48958 2.6414-0.79836 2.8981-1.631 0.11161-0.83705 0.41667-0.93006 1.1421-1.0052l0.0037202-0.42188-0.11384-0.10193a5.9442 5.9442 0 0 1-0.84598 0.18006c-0.17039 0.00595-0.43304 0.00893-0.59821 0.049851l-0.059524 0.24554c0.081846 0.17039 0.16592 0.78274 0.16592 0.78274a2.9888 2.9888 0 0 1-0.055804 0.34077c-0.7753 0.60045-1.843 0.64211-2.6957 1.1071l-0.049107 0.14658z"
    fill="#f28773"
  />
  <path
    d="m4.7552 12.855c-3.061 0.27009-4.4978-3.6979-3.2009-6.1682 0 0-0.45536 0.35491-0.51042 0.43973-0.60938 0.93452-0.93601 1.6339-0.83631 2.9018l0.17113 0.88021c0.098958 0.21131 0.29018 0.59524 0.29018 0.59524 0.48289 1.224 1.9836 2.0037 3.2664 1.6272l0.31101-0.05952 0.50893-0.21577z"
    fill="url(#C)"
  />
  <path
    d="m4.2596 9.0023c0.20089 0.23958 0.09375 0.5439-0.14211 0.83557-0.26488 0.32738-0.73214 0.35937-0.97842 0.12649-0.18676-0.17634-0.24107-0.55729 0.18378-0.9189 0.35938-0.30506 0.76711-0.24628 0.93676-0.043155z"
    fill="url(#D)"
  />
  <path
    d="m3.5357 7.2665c0.2567 0.26488 0.34821 0.88914-0.29762 1.5365-0.46875 0.46875-1.3757 1.0141-1.9978 0.32961-0.45313-0.49851 0.016369-1.2723 0.4628-1.6667 0.34449-0.30506 1.3132-0.73661 1.8326-0.1994z"
    fill="url(#E)"
  />
  <path
    d="m7.5707 7.0128c0.033482-0.077381 0.066964-0.17262 0.092262-0.3006a1.2708 1.2708 0 0 1 0.48065-0.20387c0.8058-0.1436 1.4851 0.13393 1.7597 0.69345 0.021577-0.12798 0.041667-0.28423 0.058036-0.44494l0.00223-0.017857 0.00149-0.017857 0.00223-0.017857 0.00372-0.039435c0.0096753-0.10417 0.0096753-0.20089-0.0037176-0.30506-0.0022321-0.011161-0.011905-0.026042-0.029762-0.044643l-0.064732-0.00521h-0.0067c-0.026042-0.00298-0.054315-0.00521-0.10342-0.00744h-0.01711c-0.57515-0.023808-0.87277-0.041666-1.1272-0.074404l-0.018601-0.00298-0.00893-7.44e-4 -0.019345-0.00298-0.044643-0.00595c-0.38467-0.058775-0.60789-0.15252-0.67857-0.33184-0.059524-0.15253-0.0022322-0.32738 0.13393-0.5253a2.6957 2.6957 0 0 1 0.33333-0.38318c0.22396-0.22321 0.63393-0.54167 1.0603-0.81399 0.54167-0.34524 1.0722-0.59524 1.5365-0.6994 0.5997-0.13542 1.09-0.16146 1.183 0.026786 0.05506 0.10863-0.0082 0.2247-0.15551 0.38914a4.7693 4.7693 0 0 1-0.43527 0.41369c-0.13021 0.1131-0.26265 0.22321-0.39807 0.33185l-0.09003 0.074405-0.0067 0.00446-6e-3 0.00521-3e-3 0.00223-0.01711 0.012649-0.07441 0.061756-0.0022 0.00149 0.01711-0.00149c0.18155-0.022321 0.36458-0.032738 0.54688-0.030506h0.02381c0.25 0.00818 0.46057 0.049107 0.62798 0.13467a0.64881 0.64881 0 0 1 0.36756 0.51339c0.05952 0.43973-0.46131 1.0476-1.183 1.4918 0.25298 0.00595 0.50074 0.072917 0.67411 0.20908 0.21949 0.17113 0.38616 0.40179 0.47917 0.66369 0.07366 0.20833 0.11161 0.42932 0.11012 0.6503 0.72917-0.38839 1.7039-0.375 2.4464 0.017857 0.84822 0.44866 1.2068 1.2738 0.83929 2.2366a0.26786 0.26786 0 0 1-0.22768 0.18378c0.0022 0.0097 3e-3 0.02009 0.0037 0.03051a0.50595 0.50595 0 0 1-0.07143 0.25818 1.9583 1.9583 0 0 1-0.3125 0.40923c-0.48066 0.50893-1.369 0.61756-2.0417 0.28646l-0.06324-0.03125-0.01339-0.0067-6e-3 -0.0022-0.0052-3e-3 -0.06696-0.03199c-0.05952-0.02976-0.11161-0.0558-0.15848-0.08184 0.0045 0.38839-0.06697 0.77381-0.20833 1.1369l-0.0097 0.02381-0.0067 0.0186-0.01488 0.04241c0.10938 0.04836 0.21503 0.10417 0.31548 0.16816a1.3348 1.3348 0 0 1 0.49628 0.57738c0.05952 0.13914 0.07217 0.2567-0.0015 0.34598-0.06548 0.07961-0.17113 0.09301-0.29985 0.06696a1.7835 1.7835 0 0 1 0.13616 0.31473c0.04687 0.15699 0.03423 0.28348-0.07292 0.3631-0.03943 0.02976-0.09673 0.03571-0.1622 0.02604 0.11161 0.24479 0.10417 0.48438-0.07664 0.5744-0.09821 0.04836-0.21429 0.03274-0.39955-0.03199-0.03423-0.01116-0.12351-0.04613-0.22098-0.08408l-0.01116-0.0037-0.01934-0.0074-0.0372-0.01414-0.0045-0.0015-0.01116-0.0045-0.22768-0.0878a4.4211 4.4211 0 0 0-0.59226-0.17411l-0.11533-0.0253-0.1317-0.02679a4.0975 4.0975 0 0 0-0.5744-0.07887c-0.12128-0.0074-0.23289-0.0052-0.33333 6e-3 -0.01488 0.0022-0.02976 7.44e-4 -0.04316-3e-3a5.2046 5.2046 0 0 1-1.3393 0.125c-0.46875-0.01637-0.72173-0.03497-0.9881-0.08557-0.073661-0.01339-0.14732-0.02976-0.21949-0.04911-0.23735-0.05208-0.86235 0.03125-1.2597 0.15625-0.1064 0.03348-0.21429 0.0625-0.32292 0.08705l-0.45387 0.09896-0.025298 6e-3 -0.00744 0.0015-0.035714 0.0074-0.014881 0.0037-0.014881 3e-3c-0.15923 0.03497-0.3125 0.06994-0.39435 0.08929l-0.1994 0.05208-0.085566 0.02381-0.094494 0.0253c-0.078125 0.02083-0.15625 0.03869-0.23586 0.05506-0.2872 0.05729-0.49107 0.05655-0.62202-0.04092-0.10565-0.07887-0.1436-0.20536-0.12798-0.36458 0.012649-0.12277 0.057292-0.27009 0.1317-0.44494 0.056548-0.1317 0.18006-0.30804 0.31994-0.4695l0.00521-0.0074-0.00595 0.0015c-0.070685 0.0186-0.14137 0.03869-0.21057 0.05952l-0.020833 0.0067-0.00818 0.0015-0.1503 0.04316-0.00223 0.0015h-0.00149l-0.010417 0.0022-0.00298 0.0015-0.011161 0.0022-0.022321 0.0067-0.012649 0.0022-0.018601 0.0045c-0.12277 0.02976-0.20685 0.0372-0.2872 0.01265a0.26786 0.26786 0 0 1-0.1808-0.18973 0.8631 0.8631 0 0 1-0.085565-0.0253c-0.24685-0.084165-0.47379-0.20619-0.83465-0.43164-0.095982-0.06176-0.40476-0.15253-0.52381-0.16741-0.23065-0.02753-0.64509 0.08408-0.82143 0.20461-0.049107 0.06473-0.092262 0.13393-0.12946 0.2061l-0.02753 0.05506-0.005208 0.01116c-0.020833 0.04315-0.040923 0.08408-0.047619 0.09449-0.028274 0.04762-0.065476 0.07664-0.11756 0.07887-0.05506 0.0022-0.095238-0.02976-0.12351-0.07961a0.53274 0.53274 0 0 1-0.049107-0.13095 1.869 1.869 0 0 1-0.046131-0.36905c-0.011905-0.32515 0.032738-0.61682 0.13914-0.75446a1.2321 1.2321 0 0 1 0.40848-0.32515c0.041667 0.03943 0.084821 0.07813 0.12872 0.11607-0.1875 0.09524-0.31845 0.19345-0.40848 0.30878-0.075893 0.09747-0.11607 0.36012-0.10491 0.64807 0.004464 0.13021 0.019345 0.25 0.040923 0.33705l0.012649 0.04241 0.001488 0.0045 0.001488-0.0037 0.029762-0.06324 0.004464-0.0089 0.036458-0.06994a1.7374 1.7374 0 0 1 0.25298-0.34682c0.14807-0.15923 0.37798-0.33557 0.64658-0.50595 0.057292 0.02902 0.11533 0.0558 0.1756 0.08185a4.4606 4.4606 0 0 0-0.53423 0.37574c0.19196-0.0558 0.40402-0.08631 0.55655-0.06771 0.13914 0.01637 0.47024 0.11458 0.59077 0.18973 0.35045 0.22024 0.5692 0.33705 0.8006 0.41667l0.020089 0.0074c0.023065-0.13095 0.11384-0.31845 0.20536-0.45982l-0.063988 0.01414c-0.23065 0.044678-0.40179 0.024589-0.49033-0.10934a0.26116 0.26116 0 0 1-0.043899-0.14137c0.071429 0.0037 0.1436 0.0045 0.21801 0.0037 0 0.0074 0.00298 0.01414 0.0067 0.01935 0.021577 0.03348 0.11905 0.04464 0.26935 0.01488a1.9464 1.9464 0 0 0 0.31101-0.08705l0.044643-0.01637 0.040179-0.03571a5.1786 5.1786 0 0 0 0.84524-0.32961 2.0982 2.0982 0 0 1 0.29018 0 0.77381 0.77381 0 0 1-0.077381-0.11161c0.0625-0.03348 0.12426-0.0692 0.18601-0.1064 0.037947 0.06548 0.089286 0.12277 0.15327 0.16667 0.065476 0.04464 0.12723 0.09449 0.18601 0.14807l0.055804 0.05283s0.084077 0.08333 0.125 0.12649l0.014137 0.01414 0.00372 0.0045 0.029018 0.02976a5.785 5.785 0 0 0 0.60119 0.39211c0.48958 0.27604 1.0737 0.44122 1.9568 0.5506a0.3497 0.3497 0 0 1-0.099702-0.23363l-0.033482-1.1176c-7.441e-4 -0.03497 0.00372-0.06845 0.011905-0.10119a15.13 15.13 0 0 1-2.2046-0.52458c0.049107-0.05208 0.096726-0.10714 0.14137-0.16295a14.877 14.877 0 0 0 2.1815 0.50595 0.34821 0.34821 0 0 1 0.13393-0.06696l0.90997-0.23065a0.35045 0.35045 0 0 1 0.24107 0.0253l0.76414 0.37574c0.0186 0.0089 0.03571 0.01935 0.05208 0.03125 0.60938-0.01711 1.1213-0.09673 1.5149-0.18452a6.0208 6.0208 0 0 0 0.66964-0.18899c0.07664-0.02679 0.13467-0.04911 0.17336-0.06473l0.0082-0.0037a2.8981 2.8981 0 0 0-0.39658-1.8638 2.4457 2.4457 0 0 1-0.34747 0.58333c-0.26786 0.32589-0.59524 0.52381-0.98214 0.53795-0.34449 0.01265-0.82961-0.22917-1.0536-0.56548-0.13989-0.20836-0.20611-0.39884-0.26787-0.76342a2.2001 2.2001 0 0 1-0.51563 0.66667l-0.010417 0.0097-0.010417 0.0089c-0.39583 0.35268-0.93304 0.43006-1.4226 0.24256l-0.014881-6e-3a1.4115 1.4115 0 0 1-0.76414-0.6934c0.16667-0.53274 0.24256-0.99926 0.32664-1.5186l0.05878-0.35863s0.072917-0.028274 0.13021-0.06994c-0.10193 0.45238 0.090774 0.7939 0.38914 0.85193 0.27976 0.05506 0.61161-0.22619 0.72545-0.70387 0.10937-0.45313-0.033482-0.83854-0.32738-0.91444-0.26637-0.067708-0.54092 0.11905-0.70313 0.50372-0.0044643-0.072917-0.015625-0.15625-0.02753-0.23884a2.5967 2.5967 0 0 1-0.029762-0.29464c0.018601-0.00446 0.029762-0.00893 0.039435-0.014881l-0.00149 0.00223 0.00595-0.00446c0.15328-0.098216 0.18602-0.24405 0.11533-0.44197zm4.4643 6.8646v0.0015zm-3e-3 3e-3 0.0022-7.44e-4h7.44e-4l0.03125-0.0097 0.02009-0.02604 0.07813-0.1064c0.05729-0.06696 0.11161-0.13467 0.16146-0.2061l0.0037-0.0067a1.4472 1.4472 0 0 1 0.45908 0.34822 1.2299 1.2299 0 0 1 0.16443 0.24926c0.05729 0.10045 0.10417 0.2061 0.14137 0.31548l0.0015 0.0074c0.01637 0.05655 0.01786 0.09077 0.0119 0.10789v7.44e-4a0.40179 0.40179 0 0 1-0.08184-0.02381 0.91071 0.91071 0 0 1-0.22768-0.13616 1.2128 1.2128 0 0 0-0.12574-0.10417c-0.26934-0.19345-0.52827-0.28125-0.7753-0.28274 0.04613-0.04092 0.09077-0.08259 0.13393-0.12649zm0.53274-1.381a2.9167 2.9167 0 0 1-0.09077 0.26414l-7.44e-4 0.0037-7.44e-4 0.0022a2.4554 2.4554 0 0 1-0.57887 0.9442l-0.13095 0.03348c-0.14137 0.03497-0.34747 0.08184-0.6064 0.13021-0.25521 0.04687-0.56176 0.09524-0.90774 0.13318 0.0074-0.02083 0.01265-0.04315 0.01637-0.06548l0.16369-1.1109c0.0074-0.04836 0.0037-0.09598-0.0074-0.14137 0.56771-0.02381 1.0491-0.0997 1.4256-0.18452a6.2202 6.2202 0 0 0 0.76637-0.22173 4.5833 4.5833 0 0 1-0.04911 0.2128zm-0.99702 1.4963a3.1719 3.1719 0 0 1-0.49554 0.29911c-0.61828 0.30132-1.3765 0.44268-2.1376 0.41739-0.45833-0.01637-0.70164-0.03497-0.95461-0.08184a2.093 2.093 0 0 1-0.81399-0.32292 1.1548 1.1548 0 0 1-0.28795-0.28125c-0.037202-0.04762-0.068452-0.08631-0.095982-0.11905 0.45089 0.15179 0.98958 0.25149 1.689 0.32366l0.47619 0.3869a0.3497 0.3497 0 0 0 0.40179 0.02827l0.68899-0.41518a12.869 12.869 0 0 0 1.5298-0.23512zm-6.3333-1.0008c0.053571 0.04464 0.11161 0.09152 0.17411 0.14062l0.025298 0.0253 0.00744 0.0089 0.00744 0.0067 0.00298 0.0045 0.057292 0.05878c0.051339 0.05283 0.089286 0.09077 0.12649 0.12649-0.14062 0.01116-0.29092 0.03125-0.40327 0.05952-0.16815 0.04092-0.44196 0.18824-0.62798 0.33482l-0.044643 0.0372c-0.081101 0.0082-0.18899 0.03199-0.32515 0.06696-0.072173 0.01935-0.1436 0.03943-0.21577 0.06027l-0.015625 0.0045-0.014881 0.0045-0.00744 0.0015-0.022321 0.0067-0.12798 0.0372-0.025298 0.0067-0.049851 0.01265c-0.087054 0.02083-0.14137 0.0253-0.17411 0.01488-0.026042-0.0074-0.040923-0.02976-0.047619-0.09673-0.00372-0.03869 0.040179-0.14732 0.095238-0.25521l0.00446-0.0074 0.0067-0.01339 0.00967-0.0186a1.3862 1.3862 0 0 1 0.27976-0.36756 1.2567 1.2567 0 0 1 0.34375-0.22321c0.22917-0.10342 0.69494-0.11682 0.96131-0.03646zm0.39137 0.5878-0.00967 0.0015h-0.00521l-0.011161 0.0015h-0.00595l-0.011161 0.0022-0.028274 3e-3 -0.022321 0.0022c-0.083333 0.0097-0.16592 0.02307-0.24777 0.04167-0.13542 0.03348-0.38318 0.16667-0.54688 0.29613-0.21131 0.16518-0.49702 0.50818-0.5811 0.70536-0.13095 0.30655-0.14955 0.49554-0.072917 0.55208 0.063244 0.04687 0.22321 0.04762 0.45015 0.0022 0.1064-0.02158 0.21205-0.04687 0.31696-0.07738l0.084822-0.02307c0.19643-0.05357 0.39435-0.10119 0.59449-0.14137l0.025298-0.0074 0.024553-0.0045 0.012649-3e-3 0.025298-0.0052 0.053571-0.01191 0.012649-3e-3 0.32887-0.07217h0.00149l0.074405-0.01637c0.12649-0.02976 0.22619-0.0558 0.30655-0.08185a4.4025 4.4025 0 0 1 0.80357-0.16211 1.9122 1.9122 0 0 1-0.25818-0.17411c-0.08631-0.07366-0.16369-0.15625-0.23214-0.24777a2.2098 2.2098 0 0 0-0.18973-0.22173l-0.00521-0.0052-0.00595-0.0052c-0.021577-0.02083-0.043155-0.04092-0.066964-0.05952a2.2701 2.2701 0 0 0-0.47694-0.2969h7.44e-4c-0.026786-0.0074-0.1756-0.0037-0.33854 0.01265zm6.2336 0.63988a0.90774 0.90774 0 0 0-0.39211 0.11012c-0.0097 0.0045-0.02009 0.0074-0.03125 0.0089-0.08036 0.04911-0.16369 0.09375-0.24777 0.13616l-0.02232 0.01042c-0.08631 0.04241-0.1756 0.08185-0.26786 0.1183 0.16741 0.02232 0.33259 0.05134 0.49628 0.08854l0.04762 0.0097 0.01265 3e-3 0.05506 0.01116c0.20685 0.04464 0.40476 0.10417 0.62054 0.18304 0.08036 0.02976 0.16146 0.06101 0.24182 0.09226l0.03497 0.01339 0.01488 0.0067 0.0097 3e-3 0.04464 0.01711h7.44e-4c0.08333 0.03274 0.15476 0.06027 0.18304 0.0692 0.13095 0.04613 0.20536 0.0558 0.23289 0.04241 0.03274-0.01637 0.04464-0.10194 7.45e-4 -0.23066a0.92783 0.92783 0 0 0-0.23363-0.3564l7.45e-4 0.0015-0.0022-0.0022-0.0074-0.0067c-0.03199-0.03125-0.06696-0.05952-0.10417-0.08631-0.24702-0.17857-0.4747-0.25-0.6875-0.24182zm0.7128-1.1205-0.0037 0.0089a2.6659 2.6659 0 0 1-0.11979 0.23066c0.13318 0.06399 0.26414 0.15625 0.37946 0.26414 0.05432 0.04985 0.0997 0.09673 0.13988 0.1436l6e-3 0.0052a0.74405 0.74405 0 0 0 0.17262 0.07961c0.04018 0.01339 0.08185 0.02083 0.12426 0.02232 0.01339 0 0.02455-0.0015 0.03051-0.0037h-0.0022v-0.01563l-7.44e-4 -0.0037a0.35714 0.35714 0 0 0-0.03051-0.10045c-0.02976-0.06845-0.07664-0.14509-0.12128-0.20536a1.279 1.279 0 0 0-0.29836-0.27827 2.2396 2.2396 0 0 0-0.2753-0.14732zm0.01339-4.5089-0.01786 0.010417a5.9613 5.9613 0 0 1-0.22024 1.3341l0.0089 0.011161a3.1161 3.1161 0 0 1 0.52976 1.5372c0.06845 0.04464 0.14583 0.08631 0.23661 0.13021l0.07441 0.03571 0.01339 0.0074 0.06845 0.03274c0.61235 0.30134 1.4226 0.20089 1.8519-0.25223a1.8304 1.8304 0 0 0 0.28646-0.37426c0.07441-0.14137 0.07068-0.22024-0.01265-0.26042a0.7247 0.7247 0 0 1-0.06473-0.03571l-0.03274-0.02232-0.0045-0.0022-0.02827-0.01786a0.39807 0.39807 0 0 0-0.18304-0.0744c-0.0372-0.0015-0.06994 0.01116-0.10119 0.04315-0.02902 0.02827-0.05431 0.05952-0.07738 0.09375l-3e-3 0.0052-0.01563 0.02455-0.0074 0.01116-0.02381 0.03646a0.26711 0.26711 0 0 1-0.17113 0.12426 0.37426 0.37426 0 0 1-0.33556-0.08408c-0.07217-0.05804-0.12872-0.12649-0.21949-0.25595l-0.05952-0.08259c-0.07887-0.11086-0.13244-0.16741-0.18378-0.18973-0.18973-0.08333-0.2753-0.08929-0.40327-0.06027l-0.01042 0.0022-0.01116 3e-3 -0.02232 0.0045c-0.18304 0.0372-0.34152-0.03051-0.68452-0.32887a0.081101 0.081101 0 0 1 0.10566-0.12277c0.17336 0.1503 0.29539 0.23586 0.38393 0.27455a0.23065 0.23065 0 0 0 0.1622 0.01786l0.02976-6e-3 0.01042-3e-3c0.15997-0.0372 0.28274-0.02753 0.50521 0.06994 0.08705 0.0372 0.15551 0.11012 0.25074 0.2433l0.02976 0.04167 0.02753 0.03795 7.44e-4 0.0037h0.0015c0.16369 0.23363 0.25521 0.30729 0.38467 0.27679 0.03348-0.0074 0.04911-0.02083 0.07441-0.05804l0.0015-7.44e-4v-7.44e-4l0.01265-0.01934a0.80357 0.80357 0 0 1 0.13244-0.17336 0.29092 0.29092 0 0 1 0.22321-0.09077c0.08408 3e-3 0.16146 0.03571 0.26265 0.09821l0.06622 0.04316c0.02307 0.01563 0.04762 0.02976 0.07292 0.04092 0.09896 0.04018 0.17411 0.02232 0.20536-0.06027 0.17485-0.45833 0.17411-0.87649 0.01786-1.2366-0.14358-0.33028-0.41665-0.60558-0.78123-0.79903-0.71875-0.37946-1.6711-0.38095-2.3564 0.016369zm-0.23214-0.23661v0.00298a3.9063 3.9063 0 0 1-0.21131 0.89062c-0.13914 0.38393-0.48363 0.84077-0.9003 1.0484a1.846 1.846 0 0 1-0.6622 0.15625c-0.27381 0.01191-0.51339-0.04911-0.6942-0.19717a1.2262 1.2262 0 0 0 0.1689 0.37351c0.18229 0.27232 0.59524 0.47991 0.86682 0.46949 0.31622-0.01265 0.59152-0.17708 0.82143-0.45908a2.2046 2.2046 0 0 0 0.36905-0.66964c0.15327-0.46949 0.25521-1.1518 0.24256-1.59zm-2.7731-1.2552 0.00223 0.012649c0.089288 0.52679 0.054318 1.1198-0.18824 1.7909-0.13914 0.38467-0.48289 0.84152-0.89955 1.0491-0.15774 0.07887-0.48438 0.15923-0.76637 0.1622-0.3058 0.002232-0.5625-0.078869-0.73958-0.25818l-0.00595 0.015625c0.069196 0.37054 0.34747 0.68378 0.72917 0.83482 0.42411 0.16741 0.88839 0.10119 1.2262-0.20684l0.00149-0.0022c0.33556-0.28872 0.55431-0.67712 0.6875-1.1779 0.10417-0.39063 0.1503-0.78125 0.18824-1.4442 0.018601-0.31324-0.069196-0.57738-0.23512-0.77604zm1.1979 0.098214-0.05283 0.022322-0.0253 0.011161c-0.32292 0.14137-0.60938 0.31622-0.6622 0.43527v0.00372l-0.0074 0.014881c0.0045 0.064732 0.0045 0.13244 0 0.20313a9.6354 9.6354 0 0 1-0.02232 0.33929c0.21056-0.39211 0.54762-0.59003 0.89509-0.50149 0.42857 0.11012 0.61682 0.61905 0.48363 1.1741l-0.0045 0.017113c-0.14212 0.5692-0.5692 0.92634-0.97173 0.84821-0.25967-0.051339-0.45759-0.2433-0.5439-0.51414a4.2634 4.2634 0 0 1-0.085566 0.30878c-0.0067 0.061756 0.00893 0.14286 0.041667 0.2314 0.020089 0.054315 0.044643 0.10714 0.074405 0.15774 0.13839 0.21354 0.37202 0.30134 0.67336 0.28869 0.21577-0.0089 0.45536-0.0744 0.57589-0.13393 0.35938-0.17932 0.67039-0.59301 0.79241-0.93006 0.21354-0.59077 0.25595-1.1243 0.18973-1.6012a1.2567 1.2567 0 0 0-0.28051-0.30357c-0.24926-0.19494-0.73363-0.21131-1.0707-0.071429zm-2.5967-0.47917a1.1064 1.1064 0 0 0-0.45387 0.20982c0.058036 0.15253 0.071429 0.2939 0.03125 0.41518a0.65699 0.65699 0 0 1 0.46652-0.052083c0.42857 0.11012 0.61607 0.61905 0.48363 1.1734l-0.00372 0.017113c-0.14286 0.56994-0.56994 0.92634-0.97247 0.84821a0.69494 0.69494 0 0 1-0.4814-0.36607 4.2961 4.2961 0 0 1-0.17411 0.66071c0.13095 0.19048 0.35417 0.27604 0.64881 0.27381 0.24926-0.0022321 0.54316-0.075149 0.67262-0.13914 0.36012-0.17932 0.67113-0.59226 0.79316-0.92932 0.23512-0.65327 0.26265-1.2247 0.17039-1.7277l-0.026042-0.12574-0.00223-0.00744-0.017113-0.072917-0.00223-0.022321c-0.29018-0.17336-0.68527-0.23512-1.1332-0.15551zm1.8899 1.9442c-0.12128 0.47098 0.07366 0.83036 0.38021 0.88988 0.27902 0.05506 0.61161-0.22619 0.72619-0.70313 0.10789-0.45387-0.03423-0.83929-0.32738-0.91518-0.31473-0.079613-0.63988 0.1942-0.77902 0.72842zm1.5461-5.0915c-0.22173 0.014881-0.44196 0.047619-0.65848 0.09747-0.43527 0.098214-0.94494 0.33854-1.468 0.67113-0.41369 0.26488-0.81101 0.57366-1.0238 0.78497-0.29539 0.29315-0.47024 0.54613-0.41815 0.67708 0.03125 0.078869 0.20015 0.14955 0.50967 0.19643 0.26786 0.040923 0.55878 0.059524 1.1949 0.084822 0.36235 0.014881 0.53795 0.022321 0.69643 0.03125l0.02455 0.00149 0.03051 7.44e-4 0.01488 0.00149h0.0089l0.01488 0.00149h0.01637l0.09077 0.00595c0.01934 0.00149 0.03199 0.00298 0.04464 0.0067 0.01042 0.00298 0.01935 0.0067 0.02976 0.013393 0.02902 0.018601 0.0506 0.048363 0.0506 0.093006 0 0.040923-0.0186 0.066964-0.04464 0.085566-0.0074 0.0067-0.01563 0.011161-0.02455 0.014881-0.0253 0.00893-0.05134 0.014881-0.07813 0.017113l-0.09747 0.012649-0.0067 7.44e-4 -0.0074 7.441e-4 -0.02381 0.00372-0.09301 0.012649c-0.06548 0.00893-0.13021 0.021577-0.19494 0.037202-0.01637 0.26935-0.05134 0.58333-0.08929 0.81324l-0.0015 0.00595h0.0022c0.0558-0.023065 0.125-0.052827 0.20387-0.089286l0.01414-0.00595c0.07961-0.037202 0.15848-0.074405 0.2381-0.1131l0.02009-0.00893c0.13248-0.065482 0.26418-0.1317 0.35942-0.1823 0.77679-0.40923 1.3735-1.0476 1.3244-1.4174-0.04018-0.30506-0.31548-0.44494-0.78869-0.45908-0.17336-0.00595-0.35268 0.00595-0.56548 0.03125l-0.10268 0.012649-0.0089 0.00149h-0.0045l-0.0089 0.00149c-0.05952 0.00744-0.12054 0.014137-0.18155 0.018601-0.01488 7.441e-4 -0.02976-7.44e-4 -0.04315-0.00446a0.11086 0.11086 0 0 1-0.08929-0.10417c-7.44e-4 -0.032738 0.0074-0.052827 0.02381-0.075893l0.02158-0.025298 0.05134-0.048363c0.03348-0.029762 0.07813-0.066964 0.14434-0.12128l0.0186-0.014881 0.10714-0.087798 0.01191-0.00967 3e-3 -0.00223 0.0067-0.00521 0.09896-0.080357c0.1317-0.10789 0.26265-0.21652 0.39211-0.32738a4.6801 4.6801 0 0 0 0.41667-0.39435c0.04092-0.044643 0.07664-0.092262 0.10714-0.14435l0.0015-0.00223h-0.0037l-0.0253-0.0067h-0.0074c-0.07738-0.010417-0.15625-0.012649-0.23363-0.00744h-7.44e-4zm-3.349 9.003c-0.00967 0.02083-0.014137 0.04315-0.013393 0.06622l0.033482 1.1176c0.00149 0.04464 0.022322 0.08631 0.055804 0.11384l0.20536 0.16592 0.27604 0.2247 0.24628 0.20015c0.049851 0.04018 0.11979 0.04464 0.17485 0.0119l0.75-0.45163c0.038691-0.02381 0.065476-0.06324 0.072173-0.10863l0.16369-1.1109a0.15253 0.15253 0 0 0-0.083333-0.15848l-0.76488-0.37649a0.15253 0.15253 0 0 0-0.10417-0.010417l-0.64509 0.16295-0.26488 0.06696c-0.046875 0.0119-0.084077 0.04464-0.10268 0.08705zm0.24033 0.77009a0.11012 0.11012 0 0 0 0.044643 0.19494c0.043155 0.0097 0.094494 0.02232 0.16741 0.07813 0.077381 0.05878 0.18229 0.16815 0.32292 0.3817a0.11012 0.11012 0 0 0 0.18155 0.0045 1.9568 1.9568 0 0 1 0.39807-0.42411c0.11161-0.08408 0.20833-0.12574 0.30283-0.16071a0.11012 0.11012 0 0 0 0.041667-0.17857c-0.077381-0.082629-0.095239-0.20837-0.037203-0.37802a0.11012 0.11012 0 0 0-0.15848-0.13244 1.5982 1.5982 0 0 0-0.40253 0.29911 1.6064 1.6064 0 0 0-0.23512 0.33259 0.37798 0.37798 0 0 0-0.20164-0.15625c-0.14583-0.04241-0.29018 0.03423-0.42411 0.13914zm0.62723 0.25372 0.063988-0.12574 7.441e-4 -7.44e-4c0.13393-0.25298 0.25595-0.41146 0.48884-0.56324a1.994 1.994 0 0 1 0.13616-0.08184c-0.017857 0.05059-0.029762 0.10045-0.035714 0.14881a0.44196 0.44196 0 0 0 0.033482 0.24554c0.015625 0.03423 0.037202 0.06548 0.063988 0.09449-0.03497 0.01265-0.070685 0.02679-0.10789 0.0439-0.15923 0.07217-0.34226 0.19345-0.57292 0.48586-0.023065 0.02976-0.046875 0.06027-0.070685 0.09301-0.022321-0.03423-0.044643-0.06696-0.06622-0.09673-0.15848-0.22322-0.27679-0.31994-0.36607-0.36607a0.4881 0.4881 0 0 0-0.12649-0.04464c0.041667-0.03274 0.081845-0.05952 0.1183-0.07961 0.16146-0.08929 0.27753-0.05506 0.37946 0.12202 0.020833 0.03571 0.040923 0.07738 0.061012 0.125z"
    clip-rule="evenodd"
    fill="#564341"
    fill-rule="evenodd"
  />
  <path
    d="m7.4769 7.0626a3.0432 3.0432 0 0 0-0.20833 0.25595l-0.125-0.080357c0.029762-0.047619 0.13914-0.18304 0.22321-0.2753a1.3668 1.3668 0 0 1 0.30357-0.26042l0.075149 0.12946a1.2202 1.2202 0 0 0-0.26786 0.23065z"
    clip-rule="evenodd"
    fill="#564341"
    fill-rule="evenodd"
  />
  <path
    d="m3.2887 10.969 0.7433-0.24554-0.57813 4.2314c-0.024554 0.1808-0.12872 0.3497-0.30655 0.39211-0.074405 0.01786-0.15699 0.02604-0.23438 0.0119a0.57961 0.57961 0 0 1-0.19271-0.085561c-0.16815-0.10714-0.22545-0.31771-0.18601-0.51339z"
    fill="#83ead0"
  />
  <path
    d="m3.2887 10.969 0.29762-0.09375-0.75744 3.9754c-0.050595 0.29762 0.084077 0.42262 0.31845 0.49628-0.074405 0.01786-0.15699 0.02604-0.23438 0.0119a0.57961 0.57961 0 0 1-0.19271-0.085561c-0.16815-0.10714-0.22545-0.31771-0.18601-0.51339z"
    fill="#62af9c"
  />
  <path
    d="m7.4367 7.4852c-1.0335-1.1324-2.7254-2.2158-4.8021-1.5982l-0.00446 0.00149-0.00446 0.00223c-1.0588 0.44866-1.7336 1.0454-2.1339 1.7024s-0.52158 1.3676-0.48586 2.0387c0.035714 0.66964 0.22842 1.3021 0.45982 1.8058 0.22991 0.50149 0.50223 0.88765 0.70461 1.0588 0.53943 0.45536 1.0774 0.70089 1.5975 0.79018l-0.30655 1.4583c-0.043155 0.21652 0.017857 0.4628 0.21949 0.59152a0.65476 0.65476 0 0 0 0.21875 0.09524 0.63244 0.63244 0 0 0 0.26563-0.01265c0.21875-0.05208 0.33631-0.2567 0.3631-0.45387l0.24554-1.6927a3.4881 3.4881 0 0 0 1.2031-0.50074 5.09 5.09 0 0 0 1.285-1.2098c0.32217-0.42857 0.53869-0.85566 0.60566-1.1652 0.25074-0.78125 0.20461-1.4003 0.1622-1.8259l0.059524-0.011905h7.441e-4l0.029762-0.00521c0.053571-0.011161 0.10938-0.022321 0.1622-0.039435a0.49628 0.49628 0 0 0 0.28646-0.20908c0.052083-0.081101 0.063244-0.17634 0.05878-0.26414-0.0052084-0.089286-0.02753-0.17857-0.053572-0.2567a1.7262 1.7262 0 0 0-0.12202-0.27679l-0.00149-0.00298-7.441e-4 -0.00223-7.44e-4 -7.44e-4v-7.441e-4l-0.00521-0.00893-0.00744-0.00744zm-4.8289 7.2894 0.30804-1.4665h0.00149l0.050595-0.24926 0.40774-1.9345c0.12723-0.04167 0.26563-0.08408 0.40923-0.12798l0.17857-0.05506-0.29464 2.0246h7.441e-4l-0.059524 0.40625-0.22991 1.5729c-0.022321 0.16369-0.1131 0.29688-0.24926 0.32887-0.069196 0.01637-0.14062 0.02307-0.20387 0.01116a0.50744 0.50744 0 0 1-0.16592-0.0744c-0.13467-0.086314-0.18824-0.26042-0.15327-0.43602zm2.2723-2.154a3.3408 3.3408 0 0 1-1.0789 0.4628l0.31845-2.1905 0.0067-0.0022a7.6116 7.6116 0 0 0 0.88616-0.32589c0.12574-0.05878 0.2381-0.12128 0.32589-0.18824a0.52307 0.52307 0 0 0 0.18824-0.23289c0.040179-0.10789 0.031994-0.23363 0.010417-0.35193a3.4226 3.4226 0 0 0-0.077385-0.31104l-0.014881-0.055804a1.5231 1.5231 0 0 1-0.064732-0.31027c-0.00446-0.085566 0.014881-0.12277 0.040923-0.14137 0.00744-0.00595 0.026786-0.016369 0.063244-0.029762 0.034226-0.013393 0.078125-0.026786 0.13021-0.041667 0.10417-0.029762 0.2381-0.0625 0.3869-0.096726l0.31845-0.070684c0.1808-0.040179 0.36682-0.081101 0.53423-0.12128 0.040923 0.41667 0.077381 0.99926-0.15848 1.7336l-7.441e-4 0.0037-0.00149 0.0045c-0.058036 0.27381-0.25818 0.67857-0.57515 1.0997a4.9107 4.9107 0 0 1-1.2381 1.1659zm0.056548-2.2173a6.9628 6.9628 0 0 1-0.78869 0.29241l7.44e-4 -0.0052-0.3006 0.09896-0.11161 0.03423c-0.1994 0.06176-0.39286 0.12054-0.55804 0.17708-0.13021 0.04464-0.24554 0.0878-0.33929 0.13095a0.65848 0.65848 0 0 0-0.21875 0.1436 0.25446 0.25446 0 0 0-0.064732 0.21354c0.011905 0.06771 0.049851 0.12574 0.087798 0.16964 0.037946 0.04539 0.083333 0.08482 0.11905 0.11607l0.010417 0.0082 0.00446 0.0045a1.7626 1.7626 0 0 1 0.057292 0.05208 0.089475 0.089475 0 0 0 0.13988-0.11161c-0.012649-0.01637-0.029762-0.03274-0.044643-0.04539l-0.037202-0.03274-0.00595-0.0052-0.00744-6e-3c-0.035714-0.03051-0.071429-0.0625-0.099702-0.09598a0.18973 0.18973 0 0 1-0.046875-0.08408c-0.00298-0.01637-0.00149-0.0372 0.02381-0.06696 0.020089-0.02232 0.069196-0.0558 0.15774-0.09673 0.078869-0.0372 0.17932-0.07515 0.29613-0.11533l-0.40625 1.9315c-0.48735-0.081845-0.99851-0.31324-1.5179-0.75149-0.17411-0.14658-0.43304-0.50521-0.65774-0.99628a4.8884 4.8884 0 0 1-0.4442-1.7411c-0.034226-0.64211 0.081845-1.3155 0.45982-1.936 0.37723-0.6183 1.0186-1.192 2.0461-1.6287 1.9754-0.58482 3.5952 0.43601 4.6071 1.5402a3.4613 3.4613 0 0 0 0.00521 0.011161 1.497 1.497 0 0 1 0.10045 0.23214c0.02381 0.069941 0.040923 0.1436 0.044643 0.21057 0.00372 0.066964-0.0067 0.11905-0.029762 0.15625a0.31845 0.31845 0 0 1-0.19048 0.13616c-0.042411 0.013393-0.089286 0.023066-0.14286 0.033482l-0.011161 0.00223-0.017113 0.00372c-0.044643 0.00893-0.094494 0.017857-0.14509 0.030506l-0.075893 0.018601v7.44e-4c-0.17113 0.041667-0.36235 0.084077-0.5506 0.12574l-0.32366 0.072173c-0.14881 0.034226-0.28646 0.066964-0.39583 0.098214-0.054316 0.015625-0.10417 0.03125-0.14435 0.046875a0.46875 0.46875 0 0 0-0.10417 0.051342c-0.10193 0.072173-0.12128 0.18973-0.11607 0.29688 0.00595 0.10714 0.037946 0.23065 0.070685 0.34896l0.016369 0.058036c0.029018 0.10119 0.056548 0.1994 0.072917 0.29167 0.020089 0.11161 0.020833 0.19792-0.00223 0.25893v0.0015l-0.00149 0.0015c-0.013393 0.04167-0.052083 0.09226-0.12798 0.14881a1.5699 1.5699 0 0 1-0.29241 0.1689z"
    clip-rule="evenodd"
    fill="#564341"
    fill-rule="evenodd"
  />
  <defs>
    <linearGradient
      id="b"
      x1="61.5"
      x2="57.23"
      y1="70.04"
      y2="69.44"
      gradientTransform="matrix(.074405 0 0 .074405 -.087825 .55963)"
      gradientUnits="userSpaceOnUse"
    >
      <stop stop-color="#FFE768" offset="0" />
      <stop stop-color="#FFE768" offset=".4" />
      <stop stop-color="#FFBD4A" offset=".7" />
      <stop stop-color="#FFBD4A" offset="1" />
    </linearGradient>
    <linearGradient
      id="c"
      x1="62.17"
      x2="70.66"
      y1="31.68"
      y2="52.47"
      gradientTransform="matrix(.074405 0 0 .074405 -.087825 .55963)"
      gradientUnits="userSpaceOnUse"
    >
      <stop stop-color="#FFBD4A" offset="0" />
      <stop stop-color="#FFBD4A" offset=".3" />
      <stop stop-color="#FFE768" offset=".66" />
      <stop stop-color="#FFE768" offset="1" />
    </linearGradient>
    <linearGradient
      id="d"
      x1="61.13"
      x2="61.38"
      y1="34.95"
      y2="42.09"
      gradientTransform="matrix(.074405 0 0 .074405 -.087825 .55963)"
      gradientUnits="userSpaceOnUse"
    >
      <stop stop-color="#FFF9CE" offset="0" />
      <stop stop-color="#fff" offset="1" />
    </linearGradient>
    <linearGradient
      id="e"
      x1="66.63"
      x2="66.75"
      y1="39.38"
      y2="42.91"
      gradientTransform="matrix(.074405 0 0 .074405 -.087825 .55963)"
      gradientUnits="userSpaceOnUse"
    >
      <stop stop-color="#FFF9CE" offset="0" />
      <stop stop-color="#fff" offset="1" />
    </linearGradient>
    <linearGradient
      id="f"
      x1="56.26"
      x2="61.89"
      y1="34.8"
      y2="52.4"
      gradientTransform="matrix(.074405 0 0 .074405 -.087825 .55963)"
      gradientUnits="userSpaceOnUse"
    >
      <stop stop-opacity="0" offset="0" />
      <stop offset="1" />
    </linearGradient>
    <linearGradient
      id="g"
      x1="79.06"
      x2="124.89"
      y1="129.48"
      y2="200.88"
      gradientTransform="matrix(.074405 0 0 .074405 -.087825 .55963)"
      gradientUnits="userSpaceOnUse"
    >
      <stop stop-color="#FFBC9C" offset="0" />
      <stop stop-color="#FFBC9C" offset=".7" />
      <stop stop-color="#FFA67A" offset="1" />
    </linearGradient>
    <linearGradient
      id="h"
      x1="124.07"
      x2="124.07"
      y1="164.1"
      y2="177.93"
      gradientTransform="matrix(.074405 0 0 .074405 -.087825 .55963)"
      gradientUnits="userSpaceOnUse"
    >
      <stop stop-color="#FFE768" offset="0" />
      <stop stop-color="#FFE768" offset=".4" />
      <stop stop-color="#FFBD4A" offset=".7" />
      <stop stop-color="#FFBD4A" offset="1" />
    </linearGradient>
    <linearGradient
      id="i"
      x1="56.29"
      x2="52.14"
      y1="157.34"
      y2="174.04"
      gradientTransform="matrix(.074405 0 0 .074405 -.087825 .55963)"
      gradientUnits="userSpaceOnUse"
    >
      <stop stop-color="#F28773" offset="0" />
      <stop stop-color="#F28773" offset=".3" />
      <stop stop-color="#F6A66A" offset="1" />
    </linearGradient>
    <linearGradient
      id="j"
      x1="62.9"
      x2="57.83"
      y1="165.36"
      y2="185.18"
      gradientTransform="matrix(.074405 0 0 .074405 -.087825 .55963)"
      gradientUnits="userSpaceOnUse"
    >
      <stop stop-color="#F28773" offset="0" />
      <stop stop-color="#F28773" offset=".3" />
      <stop stop-color="#F6A66A" offset="1" />
    </linearGradient>
    <linearGradient
      id="k"
      x1="76.8"
      x2="68.87"
      y1="173.42"
      y2="202.88"
      gradientTransform="matrix(.074405 0 0 .074405 -.087825 .55963)"
      gradientUnits="userSpaceOnUse"
    >
      <stop stop-color="#F28773" offset="0" />
      <stop stop-color="#F28773" offset=".3" />
      <stop stop-color="#F6A66A" offset="1" />
    </linearGradient>
    <linearGradient
      id="l"
      x1="159.83"
      x2="164.5"
      y1="185.06"
      y2="200.97"
      gradientTransform="matrix(.074405 0 0 .074405 -.087825 .55963)"
      gradientUnits="userSpaceOnUse"
    >
      <stop stop-color="#F57A55" offset="0" />
      <stop stop-color="#F28773" offset=".4" />
      <stop stop-color="#FA9F6E" offset="1" />
    </linearGradient>
    <linearGradient
      id="m"
      x1="167.66"
      x2="174.68"
      y1="176.2"
      y2="190.87"
      gradientTransform="matrix(.074405 0 0 .074405 -.087825 .55963)"
      gradientUnits="userSpaceOnUse"
    >
      <stop stop-color="#F57A55" offset="0" />
      <stop stop-color="#F28773" offset=".4" />
      <stop stop-color="#FA9F6E" offset="1" />
    </linearGradient>
    <linearGradient
      id="n"
      x1="174.02"
      x2="179.73"
      y1="170.05"
      y2="180.5"
      gradientTransform="matrix(.074405 0 0 .074405 -.087825 .55963)"
      gradientUnits="userSpaceOnUse"
    >
      <stop stop-color="#F57A55" offset="0" />
      <stop stop-color="#F28773" offset=".4" />
      <stop stop-color="#FA9F6E" offset="1" />
    </linearGradient>
    <linearGradient
      id="o"
      x1="137.6"
      x2="137.6"
      y1="39.19"
      y2="91.6"
      gradientTransform="matrix(.074405 0 0 .074405 -.087825 .55963)"
      gradientUnits="userSpaceOnUse"
    >
      <stop stop-color="#FFE768" offset="0" />
      <stop stop-color="#FFE768" offset=".4" />
      <stop stop-color="#FFBD4A" offset=".7" />
      <stop stop-color="#FFBD4A" offset="1" />
    </linearGradient>
    <linearGradient
      id="p"
      x1="148.81"
      x2="173.03"
      y1="86.6"
      y2="126.45"
      gradientTransform="matrix(.074405 0 0 .074405 -.087825 .55963)"
      gradientUnits="userSpaceOnUse"
    >
      <stop stop-color="#564341" offset="0" />
      <stop stop-color="#564341" offset=".5" />
      <stop stop-color="#845750" offset="1" />
    </linearGradient>
    <linearGradient
      id="q"
      x1="111.09"
      x2="135.47"
      y1="81.18"
      y2="122.03"
      gradientTransform="matrix(.074405 0 0 .074405 -.087825 .55963)"
      gradientUnits="userSpaceOnUse"
    >
      <stop stop-color="#564341" offset="0" />
      <stop stop-color="#564341" offset=".5" />
      <stop stop-color="#845750" offset="1" />
    </linearGradient>
    <linearGradient
      id="r"
      x1="169.07"
      x2="171.79"
      y1="169.58"
      y2="171.69"
      gradientTransform="matrix(.074405 0 0 .074405 -.087825 .55963)"
      gradientUnits="userSpaceOnUse"
    >
      <stop stop-color="#C35C45" offset="0" />
      <stop stop-color="#B76455" offset="1" />
    </linearGradient>
    <linearGradient
      id="s"
      x1="162.38"
      x2="165.71"
      y1="177.26"
      y2="181.6"
      gradientTransform="matrix(.074405 0 0 .074405 -.087825 .55963)"
      gradientUnits="userSpaceOnUse"
    >
      <stop stop-color="#C35C45" offset="0" />
      <stop stop-color="#B76455" offset="1" />
    </linearGradient>
    <linearGradient
      id="t"
      x1="99.39"
      x2="86.16"
      y1="182.89"
      y2="205.25"
      gradientTransform="matrix(.074405 0 0 .074405 -.087825 .55963)"
      gradientUnits="userSpaceOnUse"
    >
      <stop stop-color="#AA6160" offset="0" />
      <stop stop-color="#B36F5F" offset="1" />
    </linearGradient>
    <linearGradient
      id="u"
      x1="151.35"
      x2="154.74"
      y1="185.75"
      y2="193.31"
      gradientTransform="matrix(.074405 0 0 .074405 -.087825 .55963)"
      gradientUnits="userSpaceOnUse"
    >
      <stop stop-color="#C35C45" offset="0" />
      <stop stop-color="#B76455" offset="1" />
    </linearGradient>
    <linearGradient
      id="v"
      x1="77.47"
      x2="67.81"
      y1="170.99"
      y2="188.1"
      gradientTransform="matrix(.074405 0 0 .074405 -.087825 .55963)"
      gradientUnits="userSpaceOnUse"
    >
      <stop stop-color="#AA6160" offset="0" />
      <stop stop-color="#B36F5F" offset="1" />
    </linearGradient>
    <linearGradient
      id="w"
      x1="68.02"
      x2="60.05"
      y1="161.75"
      y2="176.31"
      gradientTransform="matrix(.074405 0 0 .074405 -.087825 .55963)"
      gradientUnits="userSpaceOnUse"
    >
      <stop stop-color="#AA6160" offset="0" />
      <stop stop-color="#B36F5F" offset="1" />
    </linearGradient>
    <linearGradient
      id="x"
      x1="207.23"
      x2="174.11"
      y1="112.02"
      y2="145.59"
      gradientTransform="matrix(.074405 0 0 .074405 -.087825 .55963)"
      gradientUnits="userSpaceOnUse"
    >
      <stop stop-color="#FFCB87" offset="0" />
      <stop stop-color="#FFCB87" offset=".1" />
      <stop stop-color="#FFBC9C" offset=".4" />
      <stop stop-color="#FFBC9C" offset="1" />
    </linearGradient>
    <linearGradient
      id="y"
      x1="203.79"
      x2="162.43"
      y1="103.24"
      y2="147.79"
      gradientTransform="matrix(.074405 0 0 .074405 -.087825 .55963)"
      gradientUnits="userSpaceOnUse"
    >
      <stop stop-color="#FBC38C" offset="0" />
      <stop stop-color="#F19675" offset=".3" />
      <stop stop-color="#F0876A" offset=".7" />
      <stop stop-color="#ED8870" offset="1" />
    </linearGradient>
    <linearGradient
      id="z"
      x1="182.65"
      x2="182.65"
      y1="118.08"
      y2="124.19"
      gradientTransform="matrix(.074405 0 0 .074405 -.087825 .55963)"
      gradientUnits="userSpaceOnUse"
    >
      <stop stop-color="#FFFFFE" offset="0" />
      <stop stop-color="#fff" offset="1" />
    </linearGradient>
    <linearGradient
      id="A"
      x1="197.03"
      x2="197.03"
      y1="108.83"
      y2="124.46"
      gradientTransform="matrix(.074405 0 0 .074405 -.087825 .55963)"
      gradientUnits="userSpaceOnUse"
    >
      <stop stop-color="#FFFFFE" offset="0" />
      <stop stop-color="#fff" offset="1" />
    </linearGradient>
    <linearGradient
      id="B"
      x1="26.14"
      x2="54.22"
      y1="71.32"
      y2="168.06"
      gradientTransform="matrix(.074405 0 0 .074405 -.087825 .55963)"
      gradientUnits="userSpaceOnUse"
    >
      <stop stop-color="#FFCB87" offset="0" />
      <stop stop-color="#FFCB87" offset=".2" />
      <stop stop-color="#FFBC9C" offset=".7" />
      <stop stop-color="#FFBC9C" offset="1" />
    </linearGradient>
    <linearGradient
      id="C"
      x1="3.02"
      x2="53.59"
      y1="102.25"
      y2="152.08"
      gradientTransform="matrix(.074405 0 0 .074405 -.087825 .55963)"
      gradientUnits="userSpaceOnUse"
    >
      <stop stop-color="#FFCB87" offset="0" />
      <stop stop-color="#F79E75" offset=".3" />
      <stop stop-color="#EF876D" offset=".5" />
      <stop stop-color="#ED8870" offset="1" />
    </linearGradient>
    <linearGradient
      id="D"
      x1="50.38"
      x2="50.97"
      y1="111.28"
      y2="128.36"
      gradientTransform="matrix(.074405 0 0 .074405 -.087825 .55963)"
      gradientUnits="userSpaceOnUse"
    >
      <stop stop-color="#FFFFFE" offset="0" />
      <stop stop-color="#fff" offset="1" />
    </linearGradient>
    <linearGradient
      id="E"
      x1="32.78"
      x2="33.91"
      y1="86.96"
      y2="119.34"
      gradientTransform="matrix(.074405 0 0 .074405 -.087825 .55963)"
      gradientUnits="userSpaceOnUse"
    >
      <stop stop-color="#FFF9CE" offset="0" />
      <stop stop-color="#fff" offset="1" />
    </linearGradient>
  </defs>
</svg>
