<!--
  Derived from vsc-material-theme-icons
  Licensed under Apache License 2.0
  http://www.apache.org/licenses/LICENSE-2.0

  Modified under GPLv3
-->
<svg viewBox="0 0 16 16" xmlns="http://www.w3.org/2000/svg">
  <path
    d="M 10.024575,3.5454543 C 8.8667476,6.6477268 6.7013438,8.7866155 3.5990714,9.8914133 2.0788695,10.430555 0.82381898,9.1136357 1.9462937,6.859848 3.1483137,4.4646462 4.9690206,2.7234847 7.4172528,1.671717 9.6091715,0.92929289 10.484171,1.786616 10.024575,3.5454543 Z M 9.5649795,5.8787874 v 0 c 0,0 5.1174235,-0.3535352 5.1174235,-0.3535352 C 14.558667,5.4015147 14.479122,5.3219693 14.399576,5.2601006 L 9.8301318,1.5833333 C 9.6798791,1.4595959 9.5826568,1.2739899 9.3882122,1 10.042252,1 10.563717,1 11.09402,1 c 0.636364,0.00884 1.290403,-0.0530304 1.909091,0.061869 1.334596,0.2474748 2.050506,1.1136364 2.02399,2.465909 -0.02652,1.272727 -0.786616,10.729797 -0.786616,10.729797 L 12.181141,12.42803 c 0,0 -0.15909,-0.176768 -0.256313,-0.238637 C 11.102859,11.667928 10.758161,10.881312 10.563717,9.9444436 10.236697,8.3623731 9.7505859,6.700757 9.5561412,5.8699491 Z M 5.5170004,9.6439383 C 7.284677,10.209595 9.0435152,10.775251 10.855383,11.349746 9.918515,12.295454 8.9109395,13.090907 7.7973033,13.806817 l 5.9747467,0.459596 v 0.07955 c 0,0 -9.695706,0.662879 -10.1022717,0.654041 C 1.9639705,14.964647 1.0005867,14.03662 0.97407148,12.321974 0.96523281,11.35859 1.0624561,10.395206 1.124324,9.4318224 c 0,-0.070707 0.1060606,-0.1414141 0.1679293,-0.2121212 0.088385,0.079546 0.2121213,0.1325758 0.2563131,0.2297983 0.5126262,1.1843425 1.6439393,3.8712115 1.6439393,3.8712115 0,0 0.7070706,-0.07071 1.0252523,-0.15909 0.1237375,-0.03536 0.27399,-0.185607 0.3181819,-0.318182 0.4330807,-1.308081 0.830808,-2.8901522 0.9810605,-3.208334 z"
    fill="#fc8289"
  />
</svg>
