<svg viewBox="0 0 16 16" xmlns="http://www.w3.org/2000/svg">
  <path
    d="m3.5972 6.2095c0.12212 0.16832 1.1519 0.48583 2.6879 0.81654 1.536 0.2944 3.1335 1.4568 4.3758 1.0984 0.8403-0.24292 1.7519-2.4074 1.7519-2.7288v-0.033005c0-0.22443-0.16832-0.40464-0.45415-0.55448-1.1717-0.59871-1.3935-0.81918-1.8278-0.6997-2.2549 0.62247-6.2359 0.3043-6.5336 2.1011z"
    fill="#7f0c1d"
  />
  <path
    d="m3.5972 10.604c0.12212 0.17096 1.1519 0.48583 2.6879 0.8172 1.7163 0.31289 3.2087 1.3327 4.4517 0.97364 0.8403-0.24292 1.676-2.2826 1.676-2.6047v-0.031684c0-0.22377-0.16832-0.40464-0.45415-0.55382-0.89377-0.47527-2.0747-0.99873-2.5084-0.87925-2.2589 0.62115-5.2781 0.75779-5.8531 2.2787z"
    fill="#7f0c1d"
  />
  <path
    d="m10.733 1.8495c-2.0767 0.60003-5.3712 0.93866-7.1462 0.93866v3.3896c5.939e-4 0.011684 0.00495 0.022773 0.012542 0.031685 1.2113 0 4.9507-0.39606 7.2069-1.0165 0.39348-0.10014 0.77931-0.22833 1.1545-0.38352 0.27592-0.1241 0.45415-0.2548 0.45415-0.39078v-3.4186c-0.00264 0.32213-0.84162 0.60729-1.6819 0.84955z"
    fill="#df311e"
  />
  <path
    d="m10.733 6.2451c-1.243 0.35843-2.9203 0.62511-4.4484 0.78089-1.0258 0.10496-1.9843 0.15974-2.6978 0.15974v3.387c5.939e-4 0.01168 0.00495 0.02277 0.012542 0.03168 1.2113 0 4.9507-0.39606 7.2069-1.0159 0.39342-0.10047 0.77918-0.22859 1.1545-0.38352 0.27592-0.12475 0.45415-0.25479 0.45415-0.39077v-3.4186c-0.0026 0.32147-0.84162 0.60663-1.6819 0.84955z"
    fill="#df311e"
  />
  <path
    d="m10.733 10.643c-1.243 0.35843-2.9203 0.62445-4.4484 0.7809-1.0271 0.10496-1.9869 0.15974-2.7005 0.15974v3.416c1.1987 0 4.9573-0.39276 7.2195-1.0159 0.8337-0.22971 1.6087-0.49111 1.6087-0.77495v-3.4186c0 0.32477-0.83898 0.60729-1.6793 0.85285z"
    fill="#df311e"
  />
</svg>
