<!--
  Derived from vsc-material-theme-icons
  Licensed under Apache License 2.0
  http://www.apache.org/licenses/LICENSE-2.0
-->
<svg viewBox="0 0 16 16" xmlns="http://www.w3.org/2000/svg">
  <path
    d="m9.7961 8.3222c-0.028295-0.15603-0.0091928-0.31698 0.054841-0.46207 0.060974-0.14228 0.16222-0.26362 0.29128-0.34908 0.12905-0.085468 0.28029-0.13133 0.43507-0.13194h0.04329c0.25514 0 0.49984-0.10136 0.68029-0.28178 0.18046-0.18043 0.28173-0.42513 0.28173-0.68028 0-0.25516-0.10128-0.49986-0.28173-0.68029-0.18045-0.18042-0.42515-0.28177-0.68029-0.28177h-0.08178c-0.15478-6.193e-4 -0.30602-0.046486-0.43507-0.13195-0.12905-0.085468-0.23031-0.20681-0.29128-0.34908v-0.038483c-0.064034-0.14508-0.083136-0.30602-0.054841-0.46207 0.028295-0.15605 0.10269-0.30003 0.21358-0.41341l0.028854-0.028866c0.08945-0.089341 0.16042-0.19545 0.20882-0.31224 0.04842-0.1168 0.07334-0.24199 0.07334-0.36842s-0.02492-0.25162-0.07334-0.3684c-0.048405-0.1168-0.11937-0.2229-0.20882-0.31225-0.089342-0.089451-0.19545-0.16041-0.31224-0.20882-0.1168-0.048417-0.24199-0.073336-0.36842-0.073336s-0.25162 0.024919-0.36842 0.073336c-0.11679 0.048417-0.2229 0.11937-0.31224 0.20882l-0.028866 0.028866c-0.11337 0.1109-0.25736 0.18528-0.41341 0.21357-0.15603 0.028295-0.31698 0.0091928-0.46207-0.054841-0.14228-0.060974-0.26362-0.16222-0.34908-0.29128-0.085468-0.12905-0.13133-0.28029-0.13194-0.43507v-0.043292c0-0.25515-0.10136-0.49986-0.28178-0.68028-0.18043-0.18042-0.42513-0.28178-0.68028-0.28178-0.25516 0-0.49986 0.10136-0.68029 0.28178-0.18042 0.18042-0.28177 0.42513-0.28177 0.68028v0.081776c-6.193e-4 0.15478-0.046486 0.30602-0.13195 0.43507-0.085468 0.12906-0.20681 0.23031-0.34908 0.29128h-0.038483c-0.14508 0.064034-0.30602 0.083136-0.46207 0.054841-0.15605-0.028295-0.30003-0.10269-0.41341-0.21357l-0.028866-0.028866c-0.089341-0.089451-0.19545-0.16041-0.31224-0.20882-0.1168-0.048417-0.24199-0.073336-0.36842-0.073336s-0.25162 0.024919-0.3684 0.073336c-0.1168 0.048417-0.2229 0.11937-0.31225 0.20882-0.089451 0.089354-0.16041 0.19545-0.20882 0.31224-0.048417 0.1168-0.073336 0.24199-0.073336 0.36842 0 0.12643 0.024919 0.25162 0.073336 0.36842 0.048417 0.11679 0.11937 0.2229 0.20882 0.31224l0.028866 0.028866c0.1109 0.11337 0.18528 0.25736 0.21357 0.41341 0.028295 0.15603 0.0091928 0.31699-0.054841 0.46207-0.054975 0.14948-0.15364 0.27895-0.28318 0.3716-0.12954 0.092657-0.28396 0.14419-0.44317 0.14791h-0.043292c-0.25515 0-0.49986 0.10136-0.68028 0.28178-0.18042 0.18043-0.28178 0.42513-0.28178 0.68028 0 0.25516 0.10136 0.49986 0.28178 0.68029 0.18042 0.18042 0.42513 0.28177 0.68028 0.28177h0.081776c0.15478 6.194e-4 0.30602 0.046486 0.43507 0.13195 0.12906 0.085468 0.23031 0.20681 0.29128 0.34908 0.064034 0.14508 0.083136 0.30603 0.054841 0.46207-0.028295 0.15605-0.10269 0.30003-0.21357 0.41341l-0.028866 0.028866c-0.089451 0.089341-0.16041 0.19545-0.20882 0.31224-0.048417 0.1168-0.073336 0.24199-0.073336 0.36842s0.024919 0.25162 0.073336 0.36842c0.048417 0.11679 0.11937 0.22289 0.20882 0.31224 0.089353 0.08945 0.19545 0.16041 0.31224 0.20882 0.1168 0.04842 0.24199 0.07334 0.36842 0.07334 0.12643 0 0.25162-0.02492 0.36842-0.07334 0.11679-0.04842 0.2229-0.11937 0.31224-0.20882l0.028866-0.02887c0.11337-0.11088 0.25736-0.18528 0.41341-0.21357 0.15603-0.028295 0.31699-0.00919 0.46207 0.054841 0.14948 0.054975 0.27895 0.15364 0.3716 0.28318 0.092657 0.12954 0.14419 0.28396 0.14791 0.44317v0.04329c0 0.25514 0.10136 0.49984 0.28178 0.68029 0.18043 0.18046 0.42513 0.28174 0.68028 0.28174 0.25516 0 0.49986-0.10128 0.68029-0.28174 0.18042-0.18046 0.28177-0.42515 0.28177-0.68029v-0.08178c6.194e-4 -0.15478 0.046486-0.30602 0.13195-0.43507 0.085468-0.12905 0.20681-0.23031 0.34908-0.29128 0.14508-0.064034 0.30603-0.083136 0.46207-0.054841 0.15605 0.028295 0.30003 0.10269 0.41341 0.21358l0.028866 0.02885c0.089341 0.08945 0.19545 0.16042 0.31224 0.20882 0.1168 0.04842 0.24199 0.07334 0.36842 0.07334s0.25162-0.02492 0.36842-0.07334c0.11679-0.04841 0.22289-0.11937 0.31224-0.20882 0.08945-0.08934 0.16041-0.19545 0.20882-0.31224 0.04842-0.1168 0.07334-0.24199 0.07334-0.36842s-0.02492-0.25162-0.07334-0.36842c-0.04842-0.11679-0.11937-0.2229-0.20882-0.31224l-0.02886-0.028866c-0.11089-0.11336-0.18528-0.25735-0.21358-0.4134zm-1.1735-1.8606c0 1.263-1.0238 2.2868-2.2868 2.2868-1.263 0-2.2868-1.0238-2.2868-2.2868 0-1.263 1.0238-2.2868 2.2868-2.2868 1.263 0 2.2868 1.0238 2.2868 2.2868z"
    fill="#cbcedc"
  />
  <path
    d="m14.442 12.389c-0.04675-0.07396-0.07019-0.16018-0.0674-0.24749 0.0017-0.08537 0.02842-0.16831 0.07675-0.23862 0.04833-0.07031 0.11609-0.12496 0.19515-0.15726l0.0221-9e-3c0.13042-0.0527 0.2345-0.15495 0.28951-0.28441 0.05489-0.12957 0.05623-0.27554 0.0035-0.40596-0.0527-0.13042-0.15495-0.23451-0.28453-0.28947-0.12945-0.05495-0.27542-0.05622-0.40584-0.0035l-0.04177 0.01688c-0.0793 0.03165-0.166 0.03944-0.24968 0.02241-0.08355-0.01704-0.16042-0.05814-0.22089-0.11827l-8e-3 -0.01967c-0.06266-0.06093-0.10565-0.13924-0.12338-0.22484-0.01773-0.08559-0.0095-0.17455 0.0238-0.2554l0.0087-0.02071c0.02732-0.06414 0.04165-0.13302 0.04226-0.20271 6.07e-4 -0.069693-0.01251-0.13881-0.03862-0.20344-0.02611-0.064617-0.06461-0.12345-0.11354-0.17315-0.04882-0.049692-0.10699-0.089269-0.17123-0.11647-0.06412-0.027263-0.13297-0.041629-0.20268-0.042248-0.06971-6.315e-4 -0.1388 0.012484-0.20341 0.038593-0.06461 0.026109-0.1235 0.06469-0.17317 0.11356-0.04967 0.048866-0.08926 0.10705-0.11646 0.17121l-0.0089 0.020705c-0.03497 0.080088-0.09326 0.14785-0.1671 0.19453-0.07396 0.04668-0.16018 0.070154-0.24749 0.067386-0.08537-0.0018-0.16831-0.028478-0.23862-0.076785-0.07022-0.04833-0.12487-0.11615-0.15717-0.19515l-9e-3 -0.022126c-0.05257-0.13041-0.15494-0.23454-0.28439-0.28951-0.12945-0.05495-0.27554-0.056225-0.40596-0.00353-0.1303 0.052679-0.2345 0.15503-0.28951 0.28449-0.05489 0.12948-0.05623 0.27547-0.0035 0.40588l0.01688 0.0418c0.03169 0.07924 0.03947 0.166 0.02247 0.24961-0.017 0.08361-0.05817 0.16041-0.11828 0.22096l-0.01967 0.0079c-0.06094 0.0627-0.13925 0.10569-0.22485 0.12345-0.0856 0.01777-0.17455 0.0095-0.25539-0.02379l-0.02071-0.0088c-0.06414-0.02727-0.13302-0.04163-0.20272-0.04226-0.069693-6.19e-4 -0.13883 0.0125-0.20344 0.03859-0.064617 0.02611-0.12345 0.0647-0.17315 0.11358-0.049704 0.04882-0.089281 0.10699-0.11647 0.17123-0.027275 0.06412-0.041629 0.13297-0.04226 0.20268-6.194e-4 0.0697 0.012496 0.1388 0.038605 0.20341 0.026109 0.0646 0.06469 0.1235 0.11356 0.17317 0.048854 0.04967 0.10703 0.08926 0.1712 0.11646l0.020717 0.0089c0.080088 0.03497 0.14784 0.09326 0.19453 0.1671 0.04668 0.07395 0.07015 0.16018 0.06739 0.24749 0.0028 0.0878-0.02092 0.17438-0.06801 0.24846-0.04707 0.07408-0.11535 0.13237-0.19596 0.1671l-0.022126 9e-3c-0.13041 0.05258-0.23454 0.15495-0.28951 0.28441-0.05495 0.12945-0.056225 0.27554-0.00353 0.40596 0.052692 0.13042 0.15503 0.2345 0.28449 0.28951 0.12948 0.05489 0.27547 0.05623 0.40588 0.0035l0.0418-0.01688c0.07924-0.0317 0.166-0.03947 0.24961-0.02247 0.08361 0.01712 0.16042 0.05817 0.22099 0.11828 0.06266 0.06096 0.10565 0.13929 0.12338 0.2249 0.01785 0.08561 0.0095 0.1745-0.0238 0.25538l-0.0087 0.02064c-0.02732 0.06412-0.04165 0.1331-0.04226 0.2028-6.07e-4 0.06958 0.01251 0.1388 0.03862 0.20341 0.02611 0.06461 0.06473 0.12338 0.11354 0.17317 0.04882 0.04967 0.10699 0.08926 0.17123 0.11646 0.06412 0.0272 0.13297 0.04165 0.20268 0.04226 0.06971 6.07e-4 0.1388-0.01251 0.20341-0.03862 0.0646-0.02611 0.1235-0.06473 0.17317-0.11354 0.04967-0.04894 0.08926-0.10711 0.11646-0.17123l0.0089-0.02077c0.03497-0.08003 0.09326-0.14779 0.1671-0.19454 0.07395-0.04663 0.16018-0.07007 0.24749-0.06728 0.0878-0.0028 0.17438 0.02089 0.24846 0.068 0.07408 0.047 0.13237 0.11524 0.1671 0.19588l9e-3 0.0221c0.0527 0.13042 0.15495 0.23462 0.28441 0.28951 0.12957 0.05501 0.27554 0.05623 0.40596 0.0036 0.13042-0.0527 0.2345-0.15508 0.28951-0.28453 0.05489-0.12945 0.05623-0.27554 0.0035-0.40584l-0.01688-0.0419c-0.03169-0.07918-0.03947-0.166-0.02247-0.24955 0.01712-0.08367 0.05817-0.16042 0.11828-0.22102 0.06096-0.06266 0.13929-0.10565 0.2249-0.12338 0.08561-0.01773 0.1745-0.0095 0.25538 0.0238l0.02065 0.0087c0.06424 0.02732 0.1331 0.04165 0.2028 0.04226 0.0697 6.07e-4 0.1388-0.01251 0.20341-0.03862 0.06461-0.02611 0.1235-0.06473 0.17317-0.11354 0.04967-0.04882 0.08926-0.10699 0.11646-0.17123 0.0272-0.06412 0.04165-0.13297 0.04226-0.20268 6.07e-4 -0.06971-0.01251-0.1388-0.03862-0.20341-0.02611-0.06461-0.06473-0.1235-0.11354-0.17317-0.04894-0.04967-0.10711-0.08926-0.17123-0.11646l-0.02077-0.0089c-0.08003-0.03497-0.14779-0.09326-0.19442-0.1671zm-0.9483-0.74963c0.2759 0.68296-0.05404 1.4602-0.737 1.7361-0.68284 0.2759-1.46-0.05404-1.7359-0.73688-0.27591-0.68284 0.05404-1.4602 0.73688-1.7361 0.68284-0.27587 1.4602 0.05404 1.7361 0.73688z"
    fill="#6b7394"
  />
</svg>
