<!--
  Derived from vsc-material-theme-icons
  Licensed under Apache License 2.0
  http://www.apache.org/licenses/LICENSE-2.0

  Modified under GPLv3
-->
<svg viewBox="0 0 16 16" xmlns="http://www.w3.org/2000/svg">
  <path
    d="m 7.2400334,3.3333332 c -0.412545,0 -0.7468768,0.3009066 -0.7468768,0.6721983 v 1.2938216 c 0,0.371035 0.3343318,0.6723034 0.7468768,0.6723034 h 1.483475 c 0.4125566,0 0.7474366,-0.3012684 0.7474366,-0.6723034 V 4.0055315 c 0,-0.3712917 -0.33488,-0.6721984 -0.7474366,-0.6721984 z m 3.6463006,2.047185 c -0.309867,0 -0.561191,0.2301133 -0.561191,0.513205 v 0.9872915 c 0,0.2833834 0.251324,0.5133335 0.561191,0.5133335 h 1.114632 c 0.309868,0 0.560934,-0.22995 0.560934,-0.5133335 V 5.8937232 c 0,-0.2830916 -0.251066,-0.513205 -0.560934,-0.513205 z m -6.9237474,0 c -0.309785,0 -0.5611316,0.2301133 -0.5611316,0.513205 v 0.9872915 c 0,0.2833834 0.2513466,0.5133335 0.5611316,0.5133335 h 1.114505 c 0.3097384,0 0.5612018,-0.22995 0.5612018,-0.5133335 V 5.8937232 c 0,-0.2830916 -0.2514634,-0.513205 -0.5612018,-0.513205 z m 3.2774468,1.1324366 c -0.412545,0 -0.7468768,0.3007318 -0.7468768,0.6722684 v 1.2937166 c 0,0.3712334 0.3343318,0.6723968 0.7468768,0.6723968 h 1.483475 c 0.4125566,0 0.7474366,-0.3011634 0.7474366,-0.6723968 V 7.1852231 c 0,-0.3715366 -0.33488,-0.6722684 -0.7474366,-0.6722684 z m 6.5135006,0.606515 c -0.230418,0 -0.417318,0.1708584 -0.417318,0.38185 v 0.73444 c 0,0.2105368 0.1869,0.3815118 0.417318,0.3815118 h 0.82915 C 14.8131,8.6172716 15,8.4462966 15,8.2357598 V 7.5013197 c 0,-0.2109916 -0.1869,-0.38185 -0.417316,-0.38185 z m -12.3361124,0 C 1.1870284,7.1194698 1,7.2903281 1,7.5013198 v 0.73444 C 1,8.4462966 1.1870284,8.6172716 1.4174216,8.6172716 H 2.24635 c 0.230685,0 0.4174916,-0.170975 0.4174916,-0.3815118 V 7.5013197 c 0,-0.2109916 -0.1868066,-0.38185 -0.4174916,-0.38185 z m 9.4689124,0.7729868 c -0.309867,0 -0.561191,0.2297516 -0.561191,0.5128782 v 0.9876068 c 0,0.2831616 0.251324,0.5130178 0.561191,0.5130178 h 1.114632 c 0.309868,0 0.560934,-0.2298562 0.560934,-0.5130178 V 8.4053348 c 0,-0.2831266 -0.251066,-0.5128783 -0.560934,-0.5128783 z m -6.9237474,0 c -0.309785,0 -0.5611316,0.2297516 -0.5611316,0.5128782 v 0.9876068 c 0,0.2831616 0.2513466,0.5130178 0.5611316,0.5130178 h 1.114505 c 0.3097384,0 0.5612018,-0.2298562 0.5612018,-0.5130178 V 8.4053348 c 0,-0.2831266 -0.2514634,-0.5128783 -0.5612018,-0.5128783 z m 9.7909474,1.24411 c -0.230418,0 -0.417318,0.1707532 -0.417318,0.3814881 V 10.25253 c 0,0.210537 0.1869,0.38157 0.417318,0.38157 h 0.82915 C 14.8131,10.6341 15,10.463067 15,10.25253 V 9.5180547 C 15,9.3073198 14.8131,9.1365666 14.582684,9.1365666 Z m -12.3361124,0 C 1.1870284,9.1365666 1,9.3073198 1,9.5180547 V 10.25253 c 0,0.210537 0.1870284,0.38157 0.4174216,0.38157 H 2.24635 c 0.230685,0 0.4174916,-0.171033 0.4174916,-0.38157 V 9.5180547 c 0,-0.2107349 -0.1868066,-0.3814881 -0.4174916,-0.3814881 z m 5.8226118,0.5283365 c -0.412545,0 -0.7468768,0.3010355 -0.7468768,0.6723969 v 1.293833 c 0,0.371234 0.3343318,0.672 0.7468768,0.672 h 1.483475 c 0.4125566,0 0.7474366,-0.300766 0.7474366,-0.672 V 10.3373 c 0,-0.3713613 -0.33488,-0.6723968 -0.7474366,-0.6723968 z M 10.886334,10.40485 c -0.309867,0 -0.561191,0.2296 -0.561191,0.51275 v 0.987467 c 0,0.283383 0.251324,0.5131 0.561191,0.5131 h 1.114632 c 0.309868,0 0.560934,-0.229717 0.560934,-0.5131 V 10.9176 c 0,-0.28315 -0.251066,-0.51275 -0.560934,-0.51275 z m -6.9237474,0 c -0.309785,0 -0.5611316,0.2296 -0.5611316,0.51275 v 0.987467 c 0,0.283383 0.2513466,0.5131 0.5611316,0.5131 h 1.114505 c 0.3097384,0 0.5612018,-0.229717 0.5612018,-0.5131 V 10.9176 c 0,-0.28315 -0.2514634,-0.51275 -0.5612018,-0.51275 z m 9.7909474,0.763933 c -0.230418,0 -0.417318,0.17115 -0.417318,0.382084 v 0.7343 c 0,0.210933 0.1869,0.3815 0.417318,0.3815 h 0.82915 C 14.8131,12.666667 15,12.4961 15,12.285167 v -0.7343 c 0,-0.210934 -0.1869,-0.382084 -0.417316,-0.382084 z m -12.3361124,0 C 1.1870284,11.168783 1,11.339933 1,11.550867 v 0.7343 c 0,0.210933 0.1870284,0.3815 0.4174216,0.3815 H 2.24635 c 0.230685,0 0.4174916,-0.170567 0.4174916,-0.3815 v -0.7343 c 0,-0.210934 -0.1868066,-0.382084 -0.4174916,-0.382084 z"
    fill="#89ddff"
  />
</svg>
