<!--
  Derived from vsc-material-theme-icons
  Licensed under Apache License 2.0
  http://www.apache.org/licenses/LICENSE-2.0

  Modified under GPLv3
-->
<svg viewBox="0 0 16 16" xmlns="http://www.w3.org/2000/svg">
  <g>
    <path
      d="M 7.9886245,7.3282685 7.5659487,8.668582 c -0.2253749,0.8320636 -0.2062126,1.0944763 -0.091899,1.2880894 0.028212,0.047564 0.105389,0.2032996 0.213225,0.6193386 0.1565754,0.602125 0.2944256,1.511377 0.2978006,1.554876 -0.02266,0.555753 -0.01041,1.144502 0.034524,1.708379 H 2.441142 c -0.6308007,0 -1.1469013,-0.516128 -1.1469013,-1.146879 V 2.3128873 c 0,-0.6307627 0.5161006,-1.1469636 1.1469013,-1.1469636 h 8.584237 C 9.7106254,2.5606003 8.4079374,5.2070285 7.9886245,7.3282685 Z M 14.048258,0.82624809 c 1.573126,1.40328981 0.01109,4.61139271 -1.422755,6.86963321 -1.042626,0.3350629 -2.257753,1.0750763 -2.257753,1.0750763 0,0 0.101134,-0.053676 0.476254,-0.2110377 0.254249,-0.1068882 1.013624,-0.2874257 1.476001,-0.3928883 -0.772001,1.1638641 -1.432504,1.9785154 -1.432504,1.9785154 0,0 -1.346787,0.547339 -1.7633253,1.820462 C 9.3656137,10.607884 9.7661784,9.1904455 10.3315,7.6799188 10.836254,6.3310048 12.522751,2.6884005 13.768757,1.5630616 12.401628,2.6526879 10.908004,4.9343281 9.8313284,7.778044 9.1940508,9.6618459 8.8491755,11.469263 8.793013,12.968011 c -0.037125,0.980502 0.047651,1.830626 0.2563253,2.47938 L 8.9528647,15.5 C 8.7481759,14.968766 8.560326,14.03526 8.6052634,12.12226 c -0.00675,-0.08536 -0.010775,-0.140873 -0.010775,-0.140873 0,0 -0.1242627,-0.836879 -0.3030254,-1.524427 C 8.212336,10.151778 8.1222245,9.8758134 8.0275993,9.7158884 c -0.048737,-0.082539 0.00532,-0.4215382 0.1413252,-0.9236388 0.2304002,0.401138 0.4789503,0.8353886 0.5744256,1.1907263 0,0 -0.1840877,-0.9472134 -0.4861632,-1.4999143 C 8.3233999,8.259607 8.4024878,8.0126191 8.4919878,7.7486063 8.7147878,8.1382192 8.9420255,8.5089697 9.0326633,8.8803201 8.933538,8.4059069 8.7993005,7.9334317 8.5902379,7.4650811 8.9702382,5.4876538 10.19338,2.8983759 11.511002,1.5005243 12.214382,0.75001066 13.183631,0.0783226 14.048258,0.82624809 Z"
      fill="#89ddff"
    />
    <path
      d="m 14.048258,0.82624809 c 1.573126,1.40328981 0.01109,4.61139271 -1.422755,6.86963321 -1.042626,0.3350629 -2.257753,1.0750763 -2.257753,1.0750763 0,0 0.101134,-0.053676 0.476254,-0.2110377 0.254249,-0.1068882 1.013624,-0.2874257 1.476001,-0.3928883 -0.772001,1.1638641 -1.432504,1.9785154 -1.432504,1.9785154 0,0 -1.3467874,0.547339 -1.7633129,1.820462 C 9.3656133,10.607884 9.766178,9.1904455 10.3315,7.6799188 10.836254,6.3310048 12.522751,2.6884005 13.768757,1.5630616 12.401628,2.6526879 10.908004,4.9343281 9.831328,7.778044 9.194063,9.6618459 8.8491751,11.469263 8.7930126,12.968011 c -0.037125,0.980502 0.047651,1.830626 0.2563253,2.47938 L 8.9528643,15.5 C 8.7481755,14.968766 8.5603256,14.03526 8.605263,12.12226 8.598513,12.0369 8.594488,11.981387 8.594488,11.981387 c 0,0 -0.1242627,-0.836879 -0.3030254,-1.524427 C 8.2123374,10.151777 8.122224,9.8758123 8.0275988,9.7158874 7.9788728,9.6333483 8.0329213,9.294349 8.1689239,8.7922486 c 0.2304127,0.4011379 0.478963,0.8353886 0.5744382,1.1907263 0,0 -0.1840875,-0.9472134 -0.4861757,-1.4999144 C 8.3233995,8.259607 8.4024998,8.0126191 8.4919996,7.7486063 8.7147874,8.1382192 8.9420251,8.5089697 9.0326753,8.8803201 8.9335376,8.4059069 8.7993125,7.9334317 8.59025,7.4650811 8.9702502,5.4876538 10.19338,2.8983759 11.511002,1.5005243 12.214382,0.75001066 13.183631,0.0783226 14.048258,0.82624809 Z"
      fill="#3965bd"
    />
  </g>
</svg>
