<!--
  Derived from vsc-material-theme-icons
  Licensed under Apache License 2.0
  http://www.apache.org/licenses/LICENSE-2.0

   Modified under GPLv3
-->
<svg viewBox="0 0 16 16" xmlns="http://www.w3.org/2000/svg">
  <path
    d="M 3.9394908,14.531597 3.3222977,1.7286357 11.039148,1.170861 10.831427,3.1405032 12.023794,2.5046113 13.017309,3.1405032 V 1.0289785 l -0.09018,0.00544 L 13.403024,1 V 15 Z M 9.2185209,6.4792818 11.2059,6.4293188 C 11.255239,4.4807612 10.255403,3.518973 8.5149167,3.518973 c -1.7404742,0 -2.7156275,0.9992604 -2.7156275,2.498151 0,1.501576 1.1026464,2.1559916 2.039478,2.7119801 0.6919003,0.4106335 1.2933426,0.7675818 1.2933426,1.3724969 0,0.399704 -0.1851504,0.637053 -0.5924989,0.637053 -0.5307822,0 -0.7406268,-0.349766 -0.715945,-1.3240448 h -2.086106 c -0.1604687,2.4107408 1.2343864,2.9603338 2.8267327,2.9603338 1.5429834,0 2.7526504,-0.724463 2.7526504,-2.298324 0,-1.6420344 -1.164876,-2.2945889 -2.1273881,-2.8337649 C 8.5120189,6.8633101 7.9347586,6.5399494 7.9347586,5.967161 c 0,-0.562084 0.3950077,-0.6370286 0.629534,-0.6370286 0.2468798,0 0.6912634,0.099926 0.6542283,1.1491494 z"
    fill="#ff9cac"
  />
</svg>
