<!--
  Derived from vsc-material-theme-icons
  Licensed under Apache License 2.0
  http://www.apache.org/licenses/LICENSE-2.0

  Modified under GPLv3
-->
<svg viewBox="0 0 16 16" xmlns="http://www.w3.org/2000/svg">
  <path
    d="m 13.085938,1.0878906 c -0.365213,0 -0.734772,0.1719212 -1.101563,0.4726563 -0.361696,0.2962613 -0.718058,0.6758253 -1.068359,1.140625 C 10.566617,3.1644615 10.231892,3.6848885 9.9101563,4.2597656 9.588737,4.834057 9.3055151,5.4116645 9.0605469,5.9902344 8.8155742,6.568487 8.61777,7.1178492 8.4707031,7.640625 8.324037,8.1610433 8.2480469,8.6110114 8.2480469,8.9785156 c 0,0.1551528 0.033929,0.2977925 0.1152344,0.4179688 0.101533,0.1503355 0.2724909,0.2070312 0.453125,0.2070312 0.2166008,0 0.4364522,-0.099312 0.6484375,-0.2578125 C 9.6793395,9.1856194 9.864733,8.9887368 10.021484,8.7519531 A 0.2,0.2 0 0 0 10.048828,8.6875 C 10.06869,8.6060365 10.0592,8.5059771 9.9824219,8.4277344 9.9713005,8.4165625 9.9574677,8.405424 9.953125,8.4023438 a 0.2,0.2 0 0 0 -0.013672,-0.00781 C 9.9038152,8.3716682 9.8567546,8.3549486 9.8046875,8.3554688 a 0.2,0.2 0 0 0 -0.019531,0 c -0.03477,0.00383 -0.081117,0.018947 -0.1171875,0.042969 a 0.2,0.2 0 0 0 -0.048828,0.046875 C 9.5163175,8.5836702 9.4262113,8.6816635 9.359375,8.7402344 c -0.040881,0.035862 -0.069515,0.050929 -0.09375,0.056641 -0.00611,-0.024145 -0.011719,-0.066401 -0.011719,-0.1230469 0,-0.3911049 0.049951,-0.8301756 0.1523437,-1.3144531 C 9.5089287,6.8734926 9.6484432,6.3850385 9.8261719,5.890625 10.003659,5.3967299 10.215341,4.9149172 10.457031,4.4492187 c 0.24088,-0.4641535 0.498144,-0.8712557 0.771485,-1.2246093 0.273006,-0.3525992 0.550088,-0.6329122 0.832031,-0.8417969 0.274562,-0.2034581 0.529282,-0.2949219 0.775391,-0.2949219 0.133858,0 0.210495,0.030066 0.232421,0.046875 0.0097,0.00746 0.01381,0.015046 0.01563,0.017578 h 0.002 c 1.9e-5,5.397e-4 -6.91e-4,0.00216 -0.002,0.00977 a 0.2,0.2 0 0 0 0.0078,0.095703 c 0.02274,0.069599 0.0655,0.120545 0.121094,0.1582031 0.03231,0.02167 0.06634,0.034987 0.09766,0.041016 a 0.2,0.2 0 0 0 0.01758,0.00195 c 0.0083,8.191e-4 0.03712,0.00399 0.07422,-0.00391 a 0.2,0.2 0 0 0 0.02148,-0.00586 c -0.001,3.537e-4 0.01192,-0.00372 0.02539,-0.00977 a 0.2,0.2 0 0 0 0.01758,-0.00781 c 0.01337,-0.00771 0.0169,-0.011141 0.01953,-0.013672 0,0 0.002,-0.00195 0.002,-0.00195 A 0.2,0.2 0 0 0 13.5,2.4082031 c 0,0 0.002,0 0.002,0 0,0 0,-0.00195 0,-0.00195 0,0 0.002,0 0.002,0 0.0041,-0.00325 0.01157,-0.00958 0.01758,-0.015625 a 0.2,0.2 0 0 0 0.03125,-0.042969 c 0.0761,-0.1361748 0.12456,-0.2745789 0.146485,-0.4160157 0.02096,-0.1359401 0.02117,-0.2713008 -0.01367,-0.3964844 -0.03606,-0.1295561 -0.103623,-0.2383305 -0.208984,-0.3222656 -0.112044,-0.088958 -0.244049,-0.125 -0.390625,-0.125 z"
    fill="#c3e88d"
  />
  <path
    d="m 7.1835937,6.3964844 c -0.2169083,0 -0.4341022,0.095829 -0.6484375,0.2558593 C 6.3199038,6.8129921 6.1349191,7.0119975 5.9785156,7.2480469 A 0.2,0.2 0 0 0 5.9492187,7.3125 c -0.019756,0.081246 -0.00803,0.1819181 0.068359,0.2597656 0.011122,0.011172 0.024955,0.022311 0.029297,0.025391 a 0.2,0.2 0 0 0 0.013672,0.00781 c 0.037552,0.024091 0.097525,0.045738 0.1582031,0.039063 a 0.2,0.2 0 0 0 0.019531,-0.00391 c 0.031172,-0.00648 0.06387,-0.019164 0.09375,-0.039063 a 0.2,0.2 0 0 0 0.048828,-0.046875 C 6.4837114,7.4163564 6.5737737,7.3183497 6.640625,7.2597656 c 0.040848,-0.035863 0.069487,-0.050946 0.09375,-0.056641 0.0061,0.024148 0.011719,0.066384 0.011719,0.1230469 0,0.3910292 -0.049969,0.8302042 -0.1523437,1.3144531 -0.1027534,0.4859152 -0.2422018,0.974329 -0.4199219,1.46875 -0.1774196,0.493887 -0.3891643,0.975689 -0.6308594,1.441406 -0.2407756,0.464207 -0.4981242,0.87125 -0.7714843,1.22461 -0.2729963,0.352653 -0.5502685,0.633145 -0.8320313,0.841797 -0.2745741,0.203462 -0.5293716,0.294921 -0.7753906,0.294921 -0.1338224,0 -0.2107559,-0.03029 -0.2324219,-0.04687 -0.00973,-0.0075 -0.013785,-0.01501 -0.015625,-0.01758 h -0.00195 c 0,0 0,-0.002 0,-0.002 3.35e-4,-0.0014 0.00132,-0.004 0.00195,-0.0078 a 0.2,0.2 0 0 0 -0.00781,-0.0957 c -0.022528,-0.06905 -0.064277,-0.121399 -0.1191406,-0.158204 -0.033864,-0.02302 -0.067703,-0.03519 -0.097656,-0.04101 a 0.2,0.2 0 0 0 -0.019531,-0.002 c -0.00837,-8.34e-4 -0.036881,-0.0041 -0.074219,0.0039 a 0.2,0.2 0 0 0 -0.021484,0.0059 c 0.0021,-7.05e-4 -0.011229,0.0034 -0.025391,0.0098 a 0.2,0.2 0 0 0 -0.017578,0.0078 c -0.016525,0.0096 -0.016917,0.01095 -0.023437,0.01563 A 0.2,0.2 0 0 0 2.5,13.591797 h -0.00195 a 0.2,0.2 0 0 0 -0.00195,0.002 c -0.00414,0.0033 -0.01152,0.0095 -0.017578,0.01563 a 0.2,0.2 0 0 0 -0.03125,0.04297 c -0.076215,0.136682 -0.1243354,0.273919 -0.1464843,0.416015 -0.020929,0.135985 -0.020967,0.271204 0.013672,0.396485 0.036076,0.129415 0.1035642,0.238349 0.2089844,0.322265 0.1119902,0.08891 0.2440053,0.125 0.390625,0.125 0.365154,0 0.7363399,-0.171728 1.1035156,-0.472656 0.3620159,-0.2964 0.7163074,-0.67609 1.0664063,-1.140625 C 5.4332932,12.83563 5.7681513,12.315118 6.0898437,11.740234 6.4112749,11.165943 6.6944861,10.588368 6.9394531,10.009766 7.1844263,9.4315238 7.3822252,8.8821833 7.5292969,8.359375 7.6759545,7.8387883 7.7519531,7.3889781 7.7519531,7.0214844 c 0,-0.1551615 -0.03403,-0.2977345 -0.1152344,-0.4179688 C 7.5351782,6.4531706 7.3642201,6.3964844 7.1835937,6.3964844 Z"
    fill="#c3e88d"
  />
</svg>
