<!--
  Derived from vsc-material-theme-icons
  Licensed under Apache License 2.0
  http://www.apache.org/licenses/LICENSE-2.0

  Modified under GPLv3
-->
<svg viewBox="0 0 16 16" xmlns="http://www.w3.org/2000/svg">
  <path
    d="M 8.0952071,14.633732 C 9.6262942,9.1682155 9.5818912,9.1434536 10.688647,5.2464714 l 0.266091,0.1534232 c 0.14462,0.083381 0.263052,0.015199 0.263052,-0.1511201 V 3.3903112 C 11.511472,2.3634875 11.741554,1.570043 11.809012,1.331473 h 1.199046 L 15,3.1735803 13.691758,4.3021756 14.680948,5.3698132 8.1613674,14.633615 c -0.03187,0.05238 -0.07625,0.04033 -0.06616,0 z"
    fill="#6b7394"
  />
  <path
    d="M 10.795388,1.7988976 9.0235794,2.8199575 c 0.020565,0.031216 0.033063,0.067166 0.033063,0.106378 v 0.9524678 c 0,0.04943 -0.019197,0.093974 -0.050833,0.129924 l 1.7895796,1.0313014 c 0.121939,0.070322 0.222015,0.01279 0.222015,-0.1276793 V 1.9267171 c 0,-0.1406096 -0.09996,-0.1979665 -0.222016,-0.1278195 z M 6.947333,3.8787449 V 2.9263121 c 0,-0.039013 0.012498,-0.074964 0.032829,-0.1061792 L 5.2083768,1.7989093 C 5.0864496,1.7287506 4.9864785,1.7861542 4.9864785,1.9267288 V 4.912326 c 0,0.1404344 0.099831,0.1981069 0.2218983,0.127539 L 6.9978272,4.0084701 C 6.9663545,3.972508 6.9472979,3.9280699 6.9472979,3.8786397 Z M 8.8074565,2.8532774 c 0.0589,0 0.1069742,0.032501 0.1069742,0.072836 v 0.9524328 c 0,0.040229 -0.048074,0.07293 -0.1069392,0.07293 H 7.1969161 c -0.059192,0 -0.1071379,-0.03256 -0.1071379,-0.07293 V 2.9261133 c 0,-0.040206 0.04791,-0.072836 0.1071379,-0.072836 h 1.6105754 z"
    fill="#fc8289"
  />
  <path
    d="m 7.8386561,14.633732 h 0.06616 C 6.373963,9.1682155 6.418027,9.1434536 5.3113644,5.2464714 L 5.0451915,5.3998946 C 4.9006653,5.483276 4.7822805,5.4150931 4.7822805,5.2487745 V 3.3903112 C 4.4885165,2.3634875 4.2584577,1.570043 4.190836,1.331473 H 2.9918715 L 1.0000003,3.1735803 2.3080667,4.3021756 1.3188769,5.3698132 Z"
    fill="#6b7394"
  />
  <path
    d="m 7.9514758,5.9402136 c 0.2670731,0 0.4835819,-0.2161346 0.4835819,-0.4827517 0,-0.2666054 -0.2165088,-0.4827401 -0.4835819,-0.4827401 -0.267073,0 -0.4835818,0.2161347 -0.4835818,0.4827401 0,0.2666171 0.2165088,0.4827517 0.4835818,0.4827517 z"
    fill="#8e95b4"
  />
  <path
    d="m 7.9514758,8.8107347 c 0.2670731,0 0.4835819,-0.2161347 0.4835819,-0.4827401 0,-0.2666171 -0.2165088,-0.4827517 -0.4835819,-0.4827517 -0.267073,0 -0.4835818,0.2161346 -0.4835818,0.4827517 0,0.2666054 0.2165088,0.4827401 0.4835818,0.4827401 z"
    fill="#8e95b4"
  />
  <path
    d="m 7.9514758,11.681127 c 0.2670614,0 0.4835585,-0.216053 0.4835585,-0.482728 0,-0.266559 -0.2164971,-0.482612 -0.4835585,-0.482612 -0.2670613,0 -0.4835467,0.216053 -0.4835467,0.482612 0,0.266675 0.2164854,0.482728 0.4835467,0.482728 z"
    fill="#8e95b4"
  />
</svg>
