<!--
  Derived from vsc-material-theme-icons
  Licensed under Apache License 2.0
  http://www.apache.org/licenses/LICENSE-2.0

  Modified under GPLv3
-->
<svg viewBox="0 0 16 16" xmlns="http://www.w3.org/2000/svg">
  <path
    fill="#ffffff"
    d="M 4.8883436,4.4957055 9.4429448,1.7079755 12.525153,3.6319018 12.053988,11.092025 5.9092025,14.213497 3.2588957,11.877301 3.7693252,5.398773 Z"
  />
  <path
    d="m 10.452991,1.0954471 c 1.064767,0.2287315 2.00226,0.8548758 2.621394,1.7508215 l 0.0053,-0.00467 c 0.308927,0.4323227 0.528307,0.9219827 0.645334,1.4402413 0.117027,0.5182703 0.129253,1.0546826 0.03621,1.5777738 -0.09001,0.5002563 -0.280514,0.9770607 -0.560097,1.4015468 0.407322,0.7774172 0.543795,1.6684606 0.387759,2.5321396 -0.09176,0.5134379 -0.289829,1.0020139 -0.581405,1.4344889 -0.291693,0.432358 -0.670487,0.799157 -1.112043,1.076644 l -3.26453,2.080162 C 7.6984424,14.94737 6.5864692,15.133331 5.521656,14.904518 4.4568311,14.675822 3.519338,14.049585 2.9002851,13.153545 2.5916146,12.722003 2.3721054,12.233169 2.2545898,11.715808 2.1370742,11.198329 2.1239044,10.662686 2.2158604,10.140188 2.3057554,9.6399203 2.4962816,9.1631043 2.7758994,8.7386298 2.3682045,7.9615621 2.2313359,7.070705 2.3869637,6.2070842 2.4787916,5.693658 2.6768751,5.2050693 2.9685098,4.7726533 3.2601446,4.3402258 3.6389029,3.9734961 4.0805064,3.6959627 L 7.3437881,1.6152428 C 8.2762623,1.0526072 9.388189,0.86671554 10.452991,1.0954471 Z M 5.4714801,13.250544 c 0.4976248,0.184331 1.0398476,0.211695 1.5534717,0.07813 l -0.00117,-5.83e-4 c 0.2347518,-0.06289 0.4584762,-0.161392 0.6634065,-0.291925 l 3.2644237,-2.079579 c 0.265143,-0.166865 0.492558,-0.387178 0.667808,-0.646953 0.175131,-0.259729 0.294138,-0.5531456 0.349565,-0.86149 0.05601,-0.314423 0.04879,-0.6368689 -0.02142,-0.9484389 C 11.877337,8.1881394 11.745639,7.8937216 11.560143,7.6337248 11.25762,7.1977107 10.828524,6.8650293 10.330957,6.6806049 9.8333206,6.4961804 9.2910977,6.4688858 8.7774735,6.6024125 8.5426985,6.6652226 8.3189625,6.7636996 8.1140671,6.8943967 L 6.8684391,7.6880344 C 6.8065028,7.727218 6.7389647,7.7567595 6.6681317,7.775624 6.5133073,7.8158203 6.3498661,7.8075296 6.1998858,7.7518691 6.0499172,7.6962088 5.9206524,7.5958455 5.8295347,7.4643681 5.7736763,7.3859197 5.7340038,7.2971309 5.7128458,7.203172 5.6916879,7.1092247 5.6894755,7.0119937 5.7063249,6.9171732 5.7230231,6.8242855 5.7589112,6.7359043 5.8117071,6.657677 5.8644913,6.5794497 5.9330188,6.5130881 6.0129112,6.4628424 L 9.2761929,4.3803642 c 0.061914,-0.03923 0.1294627,-0.068772 0.2003074,-0.08759 0.1548244,-0.04029 0.3183005,-0.032033 0.4682809,0.023638 0.1499918,0.055673 0.2792568,0.1560703 0.3703158,0.2876175 0.09958,0.1412352 0.146161,0.3130954 0.131373,0.4852932 l -0.01106,0.1208809 0.121451,0.036784 c 0.458791,0.1384645 0.890566,0.3543405 1.276579,0.6382899 l 0.166981,0.1226392 0.06137,-0.187452 c 0.03295,-0.099723 0.05915,-0.2015652 0.07825,-0.3048396 0.05601,-0.3144229 0.04879,-0.6368688 -0.02142,-0.9484272 C 12.048394,4.255629 11.916695,3.9612112 11.731199,3.7012028 11.428678,3.2651887 10.999696,2.9325073 10.502014,2.7480828 10.004424,2.5636468 9.462201,2.5363638 8.9485768,2.6698905 8.7138368,2.7327937 8.4901123,2.8312706 8.285182,2.9618746 L 5.0207242,5.0420123 C 4.755173,5.2092263 4.5274894,5.4301095 4.3523106,5.6904789 4.1771202,5.9508368 4.0582888,6.2449518 4.0034319,6.5539367 c -0.056068,0.314423 -0.04879,0.6368689 0.021402,0.9484506 0.070193,0.3115699 0.2019027,0.6059877 0.3873869,0.8659846 0.3025339,0.436014 0.7315847,0.7686837 1.2291977,0.9531199 0.4976247,0.1844245 1.0398476,0.2117073 1.5534718,0.078181 0.2347052,-0.062973 0.4584296,-0.1614383 0.6633948,-0.291984 l 1.245628,-0.79422 c 0.061926,-0.039218 0.1294745,-0.068761 0.2003076,-0.08759 0.154836,-0.040197 0.3182772,-0.031905 0.4682458,0.023754 0.1499686,0.055671 0.2792455,0.1560237 0.3703515,0.287501 0.05594,0.078425 0.09569,0.1671908 0.116945,0.2611379 0.02126,0.093959 0.02359,0.1911899 0.0069,0.2860572 -0.01677,0.092865 -0.05269,0.1812105 -0.105475,0.2594378 -0.05278,0.078215 -0.121276,0.1445889 -0.201111,0.1948929 L 6.698542,11.617645 c -0.061914,0.03924 -0.1294629,0.06881 -0.2003076,0.08757 -0.1548194,0.04029 -0.3182955,0.03202 -0.4682758,-0.02364 C 5.8799202,11.625912 5.7506553,11.525538 5.6596075,11.393956 5.5597449,11.253058 5.5129925,11.081303 5.5276179,10.909315 L 5.538715,10.788329 5.417252,10.751649 C 4.9584964,10.61308 4.5267558,10.397193 4.1406732,10.113301 L 3.9730631,9.9906622 3.9117436,10.178126 c -0.033093,0.09968 -0.059246,0.201483 -0.078251,0.304886 -0.056033,0.314399 -0.048744,0.636834 0.021449,0.948322 0.070193,0.311605 0.2018795,0.606093 0.3873403,0.865997 0.3025339,0.436083 0.7315845,0.768765 1.2291982,0.953213 z"
    fill="#ff3e00"
  />
</svg>
