<!--
  Derived from vsc-material-theme-icons
  Licensed under Apache License 2.0
  http://www.apache.org/licenses/LICENSE-2.0

  Modified under GPLv3
-->
<svg viewBox="0 0 16 16" xmlns="http://www.w3.org/2000/svg">
  <g>
    <path
      d="M 3.5119107,3.9416137 C 3.3344468,4.4598461 2.8556051,4.8311292 2.2927338,4.8311292 1.5787803,4.8311292 1,4.233763 1,3.4968795 1,2.759996 1.5787803,2.1626298 2.2927338,2.1626298 c 0.5628597,0 1.0417012,0.3712713 1.2191652,0.889492 h 7.509104 v 0.044662 c 0.343069,-0.02961 0.697646,-0.044662 1.064079,-0.044662 v 0.8028791 c -0.368078,0 -0.722653,0.016038 -1.064079,0.047563 v 0.03905 H 10.665136 C 7.9832281,4.2836971 6.1525958,5.6227253 4.9999665,7.668052 4.5263848,8.5084318 4.2031456,9.4120246 4.00382,10.315957 c -0.069729,0.316184 -0.1188885,0.609237 -0.1509764,0.871176 -0.018927,0.154511 -0.027896,0.262175 -0.030492,0.315245 L 3.03645,11.462338 C 3.04,11.389898 3.050622,11.262389 3.072037,11.087567 3.107189,10.800619 3.160623,10.482206 3.2361281,10.139723 3.4517503,9.1619194 3.8016648,8.1837718 4.3178191,7.2678511 5.1422429,5.8049092 6.2893893,4.6651243 7.7921916,3.9416137 Z"
      fill="#6b7394"
    />
    <path
      d="m 3.6315859,10.345075 c -1.1290302,0 -2.0404894,0.904286 -2.0404894,2.022608 v 0.02054 c 0,1.116913 0.9145236,2.022726 2.0404894,2.022726 1.1290301,0 2.0404895,-0.904403 2.0404895,-2.022726 v -0.02054 c 0,-1.116796 -0.9145237,-2.022608 -2.0404895,-2.022608 z m -0.8744988,2.043154 v -0.02054 c 0,-0.477855 0.3881665,-0.865305 0.8744988,-0.865305 0.4829744,0 0.8744988,0.388625 0.8744988,0.865305 v 0.02054 c 0,0.477973 -0.3881547,0.865424 -0.8744988,0.865424 -0.4829744,0 -0.8744988,-0.388742 -0.8744988,-0.865424 z"
      fill="#ff9cac"
    />
    <path
      d="m 12.959545,1.5890507 c -1.129006,0 -2.040453,0.9043208 -2.040453,2.0226667 v 0.020523 c 0,1.1168197 0.914499,2.0226549 2.040453,2.0226549 C 14.088552,5.6548952 15,4.7505745 15,3.6322403 V 3.6117174 C 15,2.4948861 14.0855,1.5890507 12.959545,1.5890507 Z m -0.874463,2.0431781 v -0.020523 c 0,-0.4779141 0.388155,-0.8653409 0.874463,-0.8653409 0.483023,0 0.874464,0.3886479 0.874464,0.8653409 v 0.020523 c 0,0.4779141 -0.388154,0.8653409 -0.874464,0.8653409 -0.483021,0 -0.874463,-0.3886479 -0.874463,-0.8653409 z"
      fill="#ff9cac"
    />
  </g>
</svg>
