<svg viewBox="0 0 16 16" xmlns="http://www.w3.org/2000/svg">
  <path
    fill="#f05138"
    d="m 15.016965,4.8737035 a 19.463521,19.463521 0 0 0 -0.0063,-0.4229613 C 15.002407,4.1436711 14.984179,3.8337676 14.929662,3.530236 14.874406,3.2217487 14.783776,2.9347387 14.641216,2.6545754 A 2.9418446,2.9418446 0 0 0 13.354152,1.3677536 C 13.074225,1.2251932 12.787451,1.1347945 12.4792,1.0793284 12.175196,1.0245697 11.865528,1.0066318 11.558221,0.99837067 a 20.230846,20.230846 0 0 0 -0.42296,-0.00637 c -0.167817,-9.396e-4 -0.335396,-9.396e-4 -0.502267,-9.396e-4 H 5.384927 c -0.1675796,0 -0.3349233,0 -0.502267,9.369e-4 -0.1409079,9.369e-4 -0.2820526,0.00237 -0.4229605,0.00637 -0.076709,0.00214 -0.1536542,0.00473 -0.2308349,0.0085 C 3.9980297,1.0179631 3.766487,1.0382606 3.538721,1.0793301 3.3074137,1.1208727 3.0883809,1.1822384 2.8752473,1.2705122 A 2.9510497,2.9510497 0 0 0 1.9181572,1.9092034 2.9409005,2.9409005 0 0 0 1.3767107,2.6545775 C 1.2341503,2.9347429 1.1439873,3.2215158 1.088285,3.5302391 1.0337603,3.8337707 1.0155886,4.1436742 1.0073273,4.4507453 a 20.243356,20.243356 0 0 0 -0.00637,0.4229613 c -0.001154,0.1675793 -9.37e-4,0.3349225 -9.37e-4,0.5022657 v 5.2480687 c 0,0.16758 0,0.334687 9.37e-4,0.502267 9.37e-4,0.140908 0.00237,0.281816 0.00637,0.422724 0.00827,0.307308 0.026434,0.617212 0.080958,0.920743 0.055467,0.308487 0.1458653,0.595497 0.2884257,0.875661 a 2.9401924,2.9401924 0 0 0 1.2870566,1.287057 c 0.2799288,0.142325 0.5667019,0.232723 0.8749537,0.287954 0.303767,0.05476 0.6136709,0.07317 0.9209785,0.08119 0.1409079,0.0037 0.2820526,0.0054 0.4231973,0.0063 0.1673436,0.0011 0.3344506,10e-4 0.5020302,10e-4 H 10.63299 c 0.167343,0 0.334686,0 0.502267,-10e-4 0.140908,-10e-4 0.281816,-0.0026 0.42296,-0.0063 0.307307,-0.0082 0.616975,-0.02644 0.920979,-0.08096 0.308251,-0.05546 0.595025,-0.145865 0.874952,-0.288425 a 2.9411366,2.9411366 0 0 0 1.287062,-1.286825 c 0.14256,-0.280164 0.232958,-0.567174 0.288426,-0.875661 0.05452,-0.303532 0.07269,-0.613672 0.08096,-0.920506 0.0037,-0.141146 0.0054,-0.281818 0.0063,-0.422962 0.001,-0.16758 0.001,-0.334922 0.001,-0.502502 V 5.3759629 c 0,-0.1675782 0,-0.3349224 -0.001,-0.5022656 z"
  />
  <path
    fill="#ffffff"
    d="m 12.107457,9.6438158 -10e-4,-0.001 c 0.01558,-0.052865 0.03163,-0.1052688 0.04508,-0.1593192 C 12.733348,7.1654714 11.313644,4.424959 8.91065,2.981888 9.9635669,4.4093806 10.429249,6.1385175 10.015494,7.6505084 9.9786744,7.7852805 9.9343056,7.9148588 9.8852067,8.0406615 9.8321035,8.0057342 9.7648318,7.9660758 9.6751417,7.916275 c 0,0 -2.3902484,-1.4756432 -4.9808837,-4.0861052 C 4.6262824,3.761719 6.0754899,5.9017814 7.7206006,7.6396507 6.9454861,7.2046525 4.7858364,5.6334183 3.4185298,4.3820013 3.5865814,4.6621662 3.7862602,4.9319455 4.006002,5.1915751 5.1476668,6.639603 6.6367617,8.4258579 8.4206572,9.7981208 7.1673519,10.56521 5.3962029,10.624689 3.6328427,9.7988362 A 7.2332935,7.2332935 0 0 1 2.4071551,9.0676341 c 0.7463184,1.1938279 1.8960086,2.2240859 3.2949425,2.8252469 1.6687122,0.717289 3.3279842,0.668666 4.5638234,0.0118 l -0.001,0.0017 c 0.0056,-0.0037 0.01298,-0.0076 0.01888,-0.0111 0.05051,-0.02738 0.101018,-0.05523 0.150114,-0.0845 0.593844,-0.308252 1.766664,-0.620753 2.396149,0.603993 0.154362,0.299755 0.481731,-1.288709 -0.72248,-2.7709602 z"
  />
</svg>
