<!--
  Derived from vsc-material-theme-icons
  Licensed under Apache License 2.0
  http://www.apache.org/licenses/LICENSE-2.0

  Modified under GPLv3
-->
<svg viewBox="0 0 16 16" xmlns="http://www.w3.org/2000/svg">
  <path
    d="m 7.9999999,3.7558622 c -2.1333293,0 -3.4666707,0.9572676 -4,2.8717907 0.8,-0.9572553 1.7333293,-1.3162338 2.8,-1.0769231 0.6085907,0.1364186 1.0435569,0.5328862 1.5250338,0.97136 C 9.1093291,7.2365883 10.017181,8.0635545 12,8.0635545 c 2.133292,0 3.466707,-0.9572678 4,-2.8717908 -0.8,0.9572554 -1.733293,1.3162339 -2.8,1.076923 C 12.591385,6.1322683 12.156431,5.7358008 11.674954,5.2973267 10.890671,4.5828284 9.9828182,3.7558622 7.9999999,3.7558622 Z m -4,4.3076923 C 1.8666707,8.0635545 0.53332926,9.0208221 0,10.935346 0.79999988,9.9780897 1.7333293,9.6191114 2.8,9.8584221 3.4085907,9.995099 3.8435569,10.391308 4.3250337,10.829782 5.1093292,11.544293 6.0171813,12.371248 7.9999999,12.371248 10.133329,12.371248 11.466707,11.413955 12,9.499456 11.2,10.456711 10.266671,10.81569 9.1999999,10.576379 8.5914091,10.43996 8.156443,10.043493 7.6749661,9.605019 6.8906706,8.8905207 5.9828185,8.0635545 3.9999999,8.0635545 Z"
    fill="#89ddff"
  />
</svg>
