<!--
  Derived from vsc-material-theme-icons
  Licensed under Apache License 2.0
  http://www.apache.org/licenses/LICENSE-2.0

  Modified under GPLv3
-->
<svg viewBox="0 0 16 16" xmlns="http://www.w3.org/2000/svg">
  <path
    d="m 0.0077884,4.4527125 h 4.7988159 l 0.00779,1.6073901 H 4.5847657 C 4.5095214,5.4866838 4.294162,5.0987794 3.9386874,4.896401 3.7389052,4.7848327 3.4405242,4.7238561 3.0435332,4.7134713 v 4.1955635 c 0,0.2931999 0.051241,0.4878011 0.1537338,0.5838036 0.102493,0.096002 0.3158939,0.1439981 0.6402369,0.1439981 V 9.8392263 H 0.99634891 V 9.6368365 c 0.31136199,0 0.51828369,-0.048645 0.62077679,-0.1459452 C 1.7196073,9.3935907 1.7708595,9.1996385 1.7708595,8.9090348 V 4.7134713 C 1.381657,4.7238561 1.0832761,4.7848327 0.87569388,4.896401 0.49428005,5.1039718 0.27892062,5.4918762 0.22962696,6.0601026 H -2e-7 Z m 5.2347158,7.0945755 v -0.202459 c 0.2283404,-0.0077 0.3905005,-0.03883 0.486503,-0.09337 0.1478924,-0.08301 0.2218386,-0.238668 0.2218386,-0.467088 V 6.9274615 C 5.9508458,6.69394 5.8743034,6.536961 5.7212186,6.4565357 5.6330047,6.4072306 5.4734294,6.376099 5.2425042,6.363118 V 6.1607395 H 9.8350587 V 7.7681296 H 9.6404575 C 9.5392626,7.2543893 9.3673667,6.902809 9.1247699,6.7134002 8.8821618,6.5239914 8.4404318,6.4292869 7.7995459,6.4292869 c -0.2438949,0 -0.3989268,0.025302 -0.4650958,0.075893 -0.066158,0.050592 -0.099248,0.1511376 -0.099248,0.3016262 V 8.6516123 C 7.6892757,8.6568047 7.9967433,8.5744209 8.1576053,8.4044722 8.3184787,8.2345235 8.4417185,7.9238106 8.5273476,7.4723449 H 8.7297261 V 10.165608 H 8.5273476 C 8.4702654,9.7115228 8.3541537,9.3917346 8.1790126,9.2062201 8.0038715,9.0207056 7.6892757,8.9279483 7.2352024,8.9279483 v 1.9304347 c 0,0.168639 0.043464,0.283419 0.1303908,0.344452 0.086916,0.06092 0.2653021,0.09144 0.5351476,0.09144 0.508548,0 0.9236897,-0.09861 1.2454364,-0.295831 0.3217354,-0.197106 0.6071467,-0.566837 0.8562338,-1.1091809 H 10.22425 L 9.9012163,11.547288 Z M 10.558909,9.6368365 c 0.202458,-0.036324 0.347754,-0.073946 0.436003,-0.1128664 0.142677,-0.064859 0.273739,-0.173843 0.393073,-0.3269278 L 12.78128,7.4339712 11.204999,5.1182395 C 11.088284,4.949589 10.985802,4.8321792 10.897554,4.7660216 10.809306,4.6998526 10.699081,4.6628795 10.566766,4.6550909 V 4.4527125 h 2.759375 v 0.2023784 c -0.256888,0.012981 -0.427463,0.033739 -0.511725,0.062275 -0.08438,0.028547 -0.126508,0.096002 -0.126508,0.2023898 0,0.046698 0.01036,0.092108 0.03109,0.1362209 0.02084,0.044101 0.05067,0.095991 0.0895,0.1556696 l 0.774533,1.1987389 c 0.435888,-0.6097543 0.698014,-0.9846776 0.786148,-1.1247814 0.08825,-0.1401151 0.132429,-0.2568759 0.132429,-0.3502822 0,-0.1141645 -0.0649,-0.192005 -0.194601,-0.2335214 -0.07527,-0.023354 -0.205077,-0.03892 -0.389203,-0.046709 V 4.4527125 H 15.9105 v 0.2023784 c -0.352879,0.033739 -0.631857,0.1524358 -0.83682,0.3561237 -0.204963,0.2036765 -0.63698,0.7686577 -1.296051,1.6949549 l 1.447838,2.2495741 c 0.189363,0.2932 0.328852,0.4748202 0.418353,0.5448834 C 15.73332,9.570679 15.852085,9.6160783 16,9.6368365 V 9.8392263 H 13.287198 V 9.6368365 c 0.233544,-0.010373 0.38795,-0.025939 0.463217,-0.046697 0.116715,-0.033728 0.175129,-0.1011949 0.175129,-0.2023898 0,-0.03892 -0.0123,-0.092757 -0.03701,-0.161511 -0.0246,-0.068765 -0.06809,-0.1524357 -0.130379,-0.2510345 L 12.95641,7.6830585 12.652836,8.0878268 c -0.256887,0.3450897 -0.43065,0.5863998 -0.521517,0.7239074 -0.150534,0.2309366 -0.225687,0.3943948 -0.225687,0.4903973 0,0.1401152 0.09212,0.2361177 0.276244,0.2880075 0.103849,0.031132 0.227054,0.046697 0.369731,0.046697 v 0.2023898 h -1.992698 z"
    fill="#2ecc71"
  />
</svg>
