<svg fill="none" viewBox="0 0 16 16" xmlns="http://www.w3.org/2000/svg">
  <path
    d="m3.7133 2.1174c1.2504-1.407 5.0005-1.9181 5.9625-1.4234 0.96203 0.49446 3.922 4.2619 3.3661 5.1867-0.92975 1.5463-2.5129 2.6798-2.8054 2.9047-0.33723-0.53708-2.4506 0.37488-1.9675 1.3448 0.036619 0.40716-2.0602 1.3938-3.0146 1.4755-0.080686 0.01986-0.15579 0.02069-0.22344-4.14e-4 -1.2426-0.15227-3.465-2.6955-3.7323-3.726-0.47729-1.8425 1.9534-5.2432 2.4144-5.7618"
    fill="#bababa"
    stroke-width=".20689"
  />
  <path
    d="m3.7133 2.1174c1.2504-1.407 5.0005-1.9181 5.9625-1.4234 0.96203 0.49446 3.922 4.2619 3.3661 5.1867m-9.3286-3.7633c-0.46115 0.51867-2.8919 3.9193-2.4144 5.7618 0.26688 1.0305 2.4895 3.574 3.7323 3.726m-1.3179-9.4879c2.2898 4.2195 4.7626 5.6584 4.5557 5.9439m4.7729-2.1806c-0.92975 1.5463-2.5129 2.6798-2.8054 2.9047-0.33723-0.53708-2.4506 0.37488-1.9675 1.3448 0.03993 0.44295-2.4454 1.5719-3.2378 1.4751m8.0107-5.7246-4.7729 2.1806m-3.2378 3.544c0.88672 0.2793 3.0309-3.2585 3.2378-3.544"
    stroke="rgba(107, 107, 107, 0.78)"
    stroke-width=".20689"
  />
  <path
    d="m8.2725 10.125c-0.40219-1.0075 1.5817-1.8624 1.9654-1.3448l4.446 4.7626c-0.27826-0.50067-2.896 0.98251-2.3792 1.862z"
    fill="#d1a656"
    stroke="rgba(122, 85, 15, 1)"
    stroke-width=".20689"
  />
  <path
    d="m12.202 15.198c0.15992 0.95292 3.0717-0.64383 2.4826-1.6551-0.07634-0.52467-2.5681 0.79217-2.4826 1.6551z"
    fill="#b87e44"
    stroke="rgba(122, 85, 15, 1)"
    stroke-width=".20689"
  />
  <path
    d="m5.7958 2.9317c-0.27702-0.82693 3.5643-1.4205 3.5692-1.0884 0.46591 0.076341 2.4582 3.0199 2.1835 2.975 0.01303 0.54205-2.5466 1.6739-3.0555 1.4548-0.2913 0-2.1862-1.8156-2.6972-3.3412z"
    fill="#89a5e8"
    stroke="rgba(69, 106, 191, 1)"
    stroke-width=".20689"
  />
  <path
    d="m9.4825 4.551 0.021101 0.071996q0.00476 0.015517 0.00786 0.023792l0.00496 0.013241 0.00393 0.00951 0.00496 0.012a0.20689 0.20689 0 0 0 0.013654 0.029584 0.41378 0.41378 0 0 0 0.014482 0.026068 0.41378 0.41378 0 0 0 0.017586 0.028551l0.017793 0.029171 0.012414 0.018414a0.20689 0.20689 0 0 1 0.013241 0.02069l0.00703 0.012a0.20689 0.20689 0 0 1 0.016136 0.029378q0.00393 0.00807 0.00869 0.018826l0.020689 0.044274 0.010349 0.02131q0.00517 0.010349 0.00931 0.019447l0.016551 0.03848a0.20689 0.20689 0 0 0 0.015517 0.030205 0.62066 0.62066 0 0 1 0.016551 0.031447l0.00828 0.017172a0.62066 0.62066 0 0 0 0.015723 0.032275l0.01488 0.029792q0.00373 0.00744 0.00765 0.014275a0.41378 0.41378 0 0 1 0.016551 0.029998 0.62066 0.62066 0 0 1 0.017379 0.033515l0.013034 0.025447 0.013448 0.025447a0.82755 0.82755 0 0 0 0.023792 0.042205l0.00207 0.00352q6.207e-4 0.00166 0.00186 0.0031l0.00207 0.00352 0.00186 0.00414 0.00206 0.00414a0.062066 0.062066 0 0 1 0.00412 0.00993q0.0014 0.00331 0.00206 0.0058l0.00169 0.00455 0.00206 0.00517q0.0014 0.00289 0.0058 0.014896l0.00721 0.021103m-0.91067-0.70341 0.066204-0.040136 0.026896-0.016758q0.011379-0.00765 0.024412-0.015103l0.022758-0.013654a0.62066 0.62066 0 0 1 0.04655-0.026068l0.024826-0.013034 0.048411-0.02524q0.012414-0.00621 0.024205-0.01262l0.023999-0.012414 0.044273-0.022344 0.023172-0.011379a2.0689 2.0689 0 0 0 0.091859-0.048411l0.043874-0.022354a1.0344 1.0344 0 0 1 0.087927-0.038894l0.046343-0.018413 0.061238-0.022965 0.016136-0.00683 0.029998-0.011585 0.026275-0.00993a0.20689 0.20689 0 0 1 0.01593-0.00537l0.0091-0.00331 0.01076-0.00496 0.041377-0.021102m0.75514-0.24476a2.6895 2.6895 0 0 0-0.07034-0.033516l-0.01448-0.00621a0.25302 0.25302 0 0 0-0.04593-0.011378 0.20689 0.20689 0 0 0-0.03268-0.00125l-0.0209 2.069e-4a0.19447 0.19447 0 0 0-0.05462 0.014482 0.26895 0.26895 0 0 0-0.05172 0.028964 0.20689 0.20689 0 0 0-0.02131 0.017586 0.41378 0.41378 0 0 0-0.03518 0.038273q-0.0091 0.012-0.01883 0.026896l-0.01842 0.02793a0.41378 0.41378 0 0 0-0.01635 0.026895 0.28964 0.28964 0 0 0-0.024 0.054412 0.3724 0.3724 0 0 0-0.01779 0.089789 0.62066 0.62066 0 0 0-0.0021 0.034551 1.6551 1.6551 0 0 0-0.0012 0.06848q0 0.016136 0.0031 0.033102a0.24827 0.24827 0 0 0 0.03393 0.084824 0.62066 0.62066 0 0 0 0.02897 0.041377 0.20689 0.20689 0 0 0 0.01924 0.020689l0.0081 0.00621a0.11999 0.11999 0 0 0 0.02131 0.00972 0.20689 0.20689 0 0 0 0.03145 0.00786q0.0062 0.00103 0.01407 0.00145l0.01696 6.206e-4q0.0093 0 0.02193-6.206e-4a0.20689 0.20689 0 0 0 0.02441-0.00352 0.41378 0.41378 0 0 0 0.07924-0.026896l0.03227-0.014896 0.03393-0.01531a0.62066 0.62066 0 0 1 0.10303-0.036826 1.0344 1.0344 0 0 1 0.06682-0.011793l0.03082-0.00476a0.62066 0.62066 0 0 1 0.10096-0.00786l0.01303-2.069e-4h0.01267q0.0017 0 7e-3 0.00207a0.20689 0.20689 0 0 1 0.02772 0.013034 0.20689 0.20689 0 0 1 0.01965 0.012 0.20689 0.20689 0 0 1 0.01241 0.010349l6e-3 0.00537a0.020689 0.020689 0 0 1 0.0049 0.00621l0.0054 0.010143 0.0068 0.013654q0.0041 0.00744 0.0076 0.015723a0.14482 0.14482 0 0 1 0.01073 0.037654q0.0012 0.0091 0.0018 0.019033a0.62066 0.62066 0 0 1 1e-3 0.041998 0.20689 0.20689 0 0 1-0.0018 0.022758 0.20689 0.20689 0 0 1-0.0054 0.024826 0.62066 0.62066 0 0 1-0.01676 0.053376 0.38688 0.38688 0 0 1-0.1353 0.18454 0.47584 0.47584 0 0 1-0.05897 0.03517 0.37902 0.37902 0 0 1-0.0631 0.024412 0.82755 0.82755 0 0 1-0.06214 0.01531 0.41378 0.41378 0 0 1-0.02752 0.00414l-0.05938 0.00559-0.02504 0.00207-0.0211 0.00186-0.01986 0.00103-0.04448 0.00228a0.62066 0.62066 0 0 1-0.04758 0.00145 0.41378 0.41378 0 0 1-0.03434-8.275e-4l-0.01158-6.207e-4a0.062066 0.062066 0 0 1-0.01779-0.00476l-0.02006-0.00765"
    stroke="rgba(255, 255, 255, 1)"
    stroke-linecap="round"
    stroke-width=".20689"
  />
  <path
    d="m4.7368 5.8571c0.24475-0.26585 1.1222 0.79259 0.94279 1.1079-0.2855 0.5017-1.1168 1.2057-1.1168 1.4155s0.41729 0.3393 0.41729 0.72762c0 0.20565-1.6592 0.018206-1.6559-0.10448-0.12972-0.095168-0.38067-1.3197-0.33185-1.9509 0.048618-0.63121 0.67342 0.57204 0.77314 0.41398 0.59584-0.94382 0.7268-1.3435 0.97134-1.6096z"
    fill="#fcd056"
    stroke="rgba(184, 151, 61, 1)"
    stroke-width=".20689"
  />
</svg>
