<!--
  Derived from vsc-material-theme-icons
  Licensed under Apache License 2.0
  http://www.apache.org/licenses/LICENSE-2.0

  Modified under GPLv3
-->
<svg viewBox="0 0 16 16" xmlns="http://www.w3.org/2000/svg">
  <path
    d="M7.99,13.52c.58.58,1.15,1.03,1.69,1.35.55.32,1.05.48,1.5.48.14,0,.28-.02.42-.05.14-.03.27-.09.38-.17.41-.24.68-.65.83-1.24.15-.59.15-1.32,0-2.18-.03-.16-.05-.32-.09-.47-.03-.16-.07-.31-.1-.47.15-.05.3-.1.45-.15.15-.05.29-.09.43-.15.8-.31,1.41-.68,1.83-1.1s.63-.87.63-1.36-.21-.94-.63-1.36-1.03-.79-1.83-1.1c-.14-.05-.28-.11-.43-.16-.15-.05-.29-.1-.45-.14.04-.16.07-.31.1-.47.03-.16.06-.31.09-.45.13-.89.12-1.64-.02-2.23-.14-.6-.41-1.01-.82-1.25-.13-.08-.26-.13-.4-.17-.14-.03-.28-.05-.42-.05-.44,0-.94.16-1.49.48-.55.32-1.11.77-1.68,1.35-.57-.58-1.13-1.03-1.67-1.35-.55-.32-1.05-.48-1.5-.48-.14,0-.28.02-.42.05-.14.03-.27.09-.38.17-.41.24-.68.65-.83,1.24-.15.59-.15,1.32,0,2.18.03.16.05.31.09.47.03.16.07.31.1.47-.15.05-.3.1-.45.15-.15.05-.29.09-.43.15-.8.31-1.41.68-1.83,1.1-.42.42-.63.87-.63,1.36s.21.94.63,1.36c.42.42,1.03.79,1.83,1.1.14.05.28.11.43.16s.29.1.45.14c-.04.16-.07.31-.1.47-.03.16-.06.31-.09.45-.13.86-.12,1.6.02,2.19.14.6.41,1.01.82,1.25.11.07.24.12.38.16.14.04.28.06.42.06.46.01.96-.14,1.5-.46.54-.32,1.1-.76,1.67-1.33ZM7.12,11.34c.15.01.3.02.45.02h.88s.15,0,.45-.02c-.15.2-.3.38-.45.56-.15.18-.29.35-.45.52-.14-.17-.28-.34-.43-.52-.15-.18-.29-.36-.45-.56ZM5.18,9.67c.09.14.17.28.24.41.07.13.15.26.24.39-.24-.04-.48-.08-.7-.12-.23-.04-.45-.09-.67-.14.06-.21.14-.43.22-.66.08-.23.17-.45.26-.68.06.13.13.26.2.39.07.13.14.26.22.39h0ZM4.28,5.78c.22-.05.44-.1.67-.14.23-.04.46-.08.7-.12l-.23.39s-.08.14-.25.41c-.08.13-.15.26-.22.39-.07.13-.14.27-.2.41-.1-.24-.19-.47-.27-.7-.08-.23-.15-.45-.21-.66h0ZM5.14,8c.1-.22.21-.44.31-.66.11-.22.23-.43.35-.66l.38-.63s.13-.21.4-.63c.23-.03.46-.04.69-.05.23,0,.47-.01.71-.01.25,0,.5,0,.73.01.23,0,.47.02.69.05.15.21.29.42.41.63.12.21.24.42.37.63.13.22.24.44.35.66.11.22.21.43.31.66l-.31.65s-.12.22-.35.65l-.38.63s-.13.21-.4.63c-.23.03-.46.04-.69.05-.23,0-.48.01-.73.01s-.48,0-.71-.01c-.23,0-.47-.02-.69-.05-.15-.21-.29-.42-.41-.63-.12-.21-.24-.42-.37-.63-.13-.21-.24-.43-.35-.65l-.31-.65ZM11.26,7.11l-.44-.81c-.08-.14-.15-.28-.22-.4-.07-.12-.15-.25-.24-.38.24.03.48.06.7.1.23.04.45.09.67.14-.06.22-.14.45-.22.68-.08.23-.17.45-.26.68h0ZM11.26,8.86c.09.22.17.45.26.68.08.23.16.45.22.66-.22.05-.44.1-.67.14-.23.04-.46.08-.7.12l.23-.39s.08-.14.23-.41c.08-.12.15-.24.22-.37.07-.13.14-.27.22-.41h0ZM11.62,14.48c-.06.04-.13.07-.21.08-.08.01-.16.02-.25.02-.38,0-.8-.15-1.26-.44-.46-.3-.93-.69-1.4-1.17.23-.25.45-.51.68-.8.22-.28.44-.58.66-.89.37-.04.73-.09,1.07-.14.35-.05.69-.12,1.02-.22.04.14.07.29.09.44.03.15.05.3.08.44.11.68.13,1.26.05,1.73-.08.47-.26.79-.52.94h0ZM12.42,5.95c.89.26,1.58.58,2.07.94.49.37.74.73.74,1.1,0,.31-.17.62-.52.92-.35.3-.84.58-1.47.83-.13.05-.26.1-.39.15-.13.05-.28.09-.43.13-.1-.33-.22-.66-.34-1-.13-.34-.27-.68-.42-1.02.15-.35.3-.7.43-1.04.13-.34.24-.67.33-1h0ZM11.19,1.39c.08,0,.15,0,.23.02.08.01.15.05.21.1.27.14.44.45.53.91.09.47.08,1.05-.04,1.74-.03.14-.05.29-.09.43-.03.14-.06.29-.09.45-.33-.08-.67-.14-1.02-.2-.35-.05-.71-.1-1.07-.14-.22-.33-.43-.63-.66-.91-.22-.28-.45-.55-.68-.8.47-.47.93-.86,1.39-1.16.46-.3.88-.45,1.27-.45h0ZM8.88,4.64c-.15,0-.3,0-.45-.01-.15,0-.29-.01-.45-.01-.14,0-.28,0-.43.01-.15,0-.29.01-.45.01.15-.2.3-.38.45-.56.15-.18.29-.35.43-.52.15.17.3.35.45.53.15.18.29.37.45.55h0ZM4.38,1.51c.06-.05.13-.09.21-.1.08-.01.16-.02.25-.02.38,0,.8.15,1.26.44.46.3.93.69,1.4,1.17-.23.25-.45.51-.68.8-.22.28-.44.59-.66.91-.37.03-.73.07-1.07.13-.35.06-.69.13-1.02.21-.04-.14-.07-.29-.09-.44s-.05-.3-.08-.44c-.11-.68-.13-1.26-.05-1.72.08-.46.26-.78.52-.93h0ZM3.58,10.02c-.89-.25-1.58-.56-2.07-.93-.49-.37-.74-.74-.74-1.09,0-.31.17-.63.52-.93.35-.31.84-.59,1.47-.84.13-.05.26-.1.39-.15.13-.05.28-.09.43-.13.1.33.22.66.34,1,.13.34.27.69.42,1.04-.15.34-.3.68-.43,1.03-.13.35-.24.68-.33.99h0ZM3.9,11.81l.08-.43s.03-.15.09-.45c.33.08.67.15,1.02.21.35.06.71.11,1.07.15.22.31.43.61.66.89.22.28.45.55.68.8-.47.48-.93.87-1.4,1.17-.46.3-.88.44-1.26.44-.09,0-.17,0-.24-.02-.07-.01-.14-.04-.22-.08-.27-.16-.44-.47-.52-.94-.08-.47-.07-1.05.05-1.73h0Z"
    fill="#69a7d3"
  />
  <path
    d="M9.45,8c0,.41-.14.76-.43,1.05-.29.3-.63.44-1.04.44s-.73-.15-1.02-.44c-.29-.3-.43-.65-.43-1.05s.14-.78.43-1.07c.29-.3.62-.44,1.02-.44s.75.15,1.04.44c.29.3.43.65.43,1.07Z"
    fill="#3965bd"
  />
</svg>
