<!--
  Derived from vsc-material-theme-icons
  Licensed under Apache License 2.0
  http://www.apache.org/licenses/LICENSE-2.0

  Modified under GPLv3
-->
<svg viewBox="0 0 16 16" xmlns="http://www.w3.org/2000/svg">
  <path
    d="M 3.9166665,8.5833328 V 1.5833332 c 0,-0.322 -0.2613333,-0.5833333 -0.5833333,-0.5833333 -0.322,0 -0.5833333,0.2613333 -0.5833333,0.5833333 v 6.9999996 z"
    fill="#82aaff"
  />
  <path
    d="M 5.0833331,9.7499994 H 1.5833333 C 1.2613333,9.7499994 1,10.011333 1,10.333333 v 2.333333 c 0,0.322 0.2613333,0.583333 0.5833333,0.583333 h 1.1666666 v 1.166667 c 0,0.322 0.2613333,0.583333 0.5833333,0.583333 0.322,0 0.5833333,-0.261333 0.5833333,-0.583333 v -1.166667 h 1.1666666 c 0.322,0 0.5833333,-0.261333 0.5833333,-0.583333 v -2.333333 c 0,-0.322 -0.2613333,-0.5833336 -0.5833333,-0.5833336 z"
    fill="#89ddff"
  />
  <path
    d="M 8.5833329,2.7499998 V 1.5833332 c 0,-0.322 -0.2613333,-0.5833333 -0.5833333,-0.5833333 -0.322,0 -0.5833333,0.2613333 -0.5833333,0.5833333 v 1.1666666 z"
    fill="#82aaff"
  />
  <path
    d="m 10.333333,4.4999997 c 0,-0.322 -0.261334,-0.5833333 -0.5833335,-0.5833333 H 6.2499997 c -0.322,0 -0.5833333,0.2613333 -0.5833333,0.5833333 v 2.3333332 c 0,0.322 0.2613333,0.5833333 0.5833333,0.5833333 h 1.1666666 v 6.9999998 c 0,0.322 0.2613333,0.583333 0.5833333,0.583333 0.322,0 0.5833333,-0.261333 0.5833333,-0.583333 V 7.4166662 h 1.1666666 c 0.3219995,0 0.5833335,-0.2613333 0.5833335,-0.5833333 z"
    fill="#89ddff"
  />
  <path
    d="M 13.249999,8.5833328 V 1.5833332 c 0,-0.322 -0.261333,-0.5833333 -0.583333,-0.5833333 -0.322,0 -0.583333,0.2613333 -0.583333,0.5833333 v 6.9999996 z"
    fill="#82aaff"
  />
  <path
    d="m 14.416666,9.7499994 h -3.5 c -0.322,0 -0.583333,0.2613336 -0.583333,0.5833336 v 2.333333 c 0,0.322 0.261333,0.583333 0.583333,0.583333 h 1.166667 v 1.166667 c 0,0.322 0.261333,0.583333 0.583333,0.583333 0.322,0 0.583333,-0.261333 0.583333,-0.583333 v -1.166667 h 1.166667 c 0.322,0 0.583333,-0.261333 0.583333,-0.583333 v -2.333333 c 0,-0.322 -0.261333,-0.5833336 -0.583333,-0.5833336 z"
    fill="#89ddff"
  />
</svg>
