<!--
  Derived from vsc-material-theme-icons
  Licensed under Apache License 2.0
  http://www.apache.org/licenses/LICENSE-2.0

  Modified under GPLv3
-->
<svg viewBox="0 0 16 16" xmlns="http://www.w3.org/2000/svg">
  <rect fill="#ffffff" width="10" height="7" x="4" y="7" />
  <path
    d="M 15,2.3969631 C 15,1.6276211 14.372379,1 13.603037,1 H 2.3969631 C 1.6276211,1 1,1.6276211 1,2.3969631 V 13.603037 C 1,14.372379 1.6276211,15 2.3969631,15 H 13.603037 C 14.372379,15 15,14.372379 15,13.603037 Z M 9.2096891,11.71005 v 0 l -0.2834419,1.032539 c 0.1720897,0.08098 0.4150399,0.161966 0.7288504,0.232827 0.3138106,0.07087 0.6377444,0.111352 0.9920464,0.111352 0.83008,0 1.437455,-0.17209 1.842371,-0.506146 0.404917,-0.334057 0.597253,-0.738974 0.597253,-1.204628 0,-0.394794 -0.131598,-0.72885 -0.384671,-0.992046 C 12.449024,10.120752 12.05423,9.8879248 11.507592,9.7158352 11.112798,9.5741142 10.829357,9.4526392 10.657266,9.3514099 10.485177,9.2501808 10.39407,9.1084599 10.39407,8.9363702 c 0,-0.1417208 0.07087,-0.2733188 0.212582,-0.384671 0.141721,-0.1113521 0.364426,-0.1619668 0.65799,-0.1619668 0.293565,0 0.546638,0.030369 0.759219,0.091107 0.212581,0.060737 0.384672,0.121475 0.506146,0.1822126 l 0.303688,-1.0122922 c -0.182213,-0.080984 -0.404917,-0.1417209 -0.65799,-0.2024584 -0.253073,-0.050614 -0.55676,-0.080984 -0.890817,-0.080984 -0.718727,0 -1.275488,0.1619667 -1.6905279,0.4757772 -0.4150398,0.3239335 -0.6174982,0.7187274 -0.6174982,1.1843818 0,0.4049168 0.1518438,0.7389732 0.4656544,1.0021696 0.3036876,0.263196 0.7086047,0.4859 1.2147497,0.647867 0.364426,0.111351 0.627622,0.222704 0.779465,0.344179 0.151844,0.121475 0.232828,0.263196 0.232828,0.425162 0,0.182214 -0.08098,0.323934 -0.24295,0.435287 -0.161967,0.111351 -0.404917,0.161966 -0.708605,0.161966 -0.303687,0 -0.577006,-0.03037 -0.850325,-0.101229 -0.2733189,-0.07086 -0.4960232,-0.151844 -0.6681128,-0.242951 v 0 0 z M 5.9501084,8.328995 v 4.757773 H 7.1547361 V 8.328995 H 8.9262472 V 7.3571945 h -4.74765 V 8.328995 Z"
    fill="#3965bd"
    fill-rule="evenodd"
  />
</svg>
