<svg viewBox="0 0 16 16" xmlns="http://www.w3.org/2000/svg">
  <g clip-path="url(#clip0_6_29)">
    <path
      d="M7.6969 15.5356C7.57681 15.7493 7.29762 15.8101 7.09876 15.6659L0.166472 10.624C0.0604089 10.5468 -0.00198364 10.4236 -0.00198364 10.2926V4.21578C-0.00198364 3.88119 0.377811 3.6878 0.648428 3.88434L4.8886 6.96793C5.28477 7.2565 5.84392 7.13406 6.08413 6.70745L9.59589 0.46459C9.66844 0.335911 9.80493 0.255585 9.9531 0.255585H15.5916C15.9051 0.255585 16.1024 0.593269 15.9487 0.866223L7.6969 15.5349V15.5356Z"
      fill="#00FF74"
    />
    <mask
      id="mask0_6_29"
      style="mask-type:alpha"
      maskUnits="userSpaceOnUse"
      x="-1"
      y="0"
      width="18"
      height="16"
    >
      <path
        d="M7.6969 15.5356C7.57681 15.7493 7.29762 15.8101 7.09876 15.6658L0.166472 10.624C0.0604089 10.5468 -0.00198364 10.4235 -0.00198364 10.2925V4.21579C-0.00198364 3.8812 0.377811 3.6878 0.648428 3.88431L4.8886 6.96794C5.28477 7.25651 5.84392 7.13407 6.08413 6.70746L9.59589 0.46459C9.66844 0.335911 9.80493 0.255585 9.9531 0.255585H15.5916C15.9051 0.255585 16.1024 0.593269 15.9487 0.866223L7.6969 15.5348V15.5356Z"
        fill="black"
      />
    </mask>
    <g mask="url(#mask0_6_29)">
      <g filter="url(#filter0_f_6_29)">
        <path
          d="M10.3307 4.40138C8.50694 6.53319 6.6109 7.90411 6.09575 7.46341C5.5806 7.02271 6.64143 4.93728 8.46516 2.80547C10.2889 0.673655 12.1849 -0.697262 12.7001 -0.256562C13.2152 0.184138 12.1544 2.26957 10.3307 4.40138Z"
          fill="#00D0C7"
        />
      </g>
      <g filter="url(#filter1_f_6_29)">
        <path
          d="M-0.722066 12.3188C-2.37237 10.05 -2.91237 7.63052 -1.92819 6.91462C-0.944009 6.19871 1.19166 7.45752 2.84196 9.72625C4.49226 11.995 5.03226 14.4145 4.04808 15.1304C3.0639 15.8463 0.928235 14.5875 -0.722066 12.3188Z"
          fill="#00D0C7"
        />
      </g>
      <g filter="url(#filter2_f_6_29)">
        <path
          d="M1.54126 6.51868C2.71329 7.01931 4.01682 6.59775 4.45277 5.57711C4.88873 4.55647 4.29203 3.32324 3.12 2.82262C1.94797 2.32199 0.644435 2.74355 0.208478 3.76419C-0.227479 4.78483 0.369226 6.01806 1.54126 6.51868Z"
          fill="#03FF00"
        />
      </g>
      <g filter="url(#filter3_f_6_29)">
        <path
          d="M11.2706 14.1985C12.303 14.6394 14.702 11.3399 16.6289 6.82872C18.5558 2.31755 19.281 -1.69695 18.2486 -2.13792C17.2162 -2.57889 14.8173 0.720665 12.8903 5.23184C10.9634 9.74301 10.2383 13.7575 11.2706 14.1985Z"
          fill="#03FF00"
        />
      </g>
      <g filter="url(#filter4_f_6_29)">
        <path
          d="M10.4004 -2.21477C11.1052 -2.9196 12.8307 -2.33694 14.2542 -0.913358C15.6778 0.510225 16.2605 2.23565 15.5556 2.94048C14.8508 3.64532 13.1254 3.06266 11.7018 1.63907C10.2782 0.215489 9.69556 -1.50993 10.4004 -2.21477Z"
          fill="#6EFFE1"
        />
      </g>
    </g>
  </g>
  <defs>
    <filter
      id="filter0_f_6_29"
      x="-3.22545"
      y="-9.53009"
      width="25.2467"
      height="26.267"
      filterUnits="userSpaceOnUse"
      color-interpolation-filters="sRGB"
    >
      <feFlood flood-opacity="0" result="BackgroundImageFix" />
      <feBlend
        mode="normal"
        in="SourceGraphic"
        in2="BackgroundImageFix"
        result="shape"
      />
      <feGaussianBlur
        stdDeviation="4.59556"
        result="effect1_foregroundBlur_6_29"
      />
    </filter>
    <filter
      id="filter1_f_6_29"
      x="-11.6109"
      y="-2.47733"
      width="25.3416"
      height="26.9997"
      filterUnits="userSpaceOnUse"
      color-interpolation-filters="sRGB"
    >
      <feFlood flood-opacity="0" result="BackgroundImageFix" />
      <feBlend
        mode="normal"
        in="SourceGraphic"
        in2="BackgroundImageFix"
        result="shape"
      />
      <feGaussianBlur
        stdDeviation="4.59556"
        result="effect1_foregroundBlur_6_29"
      />
    </filter>
    <filter
      id="filter2_f_6_29"
      x="-9.12531"
      y="-6.5793"
      width="22.9119"
      height="22.4999"
      filterUnits="userSpaceOnUse"
      color-interpolation-filters="sRGB"
    >
      <feFlood flood-opacity="0" result="BackgroundImageFix" />
      <feBlend
        mode="normal"
        in="SourceGraphic"
        in2="BackgroundImageFix"
        result="shape"
      />
      <feGaussianBlur
        stdDeviation="4.59556"
        result="effect1_foregroundBlur_6_29"
      />
    </filter>
    <filter
      id="filter3_f_6_29"
      x="1.60955"
      y="-11.3686"
      width="26.3001"
      height="34.7977"
      filterUnits="userSpaceOnUse"
      color-interpolation-filters="sRGB"
    >
      <feFlood flood-opacity="0" result="BackgroundImageFix" />
      <feBlend
        mode="normal"
        in="SourceGraphic"
        in2="BackgroundImageFix"
        result="shape"
      />
      <feGaussianBlur
        stdDeviation="4.59556"
        result="effect1_foregroundBlur_6_29"
      />
    </filter>
    <filter
      id="filter4_f_6_29"
      x="0.91"
      y="-11.7052"
      width="24.136"
      height="24.136"
      filterUnits="userSpaceOnUse"
      color-interpolation-filters="sRGB"
    >
      <feFlood flood-opacity="0" result="BackgroundImageFix" />
      <feBlend
        mode="normal"
        in="SourceGraphic"
        in2="BackgroundImageFix"
        result="shape"
      />
      <feGaussianBlur
        stdDeviation="4.59556"
        result="effect1_foregroundBlur_6_29"
      />
    </filter>
    <clipPath id="clip0_6_29">
      <rect width="16" height="16" fill="white" />
    </clipPath>
  </defs>
</svg>
