<!--
  Derived from vsc-material-theme-icons
  Licensed under Apache License 2.0
  http://www.apache.org/licenses/LICENSE-2.0

  Modified under GPLv3
-->
<svg viewBox="0 0 16 16" xmlns="http://www.w3.org/2000/svg">
  <defs>
    <linearGradient
      id="gradient"
      x1="8.5"
      y1="10.5"
      x2="1.5"
      y2="2.5"
      gradientUnits="userSpaceOnUse"
      gradientTransform="matrix(1.0769207,0,0,1.0769207,-0.0769178,-0.05845699)"
    >
      <stop stop-color="#8251A8" id="stop1" />
      <stop offset="1" stop-color="#8BD4CD" id="stop2" />
    </linearGradient>
  </defs>
  <path
    d="M 14.953664,3.0851176 8.3771574,14.799279 c -0.1357782,0.241877 -0.4846251,0.243277 -0.6224494,0.0026 L 1.0478182,3.0862376 C 0.89767605,2.8239643 1.1228257,2.5062727 1.4211974,2.5593972 l 6.5835285,1.1721851 c 0.042,0.00748 0.084991,0.00741 0.1269905,-2.153e-4 L 14.577604,2.5610772 c 0.297338,-0.053986 0.523599,0.2612395 0.37606,0.5240404 z"
    fill="url(#gradient)"
  />
  <path
    d="M 11.140827,1.0218991 6.2740174,1.9718185 C 6.1940237,1.9874339 6.1347931,2.0549568 6.1299685,2.1359951 L 5.8305953,7.1725378 c -0.00704,0.1186228 0.102329,0.2106996 0.2185611,0.1839919 L 7.4041488,7.0450412 c 0.1267751,-0.02912 0.2413271,0.082104 0.2152656,0.2090949 L 7.2168507,9.2177502 c -0.027084,0.1321597 0.097472,0.2451718 0.2270364,0.2059719 l 0.8369074,-0.253281 c 0.1297367,-0.039243 0.2544118,0.074092 0.2269611,0.2063488 L 7.8680108,12.461177 c -0.04004,0.192984 0.2175918,0.298199 0.3250362,0.132784 l 0.071766,-0.110492 3.96575,-7.883544 C 12.297009,4.4679269 12.182424,4.3174164 12.036932,4.3453948 L 10.642169,4.6135265 C 10.511108,4.6386942 10.399582,4.5171098 10.436585,4.3893763 L 11.346949,1.2459309 C 11.383888,1.117982 11.271996,0.9962953 11.140827,1.0218991 Z"
    fill="#ffcb6b"
  />
</svg>
