<!--
  Derived from vsc-material-theme-icons
  Licensed under Apache License 2.0
  http://www.apache.org/licenses/LICENSE-2.0

  Modified under GPLv3
-->
<svg viewBox="0 0 16 16" xmlns="http://www.w3.org/2000/svg">
  <path
    d="M 11.549979,5.4865536 8.2031097,10.325791 c -0.035482,0.05129 -0.086799,0.08968 -0.1461672,0.109454 -0.059368,0.01967 -0.123541,0.01948 -0.1827854,-2.87e-4 -0.059244,-0.01996 -0.1103226,-0.05855 -0.1454986,-0.109931 -0.035166,-0.05148 -0.052511,-0.112987 -0.049388,-0.175164 L 7.8132223,7.4781291 5.6507618,7.0195229 c -0.046217,-0.00979 -0.089272,-0.030783 -0.1253653,-0.061116 -0.036093,-0.030324 -0.064106,-0.069053 -0.081555,-0.112758 -0.017449,-0.043705 -0.023791,-0.09103 -0.018481,-0.1377911 0.00532,-0.046752 0.022129,-0.091507 0.048948,-0.130284 L 8.8212639,1.738374 c 0.035491,-0.051336 0.086808,-0.089769 0.1461768,-0.109463 0.059368,-0.019704 0.123541,-0.019599 0.1828044,3.056e-4 0.059244,0.019895 0.1103322,0.05849 0.1454986,0.1099502 0.035157,0.051451 0.052501,0.11293 0.049359,0.1751351 L 9.2111513,4.5860648 11.373574,5.0446424 c 0.04623,0.00979 0.0893,0.030783 0.125403,0.061107 0.0361,0.030324 0.06409,0.069063 0.08147,0.1127676 0.01757,0.043705 0.02388,0.09103 0.01853,0.1377815 -0.0053,0.046761 -0.02206,0.091479 -0.049,0.1302554 z"
    fill="#ffcb6b"
  />
  <path
    d="m 7.9986313,14.385789 c 0.089024,9.6e-5 0.177179,-0.01729 0.2594219,-0.05138 0.082243,-0.0341 0.1569407,-0.08405 0.2198048,-0.147084 l 3.162508,-3.162212 c 0.126454,-0.127122 0.197417,-0.299325 0.197131,-0.478692 -1.91e-4,-0.179461 -0.07163,-0.351473 -0.198468,-0.478309 -0.126836,-0.1268365 -0.298848,-0.1982773 -0.47831,-0.1985639 -0.179366,-1.91e-4 -0.351474,0.070677 -0.478787,0.1972269 L 7.9986313,12.749813 2.1529375,6.904358 C 2.0254996,6.7789736 1.8536787,6.7090323 1.6749143,6.7097677 1.4961403,6.710484 1.3248924,6.7818294 1.1984851,6.9082357 1.072073,7.0346611 1.0007334,7.2058899 1.0000056,7.3846735 c -7.2776e-4,0.178774 0.069216,0.3505853 0.1945932,0.4780136 l 6.3249205,6.3246339 c 0.062855,0.06313 0.1375427,0.112987 0.219757,0.147084 0.082224,0.0341 0.1703596,0.05148 0.259355,0.05138 z"
    fill="#aee33e"
    fill-opacity="0.5"
  />
  <path
    d="m 8.0013629,14.385789 c -0.089024,9.6e-5 -0.177179,-0.01729 -0.2594219,-0.05138 -0.082243,-0.0341 -0.1569502,-0.08405 -0.2198047,-0.147084 L 4.3596665,11.025109 C 4.2331551,10.897987 4.1622395,10.725784 4.1624688,10.546417 4.1627171,10.366956 4.2340815,10.194944 4.3609463,10.068108 4.4878015,9.9412715 4.6597944,9.8698307 4.8391987,9.8695441 c 0.1794139,-1.91e-4 0.3516074,0.070677 0.478816,0.1972269 l 2.6833482,2.683042 5.8457421,-5.845455 c 0.127409,-0.1253844 0.29923,-0.1953257 0.477927,-0.1945903 0.178889,7.163e-4 0.350137,0.072062 0.4764,0.198468 0.126454,0.1264254 0.197895,0.2976542 0.198563,0.4764378 6.69e-4,0.178774 -0.06924,0.3505853 -0.194647,0.4780136 L 8.4804654,14.187321 c -0.062845,0.06313 -0.1375332,0.112987 -0.219757,0.147084 -0.082214,0.0341 -0.1703501,0.05148 -0.2593455,0.05138 z"
    fill="#aee33e"
  />
</svg>
