<svg viewBox="0 0 16 16" xmlns="http://www.w3.org/2000/svg">
  <defs>
    <filter
      id="filter0_d"
      x="0"
      y="2"
      width="16"
      height="16"
      filterUnits="userSpaceOnUse"
      color-interpolation-filters="sRGB"
    >
      <feFlood flood-opacity="0" result="BackgroundImageFix" />
      <feColorMatrix
        in="SourceAlpha"
        type="matrix"
        values="0 0 0 0 0 0 0 0 0 0 0 0 0 0 0 0 0 0 127 0"
      />
      <feOffset />
      <feGaussianBlur stdDeviation="4.16667" />
      <feColorMatrix
        type="matrix"
        values="0 0 0 0 0 0 0 0 0 0 0 0 0 0 0 0 0 0 0.25 0"
      />
      <feBlend
        mode="overlay"
        in2="BackgroundImageFix"
        result="effect1_dropShadow"
      />
      <feBlend
        mode="normal"
        in="SourceGraphic"
        in2="effect1_dropShadow"
        result="shape"
      />
    </filter>
    <filter
      id="filter1_d"
      x="0"
      y="0"
      width="16"
      height="16"
      filterUnits="userSpaceOnUse"
      color-interpolation-filters="sRGB"
    >
      <feFlood flood-opacity="0" result="BackgroundImageFix" />
      <feColorMatrix
        in="SourceAlpha"
        type="matrix"
        values="0 0 0 0 0 0 0 0 0 0 0 0 0 0 0 0 0 0 127 0"
      />
      <feOffset />
      <feGaussianBlur stdDeviation="4.16667" />
      <feColorMatrix
        type="matrix"
        values="0 0 0 0 0 0 0 0 0 0 0 0 0 0 0 0 0 0 0.25 0"
      />
      <feBlend
        mode="overlay"
        in2="BackgroundImageFix"
        result="effect1_dropShadow"
      />
      <feBlend
        mode="normal"
        in="SourceGraphic"
        in2="effect1_dropShadow"
        result="shape"
      />
    </filter>
    <linearGradient
      id="paint0_linear"
      x1="0"
      y1="0"
      x2="16"
      y2="16"
      gradientUnits="userSpaceOnUse"
    >
      <stop stop-color="white" />
      <stop offset="1" stop-color="white" stop-opacity="0" />
    </linearGradient>
  </defs>
  <mask
    id="mask0"
    mask-type="alpha"
    maskUnits="userSpaceOnUse"
    x="0"
    y="0"
    width="16"
    height="16"
  >
    <path
      fill-rule="evenodd"
      clip-rule="evenodd"
      d="M 10.9277 14.9044 C 11.1482 14.9903 11.3996 14.9848 11.6222 14.8777 L 14.5045 13.4908 C 14.8074 13.345 15 13.0385 15 12.7022 V 3.2979 C 15 2.9616 14.8074 2.6551 14.5045 2.5093 L 11.6222 1.1223 C 11.3301 0.9818 10.9882 1.0162 10.7319 1.2026 C 10.6953 1.2292 10.6604 1.2589 10.6277 1.2917 L 5.1097 6.3258 L 2.7062 4.5013 C 2.4825 4.3315 2.1695 4.3454 1.9617 4.5345 L 1.1908 5.2357 C 0.9366 5.4669 0.9364 5.8668 1.1902 6.0984 L 3.2746 8 L 1.1902 9.9016 C 0.9364 10.1332 0.9366 10.5331 1.1908 10.7643 L 1.9617 11.4656 C 2.1695 11.6546 2.4825 11.6685 2.7062 11.4987 L 5.1097 9.6742 L 10.6277 14.7083 C 10.7149 14.7957 10.8174 14.8615 10.9277 14.9044 Z M 11.5021 4.8218 L 7.3153 8 L 11.5021 11.1782 V 4.8218 Z"
      fill="white"
    />
  </mask>
  <g mask="url(#mask0)">
    <path
      d="M 14.5046 2.5115 L 11.62 1.1226 C 11.2861 0.9618 10.887 1.0296 10.625 1.2917 L 1.1818 9.9016 C 0.9278 10.1332 0.9281 10.5331 1.1824 10.7643 L 1.9538 11.4656 C 2.1617 11.6546 2.4749 11.6685 2.6987 11.4987 L 14.0705 2.8718 C 14.452 2.5824 15 2.8545 15 3.3333 V 3.2999 C 15 2.9637 14.8074 2.6573 14.5046 2.5115 Z"
      fill="#0065A9"
    />
    <g filter="url(#filter0_d)">
      <path
        d="M 14.5046 13.4885 L 11.62 14.8774 C 11.2861 15.0382 10.887 14.9704 10.625 14.7083 L 1.1818 6.0984 C 0.9278 5.8668 0.9281 5.4669 1.1824 5.2357 L 1.9538 4.5344 C 2.1617 4.3454 2.4749 4.3315 2.6987 4.5013 L 14.0705 13.1282 C 14.452 13.4176 15 13.1455 15 12.6667 V 12.7002 C 15 13.0363 14.8074 13.3427 14.5046 13.4885 Z"
        fill="#007ACC"
      />
    </g>
    <g filter="url(#filter1_d)">
      <path
        d="M 11.6201 14.8777 C 11.2861 15.0384 10.8871 14.9704 10.625 14.7083 C 10.9479 15.0312 11.5 14.8025 11.5 14.3459 V 1.6541 C 11.5 1.1975 10.9479 0.9688 10.625 1.2917 C 10.8871 1.0296 11.2861 0.9617 11.6201 1.1223 L 14.5042 2.5093 C 14.8073 2.655 15 2.9616 15 3.2978 V 12.7022 C 15 13.0385 14.8073 13.345 14.5042 13.4907 L 11.6201 14.8777 Z"
        fill="#1F9CF0"
      />
    </g>
    <g style="mix-blend-mode: overlay" opacity="0.25">
      <path
        fill-rule="evenodd"
        clip-rule="evenodd"
        d="M 10.9192 14.9044 C 11.1397 14.9903 11.3911 14.9848 11.6136 14.8777 L 14.496 13.4908 C 14.7989 13.345 14.9915 13.0385 14.9915 12.7022 V 3.2979 C 14.9915 2.9616 14.7989 2.655 14.496 2.5093 L 11.6136 1.1223 C 11.3216 0.9818 10.9797 1.0162 10.7234 1.2026 C 10.6868 1.2292 10.6519 1.2589 10.6191 1.2917 L 5.1012 6.3258 L 2.6977 4.5013 C 2.474 4.3315 2.161 4.3454 1.9532 4.5344 L 1.1823 5.2357 C 0.9281 5.4669 0.9278 5.8668 1.1817 6.0984 L 3.2661 8 L 1.1817 9.9016 C 0.9278 10.1332 0.9281 10.5331 1.1823 10.7643 L 1.9532 11.4656 C 2.161 11.6546 2.474 11.6685 2.6977 11.4987 L 5.1012 9.6742 L 10.6191 14.7083 C 10.7064 14.7957 10.8089 14.8615 10.9192 14.9044 Z M 11.4936 4.8218 L 7.3068 8 L 11.4936 11.1782 V 4.8218 Z"
        fill="url(#paint0_linear)"
      />
    </g>
  </g>
</svg>
