<svg viewBox="0 0 16 16" xmlns="http://www.w3.org/2000/svg">
  <path
    fill="#ffffff"
    d="M 8.000001,-9.99e-7 15.070204,3.9993325 V 12.000667 L 8.000001,16.000001 0.92979835,12.000667 V 3.9993325 Z"
  />
  <path
    fill="#8ed6fb"
    d="M 13.808239,11.723195 8.2347851,14.879441 V 12.42488 l 3.4737369,-1.912957 z m 0.381524,-0.344172 V 4.7837248 L 12.151411,5.9603132 V 10.202435 Z M 2.1704188,11.723195 7.7438729,14.876773 V 12.422212 L 4.2701356,10.511923 Z M 1.7888947,11.379023 V 4.7837248 L 3.8272474,5.9603132 V 10.202435 Z M 2.0263468,4.3568446 7.7438729,1.1232274 v 2.3745209 l -3.6631654,2.0143408 -0.029348,0.016008 z m 11.9232962,0 -5.7148579,-3.2336172 v 2.3745209 l 3.6604969,2.0170088 0.02935,0.016008 z"
  />
  <path
    fill="#1c78c0"
    d="M 7.7438729,11.864599 4.3181596,9.9783227 V 6.2457893 l 3.4257133,1.9769888 z m 0.4909122,0 3.4257129,-1.8836083 V 6.2457893 L 8.2347851,8.2227781 Z M 7.989329,8.081374 Z M 4.5476077,5.8135732 7.989329,3.9219605 11.428382,5.8135732 7.989329,7.7985659 Z"
  />
</svg>
