<!--
  Derived from vsc-material-theme-icons
  Licensed under Apache License 2.0
  http://www.apache.org/licenses/LICENSE-2.0

  Modified under GPLv3
-->
<svg viewBox="0 0 16 16" xmlns="http://www.w3.org/2000/svg">
  <defs>
    <mask id="cutout-mask">
      <rect width="100%" height="100%" fill="white" />
      <path
        d="m15.098 10.916h-0.29095v-0.7759c0-1.1638-1.1638-2.3276-2.3276-2.3276-1.1638 0-2.3276 1.1638-2.3276 2.3276v0.7759h-0.29095c-0.48006 0-0.87284 0.39895-0.87284 0.88669v3.3105c0 0.48763 0.39278 0.88669 0.87284 0.88669h5.237c0.48006 0 0.87284-0.39906 0.87284-0.88669 0 0 0.06462-2.7612 0-3.3105-0.057-0.4844-0.39278-0.88669-0.87284-0.88669zm-3.7823-0.7759v0.7759h2.3276v-0.7759s0-1.1638-1.1638-1.1638c-1.1638 0-1.1638 1.1638-1.1638 1.1638z"
        fill="black"
        stroke="#000"
        stroke-width="1.5"
      />
    </mask>
  </defs>
  <path
    d="m 14.098703,12.204479 c -0.720306,0.171385 -1.085009,0.329119 -1.97635,0.910824 -1.395613,0.901725 -2.9172621,1.321028 -2.9172621,1.321028 0,0 -0.1260477,0.189352 -0.490704,0.275102 -0.6302619,0.153302 -3.0027562,0.284085 -3.218848,0.288519 -0.580748,0.0045 -0.9363977,-0.148751 -1.0354367,-0.387687 -0.3016325,-0.721472 0.4321835,-1.037058 0.4321835,-1.037058 0,0 -0.1620747,-0.09928 -0.2566105,-0.189352 -0.085541,-0.08576 -0.175573,-0.257018 -0.2025933,-0.193902 -0.1125375,0.274986 -0.1710697,0.946876 -0.4726905,1.248928 -0.4141818,0.419304 -1.1975115,0.279535 -1.6612069,0.03604 -0.5087058,-0.270552 0.036016,-0.906275 0.036016,-0.906275 0,0 -0.2746122,0.162285 -0.4952073,-0.171384 C 1.6419149,13.09266 1.457335,12.569638 1.5068604,11.924933 c 0.063024,-0.743989 0.8823689,-1.456362 0.8823689,-1.456362 0,0 -0.1440612,-1.0866539 0.328641,-2.2003396 0.4276802,-1.0144949 1.5801579,-1.8306083 1.5801579,-1.8306083 0,0 -0.9679095,-1.0685937 -0.6077566,-2.0379967 C 3.9243761,3.768395 4.0189119,3.7728984 4.0954458,3.7458432 4.3655548,3.6421373 4.6266685,3.5294248 4.8202551,3.3175097 5.788153,2.2714445 7.0216798,2.4698378 7.0216798,2.4698378 c 0,0 0.5762446,-1.77198284 1.1164624,-1.4248034 0.166578,0.1082209 0.765328,1.4428402 0.765328,1.4428402 0,0 0.6392685,-0.3742347 0.7112991,-0.234467 0.3871617,0.7529846 0.4321837,2.1913096 0.2611137,3.0660368 -0.2881223,1.4428284 -1.0084281,2.218353 -1.2965505,2.7053121 -0.067527,0.1127242 0.774323,0.4689222 1.3055456,1.9433208 0.4907159,1.3480947 0.054029,2.4798877 0.1305629,2.6061207 0.0135,0.02252 0.018,0.03162 0.018,0.03162 0,0 0.562735,0.04504 1.692707,-0.653805 0.603289,-0.374271 1.319044,-0.793573 2.133851,-0.802557 0.787857,-0.01354 0.828457,0.915258 0.238702,1.055025 z"
    fill="#89ddff"
    mask="url(#cutout-mask)"
  />
  <path
    d="m15.098 10.916h-0.29095v-0.7759c0-1.1638-1.1638-2.3276-2.3276-2.3276-1.1638 0-2.3276 1.1638-2.3276 2.3276v0.7759h-0.29095c-0.48006 0-0.87284 0.39895-0.87284 0.88669v3.3105c0 0.48763 0.39278 0.88669 0.87284 0.88669h5.237c0.48006 0 0.87284-0.39906 0.87284-0.88669 0 0 0.06462-2.7612 0-3.3105-0.057-0.4844-0.39278-0.88669-0.87284-0.88669zm-3.7823-0.7759v0.7759h2.3276v-0.7759s0-1.1638-1.1638-1.1638c-1.1638 0-1.1638 1.1638-1.1638 1.1638z"
    fill="#FFCB6B"
    fill-rule="evenodd"
  />
</svg>
